%
M48
M72
T01C0.02362
T02C0.02756
T03C0.03150
T04C0.03600
T05C0.04000
T06C0.05000
T07C0.05906
T08C0.07000
T09C0.07874
T10C0.08900
T11C0.09350
%
T01
X94869Y126000
X119869Y126000
X144416Y160980
X162369Y181000
X152369Y188500
X142369Y206000
X137369Y216000
X137369Y223500
X127369Y218500
X119869Y223500
X97369Y223500
X77369Y223500
X72395Y194465
X69869Y181000
X93235Y180665
X101701Y180665
X177369Y196000
X179869Y226000
X207369Y228500
X242369Y223500
X252369Y236000
X252369Y251000
X262369Y183500
X234967Y153106
X162369Y248500
X37369Y293500
X367369Y248500
T02
X195243Y258185
X187369Y258185
X179495Y258185
X160243Y258185
X152369Y258185
X144495Y258185
X125243Y258185
X117369Y258185
X109495Y258185
T03
X222369Y243500
X232369Y243500
X242369Y243500
X302369Y243500
X312369Y243500
X322369Y243500
X332369Y243500
T04
X62369Y278500
X52369Y278500
X42369Y278500
X32369Y278500
T05
X42369Y258500
X52369Y258500
X52369Y248500
X42369Y248500
X42369Y238500
X52369Y238500
X82369Y278500
X92369Y278500
X102369Y278500
X112369Y278500
X122369Y278500
X132369Y278500
T06
X397369Y288500
T07
X402369Y193500
X402369Y118500
X382684Y43500
X252369Y118500
X187369Y118500
X187369Y193500
X252369Y193500
X232684Y43500
X205479Y43500
X55479Y43500
X37369Y118500
X37369Y193500
T08
X387330Y278461
X407408Y278461
X407408Y298539
X387330Y298539
T09
X219219Y160980
T10
X34180Y19248
X404259Y19248
X34180Y308618
T11
X152369Y303500
X172369Y303500
X192369Y303500
M30
