G75*
%MOIN*%
%OFA0B0*%
%FSLAX25Y25*%
%IPPOS*%
%LPD*%
%AMOC8*
5,1,8,0,0,1.08239X$1,22.5*
%
%ADD10C,0.09700*%
%ADD11C,0.08674*%
%ADD12R,0.02965X0.06902*%
%ADD13R,0.06902X0.02965*%
%ADD14R,0.05918X0.03162*%
%ADD15R,0.04737X0.08674*%
%ADD16R,0.08674X0.04737*%
%ADD17C,0.09658*%
%ADD18R,0.07200X0.07200*%
%ADD19OC8,0.07200*%
%ADD20R,0.03950X0.05524*%
%ADD21R,0.05524X0.03950*%
%ADD22R,0.02769X0.02769*%
%ADD23R,0.06350X0.06350*%
%ADD24C,0.08300*%
%ADD25C,0.11300*%
%ADD26R,0.04698X0.03517*%
%ADD27C,0.06800*%
%ADD28C,0.07200*%
%ADD29R,0.09461X0.05524*%
%ADD30R,0.09461X0.14580*%
%ADD31R,0.04737X0.05131*%
%ADD32R,0.08200X0.08200*%
%ADD33C,0.08200*%
%ADD34C,0.14150*%
%ADD35C,0.05162*%
D10*
X0034180Y0019248D03*
X0404259Y0019248D03*
X0034180Y0308618D03*
D11*
X0219219Y0160980D03*
D12*
X0123117Y0170862D03*
X0119967Y0170862D03*
X0116818Y0170862D03*
X0113668Y0170862D03*
X0110519Y0170862D03*
X0107369Y0170862D03*
X0104219Y0170862D03*
X0101070Y0170862D03*
X0097920Y0170862D03*
X0094771Y0170862D03*
X0091621Y0170862D03*
X0091621Y0216138D03*
X0094771Y0216138D03*
X0097920Y0216138D03*
X0101070Y0216138D03*
X0104219Y0216138D03*
X0107369Y0216138D03*
X0110519Y0216138D03*
X0113668Y0216138D03*
X0116818Y0216138D03*
X0119967Y0216138D03*
X0123117Y0216138D03*
D13*
X0130007Y0209248D03*
X0130007Y0206098D03*
X0130007Y0202949D03*
X0130007Y0199799D03*
X0130007Y0196650D03*
X0130007Y0193500D03*
X0130007Y0190350D03*
X0130007Y0187201D03*
X0130007Y0184051D03*
X0130007Y0180902D03*
X0130007Y0177752D03*
X0084731Y0177752D03*
X0084731Y0180902D03*
X0084731Y0184051D03*
X0084731Y0187201D03*
X0084731Y0190350D03*
X0084731Y0193500D03*
X0084731Y0196650D03*
X0084731Y0199799D03*
X0084731Y0202949D03*
X0084731Y0206098D03*
X0084731Y0209248D03*
D14*
X0062093Y0195882D03*
X0062093Y0190961D03*
X0062093Y0186039D03*
X0062093Y0181118D03*
X0052645Y0181118D03*
X0052645Y0186039D03*
X0052645Y0190961D03*
X0052645Y0195882D03*
D15*
X0074574Y0097201D03*
X0080873Y0097201D03*
X0087172Y0097201D03*
X0093471Y0097201D03*
X0099771Y0097201D03*
X0106070Y0097201D03*
X0112369Y0097201D03*
X0118668Y0097201D03*
X0124967Y0097201D03*
X0131267Y0097201D03*
X0137566Y0097201D03*
X0143865Y0097201D03*
X0150164Y0097201D03*
X0156463Y0097201D03*
X0156463Y0059799D03*
X0150164Y0059799D03*
X0143865Y0059799D03*
X0137566Y0059799D03*
X0131267Y0059799D03*
X0124967Y0059799D03*
X0118668Y0059799D03*
X0112369Y0059799D03*
X0106070Y0059799D03*
X0099771Y0059799D03*
X0093471Y0059799D03*
X0087172Y0059799D03*
X0080873Y0059799D03*
X0074574Y0059799D03*
D16*
X0064731Y0061768D03*
X0064731Y0068067D03*
X0064731Y0082634D03*
X0064731Y0088933D03*
X0064731Y0095232D03*
X0158432Y0084799D03*
X0158432Y0078500D03*
X0158432Y0072201D03*
D17*
X0205479Y0043500D03*
X0232684Y0043500D03*
X0252369Y0118500D03*
X0187369Y0118500D03*
X0187369Y0193500D03*
X0252369Y0193500D03*
X0402369Y0193500D03*
X0402369Y0118500D03*
X0382684Y0043500D03*
X0055479Y0043500D03*
X0037369Y0118500D03*
X0037369Y0193500D03*
D18*
X0052369Y0238500D03*
D19*
X0042369Y0238500D03*
X0042369Y0248500D03*
X0052369Y0248500D03*
X0052369Y0258500D03*
X0042369Y0258500D03*
D20*
X0044475Y0179563D03*
X0037389Y0179563D03*
X0073826Y0108500D03*
X0080912Y0108500D03*
X0111326Y0106000D03*
X0118412Y0106000D03*
X0131326Y0106000D03*
X0138412Y0106000D03*
X0125912Y0048500D03*
X0118826Y0048500D03*
D21*
X0052369Y0084957D03*
X0052369Y0092043D03*
D22*
X0119869Y0114000D03*
X0119869Y0118000D03*
X0132369Y0118000D03*
X0132369Y0114000D03*
D23*
X0222369Y0243500D03*
X0232369Y0243500D03*
X0242369Y0243500D03*
X0302369Y0243500D03*
X0312369Y0243500D03*
X0322369Y0243500D03*
X0332369Y0243500D03*
D24*
X0397369Y0288500D03*
D25*
X0407408Y0278461D03*
X0387330Y0278461D03*
X0387330Y0298539D03*
X0407408Y0298539D03*
D26*
X0352448Y0252240D03*
X0352448Y0248500D03*
X0352448Y0244760D03*
X0342251Y0244760D03*
X0342251Y0252240D03*
X0292487Y0242240D03*
X0282290Y0242240D03*
X0282290Y0238500D03*
X0282290Y0234760D03*
X0292487Y0234760D03*
D27*
X0062369Y0275500D02*
X0062369Y0281500D01*
X0052369Y0281500D02*
X0052369Y0275500D01*
X0042369Y0275500D02*
X0042369Y0281500D01*
X0032369Y0281500D02*
X0032369Y0275500D01*
D28*
X0109495Y0258185D03*
X0117369Y0258185D03*
X0125243Y0258185D03*
X0144495Y0258185D03*
X0152369Y0258185D03*
X0160243Y0258185D03*
X0179495Y0258185D03*
X0187369Y0258185D03*
X0195243Y0258185D03*
D29*
X0286700Y0202555D03*
X0286700Y0193500D03*
X0286700Y0184445D03*
X0286700Y0167555D03*
X0286700Y0158500D03*
X0286700Y0149445D03*
D30*
X0311109Y0158500D03*
X0311109Y0193500D03*
D31*
X0272369Y0195154D03*
X0272369Y0201846D03*
X0272369Y0186846D03*
X0272369Y0180154D03*
X0272369Y0171846D03*
X0272369Y0165154D03*
X0272369Y0156846D03*
X0272369Y0150154D03*
D32*
X0082369Y0278500D03*
D33*
X0092369Y0278500D03*
X0102369Y0278500D03*
X0112369Y0278500D03*
X0122369Y0278500D03*
X0132369Y0278500D03*
D34*
X0152369Y0303500D03*
X0172369Y0303500D03*
X0192369Y0303500D03*
D35*
X0162369Y0248500D03*
X0179869Y0226000D03*
X0207369Y0228500D03*
X0242369Y0223500D03*
X0252369Y0236000D03*
X0252369Y0251000D03*
X0177369Y0196000D03*
X0162369Y0181000D03*
X0152369Y0188500D03*
X0142369Y0206000D03*
X0137369Y0216000D03*
X0137369Y0223500D03*
X0127369Y0218500D03*
X0119869Y0223500D03*
X0097369Y0223500D03*
X0077369Y0223500D03*
X0072395Y0194465D03*
X0069869Y0181000D03*
X0093235Y0180665D03*
X0101701Y0180665D03*
X0144416Y0160980D03*
X0119869Y0126000D03*
X0094869Y0126000D03*
X0234967Y0153106D03*
X0262369Y0183500D03*
X0367369Y0248500D03*
X0037369Y0293500D03*
M02*
