G75*
%MOIN*%
%OFA0B0*%
%FSLAX25Y25*%
%IPPOS*%
%LPD*%
%AMOC8*
5,1,8,0,0,1.08239X$1,22.5*
%
%ADD10C,0.00000*%
%ADD11C,0.08858*%
%ADD12R,0.06400X0.06400*%
%ADD13OC8,0.06400*%
%ADD14R,0.05550X0.05550*%
%ADD15R,0.03200X0.06600*%
%ADD16C,0.07500*%
%ADD17C,0.10500*%
%ADD18C,0.06000*%
%ADD19C,0.06400*%
%ADD20R,0.07400X0.07400*%
%ADD21C,0.07400*%
%ADD22C,0.13350*%
%ADD23R,0.03150X0.03150*%
%ADD24R,0.03937X0.04331*%
%ADD25C,0.01600*%
%ADD26C,0.04362*%
D10*
X0022369Y0003000D02*
X0022542Y0003260D01*
X0022553Y0003250D02*
X0022553Y0003283D01*
X0022586Y0003283D01*
X0022586Y0003250D01*
X0022553Y0003250D01*
X0022553Y0003183D02*
X0022553Y0003150D01*
X0022586Y0003150D01*
X0022586Y0003183D01*
X0022553Y0003183D01*
X0022502Y0003183D02*
X0022469Y0003150D01*
X0022402Y0003150D01*
X0022369Y0003183D01*
X0022369Y0003317D01*
X0022402Y0003350D01*
X0022469Y0003350D01*
X0022502Y0003317D01*
X0022652Y0003173D02*
X0022782Y0003173D01*
X0022829Y0003183D02*
X0022863Y0003150D01*
X0022929Y0003150D01*
X0022963Y0003183D01*
X0022963Y0003350D01*
X0023047Y0003283D02*
X0023147Y0003283D01*
X0023198Y0003250D02*
X0023231Y0003283D01*
X0023298Y0003283D01*
X0023331Y0003250D01*
X0023331Y0003217D01*
X0023198Y0003217D01*
X0023198Y0003250D02*
X0023198Y0003183D01*
X0023231Y0003150D01*
X0023298Y0003150D01*
X0023333Y0003173D02*
X0023377Y0003173D01*
X0023382Y0003150D02*
X0023382Y0003283D01*
X0023382Y0003217D02*
X0023449Y0003283D01*
X0023482Y0003283D01*
X0023535Y0003250D02*
X0023569Y0003283D01*
X0023669Y0003283D01*
X0023635Y0003217D02*
X0023569Y0003217D01*
X0023535Y0003250D01*
X0023576Y0003173D02*
X0023620Y0003130D01*
X0023620Y0003000D01*
X0023490Y0003000D01*
X0023446Y0003043D01*
X0023490Y0003087D01*
X0023620Y0003087D01*
X0023635Y0003150D02*
X0023669Y0003183D01*
X0023635Y0003217D01*
X0023635Y0003150D02*
X0023535Y0003150D01*
X0023576Y0003173D02*
X0023490Y0003173D01*
X0023333Y0003173D02*
X0023247Y0003087D01*
X0023181Y0003130D02*
X0023137Y0003173D01*
X0023051Y0003173D01*
X0023007Y0003130D01*
X0023007Y0003043D01*
X0023051Y0003000D01*
X0023137Y0003000D01*
X0023181Y0003043D01*
X0023181Y0003130D01*
X0023147Y0003183D02*
X0023114Y0003217D01*
X0023047Y0003217D01*
X0023013Y0003250D01*
X0023047Y0003283D01*
X0023013Y0003150D02*
X0023114Y0003150D01*
X0023147Y0003183D01*
X0023247Y0003173D02*
X0023247Y0003000D01*
X0022934Y0003000D02*
X0022891Y0003043D01*
X0022891Y0003217D01*
X0022848Y0003173D02*
X0022934Y0003173D01*
X0022829Y0003183D02*
X0022829Y0003350D01*
X0022779Y0003350D02*
X0022645Y0003150D01*
X0022652Y0003173D02*
X0022608Y0003130D01*
X0022652Y0003087D01*
X0022738Y0003087D01*
X0022782Y0003043D01*
X0022738Y0003000D01*
X0022608Y0003000D01*
X0022369Y0003650D02*
X0022369Y0318611D01*
X0416070Y0318611D01*
X0416070Y0003650D01*
X0022369Y0003650D01*
X0023686Y0003130D02*
X0023686Y0003043D01*
X0023729Y0003000D01*
X0023859Y0003000D01*
X0023859Y0002957D02*
X0023859Y0003173D01*
X0023729Y0003173D01*
X0023686Y0003130D01*
X0023719Y0003150D02*
X0023853Y0003350D01*
X0023937Y0003283D02*
X0023904Y0003250D01*
X0023904Y0003183D01*
X0023937Y0003150D01*
X0024037Y0003150D01*
X0024055Y0003173D02*
X0024098Y0003130D01*
X0024098Y0003087D01*
X0023925Y0003087D01*
X0023925Y0003130D02*
X0023968Y0003173D01*
X0024055Y0003173D01*
X0024088Y0003183D02*
X0024121Y0003150D01*
X0024154Y0003183D01*
X0024188Y0003150D01*
X0024221Y0003183D01*
X0024221Y0003283D01*
X0024272Y0003317D02*
X0024305Y0003350D01*
X0024372Y0003350D01*
X0024405Y0003317D01*
X0024272Y0003183D01*
X0024305Y0003150D01*
X0024372Y0003150D01*
X0024405Y0003183D01*
X0024405Y0003317D01*
X0024456Y0003317D02*
X0024489Y0003350D01*
X0024556Y0003350D01*
X0024589Y0003317D01*
X0024456Y0003183D01*
X0024489Y0003150D01*
X0024556Y0003150D01*
X0024589Y0003183D01*
X0024589Y0003317D01*
X0024643Y0003260D02*
X0024643Y0003000D01*
X0024577Y0003043D02*
X0024534Y0003000D01*
X0024447Y0003000D01*
X0024404Y0003043D01*
X0024404Y0003217D01*
X0024447Y0003260D01*
X0024534Y0003260D01*
X0024577Y0003217D01*
X0024640Y0003250D02*
X0024740Y0003250D01*
X0024774Y0003217D01*
X0024774Y0003183D01*
X0024740Y0003150D01*
X0024674Y0003150D01*
X0024640Y0003183D01*
X0024640Y0003250D01*
X0024707Y0003317D01*
X0024774Y0003350D01*
X0024824Y0003317D02*
X0024858Y0003350D01*
X0024924Y0003350D01*
X0024958Y0003317D01*
X0024958Y0003283D01*
X0024924Y0003250D01*
X0024958Y0003217D01*
X0024958Y0003183D01*
X0024924Y0003150D01*
X0024858Y0003150D01*
X0024824Y0003183D01*
X0024773Y0003173D02*
X0024817Y0003130D01*
X0024817Y0003000D01*
X0024883Y0003000D02*
X0024883Y0003173D01*
X0024891Y0003250D02*
X0024924Y0003250D01*
X0024969Y0003173D02*
X0025013Y0003173D01*
X0025008Y0003150D02*
X0025142Y0003350D01*
X0025193Y0003350D02*
X0025293Y0003350D01*
X0025326Y0003317D01*
X0025326Y0003183D01*
X0025293Y0003150D01*
X0025193Y0003150D01*
X0025193Y0003350D01*
X0025212Y0003173D02*
X0025125Y0003173D01*
X0025082Y0003130D01*
X0025082Y0003043D01*
X0025125Y0003000D01*
X0025212Y0003000D01*
X0025256Y0003043D01*
X0025256Y0003130D01*
X0025212Y0003173D01*
X0025321Y0003173D02*
X0025365Y0003173D01*
X0025408Y0003130D01*
X0025452Y0003173D01*
X0025495Y0003130D01*
X0025495Y0003000D01*
X0025561Y0003043D02*
X0025561Y0003130D01*
X0025604Y0003173D01*
X0025691Y0003173D01*
X0025734Y0003130D01*
X0025734Y0003087D01*
X0025561Y0003087D01*
X0025561Y0003043D02*
X0025604Y0003000D01*
X0025691Y0003000D01*
X0025800Y0003000D02*
X0025974Y0003260D01*
X0026052Y0003250D02*
X0026052Y0003183D01*
X0026085Y0003150D01*
X0026152Y0003150D01*
X0026185Y0003183D01*
X0026185Y0003250D01*
X0026152Y0003283D01*
X0026085Y0003283D01*
X0026052Y0003250D01*
X0026083Y0003173D02*
X0026040Y0003130D01*
X0026040Y0003043D01*
X0026083Y0003000D01*
X0026213Y0003000D01*
X0026279Y0003000D02*
X0026279Y0003173D01*
X0026270Y0003150D02*
X0026236Y0003183D01*
X0026270Y0003217D01*
X0026370Y0003217D01*
X0026370Y0003250D02*
X0026370Y0003150D01*
X0026270Y0003150D01*
X0026213Y0003173D02*
X0026083Y0003173D01*
X0025996Y0003150D02*
X0025929Y0003150D01*
X0025963Y0003150D02*
X0025963Y0003350D01*
X0025929Y0003350D01*
X0025845Y0003283D02*
X0025879Y0003250D01*
X0025879Y0003150D01*
X0025745Y0003150D02*
X0025745Y0003283D01*
X0025845Y0003283D01*
X0025694Y0003283D02*
X0025694Y0003183D01*
X0025661Y0003150D01*
X0025628Y0003183D01*
X0025594Y0003150D01*
X0025561Y0003183D01*
X0025561Y0003283D01*
X0025510Y0003250D02*
X0025477Y0003283D01*
X0025410Y0003283D01*
X0025377Y0003250D01*
X0025377Y0003183D01*
X0025410Y0003150D01*
X0025477Y0003150D01*
X0025510Y0003183D01*
X0025510Y0003250D01*
X0025408Y0003130D02*
X0025408Y0003000D01*
X0025321Y0003000D02*
X0025321Y0003173D01*
X0024969Y0003173D02*
X0024883Y0003087D01*
X0024773Y0003173D02*
X0024687Y0003173D01*
X0024643Y0003130D01*
X0024456Y0003183D02*
X0024456Y0003317D01*
X0024338Y0003260D02*
X0024164Y0003000D01*
X0024055Y0003000D02*
X0023968Y0003000D01*
X0023925Y0003043D01*
X0023925Y0003130D01*
X0023937Y0003283D02*
X0024037Y0003283D01*
X0024088Y0003283D02*
X0024088Y0003183D01*
X0024272Y0003183D02*
X0024272Y0003317D01*
X0023859Y0002957D02*
X0023816Y0002913D01*
X0023772Y0002913D01*
X0026279Y0003087D02*
X0026366Y0003173D01*
X0026409Y0003173D01*
X0026420Y0003183D02*
X0026420Y0003250D01*
X0026454Y0003283D01*
X0026554Y0003283D01*
X0026604Y0003250D02*
X0026638Y0003283D01*
X0026738Y0003283D01*
X0026705Y0003217D02*
X0026638Y0003217D01*
X0026604Y0003250D01*
X0026609Y0003173D02*
X0026522Y0003173D01*
X0026479Y0003130D01*
X0026479Y0003043D01*
X0026522Y0003000D01*
X0026609Y0003000D01*
X0026652Y0003043D01*
X0026652Y0003130D01*
X0026609Y0003173D01*
X0026604Y0003150D02*
X0026705Y0003150D01*
X0026738Y0003183D01*
X0026705Y0003217D01*
X0026761Y0003173D02*
X0026718Y0003130D01*
X0026718Y0003043D01*
X0026761Y0003000D01*
X0026891Y0003000D01*
X0026957Y0003000D02*
X0027001Y0003000D01*
X0027001Y0003043D01*
X0026957Y0003043D01*
X0026957Y0003000D01*
X0027077Y0003000D02*
X0027207Y0003000D01*
X0027251Y0003043D01*
X0027251Y0003130D01*
X0027207Y0003173D01*
X0027077Y0003173D01*
X0027106Y0003150D02*
X0027006Y0003150D01*
X0026973Y0003183D01*
X0026973Y0003250D01*
X0027006Y0003283D01*
X0027106Y0003283D01*
X0027077Y0003260D02*
X0027077Y0003000D01*
X0027157Y0003150D02*
X0027157Y0003283D01*
X0027157Y0003217D02*
X0027224Y0003283D01*
X0027257Y0003283D01*
X0027310Y0003250D02*
X0027344Y0003283D01*
X0027410Y0003283D01*
X0027444Y0003250D01*
X0027444Y0003183D01*
X0027410Y0003150D01*
X0027344Y0003150D01*
X0027310Y0003183D01*
X0027310Y0003250D01*
X0027316Y0003173D02*
X0027360Y0003173D01*
X0027403Y0003130D01*
X0027447Y0003173D01*
X0027490Y0003130D01*
X0027490Y0003000D01*
X0027556Y0003000D02*
X0027686Y0003000D01*
X0027729Y0003043D01*
X0027729Y0003130D01*
X0027686Y0003173D01*
X0027556Y0003173D01*
X0027556Y0002913D01*
X0027403Y0003000D02*
X0027403Y0003130D01*
X0027316Y0003173D02*
X0027316Y0003000D01*
X0027495Y0003183D02*
X0027528Y0003150D01*
X0027628Y0003150D01*
X0027679Y0003150D02*
X0027712Y0003150D01*
X0027712Y0003183D01*
X0027679Y0003183D01*
X0027679Y0003150D01*
X0027771Y0003150D02*
X0027871Y0003150D01*
X0027904Y0003183D01*
X0027904Y0003250D01*
X0027871Y0003283D01*
X0027771Y0003283D01*
X0027771Y0003350D02*
X0027771Y0003150D01*
X0027955Y0003150D02*
X0027955Y0003283D01*
X0027988Y0003283D01*
X0028022Y0003250D01*
X0028055Y0003283D01*
X0028088Y0003250D01*
X0028088Y0003150D01*
X0028139Y0003150D02*
X0028239Y0003150D01*
X0028273Y0003183D01*
X0028273Y0003250D01*
X0028239Y0003283D01*
X0028139Y0003283D01*
X0028139Y0003083D01*
X0028022Y0003150D02*
X0028022Y0003250D01*
X0027628Y0003283D02*
X0027528Y0003283D01*
X0027495Y0003250D01*
X0027495Y0003183D01*
X0026922Y0003350D02*
X0026789Y0003150D01*
X0026761Y0003173D02*
X0026891Y0003173D01*
X0026554Y0003150D02*
X0026454Y0003150D01*
X0026420Y0003183D01*
X0026370Y0003250D02*
X0026336Y0003283D01*
X0026270Y0003283D01*
X0026554Y0003350D02*
X0026554Y0003150D01*
X0029730Y0019398D02*
X0029732Y0019531D01*
X0029738Y0019664D01*
X0029748Y0019797D01*
X0029762Y0019929D01*
X0029780Y0020061D01*
X0029802Y0020193D01*
X0029827Y0020323D01*
X0029857Y0020453D01*
X0029890Y0020582D01*
X0029928Y0020710D01*
X0029969Y0020836D01*
X0030014Y0020962D01*
X0030062Y0021086D01*
X0030115Y0021208D01*
X0030171Y0021329D01*
X0030230Y0021448D01*
X0030293Y0021565D01*
X0030360Y0021680D01*
X0030430Y0021794D01*
X0030503Y0021905D01*
X0030580Y0022014D01*
X0030660Y0022120D01*
X0030743Y0022224D01*
X0030829Y0022326D01*
X0030918Y0022425D01*
X0031010Y0022521D01*
X0031105Y0022614D01*
X0031202Y0022705D01*
X0031303Y0022793D01*
X0031405Y0022877D01*
X0031511Y0022959D01*
X0031619Y0023037D01*
X0031729Y0023112D01*
X0031841Y0023184D01*
X0031955Y0023252D01*
X0032071Y0023317D01*
X0032189Y0023378D01*
X0032309Y0023436D01*
X0032431Y0023490D01*
X0032554Y0023540D01*
X0032679Y0023587D01*
X0032805Y0023630D01*
X0032932Y0023669D01*
X0033060Y0023705D01*
X0033190Y0023736D01*
X0033320Y0023764D01*
X0033451Y0023788D01*
X0033583Y0023808D01*
X0033715Y0023824D01*
X0033847Y0023836D01*
X0033980Y0023844D01*
X0034113Y0023848D01*
X0034247Y0023848D01*
X0034380Y0023844D01*
X0034513Y0023836D01*
X0034645Y0023824D01*
X0034777Y0023808D01*
X0034909Y0023788D01*
X0035040Y0023764D01*
X0035170Y0023736D01*
X0035300Y0023705D01*
X0035428Y0023669D01*
X0035555Y0023630D01*
X0035681Y0023587D01*
X0035806Y0023540D01*
X0035929Y0023490D01*
X0036051Y0023436D01*
X0036171Y0023378D01*
X0036289Y0023317D01*
X0036405Y0023252D01*
X0036519Y0023184D01*
X0036631Y0023112D01*
X0036741Y0023037D01*
X0036849Y0022959D01*
X0036955Y0022877D01*
X0037057Y0022793D01*
X0037158Y0022705D01*
X0037255Y0022614D01*
X0037350Y0022521D01*
X0037442Y0022425D01*
X0037531Y0022326D01*
X0037617Y0022224D01*
X0037700Y0022120D01*
X0037780Y0022014D01*
X0037857Y0021905D01*
X0037930Y0021794D01*
X0038000Y0021680D01*
X0038067Y0021565D01*
X0038130Y0021448D01*
X0038189Y0021329D01*
X0038245Y0021208D01*
X0038298Y0021086D01*
X0038346Y0020962D01*
X0038391Y0020836D01*
X0038432Y0020710D01*
X0038470Y0020582D01*
X0038503Y0020453D01*
X0038533Y0020323D01*
X0038558Y0020193D01*
X0038580Y0020061D01*
X0038598Y0019929D01*
X0038612Y0019797D01*
X0038622Y0019664D01*
X0038628Y0019531D01*
X0038630Y0019398D01*
X0038628Y0019265D01*
X0038622Y0019132D01*
X0038612Y0018999D01*
X0038598Y0018867D01*
X0038580Y0018735D01*
X0038558Y0018603D01*
X0038533Y0018473D01*
X0038503Y0018343D01*
X0038470Y0018214D01*
X0038432Y0018086D01*
X0038391Y0017960D01*
X0038346Y0017834D01*
X0038298Y0017710D01*
X0038245Y0017588D01*
X0038189Y0017467D01*
X0038130Y0017348D01*
X0038067Y0017231D01*
X0038000Y0017116D01*
X0037930Y0017002D01*
X0037857Y0016891D01*
X0037780Y0016782D01*
X0037700Y0016676D01*
X0037617Y0016572D01*
X0037531Y0016470D01*
X0037442Y0016371D01*
X0037350Y0016275D01*
X0037255Y0016182D01*
X0037158Y0016091D01*
X0037057Y0016003D01*
X0036955Y0015919D01*
X0036849Y0015837D01*
X0036741Y0015759D01*
X0036631Y0015684D01*
X0036519Y0015612D01*
X0036405Y0015544D01*
X0036289Y0015479D01*
X0036171Y0015418D01*
X0036051Y0015360D01*
X0035929Y0015306D01*
X0035806Y0015256D01*
X0035681Y0015209D01*
X0035555Y0015166D01*
X0035428Y0015127D01*
X0035300Y0015091D01*
X0035170Y0015060D01*
X0035040Y0015032D01*
X0034909Y0015008D01*
X0034777Y0014988D01*
X0034645Y0014972D01*
X0034513Y0014960D01*
X0034380Y0014952D01*
X0034247Y0014948D01*
X0034113Y0014948D01*
X0033980Y0014952D01*
X0033847Y0014960D01*
X0033715Y0014972D01*
X0033583Y0014988D01*
X0033451Y0015008D01*
X0033320Y0015032D01*
X0033190Y0015060D01*
X0033060Y0015091D01*
X0032932Y0015127D01*
X0032805Y0015166D01*
X0032679Y0015209D01*
X0032554Y0015256D01*
X0032431Y0015306D01*
X0032309Y0015360D01*
X0032189Y0015418D01*
X0032071Y0015479D01*
X0031955Y0015544D01*
X0031841Y0015612D01*
X0031729Y0015684D01*
X0031619Y0015759D01*
X0031511Y0015837D01*
X0031405Y0015919D01*
X0031303Y0016003D01*
X0031202Y0016091D01*
X0031105Y0016182D01*
X0031010Y0016275D01*
X0030918Y0016371D01*
X0030829Y0016470D01*
X0030743Y0016572D01*
X0030660Y0016676D01*
X0030580Y0016782D01*
X0030503Y0016891D01*
X0030430Y0017002D01*
X0030360Y0017116D01*
X0030293Y0017231D01*
X0030230Y0017348D01*
X0030171Y0017467D01*
X0030115Y0017588D01*
X0030062Y0017710D01*
X0030014Y0017834D01*
X0029969Y0017960D01*
X0029928Y0018086D01*
X0029890Y0018214D01*
X0029857Y0018343D01*
X0029827Y0018473D01*
X0029802Y0018603D01*
X0029780Y0018735D01*
X0029762Y0018867D01*
X0029748Y0018999D01*
X0029738Y0019132D01*
X0029732Y0019265D01*
X0029730Y0019398D01*
X0215282Y0161130D02*
X0215284Y0161255D01*
X0215290Y0161380D01*
X0215300Y0161504D01*
X0215314Y0161628D01*
X0215331Y0161752D01*
X0215353Y0161875D01*
X0215379Y0161997D01*
X0215408Y0162119D01*
X0215441Y0162239D01*
X0215479Y0162358D01*
X0215519Y0162477D01*
X0215564Y0162593D01*
X0215612Y0162708D01*
X0215664Y0162822D01*
X0215720Y0162934D01*
X0215779Y0163044D01*
X0215841Y0163152D01*
X0215907Y0163259D01*
X0215976Y0163363D01*
X0216049Y0163464D01*
X0216124Y0163564D01*
X0216203Y0163661D01*
X0216285Y0163755D01*
X0216370Y0163847D01*
X0216457Y0163936D01*
X0216548Y0164022D01*
X0216641Y0164105D01*
X0216737Y0164186D01*
X0216835Y0164263D01*
X0216935Y0164337D01*
X0217038Y0164408D01*
X0217143Y0164475D01*
X0217251Y0164540D01*
X0217360Y0164600D01*
X0217471Y0164658D01*
X0217584Y0164711D01*
X0217698Y0164761D01*
X0217814Y0164808D01*
X0217931Y0164850D01*
X0218050Y0164889D01*
X0218170Y0164925D01*
X0218291Y0164956D01*
X0218413Y0164984D01*
X0218535Y0165007D01*
X0218659Y0165027D01*
X0218783Y0165043D01*
X0218907Y0165055D01*
X0219032Y0165063D01*
X0219157Y0165067D01*
X0219281Y0165067D01*
X0219406Y0165063D01*
X0219531Y0165055D01*
X0219655Y0165043D01*
X0219779Y0165027D01*
X0219903Y0165007D01*
X0220025Y0164984D01*
X0220147Y0164956D01*
X0220268Y0164925D01*
X0220388Y0164889D01*
X0220507Y0164850D01*
X0220624Y0164808D01*
X0220740Y0164761D01*
X0220854Y0164711D01*
X0220967Y0164658D01*
X0221078Y0164600D01*
X0221188Y0164540D01*
X0221295Y0164475D01*
X0221400Y0164408D01*
X0221503Y0164337D01*
X0221603Y0164263D01*
X0221701Y0164186D01*
X0221797Y0164105D01*
X0221890Y0164022D01*
X0221981Y0163936D01*
X0222068Y0163847D01*
X0222153Y0163755D01*
X0222235Y0163661D01*
X0222314Y0163564D01*
X0222389Y0163464D01*
X0222462Y0163363D01*
X0222531Y0163259D01*
X0222597Y0163152D01*
X0222659Y0163044D01*
X0222718Y0162934D01*
X0222774Y0162822D01*
X0222826Y0162708D01*
X0222874Y0162593D01*
X0222919Y0162477D01*
X0222959Y0162358D01*
X0222997Y0162239D01*
X0223030Y0162119D01*
X0223059Y0161997D01*
X0223085Y0161875D01*
X0223107Y0161752D01*
X0223124Y0161628D01*
X0223138Y0161504D01*
X0223148Y0161380D01*
X0223154Y0161255D01*
X0223156Y0161130D01*
X0223154Y0161005D01*
X0223148Y0160880D01*
X0223138Y0160756D01*
X0223124Y0160632D01*
X0223107Y0160508D01*
X0223085Y0160385D01*
X0223059Y0160263D01*
X0223030Y0160141D01*
X0222997Y0160021D01*
X0222959Y0159902D01*
X0222919Y0159783D01*
X0222874Y0159667D01*
X0222826Y0159552D01*
X0222774Y0159438D01*
X0222718Y0159326D01*
X0222659Y0159216D01*
X0222597Y0159108D01*
X0222531Y0159001D01*
X0222462Y0158897D01*
X0222389Y0158796D01*
X0222314Y0158696D01*
X0222235Y0158599D01*
X0222153Y0158505D01*
X0222068Y0158413D01*
X0221981Y0158324D01*
X0221890Y0158238D01*
X0221797Y0158155D01*
X0221701Y0158074D01*
X0221603Y0157997D01*
X0221503Y0157923D01*
X0221400Y0157852D01*
X0221295Y0157785D01*
X0221187Y0157720D01*
X0221078Y0157660D01*
X0220967Y0157602D01*
X0220854Y0157549D01*
X0220740Y0157499D01*
X0220624Y0157452D01*
X0220507Y0157410D01*
X0220388Y0157371D01*
X0220268Y0157335D01*
X0220147Y0157304D01*
X0220025Y0157276D01*
X0219903Y0157253D01*
X0219779Y0157233D01*
X0219655Y0157217D01*
X0219531Y0157205D01*
X0219406Y0157197D01*
X0219281Y0157193D01*
X0219157Y0157193D01*
X0219032Y0157197D01*
X0218907Y0157205D01*
X0218783Y0157217D01*
X0218659Y0157233D01*
X0218535Y0157253D01*
X0218413Y0157276D01*
X0218291Y0157304D01*
X0218170Y0157335D01*
X0218050Y0157371D01*
X0217931Y0157410D01*
X0217814Y0157452D01*
X0217698Y0157499D01*
X0217584Y0157549D01*
X0217471Y0157602D01*
X0217360Y0157660D01*
X0217250Y0157720D01*
X0217143Y0157785D01*
X0217038Y0157852D01*
X0216935Y0157923D01*
X0216835Y0157997D01*
X0216737Y0158074D01*
X0216641Y0158155D01*
X0216548Y0158238D01*
X0216457Y0158324D01*
X0216370Y0158413D01*
X0216285Y0158505D01*
X0216203Y0158599D01*
X0216124Y0158696D01*
X0216049Y0158796D01*
X0215976Y0158897D01*
X0215907Y0159001D01*
X0215841Y0159108D01*
X0215779Y0159216D01*
X0215720Y0159326D01*
X0215664Y0159438D01*
X0215612Y0159552D01*
X0215564Y0159667D01*
X0215519Y0159783D01*
X0215479Y0159902D01*
X0215441Y0160021D01*
X0215408Y0160141D01*
X0215379Y0160263D01*
X0215353Y0160385D01*
X0215331Y0160508D01*
X0215314Y0160632D01*
X0215300Y0160756D01*
X0215290Y0160880D01*
X0215284Y0161005D01*
X0215282Y0161130D01*
X0399809Y0019398D02*
X0399811Y0019531D01*
X0399817Y0019664D01*
X0399827Y0019797D01*
X0399841Y0019929D01*
X0399859Y0020061D01*
X0399881Y0020193D01*
X0399906Y0020323D01*
X0399936Y0020453D01*
X0399969Y0020582D01*
X0400007Y0020710D01*
X0400048Y0020836D01*
X0400093Y0020962D01*
X0400141Y0021086D01*
X0400194Y0021208D01*
X0400250Y0021329D01*
X0400309Y0021448D01*
X0400372Y0021565D01*
X0400439Y0021680D01*
X0400509Y0021794D01*
X0400582Y0021905D01*
X0400659Y0022014D01*
X0400739Y0022120D01*
X0400822Y0022224D01*
X0400908Y0022326D01*
X0400997Y0022425D01*
X0401089Y0022521D01*
X0401184Y0022614D01*
X0401281Y0022705D01*
X0401382Y0022793D01*
X0401484Y0022877D01*
X0401590Y0022959D01*
X0401698Y0023037D01*
X0401808Y0023112D01*
X0401920Y0023184D01*
X0402034Y0023252D01*
X0402150Y0023317D01*
X0402268Y0023378D01*
X0402388Y0023436D01*
X0402510Y0023490D01*
X0402633Y0023540D01*
X0402758Y0023587D01*
X0402884Y0023630D01*
X0403011Y0023669D01*
X0403139Y0023705D01*
X0403269Y0023736D01*
X0403399Y0023764D01*
X0403530Y0023788D01*
X0403662Y0023808D01*
X0403794Y0023824D01*
X0403926Y0023836D01*
X0404059Y0023844D01*
X0404192Y0023848D01*
X0404326Y0023848D01*
X0404459Y0023844D01*
X0404592Y0023836D01*
X0404724Y0023824D01*
X0404856Y0023808D01*
X0404988Y0023788D01*
X0405119Y0023764D01*
X0405249Y0023736D01*
X0405379Y0023705D01*
X0405507Y0023669D01*
X0405634Y0023630D01*
X0405760Y0023587D01*
X0405885Y0023540D01*
X0406008Y0023490D01*
X0406130Y0023436D01*
X0406250Y0023378D01*
X0406368Y0023317D01*
X0406484Y0023252D01*
X0406598Y0023184D01*
X0406710Y0023112D01*
X0406820Y0023037D01*
X0406928Y0022959D01*
X0407034Y0022877D01*
X0407136Y0022793D01*
X0407237Y0022705D01*
X0407334Y0022614D01*
X0407429Y0022521D01*
X0407521Y0022425D01*
X0407610Y0022326D01*
X0407696Y0022224D01*
X0407779Y0022120D01*
X0407859Y0022014D01*
X0407936Y0021905D01*
X0408009Y0021794D01*
X0408079Y0021680D01*
X0408146Y0021565D01*
X0408209Y0021448D01*
X0408268Y0021329D01*
X0408324Y0021208D01*
X0408377Y0021086D01*
X0408425Y0020962D01*
X0408470Y0020836D01*
X0408511Y0020710D01*
X0408549Y0020582D01*
X0408582Y0020453D01*
X0408612Y0020323D01*
X0408637Y0020193D01*
X0408659Y0020061D01*
X0408677Y0019929D01*
X0408691Y0019797D01*
X0408701Y0019664D01*
X0408707Y0019531D01*
X0408709Y0019398D01*
X0408707Y0019265D01*
X0408701Y0019132D01*
X0408691Y0018999D01*
X0408677Y0018867D01*
X0408659Y0018735D01*
X0408637Y0018603D01*
X0408612Y0018473D01*
X0408582Y0018343D01*
X0408549Y0018214D01*
X0408511Y0018086D01*
X0408470Y0017960D01*
X0408425Y0017834D01*
X0408377Y0017710D01*
X0408324Y0017588D01*
X0408268Y0017467D01*
X0408209Y0017348D01*
X0408146Y0017231D01*
X0408079Y0017116D01*
X0408009Y0017002D01*
X0407936Y0016891D01*
X0407859Y0016782D01*
X0407779Y0016676D01*
X0407696Y0016572D01*
X0407610Y0016470D01*
X0407521Y0016371D01*
X0407429Y0016275D01*
X0407334Y0016182D01*
X0407237Y0016091D01*
X0407136Y0016003D01*
X0407034Y0015919D01*
X0406928Y0015837D01*
X0406820Y0015759D01*
X0406710Y0015684D01*
X0406598Y0015612D01*
X0406484Y0015544D01*
X0406368Y0015479D01*
X0406250Y0015418D01*
X0406130Y0015360D01*
X0406008Y0015306D01*
X0405885Y0015256D01*
X0405760Y0015209D01*
X0405634Y0015166D01*
X0405507Y0015127D01*
X0405379Y0015091D01*
X0405249Y0015060D01*
X0405119Y0015032D01*
X0404988Y0015008D01*
X0404856Y0014988D01*
X0404724Y0014972D01*
X0404592Y0014960D01*
X0404459Y0014952D01*
X0404326Y0014948D01*
X0404192Y0014948D01*
X0404059Y0014952D01*
X0403926Y0014960D01*
X0403794Y0014972D01*
X0403662Y0014988D01*
X0403530Y0015008D01*
X0403399Y0015032D01*
X0403269Y0015060D01*
X0403139Y0015091D01*
X0403011Y0015127D01*
X0402884Y0015166D01*
X0402758Y0015209D01*
X0402633Y0015256D01*
X0402510Y0015306D01*
X0402388Y0015360D01*
X0402268Y0015418D01*
X0402150Y0015479D01*
X0402034Y0015544D01*
X0401920Y0015612D01*
X0401808Y0015684D01*
X0401698Y0015759D01*
X0401590Y0015837D01*
X0401484Y0015919D01*
X0401382Y0016003D01*
X0401281Y0016091D01*
X0401184Y0016182D01*
X0401089Y0016275D01*
X0400997Y0016371D01*
X0400908Y0016470D01*
X0400822Y0016572D01*
X0400739Y0016676D01*
X0400659Y0016782D01*
X0400582Y0016891D01*
X0400509Y0017002D01*
X0400439Y0017116D01*
X0400372Y0017231D01*
X0400309Y0017348D01*
X0400250Y0017467D01*
X0400194Y0017588D01*
X0400141Y0017710D01*
X0400093Y0017834D01*
X0400048Y0017960D01*
X0400007Y0018086D01*
X0399969Y0018214D01*
X0399936Y0018343D01*
X0399906Y0018473D01*
X0399881Y0018603D01*
X0399859Y0018735D01*
X0399841Y0018867D01*
X0399827Y0018999D01*
X0399817Y0019132D01*
X0399811Y0019265D01*
X0399809Y0019398D01*
X0029730Y0308768D02*
X0029732Y0308901D01*
X0029738Y0309034D01*
X0029748Y0309167D01*
X0029762Y0309299D01*
X0029780Y0309431D01*
X0029802Y0309563D01*
X0029827Y0309693D01*
X0029857Y0309823D01*
X0029890Y0309952D01*
X0029928Y0310080D01*
X0029969Y0310206D01*
X0030014Y0310332D01*
X0030062Y0310456D01*
X0030115Y0310578D01*
X0030171Y0310699D01*
X0030230Y0310818D01*
X0030293Y0310935D01*
X0030360Y0311050D01*
X0030430Y0311164D01*
X0030503Y0311275D01*
X0030580Y0311384D01*
X0030660Y0311490D01*
X0030743Y0311594D01*
X0030829Y0311696D01*
X0030918Y0311795D01*
X0031010Y0311891D01*
X0031105Y0311984D01*
X0031202Y0312075D01*
X0031303Y0312163D01*
X0031405Y0312247D01*
X0031511Y0312329D01*
X0031619Y0312407D01*
X0031729Y0312482D01*
X0031841Y0312554D01*
X0031955Y0312622D01*
X0032071Y0312687D01*
X0032189Y0312748D01*
X0032309Y0312806D01*
X0032431Y0312860D01*
X0032554Y0312910D01*
X0032679Y0312957D01*
X0032805Y0313000D01*
X0032932Y0313039D01*
X0033060Y0313075D01*
X0033190Y0313106D01*
X0033320Y0313134D01*
X0033451Y0313158D01*
X0033583Y0313178D01*
X0033715Y0313194D01*
X0033847Y0313206D01*
X0033980Y0313214D01*
X0034113Y0313218D01*
X0034247Y0313218D01*
X0034380Y0313214D01*
X0034513Y0313206D01*
X0034645Y0313194D01*
X0034777Y0313178D01*
X0034909Y0313158D01*
X0035040Y0313134D01*
X0035170Y0313106D01*
X0035300Y0313075D01*
X0035428Y0313039D01*
X0035555Y0313000D01*
X0035681Y0312957D01*
X0035806Y0312910D01*
X0035929Y0312860D01*
X0036051Y0312806D01*
X0036171Y0312748D01*
X0036289Y0312687D01*
X0036405Y0312622D01*
X0036519Y0312554D01*
X0036631Y0312482D01*
X0036741Y0312407D01*
X0036849Y0312329D01*
X0036955Y0312247D01*
X0037057Y0312163D01*
X0037158Y0312075D01*
X0037255Y0311984D01*
X0037350Y0311891D01*
X0037442Y0311795D01*
X0037531Y0311696D01*
X0037617Y0311594D01*
X0037700Y0311490D01*
X0037780Y0311384D01*
X0037857Y0311275D01*
X0037930Y0311164D01*
X0038000Y0311050D01*
X0038067Y0310935D01*
X0038130Y0310818D01*
X0038189Y0310699D01*
X0038245Y0310578D01*
X0038298Y0310456D01*
X0038346Y0310332D01*
X0038391Y0310206D01*
X0038432Y0310080D01*
X0038470Y0309952D01*
X0038503Y0309823D01*
X0038533Y0309693D01*
X0038558Y0309563D01*
X0038580Y0309431D01*
X0038598Y0309299D01*
X0038612Y0309167D01*
X0038622Y0309034D01*
X0038628Y0308901D01*
X0038630Y0308768D01*
X0038628Y0308635D01*
X0038622Y0308502D01*
X0038612Y0308369D01*
X0038598Y0308237D01*
X0038580Y0308105D01*
X0038558Y0307973D01*
X0038533Y0307843D01*
X0038503Y0307713D01*
X0038470Y0307584D01*
X0038432Y0307456D01*
X0038391Y0307330D01*
X0038346Y0307204D01*
X0038298Y0307080D01*
X0038245Y0306958D01*
X0038189Y0306837D01*
X0038130Y0306718D01*
X0038067Y0306601D01*
X0038000Y0306486D01*
X0037930Y0306372D01*
X0037857Y0306261D01*
X0037780Y0306152D01*
X0037700Y0306046D01*
X0037617Y0305942D01*
X0037531Y0305840D01*
X0037442Y0305741D01*
X0037350Y0305645D01*
X0037255Y0305552D01*
X0037158Y0305461D01*
X0037057Y0305373D01*
X0036955Y0305289D01*
X0036849Y0305207D01*
X0036741Y0305129D01*
X0036631Y0305054D01*
X0036519Y0304982D01*
X0036405Y0304914D01*
X0036289Y0304849D01*
X0036171Y0304788D01*
X0036051Y0304730D01*
X0035929Y0304676D01*
X0035806Y0304626D01*
X0035681Y0304579D01*
X0035555Y0304536D01*
X0035428Y0304497D01*
X0035300Y0304461D01*
X0035170Y0304430D01*
X0035040Y0304402D01*
X0034909Y0304378D01*
X0034777Y0304358D01*
X0034645Y0304342D01*
X0034513Y0304330D01*
X0034380Y0304322D01*
X0034247Y0304318D01*
X0034113Y0304318D01*
X0033980Y0304322D01*
X0033847Y0304330D01*
X0033715Y0304342D01*
X0033583Y0304358D01*
X0033451Y0304378D01*
X0033320Y0304402D01*
X0033190Y0304430D01*
X0033060Y0304461D01*
X0032932Y0304497D01*
X0032805Y0304536D01*
X0032679Y0304579D01*
X0032554Y0304626D01*
X0032431Y0304676D01*
X0032309Y0304730D01*
X0032189Y0304788D01*
X0032071Y0304849D01*
X0031955Y0304914D01*
X0031841Y0304982D01*
X0031729Y0305054D01*
X0031619Y0305129D01*
X0031511Y0305207D01*
X0031405Y0305289D01*
X0031303Y0305373D01*
X0031202Y0305461D01*
X0031105Y0305552D01*
X0031010Y0305645D01*
X0030918Y0305741D01*
X0030829Y0305840D01*
X0030743Y0305942D01*
X0030660Y0306046D01*
X0030580Y0306152D01*
X0030503Y0306261D01*
X0030430Y0306372D01*
X0030360Y0306486D01*
X0030293Y0306601D01*
X0030230Y0306718D01*
X0030171Y0306837D01*
X0030115Y0306958D01*
X0030062Y0307080D01*
X0030014Y0307204D01*
X0029969Y0307330D01*
X0029928Y0307456D01*
X0029890Y0307584D01*
X0029857Y0307713D01*
X0029827Y0307843D01*
X0029802Y0307973D01*
X0029780Y0308105D01*
X0029762Y0308237D01*
X0029748Y0308369D01*
X0029738Y0308502D01*
X0029732Y0308635D01*
X0029730Y0308768D01*
D11*
X0037369Y0193650D03*
X0037369Y0118650D03*
X0055479Y0043650D03*
X0187369Y0118650D03*
X0252369Y0118650D03*
X0252369Y0193650D03*
X0187369Y0193650D03*
X0205479Y0043650D03*
X0232684Y0043650D03*
X0382684Y0043650D03*
X0402369Y0118650D03*
X0402369Y0193650D03*
D12*
X0052369Y0238650D03*
D13*
X0042369Y0238650D03*
X0042369Y0248650D03*
X0052369Y0248650D03*
X0052369Y0258650D03*
X0042369Y0258650D03*
D14*
X0222369Y0243650D03*
X0232369Y0243650D03*
X0242369Y0243650D03*
X0302369Y0243650D03*
X0312369Y0243650D03*
X0322369Y0243650D03*
X0332369Y0243650D03*
D15*
X0364869Y0311150D03*
X0214869Y0311150D03*
D16*
X0397369Y0288650D03*
D17*
X0407408Y0278611D03*
X0387330Y0278611D03*
X0387330Y0298689D03*
X0407408Y0298689D03*
D18*
X0062369Y0281650D02*
X0062369Y0275650D01*
X0052369Y0275650D02*
X0052369Y0281650D01*
X0042369Y0281650D02*
X0042369Y0275650D01*
X0032369Y0275650D02*
X0032369Y0281650D01*
D19*
X0109495Y0258335D03*
X0117369Y0258335D03*
X0125243Y0258335D03*
X0144495Y0258335D03*
X0152369Y0258335D03*
X0160243Y0258335D03*
X0179495Y0258335D03*
X0187369Y0258335D03*
X0195243Y0258335D03*
D20*
X0082369Y0278650D03*
D21*
X0092369Y0278650D03*
X0102369Y0278650D03*
X0112369Y0278650D03*
X0122369Y0278650D03*
X0132369Y0278650D03*
D22*
X0152369Y0303650D03*
X0172369Y0303650D03*
X0192369Y0303650D03*
D23*
X0212330Y0117823D03*
X0218235Y0117823D03*
D24*
X0218629Y0129634D03*
X0211936Y0129634D03*
D25*
X0136542Y0129634D01*
X0132605Y0133571D01*
X0093235Y0133571D01*
X0096348Y0130771D02*
X0131445Y0130771D01*
X0134956Y0127261D01*
X0135985Y0126834D01*
X0207967Y0126834D01*
X0207967Y0126640D01*
X0209139Y0125469D01*
X0214733Y0125469D01*
X0215282Y0126018D01*
X0215435Y0125866D01*
X0215435Y0121001D01*
X0215141Y0120707D01*
X0215010Y0120838D01*
X0214599Y0121075D01*
X0214141Y0121198D01*
X0212330Y0121198D01*
X0212330Y0117823D01*
X0212330Y0114448D01*
X0214141Y0114448D01*
X0214599Y0114571D01*
X0215010Y0114808D01*
X0215141Y0114939D01*
X0215832Y0114248D01*
X0220638Y0114248D01*
X0221810Y0115420D01*
X0221810Y0120226D01*
X0221035Y0121001D01*
X0221035Y0125469D01*
X0221426Y0125469D01*
X0222597Y0126640D01*
X0222597Y0132628D01*
X0221426Y0133800D01*
X0215832Y0133800D01*
X0215282Y0133250D01*
X0214733Y0133800D01*
X0209139Y0133800D01*
X0207967Y0132628D01*
X0207967Y0132434D01*
X0137702Y0132434D01*
X0134979Y0135157D01*
X0134191Y0135945D01*
X0133162Y0136371D01*
X0096348Y0136371D01*
X0095603Y0137116D01*
X0094067Y0137752D01*
X0092403Y0137752D01*
X0090867Y0137116D01*
X0089691Y0135940D01*
X0089054Y0134403D01*
X0089054Y0132740D01*
X0089691Y0131203D01*
X0090867Y0130027D01*
X0092257Y0129451D01*
X0091324Y0128518D01*
X0090688Y0126982D01*
X0090688Y0125318D01*
X0091324Y0123782D01*
X0092501Y0122605D01*
X0094037Y0121969D01*
X0095701Y0121969D01*
X0097237Y0122605D01*
X0097982Y0123350D01*
X0116756Y0123350D01*
X0117501Y0122605D01*
X0119037Y0121969D01*
X0120701Y0121969D01*
X0122237Y0122605D01*
X0123414Y0123782D01*
X0124050Y0125318D01*
X0124050Y0126982D01*
X0123414Y0128518D01*
X0122237Y0129695D01*
X0120701Y0130331D01*
X0119037Y0130331D01*
X0117501Y0129695D01*
X0116756Y0128950D01*
X0097982Y0128950D01*
X0097237Y0129695D01*
X0095847Y0130270D01*
X0096348Y0130771D01*
X0096663Y0129932D02*
X0118075Y0129932D01*
X0121663Y0129932D02*
X0132284Y0129932D01*
X0133883Y0128334D02*
X0123490Y0128334D01*
X0124050Y0126735D02*
X0207967Y0126735D01*
X0210060Y0121075D02*
X0209650Y0120838D01*
X0209314Y0120503D01*
X0209077Y0120093D01*
X0208955Y0119635D01*
X0208955Y0117823D01*
X0208955Y0116011D01*
X0209077Y0115554D01*
X0209314Y0115143D01*
X0209650Y0114808D01*
X0210060Y0114571D01*
X0210518Y0114448D01*
X0212330Y0114448D01*
X0212330Y0117823D01*
X0212330Y0117823D01*
X0212330Y0117823D01*
X0212329Y0117823D02*
X0208955Y0117823D01*
X0212329Y0117823D01*
X0212329Y0117823D01*
X0212330Y0117823D02*
X0212330Y0121198D01*
X0210518Y0121198D01*
X0210060Y0121075D01*
X0209221Y0120341D02*
X0193627Y0120341D01*
X0193798Y0119929D02*
X0192819Y0122292D01*
X0191011Y0124100D01*
X0188648Y0125079D01*
X0186090Y0125079D01*
X0183727Y0124100D01*
X0181919Y0122292D01*
X0180940Y0119929D01*
X0180940Y0117371D01*
X0181919Y0115008D01*
X0183727Y0113200D01*
X0186090Y0112221D01*
X0188648Y0112221D01*
X0191011Y0113200D01*
X0192819Y0115008D01*
X0193798Y0117371D01*
X0193798Y0119929D01*
X0193798Y0118743D02*
X0208955Y0118743D01*
X0208955Y0117144D02*
X0193704Y0117144D01*
X0193042Y0115546D02*
X0209082Y0115546D01*
X0212330Y0115546D02*
X0212330Y0115546D01*
X0212330Y0117144D02*
X0212330Y0117144D01*
X0212330Y0118743D02*
X0212330Y0118743D01*
X0212330Y0120341D02*
X0212330Y0120341D01*
X0215435Y0121940D02*
X0192965Y0121940D01*
X0191573Y0123538D02*
X0215435Y0123538D01*
X0215435Y0125137D02*
X0123975Y0125137D01*
X0123170Y0123538D02*
X0183165Y0123538D01*
X0181773Y0121940D02*
X0042965Y0121940D01*
X0042819Y0122292D02*
X0041011Y0124100D01*
X0040169Y0124449D01*
X0040169Y0187851D01*
X0041011Y0188200D01*
X0042819Y0190008D01*
X0043798Y0192371D01*
X0043798Y0194929D01*
X0042819Y0197292D01*
X0041011Y0199100D01*
X0038648Y0200079D01*
X0036090Y0200079D01*
X0033727Y0199100D01*
X0031919Y0197292D01*
X0030940Y0194929D01*
X0030940Y0192371D01*
X0031919Y0190008D01*
X0033727Y0188200D01*
X0034569Y0187851D01*
X0034569Y0124449D01*
X0033727Y0124100D01*
X0031919Y0122292D01*
X0030940Y0119929D01*
X0030940Y0117371D01*
X0031919Y0115008D01*
X0033727Y0113200D01*
X0036090Y0112221D01*
X0038648Y0112221D01*
X0041011Y0113200D01*
X0042819Y0115008D01*
X0043798Y0117371D01*
X0043798Y0119929D01*
X0042819Y0122292D01*
X0041573Y0123538D02*
X0091568Y0123538D01*
X0090763Y0125137D02*
X0040169Y0125137D01*
X0040169Y0126735D02*
X0090688Y0126735D01*
X0091248Y0128334D02*
X0040169Y0128334D01*
X0040169Y0129932D02*
X0091094Y0129932D01*
X0089555Y0131531D02*
X0040169Y0131531D01*
X0040169Y0133129D02*
X0089054Y0133129D01*
X0089189Y0134728D02*
X0040169Y0134728D01*
X0040169Y0136326D02*
X0090077Y0136326D01*
X0094869Y0126150D02*
X0119869Y0126150D01*
X0133270Y0136326D02*
X0249569Y0136326D01*
X0249569Y0134728D02*
X0135408Y0134728D01*
X0137007Y0133129D02*
X0208469Y0133129D01*
X0218235Y0129634D02*
X0218235Y0117823D01*
X0221810Y0117144D02*
X0246034Y0117144D01*
X0245940Y0117371D02*
X0246919Y0115008D01*
X0248727Y0113200D01*
X0251090Y0112221D01*
X0253648Y0112221D01*
X0256011Y0113200D01*
X0257819Y0115008D01*
X0258798Y0117371D01*
X0258798Y0119929D01*
X0257819Y0122292D01*
X0256011Y0124100D01*
X0255169Y0124449D01*
X0255169Y0187851D01*
X0256011Y0188200D01*
X0257819Y0190008D01*
X0258798Y0192371D01*
X0258798Y0193261D01*
X0259569Y0192490D01*
X0259569Y0186763D01*
X0258824Y0186018D01*
X0258188Y0184482D01*
X0258188Y0182818D01*
X0258824Y0181282D01*
X0260001Y0180105D01*
X0261537Y0179469D01*
X0263201Y0179469D01*
X0264737Y0180105D01*
X0265914Y0181282D01*
X0266550Y0182818D01*
X0266550Y0184482D01*
X0265914Y0186018D01*
X0265169Y0186763D01*
X0265169Y0194207D01*
X0264743Y0195236D01*
X0220904Y0239075D01*
X0222369Y0239075D01*
X0225381Y0239075D01*
X0225839Y0239198D01*
X0226249Y0239435D01*
X0226584Y0239770D01*
X0226821Y0240180D01*
X0226944Y0240638D01*
X0226944Y0243650D01*
X0226944Y0246662D01*
X0226821Y0247120D01*
X0226584Y0247530D01*
X0226249Y0247865D01*
X0225839Y0248102D01*
X0225381Y0248225D01*
X0222369Y0248225D01*
X0222369Y0243650D01*
X0226944Y0243650D01*
X0222369Y0243650D01*
X0222369Y0243650D01*
X0222369Y0243650D01*
X0222369Y0239075D01*
X0222369Y0243650D01*
X0222369Y0243650D01*
X0222369Y0248225D01*
X0219357Y0248225D01*
X0218899Y0248102D01*
X0218489Y0247865D01*
X0218154Y0247530D01*
X0217917Y0247120D01*
X0217794Y0246662D01*
X0217794Y0243650D01*
X0222369Y0243650D01*
X0222369Y0243650D01*
X0217794Y0243650D01*
X0217794Y0242185D01*
X0215169Y0244810D01*
X0215169Y0269207D01*
X0214743Y0270236D01*
X0199743Y0285236D01*
X0198955Y0286024D01*
X0197926Y0286450D01*
X0155169Y0286450D01*
X0155169Y0295420D01*
X0157283Y0296296D01*
X0159723Y0298736D01*
X0161044Y0301924D01*
X0161044Y0305376D01*
X0159723Y0308564D01*
X0157283Y0311004D01*
X0154094Y0312325D01*
X0150643Y0312325D01*
X0147455Y0311004D01*
X0145015Y0308564D01*
X0143694Y0305376D01*
X0143694Y0301924D01*
X0145015Y0298736D01*
X0147455Y0296296D01*
X0149569Y0295420D01*
X0149569Y0283093D01*
X0149995Y0282064D01*
X0150783Y0281276D01*
X0151812Y0280850D01*
X0196209Y0280850D01*
X0209569Y0267490D01*
X0209569Y0243093D01*
X0209995Y0242064D01*
X0210783Y0241276D01*
X0251980Y0200079D01*
X0251090Y0200079D01*
X0248727Y0199100D01*
X0246919Y0197292D01*
X0245940Y0194929D01*
X0245940Y0192371D01*
X0246919Y0190008D01*
X0248727Y0188200D01*
X0249569Y0187851D01*
X0249569Y0124449D01*
X0248727Y0124100D01*
X0246919Y0122292D01*
X0245940Y0119929D01*
X0245940Y0117371D01*
X0245940Y0118743D02*
X0221810Y0118743D01*
X0221695Y0120341D02*
X0246111Y0120341D01*
X0246773Y0121940D02*
X0221035Y0121940D01*
X0221035Y0123538D02*
X0248165Y0123538D01*
X0249569Y0125137D02*
X0221035Y0125137D01*
X0222597Y0126735D02*
X0249569Y0126735D01*
X0249569Y0128334D02*
X0222597Y0128334D01*
X0222597Y0129932D02*
X0249569Y0129932D01*
X0249569Y0131531D02*
X0222597Y0131531D01*
X0222096Y0133129D02*
X0249569Y0133129D01*
X0249569Y0137925D02*
X0040169Y0137925D01*
X0040169Y0139523D02*
X0249569Y0139523D01*
X0249569Y0141122D02*
X0040169Y0141122D01*
X0040169Y0142720D02*
X0249569Y0142720D01*
X0249569Y0144319D02*
X0040169Y0144319D01*
X0040169Y0145918D02*
X0249569Y0145918D01*
X0249569Y0147516D02*
X0040169Y0147516D01*
X0040169Y0149115D02*
X0234041Y0149115D01*
X0234136Y0149075D02*
X0235799Y0149075D01*
X0237336Y0149712D01*
X0238512Y0150888D01*
X0239148Y0152425D01*
X0239148Y0154088D01*
X0238512Y0155625D01*
X0237767Y0156369D01*
X0237767Y0173498D01*
X0237341Y0174527D01*
X0236553Y0175315D01*
X0222019Y0189849D01*
X0222019Y0228616D01*
X0221593Y0229646D01*
X0220805Y0230433D01*
X0197411Y0253828D01*
X0197864Y0254059D01*
X0198500Y0254521D01*
X0199057Y0255078D01*
X0199519Y0255714D01*
X0199877Y0256416D01*
X0200120Y0257164D01*
X0200243Y0257942D01*
X0200243Y0258335D01*
X0195243Y0258335D01*
X0195243Y0258335D01*
X0200243Y0258335D01*
X0200243Y0258729D01*
X0200120Y0259506D01*
X0199877Y0260254D01*
X0199519Y0260956D01*
X0199057Y0261592D01*
X0198500Y0262149D01*
X0197864Y0262611D01*
X0197162Y0262969D01*
X0196414Y0263212D01*
X0195636Y0263335D01*
X0195243Y0263335D01*
X0195243Y0258335D01*
X0195243Y0258335D01*
X0195243Y0263335D01*
X0194849Y0263335D01*
X0194072Y0263212D01*
X0193324Y0262969D01*
X0192622Y0262611D01*
X0191986Y0262149D01*
X0191447Y0261611D01*
X0190315Y0262743D01*
X0190169Y0262804D01*
X0190169Y0274207D01*
X0189743Y0275236D01*
X0188955Y0276024D01*
X0187926Y0276450D01*
X0145169Y0276450D01*
X0145169Y0289207D01*
X0144743Y0290236D01*
X0143955Y0291024D01*
X0142926Y0291450D01*
X0051812Y0291450D01*
X0050783Y0291024D01*
X0049995Y0290236D01*
X0049569Y0289207D01*
X0049569Y0285902D01*
X0049537Y0285889D01*
X0048130Y0284482D01*
X0047369Y0282645D01*
X0046608Y0284482D01*
X0045201Y0285889D01*
X0043364Y0286650D01*
X0041374Y0286650D01*
X0039537Y0285889D01*
X0038130Y0284482D01*
X0037369Y0282645D01*
X0036608Y0284482D01*
X0035201Y0285889D01*
X0033364Y0286650D01*
X0031374Y0286650D01*
X0030169Y0286151D01*
X0030169Y0290850D01*
X0034256Y0290850D01*
X0035001Y0290105D01*
X0036537Y0289469D01*
X0038201Y0289469D01*
X0039737Y0290105D01*
X0040914Y0291282D01*
X0041550Y0292818D01*
X0041550Y0294482D01*
X0040914Y0296018D01*
X0039737Y0297195D01*
X0038201Y0297831D01*
X0036537Y0297831D01*
X0035001Y0297195D01*
X0034256Y0296450D01*
X0026812Y0296450D01*
X0025783Y0296024D01*
X0024995Y0295236D01*
X0024569Y0294207D01*
X0024569Y0218093D01*
X0024995Y0217064D01*
X0025783Y0216276D01*
X0026812Y0215850D01*
X0057926Y0215850D01*
X0058955Y0216276D01*
X0063529Y0220850D01*
X0074256Y0220850D01*
X0075001Y0220105D01*
X0076537Y0219469D01*
X0078201Y0219469D01*
X0079737Y0220105D01*
X0080914Y0221282D01*
X0081550Y0222818D01*
X0081550Y0224482D01*
X0080983Y0225850D01*
X0091209Y0225850D01*
X0093188Y0223871D01*
X0093188Y0222818D01*
X0093824Y0221282D01*
X0095001Y0220105D01*
X0096537Y0219469D01*
X0098201Y0219469D01*
X0099737Y0220105D01*
X0100914Y0221282D01*
X0101550Y0222818D01*
X0101550Y0224482D01*
X0100914Y0226018D01*
X0099737Y0227195D01*
X0098201Y0227831D01*
X0097148Y0227831D01*
X0093955Y0231024D01*
X0092926Y0231450D01*
X0035169Y0231450D01*
X0035169Y0236890D01*
X0035783Y0236276D01*
X0036812Y0235850D01*
X0037815Y0235850D01*
X0040215Y0233450D01*
X0044523Y0233450D01*
X0047169Y0236096D01*
X0047169Y0234622D01*
X0048341Y0233450D01*
X0056397Y0233450D01*
X0057569Y0234622D01*
X0057569Y0242678D01*
X0056397Y0243850D01*
X0054923Y0243850D01*
X0057569Y0246496D01*
X0057569Y0250804D01*
X0054723Y0253650D01*
X0056923Y0255850D01*
X0094569Y0255850D01*
X0094569Y0238093D01*
X0094995Y0237064D01*
X0095783Y0236276D01*
X0096812Y0235850D01*
X0139569Y0235850D01*
X0139569Y0227264D01*
X0138201Y0227831D01*
X0136537Y0227831D01*
X0135001Y0227195D01*
X0134256Y0226450D01*
X0122982Y0226450D01*
X0122237Y0227195D01*
X0120701Y0227831D01*
X0119037Y0227831D01*
X0117501Y0227195D01*
X0116324Y0226018D01*
X0115688Y0224482D01*
X0115688Y0222818D01*
X0116324Y0221282D01*
X0117501Y0220105D01*
X0119037Y0219469D01*
X0120701Y0219469D01*
X0122237Y0220105D01*
X0122982Y0220850D01*
X0123755Y0220850D01*
X0123188Y0219482D01*
X0123188Y0217818D01*
X0123824Y0216282D01*
X0125001Y0215105D01*
X0126537Y0214469D01*
X0128201Y0214469D01*
X0129737Y0215105D01*
X0129790Y0215158D01*
X0133654Y0214193D01*
X0133824Y0213782D01*
X0135001Y0212605D01*
X0136537Y0211969D01*
X0138201Y0211969D01*
X0139569Y0212536D01*
X0139569Y0209263D01*
X0138824Y0208518D01*
X0138188Y0206982D01*
X0138188Y0205318D01*
X0138824Y0203782D01*
X0140001Y0202605D01*
X0141537Y0201969D01*
X0143201Y0201969D01*
X0144737Y0202605D01*
X0145914Y0203782D01*
X0146550Y0205318D01*
X0146550Y0206982D01*
X0145914Y0208518D01*
X0145169Y0209263D01*
X0145169Y0239207D01*
X0144743Y0240236D01*
X0143955Y0241024D01*
X0142926Y0241450D01*
X0100169Y0241450D01*
X0100169Y0259207D01*
X0099743Y0260236D01*
X0098955Y0261024D01*
X0097926Y0261450D01*
X0056923Y0261450D01*
X0054523Y0263850D01*
X0054029Y0263850D01*
X0054743Y0264564D01*
X0055169Y0265593D01*
X0055169Y0271398D01*
X0055201Y0271411D01*
X0056608Y0272818D01*
X0057369Y0274655D01*
X0057369Y0282645D01*
X0056608Y0284482D01*
X0055240Y0285850D01*
X0060039Y0285850D01*
X0059853Y0285755D01*
X0059242Y0285311D01*
X0058708Y0284777D01*
X0058264Y0284166D01*
X0057921Y0283493D01*
X0057687Y0282774D01*
X0057569Y0282028D01*
X0057569Y0278750D01*
X0062269Y0278750D01*
X0062269Y0278550D01*
X0062469Y0278550D01*
X0062469Y0278750D01*
X0067169Y0278750D01*
X0067169Y0282028D01*
X0067051Y0282774D01*
X0066817Y0283493D01*
X0066474Y0284166D01*
X0066030Y0284777D01*
X0065496Y0285311D01*
X0064885Y0285755D01*
X0064699Y0285850D01*
X0109569Y0285850D01*
X0109569Y0283660D01*
X0109140Y0283482D01*
X0107537Y0281879D01*
X0107369Y0281474D01*
X0107201Y0281879D01*
X0105598Y0283482D01*
X0103503Y0284350D01*
X0101235Y0284350D01*
X0099140Y0283482D01*
X0097537Y0281879D01*
X0097369Y0281474D01*
X0097201Y0281879D01*
X0095598Y0283482D01*
X0093503Y0284350D01*
X0091235Y0284350D01*
X0089140Y0283482D01*
X0088069Y0282411D01*
X0088069Y0283178D01*
X0086897Y0284350D01*
X0077841Y0284350D01*
X0076669Y0283178D01*
X0076669Y0274122D01*
X0077841Y0272950D01*
X0086897Y0272950D01*
X0088069Y0274122D01*
X0088069Y0274889D01*
X0089140Y0273818D01*
X0091235Y0272950D01*
X0093503Y0272950D01*
X0095598Y0273818D01*
X0097201Y0275421D01*
X0097369Y0275826D01*
X0097537Y0275421D01*
X0099140Y0273818D01*
X0101235Y0272950D01*
X0103503Y0272950D01*
X0105598Y0273818D01*
X0107201Y0275421D01*
X0107369Y0275826D01*
X0107537Y0275421D01*
X0109140Y0273818D01*
X0111235Y0272950D01*
X0113503Y0272950D01*
X0115598Y0273818D01*
X0117201Y0275421D01*
X0117488Y0276114D01*
X0117665Y0275767D01*
X0118174Y0275067D01*
X0118786Y0274455D01*
X0119486Y0273946D01*
X0120258Y0273553D01*
X0121081Y0273285D01*
X0121936Y0273150D01*
X0122169Y0273150D01*
X0122169Y0278450D01*
X0122569Y0278450D01*
X0122569Y0273150D01*
X0122802Y0273150D01*
X0123657Y0273285D01*
X0124480Y0273553D01*
X0125252Y0273946D01*
X0125952Y0274455D01*
X0126564Y0275067D01*
X0127073Y0275767D01*
X0127250Y0276114D01*
X0127537Y0275421D01*
X0129140Y0273818D01*
X0131235Y0272950D01*
X0133503Y0272950D01*
X0135598Y0273818D01*
X0137201Y0275421D01*
X0138069Y0277516D01*
X0138069Y0279784D01*
X0137201Y0281879D01*
X0135598Y0283482D01*
X0133503Y0284350D01*
X0131235Y0284350D01*
X0129140Y0283482D01*
X0127537Y0281879D01*
X0127250Y0281186D01*
X0127073Y0281533D01*
X0126564Y0282233D01*
X0125952Y0282845D01*
X0125252Y0283354D01*
X0124480Y0283747D01*
X0123657Y0284015D01*
X0122802Y0284150D01*
X0122569Y0284150D01*
X0122569Y0278850D01*
X0122169Y0278850D01*
X0122169Y0284150D01*
X0121936Y0284150D01*
X0121081Y0284015D01*
X0120258Y0283747D01*
X0119486Y0283354D01*
X0118786Y0282845D01*
X0118174Y0282233D01*
X0117665Y0281533D01*
X0117488Y0281186D01*
X0117201Y0281879D01*
X0115598Y0283482D01*
X0115169Y0283660D01*
X0115169Y0285850D01*
X0139569Y0285850D01*
X0139569Y0273093D01*
X0139995Y0272064D01*
X0140783Y0271276D01*
X0141812Y0270850D01*
X0184569Y0270850D01*
X0184569Y0262804D01*
X0184423Y0262743D01*
X0183432Y0261752D01*
X0182441Y0262743D01*
X0180529Y0263535D01*
X0178461Y0263535D01*
X0176549Y0262743D01*
X0175087Y0261281D01*
X0174295Y0259369D01*
X0174295Y0257301D01*
X0175087Y0255389D01*
X0176549Y0253927D01*
X0178461Y0253135D01*
X0180529Y0253135D01*
X0182441Y0253927D01*
X0183432Y0254918D01*
X0184423Y0253927D01*
X0186335Y0253135D01*
X0188403Y0253135D01*
X0189317Y0253513D01*
X0191669Y0251161D01*
X0192503Y0250816D01*
X0216419Y0226900D01*
X0216419Y0188132D01*
X0216846Y0187103D01*
X0232167Y0171782D01*
X0232167Y0156369D01*
X0231423Y0155625D01*
X0230786Y0154088D01*
X0230786Y0152425D01*
X0231423Y0150888D01*
X0232599Y0149712D01*
X0234136Y0149075D01*
X0235894Y0149115D02*
X0249569Y0149115D01*
X0249569Y0150713D02*
X0238337Y0150713D01*
X0239102Y0152312D02*
X0249569Y0152312D01*
X0249569Y0153910D02*
X0239148Y0153910D01*
X0238560Y0155509D02*
X0249569Y0155509D01*
X0249569Y0157107D02*
X0237767Y0157107D01*
X0237767Y0158706D02*
X0249569Y0158706D01*
X0249569Y0160304D02*
X0237767Y0160304D01*
X0237767Y0161903D02*
X0249569Y0161903D01*
X0249569Y0163501D02*
X0237767Y0163501D01*
X0237767Y0165100D02*
X0249569Y0165100D01*
X0249569Y0166698D02*
X0237767Y0166698D01*
X0237767Y0168297D02*
X0249569Y0168297D01*
X0249569Y0169895D02*
X0237767Y0169895D01*
X0237767Y0171494D02*
X0249569Y0171494D01*
X0249569Y0173092D02*
X0237767Y0173092D01*
X0237178Y0174691D02*
X0249569Y0174691D01*
X0249569Y0176289D02*
X0235579Y0176289D01*
X0233981Y0177888D02*
X0249569Y0177888D01*
X0249569Y0179486D02*
X0232382Y0179486D01*
X0230784Y0181085D02*
X0249569Y0181085D01*
X0249569Y0182683D02*
X0229185Y0182683D01*
X0227587Y0184282D02*
X0249569Y0184282D01*
X0249569Y0185880D02*
X0225988Y0185880D01*
X0224390Y0187479D02*
X0249569Y0187479D01*
X0247849Y0189077D02*
X0222791Y0189077D01*
X0222019Y0190676D02*
X0246642Y0190676D01*
X0245980Y0192274D02*
X0222019Y0192274D01*
X0222019Y0193873D02*
X0245940Y0193873D01*
X0246165Y0195471D02*
X0222019Y0195471D01*
X0222019Y0197070D02*
X0246827Y0197070D01*
X0248295Y0198668D02*
X0222019Y0198668D01*
X0222019Y0200267D02*
X0251792Y0200267D01*
X0250194Y0201865D02*
X0222019Y0201865D01*
X0222019Y0203464D02*
X0248595Y0203464D01*
X0246997Y0205062D02*
X0222019Y0205062D01*
X0222019Y0206661D02*
X0245398Y0206661D01*
X0243800Y0208259D02*
X0222019Y0208259D01*
X0222019Y0209858D02*
X0242201Y0209858D01*
X0240603Y0211456D02*
X0222019Y0211456D01*
X0222019Y0213055D02*
X0239004Y0213055D01*
X0237406Y0214653D02*
X0222019Y0214653D01*
X0222019Y0216252D02*
X0235807Y0216252D01*
X0234209Y0217851D02*
X0222019Y0217851D01*
X0222019Y0219449D02*
X0232610Y0219449D01*
X0231012Y0221048D02*
X0222019Y0221048D01*
X0222019Y0222646D02*
X0229413Y0222646D01*
X0227815Y0224245D02*
X0222019Y0224245D01*
X0222019Y0225843D02*
X0226216Y0225843D01*
X0224618Y0227442D02*
X0222019Y0227442D01*
X0221844Y0229040D02*
X0223019Y0229040D01*
X0221421Y0230639D02*
X0220600Y0230639D01*
X0219822Y0232237D02*
X0219001Y0232237D01*
X0218224Y0233836D02*
X0217403Y0233836D01*
X0216625Y0235434D02*
X0215804Y0235434D01*
X0215027Y0237033D02*
X0214206Y0237033D01*
X0213428Y0238631D02*
X0212607Y0238631D01*
X0211829Y0240230D02*
X0211009Y0240230D01*
X0210231Y0241828D02*
X0209410Y0241828D01*
X0209569Y0243427D02*
X0207812Y0243427D01*
X0206213Y0245025D02*
X0209569Y0245025D01*
X0209569Y0246624D02*
X0204615Y0246624D01*
X0203016Y0248222D02*
X0209569Y0248222D01*
X0209569Y0249821D02*
X0201418Y0249821D01*
X0199819Y0251419D02*
X0209569Y0251419D01*
X0209569Y0253018D02*
X0198221Y0253018D01*
X0198595Y0254616D02*
X0209569Y0254616D01*
X0209569Y0256215D02*
X0199774Y0256215D01*
X0200223Y0257813D02*
X0209569Y0257813D01*
X0209569Y0259412D02*
X0200135Y0259412D01*
X0199480Y0261010D02*
X0209569Y0261010D01*
X0209569Y0262609D02*
X0197867Y0262609D01*
X0195243Y0262609D02*
X0195243Y0262609D01*
X0195243Y0261010D02*
X0195243Y0261010D01*
X0195243Y0259412D02*
X0195243Y0259412D01*
X0192619Y0262609D02*
X0190449Y0262609D01*
X0190169Y0264207D02*
X0209569Y0264207D01*
X0209569Y0265806D02*
X0190169Y0265806D01*
X0190169Y0267404D02*
X0209569Y0267404D01*
X0208056Y0269003D02*
X0190169Y0269003D01*
X0190169Y0270601D02*
X0206458Y0270601D01*
X0204859Y0272200D02*
X0190169Y0272200D01*
X0190169Y0273798D02*
X0203261Y0273798D01*
X0201662Y0275397D02*
X0189582Y0275397D01*
X0187369Y0273650D02*
X0187369Y0258335D01*
X0188455Y0258335D01*
X0193255Y0253535D01*
X0193744Y0253535D01*
X0219219Y0228059D01*
X0219219Y0188689D01*
X0234967Y0172941D01*
X0234967Y0153256D01*
X0231598Y0150713D02*
X0040169Y0150713D01*
X0040169Y0152312D02*
X0230833Y0152312D01*
X0230786Y0153910D02*
X0040169Y0153910D01*
X0040169Y0155509D02*
X0217277Y0155509D01*
X0218038Y0155193D02*
X0220400Y0155193D01*
X0222582Y0156097D01*
X0224252Y0157767D01*
X0225156Y0159949D01*
X0225156Y0162311D01*
X0224252Y0164493D01*
X0222582Y0166163D01*
X0220400Y0167067D01*
X0218038Y0167067D01*
X0215856Y0166163D01*
X0214186Y0164493D01*
X0213282Y0162311D01*
X0213282Y0159949D01*
X0214186Y0157767D01*
X0215856Y0156097D01*
X0218038Y0155193D01*
X0221161Y0155509D02*
X0231375Y0155509D01*
X0232167Y0157107D02*
X0223592Y0157107D01*
X0224641Y0158706D02*
X0232167Y0158706D01*
X0232167Y0160304D02*
X0225156Y0160304D01*
X0225156Y0161903D02*
X0232167Y0161903D01*
X0232167Y0163501D02*
X0224663Y0163501D01*
X0223646Y0165100D02*
X0232167Y0165100D01*
X0232167Y0166698D02*
X0221292Y0166698D01*
X0217147Y0166698D02*
X0040169Y0166698D01*
X0040169Y0165100D02*
X0214792Y0165100D01*
X0213775Y0163501D02*
X0040169Y0163501D01*
X0040169Y0161903D02*
X0213282Y0161903D01*
X0213282Y0160304D02*
X0040169Y0160304D01*
X0040169Y0158706D02*
X0213798Y0158706D01*
X0214846Y0157107D02*
X0040169Y0157107D01*
X0034569Y0157107D02*
X0024369Y0157107D01*
X0024369Y0155509D02*
X0034569Y0155509D01*
X0034569Y0153910D02*
X0024369Y0153910D01*
X0024369Y0152312D02*
X0034569Y0152312D01*
X0034569Y0150713D02*
X0024369Y0150713D01*
X0024369Y0149115D02*
X0034569Y0149115D01*
X0034569Y0147516D02*
X0024369Y0147516D01*
X0024369Y0145918D02*
X0034569Y0145918D01*
X0034569Y0144319D02*
X0024369Y0144319D01*
X0024369Y0142720D02*
X0034569Y0142720D01*
X0034569Y0141122D02*
X0024369Y0141122D01*
X0024369Y0139523D02*
X0034569Y0139523D01*
X0034569Y0137925D02*
X0024369Y0137925D01*
X0024369Y0136326D02*
X0034569Y0136326D01*
X0034569Y0134728D02*
X0024369Y0134728D01*
X0024369Y0133129D02*
X0034569Y0133129D01*
X0034569Y0131531D02*
X0024369Y0131531D01*
X0024369Y0129932D02*
X0034569Y0129932D01*
X0034569Y0128334D02*
X0024369Y0128334D01*
X0024369Y0126735D02*
X0034569Y0126735D01*
X0034569Y0125137D02*
X0024369Y0125137D01*
X0024369Y0123538D02*
X0033165Y0123538D01*
X0031773Y0121940D02*
X0024369Y0121940D01*
X0024369Y0120341D02*
X0031111Y0120341D01*
X0030940Y0118743D02*
X0024369Y0118743D01*
X0024369Y0117144D02*
X0031034Y0117144D01*
X0031696Y0115546D02*
X0024369Y0115546D01*
X0024369Y0113947D02*
X0032980Y0113947D01*
X0035781Y0112349D02*
X0024369Y0112349D01*
X0024369Y0110750D02*
X0414070Y0110750D01*
X0414070Y0109152D02*
X0024369Y0109152D01*
X0024369Y0107553D02*
X0414070Y0107553D01*
X0414070Y0105955D02*
X0024369Y0105955D01*
X0024369Y0104356D02*
X0414070Y0104356D01*
X0414070Y0102758D02*
X0024369Y0102758D01*
X0024369Y0101159D02*
X0414070Y0101159D01*
X0414070Y0099561D02*
X0024369Y0099561D01*
X0024369Y0097962D02*
X0414070Y0097962D01*
X0414070Y0096364D02*
X0024369Y0096364D01*
X0024369Y0094765D02*
X0414070Y0094765D01*
X0414070Y0093167D02*
X0024369Y0093167D01*
X0024369Y0091568D02*
X0414070Y0091568D01*
X0414070Y0089970D02*
X0024369Y0089970D01*
X0024369Y0088371D02*
X0414070Y0088371D01*
X0414070Y0086773D02*
X0024369Y0086773D01*
X0024369Y0085174D02*
X0414070Y0085174D01*
X0414070Y0083576D02*
X0024369Y0083576D01*
X0024369Y0081977D02*
X0414070Y0081977D01*
X0414070Y0080379D02*
X0024369Y0080379D01*
X0024369Y0078780D02*
X0414070Y0078780D01*
X0414070Y0077182D02*
X0024369Y0077182D01*
X0024369Y0075583D02*
X0414070Y0075583D01*
X0414070Y0073984D02*
X0024369Y0073984D01*
X0024369Y0072386D02*
X0414070Y0072386D01*
X0414070Y0070787D02*
X0024369Y0070787D01*
X0024369Y0069189D02*
X0414070Y0069189D01*
X0414070Y0067590D02*
X0024369Y0067590D01*
X0024369Y0065992D02*
X0414070Y0065992D01*
X0414070Y0064393D02*
X0024369Y0064393D01*
X0024369Y0062795D02*
X0414070Y0062795D01*
X0414070Y0061196D02*
X0024369Y0061196D01*
X0024369Y0059598D02*
X0414070Y0059598D01*
X0414070Y0057999D02*
X0024369Y0057999D01*
X0024369Y0056401D02*
X0414070Y0056401D01*
X0414070Y0054802D02*
X0024369Y0054802D01*
X0024369Y0053204D02*
X0414070Y0053204D01*
X0414070Y0051605D02*
X0024369Y0051605D01*
X0024369Y0050007D02*
X0204026Y0050007D01*
X0204200Y0050079D02*
X0201837Y0049100D01*
X0200029Y0047292D01*
X0199050Y0044929D01*
X0199050Y0042371D01*
X0200029Y0040008D01*
X0201837Y0038200D01*
X0204200Y0037221D01*
X0206758Y0037221D01*
X0209121Y0038200D01*
X0210930Y0040008D01*
X0211908Y0042371D01*
X0211908Y0044929D01*
X0210930Y0047292D01*
X0209121Y0049100D01*
X0206758Y0050079D01*
X0204200Y0050079D01*
X0206933Y0050007D02*
X0381231Y0050007D01*
X0381405Y0050079D02*
X0379042Y0049100D01*
X0377234Y0047292D01*
X0376255Y0044929D01*
X0376255Y0042371D01*
X0377234Y0040008D01*
X0379042Y0038200D01*
X0381405Y0037221D01*
X0383963Y0037221D01*
X0386326Y0038200D01*
X0388134Y0040008D01*
X0389113Y0042371D01*
X0389113Y0044929D01*
X0388134Y0047292D01*
X0386326Y0049100D01*
X0383963Y0050079D01*
X0381405Y0050079D01*
X0384137Y0050007D02*
X0414070Y0050007D01*
X0414070Y0048408D02*
X0387018Y0048408D01*
X0388334Y0046810D02*
X0414070Y0046810D01*
X0414070Y0045211D02*
X0388996Y0045211D01*
X0389113Y0043613D02*
X0414070Y0043613D01*
X0414070Y0042014D02*
X0388965Y0042014D01*
X0388303Y0040416D02*
X0414070Y0040416D01*
X0414070Y0038817D02*
X0386943Y0038817D01*
X0378424Y0038817D02*
X0236630Y0038817D01*
X0236742Y0038899D02*
X0237435Y0039592D01*
X0238012Y0040385D01*
X0238457Y0041259D01*
X0238760Y0042191D01*
X0238884Y0042974D01*
X0233360Y0042974D01*
X0233360Y0044326D01*
X0238884Y0044326D01*
X0238760Y0045109D01*
X0238457Y0046041D01*
X0238012Y0046915D01*
X0237435Y0047708D01*
X0236742Y0048401D01*
X0235949Y0048978D01*
X0235075Y0049423D01*
X0234143Y0049726D01*
X0233360Y0049850D01*
X0233360Y0044326D01*
X0232008Y0044326D01*
X0232007Y0044326D02*
X0232007Y0042974D01*
X0226484Y0042974D01*
X0226608Y0042191D01*
X0226911Y0041259D01*
X0227356Y0040385D01*
X0227933Y0039592D01*
X0228626Y0038899D01*
X0229419Y0038322D01*
X0230293Y0037877D01*
X0231225Y0037574D01*
X0232008Y0037450D01*
X0232008Y0042974D01*
X0233360Y0042974D01*
X0233360Y0037450D01*
X0234143Y0037574D01*
X0235075Y0037877D01*
X0235949Y0038322D01*
X0236742Y0038899D01*
X0238027Y0040416D02*
X0377065Y0040416D01*
X0376403Y0042014D02*
X0238702Y0042014D01*
X0238726Y0045211D02*
X0376372Y0045211D01*
X0376255Y0043613D02*
X0233360Y0043613D01*
X0232007Y0043613D02*
X0211908Y0043613D01*
X0211791Y0045211D02*
X0226642Y0045211D01*
X0226608Y0045109D02*
X0226484Y0044326D01*
X0232007Y0044326D01*
X0232008Y0044326D02*
X0232008Y0049850D01*
X0231225Y0049726D01*
X0230293Y0049423D01*
X0229419Y0048978D01*
X0228626Y0048401D01*
X0227933Y0047708D01*
X0227356Y0046915D01*
X0226911Y0046041D01*
X0226608Y0045109D01*
X0227303Y0046810D02*
X0211129Y0046810D01*
X0209813Y0048408D02*
X0228636Y0048408D01*
X0232008Y0048408D02*
X0233360Y0048408D01*
X0233360Y0046810D02*
X0232008Y0046810D01*
X0232008Y0045211D02*
X0233360Y0045211D01*
X0233360Y0042014D02*
X0232008Y0042014D01*
X0232008Y0040416D02*
X0233360Y0040416D01*
X0233360Y0038817D02*
X0232008Y0038817D01*
X0228738Y0038817D02*
X0209739Y0038817D01*
X0211098Y0040416D02*
X0227341Y0040416D01*
X0226666Y0042014D02*
X0211760Y0042014D01*
X0201220Y0038817D02*
X0059425Y0038817D01*
X0059537Y0038899D02*
X0060230Y0039592D01*
X0060807Y0040385D01*
X0061252Y0041259D01*
X0061555Y0042191D01*
X0061679Y0042974D01*
X0056156Y0042974D01*
X0056156Y0044326D01*
X0061679Y0044326D01*
X0061555Y0045109D01*
X0061252Y0046041D01*
X0060807Y0046915D01*
X0060230Y0047708D01*
X0059537Y0048401D01*
X0058744Y0048978D01*
X0057870Y0049423D01*
X0056938Y0049726D01*
X0056156Y0049850D01*
X0056156Y0044326D01*
X0054803Y0044326D01*
X0054803Y0042974D01*
X0049280Y0042974D01*
X0049403Y0042191D01*
X0049706Y0041259D01*
X0050152Y0040385D01*
X0050728Y0039592D01*
X0051421Y0038899D01*
X0052214Y0038322D01*
X0053088Y0037877D01*
X0054021Y0037574D01*
X0054803Y0037450D01*
X0054803Y0042974D01*
X0056156Y0042974D01*
X0056156Y0037450D01*
X0056938Y0037574D01*
X0057870Y0037877D01*
X0058744Y0038322D01*
X0059537Y0038899D01*
X0060822Y0040416D02*
X0199860Y0040416D01*
X0199198Y0042014D02*
X0061497Y0042014D01*
X0061522Y0045211D02*
X0199167Y0045211D01*
X0199050Y0043613D02*
X0056156Y0043613D01*
X0054803Y0043613D02*
X0024369Y0043613D01*
X0024369Y0045211D02*
X0049437Y0045211D01*
X0049403Y0045109D02*
X0049280Y0044326D01*
X0054803Y0044326D01*
X0054803Y0049850D01*
X0054021Y0049726D01*
X0053088Y0049423D01*
X0052214Y0048978D01*
X0051421Y0048401D01*
X0050728Y0047708D01*
X0050152Y0046915D01*
X0049706Y0046041D01*
X0049403Y0045109D01*
X0050098Y0046810D02*
X0024369Y0046810D01*
X0024369Y0048408D02*
X0051431Y0048408D01*
X0054803Y0048408D02*
X0056156Y0048408D01*
X0056156Y0046810D02*
X0054803Y0046810D01*
X0054803Y0045211D02*
X0056156Y0045211D01*
X0056156Y0042014D02*
X0054803Y0042014D01*
X0054803Y0040416D02*
X0056156Y0040416D01*
X0056156Y0038817D02*
X0054803Y0038817D01*
X0051533Y0038817D02*
X0024369Y0038817D01*
X0024369Y0037219D02*
X0414070Y0037219D01*
X0414070Y0035620D02*
X0024369Y0035620D01*
X0024369Y0034022D02*
X0414070Y0034022D01*
X0414070Y0032423D02*
X0024369Y0032423D01*
X0024369Y0030825D02*
X0414070Y0030825D01*
X0414070Y0029226D02*
X0024369Y0029226D01*
X0024369Y0027628D02*
X0414070Y0027628D01*
X0414070Y0026029D02*
X0024369Y0026029D01*
X0024369Y0024431D02*
X0030091Y0024431D01*
X0030526Y0024866D02*
X0028712Y0023052D01*
X0027730Y0020681D01*
X0027730Y0018115D01*
X0028712Y0015744D01*
X0030526Y0013930D01*
X0032897Y0012948D01*
X0035463Y0012948D01*
X0037834Y0013930D01*
X0039648Y0015744D01*
X0040630Y0018115D01*
X0040630Y0020681D01*
X0039648Y0023052D01*
X0037834Y0024866D01*
X0035463Y0025848D01*
X0032897Y0025848D01*
X0030526Y0024866D01*
X0028621Y0022832D02*
X0024369Y0022832D01*
X0024369Y0021234D02*
X0027959Y0021234D01*
X0027730Y0019635D02*
X0024369Y0019635D01*
X0024369Y0018037D02*
X0027762Y0018037D01*
X0028425Y0016438D02*
X0024369Y0016438D01*
X0024369Y0014840D02*
X0029617Y0014840D01*
X0032190Y0013241D02*
X0024369Y0013241D01*
X0024369Y0011643D02*
X0414070Y0011643D01*
X0414070Y0013241D02*
X0406249Y0013241D01*
X0405542Y0012948D02*
X0407912Y0013930D01*
X0409727Y0015744D01*
X0410709Y0018115D01*
X0410709Y0020681D01*
X0409727Y0023052D01*
X0407912Y0024866D01*
X0405542Y0025848D01*
X0402976Y0025848D01*
X0400605Y0024866D01*
X0398791Y0023052D01*
X0397809Y0020681D01*
X0397809Y0018115D01*
X0398791Y0015744D01*
X0400605Y0013930D01*
X0402976Y0012948D01*
X0405542Y0012948D01*
X0402268Y0013241D02*
X0036170Y0013241D01*
X0038743Y0014840D02*
X0399695Y0014840D01*
X0398503Y0016438D02*
X0039935Y0016438D01*
X0040597Y0018037D02*
X0397841Y0018037D01*
X0397809Y0019635D02*
X0040630Y0019635D01*
X0040401Y0021234D02*
X0398038Y0021234D01*
X0398700Y0022832D02*
X0039739Y0022832D01*
X0038269Y0024431D02*
X0400170Y0024431D01*
X0408348Y0024431D02*
X0414070Y0024431D01*
X0414070Y0022832D02*
X0409818Y0022832D01*
X0410480Y0021234D02*
X0414070Y0021234D01*
X0414070Y0019635D02*
X0410709Y0019635D01*
X0410676Y0018037D02*
X0414070Y0018037D01*
X0414070Y0016438D02*
X0410014Y0016438D01*
X0408822Y0014840D02*
X0414070Y0014840D01*
X0414070Y0010044D02*
X0024369Y0010044D01*
X0024369Y0008446D02*
X0414070Y0008446D01*
X0414070Y0006847D02*
X0024369Y0006847D01*
X0024369Y0005650D02*
X0024369Y0316611D01*
X0414070Y0316611D01*
X0414070Y0301028D01*
X0413744Y0301814D01*
X0413282Y0302614D01*
X0412720Y0303347D01*
X0412066Y0304001D01*
X0411333Y0304563D01*
X0410533Y0305025D01*
X0409679Y0305379D01*
X0408786Y0305618D01*
X0408208Y0305694D01*
X0408208Y0299489D01*
X0406608Y0299489D01*
X0406608Y0305694D01*
X0406030Y0305618D01*
X0405137Y0305379D01*
X0404283Y0305025D01*
X0403483Y0304563D01*
X0402750Y0304001D01*
X0402096Y0303347D01*
X0401533Y0302614D01*
X0401071Y0301814D01*
X0400718Y0300960D01*
X0400479Y0300067D01*
X0400402Y0299489D01*
X0406608Y0299489D01*
X0406608Y0297889D01*
X0408208Y0297889D01*
X0408208Y0291683D01*
X0408786Y0291760D01*
X0409679Y0291999D01*
X0410533Y0292352D01*
X0411333Y0292815D01*
X0412066Y0293377D01*
X0412720Y0294031D01*
X0413282Y0294764D01*
X0413744Y0295564D01*
X0414070Y0296350D01*
X0414070Y0280950D01*
X0413744Y0281736D01*
X0413282Y0282536D01*
X0412720Y0283269D01*
X0412066Y0283923D01*
X0411333Y0284485D01*
X0410533Y0284948D01*
X0409679Y0285301D01*
X0408786Y0285540D01*
X0408208Y0285617D01*
X0408208Y0279411D01*
X0406608Y0279411D01*
X0406608Y0285617D01*
X0406030Y0285540D01*
X0405137Y0285301D01*
X0404283Y0284948D01*
X0403483Y0284485D01*
X0402750Y0283923D01*
X0402096Y0283269D01*
X0401533Y0282536D01*
X0401071Y0281736D01*
X0400718Y0280882D01*
X0400479Y0279989D01*
X0400402Y0279411D01*
X0406608Y0279411D01*
X0406608Y0277811D01*
X0408208Y0277811D01*
X0408208Y0271605D01*
X0408786Y0271682D01*
X0409679Y0271921D01*
X0410533Y0272275D01*
X0411333Y0272737D01*
X0412066Y0273299D01*
X0412720Y0273953D01*
X0413282Y0274686D01*
X0413744Y0275486D01*
X0414070Y0276272D01*
X0414070Y0005650D01*
X0024369Y0005650D01*
X0024369Y0040416D02*
X0050136Y0040416D01*
X0049461Y0042014D02*
X0024369Y0042014D01*
X0059528Y0048408D02*
X0201145Y0048408D01*
X0199829Y0046810D02*
X0060860Y0046810D01*
X0038957Y0112349D02*
X0185781Y0112349D01*
X0188957Y0112349D02*
X0250781Y0112349D01*
X0253957Y0112349D02*
X0400781Y0112349D01*
X0401090Y0112221D02*
X0403648Y0112221D01*
X0406011Y0113200D01*
X0407819Y0115008D01*
X0408798Y0117371D01*
X0408798Y0119929D01*
X0407819Y0122292D01*
X0406011Y0124100D01*
X0403648Y0125079D01*
X0401090Y0125079D01*
X0398727Y0124100D01*
X0396919Y0122292D01*
X0395940Y0119929D01*
X0395940Y0117371D01*
X0396919Y0115008D01*
X0398727Y0113200D01*
X0401090Y0112221D01*
X0403957Y0112349D02*
X0414070Y0112349D01*
X0414070Y0113947D02*
X0406758Y0113947D01*
X0408042Y0115546D02*
X0414070Y0115546D01*
X0414070Y0117144D02*
X0408704Y0117144D01*
X0408798Y0118743D02*
X0414070Y0118743D01*
X0414070Y0120341D02*
X0408627Y0120341D01*
X0407965Y0121940D02*
X0414070Y0121940D01*
X0414070Y0123538D02*
X0406573Y0123538D01*
X0414070Y0125137D02*
X0255169Y0125137D01*
X0255169Y0126735D02*
X0414070Y0126735D01*
X0414070Y0128334D02*
X0255169Y0128334D01*
X0255169Y0129932D02*
X0414070Y0129932D01*
X0414070Y0131531D02*
X0255169Y0131531D01*
X0255169Y0133129D02*
X0414070Y0133129D01*
X0414070Y0134728D02*
X0255169Y0134728D01*
X0255169Y0136326D02*
X0414070Y0136326D01*
X0414070Y0137925D02*
X0255169Y0137925D01*
X0255169Y0139523D02*
X0414070Y0139523D01*
X0414070Y0141122D02*
X0255169Y0141122D01*
X0255169Y0142720D02*
X0414070Y0142720D01*
X0414070Y0144319D02*
X0255169Y0144319D01*
X0255169Y0145918D02*
X0414070Y0145918D01*
X0414070Y0147516D02*
X0255169Y0147516D01*
X0255169Y0149115D02*
X0414070Y0149115D01*
X0414070Y0150713D02*
X0255169Y0150713D01*
X0255169Y0152312D02*
X0414070Y0152312D01*
X0414070Y0153910D02*
X0255169Y0153910D01*
X0255169Y0155509D02*
X0414070Y0155509D01*
X0414070Y0157107D02*
X0255169Y0157107D01*
X0255169Y0158706D02*
X0414070Y0158706D01*
X0414070Y0160304D02*
X0255169Y0160304D01*
X0255169Y0161903D02*
X0414070Y0161903D01*
X0414070Y0163501D02*
X0255169Y0163501D01*
X0255169Y0165100D02*
X0414070Y0165100D01*
X0414070Y0166698D02*
X0255169Y0166698D01*
X0255169Y0168297D02*
X0414070Y0168297D01*
X0414070Y0169895D02*
X0255169Y0169895D01*
X0255169Y0171494D02*
X0414070Y0171494D01*
X0414070Y0173092D02*
X0255169Y0173092D01*
X0255169Y0174691D02*
X0414070Y0174691D01*
X0414070Y0176289D02*
X0255169Y0176289D01*
X0255169Y0177888D02*
X0414070Y0177888D01*
X0414070Y0179486D02*
X0263243Y0179486D01*
X0261495Y0179486D02*
X0255169Y0179486D01*
X0255169Y0181085D02*
X0259021Y0181085D01*
X0258244Y0182683D02*
X0255169Y0182683D01*
X0255169Y0184282D02*
X0258188Y0184282D01*
X0258767Y0185880D02*
X0255169Y0185880D01*
X0255169Y0187479D02*
X0259569Y0187479D01*
X0259569Y0189077D02*
X0256888Y0189077D01*
X0258096Y0190676D02*
X0259569Y0190676D01*
X0259569Y0192274D02*
X0258758Y0192274D01*
X0262369Y0193650D02*
X0212369Y0243650D01*
X0212369Y0268650D01*
X0197369Y0283650D01*
X0152369Y0283650D01*
X0152369Y0303650D01*
X0145417Y0308966D02*
X0040630Y0308966D01*
X0040630Y0310051D02*
X0040630Y0307485D01*
X0039648Y0305114D01*
X0037834Y0303300D01*
X0035463Y0302318D01*
X0032897Y0302318D01*
X0030526Y0303300D01*
X0028712Y0305114D01*
X0027730Y0307485D01*
X0027730Y0310051D01*
X0028712Y0312422D01*
X0030526Y0314236D01*
X0032897Y0315218D01*
X0035463Y0315218D01*
X0037834Y0314236D01*
X0039648Y0312422D01*
X0040630Y0310051D01*
X0040417Y0310564D02*
X0147015Y0310564D01*
X0150252Y0312163D02*
X0039755Y0312163D01*
X0038309Y0313761D02*
X0211469Y0313761D01*
X0211469Y0314687D02*
X0211469Y0311150D01*
X0214869Y0311150D01*
X0218269Y0311150D01*
X0218269Y0314687D01*
X0218146Y0315145D01*
X0217909Y0315555D01*
X0217574Y0315890D01*
X0217164Y0316127D01*
X0216706Y0316250D01*
X0214869Y0316250D01*
X0214869Y0311150D01*
X0214869Y0311150D01*
X0218269Y0311150D01*
X0218269Y0307613D01*
X0218146Y0307155D01*
X0217909Y0306745D01*
X0217574Y0306410D01*
X0217164Y0306173D01*
X0216706Y0306050D01*
X0214869Y0306050D01*
X0214869Y0311150D01*
X0214869Y0311150D01*
X0214869Y0311150D01*
X0214869Y0316250D01*
X0213032Y0316250D01*
X0212574Y0316127D01*
X0212164Y0315890D01*
X0211829Y0315555D01*
X0211592Y0315145D01*
X0211469Y0314687D01*
X0211716Y0315360D02*
X0024369Y0315360D01*
X0024369Y0313761D02*
X0030051Y0313761D01*
X0028605Y0312163D02*
X0024369Y0312163D01*
X0024369Y0310564D02*
X0027943Y0310564D01*
X0027730Y0308966D02*
X0024369Y0308966D01*
X0024369Y0307367D02*
X0027779Y0307367D01*
X0028441Y0305769D02*
X0024369Y0305769D01*
X0024369Y0304170D02*
X0029656Y0304170D01*
X0032285Y0302572D02*
X0024369Y0302572D01*
X0024369Y0300973D02*
X0144088Y0300973D01*
X0143694Y0302572D02*
X0036075Y0302572D01*
X0038704Y0304170D02*
X0143694Y0304170D01*
X0143857Y0305769D02*
X0039919Y0305769D01*
X0040581Y0307367D02*
X0144519Y0307367D01*
X0144750Y0299375D02*
X0024369Y0299375D01*
X0024369Y0297776D02*
X0036404Y0297776D01*
X0038333Y0297776D02*
X0145975Y0297776D01*
X0147741Y0296178D02*
X0040754Y0296178D01*
X0041510Y0294579D02*
X0149569Y0294579D01*
X0149569Y0292981D02*
X0041550Y0292981D01*
X0040955Y0291382D02*
X0051648Y0291382D01*
X0049808Y0289784D02*
X0038960Y0289784D01*
X0035778Y0289784D02*
X0030169Y0289784D01*
X0030169Y0288185D02*
X0049569Y0288185D01*
X0049569Y0286587D02*
X0043517Y0286587D01*
X0041221Y0286587D02*
X0033517Y0286587D01*
X0031221Y0286587D02*
X0030169Y0286587D01*
X0024569Y0286587D02*
X0024369Y0286587D01*
X0024369Y0288185D02*
X0024569Y0288185D01*
X0024569Y0289784D02*
X0024369Y0289784D01*
X0024369Y0291382D02*
X0024569Y0291382D01*
X0024569Y0292981D02*
X0024369Y0292981D01*
X0024369Y0294579D02*
X0024723Y0294579D01*
X0024369Y0296178D02*
X0026154Y0296178D01*
X0027369Y0293650D02*
X0027369Y0218650D01*
X0057369Y0218650D01*
X0062369Y0223650D01*
X0077369Y0223650D01*
X0080679Y0221048D02*
X0094058Y0221048D01*
X0093259Y0222646D02*
X0081479Y0222646D01*
X0081550Y0224245D02*
X0092815Y0224245D01*
X0091216Y0225843D02*
X0080986Y0225843D01*
X0092369Y0228650D02*
X0097369Y0223650D01*
X0099141Y0227442D02*
X0118097Y0227442D01*
X0116252Y0225843D02*
X0100986Y0225843D01*
X0101550Y0224245D02*
X0115688Y0224245D01*
X0115759Y0222646D02*
X0101479Y0222646D01*
X0100679Y0221048D02*
X0116558Y0221048D01*
X0119869Y0223650D02*
X0137369Y0223650D01*
X0139141Y0227442D02*
X0139569Y0227442D01*
X0139569Y0229040D02*
X0095939Y0229040D01*
X0094340Y0230639D02*
X0139569Y0230639D01*
X0139569Y0232237D02*
X0035169Y0232237D01*
X0035169Y0233836D02*
X0039829Y0233836D01*
X0038231Y0235434D02*
X0035169Y0235434D01*
X0037369Y0238650D02*
X0042369Y0238650D01*
X0037369Y0238650D02*
X0037369Y0266150D01*
X0052369Y0266150D01*
X0052369Y0278650D01*
X0052369Y0288650D01*
X0112369Y0288650D01*
X0142369Y0288650D01*
X0142369Y0273650D01*
X0187369Y0273650D01*
X0184569Y0270601D02*
X0055169Y0270601D01*
X0055169Y0269003D02*
X0184569Y0269003D01*
X0184569Y0267404D02*
X0154880Y0267404D01*
X0154743Y0267736D02*
X0155169Y0266707D01*
X0155169Y0262804D01*
X0155315Y0262743D01*
X0156447Y0261611D01*
X0156986Y0262149D01*
X0157622Y0262611D01*
X0158324Y0262969D01*
X0159072Y0263212D01*
X0159849Y0263335D01*
X0160243Y0263335D01*
X0160243Y0258335D01*
X0160243Y0258335D01*
X0165243Y0258335D01*
X0165243Y0257942D01*
X0165120Y0257164D01*
X0164877Y0256416D01*
X0164519Y0255714D01*
X0164057Y0255078D01*
X0163500Y0254521D01*
X0162864Y0254059D01*
X0162162Y0253701D01*
X0161414Y0253458D01*
X0160636Y0253335D01*
X0160243Y0253335D01*
X0160243Y0258335D01*
X0160243Y0258335D01*
X0165243Y0258335D01*
X0165243Y0258729D01*
X0165120Y0259506D01*
X0164877Y0260254D01*
X0164519Y0260956D01*
X0164057Y0261592D01*
X0163500Y0262149D01*
X0162864Y0262611D01*
X0162162Y0262969D01*
X0161414Y0263212D01*
X0160636Y0263335D01*
X0160243Y0263335D01*
X0160243Y0258335D01*
X0160243Y0253335D01*
X0159849Y0253335D01*
X0159072Y0253458D01*
X0158324Y0253701D01*
X0157622Y0254059D01*
X0156986Y0254521D01*
X0156447Y0255060D01*
X0155315Y0253927D01*
X0153403Y0253135D01*
X0151335Y0253135D01*
X0149423Y0253927D01*
X0148432Y0254918D01*
X0148085Y0254571D01*
X0149674Y0246450D01*
X0152926Y0246450D01*
X0153955Y0246024D01*
X0154743Y0245236D01*
X0155169Y0244207D01*
X0155169Y0191763D01*
X0155914Y0191018D01*
X0156550Y0189482D01*
X0156550Y0187818D01*
X0155914Y0186282D01*
X0154737Y0185105D01*
X0153201Y0184469D01*
X0151537Y0184469D01*
X0150001Y0185105D01*
X0148824Y0186282D01*
X0148188Y0187818D01*
X0148188Y0189482D01*
X0148824Y0191018D01*
X0149569Y0191763D01*
X0149569Y0240850D01*
X0147640Y0240850D01*
X0147360Y0240795D01*
X0147089Y0240850D01*
X0146812Y0240850D01*
X0146548Y0240959D01*
X0146268Y0241016D01*
X0146039Y0241170D01*
X0145783Y0241276D01*
X0145581Y0241478D01*
X0145344Y0241638D01*
X0145191Y0241868D01*
X0144995Y0242064D01*
X0144886Y0242328D01*
X0144728Y0242566D01*
X0144675Y0242837D01*
X0144569Y0243093D01*
X0144569Y0243379D01*
X0142589Y0253496D01*
X0141549Y0253927D01*
X0140087Y0255389D01*
X0139295Y0257301D01*
X0139295Y0259369D01*
X0140087Y0261281D01*
X0141549Y0262743D01*
X0143014Y0263350D01*
X0137669Y0263350D01*
X0137669Y0250593D01*
X0137243Y0249564D01*
X0136455Y0248776D01*
X0135426Y0248350D01*
X0116812Y0248350D01*
X0115783Y0248776D01*
X0114995Y0249564D01*
X0114569Y0250593D01*
X0114569Y0253866D01*
X0114423Y0253927D01*
X0113432Y0254918D01*
X0112441Y0253927D01*
X0110529Y0253135D01*
X0108461Y0253135D01*
X0106549Y0253927D01*
X0105087Y0255389D01*
X0104295Y0257301D01*
X0104295Y0259369D01*
X0105087Y0261281D01*
X0106549Y0262743D01*
X0108461Y0263535D01*
X0110529Y0263535D01*
X0112441Y0262743D01*
X0113432Y0261752D01*
X0114423Y0262743D01*
X0116335Y0263535D01*
X0118403Y0263535D01*
X0120315Y0262743D01*
X0121447Y0261611D01*
X0121986Y0262149D01*
X0122622Y0262611D01*
X0123324Y0262969D01*
X0124072Y0263212D01*
X0124849Y0263335D01*
X0125243Y0263335D01*
X0125243Y0258335D01*
X0125243Y0258335D01*
X0130243Y0258335D01*
X0130243Y0257942D01*
X0130120Y0257164D01*
X0129877Y0256416D01*
X0129519Y0255714D01*
X0129057Y0255078D01*
X0128500Y0254521D01*
X0127864Y0254059D01*
X0127650Y0253950D01*
X0132069Y0253950D01*
X0132069Y0266707D01*
X0132495Y0267736D01*
X0133283Y0268524D01*
X0134312Y0268950D01*
X0152926Y0268950D01*
X0153955Y0268524D01*
X0154743Y0267736D01*
X0155169Y0265806D02*
X0184569Y0265806D01*
X0184569Y0264207D02*
X0155169Y0264207D01*
X0155449Y0262609D02*
X0157619Y0262609D01*
X0160243Y0262609D02*
X0160243Y0262609D01*
X0160243Y0261010D02*
X0160243Y0261010D01*
X0160243Y0259412D02*
X0160243Y0259412D01*
X0160243Y0258335D02*
X0160243Y0258335D01*
X0160243Y0257813D02*
X0160243Y0257813D01*
X0160243Y0256215D02*
X0160243Y0256215D01*
X0160243Y0254616D02*
X0160243Y0254616D01*
X0161537Y0252831D02*
X0160001Y0252195D01*
X0158824Y0251018D01*
X0158188Y0249482D01*
X0158188Y0247818D01*
X0158824Y0246282D01*
X0159569Y0245537D01*
X0159569Y0184263D01*
X0158824Y0183518D01*
X0158188Y0181982D01*
X0158188Y0180318D01*
X0158824Y0178782D01*
X0160001Y0177605D01*
X0161537Y0176969D01*
X0163201Y0176969D01*
X0164737Y0177605D01*
X0165914Y0178782D01*
X0166550Y0180318D01*
X0166550Y0181982D01*
X0165914Y0183518D01*
X0165169Y0184263D01*
X0165169Y0245537D01*
X0165914Y0246282D01*
X0166550Y0247818D01*
X0166550Y0249482D01*
X0165914Y0251018D01*
X0164737Y0252195D01*
X0163201Y0252831D01*
X0161537Y0252831D01*
X0159225Y0251419D02*
X0148702Y0251419D01*
X0149014Y0249821D02*
X0158328Y0249821D01*
X0158188Y0248222D02*
X0149327Y0248222D01*
X0149640Y0246624D02*
X0158683Y0246624D01*
X0159569Y0245025D02*
X0154830Y0245025D01*
X0155169Y0243427D02*
X0159569Y0243427D01*
X0159569Y0241828D02*
X0155169Y0241828D01*
X0155169Y0240230D02*
X0159569Y0240230D01*
X0159569Y0238631D02*
X0155169Y0238631D01*
X0155169Y0237033D02*
X0159569Y0237033D01*
X0159569Y0235434D02*
X0155169Y0235434D01*
X0155169Y0233836D02*
X0159569Y0233836D01*
X0159569Y0232237D02*
X0155169Y0232237D01*
X0155169Y0230639D02*
X0159569Y0230639D01*
X0159569Y0229040D02*
X0155169Y0229040D01*
X0155169Y0227442D02*
X0159569Y0227442D01*
X0159569Y0225843D02*
X0155169Y0225843D01*
X0155169Y0224245D02*
X0159569Y0224245D01*
X0159569Y0222646D02*
X0155169Y0222646D01*
X0155169Y0221048D02*
X0159569Y0221048D01*
X0159569Y0219449D02*
X0155169Y0219449D01*
X0155169Y0217851D02*
X0159569Y0217851D01*
X0159569Y0216252D02*
X0155169Y0216252D01*
X0155169Y0214653D02*
X0159569Y0214653D01*
X0159569Y0213055D02*
X0155169Y0213055D01*
X0155169Y0211456D02*
X0159569Y0211456D01*
X0159569Y0209858D02*
X0155169Y0209858D01*
X0155169Y0208259D02*
X0159569Y0208259D01*
X0159569Y0206661D02*
X0155169Y0206661D01*
X0155169Y0205062D02*
X0159569Y0205062D01*
X0159569Y0203464D02*
X0155169Y0203464D01*
X0155169Y0201865D02*
X0159569Y0201865D01*
X0159569Y0200267D02*
X0155169Y0200267D01*
X0155169Y0198668D02*
X0159569Y0198668D01*
X0159569Y0197070D02*
X0155169Y0197070D01*
X0155169Y0195471D02*
X0159569Y0195471D01*
X0159569Y0193873D02*
X0155169Y0193873D01*
X0155169Y0192274D02*
X0159569Y0192274D01*
X0159569Y0190676D02*
X0156055Y0190676D01*
X0156550Y0189077D02*
X0159569Y0189077D01*
X0159569Y0187479D02*
X0156409Y0187479D01*
X0155512Y0185880D02*
X0159569Y0185880D01*
X0159569Y0184282D02*
X0073351Y0184282D01*
X0073234Y0183698D02*
X0074704Y0191046D01*
X0074763Y0191071D01*
X0075940Y0192247D01*
X0076576Y0193784D01*
X0076576Y0195447D01*
X0075940Y0196984D01*
X0074763Y0198160D01*
X0073227Y0198797D01*
X0071563Y0198797D01*
X0070027Y0198160D01*
X0068850Y0196984D01*
X0068214Y0195447D01*
X0068214Y0193784D01*
X0068850Y0192247D01*
X0069169Y0191928D01*
X0067742Y0184795D01*
X0067501Y0184695D01*
X0066324Y0183518D01*
X0065688Y0181982D01*
X0065688Y0180318D01*
X0066324Y0178782D01*
X0067501Y0177605D01*
X0069037Y0176969D01*
X0070701Y0176969D01*
X0072237Y0177605D01*
X0073414Y0178782D01*
X0074050Y0180318D01*
X0074050Y0181982D01*
X0073414Y0183518D01*
X0073234Y0183698D01*
X0073759Y0182683D02*
X0158478Y0182683D01*
X0158188Y0181085D02*
X0074050Y0181085D01*
X0073705Y0179486D02*
X0158533Y0179486D01*
X0159718Y0177888D02*
X0072520Y0177888D01*
X0069869Y0181150D02*
X0072369Y0193650D01*
X0072395Y0194615D01*
X0073536Y0198668D02*
X0149569Y0198668D01*
X0149569Y0197070D02*
X0075853Y0197070D01*
X0076566Y0195471D02*
X0149569Y0195471D01*
X0149569Y0193873D02*
X0076576Y0193873D01*
X0075951Y0192274D02*
X0149569Y0192274D01*
X0148682Y0190676D02*
X0074630Y0190676D01*
X0074310Y0189077D02*
X0148188Y0189077D01*
X0148328Y0187479D02*
X0073990Y0187479D01*
X0073670Y0185880D02*
X0149226Y0185880D01*
X0152369Y0188650D02*
X0152369Y0243650D01*
X0147369Y0243650D01*
X0144495Y0258335D01*
X0148130Y0254616D02*
X0148734Y0254616D01*
X0148389Y0253018D02*
X0189812Y0253018D01*
X0191411Y0251419D02*
X0165513Y0251419D01*
X0166410Y0249821D02*
X0193498Y0249821D01*
X0195097Y0248222D02*
X0166550Y0248222D01*
X0166055Y0246624D02*
X0196695Y0246624D01*
X0198294Y0245025D02*
X0165169Y0245025D01*
X0165169Y0243427D02*
X0199892Y0243427D01*
X0201491Y0241828D02*
X0165169Y0241828D01*
X0165169Y0240230D02*
X0203089Y0240230D01*
X0204688Y0238631D02*
X0165169Y0238631D01*
X0165169Y0237033D02*
X0206286Y0237033D01*
X0207885Y0235434D02*
X0165169Y0235434D01*
X0165169Y0233836D02*
X0209483Y0233836D01*
X0209635Y0232237D02*
X0211082Y0232237D01*
X0210914Y0231018D02*
X0209737Y0232195D01*
X0208201Y0232831D01*
X0206537Y0232831D01*
X0205001Y0232195D01*
X0203824Y0231018D01*
X0203188Y0229482D01*
X0203188Y0228429D01*
X0184995Y0210236D01*
X0184569Y0209207D01*
X0184569Y0199449D01*
X0183727Y0199100D01*
X0181919Y0197292D01*
X0181550Y0196402D01*
X0181550Y0196982D01*
X0180914Y0198518D01*
X0180417Y0199015D01*
X0182397Y0222765D01*
X0183414Y0223782D01*
X0184050Y0225318D01*
X0184050Y0226982D01*
X0183414Y0228518D01*
X0182237Y0229695D01*
X0180701Y0230331D01*
X0179037Y0230331D01*
X0177501Y0229695D01*
X0176324Y0228518D01*
X0175688Y0226982D01*
X0175688Y0225318D01*
X0176324Y0223782D01*
X0176821Y0223285D01*
X0174841Y0199535D01*
X0173824Y0198518D01*
X0173188Y0196982D01*
X0173188Y0195318D01*
X0173824Y0193782D01*
X0175001Y0192605D01*
X0176537Y0191969D01*
X0178201Y0191969D01*
X0179737Y0192605D01*
X0180914Y0193782D01*
X0180940Y0193845D01*
X0180940Y0192371D01*
X0181919Y0190008D01*
X0183727Y0188200D01*
X0186090Y0187221D01*
X0188648Y0187221D01*
X0191011Y0188200D01*
X0192819Y0190008D01*
X0193798Y0192371D01*
X0193798Y0194929D01*
X0192819Y0197292D01*
X0191011Y0199100D01*
X0190169Y0199449D01*
X0190169Y0207490D01*
X0207148Y0224469D01*
X0208201Y0224469D01*
X0209737Y0225105D01*
X0210914Y0226282D01*
X0211550Y0227818D01*
X0211550Y0229482D01*
X0210914Y0231018D01*
X0211071Y0230639D02*
X0212680Y0230639D01*
X0211550Y0229040D02*
X0214279Y0229040D01*
X0215877Y0227442D02*
X0211394Y0227442D01*
X0210475Y0225843D02*
X0216419Y0225843D01*
X0216419Y0224245D02*
X0206923Y0224245D01*
X0205325Y0222646D02*
X0216419Y0222646D01*
X0216419Y0221048D02*
X0203726Y0221048D01*
X0202128Y0219449D02*
X0216419Y0219449D01*
X0216419Y0217851D02*
X0200529Y0217851D01*
X0198931Y0216252D02*
X0216419Y0216252D01*
X0216419Y0214653D02*
X0197332Y0214653D01*
X0195734Y0213055D02*
X0216419Y0213055D01*
X0216419Y0211456D02*
X0194135Y0211456D01*
X0192537Y0209858D02*
X0216419Y0209858D01*
X0216419Y0208259D02*
X0190938Y0208259D01*
X0190169Y0206661D02*
X0216419Y0206661D01*
X0216419Y0205062D02*
X0190169Y0205062D01*
X0190169Y0203464D02*
X0216419Y0203464D01*
X0216419Y0201865D02*
X0190169Y0201865D01*
X0190169Y0200267D02*
X0216419Y0200267D01*
X0216419Y0198668D02*
X0191443Y0198668D01*
X0192911Y0197070D02*
X0216419Y0197070D01*
X0216419Y0195471D02*
X0193573Y0195471D01*
X0193798Y0193873D02*
X0216419Y0193873D01*
X0216419Y0192274D02*
X0193758Y0192274D01*
X0193096Y0190676D02*
X0216419Y0190676D01*
X0216419Y0189077D02*
X0191888Y0189077D01*
X0189270Y0187479D02*
X0216690Y0187479D01*
X0218069Y0185880D02*
X0165169Y0185880D01*
X0165169Y0184282D02*
X0219667Y0184282D01*
X0221266Y0182683D02*
X0166259Y0182683D01*
X0166550Y0181085D02*
X0222864Y0181085D01*
X0224463Y0179486D02*
X0166205Y0179486D01*
X0165020Y0177888D02*
X0226061Y0177888D01*
X0227660Y0176289D02*
X0040169Y0176289D01*
X0040169Y0174691D02*
X0229258Y0174691D01*
X0230857Y0173092D02*
X0040169Y0173092D01*
X0040169Y0171494D02*
X0232167Y0171494D01*
X0232167Y0169895D02*
X0040169Y0169895D01*
X0040169Y0168297D02*
X0232167Y0168297D01*
X0262369Y0183650D02*
X0262369Y0193650D01*
X0265169Y0193873D02*
X0395940Y0193873D01*
X0395940Y0194929D02*
X0395940Y0192371D01*
X0396919Y0190008D01*
X0398727Y0188200D01*
X0401090Y0187221D01*
X0403648Y0187221D01*
X0406011Y0188200D01*
X0407819Y0190008D01*
X0408798Y0192371D01*
X0408798Y0194929D01*
X0407819Y0197292D01*
X0406011Y0199100D01*
X0403648Y0200079D01*
X0401090Y0200079D01*
X0398727Y0199100D01*
X0396919Y0197292D01*
X0395940Y0194929D01*
X0396165Y0195471D02*
X0264507Y0195471D01*
X0262909Y0197070D02*
X0396827Y0197070D01*
X0398295Y0198668D02*
X0261310Y0198668D01*
X0259712Y0200267D02*
X0414070Y0200267D01*
X0414070Y0201865D02*
X0258113Y0201865D01*
X0256515Y0203464D02*
X0414070Y0203464D01*
X0414070Y0205062D02*
X0254916Y0205062D01*
X0253318Y0206661D02*
X0414070Y0206661D01*
X0414070Y0208259D02*
X0251719Y0208259D01*
X0250121Y0209858D02*
X0414070Y0209858D01*
X0414070Y0211456D02*
X0248522Y0211456D01*
X0246924Y0213055D02*
X0414070Y0213055D01*
X0414070Y0214653D02*
X0245325Y0214653D01*
X0243727Y0216252D02*
X0414070Y0216252D01*
X0414070Y0217851D02*
X0242128Y0217851D01*
X0241537Y0219469D02*
X0243201Y0219469D01*
X0244737Y0220105D01*
X0245482Y0220850D01*
X0367926Y0220850D01*
X0368955Y0221276D01*
X0369743Y0222064D01*
X0370169Y0223093D01*
X0370169Y0245537D01*
X0370914Y0246282D01*
X0371550Y0247818D01*
X0371550Y0249482D01*
X0370914Y0251018D01*
X0369737Y0252195D01*
X0368201Y0252831D01*
X0366537Y0252831D01*
X0365001Y0252195D01*
X0363824Y0251018D01*
X0363188Y0249482D01*
X0363188Y0247818D01*
X0363824Y0246282D01*
X0364569Y0245537D01*
X0364569Y0226450D01*
X0245482Y0226450D01*
X0244737Y0227195D01*
X0243201Y0227831D01*
X0241537Y0227831D01*
X0240001Y0227195D01*
X0238824Y0226018D01*
X0238188Y0224482D01*
X0238188Y0222818D01*
X0238824Y0221282D01*
X0240001Y0220105D01*
X0241537Y0219469D01*
X0240530Y0219449D02*
X0414070Y0219449D01*
X0414070Y0221048D02*
X0368403Y0221048D01*
X0369984Y0222646D02*
X0414070Y0222646D01*
X0414070Y0224245D02*
X0370169Y0224245D01*
X0370169Y0225843D02*
X0414070Y0225843D01*
X0414070Y0227442D02*
X0370169Y0227442D01*
X0370169Y0229040D02*
X0414070Y0229040D01*
X0414070Y0230639D02*
X0370169Y0230639D01*
X0370169Y0232237D02*
X0414070Y0232237D01*
X0414070Y0233836D02*
X0370169Y0233836D01*
X0370169Y0235434D02*
X0414070Y0235434D01*
X0414070Y0237033D02*
X0370169Y0237033D01*
X0370169Y0238631D02*
X0414070Y0238631D01*
X0414070Y0240230D02*
X0370169Y0240230D01*
X0370169Y0241828D02*
X0414070Y0241828D01*
X0414070Y0243427D02*
X0370169Y0243427D01*
X0370169Y0245025D02*
X0414070Y0245025D01*
X0414070Y0246624D02*
X0371055Y0246624D01*
X0371550Y0248222D02*
X0414070Y0248222D01*
X0414070Y0249821D02*
X0371410Y0249821D01*
X0370513Y0251419D02*
X0414070Y0251419D01*
X0414070Y0253018D02*
X0256121Y0253018D01*
X0255914Y0253518D02*
X0254737Y0254695D01*
X0253399Y0255249D01*
X0381374Y0282395D01*
X0380993Y0281736D01*
X0380640Y0280882D01*
X0380401Y0279989D01*
X0380324Y0279411D01*
X0386530Y0279411D01*
X0386530Y0277811D01*
X0388130Y0277811D01*
X0388130Y0279411D01*
X0394335Y0279411D01*
X0394259Y0279989D01*
X0394020Y0280882D01*
X0393666Y0281736D01*
X0393204Y0282536D01*
X0392642Y0283269D01*
X0391988Y0283923D01*
X0391255Y0284485D01*
X0391248Y0284489D01*
X0393022Y0284866D01*
X0394112Y0283775D01*
X0396225Y0282900D01*
X0398513Y0282900D01*
X0400626Y0283775D01*
X0402244Y0285393D01*
X0403119Y0287506D01*
X0403119Y0289794D01*
X0402244Y0291907D01*
X0400626Y0293525D01*
X0398513Y0294400D01*
X0396225Y0294400D01*
X0394112Y0293525D01*
X0392494Y0291907D01*
X0391845Y0290341D01*
X0232075Y0256450D01*
X0231812Y0256450D01*
X0231536Y0256336D01*
X0231243Y0256273D01*
X0231026Y0256124D01*
X0230783Y0256024D01*
X0230571Y0255812D01*
X0230325Y0255643D01*
X0230181Y0255422D01*
X0229995Y0255236D01*
X0229881Y0254960D01*
X0229718Y0254709D01*
X0229670Y0254450D01*
X0229569Y0254207D01*
X0229569Y0253908D01*
X0229514Y0253614D01*
X0229569Y0253356D01*
X0229569Y0248425D01*
X0228766Y0248425D01*
X0227594Y0247253D01*
X0227594Y0240047D01*
X0228766Y0238875D01*
X0235972Y0238875D01*
X0237144Y0240047D01*
X0237144Y0247253D01*
X0235972Y0248425D01*
X0235169Y0248425D01*
X0235169Y0251382D01*
X0249789Y0254483D01*
X0248824Y0253518D01*
X0248188Y0251982D01*
X0248188Y0250318D01*
X0248824Y0248782D01*
X0249569Y0248037D01*
X0249569Y0239263D01*
X0248824Y0238518D01*
X0248188Y0236982D01*
X0248188Y0235318D01*
X0248824Y0233782D01*
X0250001Y0232605D01*
X0251537Y0231969D01*
X0253201Y0231969D01*
X0254737Y0232605D01*
X0255914Y0233782D01*
X0256550Y0235318D01*
X0256550Y0236982D01*
X0255914Y0238518D01*
X0255169Y0239263D01*
X0255169Y0248037D01*
X0255914Y0248782D01*
X0256550Y0250318D01*
X0256550Y0251982D01*
X0255914Y0253518D01*
X0254816Y0254616D02*
X0414070Y0254616D01*
X0414070Y0256215D02*
X0257954Y0256215D01*
X0256550Y0251419D02*
X0364225Y0251419D01*
X0363328Y0249821D02*
X0256344Y0249821D01*
X0255354Y0248222D02*
X0298563Y0248222D01*
X0298766Y0248425D02*
X0297594Y0247253D01*
X0297594Y0240047D01*
X0298766Y0238875D01*
X0305972Y0238875D01*
X0307144Y0240047D01*
X0307144Y0247253D01*
X0305972Y0248425D01*
X0298766Y0248425D01*
X0297594Y0246624D02*
X0255169Y0246624D01*
X0255169Y0245025D02*
X0297594Y0245025D01*
X0297594Y0243427D02*
X0255169Y0243427D01*
X0255169Y0241828D02*
X0297594Y0241828D01*
X0297594Y0240230D02*
X0255169Y0240230D01*
X0255801Y0238631D02*
X0364569Y0238631D01*
X0364569Y0237033D02*
X0256529Y0237033D01*
X0256550Y0235434D02*
X0364569Y0235434D01*
X0364569Y0233836D02*
X0255936Y0233836D01*
X0253848Y0232237D02*
X0364569Y0232237D01*
X0364569Y0230639D02*
X0229340Y0230639D01*
X0227742Y0232237D02*
X0250890Y0232237D01*
X0248802Y0233836D02*
X0226143Y0233836D01*
X0224545Y0235434D02*
X0248188Y0235434D01*
X0248209Y0237033D02*
X0222946Y0237033D01*
X0221348Y0238631D02*
X0248937Y0238631D01*
X0249569Y0240230D02*
X0246834Y0240230D01*
X0246821Y0240180D02*
X0246944Y0240638D01*
X0246944Y0243650D01*
X0246944Y0246662D01*
X0246821Y0247120D01*
X0246584Y0247530D01*
X0246249Y0247865D01*
X0245839Y0248102D01*
X0245381Y0248225D01*
X0242369Y0248225D01*
X0242369Y0243650D01*
X0246944Y0243650D01*
X0242369Y0243650D01*
X0242369Y0243650D01*
X0242369Y0243650D01*
X0242369Y0239075D01*
X0245381Y0239075D01*
X0245839Y0239198D01*
X0246249Y0239435D01*
X0246584Y0239770D01*
X0246821Y0240180D01*
X0246944Y0241828D02*
X0249569Y0241828D01*
X0249569Y0243427D02*
X0246944Y0243427D01*
X0246944Y0245025D02*
X0249569Y0245025D01*
X0249569Y0246624D02*
X0246944Y0246624D01*
X0245390Y0248222D02*
X0249384Y0248222D01*
X0248394Y0249821D02*
X0235169Y0249821D01*
X0235346Y0251419D02*
X0248188Y0251419D01*
X0248617Y0253018D02*
X0242882Y0253018D01*
X0242369Y0248225D02*
X0239357Y0248225D01*
X0238899Y0248102D01*
X0238489Y0247865D01*
X0238154Y0247530D01*
X0237917Y0247120D01*
X0237794Y0246662D01*
X0237794Y0243650D01*
X0242369Y0243650D01*
X0242369Y0243650D01*
X0242369Y0248225D01*
X0242369Y0248222D02*
X0242369Y0248222D01*
X0242369Y0246624D02*
X0242369Y0246624D01*
X0242369Y0245025D02*
X0242369Y0245025D01*
X0242369Y0243650D02*
X0242369Y0243650D01*
X0242369Y0239075D01*
X0239357Y0239075D01*
X0238899Y0239198D01*
X0238489Y0239435D01*
X0238154Y0239770D01*
X0237917Y0240180D01*
X0237794Y0240638D01*
X0237794Y0243650D01*
X0242369Y0243650D01*
X0242369Y0243427D02*
X0242369Y0243427D01*
X0242369Y0241828D02*
X0242369Y0241828D01*
X0242369Y0240230D02*
X0242369Y0240230D01*
X0237904Y0240230D02*
X0237144Y0240230D01*
X0237144Y0241828D02*
X0237794Y0241828D01*
X0237794Y0243427D02*
X0237144Y0243427D01*
X0237144Y0245025D02*
X0237794Y0245025D01*
X0237794Y0246624D02*
X0237144Y0246624D01*
X0236175Y0248222D02*
X0239348Y0248222D01*
X0232369Y0243650D02*
X0232369Y0253650D01*
X0397369Y0288650D01*
X0402738Y0286587D02*
X0414070Y0286587D01*
X0414070Y0288185D02*
X0403119Y0288185D01*
X0403119Y0289784D02*
X0414070Y0289784D01*
X0414070Y0291382D02*
X0402461Y0291382D01*
X0403483Y0292815D02*
X0404283Y0292352D01*
X0405137Y0291999D01*
X0406030Y0291760D01*
X0406608Y0291683D01*
X0406608Y0297889D01*
X0400402Y0297889D01*
X0400479Y0297311D01*
X0400718Y0296418D01*
X0401071Y0295564D01*
X0401533Y0294764D01*
X0402096Y0294031D01*
X0402750Y0293377D01*
X0403483Y0292815D01*
X0403266Y0292981D02*
X0401170Y0292981D01*
X0401675Y0294579D02*
X0393063Y0294579D01*
X0393204Y0294764D02*
X0393666Y0295564D01*
X0394020Y0296418D01*
X0394259Y0297311D01*
X0394335Y0297889D01*
X0388130Y0297889D01*
X0388130Y0299489D01*
X0386530Y0299489D01*
X0386530Y0305694D01*
X0385952Y0305618D01*
X0385059Y0305379D01*
X0384205Y0305025D01*
X0383405Y0304563D01*
X0382672Y0304001D01*
X0382018Y0303347D01*
X0381456Y0302614D01*
X0380993Y0301814D01*
X0380640Y0300960D01*
X0380401Y0300067D01*
X0380324Y0299489D01*
X0386530Y0299489D01*
X0386530Y0297889D01*
X0380324Y0297889D01*
X0380401Y0297311D01*
X0380640Y0296418D01*
X0380993Y0295564D01*
X0381456Y0294764D01*
X0382018Y0294031D01*
X0382672Y0293377D01*
X0383405Y0292815D01*
X0384205Y0292352D01*
X0385059Y0291999D01*
X0385952Y0291760D01*
X0386530Y0291683D01*
X0386530Y0297889D01*
X0388130Y0297889D01*
X0388130Y0291683D01*
X0388708Y0291760D01*
X0389601Y0291999D01*
X0390455Y0292352D01*
X0391255Y0292815D01*
X0391988Y0293377D01*
X0392642Y0294031D01*
X0393204Y0294764D01*
X0393921Y0296178D02*
X0400817Y0296178D01*
X0400417Y0297776D02*
X0394321Y0297776D01*
X0394335Y0299489D02*
X0394259Y0300067D01*
X0394020Y0300960D01*
X0393666Y0301814D01*
X0393204Y0302614D01*
X0392642Y0303347D01*
X0391988Y0304001D01*
X0391255Y0304563D01*
X0390455Y0305025D01*
X0389601Y0305379D01*
X0388708Y0305618D01*
X0388130Y0305694D01*
X0388130Y0299489D01*
X0394335Y0299489D01*
X0394015Y0300973D02*
X0400723Y0300973D01*
X0401509Y0302572D02*
X0393229Y0302572D01*
X0391768Y0304170D02*
X0402970Y0304170D01*
X0406608Y0304170D02*
X0408208Y0304170D01*
X0408208Y0302572D02*
X0406608Y0302572D01*
X0406608Y0300973D02*
X0408208Y0300973D01*
X0406608Y0299375D02*
X0388130Y0299375D01*
X0388130Y0300973D02*
X0386530Y0300973D01*
X0386530Y0299375D02*
X0199988Y0299375D01*
X0199723Y0298736D02*
X0201044Y0301924D01*
X0201044Y0305376D01*
X0199723Y0308564D01*
X0197283Y0311004D01*
X0194094Y0312325D01*
X0190643Y0312325D01*
X0187455Y0311004D01*
X0185015Y0308564D01*
X0183694Y0305376D01*
X0183694Y0301924D01*
X0185015Y0298736D01*
X0187455Y0296296D01*
X0190643Y0294975D01*
X0194094Y0294975D01*
X0197283Y0296296D01*
X0199723Y0298736D01*
X0198763Y0297776D02*
X0380339Y0297776D01*
X0380739Y0296178D02*
X0196997Y0296178D01*
X0200650Y0300973D02*
X0380645Y0300973D01*
X0381431Y0302572D02*
X0201044Y0302572D01*
X0201044Y0304170D02*
X0382892Y0304170D01*
X0386530Y0304170D02*
X0388130Y0304170D01*
X0388130Y0302572D02*
X0386530Y0302572D01*
X0386530Y0297776D02*
X0388130Y0297776D01*
X0388130Y0296178D02*
X0386530Y0296178D01*
X0386530Y0294579D02*
X0388130Y0294579D01*
X0388130Y0292981D02*
X0386530Y0292981D01*
X0383188Y0292981D02*
X0155169Y0292981D01*
X0155169Y0294579D02*
X0381597Y0294579D01*
X0381683Y0288185D02*
X0155169Y0288185D01*
X0155169Y0286587D02*
X0374147Y0286587D01*
X0378527Y0281791D02*
X0381025Y0281791D01*
X0380455Y0280192D02*
X0370991Y0280192D01*
X0366612Y0284988D02*
X0199991Y0284988D01*
X0201589Y0283389D02*
X0359076Y0283389D01*
X0363456Y0278594D02*
X0386530Y0278594D01*
X0386530Y0277811D02*
X0380324Y0277811D01*
X0380401Y0277233D01*
X0380640Y0276340D01*
X0380993Y0275486D01*
X0381456Y0274686D01*
X0382018Y0273953D01*
X0382672Y0273299D01*
X0383405Y0272737D01*
X0384205Y0272275D01*
X0385059Y0271921D01*
X0385952Y0271682D01*
X0386530Y0271605D01*
X0386530Y0277811D01*
X0386530Y0276995D02*
X0388130Y0276995D01*
X0388130Y0277811D02*
X0388130Y0271605D01*
X0388708Y0271682D01*
X0389601Y0271921D01*
X0390455Y0272275D01*
X0391255Y0272737D01*
X0391988Y0273299D01*
X0392642Y0273953D01*
X0393204Y0274686D01*
X0393666Y0275486D01*
X0394020Y0276340D01*
X0394259Y0277233D01*
X0394335Y0277811D01*
X0388130Y0277811D01*
X0388130Y0278594D02*
X0406608Y0278594D01*
X0406608Y0277811D02*
X0400402Y0277811D01*
X0400479Y0277233D01*
X0400718Y0276340D01*
X0401071Y0275486D01*
X0401533Y0274686D01*
X0402096Y0273953D01*
X0402750Y0273299D01*
X0403483Y0272737D01*
X0404283Y0272275D01*
X0405137Y0271921D01*
X0406030Y0271682D01*
X0406608Y0271605D01*
X0406608Y0277811D01*
X0406608Y0276995D02*
X0408208Y0276995D01*
X0408208Y0275397D02*
X0406608Y0275397D01*
X0406608Y0273798D02*
X0408208Y0273798D01*
X0408208Y0272200D02*
X0406608Y0272200D01*
X0404463Y0272200D02*
X0390275Y0272200D01*
X0388130Y0272200D02*
X0386530Y0272200D01*
X0386530Y0273798D02*
X0388130Y0273798D01*
X0388130Y0275397D02*
X0386530Y0275397D01*
X0384385Y0272200D02*
X0333312Y0272200D01*
X0328932Y0276995D02*
X0207983Y0276995D01*
X0209582Y0275397D02*
X0321397Y0275397D01*
X0325776Y0270601D02*
X0414070Y0270601D01*
X0414070Y0269003D02*
X0318240Y0269003D01*
X0313861Y0273798D02*
X0211180Y0273798D01*
X0212779Y0272200D02*
X0306325Y0272200D01*
X0310705Y0267404D02*
X0414070Y0267404D01*
X0414070Y0265806D02*
X0303169Y0265806D01*
X0298789Y0270601D02*
X0214377Y0270601D01*
X0215169Y0269003D02*
X0291253Y0269003D01*
X0295633Y0264207D02*
X0414070Y0264207D01*
X0414070Y0262609D02*
X0288097Y0262609D01*
X0283717Y0267404D02*
X0215169Y0267404D01*
X0215169Y0265806D02*
X0276181Y0265806D01*
X0268646Y0264207D02*
X0215169Y0264207D01*
X0215169Y0262609D02*
X0261110Y0262609D01*
X0265490Y0257813D02*
X0414070Y0257813D01*
X0414070Y0259412D02*
X0273025Y0259412D01*
X0280561Y0261010D02*
X0414070Y0261010D01*
X0414070Y0272200D02*
X0410353Y0272200D01*
X0412566Y0273798D02*
X0414070Y0273798D01*
X0414070Y0275397D02*
X0413693Y0275397D01*
X0413713Y0281791D02*
X0414070Y0281791D01*
X0414070Y0283389D02*
X0412600Y0283389D01*
X0414070Y0284988D02*
X0410435Y0284988D01*
X0408208Y0284988D02*
X0406608Y0284988D01*
X0406608Y0283389D02*
X0408208Y0283389D01*
X0408208Y0281791D02*
X0406608Y0281791D01*
X0406608Y0280192D02*
X0408208Y0280192D01*
X0402216Y0283389D02*
X0399694Y0283389D01*
X0401103Y0281791D02*
X0393635Y0281791D01*
X0394205Y0280192D02*
X0400533Y0280192D01*
X0400542Y0276995D02*
X0394196Y0276995D01*
X0393615Y0275397D02*
X0401123Y0275397D01*
X0402250Y0273798D02*
X0392488Y0273798D01*
X0392522Y0283389D02*
X0395043Y0283389D01*
X0401839Y0284988D02*
X0404381Y0284988D01*
X0406608Y0292981D02*
X0408208Y0292981D01*
X0408208Y0294579D02*
X0406608Y0294579D01*
X0406608Y0296178D02*
X0408208Y0296178D01*
X0408208Y0297776D02*
X0406608Y0297776D01*
X0413141Y0294579D02*
X0414070Y0294579D01*
X0414070Y0292981D02*
X0411549Y0292981D01*
X0413999Y0296178D02*
X0414070Y0296178D01*
X0414070Y0302572D02*
X0413307Y0302572D01*
X0414070Y0304170D02*
X0411846Y0304170D01*
X0414070Y0305769D02*
X0200881Y0305769D01*
X0200219Y0307367D02*
X0211535Y0307367D01*
X0211592Y0307155D02*
X0211829Y0306745D01*
X0212164Y0306410D01*
X0212574Y0306173D01*
X0213032Y0306050D01*
X0214869Y0306050D01*
X0214869Y0311150D01*
X0214869Y0311150D01*
X0211469Y0311150D01*
X0211469Y0307613D01*
X0211592Y0307155D01*
X0211469Y0308966D02*
X0199321Y0308966D01*
X0197723Y0310564D02*
X0211469Y0310564D01*
X0211469Y0312163D02*
X0194486Y0312163D01*
X0190252Y0312163D02*
X0174486Y0312163D01*
X0174094Y0312325D02*
X0170643Y0312325D01*
X0167455Y0311004D01*
X0165015Y0308564D01*
X0163694Y0305376D01*
X0163694Y0301924D01*
X0165015Y0298736D01*
X0167455Y0296296D01*
X0170643Y0294975D01*
X0174094Y0294975D01*
X0177283Y0296296D01*
X0179723Y0298736D01*
X0181044Y0301924D01*
X0181044Y0305376D01*
X0179723Y0308564D01*
X0177283Y0311004D01*
X0174094Y0312325D01*
X0170252Y0312163D02*
X0154486Y0312163D01*
X0157723Y0310564D02*
X0167015Y0310564D01*
X0165417Y0308966D02*
X0159321Y0308966D01*
X0160219Y0307367D02*
X0164519Y0307367D01*
X0163857Y0305769D02*
X0160881Y0305769D01*
X0161044Y0304170D02*
X0163694Y0304170D01*
X0163694Y0302572D02*
X0161044Y0302572D01*
X0160650Y0300973D02*
X0164088Y0300973D01*
X0164750Y0299375D02*
X0159988Y0299375D01*
X0158763Y0297776D02*
X0165975Y0297776D01*
X0167741Y0296178D02*
X0156997Y0296178D01*
X0155169Y0291382D02*
X0392277Y0291382D01*
X0391472Y0292981D02*
X0393568Y0292981D01*
X0389219Y0289784D02*
X0155169Y0289784D01*
X0149569Y0289784D02*
X0144930Y0289784D01*
X0145169Y0288185D02*
X0149569Y0288185D01*
X0149569Y0286587D02*
X0145169Y0286587D01*
X0145169Y0284988D02*
X0149569Y0284988D01*
X0149569Y0283389D02*
X0145169Y0283389D01*
X0145169Y0281791D02*
X0150268Y0281791D01*
X0145169Y0280192D02*
X0196867Y0280192D01*
X0198465Y0278594D02*
X0145169Y0278594D01*
X0145169Y0276995D02*
X0200064Y0276995D01*
X0204786Y0280192D02*
X0344004Y0280192D01*
X0348384Y0275397D02*
X0381045Y0275397D01*
X0380464Y0276995D02*
X0355920Y0276995D01*
X0351540Y0281791D02*
X0203188Y0281791D01*
X0206385Y0278594D02*
X0336468Y0278594D01*
X0340848Y0273798D02*
X0382172Y0273798D01*
X0367369Y0248650D02*
X0367369Y0223650D01*
X0242369Y0223650D01*
X0244141Y0227442D02*
X0364569Y0227442D01*
X0364569Y0229040D02*
X0230939Y0229040D01*
X0232537Y0227442D02*
X0240597Y0227442D01*
X0238752Y0225843D02*
X0234136Y0225843D01*
X0235734Y0224245D02*
X0238188Y0224245D01*
X0238259Y0222646D02*
X0237333Y0222646D01*
X0238931Y0221048D02*
X0239058Y0221048D01*
X0252369Y0236150D02*
X0252369Y0251150D01*
X0253574Y0261010D02*
X0215169Y0261010D01*
X0215169Y0259412D02*
X0246038Y0259412D01*
X0238502Y0257813D02*
X0215169Y0257813D01*
X0215169Y0256215D02*
X0231158Y0256215D01*
X0229701Y0254616D02*
X0215169Y0254616D01*
X0215169Y0253018D02*
X0229569Y0253018D01*
X0229569Y0251419D02*
X0215169Y0251419D01*
X0215169Y0249821D02*
X0229569Y0249821D01*
X0228563Y0248222D02*
X0225390Y0248222D01*
X0226944Y0246624D02*
X0227594Y0246624D01*
X0227594Y0245025D02*
X0226944Y0245025D01*
X0226944Y0243427D02*
X0227594Y0243427D01*
X0227594Y0241828D02*
X0226944Y0241828D01*
X0226834Y0240230D02*
X0227594Y0240230D01*
X0222369Y0240230D02*
X0222369Y0240230D01*
X0222369Y0241828D02*
X0222369Y0241828D01*
X0222369Y0243427D02*
X0222369Y0243427D01*
X0222369Y0245025D02*
X0222369Y0245025D01*
X0222369Y0246624D02*
X0222369Y0246624D01*
X0222369Y0248222D02*
X0222369Y0248222D01*
X0219348Y0248222D02*
X0215169Y0248222D01*
X0215169Y0246624D02*
X0217794Y0246624D01*
X0217794Y0245025D02*
X0215169Y0245025D01*
X0216552Y0243427D02*
X0217794Y0243427D01*
X0205103Y0232237D02*
X0165169Y0232237D01*
X0165169Y0230639D02*
X0203667Y0230639D01*
X0203188Y0229040D02*
X0182892Y0229040D01*
X0183860Y0227442D02*
X0202201Y0227442D01*
X0200602Y0225843D02*
X0184050Y0225843D01*
X0183605Y0224245D02*
X0199004Y0224245D01*
X0197405Y0222646D02*
X0182387Y0222646D01*
X0182253Y0221048D02*
X0195807Y0221048D01*
X0194208Y0219449D02*
X0182120Y0219449D01*
X0181987Y0217851D02*
X0192610Y0217851D01*
X0191011Y0216252D02*
X0181854Y0216252D01*
X0181721Y0214653D02*
X0189413Y0214653D01*
X0187814Y0213055D02*
X0181587Y0213055D01*
X0181454Y0211456D02*
X0186216Y0211456D01*
X0184839Y0209858D02*
X0181321Y0209858D01*
X0181188Y0208259D02*
X0184569Y0208259D01*
X0184569Y0206661D02*
X0181055Y0206661D01*
X0180921Y0205062D02*
X0184569Y0205062D01*
X0184569Y0203464D02*
X0180788Y0203464D01*
X0180655Y0201865D02*
X0184569Y0201865D01*
X0184569Y0200267D02*
X0180522Y0200267D01*
X0180764Y0198668D02*
X0183295Y0198668D01*
X0181827Y0197070D02*
X0181514Y0197070D01*
X0177369Y0196150D02*
X0179869Y0226150D01*
X0176846Y0229040D02*
X0165169Y0229040D01*
X0165169Y0227442D02*
X0175878Y0227442D01*
X0175688Y0225843D02*
X0165169Y0225843D01*
X0165169Y0224245D02*
X0176133Y0224245D01*
X0176767Y0222646D02*
X0165169Y0222646D01*
X0165169Y0221048D02*
X0176634Y0221048D01*
X0176501Y0219449D02*
X0165169Y0219449D01*
X0165169Y0217851D02*
X0176368Y0217851D01*
X0176234Y0216252D02*
X0165169Y0216252D01*
X0165169Y0214653D02*
X0176101Y0214653D01*
X0175968Y0213055D02*
X0165169Y0213055D01*
X0165169Y0211456D02*
X0175835Y0211456D01*
X0175702Y0209858D02*
X0165169Y0209858D01*
X0165169Y0208259D02*
X0175568Y0208259D01*
X0175435Y0206661D02*
X0165169Y0206661D01*
X0165169Y0205062D02*
X0175302Y0205062D01*
X0175169Y0203464D02*
X0165169Y0203464D01*
X0165169Y0201865D02*
X0175036Y0201865D01*
X0174902Y0200267D02*
X0165169Y0200267D01*
X0165169Y0198668D02*
X0173974Y0198668D01*
X0173224Y0197070D02*
X0165169Y0197070D01*
X0165169Y0195471D02*
X0173188Y0195471D01*
X0173787Y0193873D02*
X0165169Y0193873D01*
X0165169Y0192274D02*
X0175800Y0192274D01*
X0178938Y0192274D02*
X0180980Y0192274D01*
X0181642Y0190676D02*
X0165169Y0190676D01*
X0165169Y0189077D02*
X0182849Y0189077D01*
X0185467Y0187479D02*
X0165169Y0187479D01*
X0162369Y0181150D02*
X0162369Y0248650D01*
X0163595Y0254616D02*
X0175860Y0254616D01*
X0174745Y0256215D02*
X0164774Y0256215D01*
X0165223Y0257813D02*
X0174295Y0257813D01*
X0174313Y0259412D02*
X0165135Y0259412D01*
X0164480Y0261010D02*
X0174975Y0261010D01*
X0176415Y0262609D02*
X0162867Y0262609D01*
X0156891Y0254616D02*
X0156004Y0254616D01*
X0152369Y0258335D02*
X0152369Y0266150D01*
X0134869Y0266150D01*
X0134869Y0251150D01*
X0117369Y0251150D01*
X0117369Y0258335D01*
X0113734Y0254616D02*
X0113130Y0254616D01*
X0114569Y0253018D02*
X0100169Y0253018D01*
X0100169Y0254616D02*
X0105860Y0254616D01*
X0104745Y0256215D02*
X0100169Y0256215D01*
X0100169Y0257813D02*
X0104295Y0257813D01*
X0104313Y0259412D02*
X0100084Y0259412D01*
X0098968Y0261010D02*
X0104975Y0261010D01*
X0106415Y0262609D02*
X0055764Y0262609D01*
X0054386Y0264207D02*
X0132069Y0264207D01*
X0132069Y0262609D02*
X0127867Y0262609D01*
X0127864Y0262611D02*
X0127162Y0262969D01*
X0126414Y0263212D01*
X0125636Y0263335D01*
X0125243Y0263335D01*
X0125243Y0258335D01*
X0130243Y0258335D01*
X0130243Y0258729D01*
X0130120Y0259506D01*
X0129877Y0260254D01*
X0129519Y0260956D01*
X0129057Y0261592D01*
X0128500Y0262149D01*
X0127864Y0262611D01*
X0129480Y0261010D02*
X0132069Y0261010D01*
X0132069Y0259412D02*
X0130135Y0259412D01*
X0130223Y0257813D02*
X0132069Y0257813D01*
X0132069Y0256215D02*
X0129774Y0256215D01*
X0128595Y0254616D02*
X0132069Y0254616D01*
X0137669Y0254616D02*
X0140860Y0254616D01*
X0139745Y0256215D02*
X0137669Y0256215D01*
X0137669Y0257813D02*
X0139295Y0257813D01*
X0139313Y0259412D02*
X0137669Y0259412D01*
X0137669Y0261010D02*
X0139975Y0261010D01*
X0141415Y0262609D02*
X0137669Y0262609D01*
X0132069Y0265806D02*
X0055169Y0265806D01*
X0055169Y0267404D02*
X0132358Y0267404D01*
X0129187Y0273798D02*
X0124962Y0273798D01*
X0122569Y0273798D02*
X0122169Y0273798D01*
X0122169Y0275397D02*
X0122569Y0275397D01*
X0122569Y0276995D02*
X0122169Y0276995D01*
X0122169Y0280192D02*
X0122569Y0280192D01*
X0122569Y0281791D02*
X0122169Y0281791D01*
X0122169Y0283389D02*
X0122569Y0283389D01*
X0125182Y0283389D02*
X0129047Y0283389D01*
X0127500Y0281791D02*
X0126885Y0281791D01*
X0119556Y0283389D02*
X0115690Y0283389D01*
X0115169Y0284988D02*
X0139569Y0284988D01*
X0139569Y0283389D02*
X0135690Y0283389D01*
X0137238Y0281791D02*
X0139569Y0281791D01*
X0139569Y0280192D02*
X0137900Y0280192D01*
X0138069Y0278594D02*
X0139569Y0278594D01*
X0139569Y0276995D02*
X0137853Y0276995D01*
X0137177Y0275397D02*
X0139569Y0275397D01*
X0139569Y0273798D02*
X0135551Y0273798D01*
X0139939Y0272200D02*
X0065707Y0272200D01*
X0065496Y0271989D02*
X0066030Y0272523D01*
X0066474Y0273134D01*
X0066817Y0273807D01*
X0067051Y0274526D01*
X0067169Y0275272D01*
X0067169Y0278550D01*
X0062469Y0278550D01*
X0062469Y0270850D01*
X0062747Y0270850D01*
X0063493Y0270968D01*
X0064212Y0271202D01*
X0064885Y0271545D01*
X0065496Y0271989D01*
X0066813Y0273798D02*
X0076992Y0273798D01*
X0076669Y0275397D02*
X0067169Y0275397D01*
X0067169Y0276995D02*
X0076669Y0276995D01*
X0076669Y0278594D02*
X0062469Y0278594D01*
X0062269Y0278594D02*
X0057369Y0278594D01*
X0057569Y0278550D02*
X0057569Y0275272D01*
X0057687Y0274526D01*
X0057921Y0273807D01*
X0058264Y0273134D01*
X0058708Y0272523D01*
X0059242Y0271989D01*
X0059853Y0271545D01*
X0060526Y0271202D01*
X0061245Y0270968D01*
X0061991Y0270850D01*
X0062269Y0270850D01*
X0062269Y0278550D01*
X0057569Y0278550D01*
X0057569Y0276995D02*
X0057369Y0276995D01*
X0057369Y0275397D02*
X0057569Y0275397D01*
X0057925Y0273798D02*
X0057014Y0273798D01*
X0055990Y0272200D02*
X0059031Y0272200D01*
X0062269Y0272200D02*
X0062469Y0272200D01*
X0062469Y0273798D02*
X0062269Y0273798D01*
X0062269Y0275397D02*
X0062469Y0275397D01*
X0062469Y0276995D02*
X0062269Y0276995D01*
X0057569Y0280192D02*
X0057369Y0280192D01*
X0057369Y0281791D02*
X0057569Y0281791D01*
X0057887Y0283389D02*
X0057060Y0283389D01*
X0056102Y0284988D02*
X0058919Y0284988D01*
X0065819Y0284988D02*
X0109569Y0284988D01*
X0109047Y0283389D02*
X0105690Y0283389D01*
X0107238Y0281791D02*
X0107500Y0281791D01*
X0112369Y0278650D02*
X0112369Y0288650D01*
X0117238Y0281791D02*
X0117853Y0281791D01*
X0117934Y0275397D02*
X0117177Y0275397D01*
X0115551Y0273798D02*
X0119776Y0273798D01*
X0126804Y0275397D02*
X0127561Y0275397D01*
X0125243Y0262609D02*
X0125243Y0262609D01*
X0125243Y0261010D02*
X0125243Y0261010D01*
X0125243Y0259412D02*
X0125243Y0259412D01*
X0125243Y0258335D02*
X0125243Y0258335D01*
X0122619Y0262609D02*
X0120449Y0262609D01*
X0114289Y0262609D02*
X0112575Y0262609D01*
X0114569Y0251419D02*
X0100169Y0251419D01*
X0100169Y0249821D02*
X0114889Y0249821D01*
X0100169Y0248222D02*
X0143621Y0248222D01*
X0143934Y0246624D02*
X0100169Y0246624D01*
X0100169Y0245025D02*
X0144247Y0245025D01*
X0144560Y0243427D02*
X0100169Y0243427D01*
X0100169Y0241828D02*
X0145218Y0241828D01*
X0144745Y0240230D02*
X0149569Y0240230D01*
X0149569Y0238631D02*
X0145169Y0238631D01*
X0145169Y0237033D02*
X0149569Y0237033D01*
X0149569Y0235434D02*
X0145169Y0235434D01*
X0145169Y0233836D02*
X0149569Y0233836D01*
X0149569Y0232237D02*
X0145169Y0232237D01*
X0145169Y0230639D02*
X0149569Y0230639D01*
X0149569Y0229040D02*
X0145169Y0229040D01*
X0145169Y0227442D02*
X0149569Y0227442D01*
X0149569Y0225843D02*
X0145169Y0225843D01*
X0145169Y0224245D02*
X0149569Y0224245D01*
X0149569Y0222646D02*
X0145169Y0222646D01*
X0145169Y0221048D02*
X0149569Y0221048D01*
X0149569Y0219449D02*
X0145169Y0219449D01*
X0145169Y0217851D02*
X0149569Y0217851D01*
X0149569Y0216252D02*
X0145169Y0216252D01*
X0145169Y0214653D02*
X0149569Y0214653D01*
X0149569Y0213055D02*
X0145169Y0213055D01*
X0145169Y0211456D02*
X0149569Y0211456D01*
X0149569Y0209858D02*
X0145169Y0209858D01*
X0146021Y0208259D02*
X0149569Y0208259D01*
X0149569Y0206661D02*
X0146550Y0206661D01*
X0146444Y0205062D02*
X0149569Y0205062D01*
X0149569Y0203464D02*
X0145596Y0203464D01*
X0142369Y0206150D02*
X0142369Y0238650D01*
X0097369Y0238650D01*
X0097369Y0258650D01*
X0052369Y0258650D01*
X0055689Y0254616D02*
X0094569Y0254616D01*
X0094569Y0253018D02*
X0055355Y0253018D01*
X0056954Y0251419D02*
X0094569Y0251419D01*
X0094569Y0249821D02*
X0057569Y0249821D01*
X0057569Y0248222D02*
X0094569Y0248222D01*
X0094569Y0246624D02*
X0057569Y0246624D01*
X0056098Y0245025D02*
X0094569Y0245025D01*
X0094569Y0243427D02*
X0056821Y0243427D01*
X0057569Y0241828D02*
X0094569Y0241828D01*
X0094569Y0240230D02*
X0057569Y0240230D01*
X0057569Y0238631D02*
X0094569Y0238631D01*
X0095027Y0237033D02*
X0057569Y0237033D01*
X0057569Y0235434D02*
X0139569Y0235434D01*
X0139569Y0233836D02*
X0056783Y0233836D01*
X0047955Y0233836D02*
X0044908Y0233836D01*
X0046507Y0235434D02*
X0047169Y0235434D01*
X0032369Y0228650D02*
X0092369Y0228650D01*
X0121641Y0227442D02*
X0135597Y0227442D01*
X0137369Y0216150D02*
X0127369Y0218650D01*
X0123854Y0216252D02*
X0058896Y0216252D01*
X0060529Y0217851D02*
X0123188Y0217851D01*
X0123188Y0219449D02*
X0062128Y0219449D01*
X0071254Y0198668D02*
X0041443Y0198668D01*
X0042911Y0197070D02*
X0068936Y0197070D01*
X0068224Y0195471D02*
X0043573Y0195471D01*
X0043798Y0193873D02*
X0068214Y0193873D01*
X0068839Y0192274D02*
X0043758Y0192274D01*
X0043096Y0190676D02*
X0068919Y0190676D01*
X0068599Y0189077D02*
X0041888Y0189077D01*
X0040169Y0187479D02*
X0068279Y0187479D01*
X0067960Y0185880D02*
X0040169Y0185880D01*
X0040169Y0184282D02*
X0067088Y0184282D01*
X0065978Y0182683D02*
X0040169Y0182683D01*
X0040169Y0181085D02*
X0065688Y0181085D01*
X0066033Y0179486D02*
X0040169Y0179486D01*
X0040169Y0177888D02*
X0067218Y0177888D01*
X0093235Y0180815D02*
X0101701Y0180815D01*
X0139142Y0203464D02*
X0024369Y0203464D01*
X0024369Y0205062D02*
X0138294Y0205062D01*
X0138188Y0206661D02*
X0024369Y0206661D01*
X0024369Y0208259D02*
X0138717Y0208259D01*
X0139569Y0209858D02*
X0024369Y0209858D01*
X0024369Y0211456D02*
X0139569Y0211456D01*
X0134551Y0213055D02*
X0024369Y0213055D01*
X0024369Y0214653D02*
X0126092Y0214653D01*
X0128646Y0214653D02*
X0131810Y0214653D01*
X0149569Y0201865D02*
X0024369Y0201865D01*
X0024369Y0200267D02*
X0149569Y0200267D01*
X0187369Y0193650D02*
X0187369Y0208650D01*
X0207369Y0228650D01*
X0183734Y0254616D02*
X0183130Y0254616D01*
X0182575Y0262609D02*
X0184289Y0262609D01*
X0142682Y0253018D02*
X0137669Y0253018D01*
X0137669Y0251419D02*
X0142995Y0251419D01*
X0143308Y0249821D02*
X0137349Y0249821D01*
X0109187Y0273798D02*
X0105551Y0273798D01*
X0107177Y0275397D02*
X0107561Y0275397D01*
X0099187Y0273798D02*
X0095551Y0273798D01*
X0097177Y0275397D02*
X0097561Y0275397D01*
X0097500Y0281791D02*
X0097238Y0281791D01*
X0095690Y0283389D02*
X0099047Y0283389D01*
X0089047Y0283389D02*
X0087858Y0283389D01*
X0076880Y0283389D02*
X0066851Y0283389D01*
X0067169Y0281791D02*
X0076669Y0281791D01*
X0076669Y0280192D02*
X0067169Y0280192D01*
X0048636Y0284988D02*
X0046102Y0284988D01*
X0047060Y0283389D02*
X0047678Y0283389D01*
X0047369Y0282645D02*
X0047369Y0274655D01*
X0047369Y0282645D01*
X0047369Y0281791D02*
X0047369Y0281791D01*
X0047369Y0280192D02*
X0047369Y0280192D01*
X0047369Y0278594D02*
X0047369Y0278594D01*
X0047369Y0276995D02*
X0047369Y0276995D01*
X0047369Y0275397D02*
X0047369Y0275397D01*
X0047369Y0274655D02*
X0046608Y0272818D01*
X0045201Y0271411D01*
X0043364Y0270650D01*
X0041374Y0270650D01*
X0039537Y0271411D01*
X0039313Y0271635D01*
X0036499Y0268820D01*
X0036812Y0268950D01*
X0049569Y0268950D01*
X0049569Y0271398D01*
X0049537Y0271411D01*
X0048130Y0272818D01*
X0047369Y0274655D01*
X0047014Y0273798D02*
X0047724Y0273798D01*
X0048748Y0272200D02*
X0045990Y0272200D01*
X0049569Y0270601D02*
X0038280Y0270601D01*
X0036682Y0269003D02*
X0049569Y0269003D01*
X0042369Y0278650D02*
X0032369Y0268650D01*
X0032369Y0228650D01*
X0024569Y0229040D02*
X0024369Y0229040D01*
X0024369Y0227442D02*
X0024569Y0227442D01*
X0024569Y0225843D02*
X0024369Y0225843D01*
X0024369Y0224245D02*
X0024569Y0224245D01*
X0024569Y0222646D02*
X0024369Y0222646D01*
X0024369Y0221048D02*
X0024569Y0221048D01*
X0024569Y0219449D02*
X0024369Y0219449D01*
X0024369Y0217851D02*
X0024669Y0217851D01*
X0024369Y0216252D02*
X0025841Y0216252D01*
X0024569Y0230639D02*
X0024369Y0230639D01*
X0024369Y0232237D02*
X0024569Y0232237D01*
X0024569Y0233836D02*
X0024369Y0233836D01*
X0024369Y0235434D02*
X0024569Y0235434D01*
X0024569Y0237033D02*
X0024369Y0237033D01*
X0024369Y0238631D02*
X0024569Y0238631D01*
X0024569Y0240230D02*
X0024369Y0240230D01*
X0024369Y0241828D02*
X0024569Y0241828D01*
X0024569Y0243427D02*
X0024369Y0243427D01*
X0024369Y0245025D02*
X0024569Y0245025D01*
X0024569Y0246624D02*
X0024369Y0246624D01*
X0024369Y0248222D02*
X0024569Y0248222D01*
X0024569Y0249821D02*
X0024369Y0249821D01*
X0024369Y0251419D02*
X0024569Y0251419D01*
X0024569Y0253018D02*
X0024369Y0253018D01*
X0024369Y0254616D02*
X0024569Y0254616D01*
X0024569Y0256215D02*
X0024369Y0256215D01*
X0024369Y0257813D02*
X0024569Y0257813D01*
X0024569Y0259412D02*
X0024369Y0259412D01*
X0024369Y0261010D02*
X0024569Y0261010D01*
X0024569Y0262609D02*
X0024369Y0262609D01*
X0024369Y0264207D02*
X0024569Y0264207D01*
X0024569Y0265806D02*
X0024369Y0265806D01*
X0024369Y0267404D02*
X0024569Y0267404D01*
X0024569Y0269003D02*
X0024369Y0269003D01*
X0024369Y0270601D02*
X0024569Y0270601D01*
X0024569Y0272200D02*
X0024369Y0272200D01*
X0024369Y0273798D02*
X0024569Y0273798D01*
X0024569Y0275397D02*
X0024369Y0275397D01*
X0024369Y0276995D02*
X0024569Y0276995D01*
X0024569Y0278594D02*
X0024369Y0278594D01*
X0024369Y0280192D02*
X0024569Y0280192D01*
X0024569Y0281791D02*
X0024369Y0281791D01*
X0024369Y0283389D02*
X0024569Y0283389D01*
X0024569Y0284988D02*
X0024369Y0284988D01*
X0027369Y0293650D02*
X0037369Y0293650D01*
X0036102Y0284988D02*
X0038636Y0284988D01*
X0037678Y0283389D02*
X0037060Y0283389D01*
X0037369Y0282645D02*
X0037369Y0277610D01*
X0037369Y0277610D01*
X0037369Y0282645D01*
X0037369Y0281791D02*
X0037369Y0281791D01*
X0037369Y0280192D02*
X0037369Y0280192D01*
X0037369Y0278594D02*
X0037369Y0278594D01*
X0087746Y0273798D02*
X0089187Y0273798D01*
X0143090Y0291382D02*
X0149569Y0291382D01*
X0176997Y0296178D02*
X0187741Y0296178D01*
X0185975Y0297776D02*
X0178763Y0297776D01*
X0179988Y0299375D02*
X0184750Y0299375D01*
X0184088Y0300973D02*
X0180650Y0300973D01*
X0181044Y0302572D02*
X0183694Y0302572D01*
X0183694Y0304170D02*
X0181044Y0304170D01*
X0180881Y0305769D02*
X0183857Y0305769D01*
X0184519Y0307367D02*
X0180219Y0307367D01*
X0179321Y0308966D02*
X0185417Y0308966D01*
X0187015Y0310564D02*
X0177723Y0310564D01*
X0214869Y0310564D02*
X0214869Y0310564D01*
X0214869Y0308966D02*
X0214869Y0308966D01*
X0214869Y0307367D02*
X0214869Y0307367D01*
X0218203Y0307367D02*
X0361535Y0307367D01*
X0361592Y0307155D02*
X0361829Y0306745D01*
X0362164Y0306410D01*
X0362574Y0306173D01*
X0363032Y0306050D01*
X0364869Y0306050D01*
X0366706Y0306050D01*
X0367164Y0306173D01*
X0367574Y0306410D01*
X0367909Y0306745D01*
X0368146Y0307155D01*
X0368269Y0307613D01*
X0368269Y0311150D01*
X0368269Y0314687D01*
X0368146Y0315145D01*
X0367909Y0315555D01*
X0367574Y0315890D01*
X0367164Y0316127D01*
X0366706Y0316250D01*
X0364869Y0316250D01*
X0364869Y0311150D01*
X0368269Y0311150D01*
X0364869Y0311150D01*
X0364869Y0311150D01*
X0364869Y0311150D01*
X0364869Y0306050D01*
X0364869Y0311150D01*
X0364869Y0311150D01*
X0364869Y0316250D01*
X0363032Y0316250D01*
X0362574Y0316127D01*
X0362164Y0315890D01*
X0361829Y0315555D01*
X0361592Y0315145D01*
X0361469Y0314687D01*
X0361469Y0311150D01*
X0364869Y0311150D01*
X0364869Y0311150D01*
X0361469Y0311150D01*
X0361469Y0307613D01*
X0361592Y0307155D01*
X0361469Y0308966D02*
X0218269Y0308966D01*
X0218269Y0310564D02*
X0361469Y0310564D01*
X0361469Y0312163D02*
X0218269Y0312163D01*
X0218269Y0313761D02*
X0361469Y0313761D01*
X0361716Y0315360D02*
X0218022Y0315360D01*
X0214869Y0315360D02*
X0214869Y0315360D01*
X0214869Y0313761D02*
X0214869Y0313761D01*
X0214869Y0312163D02*
X0214869Y0312163D01*
X0306175Y0248222D02*
X0308563Y0248222D01*
X0308766Y0248425D02*
X0307594Y0247253D01*
X0307594Y0240047D01*
X0308766Y0238875D01*
X0315972Y0238875D01*
X0317144Y0240047D01*
X0317144Y0247253D01*
X0315972Y0248425D01*
X0308766Y0248425D01*
X0307594Y0246624D02*
X0307144Y0246624D01*
X0307144Y0245025D02*
X0307594Y0245025D01*
X0307594Y0243427D02*
X0307144Y0243427D01*
X0307144Y0241828D02*
X0307594Y0241828D01*
X0307594Y0240230D02*
X0307144Y0240230D01*
X0317144Y0240230D02*
X0317904Y0240230D01*
X0317917Y0240180D02*
X0318154Y0239770D01*
X0318489Y0239435D01*
X0318899Y0239198D01*
X0319357Y0239075D01*
X0322369Y0239075D01*
X0325381Y0239075D01*
X0325839Y0239198D01*
X0326249Y0239435D01*
X0326584Y0239770D01*
X0326821Y0240180D01*
X0326944Y0240638D01*
X0326944Y0243650D01*
X0326944Y0246662D01*
X0326821Y0247120D01*
X0326584Y0247530D01*
X0326249Y0247865D01*
X0325839Y0248102D01*
X0325381Y0248225D01*
X0322369Y0248225D01*
X0322369Y0243650D01*
X0326944Y0243650D01*
X0322369Y0243650D01*
X0322369Y0243650D01*
X0322369Y0243650D01*
X0322369Y0239075D01*
X0322369Y0243650D01*
X0322369Y0243650D01*
X0322369Y0248225D01*
X0319357Y0248225D01*
X0318899Y0248102D01*
X0318489Y0247865D01*
X0318154Y0247530D01*
X0317917Y0247120D01*
X0317794Y0246662D01*
X0317794Y0243650D01*
X0322369Y0243650D01*
X0322369Y0243650D01*
X0317794Y0243650D01*
X0317794Y0240638D01*
X0317917Y0240180D01*
X0317794Y0241828D02*
X0317144Y0241828D01*
X0317144Y0243427D02*
X0317794Y0243427D01*
X0317794Y0245025D02*
X0317144Y0245025D01*
X0317144Y0246624D02*
X0317794Y0246624D01*
X0319348Y0248222D02*
X0316175Y0248222D01*
X0322369Y0248222D02*
X0322369Y0248222D01*
X0322369Y0246624D02*
X0322369Y0246624D01*
X0322369Y0245025D02*
X0322369Y0245025D01*
X0322369Y0243427D02*
X0322369Y0243427D01*
X0322369Y0241828D02*
X0322369Y0241828D01*
X0322369Y0240230D02*
X0322369Y0240230D01*
X0326834Y0240230D02*
X0327594Y0240230D01*
X0327594Y0240047D02*
X0328766Y0238875D01*
X0335972Y0238875D01*
X0337144Y0240047D01*
X0337144Y0247253D01*
X0335972Y0248425D01*
X0328766Y0248425D01*
X0327594Y0247253D01*
X0327594Y0240047D01*
X0327594Y0241828D02*
X0326944Y0241828D01*
X0326944Y0243427D02*
X0327594Y0243427D01*
X0327594Y0245025D02*
X0326944Y0245025D01*
X0326944Y0246624D02*
X0327594Y0246624D01*
X0328563Y0248222D02*
X0325390Y0248222D01*
X0336175Y0248222D02*
X0363188Y0248222D01*
X0363683Y0246624D02*
X0337144Y0246624D01*
X0337144Y0245025D02*
X0364569Y0245025D01*
X0364569Y0243427D02*
X0337144Y0243427D01*
X0337144Y0241828D02*
X0364569Y0241828D01*
X0364569Y0240230D02*
X0337144Y0240230D01*
X0395980Y0192274D02*
X0265169Y0192274D01*
X0265169Y0190676D02*
X0396642Y0190676D01*
X0397849Y0189077D02*
X0265169Y0189077D01*
X0265169Y0187479D02*
X0400467Y0187479D01*
X0404270Y0187479D02*
X0414070Y0187479D01*
X0414070Y0189077D02*
X0406888Y0189077D01*
X0408096Y0190676D02*
X0414070Y0190676D01*
X0414070Y0192274D02*
X0408758Y0192274D01*
X0408798Y0193873D02*
X0414070Y0193873D01*
X0414070Y0195471D02*
X0408573Y0195471D01*
X0407911Y0197070D02*
X0414070Y0197070D01*
X0414070Y0198668D02*
X0406443Y0198668D01*
X0414070Y0185880D02*
X0265971Y0185880D01*
X0266550Y0184282D02*
X0414070Y0184282D01*
X0414070Y0182683D02*
X0266494Y0182683D01*
X0265717Y0181085D02*
X0414070Y0181085D01*
X0398165Y0123538D02*
X0256573Y0123538D01*
X0257965Y0121940D02*
X0396773Y0121940D01*
X0396111Y0120341D02*
X0258627Y0120341D01*
X0258798Y0118743D02*
X0395940Y0118743D01*
X0396034Y0117144D02*
X0258704Y0117144D01*
X0258042Y0115546D02*
X0396696Y0115546D01*
X0397980Y0113947D02*
X0256758Y0113947D01*
X0252369Y0118650D02*
X0252369Y0193650D01*
X0218629Y0129634D02*
X0218235Y0129634D01*
X0221810Y0115546D02*
X0246696Y0115546D01*
X0247980Y0113947D02*
X0191758Y0113947D01*
X0182980Y0113947D02*
X0041758Y0113947D01*
X0043042Y0115546D02*
X0181696Y0115546D01*
X0181034Y0117144D02*
X0043704Y0117144D01*
X0043798Y0118743D02*
X0180940Y0118743D01*
X0181111Y0120341D02*
X0043627Y0120341D01*
X0037369Y0118650D02*
X0037369Y0193650D01*
X0030940Y0193873D02*
X0024369Y0193873D01*
X0024369Y0195471D02*
X0031165Y0195471D01*
X0031827Y0197070D02*
X0024369Y0197070D01*
X0024369Y0198668D02*
X0033295Y0198668D01*
X0030980Y0192274D02*
X0024369Y0192274D01*
X0024369Y0190676D02*
X0031642Y0190676D01*
X0032849Y0189077D02*
X0024369Y0189077D01*
X0024369Y0187479D02*
X0034569Y0187479D01*
X0034569Y0185880D02*
X0024369Y0185880D01*
X0024369Y0184282D02*
X0034569Y0184282D01*
X0034569Y0182683D02*
X0024369Y0182683D01*
X0024369Y0181085D02*
X0034569Y0181085D01*
X0034569Y0179486D02*
X0024369Y0179486D01*
X0024369Y0177888D02*
X0034569Y0177888D01*
X0034569Y0176289D02*
X0024369Y0176289D01*
X0024369Y0174691D02*
X0034569Y0174691D01*
X0034569Y0173092D02*
X0024369Y0173092D01*
X0024369Y0171494D02*
X0034569Y0171494D01*
X0034569Y0169895D02*
X0024369Y0169895D01*
X0024369Y0168297D02*
X0034569Y0168297D01*
X0034569Y0166698D02*
X0024369Y0166698D01*
X0024369Y0165100D02*
X0034569Y0165100D01*
X0034569Y0163501D02*
X0024369Y0163501D01*
X0024369Y0161903D02*
X0034569Y0161903D01*
X0034569Y0160304D02*
X0024369Y0160304D01*
X0024369Y0158706D02*
X0034569Y0158706D01*
X0236732Y0048408D02*
X0378350Y0048408D01*
X0377034Y0046810D02*
X0238065Y0046810D01*
X0364869Y0307367D02*
X0364869Y0307367D01*
X0364869Y0308966D02*
X0364869Y0308966D01*
X0364869Y0310564D02*
X0364869Y0310564D01*
X0364869Y0312163D02*
X0364869Y0312163D01*
X0364869Y0313761D02*
X0364869Y0313761D01*
X0364869Y0315360D02*
X0364869Y0315360D01*
X0368022Y0315360D02*
X0414070Y0315360D01*
X0414070Y0313761D02*
X0368269Y0313761D01*
X0368269Y0312163D02*
X0414070Y0312163D01*
X0414070Y0310564D02*
X0368269Y0310564D01*
X0368269Y0308966D02*
X0414070Y0308966D01*
X0414070Y0307367D02*
X0368203Y0307367D01*
D26*
X0367369Y0248650D03*
X0262369Y0183650D03*
X0234967Y0153256D03*
X0177369Y0196150D03*
X0162369Y0181150D03*
X0152369Y0188650D03*
X0142369Y0206150D03*
X0137369Y0216150D03*
X0137369Y0223650D03*
X0127369Y0218650D03*
X0119869Y0223650D03*
X0097369Y0223650D03*
X0077369Y0223650D03*
X0072395Y0194615D03*
X0069869Y0181150D03*
X0093235Y0180815D03*
X0101701Y0180815D03*
X0093235Y0133571D03*
X0094869Y0126150D03*
X0119869Y0126150D03*
X0242369Y0223650D03*
X0252369Y0236150D03*
X0252369Y0251150D03*
X0207369Y0228650D03*
X0179869Y0226150D03*
X0162369Y0248650D03*
X0037369Y0293650D03*
M02*
