G75*
%MOIN*%
%OFA0B0*%
%FSLAX25Y25*%
%IPPOS*%
%LPD*%
%AMOC8*
5,1,8,0,0,1.08239X$1,22.5*
%
%ADD10C,0.09700*%
%ADD11C,0.08674*%
%ADD12C,0.09658*%
%ADD13R,0.07200X0.07200*%
%ADD14OC8,0.07200*%
%ADD15R,0.06350X0.06350*%
%ADD16R,0.04000X0.07400*%
%ADD17C,0.08300*%
%ADD18C,0.11300*%
%ADD19C,0.06800*%
%ADD20C,0.07200*%
%ADD21R,0.08200X0.08200*%
%ADD22C,0.08200*%
%ADD23C,0.14150*%
%ADD24R,0.03950X0.03950*%
%ADD25R,0.04737X0.05131*%
%ADD26C,0.05162*%
D10*
X0034180Y0019248D03*
X0404259Y0019248D03*
X0034180Y0308618D03*
D11*
X0219219Y0160980D03*
D12*
X0187369Y0193500D03*
X0252369Y0193500D03*
X0252369Y0118500D03*
X0187369Y0118500D03*
X0205479Y0043500D03*
X0232684Y0043500D03*
X0382684Y0043500D03*
X0402369Y0118500D03*
X0402369Y0193500D03*
X0055479Y0043500D03*
X0037369Y0118500D03*
X0037369Y0193500D03*
D13*
X0052369Y0238500D03*
D14*
X0042369Y0238500D03*
X0042369Y0248500D03*
X0052369Y0248500D03*
X0052369Y0258500D03*
X0042369Y0258500D03*
D15*
X0222369Y0243500D03*
X0232369Y0243500D03*
X0242369Y0243500D03*
X0302369Y0243500D03*
X0312369Y0243500D03*
X0322369Y0243500D03*
X0332369Y0243500D03*
D16*
X0364869Y0311000D03*
X0214869Y0311000D03*
D17*
X0397369Y0288500D03*
D18*
X0407408Y0278461D03*
X0387330Y0278461D03*
X0387330Y0298539D03*
X0407408Y0298539D03*
D19*
X0062369Y0281500D02*
X0062369Y0275500D01*
X0052369Y0275500D02*
X0052369Y0281500D01*
X0042369Y0281500D02*
X0042369Y0275500D01*
X0032369Y0275500D02*
X0032369Y0281500D01*
D20*
X0109495Y0258185D03*
X0117369Y0258185D03*
X0125243Y0258185D03*
X0144495Y0258185D03*
X0152369Y0258185D03*
X0160243Y0258185D03*
X0179495Y0258185D03*
X0187369Y0258185D03*
X0195243Y0258185D03*
D21*
X0082369Y0278500D03*
D22*
X0092369Y0278500D03*
X0102369Y0278500D03*
X0112369Y0278500D03*
X0122369Y0278500D03*
X0132369Y0278500D03*
D23*
X0152369Y0303500D03*
X0172369Y0303500D03*
X0192369Y0303500D03*
D24*
X0212330Y0117673D03*
X0218235Y0117673D03*
D25*
X0218629Y0129484D03*
X0211936Y0129484D03*
D26*
X0234967Y0153106D03*
X0262369Y0183500D03*
X0242369Y0223500D03*
X0252369Y0236000D03*
X0252369Y0251000D03*
X0207369Y0228500D03*
X0179869Y0226000D03*
X0162369Y0248500D03*
X0137369Y0223500D03*
X0137369Y0216000D03*
X0127369Y0218500D03*
X0119869Y0223500D03*
X0097369Y0223500D03*
X0077369Y0223500D03*
X0072395Y0194465D03*
X0069869Y0181000D03*
X0093235Y0180665D03*
X0101701Y0180665D03*
X0144416Y0160980D03*
X0162369Y0181000D03*
X0152369Y0188500D03*
X0142369Y0206000D03*
X0177369Y0196000D03*
X0119869Y0126000D03*
X0094869Y0126000D03*
X0037369Y0293500D03*
X0367369Y0248500D03*
M02*
