G75*
%MOIN*%
%OFA0B0*%
%FSLAX25Y25*%
%IPPOS*%
%LPD*%
%AMOC8*
5,1,8,0,0,1.08239X$1,22.5*
%
%ADD10R,0.02165X0.06102*%
%ADD11R,0.06102X0.02165*%
%ADD12R,0.05118X0.02362*%
%ADD13R,0.03937X0.07874*%
%ADD14R,0.07874X0.03937*%
%ADD15C,0.08858*%
%ADD16R,0.06400X0.06400*%
%ADD17OC8,0.06400*%
%ADD18R,0.03150X0.04724*%
%ADD19R,0.04724X0.03150*%
%ADD20R,0.01969X0.01969*%
%ADD21R,0.05550X0.05550*%
%ADD22C,0.07500*%
%ADD23C,0.10500*%
%ADD24R,0.03898X0.02717*%
%ADD25C,0.06000*%
%ADD26C,0.06400*%
%ADD27R,0.08661X0.04724*%
%ADD28R,0.08661X0.13780*%
%ADD29R,0.03937X0.04331*%
%ADD30R,0.07400X0.07400*%
%ADD31C,0.07400*%
%ADD32C,0.13350*%
%ADD33C,0.01600*%
%ADD34C,0.04362*%
D10*
X0091621Y0171012D03*
X0094771Y0171012D03*
X0097920Y0171012D03*
X0101070Y0171012D03*
X0104219Y0171012D03*
X0107369Y0171012D03*
X0110519Y0171012D03*
X0113668Y0171012D03*
X0116818Y0171012D03*
X0119967Y0171012D03*
X0123117Y0171012D03*
X0123117Y0216288D03*
X0119967Y0216288D03*
X0116818Y0216288D03*
X0113668Y0216288D03*
X0110519Y0216288D03*
X0107369Y0216288D03*
X0104219Y0216288D03*
X0101070Y0216288D03*
X0097920Y0216288D03*
X0094771Y0216288D03*
X0091621Y0216288D03*
D11*
X0084731Y0209398D03*
X0084731Y0206248D03*
X0084731Y0203099D03*
X0084731Y0199949D03*
X0084731Y0196800D03*
X0084731Y0193650D03*
X0084731Y0190500D03*
X0084731Y0187351D03*
X0084731Y0184201D03*
X0084731Y0181052D03*
X0084731Y0177902D03*
X0130007Y0177902D03*
X0130007Y0181052D03*
X0130007Y0184201D03*
X0130007Y0187351D03*
X0130007Y0190500D03*
X0130007Y0193650D03*
X0130007Y0196800D03*
X0130007Y0199949D03*
X0130007Y0203099D03*
X0130007Y0206248D03*
X0130007Y0209398D03*
D12*
X0062093Y0196032D03*
X0062093Y0191111D03*
X0062093Y0186189D03*
X0062093Y0181268D03*
X0052645Y0181268D03*
X0052645Y0186189D03*
X0052645Y0191111D03*
X0052645Y0196032D03*
D13*
X0074574Y0097351D03*
X0080873Y0097351D03*
X0087172Y0097351D03*
X0093471Y0097351D03*
X0099771Y0097351D03*
X0106070Y0097351D03*
X0112369Y0097351D03*
X0118668Y0097351D03*
X0124967Y0097351D03*
X0131267Y0097351D03*
X0137566Y0097351D03*
X0143865Y0097351D03*
X0150164Y0097351D03*
X0156463Y0097351D03*
X0156463Y0059949D03*
X0150164Y0059949D03*
X0143865Y0059949D03*
X0137566Y0059949D03*
X0131267Y0059949D03*
X0124967Y0059949D03*
X0118668Y0059949D03*
X0112369Y0059949D03*
X0106070Y0059949D03*
X0099771Y0059949D03*
X0093471Y0059949D03*
X0087172Y0059949D03*
X0080873Y0059949D03*
X0074574Y0059949D03*
D14*
X0064731Y0061918D03*
X0064731Y0068217D03*
X0064731Y0082784D03*
X0064731Y0089083D03*
X0064731Y0095382D03*
X0158432Y0084949D03*
X0158432Y0078650D03*
X0158432Y0072351D03*
D15*
X0205479Y0043650D03*
X0232684Y0043650D03*
X0252369Y0118650D03*
X0187369Y0118650D03*
X0187369Y0193650D03*
X0252369Y0193650D03*
X0402369Y0193650D03*
X0402369Y0118650D03*
X0382684Y0043650D03*
X0055479Y0043650D03*
X0037369Y0118650D03*
X0037369Y0193650D03*
D16*
X0052369Y0238650D03*
D17*
X0042369Y0238650D03*
X0042369Y0248650D03*
X0052369Y0248650D03*
X0052369Y0258650D03*
X0042369Y0258650D03*
D18*
X0044475Y0179713D03*
X0037389Y0179713D03*
X0073826Y0108650D03*
X0080912Y0108650D03*
X0111326Y0106150D03*
X0118412Y0106150D03*
X0131326Y0106150D03*
X0138412Y0106150D03*
X0125912Y0048650D03*
X0118826Y0048650D03*
D19*
X0052369Y0085107D03*
X0052369Y0092193D03*
D20*
X0119869Y0114150D03*
X0119869Y0118150D03*
X0132369Y0118150D03*
X0132369Y0114150D03*
D21*
X0222369Y0243650D03*
X0232369Y0243650D03*
X0242369Y0243650D03*
X0302369Y0243650D03*
X0312369Y0243650D03*
X0322369Y0243650D03*
X0332369Y0243650D03*
D22*
X0397369Y0288650D03*
D23*
X0407408Y0278611D03*
X0387330Y0278611D03*
X0387330Y0298689D03*
X0407408Y0298689D03*
D24*
X0352448Y0252390D03*
X0352448Y0248650D03*
X0352448Y0244910D03*
X0342251Y0244910D03*
X0342251Y0252390D03*
X0292487Y0242390D03*
X0282290Y0242390D03*
X0282290Y0238650D03*
X0282290Y0234910D03*
X0292487Y0234910D03*
D25*
X0062369Y0275650D02*
X0062369Y0281650D01*
X0052369Y0281650D02*
X0052369Y0275650D01*
X0042369Y0275650D02*
X0042369Y0281650D01*
X0032369Y0281650D02*
X0032369Y0275650D01*
D26*
X0109495Y0258335D03*
X0117369Y0258335D03*
X0125243Y0258335D03*
X0144495Y0258335D03*
X0152369Y0258335D03*
X0160243Y0258335D03*
X0179495Y0258335D03*
X0187369Y0258335D03*
X0195243Y0258335D03*
D27*
X0286700Y0202705D03*
X0286700Y0193650D03*
X0286700Y0184595D03*
X0286700Y0167705D03*
X0286700Y0158650D03*
X0286700Y0149595D03*
D28*
X0311109Y0158650D03*
X0311109Y0193650D03*
D29*
X0272369Y0195304D03*
X0272369Y0201996D03*
X0272369Y0186996D03*
X0272369Y0180304D03*
X0272369Y0171996D03*
X0272369Y0165304D03*
X0272369Y0156996D03*
X0272369Y0150304D03*
D30*
X0082369Y0278650D03*
D31*
X0092369Y0278650D03*
X0102369Y0278650D03*
X0112369Y0278650D03*
X0122369Y0278650D03*
X0132369Y0278650D03*
D32*
X0152369Y0303650D03*
X0172369Y0303650D03*
X0192369Y0303650D03*
D33*
X0024369Y0316611D02*
X0024369Y0005650D01*
X0414070Y0005650D01*
X0414070Y0276272D01*
X0413744Y0275486D01*
X0413282Y0274686D01*
X0412720Y0273953D01*
X0412066Y0273299D01*
X0411333Y0272737D01*
X0410533Y0272275D01*
X0409679Y0271921D01*
X0408786Y0271682D01*
X0408208Y0271605D01*
X0408208Y0277811D01*
X0406608Y0277811D01*
X0406608Y0271605D01*
X0406030Y0271682D01*
X0405137Y0271921D01*
X0404283Y0272275D01*
X0403483Y0272737D01*
X0402750Y0273299D01*
X0402096Y0273953D01*
X0401533Y0274686D01*
X0401071Y0275486D01*
X0400718Y0276340D01*
X0400479Y0277233D01*
X0400402Y0277811D01*
X0406608Y0277811D01*
X0406608Y0279411D01*
X0406608Y0285617D01*
X0406030Y0285540D01*
X0405137Y0285301D01*
X0404283Y0284948D01*
X0403483Y0284485D01*
X0402750Y0283923D01*
X0402096Y0283269D01*
X0401533Y0282536D01*
X0401071Y0281736D01*
X0400718Y0280882D01*
X0400479Y0279989D01*
X0400402Y0279411D01*
X0406608Y0279411D01*
X0408208Y0279411D01*
X0408208Y0285617D01*
X0408786Y0285540D01*
X0409679Y0285301D01*
X0410533Y0284948D01*
X0411333Y0284485D01*
X0412066Y0283923D01*
X0412720Y0283269D01*
X0413282Y0282536D01*
X0413744Y0281736D01*
X0414070Y0280950D01*
X0414070Y0296350D01*
X0413744Y0295564D01*
X0413282Y0294764D01*
X0412720Y0294031D01*
X0412066Y0293377D01*
X0411333Y0292815D01*
X0410533Y0292352D01*
X0409679Y0291999D01*
X0408786Y0291760D01*
X0408208Y0291683D01*
X0408208Y0297889D01*
X0406608Y0297889D01*
X0406608Y0291683D01*
X0406030Y0291760D01*
X0405137Y0291999D01*
X0404283Y0292352D01*
X0403483Y0292815D01*
X0402750Y0293377D01*
X0402096Y0294031D01*
X0401533Y0294764D01*
X0401071Y0295564D01*
X0400718Y0296418D01*
X0400479Y0297311D01*
X0400402Y0297889D01*
X0406608Y0297889D01*
X0406608Y0299489D01*
X0406608Y0305694D01*
X0406030Y0305618D01*
X0405137Y0305379D01*
X0404283Y0305025D01*
X0403483Y0304563D01*
X0402750Y0304001D01*
X0402096Y0303347D01*
X0401533Y0302614D01*
X0401071Y0301814D01*
X0400718Y0300960D01*
X0400479Y0300067D01*
X0400402Y0299489D01*
X0406608Y0299489D01*
X0408208Y0299489D01*
X0408208Y0305694D01*
X0408786Y0305618D01*
X0409679Y0305379D01*
X0410533Y0305025D01*
X0411333Y0304563D01*
X0412066Y0304001D01*
X0412720Y0303347D01*
X0413282Y0302614D01*
X0413744Y0301814D01*
X0414070Y0301028D01*
X0414070Y0316611D01*
X0024369Y0316611D01*
X0024369Y0315360D02*
X0414070Y0315360D01*
X0414070Y0313761D02*
X0038309Y0313761D01*
X0037834Y0314236D02*
X0035463Y0315218D01*
X0032897Y0315218D01*
X0030526Y0314236D01*
X0028712Y0312422D01*
X0027730Y0310051D01*
X0027730Y0307485D01*
X0028712Y0305114D01*
X0030526Y0303300D01*
X0032897Y0302318D01*
X0035463Y0302318D01*
X0037834Y0303300D01*
X0039648Y0305114D01*
X0040630Y0307485D01*
X0040630Y0310051D01*
X0039648Y0312422D01*
X0037834Y0314236D01*
X0039755Y0312163D02*
X0150252Y0312163D01*
X0150643Y0312325D02*
X0147455Y0311004D01*
X0145015Y0308564D01*
X0143694Y0305376D01*
X0143694Y0301924D01*
X0145015Y0298736D01*
X0147455Y0296296D01*
X0149569Y0295420D01*
X0149569Y0262804D01*
X0149423Y0262743D01*
X0148432Y0261752D01*
X0147441Y0262743D01*
X0145529Y0263535D01*
X0143461Y0263535D01*
X0141549Y0262743D01*
X0140087Y0261281D01*
X0139295Y0259369D01*
X0139295Y0257301D01*
X0140087Y0255389D01*
X0141549Y0253927D01*
X0143461Y0253135D01*
X0145529Y0253135D01*
X0147441Y0253927D01*
X0148432Y0254918D01*
X0149423Y0253927D01*
X0151335Y0253135D01*
X0153403Y0253135D01*
X0155315Y0253927D01*
X0156447Y0255060D01*
X0156986Y0254521D01*
X0157622Y0254059D01*
X0158324Y0253701D01*
X0159072Y0253458D01*
X0159849Y0253335D01*
X0160243Y0253335D01*
X0160636Y0253335D01*
X0161414Y0253458D01*
X0162162Y0253701D01*
X0162864Y0254059D01*
X0163500Y0254521D01*
X0164057Y0255078D01*
X0164519Y0255714D01*
X0164877Y0256416D01*
X0165120Y0257164D01*
X0165243Y0257942D01*
X0165243Y0258335D01*
X0160243Y0258335D01*
X0160243Y0258335D01*
X0160243Y0253335D01*
X0160243Y0258335D01*
X0160243Y0258335D01*
X0165243Y0258335D01*
X0165243Y0258729D01*
X0165120Y0259506D01*
X0164877Y0260254D01*
X0164519Y0260956D01*
X0164057Y0261592D01*
X0163500Y0262149D01*
X0162864Y0262611D01*
X0162162Y0262969D01*
X0161414Y0263212D01*
X0160636Y0263335D01*
X0160243Y0263335D01*
X0160243Y0258335D01*
X0160243Y0258335D01*
X0160243Y0263335D01*
X0159849Y0263335D01*
X0159072Y0263212D01*
X0158324Y0262969D01*
X0157622Y0262611D01*
X0156986Y0262149D01*
X0156447Y0261611D01*
X0155315Y0262743D01*
X0155169Y0262804D01*
X0155169Y0295420D01*
X0157283Y0296296D01*
X0159723Y0298736D01*
X0161044Y0301924D01*
X0161044Y0305376D01*
X0159723Y0308564D01*
X0157283Y0311004D01*
X0154094Y0312325D01*
X0150643Y0312325D01*
X0154486Y0312163D02*
X0170252Y0312163D01*
X0170643Y0312325D02*
X0167455Y0311004D01*
X0165015Y0308564D01*
X0163694Y0305376D01*
X0163694Y0301924D01*
X0165015Y0298736D01*
X0167455Y0296296D01*
X0170643Y0294975D01*
X0174094Y0294975D01*
X0177283Y0296296D01*
X0179723Y0298736D01*
X0181044Y0301924D01*
X0181044Y0305376D01*
X0179723Y0308564D01*
X0177283Y0311004D01*
X0174094Y0312325D01*
X0170643Y0312325D01*
X0174486Y0312163D02*
X0190252Y0312163D01*
X0190643Y0312325D02*
X0187455Y0311004D01*
X0185015Y0308564D01*
X0183694Y0305376D01*
X0183694Y0301924D01*
X0185015Y0298736D01*
X0187455Y0296296D01*
X0190643Y0294975D01*
X0194094Y0294975D01*
X0196208Y0295851D01*
X0240883Y0251176D01*
X0241912Y0250750D01*
X0242203Y0250750D01*
X0244177Y0248776D01*
X0245206Y0248350D01*
X0249256Y0248350D01*
X0250001Y0247605D01*
X0251537Y0246969D01*
X0253201Y0246969D01*
X0254737Y0247605D01*
X0255914Y0248782D01*
X0256550Y0250318D01*
X0256550Y0251982D01*
X0255914Y0253518D01*
X0254737Y0254695D01*
X0253201Y0255331D01*
X0251537Y0255331D01*
X0250001Y0254695D01*
X0249256Y0253950D01*
X0246923Y0253950D01*
X0244949Y0255924D01*
X0243920Y0256350D01*
X0243629Y0256350D01*
X0204129Y0295850D01*
X0321209Y0295850D01*
X0360783Y0256276D01*
X0361812Y0255850D01*
X0396209Y0255850D01*
X0399569Y0252490D01*
X0399569Y0199449D01*
X0398727Y0199100D01*
X0396919Y0197292D01*
X0395940Y0194929D01*
X0395940Y0192371D01*
X0396919Y0190008D01*
X0398727Y0188200D01*
X0401090Y0187221D01*
X0403648Y0187221D01*
X0406011Y0188200D01*
X0407819Y0190008D01*
X0408798Y0192371D01*
X0408798Y0194929D01*
X0407819Y0197292D01*
X0406011Y0199100D01*
X0405169Y0199449D01*
X0405169Y0254207D01*
X0404743Y0255236D01*
X0399743Y0260236D01*
X0398955Y0261024D01*
X0397926Y0261450D01*
X0363529Y0261450D01*
X0324743Y0300236D01*
X0323955Y0301024D01*
X0322926Y0301450D01*
X0200847Y0301450D01*
X0201044Y0301924D01*
X0201044Y0305376D01*
X0199723Y0308564D01*
X0197283Y0311004D01*
X0194094Y0312325D01*
X0190643Y0312325D01*
X0194486Y0312163D02*
X0414070Y0312163D01*
X0414070Y0310564D02*
X0197723Y0310564D01*
X0199321Y0308966D02*
X0414070Y0308966D01*
X0414070Y0307367D02*
X0200219Y0307367D01*
X0200881Y0305769D02*
X0414070Y0305769D01*
X0414070Y0304170D02*
X0411846Y0304170D01*
X0413307Y0302572D02*
X0414070Y0302572D01*
X0408208Y0302572D02*
X0406608Y0302572D01*
X0406608Y0304170D02*
X0408208Y0304170D01*
X0408208Y0300973D02*
X0406608Y0300973D01*
X0406608Y0299375D02*
X0388130Y0299375D01*
X0388130Y0299489D02*
X0394335Y0299489D01*
X0394259Y0300067D01*
X0394020Y0300960D01*
X0393666Y0301814D01*
X0393204Y0302614D01*
X0392642Y0303347D01*
X0391988Y0304001D01*
X0391255Y0304563D01*
X0390455Y0305025D01*
X0389601Y0305379D01*
X0388708Y0305618D01*
X0388130Y0305694D01*
X0388130Y0299489D01*
X0386530Y0299489D01*
X0386530Y0305694D01*
X0385952Y0305618D01*
X0385059Y0305379D01*
X0384205Y0305025D01*
X0383405Y0304563D01*
X0382672Y0304001D01*
X0382018Y0303347D01*
X0381456Y0302614D01*
X0380993Y0301814D01*
X0380640Y0300960D01*
X0380401Y0300067D01*
X0380324Y0299489D01*
X0386530Y0299489D01*
X0386530Y0297889D01*
X0380324Y0297889D01*
X0380401Y0297311D01*
X0380640Y0296418D01*
X0380993Y0295564D01*
X0381456Y0294764D01*
X0382018Y0294031D01*
X0382672Y0293377D01*
X0383405Y0292815D01*
X0384205Y0292352D01*
X0385059Y0291999D01*
X0385952Y0291760D01*
X0386530Y0291683D01*
X0386530Y0297889D01*
X0388130Y0297889D01*
X0388130Y0299489D01*
X0388130Y0300973D02*
X0386530Y0300973D01*
X0386530Y0299375D02*
X0325604Y0299375D01*
X0324006Y0300973D02*
X0380645Y0300973D01*
X0381431Y0302572D02*
X0201044Y0302572D01*
X0201044Y0304170D02*
X0382892Y0304170D01*
X0386530Y0304170D02*
X0388130Y0304170D01*
X0388130Y0302572D02*
X0386530Y0302572D01*
X0386530Y0297776D02*
X0388130Y0297776D01*
X0388130Y0297889D02*
X0388130Y0291683D01*
X0388708Y0291760D01*
X0389601Y0291999D01*
X0390455Y0292352D01*
X0391255Y0292815D01*
X0391988Y0293377D01*
X0392642Y0294031D01*
X0393204Y0294764D01*
X0393666Y0295564D01*
X0394020Y0296418D01*
X0394259Y0297311D01*
X0394335Y0297889D01*
X0388130Y0297889D01*
X0388130Y0296178D02*
X0386530Y0296178D01*
X0386530Y0294579D02*
X0388130Y0294579D01*
X0388130Y0292981D02*
X0386530Y0292981D01*
X0383188Y0292981D02*
X0331998Y0292981D01*
X0330400Y0294579D02*
X0381597Y0294579D01*
X0380739Y0296178D02*
X0328801Y0296178D01*
X0327203Y0297776D02*
X0380339Y0297776D01*
X0391472Y0292981D02*
X0393568Y0292981D01*
X0394112Y0293525D02*
X0392494Y0291907D01*
X0391619Y0289794D01*
X0391619Y0287506D01*
X0392494Y0285393D01*
X0394112Y0283775D01*
X0396225Y0282900D01*
X0398513Y0282900D01*
X0400626Y0283775D01*
X0402244Y0285393D01*
X0403119Y0287506D01*
X0403119Y0289794D01*
X0402244Y0291907D01*
X0400626Y0293525D01*
X0398513Y0294400D01*
X0396225Y0294400D01*
X0394112Y0293525D01*
X0393063Y0294579D02*
X0401675Y0294579D01*
X0401170Y0292981D02*
X0403266Y0292981D01*
X0402461Y0291382D02*
X0414070Y0291382D01*
X0414070Y0289784D02*
X0403119Y0289784D01*
X0403119Y0288185D02*
X0414070Y0288185D01*
X0414070Y0286587D02*
X0402738Y0286587D01*
X0401839Y0284988D02*
X0404381Y0284988D01*
X0406608Y0284988D02*
X0408208Y0284988D01*
X0408208Y0283389D02*
X0406608Y0283389D01*
X0406608Y0281791D02*
X0408208Y0281791D01*
X0408208Y0280192D02*
X0406608Y0280192D01*
X0406608Y0278594D02*
X0388130Y0278594D01*
X0388130Y0277811D02*
X0388130Y0279411D01*
X0394335Y0279411D01*
X0394259Y0279989D01*
X0394020Y0280882D01*
X0393666Y0281736D01*
X0393204Y0282536D01*
X0392642Y0283269D01*
X0391988Y0283923D01*
X0391255Y0284485D01*
X0390455Y0284948D01*
X0389601Y0285301D01*
X0388708Y0285540D01*
X0388130Y0285617D01*
X0388130Y0279411D01*
X0386530Y0279411D01*
X0386530Y0277811D01*
X0388130Y0277811D01*
X0394335Y0277811D01*
X0394259Y0277233D01*
X0394020Y0276340D01*
X0393666Y0275486D01*
X0393204Y0274686D01*
X0392642Y0273953D01*
X0391988Y0273299D01*
X0391255Y0272737D01*
X0390455Y0272275D01*
X0389601Y0271921D01*
X0388708Y0271682D01*
X0388130Y0271605D01*
X0388130Y0277811D01*
X0388130Y0276995D02*
X0386530Y0276995D01*
X0386530Y0277811D02*
X0386530Y0271605D01*
X0385952Y0271682D01*
X0385059Y0271921D01*
X0384205Y0272275D01*
X0383405Y0272737D01*
X0382672Y0273299D01*
X0382018Y0273953D01*
X0381456Y0274686D01*
X0380993Y0275486D01*
X0380640Y0276340D01*
X0380401Y0277233D01*
X0380324Y0277811D01*
X0386530Y0277811D01*
X0386530Y0278594D02*
X0346385Y0278594D01*
X0347983Y0276995D02*
X0380464Y0276995D01*
X0381045Y0275397D02*
X0349582Y0275397D01*
X0351180Y0273798D02*
X0382172Y0273798D01*
X0384385Y0272200D02*
X0352779Y0272200D01*
X0354377Y0270601D02*
X0414070Y0270601D01*
X0414070Y0269003D02*
X0355976Y0269003D01*
X0357574Y0267404D02*
X0414070Y0267404D01*
X0414070Y0265806D02*
X0359173Y0265806D01*
X0360771Y0264207D02*
X0414070Y0264207D01*
X0414070Y0262609D02*
X0362370Y0262609D01*
X0362369Y0258650D02*
X0322369Y0298650D01*
X0197369Y0298650D01*
X0192369Y0303650D01*
X0242469Y0253550D01*
X0243363Y0253550D01*
X0245763Y0251150D01*
X0252369Y0251150D01*
X0255354Y0248222D02*
X0298563Y0248222D01*
X0298766Y0248425D02*
X0297594Y0247253D01*
X0297594Y0245190D01*
X0295823Y0245190D01*
X0295264Y0245748D01*
X0289710Y0245748D01*
X0288538Y0244577D01*
X0288538Y0240203D01*
X0289710Y0239032D01*
X0295264Y0239032D01*
X0295823Y0239590D01*
X0298051Y0239590D01*
X0298766Y0238875D01*
X0303634Y0238875D01*
X0302469Y0237710D01*
X0295823Y0237710D01*
X0295264Y0238268D01*
X0289710Y0238268D01*
X0288538Y0237097D01*
X0288538Y0232723D01*
X0289687Y0231574D01*
X0289687Y0209652D01*
X0287102Y0207067D01*
X0281541Y0207067D01*
X0280369Y0205896D01*
X0280369Y0204796D01*
X0276337Y0204796D01*
X0276337Y0204990D01*
X0275166Y0206162D01*
X0269572Y0206162D01*
X0268400Y0204990D01*
X0268400Y0199003D01*
X0268912Y0198491D01*
X0268723Y0198164D01*
X0268600Y0197706D01*
X0268600Y0195488D01*
X0272185Y0195488D01*
X0272185Y0195119D01*
X0272553Y0195119D01*
X0272553Y0191338D01*
X0274574Y0191338D01*
X0275032Y0191461D01*
X0275443Y0191698D01*
X0275778Y0192033D01*
X0276015Y0192443D01*
X0276137Y0192901D01*
X0276137Y0195119D01*
X0272553Y0195119D01*
X0272553Y0195488D01*
X0276137Y0195488D01*
X0276137Y0197706D01*
X0276015Y0198164D01*
X0275826Y0198491D01*
X0276337Y0199003D01*
X0276337Y0199196D01*
X0280687Y0199196D01*
X0281541Y0198343D01*
X0291859Y0198343D01*
X0293030Y0199514D01*
X0293030Y0205076D01*
X0294073Y0206119D01*
X0294073Y0206119D01*
X0294861Y0206906D01*
X0295287Y0207936D01*
X0295287Y0231574D01*
X0295823Y0232110D01*
X0304186Y0232110D01*
X0305215Y0232536D01*
X0311554Y0238875D01*
X0315972Y0238875D01*
X0317144Y0240047D01*
X0317144Y0244465D01*
X0317794Y0245115D01*
X0317794Y0243650D01*
X0322369Y0243650D01*
X0326944Y0243650D01*
X0326944Y0246662D01*
X0326821Y0247120D01*
X0326584Y0247530D01*
X0326249Y0247865D01*
X0325839Y0248102D01*
X0325381Y0248225D01*
X0322369Y0248225D01*
X0322369Y0243650D01*
X0322369Y0243650D01*
X0326944Y0243650D01*
X0326944Y0240638D01*
X0326821Y0240180D01*
X0326584Y0239770D01*
X0326249Y0239435D01*
X0325839Y0239198D01*
X0325381Y0239075D01*
X0322369Y0239075D01*
X0322369Y0243650D01*
X0322369Y0243650D01*
X0322369Y0243650D01*
X0322369Y0248225D01*
X0320904Y0248225D01*
X0322269Y0249590D01*
X0338915Y0249590D01*
X0339474Y0249032D01*
X0345028Y0249032D01*
X0346200Y0250203D01*
X0346200Y0254577D01*
X0345028Y0255748D01*
X0339474Y0255748D01*
X0338915Y0255190D01*
X0320552Y0255190D01*
X0319523Y0254764D01*
X0313184Y0248425D01*
X0308766Y0248425D01*
X0307594Y0247253D01*
X0307594Y0242835D01*
X0307144Y0242385D01*
X0307144Y0247253D01*
X0305972Y0248425D01*
X0298766Y0248425D01*
X0297594Y0246624D02*
X0246944Y0246624D01*
X0246944Y0246662D02*
X0246821Y0247120D01*
X0246584Y0247530D01*
X0246249Y0247865D01*
X0245839Y0248102D01*
X0245381Y0248225D01*
X0242369Y0248225D01*
X0242369Y0243650D01*
X0246944Y0243650D01*
X0246944Y0246662D01*
X0246944Y0245025D02*
X0279073Y0245025D01*
X0279236Y0245189D02*
X0278901Y0244854D01*
X0278664Y0244443D01*
X0278541Y0243985D01*
X0278541Y0242390D01*
X0278541Y0241450D01*
X0271812Y0241450D01*
X0270783Y0241024D01*
X0246209Y0216450D01*
X0157543Y0216450D01*
X0140902Y0218530D01*
X0139737Y0219695D01*
X0139241Y0219900D01*
X0139737Y0220105D01*
X0140117Y0220485D01*
X0156647Y0218418D01*
X0156812Y0218350D01*
X0157195Y0218350D01*
X0157574Y0218303D01*
X0157747Y0218350D01*
X0240426Y0218350D01*
X0241455Y0218776D01*
X0242148Y0219469D01*
X0243201Y0219469D01*
X0244737Y0220105D01*
X0245914Y0221282D01*
X0246550Y0222818D01*
X0246550Y0224482D01*
X0245983Y0225850D01*
X0247926Y0225850D01*
X0248955Y0226276D01*
X0253955Y0231276D01*
X0254743Y0232064D01*
X0255129Y0232997D01*
X0255914Y0233782D01*
X0256550Y0235318D01*
X0256550Y0236982D01*
X0255914Y0238518D01*
X0254737Y0239695D01*
X0253201Y0240331D01*
X0251537Y0240331D01*
X0250001Y0239695D01*
X0248824Y0238518D01*
X0248188Y0236982D01*
X0248188Y0235318D01*
X0248741Y0233982D01*
X0246209Y0231450D01*
X0210482Y0231450D01*
X0209737Y0232195D01*
X0208201Y0232831D01*
X0206537Y0232831D01*
X0205001Y0232195D01*
X0203824Y0231018D01*
X0203188Y0229482D01*
X0203188Y0227818D01*
X0203824Y0226282D01*
X0205001Y0225105D01*
X0206537Y0224469D01*
X0208201Y0224469D01*
X0209737Y0225105D01*
X0210482Y0225850D01*
X0238755Y0225850D01*
X0238188Y0224482D01*
X0238188Y0223950D01*
X0183483Y0223950D01*
X0184050Y0225318D01*
X0184050Y0226982D01*
X0183414Y0228518D01*
X0182633Y0229299D01*
X0182347Y0253888D01*
X0182441Y0253927D01*
X0183432Y0254918D01*
X0184423Y0253927D01*
X0186335Y0253135D01*
X0188403Y0253135D01*
X0190315Y0253927D01*
X0191447Y0255060D01*
X0191986Y0254521D01*
X0192622Y0254059D01*
X0193324Y0253701D01*
X0194072Y0253458D01*
X0194849Y0253335D01*
X0195243Y0253335D01*
X0195636Y0253335D01*
X0196414Y0253458D01*
X0197162Y0253701D01*
X0197864Y0254059D01*
X0198500Y0254521D01*
X0199057Y0255078D01*
X0199519Y0255714D01*
X0199877Y0256416D01*
X0200120Y0257164D01*
X0200243Y0257942D01*
X0200243Y0258335D01*
X0195243Y0258335D01*
X0195243Y0258335D01*
X0195243Y0253335D01*
X0195243Y0258335D01*
X0195243Y0258335D01*
X0200243Y0258335D01*
X0200243Y0258729D01*
X0200120Y0259506D01*
X0199877Y0260254D01*
X0199519Y0260956D01*
X0199057Y0261592D01*
X0198500Y0262149D01*
X0197864Y0262611D01*
X0197162Y0262969D01*
X0196414Y0263212D01*
X0195636Y0263335D01*
X0195243Y0263335D01*
X0195243Y0258335D01*
X0195243Y0258335D01*
X0195243Y0263335D01*
X0194849Y0263335D01*
X0194072Y0263212D01*
X0193324Y0262969D01*
X0192622Y0262611D01*
X0191986Y0262149D01*
X0191447Y0261611D01*
X0190315Y0262743D01*
X0188403Y0263535D01*
X0186335Y0263535D01*
X0184423Y0262743D01*
X0183432Y0261752D01*
X0182441Y0262743D01*
X0180529Y0263535D01*
X0178461Y0263535D01*
X0176549Y0262743D01*
X0175087Y0261281D01*
X0174295Y0259369D01*
X0174295Y0257301D01*
X0175087Y0255389D01*
X0176549Y0253927D01*
X0176747Y0253845D01*
X0177033Y0229227D01*
X0176324Y0228518D01*
X0175688Y0226982D01*
X0175688Y0225318D01*
X0176255Y0223950D01*
X0157543Y0223950D01*
X0140902Y0226030D01*
X0139737Y0227195D01*
X0138201Y0227831D01*
X0136537Y0227831D01*
X0135169Y0227264D01*
X0135169Y0229207D01*
X0134743Y0230236D01*
X0133955Y0231024D01*
X0132926Y0231450D01*
X0115169Y0231450D01*
X0115169Y0239207D01*
X0114743Y0240236D01*
X0113955Y0241024D01*
X0112926Y0241450D01*
X0057569Y0241450D01*
X0057569Y0242678D01*
X0056397Y0243850D01*
X0054923Y0243850D01*
X0057569Y0246496D01*
X0057569Y0250804D01*
X0054723Y0253650D01*
X0057569Y0256496D01*
X0057569Y0260804D01*
X0054523Y0263850D01*
X0050215Y0263850D01*
X0047228Y0260862D01*
X0044440Y0263650D01*
X0042569Y0263650D01*
X0042569Y0258850D01*
X0042169Y0258850D01*
X0042169Y0263650D01*
X0040298Y0263650D01*
X0037369Y0260721D01*
X0037369Y0258850D01*
X0042169Y0258850D01*
X0042169Y0258450D01*
X0037369Y0258450D01*
X0037369Y0256579D01*
X0040156Y0253791D01*
X0037169Y0250804D01*
X0037169Y0246496D01*
X0040015Y0243650D01*
X0037169Y0240804D01*
X0037169Y0236496D01*
X0040215Y0233450D01*
X0044523Y0233450D01*
X0047169Y0236096D01*
X0047169Y0234622D01*
X0048341Y0233450D01*
X0056397Y0233450D01*
X0057569Y0234622D01*
X0057569Y0235850D01*
X0109569Y0235850D01*
X0109569Y0228093D01*
X0109995Y0227064D01*
X0110783Y0226276D01*
X0111812Y0225850D01*
X0116255Y0225850D01*
X0115688Y0224482D01*
X0115688Y0222818D01*
X0116301Y0221339D01*
X0114907Y0221339D01*
X0114707Y0221139D01*
X0113668Y0221139D01*
X0112630Y0221139D01*
X0112430Y0221339D01*
X0107669Y0221339D01*
X0107669Y0229207D01*
X0107243Y0230236D01*
X0106455Y0231024D01*
X0105426Y0231450D01*
X0035169Y0231450D01*
X0035169Y0271398D01*
X0035201Y0271411D01*
X0036608Y0272818D01*
X0037369Y0274655D01*
X0038130Y0272818D01*
X0039537Y0271411D01*
X0041374Y0270650D01*
X0043364Y0270650D01*
X0045201Y0271411D01*
X0046608Y0272818D01*
X0047369Y0274655D01*
X0048130Y0272818D01*
X0049537Y0271411D01*
X0051374Y0270650D01*
X0053364Y0270650D01*
X0055201Y0271411D01*
X0056608Y0272818D01*
X0057369Y0274655D01*
X0057369Y0282645D01*
X0056608Y0284482D01*
X0055201Y0285889D01*
X0053364Y0286650D01*
X0051374Y0286650D01*
X0049537Y0285889D01*
X0048130Y0284482D01*
X0047369Y0282645D01*
X0047369Y0274655D01*
X0047369Y0282645D01*
X0046608Y0284482D01*
X0045201Y0285889D01*
X0043364Y0286650D01*
X0041374Y0286650D01*
X0039537Y0285889D01*
X0038130Y0284482D01*
X0037369Y0282645D01*
X0037369Y0274655D01*
X0037369Y0282645D01*
X0036608Y0284482D01*
X0035201Y0285889D01*
X0033364Y0286650D01*
X0031374Y0286650D01*
X0030169Y0286151D01*
X0030169Y0295850D01*
X0033755Y0295850D01*
X0033188Y0294482D01*
X0033188Y0292818D01*
X0033824Y0291282D01*
X0035001Y0290105D01*
X0036537Y0289469D01*
X0038201Y0289469D01*
X0039737Y0290105D01*
X0040482Y0290850D01*
X0089569Y0290850D01*
X0089569Y0283660D01*
X0089140Y0283482D01*
X0088069Y0282411D01*
X0088069Y0283178D01*
X0086897Y0284350D01*
X0077841Y0284350D01*
X0076669Y0283178D01*
X0076669Y0274122D01*
X0077841Y0272950D01*
X0086897Y0272950D01*
X0088069Y0274122D01*
X0088069Y0274889D01*
X0089140Y0273818D01*
X0091235Y0272950D01*
X0093503Y0272950D01*
X0095598Y0273818D01*
X0097201Y0275421D01*
X0097369Y0275826D01*
X0097537Y0275421D01*
X0099140Y0273818D01*
X0101235Y0272950D01*
X0103503Y0272950D01*
X0105598Y0273818D01*
X0107201Y0275421D01*
X0107369Y0275826D01*
X0107537Y0275421D01*
X0109140Y0273818D01*
X0111235Y0272950D01*
X0113503Y0272950D01*
X0115598Y0273818D01*
X0117201Y0275421D01*
X0117488Y0276114D01*
X0117665Y0275767D01*
X0118174Y0275067D01*
X0118786Y0274455D01*
X0119486Y0273946D01*
X0120258Y0273553D01*
X0121081Y0273285D01*
X0121936Y0273150D01*
X0122169Y0273150D01*
X0122169Y0278450D01*
X0122569Y0278450D01*
X0122569Y0273150D01*
X0122802Y0273150D01*
X0123657Y0273285D01*
X0124480Y0273553D01*
X0125252Y0273946D01*
X0125952Y0274455D01*
X0126564Y0275067D01*
X0127073Y0275767D01*
X0127250Y0276114D01*
X0127537Y0275421D01*
X0129140Y0273818D01*
X0131235Y0272950D01*
X0133503Y0272950D01*
X0135598Y0273818D01*
X0137201Y0275421D01*
X0138069Y0277516D01*
X0138069Y0279784D01*
X0137201Y0281879D01*
X0135598Y0283482D01*
X0133503Y0284350D01*
X0131235Y0284350D01*
X0129140Y0283482D01*
X0127537Y0281879D01*
X0127250Y0281186D01*
X0127073Y0281533D01*
X0126564Y0282233D01*
X0125952Y0282845D01*
X0125252Y0283354D01*
X0124480Y0283747D01*
X0123657Y0284015D01*
X0122802Y0284150D01*
X0122569Y0284150D01*
X0122569Y0278850D01*
X0122169Y0278850D01*
X0122169Y0284150D01*
X0121936Y0284150D01*
X0121081Y0284015D01*
X0120258Y0283747D01*
X0119486Y0283354D01*
X0118786Y0282845D01*
X0118174Y0282233D01*
X0117665Y0281533D01*
X0117488Y0281186D01*
X0117201Y0281879D01*
X0115598Y0283482D01*
X0113503Y0284350D01*
X0111235Y0284350D01*
X0109140Y0283482D01*
X0107537Y0281879D01*
X0107369Y0281474D01*
X0107201Y0281879D01*
X0105598Y0283482D01*
X0105169Y0283660D01*
X0105169Y0299207D01*
X0104743Y0300236D01*
X0103955Y0301024D01*
X0102926Y0301450D01*
X0026812Y0301450D01*
X0025783Y0301024D01*
X0024995Y0300236D01*
X0024569Y0299207D01*
X0024569Y0218093D01*
X0024995Y0217064D01*
X0025783Y0216276D01*
X0026812Y0215850D01*
X0074319Y0215850D01*
X0079680Y0210489D01*
X0079680Y0205435D01*
X0079038Y0205700D01*
X0044440Y0205700D01*
X0043411Y0205274D01*
X0042623Y0204486D01*
X0042005Y0203868D01*
X0041217Y0203081D01*
X0040791Y0202051D01*
X0040791Y0199191D01*
X0038648Y0200079D01*
X0036090Y0200079D01*
X0033727Y0199100D01*
X0031919Y0197292D01*
X0030940Y0194929D01*
X0030940Y0192371D01*
X0031919Y0190008D01*
X0033727Y0188200D01*
X0036090Y0187221D01*
X0038648Y0187221D01*
X0041011Y0188200D01*
X0041279Y0188468D01*
X0041675Y0188072D01*
X0041675Y0183678D01*
X0040900Y0182904D01*
X0040900Y0176522D01*
X0041675Y0175748D01*
X0041675Y0144530D01*
X0042102Y0143501D01*
X0042889Y0142713D01*
X0042889Y0142713D01*
X0072790Y0112812D01*
X0072014Y0112812D01*
X0071556Y0112690D01*
X0071146Y0112453D01*
X0070810Y0112117D01*
X0070574Y0111707D01*
X0070451Y0111249D01*
X0070451Y0108650D01*
X0070451Y0106051D01*
X0070574Y0105593D01*
X0070810Y0105183D01*
X0071146Y0104847D01*
X0071556Y0104610D01*
X0072014Y0104488D01*
X0073826Y0104488D01*
X0075637Y0104488D01*
X0076095Y0104610D01*
X0076506Y0104847D01*
X0076841Y0105183D01*
X0077078Y0105593D01*
X0077200Y0106051D01*
X0077200Y0108402D01*
X0077337Y0108265D01*
X0077337Y0105459D01*
X0078098Y0104698D01*
X0078094Y0103288D01*
X0078076Y0103288D01*
X0077564Y0102776D01*
X0077237Y0102965D01*
X0076779Y0103088D01*
X0074758Y0103088D01*
X0074758Y0097535D01*
X0074389Y0097535D01*
X0074389Y0097167D01*
X0070805Y0097167D01*
X0070805Y0093177D01*
X0070928Y0092719D01*
X0071165Y0092309D01*
X0071500Y0091973D01*
X0071910Y0091736D01*
X0072368Y0091614D01*
X0074389Y0091614D01*
X0074389Y0097166D01*
X0074758Y0097166D01*
X0074758Y0091614D01*
X0076779Y0091614D01*
X0077237Y0091736D01*
X0077564Y0091925D01*
X0078076Y0091414D01*
X0081127Y0091414D01*
X0081230Y0091165D01*
X0106509Y0065886D01*
X0103273Y0065886D01*
X0102920Y0065534D01*
X0102567Y0065886D01*
X0096974Y0065886D01*
X0096621Y0065534D01*
X0096268Y0065886D01*
X0090674Y0065886D01*
X0090322Y0065534D01*
X0089969Y0065886D01*
X0084375Y0065886D01*
X0083864Y0065375D01*
X0083536Y0065564D01*
X0083078Y0065686D01*
X0081057Y0065686D01*
X0081057Y0060134D01*
X0080689Y0060134D01*
X0080689Y0065686D01*
X0078667Y0065686D01*
X0078210Y0065564D01*
X0077799Y0065327D01*
X0077723Y0065251D01*
X0077647Y0065327D01*
X0077237Y0065564D01*
X0076779Y0065686D01*
X0074758Y0065686D01*
X0074758Y0060134D01*
X0074389Y0060134D01*
X0074389Y0065686D01*
X0072368Y0065686D01*
X0071910Y0065564D01*
X0071500Y0065327D01*
X0071165Y0064991D01*
X0070928Y0064581D01*
X0070805Y0064123D01*
X0070805Y0060133D01*
X0074389Y0060133D01*
X0074389Y0059765D01*
X0070805Y0059765D01*
X0070805Y0055775D01*
X0070928Y0055317D01*
X0071165Y0054907D01*
X0071500Y0054572D01*
X0071910Y0054335D01*
X0072368Y0054212D01*
X0074389Y0054212D01*
X0074389Y0059765D01*
X0074758Y0059765D01*
X0074758Y0060133D01*
X0080689Y0060133D01*
X0080689Y0059765D01*
X0081057Y0059765D01*
X0081057Y0054212D01*
X0083078Y0054212D01*
X0083536Y0054335D01*
X0083864Y0054524D01*
X0084375Y0054012D01*
X0089969Y0054012D01*
X0090322Y0054365D01*
X0090674Y0054012D01*
X0096268Y0054012D01*
X0096621Y0054365D01*
X0096974Y0054012D01*
X0102567Y0054012D01*
X0102920Y0054365D01*
X0103273Y0054012D01*
X0108867Y0054012D01*
X0109378Y0054524D01*
X0109706Y0054335D01*
X0110163Y0054212D01*
X0112185Y0054212D01*
X0112185Y0059765D01*
X0112553Y0059765D01*
X0112553Y0054212D01*
X0114574Y0054212D01*
X0115032Y0054335D01*
X0115360Y0054524D01*
X0115871Y0054012D01*
X0116026Y0054012D01*
X0116026Y0052615D01*
X0115251Y0051841D01*
X0115251Y0045459D01*
X0116422Y0044288D01*
X0121229Y0044288D01*
X0122400Y0045459D01*
X0122400Y0051841D01*
X0121626Y0052615D01*
X0121626Y0054173D01*
X0121977Y0054524D01*
X0122304Y0054335D01*
X0122762Y0054212D01*
X0124783Y0054212D01*
X0124783Y0059765D01*
X0125152Y0059765D01*
X0125152Y0054212D01*
X0127173Y0054212D01*
X0127631Y0054335D01*
X0127958Y0054524D01*
X0128470Y0054012D01*
X0134064Y0054012D01*
X0134575Y0054524D01*
X0134903Y0054335D01*
X0135360Y0054212D01*
X0137382Y0054212D01*
X0137382Y0059765D01*
X0137750Y0059765D01*
X0137750Y0054212D01*
X0139771Y0054212D01*
X0140229Y0054335D01*
X0140556Y0054524D01*
X0141068Y0054012D01*
X0146662Y0054012D01*
X0147015Y0054365D01*
X0147367Y0054012D01*
X0152961Y0054012D01*
X0153473Y0054524D01*
X0153800Y0054335D01*
X0154258Y0054212D01*
X0156279Y0054212D01*
X0156279Y0059765D01*
X0156648Y0059765D01*
X0156648Y0060133D01*
X0160232Y0060133D01*
X0160232Y0064123D01*
X0160109Y0064581D01*
X0159872Y0064991D01*
X0159537Y0065327D01*
X0159127Y0065564D01*
X0158669Y0065686D01*
X0156648Y0065686D01*
X0156648Y0060134D01*
X0156279Y0060134D01*
X0156279Y0065686D01*
X0154258Y0065686D01*
X0153800Y0065564D01*
X0153473Y0065375D01*
X0152961Y0065886D01*
X0147367Y0065886D01*
X0147015Y0065534D01*
X0146662Y0065886D01*
X0141068Y0065886D01*
X0140556Y0065375D01*
X0140229Y0065564D01*
X0139771Y0065686D01*
X0137750Y0065686D01*
X0137750Y0060134D01*
X0137382Y0060134D01*
X0137382Y0065686D01*
X0135360Y0065686D01*
X0134903Y0065564D01*
X0134575Y0065375D01*
X0134064Y0065886D01*
X0128470Y0065886D01*
X0127958Y0065375D01*
X0127631Y0065564D01*
X0127173Y0065686D01*
X0125152Y0065686D01*
X0125152Y0060134D01*
X0124783Y0060134D01*
X0124783Y0065686D01*
X0122762Y0065686D01*
X0122304Y0065564D01*
X0121977Y0065375D01*
X0121465Y0065886D01*
X0118414Y0065886D01*
X0118311Y0066135D01*
X0117524Y0066923D01*
X0117524Y0066923D01*
X0117374Y0067072D01*
X0117374Y0067072D01*
X0116586Y0067860D01*
X0115557Y0068286D01*
X0112028Y0068286D01*
X0088901Y0091414D01*
X0089969Y0091414D01*
X0090322Y0091766D01*
X0090674Y0091414D01*
X0096268Y0091414D01*
X0096621Y0091766D01*
X0096974Y0091414D01*
X0102567Y0091414D01*
X0102920Y0091766D01*
X0103273Y0091414D01*
X0108867Y0091414D01*
X0109219Y0091766D01*
X0109572Y0091414D01*
X0115166Y0091414D01*
X0115519Y0091766D01*
X0115871Y0091414D01*
X0121465Y0091414D01*
X0121977Y0091925D01*
X0122304Y0091736D01*
X0122762Y0091614D01*
X0124783Y0091614D01*
X0124783Y0097166D01*
X0125152Y0097166D01*
X0125152Y0091614D01*
X0127173Y0091614D01*
X0127631Y0091736D01*
X0127958Y0091925D01*
X0128470Y0091414D01*
X0134064Y0091414D01*
X0134575Y0091925D01*
X0134903Y0091736D01*
X0135360Y0091614D01*
X0137382Y0091614D01*
X0137382Y0097166D01*
X0137750Y0097166D01*
X0137750Y0091614D01*
X0139771Y0091614D01*
X0140229Y0091736D01*
X0140556Y0091925D01*
X0141068Y0091414D01*
X0146662Y0091414D01*
X0147015Y0091766D01*
X0147367Y0091414D01*
X0152961Y0091414D01*
X0153473Y0091925D01*
X0153800Y0091736D01*
X0154258Y0091614D01*
X0156279Y0091614D01*
X0156279Y0097166D01*
X0156648Y0097166D01*
X0156648Y0091614D01*
X0158669Y0091614D01*
X0159127Y0091736D01*
X0159537Y0091973D01*
X0159872Y0092309D01*
X0160109Y0092719D01*
X0160232Y0093177D01*
X0160232Y0097167D01*
X0156648Y0097167D01*
X0156648Y0097535D01*
X0160232Y0097535D01*
X0160232Y0101525D01*
X0160109Y0101983D01*
X0159872Y0102393D01*
X0159537Y0102728D01*
X0159127Y0102965D01*
X0158669Y0103088D01*
X0156648Y0103088D01*
X0156648Y0097535D01*
X0156279Y0097535D01*
X0156279Y0103088D01*
X0154258Y0103088D01*
X0153800Y0102965D01*
X0153473Y0102776D01*
X0152961Y0103288D01*
X0147367Y0103288D01*
X0147015Y0102935D01*
X0146662Y0103288D01*
X0141717Y0103288D01*
X0141787Y0103551D01*
X0141787Y0106150D01*
X0141787Y0108749D01*
X0141664Y0109207D01*
X0141427Y0109617D01*
X0141092Y0109953D01*
X0140682Y0110190D01*
X0140224Y0110312D01*
X0138412Y0110312D01*
X0136600Y0110312D01*
X0136143Y0110190D01*
X0135732Y0109953D01*
X0135397Y0109617D01*
X0135160Y0109207D01*
X0135037Y0108749D01*
X0135037Y0106150D01*
X0138412Y0106150D01*
X0138412Y0106150D01*
X0135037Y0106150D01*
X0135037Y0103551D01*
X0135160Y0103093D01*
X0135190Y0103042D01*
X0134903Y0102965D01*
X0134900Y0102964D01*
X0134900Y0109341D01*
X0134604Y0109637D01*
X0134897Y0111881D01*
X0135353Y0112337D01*
X0135353Y0115963D01*
X0135166Y0116150D01*
X0135353Y0116337D01*
X0135353Y0117704D01*
X0135405Y0117829D01*
X0135405Y0134128D01*
X0134979Y0135157D01*
X0134191Y0135945D01*
X0133162Y0136371D01*
X0112363Y0136371D01*
X0111334Y0135945D01*
X0110546Y0135157D01*
X0096012Y0120623D01*
X0082584Y0120623D01*
X0080287Y0122920D01*
X0080287Y0175384D01*
X0080852Y0174819D01*
X0081939Y0174819D01*
X0082069Y0126145D01*
X0082069Y0125593D01*
X0082070Y0125589D01*
X0082070Y0125586D01*
X0082284Y0125074D01*
X0082495Y0124564D01*
X0082498Y0124561D01*
X0082499Y0124558D01*
X0082892Y0124167D01*
X0083283Y0123776D01*
X0083286Y0123775D01*
X0083289Y0123772D01*
X0083800Y0123562D01*
X0084312Y0123350D01*
X0084316Y0123350D01*
X0084319Y0123349D01*
X0084874Y0123350D01*
X0091756Y0123350D01*
X0092501Y0122605D01*
X0094037Y0121969D01*
X0095701Y0121969D01*
X0097237Y0122605D01*
X0098414Y0123782D01*
X0099050Y0125318D01*
X0099050Y0126982D01*
X0098414Y0128518D01*
X0097237Y0129695D01*
X0095847Y0130270D01*
X0096780Y0131203D01*
X0097416Y0132740D01*
X0097416Y0134403D01*
X0096780Y0135940D01*
X0096035Y0136684D01*
X0096035Y0155640D01*
X0096396Y0156001D01*
X0097184Y0156788D01*
X0097292Y0157050D01*
X0102672Y0151670D01*
X0103460Y0150883D01*
X0104489Y0150456D01*
X0231854Y0150456D01*
X0232599Y0149712D01*
X0234136Y0149075D01*
X0235799Y0149075D01*
X0237336Y0149712D01*
X0238080Y0150456D01*
X0269186Y0150456D01*
X0269262Y0150488D01*
X0272185Y0150488D01*
X0272185Y0150119D01*
X0272553Y0150119D01*
X0272553Y0146338D01*
X0274574Y0146338D01*
X0275032Y0146461D01*
X0275443Y0146698D01*
X0275778Y0147033D01*
X0276015Y0147443D01*
X0276137Y0147901D01*
X0276137Y0150119D01*
X0272553Y0150119D01*
X0272553Y0150488D01*
X0276137Y0150488D01*
X0276137Y0152706D01*
X0276015Y0153164D01*
X0275826Y0153491D01*
X0276337Y0154003D01*
X0276337Y0154196D01*
X0285603Y0154196D01*
X0285824Y0154288D01*
X0291859Y0154288D01*
X0293030Y0155459D01*
X0293030Y0161841D01*
X0291859Y0163012D01*
X0281541Y0163012D01*
X0280369Y0161841D01*
X0280369Y0159796D01*
X0276337Y0159796D01*
X0276337Y0159990D01*
X0275166Y0161162D01*
X0269572Y0161162D01*
X0268400Y0159990D01*
X0268400Y0156988D01*
X0267469Y0156056D01*
X0238080Y0156056D01*
X0237336Y0156801D01*
X0235799Y0157437D01*
X0234136Y0157437D01*
X0232599Y0156801D01*
X0231854Y0156056D01*
X0222484Y0156056D01*
X0222582Y0156097D01*
X0224252Y0157767D01*
X0225156Y0159949D01*
X0225156Y0162311D01*
X0224252Y0164493D01*
X0222582Y0166163D01*
X0220400Y0167067D01*
X0218038Y0167067D01*
X0215856Y0166163D01*
X0214186Y0164493D01*
X0213282Y0162311D01*
X0213282Y0159949D01*
X0214186Y0157767D01*
X0215856Y0156097D01*
X0215955Y0156056D01*
X0106206Y0156056D01*
X0100720Y0161542D01*
X0100720Y0166161D01*
X0101070Y0166161D01*
X0102108Y0166161D01*
X0102308Y0165961D01*
X0125028Y0165961D01*
X0126200Y0167133D01*
X0126200Y0174819D01*
X0133886Y0174819D01*
X0135058Y0175991D01*
X0135058Y0178274D01*
X0152376Y0178350D01*
X0159256Y0178350D01*
X0160001Y0177605D01*
X0161537Y0176969D01*
X0163201Y0176969D01*
X0164737Y0177605D01*
X0165914Y0178782D01*
X0166550Y0180318D01*
X0166550Y0181982D01*
X0165914Y0183518D01*
X0164737Y0184695D01*
X0163201Y0185331D01*
X0161537Y0185331D01*
X0160001Y0184695D01*
X0159256Y0183950D01*
X0154178Y0183950D01*
X0154435Y0184256D01*
X0154743Y0184564D01*
X0154791Y0184680D01*
X0154871Y0184776D01*
X0155002Y0185191D01*
X0155129Y0185497D01*
X0155914Y0186282D01*
X0156550Y0187818D01*
X0156550Y0189482D01*
X0156411Y0189818D01*
X0174734Y0192872D01*
X0175001Y0192605D01*
X0176537Y0191969D01*
X0178201Y0191969D01*
X0179737Y0192605D01*
X0180914Y0193782D01*
X0180940Y0193845D01*
X0180940Y0192371D01*
X0181919Y0190008D01*
X0183727Y0188200D01*
X0186090Y0187221D01*
X0188648Y0187221D01*
X0191011Y0188200D01*
X0192819Y0190008D01*
X0193798Y0192371D01*
X0193798Y0194929D01*
X0192819Y0197292D01*
X0191011Y0199100D01*
X0188648Y0200079D01*
X0186090Y0200079D01*
X0183727Y0199100D01*
X0181919Y0197292D01*
X0181550Y0196402D01*
X0181550Y0196982D01*
X0180914Y0198518D01*
X0179737Y0199695D01*
X0178201Y0200331D01*
X0176537Y0200331D01*
X0175001Y0199695D01*
X0173824Y0198518D01*
X0173771Y0198389D01*
X0154587Y0195192D01*
X0154492Y0195231D01*
X0150246Y0195231D01*
X0149217Y0194805D01*
X0148607Y0194195D01*
X0135058Y0191937D01*
X0135058Y0195561D01*
X0134858Y0195761D01*
X0134858Y0196800D01*
X0134858Y0197838D01*
X0135058Y0198038D01*
X0135058Y0203350D01*
X0139256Y0203350D01*
X0140001Y0202605D01*
X0141537Y0201969D01*
X0143201Y0201969D01*
X0144737Y0202605D01*
X0145914Y0203782D01*
X0146550Y0205318D01*
X0146550Y0206982D01*
X0145914Y0208518D01*
X0144737Y0209695D01*
X0143201Y0210331D01*
X0141537Y0210331D01*
X0140001Y0209695D01*
X0139256Y0208950D01*
X0135058Y0208950D01*
X0135058Y0210195D01*
X0135088Y0210398D01*
X0135169Y0210593D01*
X0135169Y0210943D01*
X0135220Y0211290D01*
X0135169Y0211495D01*
X0135169Y0212536D01*
X0136537Y0211969D01*
X0138201Y0211969D01*
X0139737Y0212605D01*
X0140117Y0212985D01*
X0156647Y0210918D01*
X0156812Y0210850D01*
X0157195Y0210850D01*
X0157574Y0210803D01*
X0157747Y0210850D01*
X0247926Y0210850D01*
X0248955Y0211276D01*
X0273529Y0235850D01*
X0278541Y0235850D01*
X0278541Y0234910D01*
X0282290Y0234910D01*
X0282290Y0234910D01*
X0278541Y0234910D01*
X0278541Y0233315D01*
X0278664Y0232857D01*
X0278901Y0232446D01*
X0279236Y0232111D01*
X0279647Y0231874D01*
X0280104Y0231752D01*
X0282290Y0231752D01*
X0282290Y0234910D01*
X0283072Y0235692D01*
X0282290Y0234910D02*
X0286039Y0234910D01*
X0286039Y0236263D01*
X0286239Y0236463D01*
X0286239Y0240837D01*
X0286039Y0241037D01*
X0286039Y0242390D01*
X0282290Y0242390D01*
X0278541Y0242390D01*
X0282290Y0242390D01*
X0282290Y0242390D01*
X0282290Y0245548D01*
X0280104Y0245548D01*
X0279647Y0245426D01*
X0279236Y0245189D01*
X0278541Y0243427D02*
X0246944Y0243427D01*
X0246944Y0243650D02*
X0242369Y0243650D01*
X0242369Y0243650D01*
X0242369Y0243650D01*
X0242369Y0239075D01*
X0245381Y0239075D01*
X0245839Y0239198D01*
X0246249Y0239435D01*
X0246584Y0239770D01*
X0246821Y0240180D01*
X0246944Y0240638D01*
X0246944Y0243650D01*
X0246944Y0241828D02*
X0278541Y0241828D01*
X0282290Y0242390D02*
X0282290Y0242390D01*
X0282290Y0242390D01*
X0282290Y0245548D01*
X0284476Y0245548D01*
X0284934Y0245426D01*
X0285344Y0245189D01*
X0285679Y0244854D01*
X0285916Y0244443D01*
X0286039Y0243985D01*
X0286039Y0242390D01*
X0282290Y0242390D01*
X0282290Y0243427D02*
X0282290Y0243427D01*
X0282290Y0245025D02*
X0282290Y0245025D01*
X0285508Y0245025D02*
X0288987Y0245025D01*
X0288538Y0243427D02*
X0286039Y0243427D01*
X0286039Y0241828D02*
X0288538Y0241828D01*
X0288538Y0240230D02*
X0286239Y0240230D01*
X0286239Y0238631D02*
X0303390Y0238631D01*
X0301109Y0242390D02*
X0302369Y0243650D01*
X0301109Y0242390D02*
X0292487Y0242390D01*
X0288538Y0237033D02*
X0286239Y0237033D01*
X0286039Y0235434D02*
X0288538Y0235434D01*
X0288538Y0233836D02*
X0286039Y0233836D01*
X0286039Y0233315D02*
X0286039Y0234910D01*
X0282290Y0234910D01*
X0282290Y0234910D01*
X0282290Y0234910D01*
X0282290Y0231752D01*
X0284476Y0231752D01*
X0284934Y0231874D01*
X0285344Y0232111D01*
X0285679Y0232446D01*
X0285916Y0232857D01*
X0286039Y0233315D01*
X0285470Y0232237D02*
X0289024Y0232237D01*
X0289687Y0230639D02*
X0268317Y0230639D01*
X0269916Y0232237D02*
X0279110Y0232237D01*
X0278541Y0233836D02*
X0271514Y0233836D01*
X0273113Y0235434D02*
X0278541Y0235434D01*
X0282290Y0233836D02*
X0282290Y0233836D01*
X0282290Y0232237D02*
X0282290Y0232237D01*
X0289687Y0229040D02*
X0266719Y0229040D01*
X0265120Y0227442D02*
X0289687Y0227442D01*
X0289687Y0225843D02*
X0263522Y0225843D01*
X0261923Y0224245D02*
X0289687Y0224245D01*
X0289687Y0222646D02*
X0260325Y0222646D01*
X0258726Y0221048D02*
X0289687Y0221048D01*
X0289687Y0219449D02*
X0257128Y0219449D01*
X0255529Y0217851D02*
X0289687Y0217851D01*
X0289687Y0216252D02*
X0253931Y0216252D01*
X0252332Y0214653D02*
X0289687Y0214653D01*
X0289687Y0213055D02*
X0250734Y0213055D01*
X0249135Y0211456D02*
X0289687Y0211456D01*
X0289687Y0209858D02*
X0144343Y0209858D01*
X0146021Y0208259D02*
X0288294Y0208259D01*
X0292487Y0208493D02*
X0286700Y0202705D01*
X0285991Y0201996D01*
X0272369Y0201996D01*
X0268400Y0201865D02*
X0135058Y0201865D01*
X0135058Y0200267D02*
X0176382Y0200267D01*
X0178356Y0200267D02*
X0268400Y0200267D01*
X0268735Y0198668D02*
X0256443Y0198668D01*
X0256011Y0199100D02*
X0257819Y0197292D01*
X0258798Y0194929D01*
X0258798Y0192371D01*
X0257819Y0190008D01*
X0256011Y0188200D01*
X0253648Y0187221D01*
X0251090Y0187221D01*
X0248727Y0188200D01*
X0246919Y0190008D01*
X0245940Y0192371D01*
X0245940Y0194929D01*
X0246919Y0197292D01*
X0248727Y0199100D01*
X0251090Y0200079D01*
X0253648Y0200079D01*
X0256011Y0199100D01*
X0257911Y0197070D02*
X0268600Y0197070D01*
X0268600Y0195119D02*
X0268600Y0192901D01*
X0268723Y0192443D01*
X0268960Y0192033D01*
X0269295Y0191698D01*
X0269706Y0191461D01*
X0270163Y0191338D01*
X0272185Y0191338D01*
X0272185Y0195119D01*
X0268600Y0195119D01*
X0268600Y0193873D02*
X0258798Y0193873D01*
X0258758Y0192274D02*
X0268821Y0192274D01*
X0269706Y0190839D02*
X0269295Y0190602D01*
X0268960Y0190267D01*
X0268723Y0189857D01*
X0268600Y0189399D01*
X0268600Y0187181D01*
X0272185Y0187181D01*
X0272185Y0190962D01*
X0270163Y0190962D01*
X0269706Y0190839D01*
X0269423Y0190676D02*
X0258096Y0190676D01*
X0256888Y0189077D02*
X0268600Y0189077D01*
X0268600Y0187479D02*
X0264051Y0187479D01*
X0264737Y0187195D02*
X0263201Y0187831D01*
X0261537Y0187831D01*
X0260001Y0187195D01*
X0258824Y0186018D01*
X0258188Y0184482D01*
X0258188Y0182818D01*
X0258824Y0181282D01*
X0260001Y0180105D01*
X0261537Y0179469D01*
X0262590Y0179469D01*
X0264129Y0177930D01*
X0265158Y0177504D01*
X0268400Y0177504D01*
X0268400Y0177310D01*
X0269560Y0176150D01*
X0268400Y0174990D01*
X0268400Y0169003D01*
X0268912Y0168491D01*
X0268723Y0168164D01*
X0268600Y0167706D01*
X0268600Y0165488D01*
X0272185Y0165488D01*
X0272185Y0165119D01*
X0272553Y0165119D01*
X0272553Y0161338D01*
X0274574Y0161338D01*
X0275032Y0161461D01*
X0275443Y0161698D01*
X0275778Y0162033D01*
X0276015Y0162443D01*
X0276137Y0162901D01*
X0276137Y0164905D01*
X0280369Y0164905D01*
X0280369Y0164514D01*
X0281541Y0163343D01*
X0291859Y0163343D01*
X0293030Y0164514D01*
X0293030Y0170896D01*
X0291859Y0172067D01*
X0281541Y0172067D01*
X0280369Y0170896D01*
X0280369Y0170505D01*
X0277820Y0170505D01*
X0276337Y0171988D01*
X0276337Y0174990D01*
X0275178Y0176150D01*
X0276337Y0177310D01*
X0276337Y0177504D01*
X0282965Y0177504D01*
X0283994Y0177930D01*
X0286297Y0180233D01*
X0291859Y0180233D01*
X0293030Y0181404D01*
X0293030Y0187786D01*
X0291859Y0188957D01*
X0281541Y0188957D01*
X0280369Y0187786D01*
X0280369Y0183104D01*
X0276337Y0183104D01*
X0276337Y0183297D01*
X0275826Y0183809D01*
X0276015Y0184136D01*
X0276137Y0184594D01*
X0276137Y0186812D01*
X0272553Y0186812D01*
X0272553Y0187181D01*
X0272185Y0187181D01*
X0272185Y0186812D01*
X0268600Y0186812D01*
X0268600Y0184594D01*
X0268723Y0184136D01*
X0268912Y0183809D01*
X0268400Y0183297D01*
X0268400Y0183104D01*
X0266875Y0183104D01*
X0266550Y0183429D01*
X0266550Y0184482D01*
X0265914Y0186018D01*
X0264737Y0187195D01*
X0265971Y0185880D02*
X0268600Y0185880D01*
X0268684Y0184282D02*
X0266550Y0184282D01*
X0265715Y0180304D02*
X0262369Y0183650D01*
X0260687Y0187479D02*
X0254270Y0187479D01*
X0250467Y0187479D02*
X0189270Y0187479D01*
X0191888Y0189077D02*
X0247849Y0189077D01*
X0246642Y0190676D02*
X0193096Y0190676D01*
X0193758Y0192274D02*
X0245980Y0192274D01*
X0245940Y0193873D02*
X0193798Y0193873D01*
X0193573Y0195471D02*
X0246165Y0195471D01*
X0246827Y0197070D02*
X0192911Y0197070D01*
X0191443Y0198668D02*
X0248295Y0198668D01*
X0258573Y0195471D02*
X0272185Y0195471D01*
X0272369Y0195304D02*
X0271523Y0196150D01*
X0272553Y0195471D02*
X0280569Y0195471D01*
X0280569Y0196249D02*
X0280569Y0194031D01*
X0286318Y0194031D01*
X0286318Y0193269D01*
X0280569Y0193269D01*
X0280569Y0191051D01*
X0280692Y0190593D01*
X0280929Y0190183D01*
X0281264Y0189847D01*
X0281674Y0189610D01*
X0282132Y0189488D01*
X0286319Y0189488D01*
X0286319Y0193269D01*
X0287081Y0193269D01*
X0287081Y0194031D01*
X0292830Y0194031D01*
X0292830Y0196249D01*
X0292708Y0196707D01*
X0292471Y0197117D01*
X0292136Y0197453D01*
X0291725Y0197690D01*
X0291267Y0197812D01*
X0287081Y0197812D01*
X0287081Y0194031D01*
X0286319Y0194031D01*
X0286319Y0197812D01*
X0282132Y0197812D01*
X0281674Y0197690D01*
X0281264Y0197453D01*
X0280929Y0197117D01*
X0280692Y0196707D01*
X0280569Y0196249D01*
X0280901Y0197070D02*
X0276137Y0197070D01*
X0276003Y0198668D02*
X0281215Y0198668D01*
X0276137Y0193873D02*
X0286318Y0193873D01*
X0287081Y0193873D02*
X0310309Y0193873D01*
X0310309Y0194450D02*
X0310309Y0192850D01*
X0304978Y0192850D01*
X0304978Y0186523D01*
X0305101Y0186065D01*
X0305338Y0185655D01*
X0305673Y0185320D01*
X0306084Y0185083D01*
X0306541Y0184960D01*
X0310309Y0184960D01*
X0310309Y0192850D01*
X0311909Y0192850D01*
X0311909Y0184960D01*
X0315677Y0184960D01*
X0316135Y0185083D01*
X0316545Y0185320D01*
X0316880Y0185655D01*
X0317117Y0186065D01*
X0317240Y0186523D01*
X0317240Y0192850D01*
X0311909Y0192850D01*
X0311909Y0194450D01*
X0310309Y0194450D01*
X0304978Y0194450D01*
X0304978Y0200777D01*
X0305101Y0201235D01*
X0305338Y0201645D01*
X0305673Y0201980D01*
X0306084Y0202217D01*
X0306541Y0202340D01*
X0310309Y0202340D01*
X0310309Y0194450D01*
X0310309Y0195471D02*
X0311909Y0195471D01*
X0311909Y0194450D02*
X0311909Y0202340D01*
X0315677Y0202340D01*
X0316135Y0202217D01*
X0316545Y0201980D01*
X0316880Y0201645D01*
X0317117Y0201235D01*
X0317240Y0200777D01*
X0317240Y0194450D01*
X0311909Y0194450D01*
X0311909Y0193873D02*
X0395940Y0193873D01*
X0395980Y0192274D02*
X0317240Y0192274D01*
X0317240Y0190676D02*
X0396642Y0190676D01*
X0397849Y0189077D02*
X0317240Y0189077D01*
X0317240Y0187479D02*
X0400467Y0187479D01*
X0404270Y0187479D02*
X0414070Y0187479D01*
X0414070Y0189077D02*
X0406888Y0189077D01*
X0408096Y0190676D02*
X0414070Y0190676D01*
X0414070Y0192274D02*
X0408758Y0192274D01*
X0408798Y0193873D02*
X0414070Y0193873D01*
X0414070Y0195471D02*
X0408573Y0195471D01*
X0407911Y0197070D02*
X0414070Y0197070D01*
X0414070Y0198668D02*
X0406443Y0198668D01*
X0405169Y0200267D02*
X0414070Y0200267D01*
X0414070Y0201865D02*
X0405169Y0201865D01*
X0405169Y0203464D02*
X0414070Y0203464D01*
X0414070Y0205062D02*
X0405169Y0205062D01*
X0405169Y0206661D02*
X0414070Y0206661D01*
X0414070Y0208259D02*
X0405169Y0208259D01*
X0405169Y0209858D02*
X0414070Y0209858D01*
X0414070Y0211456D02*
X0405169Y0211456D01*
X0405169Y0213055D02*
X0414070Y0213055D01*
X0414070Y0214653D02*
X0405169Y0214653D01*
X0405169Y0216252D02*
X0414070Y0216252D01*
X0414070Y0217851D02*
X0405169Y0217851D01*
X0405169Y0219449D02*
X0414070Y0219449D01*
X0414070Y0221048D02*
X0405169Y0221048D01*
X0405169Y0222646D02*
X0414070Y0222646D01*
X0414070Y0224245D02*
X0405169Y0224245D01*
X0405169Y0225843D02*
X0414070Y0225843D01*
X0414070Y0227442D02*
X0405169Y0227442D01*
X0405169Y0229040D02*
X0414070Y0229040D01*
X0414070Y0230639D02*
X0405169Y0230639D01*
X0405169Y0232237D02*
X0414070Y0232237D01*
X0414070Y0233836D02*
X0405169Y0233836D01*
X0405169Y0235434D02*
X0414070Y0235434D01*
X0414070Y0237033D02*
X0405169Y0237033D01*
X0405169Y0238631D02*
X0414070Y0238631D01*
X0414070Y0240230D02*
X0405169Y0240230D01*
X0405169Y0241828D02*
X0414070Y0241828D01*
X0414070Y0243427D02*
X0405169Y0243427D01*
X0405169Y0245025D02*
X0414070Y0245025D01*
X0414070Y0246624D02*
X0405169Y0246624D01*
X0405169Y0248222D02*
X0414070Y0248222D01*
X0414070Y0249821D02*
X0405169Y0249821D01*
X0405169Y0251419D02*
X0414070Y0251419D01*
X0414070Y0253018D02*
X0405169Y0253018D01*
X0404999Y0254616D02*
X0414070Y0254616D01*
X0414070Y0256215D02*
X0403764Y0256215D01*
X0402165Y0257813D02*
X0414070Y0257813D01*
X0414070Y0259412D02*
X0400567Y0259412D01*
X0398968Y0261010D02*
X0414070Y0261010D01*
X0402369Y0253650D02*
X0397369Y0258650D01*
X0362369Y0258650D01*
X0360931Y0256215D02*
X0244246Y0256215D01*
X0246257Y0254616D02*
X0249922Y0254616D01*
X0254816Y0254616D02*
X0319375Y0254616D01*
X0317777Y0253018D02*
X0256121Y0253018D01*
X0256550Y0251419D02*
X0316178Y0251419D01*
X0314580Y0249821D02*
X0256344Y0249821D01*
X0249384Y0248222D02*
X0245390Y0248222D01*
X0243133Y0249821D02*
X0182394Y0249821D01*
X0182375Y0251419D02*
X0240640Y0251419D01*
X0239041Y0253018D02*
X0182357Y0253018D01*
X0183130Y0254616D02*
X0183734Y0254616D01*
X0179495Y0258335D02*
X0179869Y0226150D01*
X0182892Y0229040D02*
X0203188Y0229040D01*
X0203344Y0227442D02*
X0183860Y0227442D01*
X0184050Y0225843D02*
X0204263Y0225843D01*
X0207369Y0228650D02*
X0247369Y0228650D01*
X0252369Y0233650D01*
X0252369Y0236150D01*
X0253445Y0240230D02*
X0269989Y0240230D01*
X0268390Y0238631D02*
X0255801Y0238631D01*
X0256529Y0237033D02*
X0266792Y0237033D01*
X0265193Y0235434D02*
X0256550Y0235434D01*
X0255936Y0233836D02*
X0263595Y0233836D01*
X0261996Y0232237D02*
X0254814Y0232237D01*
X0253317Y0230639D02*
X0260398Y0230639D01*
X0258799Y0229040D02*
X0251719Y0229040D01*
X0250120Y0227442D02*
X0257201Y0227442D01*
X0255602Y0225843D02*
X0245986Y0225843D01*
X0246550Y0224245D02*
X0254004Y0224245D01*
X0252405Y0222646D02*
X0246479Y0222646D01*
X0245679Y0221048D02*
X0250807Y0221048D01*
X0249208Y0219449D02*
X0242128Y0219449D01*
X0239869Y0221150D02*
X0242369Y0223650D01*
X0239869Y0221150D02*
X0157369Y0221150D01*
X0137369Y0223650D01*
X0139141Y0227442D02*
X0175878Y0227442D01*
X0175688Y0225843D02*
X0142399Y0225843D01*
X0139983Y0219449D02*
X0148402Y0219449D01*
X0146339Y0217851D02*
X0247610Y0217851D01*
X0247369Y0213650D02*
X0272369Y0238650D01*
X0282290Y0238650D01*
X0292487Y0234910D02*
X0303629Y0234910D01*
X0312369Y0243650D01*
X0321109Y0252390D01*
X0342251Y0252390D01*
X0346200Y0253018D02*
X0348699Y0253018D01*
X0348699Y0252390D02*
X0352448Y0252390D01*
X0352448Y0252390D01*
X0356197Y0252390D01*
X0356197Y0251450D01*
X0364256Y0251450D01*
X0365001Y0252195D01*
X0366537Y0252831D01*
X0368201Y0252831D01*
X0369737Y0252195D01*
X0370914Y0251018D01*
X0371550Y0249482D01*
X0371550Y0247818D01*
X0370914Y0246282D01*
X0369737Y0245105D01*
X0368201Y0244469D01*
X0366537Y0244469D01*
X0365001Y0245105D01*
X0364256Y0245850D01*
X0356197Y0245850D01*
X0356197Y0244910D01*
X0352448Y0244910D01*
X0352448Y0244910D01*
X0356197Y0244910D01*
X0356197Y0243315D01*
X0356074Y0242857D01*
X0355837Y0242446D01*
X0355502Y0242111D01*
X0355091Y0241874D01*
X0354633Y0241752D01*
X0352448Y0241752D01*
X0352448Y0244910D01*
X0352448Y0244910D01*
X0352448Y0244910D01*
X0348699Y0244910D01*
X0348699Y0246263D01*
X0348499Y0246463D01*
X0348499Y0250837D01*
X0348699Y0251037D01*
X0348699Y0252390D01*
X0352448Y0252390D01*
X0356197Y0252390D01*
X0356197Y0253985D01*
X0356074Y0254443D01*
X0355837Y0254854D01*
X0355502Y0255189D01*
X0355091Y0255426D01*
X0354633Y0255548D01*
X0352448Y0255548D01*
X0352448Y0252390D01*
X0352448Y0252390D01*
X0352448Y0252390D01*
X0352448Y0255548D01*
X0350262Y0255548D01*
X0349804Y0255426D01*
X0349394Y0255189D01*
X0349059Y0254854D01*
X0348822Y0254443D01*
X0348699Y0253985D01*
X0348699Y0252390D01*
X0348699Y0251419D02*
X0346200Y0251419D01*
X0345817Y0249821D02*
X0348499Y0249821D01*
X0348499Y0248222D02*
X0345074Y0248222D01*
X0345028Y0248268D02*
X0339474Y0248268D01*
X0338915Y0247710D01*
X0336687Y0247710D01*
X0335972Y0248425D01*
X0328766Y0248425D01*
X0327594Y0247253D01*
X0327594Y0240047D01*
X0328766Y0238875D01*
X0335972Y0238875D01*
X0337144Y0240047D01*
X0337144Y0242110D01*
X0338915Y0242110D01*
X0339474Y0241552D01*
X0345028Y0241552D01*
X0346200Y0242723D01*
X0346200Y0247097D01*
X0345028Y0248268D01*
X0346200Y0246624D02*
X0348499Y0246624D01*
X0348699Y0245025D02*
X0346200Y0245025D01*
X0346200Y0243427D02*
X0348699Y0243427D01*
X0348699Y0243315D02*
X0348822Y0242857D01*
X0349059Y0242446D01*
X0349394Y0242111D01*
X0349804Y0241874D01*
X0350262Y0241752D01*
X0352448Y0241752D01*
X0352448Y0244910D01*
X0348699Y0244910D01*
X0348699Y0243315D01*
X0349976Y0241828D02*
X0345305Y0241828D01*
X0342251Y0244910D02*
X0333629Y0244910D01*
X0332369Y0243650D01*
X0327594Y0243427D02*
X0326944Y0243427D01*
X0326944Y0245025D02*
X0327594Y0245025D01*
X0327594Y0246624D02*
X0326944Y0246624D01*
X0325390Y0248222D02*
X0328563Y0248222D01*
X0322369Y0248222D02*
X0322369Y0248222D01*
X0322369Y0246624D02*
X0322369Y0246624D01*
X0322369Y0245025D02*
X0322369Y0245025D01*
X0322369Y0243650D02*
X0322369Y0243650D01*
X0322369Y0239075D01*
X0319357Y0239075D01*
X0318899Y0239198D01*
X0318489Y0239435D01*
X0318154Y0239770D01*
X0317917Y0240180D01*
X0317794Y0240638D01*
X0317794Y0243650D01*
X0322369Y0243650D01*
X0322369Y0243427D02*
X0322369Y0243427D01*
X0322369Y0241828D02*
X0322369Y0241828D01*
X0322369Y0240230D02*
X0322369Y0240230D01*
X0326834Y0240230D02*
X0327594Y0240230D01*
X0327594Y0241828D02*
X0326944Y0241828D01*
X0317794Y0241828D02*
X0317144Y0241828D01*
X0317144Y0240230D02*
X0317904Y0240230D01*
X0317794Y0243427D02*
X0317144Y0243427D01*
X0317704Y0245025D02*
X0317794Y0245025D01*
X0311310Y0238631D02*
X0399569Y0238631D01*
X0399569Y0237033D02*
X0309711Y0237033D01*
X0308113Y0235434D02*
X0399569Y0235434D01*
X0399569Y0233836D02*
X0306514Y0233836D01*
X0304493Y0232237D02*
X0399569Y0232237D01*
X0399569Y0230639D02*
X0295287Y0230639D01*
X0295287Y0229040D02*
X0399569Y0229040D01*
X0399569Y0227442D02*
X0295287Y0227442D01*
X0295287Y0225843D02*
X0399569Y0225843D01*
X0399569Y0224245D02*
X0295287Y0224245D01*
X0295287Y0222646D02*
X0399569Y0222646D01*
X0399569Y0221048D02*
X0295287Y0221048D01*
X0295287Y0219449D02*
X0399569Y0219449D01*
X0399569Y0217851D02*
X0295287Y0217851D01*
X0295287Y0216252D02*
X0399569Y0216252D01*
X0399569Y0214653D02*
X0295287Y0214653D01*
X0295287Y0213055D02*
X0399569Y0213055D01*
X0399569Y0211456D02*
X0295287Y0211456D01*
X0295287Y0209858D02*
X0399569Y0209858D01*
X0399569Y0208259D02*
X0295287Y0208259D01*
X0294615Y0206661D02*
X0399569Y0206661D01*
X0399569Y0205062D02*
X0293030Y0205062D01*
X0293030Y0203464D02*
X0399569Y0203464D01*
X0399569Y0201865D02*
X0316660Y0201865D01*
X0317240Y0200267D02*
X0399569Y0200267D01*
X0398295Y0198668D02*
X0317240Y0198668D01*
X0317240Y0197070D02*
X0396827Y0197070D01*
X0396165Y0195471D02*
X0317240Y0195471D01*
X0311909Y0197070D02*
X0310309Y0197070D01*
X0310309Y0198668D02*
X0311909Y0198668D01*
X0311909Y0200267D02*
X0310309Y0200267D01*
X0310309Y0201865D02*
X0311909Y0201865D01*
X0305558Y0201865D02*
X0293030Y0201865D01*
X0293030Y0200267D02*
X0304978Y0200267D01*
X0304978Y0198668D02*
X0292184Y0198668D01*
X0292498Y0197070D02*
X0304978Y0197070D01*
X0304978Y0195471D02*
X0292830Y0195471D01*
X0292830Y0193269D02*
X0287081Y0193269D01*
X0287081Y0189488D01*
X0291267Y0189488D01*
X0291725Y0189610D01*
X0292136Y0189847D01*
X0292471Y0190183D01*
X0292708Y0190593D01*
X0292830Y0191051D01*
X0292830Y0193269D01*
X0292830Y0192274D02*
X0304978Y0192274D01*
X0304978Y0190676D02*
X0292730Y0190676D01*
X0293030Y0187479D02*
X0304978Y0187479D01*
X0304978Y0189077D02*
X0276137Y0189077D01*
X0276137Y0189399D02*
X0276137Y0187181D01*
X0272553Y0187181D01*
X0272553Y0190962D01*
X0274574Y0190962D01*
X0275032Y0190839D01*
X0275443Y0190602D01*
X0275778Y0190267D01*
X0276015Y0189857D01*
X0276137Y0189399D01*
X0275315Y0190676D02*
X0280669Y0190676D01*
X0280569Y0192274D02*
X0275917Y0192274D01*
X0272553Y0192274D02*
X0272185Y0192274D01*
X0272185Y0190676D02*
X0272553Y0190676D01*
X0272553Y0189077D02*
X0272185Y0189077D01*
X0272185Y0187479D02*
X0272553Y0187479D01*
X0276137Y0187479D02*
X0280369Y0187479D01*
X0280369Y0185880D02*
X0276137Y0185880D01*
X0276054Y0184282D02*
X0280369Y0184282D01*
X0282408Y0180304D02*
X0286700Y0184595D01*
X0285551Y0179486D02*
X0414070Y0179486D01*
X0414070Y0177888D02*
X0283893Y0177888D01*
X0282408Y0180304D02*
X0272369Y0180304D01*
X0265715Y0180304D01*
X0264231Y0177888D02*
X0165020Y0177888D01*
X0166205Y0179486D02*
X0261495Y0179486D01*
X0259021Y0181085D02*
X0166550Y0181085D01*
X0166259Y0182683D02*
X0258244Y0182683D01*
X0258188Y0184282D02*
X0165150Y0184282D01*
X0162369Y0181150D02*
X0152369Y0181150D01*
X0130007Y0181052D01*
X0130007Y0184201D02*
X0152369Y0186150D01*
X0152369Y0188650D01*
X0149952Y0191581D02*
X0134658Y0189031D01*
X0134658Y0188755D01*
X0133721Y0187818D01*
X0130474Y0187818D01*
X0130007Y0187351D01*
X0134658Y0188755D02*
X0134658Y0189031D01*
X0135058Y0192274D02*
X0137083Y0192274D01*
X0135058Y0193873D02*
X0146674Y0193873D01*
X0149952Y0191581D02*
X0150803Y0192431D01*
X0153935Y0192431D01*
X0154095Y0192271D01*
X0177369Y0196150D01*
X0180764Y0198668D02*
X0183295Y0198668D01*
X0181827Y0197070D02*
X0181514Y0197070D01*
X0180980Y0192274D02*
X0178938Y0192274D01*
X0175800Y0192274D02*
X0171147Y0192274D01*
X0173974Y0198668D02*
X0135058Y0198668D01*
X0134858Y0197070D02*
X0165857Y0197070D01*
X0161556Y0190676D02*
X0181642Y0190676D01*
X0182849Y0189077D02*
X0156550Y0189077D01*
X0156409Y0187479D02*
X0185467Y0187479D01*
X0159588Y0184282D02*
X0154461Y0184282D01*
X0155512Y0185880D02*
X0258767Y0185880D01*
X0269421Y0176289D02*
X0135058Y0176289D01*
X0135058Y0177888D02*
X0159718Y0177888D01*
X0156265Y0195471D02*
X0135058Y0195471D01*
X0134858Y0196800D02*
X0130007Y0196800D01*
X0134858Y0196800D01*
X0130007Y0196800D02*
X0130007Y0196800D01*
X0130007Y0196800D01*
X0125156Y0196800D01*
X0125156Y0197838D01*
X0124956Y0198038D01*
X0124956Y0211237D01*
X0119618Y0211237D01*
X0119618Y0200601D01*
X0119657Y0200506D01*
X0119657Y0196607D01*
X0125156Y0196607D01*
X0125156Y0196800D01*
X0130007Y0196800D01*
X0130007Y0193807D02*
X0130007Y0193650D01*
X0129575Y0193219D01*
X0130007Y0193807D02*
X0116857Y0193807D01*
X0116857Y0199949D01*
X0116818Y0199949D01*
X0116818Y0216288D01*
X0119967Y0216288D02*
X0119869Y0223650D01*
X0115688Y0224245D02*
X0107669Y0224245D01*
X0107669Y0225843D02*
X0116252Y0225843D01*
X0115759Y0222646D02*
X0107669Y0222646D01*
X0104869Y0220184D02*
X0104686Y0220002D01*
X0104686Y0216755D01*
X0104219Y0216288D01*
X0104869Y0220184D02*
X0104869Y0228650D01*
X0032369Y0228650D01*
X0032369Y0278650D01*
X0037369Y0278594D02*
X0037369Y0278594D01*
X0037369Y0280192D02*
X0037369Y0280192D01*
X0037369Y0281791D02*
X0037369Y0281791D01*
X0037060Y0283389D02*
X0037678Y0283389D01*
X0038636Y0284988D02*
X0036102Y0284988D01*
X0033517Y0286587D02*
X0041221Y0286587D01*
X0043517Y0286587D02*
X0051221Y0286587D01*
X0053517Y0286587D02*
X0089569Y0286587D01*
X0089569Y0288185D02*
X0030169Y0288185D01*
X0030169Y0286587D02*
X0031221Y0286587D01*
X0030169Y0289784D02*
X0035778Y0289784D01*
X0033783Y0291382D02*
X0030169Y0291382D01*
X0030169Y0292981D02*
X0033188Y0292981D01*
X0033228Y0294579D02*
X0030169Y0294579D01*
X0027369Y0298650D02*
X0027369Y0218650D01*
X0075479Y0218650D01*
X0084731Y0209398D01*
X0079680Y0209858D02*
X0024369Y0209858D01*
X0024369Y0211456D02*
X0078713Y0211456D01*
X0077114Y0213055D02*
X0024369Y0213055D01*
X0024369Y0214653D02*
X0075516Y0214653D01*
X0079680Y0208259D02*
X0024369Y0208259D01*
X0024369Y0206661D02*
X0079680Y0206661D01*
X0078481Y0202900D02*
X0081432Y0199949D01*
X0084731Y0199949D01*
X0097920Y0199949D01*
X0097920Y0171012D01*
X0097920Y0160382D01*
X0105046Y0153256D01*
X0234967Y0153256D01*
X0268629Y0153256D01*
X0272369Y0156996D01*
X0285046Y0156996D01*
X0286700Y0158650D01*
X0287081Y0153757D02*
X0287081Y0149976D01*
X0292830Y0149976D01*
X0292830Y0152194D01*
X0292708Y0152652D01*
X0292471Y0153062D01*
X0292136Y0153397D01*
X0291725Y0153634D01*
X0291267Y0153757D01*
X0287081Y0153757D01*
X0286319Y0153757D02*
X0282132Y0153757D01*
X0281674Y0153634D01*
X0281264Y0153397D01*
X0280929Y0153062D01*
X0280692Y0152652D01*
X0280569Y0152194D01*
X0280569Y0149976D01*
X0286318Y0149976D01*
X0286318Y0149214D01*
X0280569Y0149214D01*
X0280569Y0146996D01*
X0280692Y0146538D01*
X0280929Y0146127D01*
X0281264Y0145792D01*
X0281674Y0145555D01*
X0282132Y0145433D01*
X0286319Y0145433D01*
X0286319Y0149214D01*
X0287081Y0149214D01*
X0287081Y0149976D01*
X0286319Y0149976D01*
X0286319Y0153757D01*
X0286319Y0152312D02*
X0287081Y0152312D01*
X0287081Y0150713D02*
X0286319Y0150713D01*
X0286319Y0149115D02*
X0287081Y0149115D01*
X0287081Y0149214D02*
X0287081Y0145433D01*
X0291267Y0145433D01*
X0291725Y0145555D01*
X0292136Y0145792D01*
X0292471Y0146127D01*
X0292708Y0146538D01*
X0292830Y0146996D01*
X0292830Y0149214D01*
X0287081Y0149214D01*
X0287081Y0147516D02*
X0286319Y0147516D01*
X0286319Y0145918D02*
X0287081Y0145918D01*
X0292261Y0145918D02*
X0414070Y0145918D01*
X0414070Y0147516D02*
X0292830Y0147516D01*
X0292830Y0149115D02*
X0414070Y0149115D01*
X0414070Y0150713D02*
X0317221Y0150713D01*
X0317440Y0150932D02*
X0317440Y0166368D01*
X0316268Y0167540D01*
X0305950Y0167540D01*
X0304778Y0166368D01*
X0304778Y0150932D01*
X0305950Y0149760D01*
X0316268Y0149760D01*
X0317440Y0150932D01*
X0317440Y0152312D02*
X0414070Y0152312D01*
X0414070Y0153910D02*
X0317440Y0153910D01*
X0317440Y0155509D02*
X0414070Y0155509D01*
X0414070Y0157107D02*
X0317440Y0157107D01*
X0317440Y0158706D02*
X0414070Y0158706D01*
X0414070Y0160304D02*
X0317440Y0160304D01*
X0317440Y0161903D02*
X0414070Y0161903D01*
X0414070Y0163501D02*
X0317440Y0163501D01*
X0317440Y0165100D02*
X0414070Y0165100D01*
X0414070Y0166698D02*
X0317110Y0166698D01*
X0305108Y0166698D02*
X0293030Y0166698D01*
X0293030Y0165100D02*
X0304778Y0165100D01*
X0304778Y0163501D02*
X0292017Y0163501D01*
X0292968Y0161903D02*
X0304778Y0161903D01*
X0304778Y0160304D02*
X0293030Y0160304D01*
X0293030Y0158706D02*
X0304778Y0158706D01*
X0304778Y0157107D02*
X0293030Y0157107D01*
X0293030Y0155509D02*
X0304778Y0155509D01*
X0304778Y0153910D02*
X0276245Y0153910D01*
X0276137Y0152312D02*
X0280600Y0152312D01*
X0280569Y0150713D02*
X0276137Y0150713D01*
X0276137Y0149115D02*
X0280569Y0149115D01*
X0280569Y0147516D02*
X0276034Y0147516D01*
X0272553Y0147516D02*
X0272185Y0147516D01*
X0272185Y0146338D02*
X0272185Y0150119D01*
X0268600Y0150119D01*
X0268600Y0147901D01*
X0268723Y0147443D01*
X0268960Y0147033D01*
X0269295Y0146698D01*
X0269706Y0146461D01*
X0270163Y0146338D01*
X0272185Y0146338D01*
X0272185Y0149115D02*
X0272553Y0149115D01*
X0268600Y0149115D02*
X0235894Y0149115D01*
X0234041Y0149115D02*
X0096035Y0149115D01*
X0096035Y0150713D02*
X0103869Y0150713D01*
X0102031Y0152312D02*
X0096035Y0152312D01*
X0096035Y0153910D02*
X0100433Y0153910D01*
X0098834Y0155509D02*
X0096035Y0155509D01*
X0093235Y0156800D02*
X0094810Y0158374D01*
X0094810Y0170973D01*
X0094771Y0171012D01*
X0095120Y0176063D02*
X0093532Y0176063D01*
X0089782Y0176063D01*
X0089782Y0195561D01*
X0089582Y0195761D01*
X0089582Y0196800D01*
X0089582Y0197149D01*
X0095120Y0197149D01*
X0095120Y0176063D01*
X0095120Y0176289D02*
X0089782Y0176289D01*
X0089782Y0177888D02*
X0095120Y0177888D01*
X0095120Y0179486D02*
X0089782Y0179486D01*
X0089782Y0181085D02*
X0095120Y0181085D01*
X0095120Y0182683D02*
X0089782Y0182683D01*
X0089782Y0184282D02*
X0095120Y0184282D01*
X0095120Y0185880D02*
X0089782Y0185880D01*
X0089782Y0187479D02*
X0095120Y0187479D01*
X0095120Y0189077D02*
X0089782Y0189077D01*
X0089782Y0190676D02*
X0095120Y0190676D01*
X0095120Y0192274D02*
X0089782Y0192274D01*
X0089782Y0193873D02*
X0095120Y0193873D01*
X0095120Y0195471D02*
X0089782Y0195471D01*
X0089582Y0196800D02*
X0084731Y0196800D01*
X0084264Y0197267D01*
X0080721Y0197267D01*
X0077487Y0200500D01*
X0045991Y0200500D01*
X0045991Y0191111D01*
X0052645Y0191111D01*
X0052645Y0191110D02*
X0052645Y0188130D01*
X0052645Y0186189D01*
X0052644Y0186189D01*
X0048285Y0186189D01*
X0048285Y0184771D01*
X0048408Y0184313D01*
X0048550Y0184068D01*
X0047275Y0184068D01*
X0047275Y0189789D01*
X0046849Y0190818D01*
X0046391Y0191276D01*
X0046391Y0200100D01*
X0077321Y0200100D01*
X0079846Y0197575D01*
X0079880Y0197562D01*
X0079880Y0196838D01*
X0075763Y0197160D01*
X0074763Y0198160D01*
X0073227Y0198797D01*
X0071563Y0198797D01*
X0070027Y0198160D01*
X0068850Y0196984D01*
X0068214Y0195447D01*
X0068214Y0193784D01*
X0068229Y0193746D01*
X0066425Y0193795D01*
X0066652Y0194022D01*
X0066652Y0198041D01*
X0065481Y0199213D01*
X0058706Y0199213D01*
X0058325Y0198832D01*
X0056413Y0198832D01*
X0056032Y0199213D01*
X0049257Y0199213D01*
X0048085Y0198041D01*
X0048085Y0194022D01*
X0048678Y0193430D01*
X0048645Y0193397D01*
X0048408Y0192987D01*
X0048285Y0192529D01*
X0048285Y0191111D01*
X0052644Y0191111D01*
X0052644Y0191111D01*
X0048285Y0191111D01*
X0048285Y0189693D01*
X0048408Y0189235D01*
X0048645Y0188824D01*
X0048819Y0188650D01*
X0048645Y0188476D01*
X0048408Y0188065D01*
X0048285Y0187607D01*
X0048285Y0186189D01*
X0052644Y0186189D01*
X0052644Y0186189D01*
X0052644Y0191110D01*
X0052645Y0191110D01*
X0052644Y0190676D02*
X0052645Y0190676D01*
X0052644Y0189077D02*
X0052645Y0189077D01*
X0052644Y0187479D02*
X0052645Y0187479D01*
X0048285Y0187479D02*
X0047275Y0187479D01*
X0047275Y0189077D02*
X0048499Y0189077D01*
X0048285Y0190676D02*
X0046908Y0190676D01*
X0046391Y0192274D02*
X0048285Y0192274D01*
X0048235Y0193873D02*
X0046391Y0193873D01*
X0046391Y0195471D02*
X0048085Y0195471D01*
X0048085Y0197070D02*
X0046391Y0197070D01*
X0046391Y0198668D02*
X0048712Y0198668D01*
X0052645Y0196032D02*
X0057369Y0196032D01*
X0057369Y0176150D01*
X0061845Y0177467D01*
X0068303Y0177369D01*
X0071435Y0177369D01*
X0073650Y0179584D01*
X0074969Y0179972D01*
X0074969Y0182144D01*
X0076375Y0183550D01*
X0078903Y0183550D01*
X0078924Y0183570D01*
X0079894Y0183550D01*
X0080833Y0183550D01*
X0081017Y0183734D01*
X0083144Y0183734D01*
X0084731Y0184201D01*
X0084731Y0181052D02*
X0081484Y0181052D01*
X0080080Y0179647D01*
X0080080Y0179471D01*
X0077487Y0176878D01*
X0077487Y0121760D01*
X0081424Y0117823D01*
X0097172Y0117823D01*
X0112920Y0133571D01*
X0132605Y0133571D01*
X0132605Y0118386D01*
X0132369Y0118150D01*
X0129385Y0118743D02*
X0122853Y0118743D01*
X0122853Y0119963D02*
X0122669Y0120147D01*
X0122669Y0123037D01*
X0123414Y0123782D01*
X0124050Y0125318D01*
X0124050Y0126982D01*
X0123414Y0128518D01*
X0122237Y0129695D01*
X0120701Y0130331D01*
X0119037Y0130331D01*
X0117501Y0129695D01*
X0116324Y0128518D01*
X0115688Y0126982D01*
X0115688Y0125318D01*
X0116324Y0123782D01*
X0117069Y0123037D01*
X0117069Y0120147D01*
X0116885Y0119963D01*
X0116885Y0116337D01*
X0117072Y0116150D01*
X0116885Y0115963D01*
X0116885Y0113391D01*
X0116361Y0110512D01*
X0116009Y0110512D01*
X0114837Y0109341D01*
X0114837Y0103288D01*
X0114630Y0103288D01*
X0114700Y0103551D01*
X0114700Y0106150D01*
X0114700Y0108749D01*
X0114578Y0109207D01*
X0114341Y0109617D01*
X0114006Y0109953D01*
X0113595Y0110190D01*
X0113137Y0110312D01*
X0111326Y0110312D01*
X0111326Y0106150D01*
X0114700Y0106150D01*
X0111326Y0106150D01*
X0111326Y0106150D01*
X0111326Y0106150D01*
X0111326Y0110312D01*
X0109514Y0110312D01*
X0109056Y0110190D01*
X0108646Y0109953D01*
X0108310Y0109617D01*
X0108074Y0109207D01*
X0107951Y0108749D01*
X0107951Y0106150D01*
X0107951Y0103551D01*
X0108021Y0103288D01*
X0103273Y0103288D01*
X0102920Y0102935D01*
X0102567Y0103288D01*
X0096974Y0103288D01*
X0096621Y0102935D01*
X0096268Y0103288D01*
X0090674Y0103288D01*
X0090322Y0102935D01*
X0089969Y0103288D01*
X0084375Y0103288D01*
X0084022Y0102935D01*
X0083694Y0103264D01*
X0083698Y0104671D01*
X0084487Y0105459D01*
X0084487Y0111841D01*
X0083315Y0113012D01*
X0080510Y0113012D01*
X0047275Y0146247D01*
X0047275Y0175748D01*
X0048050Y0176522D01*
X0048050Y0178468D01*
X0048876Y0178468D01*
X0049257Y0178087D01*
X0054569Y0178087D01*
X0054569Y0176299D01*
X0054526Y0175894D01*
X0054569Y0175747D01*
X0054569Y0175593D01*
X0054725Y0175216D01*
X0054840Y0174825D01*
X0054936Y0174706D01*
X0054995Y0174564D01*
X0055284Y0174276D01*
X0055539Y0173958D01*
X0055674Y0173885D01*
X0055783Y0173776D01*
X0056160Y0173620D01*
X0056517Y0173425D01*
X0056670Y0173409D01*
X0056812Y0173350D01*
X0057220Y0173350D01*
X0057625Y0173307D01*
X0057772Y0173350D01*
X0057926Y0173350D01*
X0058303Y0173506D01*
X0062227Y0174661D01*
X0067725Y0174577D01*
X0067746Y0174569D01*
X0068282Y0174569D01*
X0068817Y0174561D01*
X0068838Y0174569D01*
X0071992Y0174569D01*
X0073021Y0174995D01*
X0074687Y0176661D01*
X0074687Y0121203D01*
X0075113Y0120174D01*
X0079050Y0116237D01*
X0079838Y0115449D01*
X0080867Y0115023D01*
X0097729Y0115023D01*
X0098758Y0115449D01*
X0114080Y0130771D01*
X0129805Y0130771D01*
X0129805Y0120383D01*
X0129385Y0119963D01*
X0129385Y0116337D01*
X0129572Y0116150D01*
X0129385Y0115963D01*
X0129385Y0112919D01*
X0129071Y0110512D01*
X0128922Y0110512D01*
X0127751Y0109341D01*
X0127751Y0102959D01*
X0127901Y0102809D01*
X0127631Y0102965D01*
X0127173Y0103088D01*
X0125152Y0103088D01*
X0125152Y0097535D01*
X0124783Y0097535D01*
X0124783Y0103088D01*
X0122762Y0103088D01*
X0122304Y0102965D01*
X0121977Y0102776D01*
X0121890Y0102863D01*
X0121987Y0102959D01*
X0121987Y0109341D01*
X0121862Y0109466D01*
X0122281Y0111765D01*
X0122853Y0112337D01*
X0122853Y0115963D01*
X0122666Y0116150D01*
X0122853Y0116337D01*
X0122853Y0119963D01*
X0122669Y0120341D02*
X0129763Y0120341D01*
X0129805Y0121940D02*
X0122669Y0121940D01*
X0123170Y0123538D02*
X0129805Y0123538D01*
X0129805Y0125137D02*
X0123975Y0125137D01*
X0124050Y0126735D02*
X0129805Y0126735D01*
X0129805Y0128334D02*
X0123490Y0128334D01*
X0121663Y0129932D02*
X0129805Y0129932D01*
X0135405Y0129932D02*
X0414070Y0129932D01*
X0414070Y0128334D02*
X0135405Y0128334D01*
X0135405Y0126735D02*
X0414070Y0126735D01*
X0414070Y0125137D02*
X0135405Y0125137D01*
X0135405Y0123538D02*
X0183165Y0123538D01*
X0183727Y0124100D02*
X0181919Y0122292D01*
X0180940Y0119929D01*
X0180940Y0117371D01*
X0181919Y0115008D01*
X0183727Y0113200D01*
X0186035Y0112244D01*
X0201391Y0048653D01*
X0200029Y0047292D01*
X0199050Y0044929D01*
X0199050Y0042371D01*
X0200029Y0040008D01*
X0201837Y0038200D01*
X0204200Y0037221D01*
X0206758Y0037221D01*
X0209121Y0038200D01*
X0210930Y0040008D01*
X0211908Y0042371D01*
X0211908Y0044929D01*
X0210930Y0047292D01*
X0209121Y0049100D01*
X0206813Y0050056D01*
X0191458Y0113646D01*
X0192819Y0115008D01*
X0193798Y0117371D01*
X0193798Y0119929D01*
X0192819Y0122292D01*
X0191011Y0124100D01*
X0188648Y0125079D01*
X0186090Y0125079D01*
X0183727Y0124100D01*
X0181773Y0121940D02*
X0135405Y0121940D01*
X0135405Y0120341D02*
X0181111Y0120341D01*
X0180940Y0118743D02*
X0135405Y0118743D01*
X0135353Y0117144D02*
X0181034Y0117144D01*
X0181696Y0115546D02*
X0135353Y0115546D01*
X0135353Y0113947D02*
X0182980Y0113947D01*
X0185781Y0112349D02*
X0135353Y0112349D01*
X0134749Y0110750D02*
X0186396Y0110750D01*
X0186782Y0109152D02*
X0141679Y0109152D01*
X0141787Y0107553D02*
X0187168Y0107553D01*
X0187554Y0105955D02*
X0141787Y0105955D01*
X0141787Y0106150D02*
X0138412Y0106150D01*
X0138412Y0110312D01*
X0138412Y0106150D01*
X0138412Y0106150D01*
X0141787Y0106150D01*
X0141787Y0104356D02*
X0187940Y0104356D01*
X0188326Y0102758D02*
X0159486Y0102758D01*
X0160232Y0101159D02*
X0188712Y0101159D01*
X0189098Y0099561D02*
X0160232Y0099561D01*
X0160232Y0097962D02*
X0189484Y0097962D01*
X0189870Y0096364D02*
X0160232Y0096364D01*
X0160232Y0094765D02*
X0190256Y0094765D01*
X0190642Y0093167D02*
X0160229Y0093167D01*
X0156648Y0093167D02*
X0156279Y0093167D01*
X0156279Y0094765D02*
X0156648Y0094765D01*
X0156648Y0096364D02*
X0156279Y0096364D01*
X0156279Y0097962D02*
X0156648Y0097962D01*
X0156648Y0099561D02*
X0156279Y0099561D01*
X0156279Y0101159D02*
X0156648Y0101159D01*
X0156648Y0102758D02*
X0156279Y0102758D01*
X0153115Y0091568D02*
X0191028Y0091568D01*
X0191414Y0089970D02*
X0090345Y0089970D01*
X0090520Y0091568D02*
X0090123Y0091568D01*
X0091943Y0088371D02*
X0153120Y0088371D01*
X0153667Y0088918D02*
X0152495Y0087746D01*
X0152495Y0082152D01*
X0152848Y0081800D01*
X0152495Y0081447D01*
X0152495Y0075853D01*
X0152848Y0075500D01*
X0152495Y0075148D01*
X0152495Y0069554D01*
X0153667Y0068382D01*
X0163197Y0068382D01*
X0164369Y0069554D01*
X0164369Y0075148D01*
X0164016Y0075500D01*
X0164369Y0075853D01*
X0164369Y0081447D01*
X0164016Y0081800D01*
X0164369Y0082152D01*
X0164369Y0087746D01*
X0163197Y0088918D01*
X0153667Y0088918D01*
X0152495Y0086773D02*
X0093542Y0086773D01*
X0095140Y0085174D02*
X0152495Y0085174D01*
X0152495Y0083576D02*
X0096739Y0083576D01*
X0098337Y0081977D02*
X0152670Y0081977D01*
X0152495Y0080379D02*
X0099936Y0080379D01*
X0101534Y0078780D02*
X0152495Y0078780D01*
X0152495Y0077182D02*
X0103133Y0077182D01*
X0104731Y0075583D02*
X0152765Y0075583D01*
X0152495Y0073984D02*
X0106330Y0073984D01*
X0107928Y0072386D02*
X0152495Y0072386D01*
X0152495Y0070787D02*
X0109527Y0070787D01*
X0111125Y0069189D02*
X0152860Y0069189D01*
X0156279Y0064393D02*
X0156648Y0064393D01*
X0156648Y0062795D02*
X0156279Y0062795D01*
X0156279Y0061196D02*
X0156648Y0061196D01*
X0156648Y0059765D02*
X0160232Y0059765D01*
X0160232Y0055775D01*
X0160109Y0055317D01*
X0159872Y0054907D01*
X0159537Y0054572D01*
X0159127Y0054335D01*
X0158669Y0054212D01*
X0156648Y0054212D01*
X0156648Y0059765D01*
X0156648Y0059598D02*
X0156279Y0059598D01*
X0156279Y0057999D02*
X0156648Y0057999D01*
X0156648Y0056401D02*
X0156279Y0056401D01*
X0156279Y0054802D02*
X0156648Y0054802D01*
X0159768Y0054802D02*
X0199906Y0054802D01*
X0200292Y0053204D02*
X0121626Y0053204D01*
X0122897Y0052117D02*
X0122660Y0051707D01*
X0122537Y0051249D01*
X0122537Y0048650D01*
X0125912Y0048650D01*
X0125912Y0048650D01*
X0122537Y0048650D01*
X0122537Y0046051D01*
X0122660Y0045593D01*
X0122897Y0045183D01*
X0123232Y0044847D01*
X0123643Y0044610D01*
X0124100Y0044488D01*
X0125912Y0044488D01*
X0125912Y0048650D01*
X0125912Y0052812D01*
X0124100Y0052812D01*
X0123643Y0052690D01*
X0123232Y0052453D01*
X0122897Y0052117D01*
X0122633Y0051605D02*
X0122400Y0051605D01*
X0122400Y0050007D02*
X0122537Y0050007D01*
X0122537Y0048408D02*
X0122400Y0048408D01*
X0122400Y0046810D02*
X0122537Y0046810D01*
X0122880Y0045211D02*
X0122152Y0045211D01*
X0125912Y0045211D02*
X0125912Y0045211D01*
X0125912Y0044488D02*
X0127724Y0044488D01*
X0128182Y0044610D01*
X0128592Y0044847D01*
X0128927Y0045183D01*
X0129164Y0045593D01*
X0129287Y0046051D01*
X0129287Y0048650D01*
X0129287Y0051249D01*
X0129164Y0051707D01*
X0128927Y0052117D01*
X0128592Y0052453D01*
X0128182Y0052690D01*
X0127724Y0052812D01*
X0125912Y0052812D01*
X0125912Y0048650D01*
X0125912Y0048650D01*
X0125912Y0048650D01*
X0125912Y0044488D01*
X0125912Y0046810D02*
X0125912Y0046810D01*
X0125912Y0048408D02*
X0125912Y0048408D01*
X0125912Y0048650D02*
X0125912Y0048650D01*
X0129287Y0048650D01*
X0125912Y0048650D01*
X0125912Y0050007D02*
X0125912Y0050007D01*
X0125912Y0051605D02*
X0125912Y0051605D01*
X0129192Y0051605D02*
X0200678Y0051605D01*
X0201064Y0050007D02*
X0129287Y0050007D01*
X0129287Y0048408D02*
X0201145Y0048408D01*
X0199829Y0046810D02*
X0129287Y0046810D01*
X0128944Y0045211D02*
X0199167Y0045211D01*
X0199050Y0043613D02*
X0056156Y0043613D01*
X0056156Y0042974D02*
X0056156Y0044326D01*
X0061679Y0044326D01*
X0061555Y0045109D01*
X0061252Y0046041D01*
X0060807Y0046915D01*
X0060230Y0047708D01*
X0059537Y0048401D01*
X0058744Y0048978D01*
X0057870Y0049423D01*
X0056938Y0049726D01*
X0056156Y0049850D01*
X0056156Y0044326D01*
X0054803Y0044326D01*
X0054803Y0042974D01*
X0049280Y0042974D01*
X0049403Y0042191D01*
X0049706Y0041259D01*
X0050152Y0040385D01*
X0050728Y0039592D01*
X0051421Y0038899D01*
X0052214Y0038322D01*
X0053088Y0037877D01*
X0054021Y0037574D01*
X0054803Y0037450D01*
X0054803Y0042974D01*
X0056156Y0042974D01*
X0061679Y0042974D01*
X0061555Y0042191D01*
X0061252Y0041259D01*
X0060807Y0040385D01*
X0060230Y0039592D01*
X0059537Y0038899D01*
X0058744Y0038322D01*
X0057870Y0037877D01*
X0056938Y0037574D01*
X0056156Y0037450D01*
X0056156Y0042974D01*
X0056156Y0042014D02*
X0054803Y0042014D01*
X0054803Y0040416D02*
X0056156Y0040416D01*
X0056156Y0038817D02*
X0054803Y0038817D01*
X0051533Y0038817D02*
X0024369Y0038817D01*
X0024369Y0037219D02*
X0414070Y0037219D01*
X0414070Y0038817D02*
X0386943Y0038817D01*
X0386326Y0038200D02*
X0388134Y0040008D01*
X0389113Y0042371D01*
X0389113Y0044929D01*
X0388134Y0047292D01*
X0386867Y0048559D01*
X0403576Y0112221D01*
X0403648Y0112221D01*
X0406011Y0113200D01*
X0407819Y0115008D01*
X0408798Y0117371D01*
X0408798Y0119929D01*
X0407819Y0122292D01*
X0406011Y0124100D01*
X0403648Y0125079D01*
X0401090Y0125079D01*
X0398727Y0124100D01*
X0396919Y0122292D01*
X0395940Y0119929D01*
X0395940Y0117371D01*
X0396919Y0115008D01*
X0398186Y0113741D01*
X0381477Y0050079D01*
X0381405Y0050079D01*
X0379042Y0049100D01*
X0377234Y0047292D01*
X0376255Y0044929D01*
X0376255Y0042371D01*
X0377234Y0040008D01*
X0379042Y0038200D01*
X0381405Y0037221D01*
X0383963Y0037221D01*
X0386326Y0038200D01*
X0388303Y0040416D02*
X0414070Y0040416D01*
X0414070Y0042014D02*
X0388965Y0042014D01*
X0389113Y0043613D02*
X0414070Y0043613D01*
X0414070Y0045211D02*
X0388996Y0045211D01*
X0388334Y0046810D02*
X0414070Y0046810D01*
X0414070Y0048408D02*
X0387018Y0048408D01*
X0387247Y0050007D02*
X0414070Y0050007D01*
X0414070Y0051605D02*
X0387667Y0051605D01*
X0388086Y0053204D02*
X0414070Y0053204D01*
X0414070Y0054802D02*
X0388506Y0054802D01*
X0388925Y0056401D02*
X0414070Y0056401D01*
X0414070Y0057999D02*
X0389345Y0057999D01*
X0389765Y0059598D02*
X0414070Y0059598D01*
X0414070Y0061196D02*
X0390184Y0061196D01*
X0390604Y0062795D02*
X0414070Y0062795D01*
X0414070Y0064393D02*
X0391023Y0064393D01*
X0391443Y0065992D02*
X0414070Y0065992D01*
X0414070Y0067590D02*
X0391862Y0067590D01*
X0392282Y0069189D02*
X0414070Y0069189D01*
X0414070Y0070787D02*
X0392701Y0070787D01*
X0393121Y0072386D02*
X0414070Y0072386D01*
X0414070Y0073984D02*
X0393541Y0073984D01*
X0393960Y0075583D02*
X0414070Y0075583D01*
X0414070Y0077182D02*
X0394380Y0077182D01*
X0394799Y0078780D02*
X0414070Y0078780D01*
X0414070Y0080379D02*
X0395219Y0080379D01*
X0395638Y0081977D02*
X0414070Y0081977D01*
X0414070Y0083576D02*
X0396058Y0083576D01*
X0396477Y0085174D02*
X0414070Y0085174D01*
X0414070Y0086773D02*
X0396897Y0086773D01*
X0397317Y0088371D02*
X0414070Y0088371D01*
X0414070Y0089970D02*
X0397736Y0089970D01*
X0398156Y0091568D02*
X0414070Y0091568D01*
X0414070Y0093167D02*
X0398575Y0093167D01*
X0398995Y0094765D02*
X0414070Y0094765D01*
X0414070Y0096364D02*
X0399414Y0096364D01*
X0399834Y0097962D02*
X0414070Y0097962D01*
X0414070Y0099561D02*
X0400253Y0099561D01*
X0400673Y0101159D02*
X0414070Y0101159D01*
X0414070Y0102758D02*
X0401093Y0102758D01*
X0401512Y0104356D02*
X0414070Y0104356D01*
X0414070Y0105955D02*
X0401932Y0105955D01*
X0402351Y0107553D02*
X0414070Y0107553D01*
X0414070Y0109152D02*
X0402771Y0109152D01*
X0403190Y0110750D02*
X0414070Y0110750D01*
X0414070Y0112349D02*
X0403957Y0112349D01*
X0406758Y0113947D02*
X0414070Y0113947D01*
X0414070Y0115546D02*
X0408042Y0115546D01*
X0408704Y0117144D02*
X0414070Y0117144D01*
X0414070Y0118743D02*
X0408798Y0118743D01*
X0408627Y0120341D02*
X0414070Y0120341D01*
X0414070Y0121940D02*
X0407965Y0121940D01*
X0406573Y0123538D02*
X0414070Y0123538D01*
X0414070Y0131531D02*
X0135405Y0131531D01*
X0135405Y0133129D02*
X0414070Y0133129D01*
X0414070Y0134728D02*
X0135157Y0134728D01*
X0133270Y0136326D02*
X0414070Y0136326D01*
X0414070Y0137925D02*
X0096035Y0137925D01*
X0096035Y0139523D02*
X0414070Y0139523D01*
X0414070Y0141122D02*
X0096035Y0141122D01*
X0096035Y0142720D02*
X0414070Y0142720D01*
X0414070Y0144319D02*
X0096035Y0144319D01*
X0096035Y0145918D02*
X0281139Y0145918D01*
X0268704Y0147516D02*
X0096035Y0147516D01*
X0093235Y0156800D02*
X0093235Y0133571D01*
X0096393Y0136326D02*
X0112255Y0136326D01*
X0110117Y0134728D02*
X0097282Y0134728D01*
X0097416Y0133129D02*
X0108519Y0133129D01*
X0106920Y0131531D02*
X0096916Y0131531D01*
X0096663Y0129932D02*
X0105321Y0129932D01*
X0103723Y0128334D02*
X0098490Y0128334D01*
X0099050Y0126735D02*
X0102124Y0126735D01*
X0100526Y0125137D02*
X0098975Y0125137D01*
X0098927Y0123538D02*
X0098170Y0123538D01*
X0097329Y0121940D02*
X0081267Y0121940D01*
X0080287Y0123538D02*
X0083857Y0123538D01*
X0082258Y0125137D02*
X0080287Y0125137D01*
X0080287Y0126735D02*
X0082067Y0126735D01*
X0082063Y0128334D02*
X0080287Y0128334D01*
X0080287Y0129932D02*
X0082059Y0129932D01*
X0082055Y0131531D02*
X0080287Y0131531D01*
X0080287Y0133129D02*
X0082050Y0133129D01*
X0082046Y0134728D02*
X0080287Y0134728D01*
X0080287Y0136326D02*
X0082042Y0136326D01*
X0082038Y0137925D02*
X0080287Y0137925D01*
X0080287Y0139523D02*
X0082033Y0139523D01*
X0082029Y0141122D02*
X0080287Y0141122D01*
X0080287Y0142720D02*
X0082025Y0142720D01*
X0082021Y0144319D02*
X0080287Y0144319D01*
X0080287Y0145918D02*
X0082016Y0145918D01*
X0082012Y0147516D02*
X0080287Y0147516D01*
X0080287Y0149115D02*
X0082008Y0149115D01*
X0082004Y0150713D02*
X0080287Y0150713D01*
X0080287Y0152312D02*
X0081999Y0152312D01*
X0081995Y0153910D02*
X0080287Y0153910D01*
X0080287Y0155509D02*
X0081991Y0155509D01*
X0081987Y0157107D02*
X0080287Y0157107D01*
X0080287Y0158706D02*
X0081982Y0158706D01*
X0081978Y0160304D02*
X0080287Y0160304D01*
X0080287Y0161903D02*
X0081974Y0161903D01*
X0081969Y0163501D02*
X0080287Y0163501D01*
X0080287Y0165100D02*
X0081965Y0165100D01*
X0081961Y0166698D02*
X0080287Y0166698D01*
X0080287Y0168297D02*
X0081957Y0168297D01*
X0081952Y0169895D02*
X0080287Y0169895D01*
X0080287Y0171494D02*
X0081948Y0171494D01*
X0081944Y0173092D02*
X0080287Y0173092D01*
X0080287Y0174691D02*
X0081940Y0174691D01*
X0084731Y0177902D02*
X0084869Y0126150D01*
X0094869Y0126150D01*
X0102051Y0118743D02*
X0116885Y0118743D01*
X0116885Y0117144D02*
X0100453Y0117144D01*
X0098854Y0115546D02*
X0116885Y0115546D01*
X0116885Y0113947D02*
X0079575Y0113947D01*
X0079742Y0115546D02*
X0077976Y0115546D01*
X0078143Y0117144D02*
X0076378Y0117144D01*
X0076545Y0118743D02*
X0074779Y0118743D01*
X0075044Y0120341D02*
X0073181Y0120341D01*
X0074687Y0121940D02*
X0071582Y0121940D01*
X0069984Y0123538D02*
X0074687Y0123538D01*
X0074687Y0125137D02*
X0068385Y0125137D01*
X0066787Y0126735D02*
X0074687Y0126735D01*
X0074687Y0128334D02*
X0065188Y0128334D01*
X0063590Y0129932D02*
X0074687Y0129932D01*
X0074687Y0131531D02*
X0061991Y0131531D01*
X0060393Y0133129D02*
X0074687Y0133129D01*
X0074687Y0134728D02*
X0058794Y0134728D01*
X0057196Y0136326D02*
X0074687Y0136326D01*
X0074687Y0137925D02*
X0055597Y0137925D01*
X0053999Y0139523D02*
X0074687Y0139523D01*
X0074687Y0141122D02*
X0052400Y0141122D01*
X0050802Y0142720D02*
X0074687Y0142720D01*
X0074687Y0144319D02*
X0049203Y0144319D01*
X0047605Y0145918D02*
X0074687Y0145918D01*
X0074687Y0147516D02*
X0047275Y0147516D01*
X0047275Y0149115D02*
X0074687Y0149115D01*
X0074687Y0150713D02*
X0047275Y0150713D01*
X0047275Y0152312D02*
X0074687Y0152312D01*
X0074687Y0153910D02*
X0047275Y0153910D01*
X0047275Y0155509D02*
X0074687Y0155509D01*
X0074687Y0157107D02*
X0047275Y0157107D01*
X0047275Y0158706D02*
X0074687Y0158706D01*
X0074687Y0160304D02*
X0047275Y0160304D01*
X0047275Y0161903D02*
X0074687Y0161903D01*
X0074687Y0163501D02*
X0047275Y0163501D01*
X0047275Y0165100D02*
X0074687Y0165100D01*
X0074687Y0166698D02*
X0047275Y0166698D01*
X0047275Y0168297D02*
X0074687Y0168297D01*
X0074687Y0169895D02*
X0047275Y0169895D01*
X0047275Y0171494D02*
X0074687Y0171494D01*
X0074687Y0173092D02*
X0047275Y0173092D01*
X0047275Y0174691D02*
X0054943Y0174691D01*
X0054568Y0176289D02*
X0047817Y0176289D01*
X0048050Y0177888D02*
X0054569Y0177888D01*
X0052645Y0181268D02*
X0044475Y0181268D01*
X0044475Y0179713D01*
X0044475Y0189232D01*
X0043591Y0190117D01*
X0043591Y0201495D01*
X0044997Y0202900D01*
X0078481Y0202900D01*
X0078753Y0198668D02*
X0073536Y0198668D01*
X0071254Y0198668D02*
X0066025Y0198668D01*
X0066652Y0197070D02*
X0068936Y0197070D01*
X0068224Y0195471D02*
X0066652Y0195471D01*
X0066503Y0193873D02*
X0068214Y0193873D01*
X0072395Y0194615D02*
X0084731Y0193650D01*
X0084731Y0196800D02*
X0084731Y0196800D01*
X0089582Y0196800D01*
X0089582Y0197070D02*
X0095120Y0197070D01*
X0097920Y0199949D02*
X0116818Y0199949D01*
X0119657Y0200267D02*
X0124956Y0200267D01*
X0124956Y0201865D02*
X0119618Y0201865D01*
X0119618Y0203464D02*
X0124956Y0203464D01*
X0124956Y0205062D02*
X0119618Y0205062D01*
X0119618Y0206661D02*
X0124956Y0206661D01*
X0124956Y0208259D02*
X0119618Y0208259D01*
X0119618Y0209858D02*
X0124956Y0209858D01*
X0130007Y0209398D02*
X0132369Y0211150D01*
X0132369Y0228650D01*
X0112369Y0228650D01*
X0112369Y0238650D01*
X0052369Y0238650D01*
X0047169Y0235434D02*
X0046507Y0235434D01*
X0047955Y0233836D02*
X0044908Y0233836D01*
X0039829Y0233836D02*
X0035169Y0233836D01*
X0035169Y0235434D02*
X0038231Y0235434D01*
X0037169Y0237033D02*
X0035169Y0237033D01*
X0035169Y0238631D02*
X0037169Y0238631D01*
X0037169Y0240230D02*
X0035169Y0240230D01*
X0035169Y0241828D02*
X0038193Y0241828D01*
X0039792Y0243427D02*
X0035169Y0243427D01*
X0035169Y0245025D02*
X0038640Y0245025D01*
X0037169Y0246624D02*
X0035169Y0246624D01*
X0035169Y0248222D02*
X0037169Y0248222D01*
X0037169Y0249821D02*
X0035169Y0249821D01*
X0035169Y0251419D02*
X0037784Y0251419D01*
X0039383Y0253018D02*
X0035169Y0253018D01*
X0035169Y0254616D02*
X0039332Y0254616D01*
X0037733Y0256215D02*
X0035169Y0256215D01*
X0035169Y0257813D02*
X0037369Y0257813D01*
X0037369Y0259412D02*
X0035169Y0259412D01*
X0035169Y0261010D02*
X0037658Y0261010D01*
X0039257Y0262609D02*
X0035169Y0262609D01*
X0035169Y0264207D02*
X0110135Y0264207D01*
X0109673Y0263535D02*
X0112395Y0267494D01*
X0112495Y0267736D01*
X0112707Y0267948D01*
X0112877Y0268195D01*
X0113097Y0268338D01*
X0113283Y0268524D01*
X0113560Y0268639D01*
X0113812Y0268802D01*
X0114070Y0268850D01*
X0114312Y0268950D01*
X0114612Y0268950D01*
X0114907Y0269005D01*
X0115164Y0268950D01*
X0135426Y0268950D01*
X0136455Y0268524D01*
X0137243Y0267736D01*
X0137669Y0266707D01*
X0137669Y0251450D01*
X0159256Y0251450D01*
X0160001Y0252195D01*
X0161537Y0252831D01*
X0163201Y0252831D01*
X0164737Y0252195D01*
X0165914Y0251018D01*
X0166550Y0249482D01*
X0166550Y0247818D01*
X0165914Y0246282D01*
X0164737Y0245105D01*
X0163201Y0244469D01*
X0161537Y0244469D01*
X0160001Y0245105D01*
X0159256Y0245850D01*
X0134312Y0245850D01*
X0133283Y0246276D01*
X0132495Y0247064D01*
X0132069Y0248093D01*
X0132069Y0263350D01*
X0118850Y0263350D01*
X0120315Y0262743D01*
X0121447Y0261611D01*
X0121986Y0262149D01*
X0122622Y0262611D01*
X0123324Y0262969D01*
X0124072Y0263212D01*
X0124849Y0263335D01*
X0125243Y0263335D01*
X0125243Y0258335D01*
X0125243Y0258335D01*
X0130243Y0258335D01*
X0130243Y0257942D01*
X0130120Y0257164D01*
X0129877Y0256416D01*
X0129519Y0255714D01*
X0129057Y0255078D01*
X0128500Y0254521D01*
X0127864Y0254059D01*
X0127162Y0253701D01*
X0126414Y0253458D01*
X0125636Y0253335D01*
X0125243Y0253335D01*
X0125243Y0258335D01*
X0125243Y0258335D01*
X0130243Y0258335D01*
X0130243Y0258729D01*
X0130120Y0259506D01*
X0129877Y0260254D01*
X0129519Y0260956D01*
X0129057Y0261592D01*
X0128500Y0262149D01*
X0127864Y0262611D01*
X0127162Y0262969D01*
X0126414Y0263212D01*
X0125636Y0263335D01*
X0125243Y0263335D01*
X0125243Y0258335D01*
X0125243Y0253335D01*
X0124849Y0253335D01*
X0124072Y0253458D01*
X0123324Y0253701D01*
X0122622Y0254059D01*
X0121986Y0254521D01*
X0121447Y0255060D01*
X0120315Y0253927D01*
X0118403Y0253135D01*
X0116335Y0253135D01*
X0114423Y0253927D01*
X0113432Y0254918D01*
X0112441Y0253927D01*
X0110529Y0253135D01*
X0108461Y0253135D01*
X0106549Y0253927D01*
X0105087Y0255389D01*
X0104295Y0257301D01*
X0104295Y0259369D01*
X0105087Y0261281D01*
X0106549Y0262743D01*
X0108461Y0263535D01*
X0109673Y0263535D01*
X0111234Y0265806D02*
X0035169Y0265806D01*
X0035169Y0267404D02*
X0112333Y0267404D01*
X0114869Y0266150D02*
X0109495Y0258335D01*
X0113130Y0254616D02*
X0113734Y0254616D01*
X0105860Y0254616D02*
X0055689Y0254616D01*
X0055355Y0253018D02*
X0132069Y0253018D01*
X0132069Y0254616D02*
X0128595Y0254616D01*
X0129774Y0256215D02*
X0132069Y0256215D01*
X0132069Y0257813D02*
X0130223Y0257813D01*
X0130135Y0259412D02*
X0132069Y0259412D01*
X0132069Y0261010D02*
X0129480Y0261010D01*
X0127867Y0262609D02*
X0132069Y0262609D01*
X0134869Y0266150D02*
X0114869Y0266150D01*
X0114898Y0269003D02*
X0035169Y0269003D01*
X0035169Y0270601D02*
X0149569Y0270601D01*
X0149569Y0269003D02*
X0114915Y0269003D01*
X0115551Y0273798D02*
X0119776Y0273798D01*
X0122169Y0273798D02*
X0122569Y0273798D01*
X0122569Y0275397D02*
X0122169Y0275397D01*
X0122169Y0276995D02*
X0122569Y0276995D01*
X0122569Y0280192D02*
X0122169Y0280192D01*
X0122169Y0281791D02*
X0122569Y0281791D01*
X0122569Y0283389D02*
X0122169Y0283389D01*
X0119556Y0283389D02*
X0115690Y0283389D01*
X0117238Y0281791D02*
X0117853Y0281791D01*
X0117934Y0275397D02*
X0117177Y0275397D01*
X0124962Y0273798D02*
X0129187Y0273798D01*
X0127561Y0275397D02*
X0126804Y0275397D01*
X0126885Y0281791D02*
X0127500Y0281791D01*
X0129047Y0283389D02*
X0125182Y0283389D01*
X0135690Y0283389D02*
X0149569Y0283389D01*
X0149569Y0281791D02*
X0137238Y0281791D01*
X0137900Y0280192D02*
X0149569Y0280192D01*
X0149569Y0278594D02*
X0138069Y0278594D01*
X0137853Y0276995D02*
X0149569Y0276995D01*
X0149569Y0275397D02*
X0137177Y0275397D01*
X0135551Y0273798D02*
X0149569Y0273798D01*
X0149569Y0272200D02*
X0065707Y0272200D01*
X0065496Y0271989D02*
X0066030Y0272523D01*
X0066474Y0273134D01*
X0066817Y0273807D01*
X0067051Y0274526D01*
X0067169Y0275272D01*
X0067169Y0278550D01*
X0062469Y0278550D01*
X0062469Y0278750D01*
X0067169Y0278750D01*
X0067169Y0282028D01*
X0067051Y0282774D01*
X0066817Y0283493D01*
X0066474Y0284166D01*
X0066030Y0284777D01*
X0065496Y0285311D01*
X0064885Y0285755D01*
X0064212Y0286098D01*
X0063493Y0286332D01*
X0062747Y0286450D01*
X0062469Y0286450D01*
X0062469Y0278750D01*
X0062269Y0278750D01*
X0062269Y0286450D01*
X0061991Y0286450D01*
X0061245Y0286332D01*
X0060526Y0286098D01*
X0059853Y0285755D01*
X0059242Y0285311D01*
X0058708Y0284777D01*
X0058264Y0284166D01*
X0057921Y0283493D01*
X0057687Y0282774D01*
X0057569Y0282028D01*
X0057569Y0278750D01*
X0062269Y0278750D01*
X0062269Y0278550D01*
X0062469Y0278550D01*
X0062469Y0270850D01*
X0062747Y0270850D01*
X0063493Y0270968D01*
X0064212Y0271202D01*
X0064885Y0271545D01*
X0065496Y0271989D01*
X0066813Y0273798D02*
X0076992Y0273798D01*
X0076669Y0275397D02*
X0067169Y0275397D01*
X0067169Y0276995D02*
X0076669Y0276995D01*
X0076669Y0278594D02*
X0062469Y0278594D01*
X0062269Y0278594D02*
X0057369Y0278594D01*
X0057569Y0278550D02*
X0057569Y0275272D01*
X0057687Y0274526D01*
X0057921Y0273807D01*
X0058264Y0273134D01*
X0058708Y0272523D01*
X0059242Y0271989D01*
X0059853Y0271545D01*
X0060526Y0271202D01*
X0061245Y0270968D01*
X0061991Y0270850D01*
X0062269Y0270850D01*
X0062269Y0278550D01*
X0057569Y0278550D01*
X0057569Y0276995D02*
X0057369Y0276995D01*
X0057369Y0275397D02*
X0057569Y0275397D01*
X0057925Y0273798D02*
X0057014Y0273798D01*
X0055990Y0272200D02*
X0059031Y0272200D01*
X0062269Y0272200D02*
X0062469Y0272200D01*
X0062469Y0273798D02*
X0062269Y0273798D01*
X0062269Y0275397D02*
X0062469Y0275397D01*
X0062469Y0276995D02*
X0062269Y0276995D01*
X0062269Y0280192D02*
X0062469Y0280192D01*
X0062469Y0281791D02*
X0062269Y0281791D01*
X0062269Y0283389D02*
X0062469Y0283389D01*
X0062469Y0284988D02*
X0062269Y0284988D01*
X0058919Y0284988D02*
X0056102Y0284988D01*
X0057060Y0283389D02*
X0057887Y0283389D01*
X0057569Y0281791D02*
X0057369Y0281791D01*
X0057369Y0280192D02*
X0057569Y0280192D01*
X0065819Y0284988D02*
X0089569Y0284988D01*
X0089047Y0283389D02*
X0087858Y0283389D01*
X0092369Y0278650D02*
X0092369Y0293650D01*
X0037369Y0293650D01*
X0038960Y0289784D02*
X0089569Y0289784D01*
X0076880Y0283389D02*
X0066851Y0283389D01*
X0067169Y0281791D02*
X0076669Y0281791D01*
X0076669Y0280192D02*
X0067169Y0280192D01*
X0048636Y0284988D02*
X0046102Y0284988D01*
X0047060Y0283389D02*
X0047678Y0283389D01*
X0047369Y0281791D02*
X0047369Y0281791D01*
X0047369Y0280192D02*
X0047369Y0280192D01*
X0047369Y0278594D02*
X0047369Y0278594D01*
X0047369Y0276995D02*
X0047369Y0276995D01*
X0047369Y0275397D02*
X0047369Y0275397D01*
X0047014Y0273798D02*
X0047724Y0273798D01*
X0048748Y0272200D02*
X0045990Y0272200D01*
X0038748Y0272200D02*
X0035990Y0272200D01*
X0037014Y0273798D02*
X0037724Y0273798D01*
X0037369Y0275397D02*
X0037369Y0275397D01*
X0037369Y0276995D02*
X0037369Y0276995D01*
X0024569Y0276995D02*
X0024369Y0276995D01*
X0024369Y0275397D02*
X0024569Y0275397D01*
X0024569Y0273798D02*
X0024369Y0273798D01*
X0024369Y0272200D02*
X0024569Y0272200D01*
X0024569Y0270601D02*
X0024369Y0270601D01*
X0024369Y0269003D02*
X0024569Y0269003D01*
X0024569Y0267404D02*
X0024369Y0267404D01*
X0024369Y0265806D02*
X0024569Y0265806D01*
X0024569Y0264207D02*
X0024369Y0264207D01*
X0024369Y0262609D02*
X0024569Y0262609D01*
X0024569Y0261010D02*
X0024369Y0261010D01*
X0024369Y0259412D02*
X0024569Y0259412D01*
X0024569Y0257813D02*
X0024369Y0257813D01*
X0024369Y0256215D02*
X0024569Y0256215D01*
X0024569Y0254616D02*
X0024369Y0254616D01*
X0024369Y0253018D02*
X0024569Y0253018D01*
X0024569Y0251419D02*
X0024369Y0251419D01*
X0024369Y0249821D02*
X0024569Y0249821D01*
X0024569Y0248222D02*
X0024369Y0248222D01*
X0024369Y0246624D02*
X0024569Y0246624D01*
X0024569Y0245025D02*
X0024369Y0245025D01*
X0024369Y0243427D02*
X0024569Y0243427D01*
X0024569Y0241828D02*
X0024369Y0241828D01*
X0024369Y0240230D02*
X0024569Y0240230D01*
X0024569Y0238631D02*
X0024369Y0238631D01*
X0024369Y0237033D02*
X0024569Y0237033D01*
X0024569Y0235434D02*
X0024369Y0235434D01*
X0024369Y0233836D02*
X0024569Y0233836D01*
X0024569Y0232237D02*
X0024369Y0232237D01*
X0024369Y0230639D02*
X0024569Y0230639D01*
X0024569Y0229040D02*
X0024369Y0229040D01*
X0024369Y0227442D02*
X0024569Y0227442D01*
X0024569Y0225843D02*
X0024369Y0225843D01*
X0024369Y0224245D02*
X0024569Y0224245D01*
X0024569Y0222646D02*
X0024369Y0222646D01*
X0024369Y0221048D02*
X0024569Y0221048D01*
X0024569Y0219449D02*
X0024369Y0219449D01*
X0024369Y0217851D02*
X0024669Y0217851D01*
X0024369Y0216252D02*
X0025841Y0216252D01*
X0024369Y0205062D02*
X0043199Y0205062D01*
X0041601Y0203464D02*
X0024369Y0203464D01*
X0024369Y0201865D02*
X0040791Y0201865D01*
X0040791Y0200267D02*
X0024369Y0200267D01*
X0024369Y0198668D02*
X0033295Y0198668D01*
X0031827Y0197070D02*
X0024369Y0197070D01*
X0024369Y0195471D02*
X0031165Y0195471D01*
X0030940Y0193873D02*
X0024369Y0193873D01*
X0024369Y0192274D02*
X0030980Y0192274D01*
X0031642Y0190676D02*
X0024369Y0190676D01*
X0024369Y0189077D02*
X0032849Y0189077D01*
X0035467Y0187479D02*
X0024369Y0187479D01*
X0024369Y0185880D02*
X0041675Y0185880D01*
X0041675Y0184282D02*
X0024369Y0184282D01*
X0024369Y0182683D02*
X0034113Y0182683D01*
X0034137Y0182770D02*
X0034014Y0182312D01*
X0034014Y0179713D01*
X0034014Y0177114D01*
X0034137Y0176656D01*
X0034373Y0176246D01*
X0034709Y0175910D01*
X0035119Y0175673D01*
X0035577Y0175551D01*
X0037389Y0175551D01*
X0039200Y0175551D01*
X0039658Y0175673D01*
X0040069Y0175910D01*
X0040404Y0176246D01*
X0040641Y0176656D01*
X0040763Y0177114D01*
X0040763Y0179713D01*
X0040763Y0182312D01*
X0040641Y0182770D01*
X0040404Y0183180D01*
X0040069Y0183516D01*
X0039658Y0183753D01*
X0039200Y0183875D01*
X0037389Y0183875D01*
X0037389Y0179713D01*
X0040763Y0179713D01*
X0037389Y0179713D01*
X0037389Y0179713D01*
X0037389Y0179713D01*
X0037389Y0175551D01*
X0037389Y0179713D01*
X0037389Y0179713D01*
X0037389Y0183875D01*
X0035577Y0183875D01*
X0035119Y0183753D01*
X0034709Y0183516D01*
X0034373Y0183180D01*
X0034137Y0182770D01*
X0034014Y0181085D02*
X0024369Y0181085D01*
X0024369Y0179486D02*
X0034014Y0179486D01*
X0034014Y0179713D02*
X0037389Y0179713D01*
X0037389Y0179713D01*
X0034014Y0179713D01*
X0034014Y0177888D02*
X0024369Y0177888D01*
X0024369Y0176289D02*
X0034348Y0176289D01*
X0037389Y0176289D02*
X0037389Y0176289D01*
X0037389Y0177888D02*
X0037389Y0177888D01*
X0037389Y0179486D02*
X0037389Y0179486D01*
X0037389Y0181085D02*
X0037389Y0181085D01*
X0037389Y0182683D02*
X0037389Y0182683D01*
X0040664Y0182683D02*
X0040900Y0182683D01*
X0040900Y0181085D02*
X0040763Y0181085D01*
X0040763Y0179486D02*
X0040900Y0179486D01*
X0040900Y0177888D02*
X0040763Y0177888D01*
X0040429Y0176289D02*
X0041134Y0176289D01*
X0041675Y0174691D02*
X0024369Y0174691D01*
X0024369Y0173092D02*
X0041675Y0173092D01*
X0041675Y0171494D02*
X0024369Y0171494D01*
X0024369Y0169895D02*
X0041675Y0169895D01*
X0041675Y0168297D02*
X0024369Y0168297D01*
X0024369Y0166698D02*
X0041675Y0166698D01*
X0041675Y0165100D02*
X0024369Y0165100D01*
X0024369Y0163501D02*
X0041675Y0163501D01*
X0041675Y0161903D02*
X0024369Y0161903D01*
X0024369Y0160304D02*
X0041675Y0160304D01*
X0041675Y0158706D02*
X0024369Y0158706D01*
X0024369Y0157107D02*
X0041675Y0157107D01*
X0041675Y0155509D02*
X0024369Y0155509D01*
X0024369Y0153910D02*
X0041675Y0153910D01*
X0041675Y0152312D02*
X0024369Y0152312D01*
X0024369Y0150713D02*
X0041675Y0150713D01*
X0041675Y0149115D02*
X0024369Y0149115D01*
X0024369Y0147516D02*
X0041675Y0147516D01*
X0041675Y0145918D02*
X0024369Y0145918D01*
X0024369Y0144319D02*
X0041763Y0144319D01*
X0042882Y0142720D02*
X0024369Y0142720D01*
X0024369Y0141122D02*
X0044480Y0141122D01*
X0046079Y0139523D02*
X0024369Y0139523D01*
X0024369Y0137925D02*
X0047678Y0137925D01*
X0049276Y0136326D02*
X0024369Y0136326D01*
X0024369Y0134728D02*
X0050875Y0134728D01*
X0052473Y0133129D02*
X0024369Y0133129D01*
X0024369Y0131531D02*
X0054072Y0131531D01*
X0055670Y0129932D02*
X0024369Y0129932D01*
X0024369Y0128334D02*
X0057269Y0128334D01*
X0058867Y0126735D02*
X0024369Y0126735D01*
X0024369Y0125137D02*
X0060466Y0125137D01*
X0062064Y0123538D02*
X0041573Y0123538D01*
X0041011Y0124100D02*
X0042819Y0122292D01*
X0043798Y0119929D01*
X0043798Y0117371D01*
X0042819Y0115008D01*
X0041011Y0113200D01*
X0038648Y0112221D01*
X0036090Y0112221D01*
X0033727Y0113200D01*
X0031919Y0115008D01*
X0030940Y0117371D01*
X0030940Y0119929D01*
X0031919Y0122292D01*
X0033727Y0124100D01*
X0036090Y0125079D01*
X0038648Y0125079D01*
X0041011Y0124100D01*
X0042965Y0121940D02*
X0063663Y0121940D01*
X0065261Y0120341D02*
X0043627Y0120341D01*
X0043798Y0118743D02*
X0066860Y0118743D01*
X0068458Y0117144D02*
X0043704Y0117144D01*
X0043042Y0115546D02*
X0070057Y0115546D01*
X0071655Y0113947D02*
X0041758Y0113947D01*
X0038957Y0112349D02*
X0071042Y0112349D01*
X0070451Y0110750D02*
X0024369Y0110750D01*
X0024369Y0109152D02*
X0070451Y0109152D01*
X0070451Y0108650D02*
X0073826Y0108650D01*
X0073826Y0104488D01*
X0073826Y0108650D01*
X0073826Y0108650D01*
X0070451Y0108650D01*
X0070451Y0107553D02*
X0024369Y0107553D01*
X0024369Y0105955D02*
X0070477Y0105955D01*
X0071910Y0102965D02*
X0071500Y0102728D01*
X0071165Y0102393D01*
X0070928Y0101983D01*
X0070805Y0101525D01*
X0070805Y0097535D01*
X0074389Y0097535D01*
X0074389Y0103088D01*
X0072368Y0103088D01*
X0071910Y0102965D01*
X0071551Y0102758D02*
X0024369Y0102758D01*
X0024369Y0104356D02*
X0078097Y0104356D01*
X0077337Y0105955D02*
X0077175Y0105955D01*
X0077200Y0107553D02*
X0077337Y0107553D01*
X0073826Y0107553D02*
X0073826Y0107553D01*
X0073826Y0108650D02*
X0073826Y0108650D01*
X0073826Y0105955D02*
X0073826Y0105955D01*
X0074389Y0102758D02*
X0074758Y0102758D01*
X0074758Y0101159D02*
X0074389Y0101159D01*
X0074389Y0099561D02*
X0074758Y0099561D01*
X0074758Y0097962D02*
X0074389Y0097962D01*
X0073826Y0098099D02*
X0074574Y0097351D01*
X0074389Y0096364D02*
X0074758Y0096364D01*
X0074758Y0094765D02*
X0074389Y0094765D01*
X0074389Y0093167D02*
X0074758Y0093167D01*
X0077922Y0091568D02*
X0070393Y0091568D01*
X0070345Y0091746D02*
X0070468Y0091289D01*
X0070468Y0089267D01*
X0064915Y0089267D01*
X0064547Y0089267D01*
X0064547Y0088899D01*
X0058994Y0088899D01*
X0058994Y0086878D01*
X0059117Y0086420D01*
X0059354Y0086009D01*
X0059430Y0085933D01*
X0059354Y0085858D01*
X0059117Y0085447D01*
X0058994Y0084989D01*
X0058994Y0082968D01*
X0064547Y0082968D01*
X0064547Y0082600D01*
X0058994Y0082600D01*
X0058994Y0080578D01*
X0059117Y0080121D01*
X0059354Y0079710D01*
X0059689Y0079375D01*
X0060099Y0079138D01*
X0060557Y0079015D01*
X0064547Y0079015D01*
X0064547Y0082600D01*
X0064915Y0082600D01*
X0064915Y0079015D01*
X0068905Y0079015D01*
X0069363Y0079138D01*
X0069773Y0079375D01*
X0070109Y0079710D01*
X0070345Y0080121D01*
X0070468Y0080578D01*
X0070468Y0082600D01*
X0064915Y0082600D01*
X0064915Y0082968D01*
X0064547Y0082968D01*
X0064547Y0086552D01*
X0064547Y0088899D01*
X0064915Y0088899D01*
X0064915Y0082968D01*
X0070468Y0082968D01*
X0070468Y0084989D01*
X0070345Y0085447D01*
X0070109Y0085858D01*
X0070033Y0085933D01*
X0070109Y0086009D01*
X0070345Y0086420D01*
X0070468Y0086878D01*
X0070468Y0088899D01*
X0064915Y0088899D01*
X0064915Y0089267D01*
X0064915Y0095198D01*
X0064547Y0095198D01*
X0064547Y0092852D01*
X0064547Y0089267D01*
X0058994Y0089267D01*
X0058994Y0091289D01*
X0059117Y0091746D01*
X0059354Y0092157D01*
X0059430Y0092233D01*
X0059354Y0092309D01*
X0059117Y0092719D01*
X0058994Y0093177D01*
X0058994Y0095198D01*
X0064547Y0095198D01*
X0064547Y0095567D01*
X0064547Y0099151D01*
X0060557Y0099151D01*
X0060099Y0099028D01*
X0059689Y0098791D01*
X0059354Y0098456D01*
X0059117Y0098046D01*
X0058994Y0097588D01*
X0058994Y0095567D01*
X0064547Y0095567D01*
X0064915Y0095567D01*
X0064915Y0099151D01*
X0068905Y0099151D01*
X0069363Y0099028D01*
X0069773Y0098791D01*
X0070109Y0098456D01*
X0070345Y0098046D01*
X0070468Y0097588D01*
X0070468Y0095567D01*
X0064915Y0095567D01*
X0064915Y0095198D01*
X0070468Y0095198D01*
X0070468Y0093177D01*
X0070345Y0092719D01*
X0070109Y0092309D01*
X0070033Y0092233D01*
X0070109Y0092157D01*
X0070345Y0091746D01*
X0070465Y0093167D02*
X0070808Y0093167D01*
X0070805Y0094765D02*
X0070468Y0094765D01*
X0070468Y0096364D02*
X0070805Y0096364D01*
X0070805Y0097962D02*
X0070368Y0097962D01*
X0070805Y0099561D02*
X0024369Y0099561D01*
X0024369Y0101159D02*
X0070805Y0101159D01*
X0064915Y0097962D02*
X0064547Y0097962D01*
X0064547Y0096364D02*
X0064915Y0096364D01*
X0064915Y0094765D02*
X0064547Y0094765D01*
X0064547Y0093167D02*
X0064915Y0093167D01*
X0064915Y0091568D02*
X0064547Y0091568D01*
X0064547Y0089970D02*
X0064915Y0089970D01*
X0064731Y0089083D02*
X0064298Y0088650D01*
X0064547Y0088371D02*
X0064915Y0088371D01*
X0064915Y0086773D02*
X0064547Y0086773D01*
X0064547Y0085174D02*
X0064915Y0085174D01*
X0064915Y0083576D02*
X0064547Y0083576D01*
X0064547Y0081977D02*
X0064915Y0081977D01*
X0064915Y0080379D02*
X0064547Y0080379D01*
X0059048Y0080379D02*
X0024369Y0080379D01*
X0024369Y0081977D02*
X0049100Y0081977D01*
X0048902Y0082092D02*
X0049312Y0081855D01*
X0049770Y0081732D01*
X0052369Y0081732D01*
X0054968Y0081732D01*
X0055426Y0081855D01*
X0055836Y0082092D01*
X0056172Y0082427D01*
X0056408Y0082837D01*
X0056531Y0083295D01*
X0056531Y0085107D01*
X0056531Y0086918D01*
X0056408Y0087376D01*
X0056172Y0087787D01*
X0055836Y0088122D01*
X0055426Y0088359D01*
X0054968Y0088481D01*
X0052369Y0088481D01*
X0052369Y0085107D01*
X0052369Y0085107D01*
X0052369Y0088481D01*
X0049770Y0088481D01*
X0049312Y0088359D01*
X0048902Y0088122D01*
X0048566Y0087787D01*
X0048329Y0087376D01*
X0048207Y0086918D01*
X0048207Y0085107D01*
X0052369Y0085107D01*
X0056531Y0085107D01*
X0052369Y0085107D01*
X0052369Y0085107D01*
X0052369Y0085107D01*
X0053826Y0085107D01*
X0052369Y0085107D02*
X0052369Y0081732D01*
X0052369Y0085107D01*
X0048207Y0085107D01*
X0048207Y0083295D01*
X0048329Y0082837D01*
X0048566Y0082427D01*
X0048902Y0082092D01*
X0048207Y0083576D02*
X0024369Y0083576D01*
X0024369Y0085174D02*
X0048207Y0085174D01*
X0048207Y0086773D02*
X0024369Y0086773D01*
X0024369Y0088371D02*
X0049358Y0088371D01*
X0049312Y0088941D02*
X0049770Y0088819D01*
X0052369Y0088818D01*
X0052369Y0088819D02*
X0054968Y0088819D01*
X0055426Y0088941D01*
X0055836Y0089178D01*
X0056172Y0089513D01*
X0056408Y0089924D01*
X0056531Y0090382D01*
X0056531Y0092193D01*
X0052369Y0092193D01*
X0052369Y0088819D01*
X0052369Y0088818D02*
X0052369Y0092193D01*
X0052369Y0092193D01*
X0052369Y0092193D01*
X0048207Y0092193D01*
X0048207Y0090382D01*
X0048329Y0089924D01*
X0048566Y0089513D01*
X0048902Y0089178D01*
X0049312Y0088941D01*
X0048317Y0089970D02*
X0024369Y0089970D01*
X0024369Y0091568D02*
X0048207Y0091568D01*
X0048207Y0092193D02*
X0052369Y0092193D01*
X0052369Y0092193D01*
X0053826Y0092193D01*
X0052369Y0092193D02*
X0056531Y0092193D01*
X0056531Y0094005D01*
X0056408Y0094463D01*
X0056172Y0094873D01*
X0055836Y0095208D01*
X0055426Y0095445D01*
X0054968Y0095568D01*
X0052369Y0095568D01*
X0052369Y0092193D01*
X0052369Y0092193D01*
X0052369Y0095568D01*
X0049770Y0095568D01*
X0049312Y0095445D01*
X0048902Y0095208D01*
X0048566Y0094873D01*
X0048329Y0094463D01*
X0048207Y0094005D01*
X0048207Y0092193D01*
X0048207Y0093167D02*
X0024369Y0093167D01*
X0024369Y0094765D02*
X0048504Y0094765D01*
X0052369Y0094765D02*
X0052369Y0094765D01*
X0052369Y0093167D02*
X0052369Y0093167D01*
X0052369Y0091568D02*
X0052369Y0091568D01*
X0052369Y0089970D02*
X0052369Y0089970D01*
X0052369Y0088371D02*
X0052369Y0088371D01*
X0052369Y0086773D02*
X0052369Y0086773D01*
X0052369Y0085174D02*
X0052369Y0085174D01*
X0052369Y0085107D02*
X0052369Y0085107D01*
X0052369Y0083576D02*
X0052369Y0083576D01*
X0052369Y0081977D02*
X0052369Y0081977D01*
X0055638Y0081977D02*
X0058994Y0081977D01*
X0058994Y0083576D02*
X0056531Y0083576D01*
X0056531Y0085174D02*
X0059044Y0085174D01*
X0059022Y0086773D02*
X0056531Y0086773D01*
X0055380Y0088371D02*
X0058994Y0088371D01*
X0058994Y0089970D02*
X0056421Y0089970D01*
X0056531Y0091568D02*
X0059069Y0091568D01*
X0058997Y0093167D02*
X0056531Y0093167D01*
X0056234Y0094765D02*
X0058994Y0094765D01*
X0058994Y0096364D02*
X0024369Y0096364D01*
X0024369Y0097962D02*
X0059094Y0097962D01*
X0070468Y0089970D02*
X0082425Y0089970D01*
X0084024Y0088371D02*
X0070468Y0088371D01*
X0070440Y0086773D02*
X0085622Y0086773D01*
X0087221Y0085174D02*
X0070419Y0085174D01*
X0070468Y0083576D02*
X0088819Y0083576D01*
X0090418Y0081977D02*
X0070468Y0081977D01*
X0070415Y0080379D02*
X0092016Y0080379D01*
X0093615Y0078780D02*
X0024369Y0078780D01*
X0024369Y0077182D02*
X0095213Y0077182D01*
X0096812Y0075583D02*
X0024369Y0075583D01*
X0024369Y0073984D02*
X0098410Y0073984D01*
X0100009Y0072386D02*
X0024369Y0072386D01*
X0024369Y0070787D02*
X0059092Y0070787D01*
X0059117Y0070880D02*
X0058994Y0070422D01*
X0058994Y0068401D01*
X0064547Y0068401D01*
X0064547Y0068033D01*
X0058994Y0068033D01*
X0058994Y0066011D01*
X0059117Y0065554D01*
X0059354Y0065143D01*
X0059430Y0065067D01*
X0059354Y0064991D01*
X0059117Y0064581D01*
X0058994Y0064123D01*
X0058994Y0062102D01*
X0064547Y0062102D01*
X0064547Y0065686D01*
X0064547Y0068033D01*
X0064915Y0068033D01*
X0064915Y0062102D01*
X0064547Y0062102D01*
X0064547Y0061733D01*
X0064915Y0061733D01*
X0064915Y0058149D01*
X0068905Y0058149D01*
X0069363Y0058272D01*
X0069773Y0058509D01*
X0070109Y0058844D01*
X0070345Y0059254D01*
X0070468Y0059712D01*
X0070468Y0061733D01*
X0064915Y0061733D01*
X0064915Y0062102D01*
X0070468Y0062102D01*
X0070468Y0064123D01*
X0070345Y0064581D01*
X0070109Y0064991D01*
X0070033Y0065067D01*
X0070109Y0065143D01*
X0070345Y0065554D01*
X0070468Y0066011D01*
X0070468Y0068033D01*
X0064915Y0068033D01*
X0064915Y0068401D01*
X0064547Y0068401D01*
X0064547Y0071985D01*
X0060557Y0071985D01*
X0060099Y0071863D01*
X0059689Y0071626D01*
X0059354Y0071291D01*
X0059117Y0070880D01*
X0058994Y0069189D02*
X0024369Y0069189D01*
X0024369Y0067590D02*
X0058994Y0067590D01*
X0058999Y0065992D02*
X0024369Y0065992D01*
X0024369Y0064393D02*
X0059067Y0064393D01*
X0058994Y0062795D02*
X0024369Y0062795D01*
X0024369Y0061196D02*
X0058994Y0061196D01*
X0058994Y0061733D02*
X0058994Y0059712D01*
X0059117Y0059254D01*
X0059354Y0058844D01*
X0059689Y0058509D01*
X0060099Y0058272D01*
X0060557Y0058149D01*
X0064547Y0058149D01*
X0064547Y0061733D01*
X0058994Y0061733D01*
X0059025Y0059598D02*
X0024369Y0059598D01*
X0024369Y0057999D02*
X0070805Y0057999D01*
X0070805Y0056401D02*
X0024369Y0056401D01*
X0024369Y0054802D02*
X0071269Y0054802D01*
X0074389Y0054802D02*
X0074758Y0054802D01*
X0074758Y0054212D02*
X0076779Y0054212D01*
X0077237Y0054335D01*
X0077647Y0054572D01*
X0077723Y0054648D01*
X0077799Y0054572D01*
X0078210Y0054335D01*
X0078667Y0054212D01*
X0080689Y0054212D01*
X0080689Y0059765D01*
X0078342Y0059765D01*
X0074758Y0059765D01*
X0074758Y0054212D01*
X0074758Y0056401D02*
X0074389Y0056401D01*
X0074389Y0057999D02*
X0074758Y0057999D01*
X0074758Y0059598D02*
X0074389Y0059598D01*
X0074389Y0061196D02*
X0074758Y0061196D01*
X0074758Y0062795D02*
X0074389Y0062795D01*
X0074389Y0064393D02*
X0074758Y0064393D01*
X0070878Y0064393D02*
X0070396Y0064393D01*
X0070468Y0062795D02*
X0070805Y0062795D01*
X0070805Y0061196D02*
X0070468Y0061196D01*
X0070438Y0059598D02*
X0070805Y0059598D01*
X0064915Y0059598D02*
X0064547Y0059598D01*
X0064547Y0061196D02*
X0064915Y0061196D01*
X0064915Y0062795D02*
X0064547Y0062795D01*
X0064547Y0064393D02*
X0064915Y0064393D01*
X0064915Y0065992D02*
X0064547Y0065992D01*
X0064547Y0067590D02*
X0064915Y0067590D01*
X0064731Y0068217D02*
X0064869Y0068355D01*
X0064915Y0068401D02*
X0064915Y0071985D01*
X0068905Y0071985D01*
X0069363Y0071863D01*
X0069773Y0071626D01*
X0070109Y0071291D01*
X0070345Y0070880D01*
X0070468Y0070422D01*
X0070468Y0068401D01*
X0064915Y0068401D01*
X0064915Y0069189D02*
X0064547Y0069189D01*
X0064547Y0070787D02*
X0064915Y0070787D01*
X0070370Y0070787D02*
X0101607Y0070787D01*
X0103206Y0069189D02*
X0070468Y0069189D01*
X0070468Y0067590D02*
X0104804Y0067590D01*
X0106403Y0065992D02*
X0070463Y0065992D01*
X0080689Y0064393D02*
X0081057Y0064393D01*
X0081057Y0062795D02*
X0080689Y0062795D01*
X0080689Y0061196D02*
X0081057Y0061196D01*
X0081057Y0059598D02*
X0080689Y0059598D01*
X0080689Y0057999D02*
X0081057Y0057999D01*
X0081057Y0056401D02*
X0080689Y0056401D01*
X0080689Y0054802D02*
X0081057Y0054802D01*
X0060860Y0046810D02*
X0115251Y0046810D01*
X0115251Y0048408D02*
X0059528Y0048408D01*
X0056156Y0048408D02*
X0054803Y0048408D01*
X0054803Y0049850D02*
X0054803Y0044326D01*
X0049280Y0044326D01*
X0049403Y0045109D01*
X0049706Y0046041D01*
X0050152Y0046915D01*
X0050728Y0047708D01*
X0051421Y0048401D01*
X0052214Y0048978D01*
X0053088Y0049423D01*
X0054021Y0049726D01*
X0054803Y0049850D01*
X0054803Y0046810D02*
X0056156Y0046810D01*
X0056156Y0045211D02*
X0054803Y0045211D01*
X0054803Y0043613D02*
X0024369Y0043613D01*
X0024369Y0045211D02*
X0049437Y0045211D01*
X0050098Y0046810D02*
X0024369Y0046810D01*
X0024369Y0048408D02*
X0051431Y0048408D01*
X0049461Y0042014D02*
X0024369Y0042014D01*
X0024369Y0040416D02*
X0050136Y0040416D01*
X0059425Y0038817D02*
X0201220Y0038817D01*
X0199860Y0040416D02*
X0060822Y0040416D01*
X0061497Y0042014D02*
X0199198Y0042014D01*
X0205479Y0043650D02*
X0187369Y0118650D01*
X0191573Y0123538D02*
X0248165Y0123538D01*
X0248727Y0124100D02*
X0246919Y0122292D01*
X0245940Y0119929D01*
X0245940Y0117371D01*
X0246919Y0115008D01*
X0248727Y0113200D01*
X0251090Y0112221D01*
X0253648Y0112221D01*
X0256011Y0113200D01*
X0257819Y0115008D01*
X0258798Y0117371D01*
X0258798Y0119929D01*
X0257819Y0122292D01*
X0256011Y0124100D01*
X0253648Y0125079D01*
X0251090Y0125079D01*
X0248727Y0124100D01*
X0246773Y0121940D02*
X0192965Y0121940D01*
X0193627Y0120341D02*
X0246111Y0120341D01*
X0245940Y0118743D02*
X0193798Y0118743D01*
X0193704Y0117144D02*
X0246034Y0117144D01*
X0246696Y0115546D02*
X0193042Y0115546D01*
X0191758Y0113947D02*
X0247980Y0113947D01*
X0250781Y0112349D02*
X0191771Y0112349D01*
X0192157Y0110750D02*
X0397401Y0110750D01*
X0396981Y0109152D02*
X0192543Y0109152D01*
X0192929Y0107553D02*
X0396562Y0107553D01*
X0396142Y0105955D02*
X0193315Y0105955D01*
X0193701Y0104356D02*
X0395722Y0104356D01*
X0395303Y0102758D02*
X0194087Y0102758D01*
X0194473Y0101159D02*
X0394883Y0101159D01*
X0394464Y0099561D02*
X0194859Y0099561D01*
X0195245Y0097962D02*
X0394044Y0097962D01*
X0393625Y0096364D02*
X0195631Y0096364D01*
X0196017Y0094765D02*
X0393205Y0094765D01*
X0392786Y0093167D02*
X0196403Y0093167D01*
X0196789Y0091568D02*
X0392366Y0091568D01*
X0391946Y0089970D02*
X0197175Y0089970D01*
X0197561Y0088371D02*
X0391527Y0088371D01*
X0391107Y0086773D02*
X0197947Y0086773D01*
X0198333Y0085174D02*
X0390688Y0085174D01*
X0390268Y0083576D02*
X0198719Y0083576D01*
X0199105Y0081977D02*
X0389849Y0081977D01*
X0389429Y0080379D02*
X0199491Y0080379D01*
X0199877Y0078780D02*
X0389010Y0078780D01*
X0388590Y0077182D02*
X0200263Y0077182D01*
X0200649Y0075583D02*
X0388170Y0075583D01*
X0387751Y0073984D02*
X0201035Y0073984D01*
X0201421Y0072386D02*
X0387331Y0072386D01*
X0386912Y0070787D02*
X0201807Y0070787D01*
X0202193Y0069189D02*
X0386492Y0069189D01*
X0386073Y0067590D02*
X0202579Y0067590D01*
X0202965Y0065992D02*
X0385653Y0065992D01*
X0385234Y0064393D02*
X0203351Y0064393D01*
X0203737Y0062795D02*
X0384814Y0062795D01*
X0384394Y0061196D02*
X0204123Y0061196D01*
X0204509Y0059598D02*
X0383975Y0059598D01*
X0383555Y0057999D02*
X0204895Y0057999D01*
X0205281Y0056401D02*
X0383136Y0056401D01*
X0382716Y0054802D02*
X0205667Y0054802D01*
X0206053Y0053204D02*
X0382297Y0053204D01*
X0381877Y0051605D02*
X0206439Y0051605D01*
X0206933Y0050007D02*
X0381231Y0050007D01*
X0378350Y0048408D02*
X0236732Y0048408D01*
X0236742Y0048401D02*
X0235949Y0048978D01*
X0235075Y0049423D01*
X0234143Y0049726D01*
X0233360Y0049850D01*
X0233360Y0044326D01*
X0238884Y0044326D01*
X0238760Y0045109D01*
X0238457Y0046041D01*
X0238012Y0046915D01*
X0237435Y0047708D01*
X0236742Y0048401D01*
X0238065Y0046810D02*
X0377034Y0046810D01*
X0376372Y0045211D02*
X0238726Y0045211D01*
X0238884Y0042974D02*
X0233360Y0042974D01*
X0233360Y0044326D01*
X0232008Y0044326D01*
X0232007Y0044326D02*
X0232007Y0042974D01*
X0226484Y0042974D01*
X0226608Y0042191D01*
X0226911Y0041259D01*
X0227356Y0040385D01*
X0227933Y0039592D01*
X0228626Y0038899D01*
X0229419Y0038322D01*
X0230293Y0037877D01*
X0231225Y0037574D01*
X0232008Y0037450D01*
X0232008Y0042974D01*
X0233360Y0042974D01*
X0233360Y0037450D01*
X0234143Y0037574D01*
X0235075Y0037877D01*
X0235949Y0038322D01*
X0236742Y0038899D01*
X0237435Y0039592D01*
X0238012Y0040385D01*
X0238457Y0041259D01*
X0238760Y0042191D01*
X0238884Y0042974D01*
X0238702Y0042014D02*
X0376403Y0042014D01*
X0376255Y0043613D02*
X0233360Y0043613D01*
X0232007Y0043613D02*
X0211908Y0043613D01*
X0211791Y0045211D02*
X0226642Y0045211D01*
X0226608Y0045109D02*
X0226484Y0044326D01*
X0232007Y0044326D01*
X0232008Y0044326D02*
X0232008Y0049850D01*
X0231225Y0049726D01*
X0230293Y0049423D01*
X0229419Y0048978D01*
X0228626Y0048401D01*
X0227933Y0047708D01*
X0227356Y0046915D01*
X0226911Y0046041D01*
X0226608Y0045109D01*
X0227303Y0046810D02*
X0211129Y0046810D01*
X0209813Y0048408D02*
X0228636Y0048408D01*
X0232008Y0048408D02*
X0233360Y0048408D01*
X0233360Y0046810D02*
X0232008Y0046810D01*
X0232008Y0045211D02*
X0233360Y0045211D01*
X0233360Y0042014D02*
X0232008Y0042014D01*
X0232008Y0040416D02*
X0233360Y0040416D01*
X0233360Y0038817D02*
X0232008Y0038817D01*
X0228738Y0038817D02*
X0209739Y0038817D01*
X0211098Y0040416D02*
X0227341Y0040416D01*
X0226666Y0042014D02*
X0211760Y0042014D01*
X0199520Y0056401D02*
X0160232Y0056401D01*
X0160232Y0057999D02*
X0199134Y0057999D01*
X0198748Y0059598D02*
X0160232Y0059598D01*
X0160232Y0061196D02*
X0198362Y0061196D01*
X0197976Y0062795D02*
X0160232Y0062795D01*
X0160160Y0064393D02*
X0197590Y0064393D01*
X0197204Y0065992D02*
X0118370Y0065992D01*
X0116856Y0067590D02*
X0196818Y0067590D01*
X0196432Y0069189D02*
X0164004Y0069189D01*
X0164369Y0070787D02*
X0196046Y0070787D01*
X0195660Y0072386D02*
X0164369Y0072386D01*
X0164369Y0073984D02*
X0195274Y0073984D01*
X0194888Y0075583D02*
X0164099Y0075583D01*
X0164369Y0077182D02*
X0194502Y0077182D01*
X0194116Y0078780D02*
X0164369Y0078780D01*
X0164369Y0080379D02*
X0193730Y0080379D01*
X0193344Y0081977D02*
X0164194Y0081977D01*
X0164369Y0083576D02*
X0192958Y0083576D01*
X0192572Y0085174D02*
X0164369Y0085174D01*
X0164369Y0086773D02*
X0192186Y0086773D01*
X0191800Y0088371D02*
X0163744Y0088371D01*
X0147213Y0091568D02*
X0146816Y0091568D01*
X0140914Y0091568D02*
X0134218Y0091568D01*
X0137382Y0093167D02*
X0137750Y0093167D01*
X0137750Y0094765D02*
X0137382Y0094765D01*
X0137382Y0096364D02*
X0137750Y0096364D01*
X0137369Y0097154D02*
X0137566Y0097351D01*
X0137369Y0097548D01*
X0131267Y0097351D02*
X0131326Y0106150D01*
X0132369Y0114150D01*
X0129385Y0113947D02*
X0122853Y0113947D01*
X0122853Y0112349D02*
X0129310Y0112349D01*
X0129102Y0110750D02*
X0122096Y0110750D01*
X0121987Y0109152D02*
X0127751Y0109152D01*
X0127751Y0107553D02*
X0121987Y0107553D01*
X0121987Y0105955D02*
X0127751Y0105955D01*
X0127751Y0104356D02*
X0121987Y0104356D01*
X0124783Y0102758D02*
X0125152Y0102758D01*
X0125152Y0101159D02*
X0124783Y0101159D01*
X0124783Y0099561D02*
X0125152Y0099561D01*
X0125152Y0097962D02*
X0124783Y0097962D01*
X0124869Y0097449D02*
X0124967Y0097351D01*
X0124783Y0096364D02*
X0125152Y0096364D01*
X0125152Y0094765D02*
X0124783Y0094765D01*
X0124783Y0093167D02*
X0125152Y0093167D01*
X0128315Y0091568D02*
X0121619Y0091568D01*
X0115717Y0091568D02*
X0115320Y0091568D01*
X0118668Y0097351D02*
X0118412Y0106150D01*
X0119869Y0114150D01*
X0122853Y0115546D02*
X0129385Y0115546D01*
X0129385Y0117144D02*
X0122853Y0117144D01*
X0119869Y0118150D02*
X0119869Y0126150D01*
X0118075Y0129932D02*
X0113241Y0129932D01*
X0111643Y0128334D02*
X0116248Y0128334D01*
X0115688Y0126735D02*
X0110044Y0126735D01*
X0108446Y0125137D02*
X0115763Y0125137D01*
X0116568Y0123538D02*
X0106847Y0123538D01*
X0105249Y0121940D02*
X0117069Y0121940D01*
X0117069Y0120341D02*
X0103650Y0120341D01*
X0108059Y0109152D02*
X0084487Y0109152D01*
X0084487Y0110750D02*
X0116404Y0110750D01*
X0116695Y0112349D02*
X0083979Y0112349D01*
X0080912Y0108650D02*
X0044475Y0145087D01*
X0044475Y0179713D01*
X0047275Y0184282D02*
X0048426Y0184282D01*
X0048285Y0185880D02*
X0047275Y0185880D01*
X0041675Y0187479D02*
X0039270Y0187479D01*
X0057369Y0196032D02*
X0062093Y0196032D01*
X0062093Y0191111D02*
X0084731Y0190500D01*
X0084731Y0187351D02*
X0062093Y0186189D01*
X0062093Y0181268D02*
X0069869Y0181150D01*
X0074315Y0176289D02*
X0074687Y0176289D01*
X0074687Y0174691D02*
X0072286Y0174691D01*
X0100720Y0175863D02*
X0100720Y0197149D01*
X0114057Y0197149D01*
X0114057Y0193251D01*
X0114483Y0192221D01*
X0115271Y0191434D01*
X0116300Y0191007D01*
X0124956Y0191007D01*
X0124956Y0176063D01*
X0121878Y0176063D01*
X0102308Y0176063D01*
X0102108Y0175863D01*
X0101070Y0175863D01*
X0101070Y0171012D01*
X0101070Y0166161D01*
X0101070Y0171012D01*
X0101070Y0171012D01*
X0101070Y0180776D01*
X0101109Y0180815D01*
X0101701Y0180815D01*
X0100720Y0181085D02*
X0124956Y0181085D01*
X0124956Y0182683D02*
X0100720Y0182683D01*
X0100720Y0184282D02*
X0124956Y0184282D01*
X0124956Y0185880D02*
X0100720Y0185880D01*
X0100720Y0187479D02*
X0124956Y0187479D01*
X0124956Y0189077D02*
X0100720Y0189077D01*
X0100720Y0190676D02*
X0124956Y0190676D01*
X0125156Y0197070D02*
X0119657Y0197070D01*
X0119657Y0198668D02*
X0124956Y0198668D01*
X0114461Y0192274D02*
X0100720Y0192274D01*
X0100720Y0193873D02*
X0114057Y0193873D01*
X0114057Y0195471D02*
X0100720Y0195471D01*
X0100720Y0197070D02*
X0114057Y0197070D01*
X0114018Y0202749D02*
X0097363Y0202749D01*
X0089782Y0202749D01*
X0089782Y0211237D01*
X0112430Y0211237D01*
X0112630Y0211437D01*
X0113668Y0211437D01*
X0113668Y0216288D01*
X0113668Y0221139D01*
X0113668Y0216288D01*
X0113668Y0216288D01*
X0113668Y0216288D01*
X0113668Y0211437D01*
X0114018Y0211437D01*
X0114018Y0202749D01*
X0114018Y0203464D02*
X0089782Y0203464D01*
X0089782Y0205062D02*
X0114018Y0205062D01*
X0114018Y0206661D02*
X0089782Y0206661D01*
X0089782Y0208259D02*
X0114018Y0208259D01*
X0114018Y0209858D02*
X0089782Y0209858D01*
X0091621Y0216288D02*
X0084259Y0223650D01*
X0077369Y0223650D01*
X0057569Y0235434D02*
X0109569Y0235434D01*
X0109569Y0233836D02*
X0056783Y0233836D01*
X0057569Y0241828D02*
X0176887Y0241828D01*
X0176905Y0240230D02*
X0114745Y0240230D01*
X0115169Y0238631D02*
X0176924Y0238631D01*
X0176942Y0237033D02*
X0115169Y0237033D01*
X0115169Y0235434D02*
X0176961Y0235434D01*
X0176979Y0233836D02*
X0115169Y0233836D01*
X0115169Y0232237D02*
X0176998Y0232237D01*
X0177017Y0230639D02*
X0134340Y0230639D01*
X0135169Y0229040D02*
X0176846Y0229040D01*
X0182617Y0230639D02*
X0203667Y0230639D01*
X0205103Y0232237D02*
X0182598Y0232237D01*
X0182580Y0233836D02*
X0248595Y0233836D01*
X0248188Y0235434D02*
X0182561Y0235434D01*
X0182543Y0237033D02*
X0248209Y0237033D01*
X0248937Y0238631D02*
X0182524Y0238631D01*
X0182506Y0240230D02*
X0217904Y0240230D01*
X0217917Y0240180D02*
X0218154Y0239770D01*
X0218489Y0239435D01*
X0218899Y0239198D01*
X0219357Y0239075D01*
X0222369Y0239075D01*
X0225381Y0239075D01*
X0225839Y0239198D01*
X0226249Y0239435D01*
X0226584Y0239770D01*
X0226821Y0240180D01*
X0226944Y0240638D01*
X0226944Y0243650D01*
X0226944Y0246662D01*
X0226821Y0247120D01*
X0226584Y0247530D01*
X0226249Y0247865D01*
X0225839Y0248102D01*
X0225381Y0248225D01*
X0222369Y0248225D01*
X0222369Y0243650D01*
X0226944Y0243650D01*
X0222369Y0243650D01*
X0222369Y0243650D01*
X0222369Y0243650D01*
X0222369Y0239075D01*
X0222369Y0243650D01*
X0222369Y0243650D01*
X0222369Y0248225D01*
X0219357Y0248225D01*
X0218899Y0248102D01*
X0218489Y0247865D01*
X0218154Y0247530D01*
X0217917Y0247120D01*
X0217794Y0246662D01*
X0217794Y0243650D01*
X0222369Y0243650D01*
X0222369Y0243650D01*
X0217794Y0243650D01*
X0217794Y0240638D01*
X0217917Y0240180D01*
X0217794Y0241828D02*
X0182487Y0241828D01*
X0182468Y0243427D02*
X0217794Y0243427D01*
X0217794Y0245025D02*
X0182450Y0245025D01*
X0182431Y0246624D02*
X0217794Y0246624D01*
X0219348Y0248222D02*
X0182413Y0248222D01*
X0176812Y0248222D02*
X0166550Y0248222D01*
X0166410Y0249821D02*
X0176794Y0249821D01*
X0176775Y0251419D02*
X0165513Y0251419D01*
X0163595Y0254616D02*
X0175860Y0254616D01*
X0176757Y0253018D02*
X0137669Y0253018D01*
X0137669Y0254616D02*
X0140860Y0254616D01*
X0139745Y0256215D02*
X0137669Y0256215D01*
X0137669Y0257813D02*
X0139295Y0257813D01*
X0139313Y0259412D02*
X0137669Y0259412D01*
X0137669Y0261010D02*
X0139975Y0261010D01*
X0141415Y0262609D02*
X0137669Y0262609D01*
X0137669Y0264207D02*
X0149569Y0264207D01*
X0149569Y0265806D02*
X0137669Y0265806D01*
X0137380Y0267404D02*
X0149569Y0267404D01*
X0149289Y0262609D02*
X0147575Y0262609D01*
X0152369Y0258335D02*
X0152369Y0303650D01*
X0145417Y0308966D02*
X0040630Y0308966D01*
X0040581Y0307367D02*
X0144519Y0307367D01*
X0143857Y0305769D02*
X0039919Y0305769D01*
X0038704Y0304170D02*
X0143694Y0304170D01*
X0143694Y0302572D02*
X0036075Y0302572D01*
X0032285Y0302572D02*
X0024369Y0302572D01*
X0024369Y0304170D02*
X0029656Y0304170D01*
X0028441Y0305769D02*
X0024369Y0305769D01*
X0024369Y0307367D02*
X0027779Y0307367D01*
X0027730Y0308966D02*
X0024369Y0308966D01*
X0024369Y0310564D02*
X0027943Y0310564D01*
X0028605Y0312163D02*
X0024369Y0312163D01*
X0024369Y0313761D02*
X0030051Y0313761D01*
X0040417Y0310564D02*
X0147015Y0310564D01*
X0157723Y0310564D02*
X0167015Y0310564D01*
X0165417Y0308966D02*
X0159321Y0308966D01*
X0160219Y0307367D02*
X0164519Y0307367D01*
X0163857Y0305769D02*
X0160881Y0305769D01*
X0161044Y0304170D02*
X0163694Y0304170D01*
X0163694Y0302572D02*
X0161044Y0302572D01*
X0160650Y0300973D02*
X0164088Y0300973D01*
X0164750Y0299375D02*
X0159988Y0299375D01*
X0158763Y0297776D02*
X0165975Y0297776D01*
X0167741Y0296178D02*
X0156997Y0296178D01*
X0155169Y0294579D02*
X0197480Y0294579D01*
X0199079Y0292981D02*
X0155169Y0292981D01*
X0155169Y0291382D02*
X0200677Y0291382D01*
X0202276Y0289784D02*
X0155169Y0289784D01*
X0155169Y0288185D02*
X0203874Y0288185D01*
X0205473Y0286587D02*
X0155169Y0286587D01*
X0155169Y0284988D02*
X0207071Y0284988D01*
X0208670Y0283389D02*
X0155169Y0283389D01*
X0155169Y0281791D02*
X0210268Y0281791D01*
X0211867Y0280192D02*
X0155169Y0280192D01*
X0155169Y0278594D02*
X0213465Y0278594D01*
X0215064Y0276995D02*
X0155169Y0276995D01*
X0155169Y0275397D02*
X0216662Y0275397D01*
X0218261Y0273798D02*
X0155169Y0273798D01*
X0155169Y0272200D02*
X0219859Y0272200D01*
X0221458Y0270601D02*
X0155169Y0270601D01*
X0155169Y0269003D02*
X0223056Y0269003D01*
X0224655Y0267404D02*
X0155169Y0267404D01*
X0155169Y0265806D02*
X0226253Y0265806D01*
X0227852Y0264207D02*
X0155169Y0264207D01*
X0155449Y0262609D02*
X0157619Y0262609D01*
X0160243Y0262609D02*
X0160243Y0262609D01*
X0160243Y0261010D02*
X0160243Y0261010D01*
X0160243Y0259412D02*
X0160243Y0259412D01*
X0160243Y0257813D02*
X0160243Y0257813D01*
X0160243Y0256215D02*
X0160243Y0256215D01*
X0160243Y0254616D02*
X0160243Y0254616D01*
X0156891Y0254616D02*
X0156004Y0254616D01*
X0148734Y0254616D02*
X0148130Y0254616D01*
X0134869Y0248650D02*
X0134869Y0266150D01*
X0125243Y0262609D02*
X0125243Y0262609D01*
X0125243Y0261010D02*
X0125243Y0261010D01*
X0125243Y0259412D02*
X0125243Y0259412D01*
X0125243Y0258335D02*
X0125243Y0258335D01*
X0125243Y0257813D02*
X0125243Y0257813D01*
X0125243Y0256215D02*
X0125243Y0256215D01*
X0125243Y0254616D02*
X0125243Y0254616D01*
X0121891Y0254616D02*
X0121004Y0254616D01*
X0120449Y0262609D02*
X0122619Y0262609D01*
X0132069Y0251419D02*
X0056954Y0251419D01*
X0057569Y0249821D02*
X0132069Y0249821D01*
X0132069Y0248222D02*
X0057569Y0248222D01*
X0057569Y0246624D02*
X0132935Y0246624D01*
X0134869Y0248650D02*
X0162369Y0248650D01*
X0166055Y0246624D02*
X0176831Y0246624D01*
X0176849Y0245025D02*
X0164544Y0245025D01*
X0160194Y0245025D02*
X0056098Y0245025D01*
X0056821Y0243427D02*
X0176868Y0243427D01*
X0174745Y0256215D02*
X0164774Y0256215D01*
X0165223Y0257813D02*
X0174295Y0257813D01*
X0174313Y0259412D02*
X0165135Y0259412D01*
X0164480Y0261010D02*
X0174975Y0261010D01*
X0176415Y0262609D02*
X0162867Y0262609D01*
X0182575Y0262609D02*
X0184289Y0262609D01*
X0190449Y0262609D02*
X0192619Y0262609D01*
X0195243Y0262609D02*
X0195243Y0262609D01*
X0195243Y0261010D02*
X0195243Y0261010D01*
X0195243Y0259412D02*
X0195243Y0259412D01*
X0195243Y0257813D02*
X0195243Y0257813D01*
X0195243Y0256215D02*
X0195243Y0256215D01*
X0195243Y0254616D02*
X0195243Y0254616D01*
X0198595Y0254616D02*
X0237443Y0254616D01*
X0235844Y0256215D02*
X0199774Y0256215D01*
X0200223Y0257813D02*
X0234246Y0257813D01*
X0232647Y0259412D02*
X0200135Y0259412D01*
X0199480Y0261010D02*
X0231049Y0261010D01*
X0229450Y0262609D02*
X0197867Y0262609D01*
X0191891Y0254616D02*
X0191004Y0254616D01*
X0209635Y0232237D02*
X0246996Y0232237D01*
X0246834Y0240230D02*
X0251292Y0240230D01*
X0242369Y0240230D02*
X0242369Y0240230D01*
X0242369Y0239075D02*
X0242369Y0243650D01*
X0242369Y0243650D01*
X0242369Y0248225D01*
X0239357Y0248225D01*
X0238899Y0248102D01*
X0238489Y0247865D01*
X0238154Y0247530D01*
X0237917Y0247120D01*
X0237794Y0246662D01*
X0237794Y0243650D01*
X0242369Y0243650D01*
X0242369Y0243650D01*
X0237794Y0243650D01*
X0237794Y0240638D01*
X0237917Y0240180D01*
X0238154Y0239770D01*
X0238489Y0239435D01*
X0238899Y0239198D01*
X0239357Y0239075D01*
X0242369Y0239075D01*
X0242369Y0241828D02*
X0242369Y0241828D01*
X0242369Y0243427D02*
X0242369Y0243427D01*
X0242369Y0245025D02*
X0242369Y0245025D01*
X0242369Y0246624D02*
X0242369Y0246624D01*
X0242369Y0248222D02*
X0242369Y0248222D01*
X0239348Y0248222D02*
X0236175Y0248222D01*
X0235972Y0248425D02*
X0228766Y0248425D01*
X0227594Y0247253D01*
X0227594Y0240047D01*
X0228766Y0238875D01*
X0235972Y0238875D01*
X0237144Y0240047D01*
X0237144Y0247253D01*
X0235972Y0248425D01*
X0237144Y0246624D02*
X0237794Y0246624D01*
X0237794Y0245025D02*
X0237144Y0245025D01*
X0237144Y0243427D02*
X0237794Y0243427D01*
X0237794Y0241828D02*
X0237144Y0241828D01*
X0237144Y0240230D02*
X0237904Y0240230D01*
X0227594Y0240230D02*
X0226834Y0240230D01*
X0226944Y0241828D02*
X0227594Y0241828D01*
X0227594Y0243427D02*
X0226944Y0243427D01*
X0226944Y0245025D02*
X0227594Y0245025D01*
X0227594Y0246624D02*
X0226944Y0246624D01*
X0225390Y0248222D02*
X0228563Y0248222D01*
X0222369Y0248222D02*
X0222369Y0248222D01*
X0222369Y0246624D02*
X0222369Y0246624D01*
X0222369Y0245025D02*
X0222369Y0245025D01*
X0222369Y0243427D02*
X0222369Y0243427D01*
X0222369Y0241828D02*
X0222369Y0241828D01*
X0222369Y0240230D02*
X0222369Y0240230D01*
X0210475Y0225843D02*
X0238752Y0225843D01*
X0238188Y0224245D02*
X0183605Y0224245D01*
X0176133Y0224245D02*
X0155187Y0224245D01*
X0157369Y0213650D02*
X0247369Y0213650D01*
X0268473Y0205062D02*
X0146444Y0205062D01*
X0146550Y0206661D02*
X0281134Y0206661D01*
X0280369Y0205062D02*
X0276265Y0205062D01*
X0268400Y0203464D02*
X0145596Y0203464D01*
X0142369Y0206150D02*
X0130105Y0206150D01*
X0130007Y0206248D01*
X0135058Y0209858D02*
X0140395Y0209858D01*
X0135179Y0211456D02*
X0152343Y0211456D01*
X0157369Y0213650D02*
X0137369Y0216150D01*
X0127369Y0218650D02*
X0123117Y0216288D01*
X0113668Y0216252D02*
X0113668Y0216252D01*
X0113668Y0217851D02*
X0113668Y0217851D01*
X0113668Y0219449D02*
X0113668Y0219449D01*
X0113668Y0221048D02*
X0113668Y0221048D01*
X0113668Y0214653D02*
X0113668Y0214653D01*
X0113668Y0213055D02*
X0113668Y0213055D01*
X0113668Y0211456D02*
X0113668Y0211456D01*
X0097920Y0216288D02*
X0097453Y0216755D01*
X0097453Y0220002D01*
X0097369Y0220086D01*
X0097369Y0223650D01*
X0107669Y0227442D02*
X0109839Y0227442D01*
X0109569Y0229040D02*
X0107669Y0229040D01*
X0106840Y0230639D02*
X0109569Y0230639D01*
X0109569Y0232237D02*
X0035169Y0232237D01*
X0057288Y0256215D02*
X0104745Y0256215D01*
X0104295Y0257813D02*
X0057569Y0257813D01*
X0057569Y0259412D02*
X0104313Y0259412D01*
X0104975Y0261010D02*
X0057363Y0261010D01*
X0055764Y0262609D02*
X0106415Y0262609D01*
X0105551Y0273798D02*
X0109187Y0273798D01*
X0107561Y0275397D02*
X0107177Y0275397D01*
X0102369Y0278650D02*
X0102369Y0298650D01*
X0027369Y0298650D01*
X0024638Y0299375D02*
X0024369Y0299375D01*
X0024369Y0300973D02*
X0025732Y0300973D01*
X0024569Y0297776D02*
X0024369Y0297776D01*
X0024369Y0296178D02*
X0024569Y0296178D01*
X0024569Y0294579D02*
X0024369Y0294579D01*
X0024369Y0292981D02*
X0024569Y0292981D01*
X0024569Y0291382D02*
X0024369Y0291382D01*
X0024369Y0289784D02*
X0024569Y0289784D01*
X0024569Y0288185D02*
X0024369Y0288185D01*
X0024369Y0286587D02*
X0024569Y0286587D01*
X0024569Y0284988D02*
X0024369Y0284988D01*
X0024369Y0283389D02*
X0024569Y0283389D01*
X0024569Y0281791D02*
X0024369Y0281791D01*
X0024369Y0280192D02*
X0024569Y0280192D01*
X0024569Y0278594D02*
X0024369Y0278594D01*
X0042169Y0262609D02*
X0042569Y0262609D01*
X0042569Y0261010D02*
X0042169Y0261010D01*
X0042169Y0259412D02*
X0042569Y0259412D01*
X0045481Y0262609D02*
X0048974Y0262609D01*
X0047375Y0261010D02*
X0047080Y0261010D01*
X0087746Y0273798D02*
X0089187Y0273798D01*
X0095551Y0273798D02*
X0099187Y0273798D01*
X0097561Y0275397D02*
X0097177Y0275397D01*
X0105690Y0283389D02*
X0109047Y0283389D01*
X0107500Y0281791D02*
X0107238Y0281791D01*
X0105169Y0284988D02*
X0149569Y0284988D01*
X0149569Y0286587D02*
X0105169Y0286587D01*
X0105169Y0288185D02*
X0149569Y0288185D01*
X0149569Y0289784D02*
X0105169Y0289784D01*
X0105169Y0291382D02*
X0149569Y0291382D01*
X0149569Y0292981D02*
X0105169Y0292981D01*
X0105169Y0294579D02*
X0149569Y0294579D01*
X0147741Y0296178D02*
X0105169Y0296178D01*
X0105169Y0297776D02*
X0145975Y0297776D01*
X0144750Y0299375D02*
X0105100Y0299375D01*
X0104006Y0300973D02*
X0144088Y0300973D01*
X0176997Y0296178D02*
X0187741Y0296178D01*
X0185975Y0297776D02*
X0178763Y0297776D01*
X0179988Y0299375D02*
X0184750Y0299375D01*
X0184088Y0300973D02*
X0180650Y0300973D01*
X0181044Y0302572D02*
X0183694Y0302572D01*
X0183694Y0304170D02*
X0181044Y0304170D01*
X0180881Y0305769D02*
X0183857Y0305769D01*
X0184519Y0307367D02*
X0180219Y0307367D01*
X0179321Y0308966D02*
X0185417Y0308966D01*
X0187015Y0310564D02*
X0177723Y0310564D01*
X0205400Y0294579D02*
X0322480Y0294579D01*
X0324079Y0292981D02*
X0206998Y0292981D01*
X0208597Y0291382D02*
X0325677Y0291382D01*
X0327276Y0289784D02*
X0210195Y0289784D01*
X0211794Y0288185D02*
X0328874Y0288185D01*
X0330473Y0286587D02*
X0213392Y0286587D01*
X0214991Y0284988D02*
X0332071Y0284988D01*
X0333670Y0283389D02*
X0216589Y0283389D01*
X0218188Y0281791D02*
X0335268Y0281791D01*
X0336867Y0280192D02*
X0219786Y0280192D01*
X0221385Y0278594D02*
X0338465Y0278594D01*
X0340064Y0276995D02*
X0222983Y0276995D01*
X0224582Y0275397D02*
X0341662Y0275397D01*
X0343261Y0273798D02*
X0226180Y0273798D01*
X0227779Y0272200D02*
X0344859Y0272200D01*
X0346458Y0270601D02*
X0229377Y0270601D01*
X0230976Y0269003D02*
X0348056Y0269003D01*
X0349655Y0267404D02*
X0232574Y0267404D01*
X0234173Y0265806D02*
X0351253Y0265806D01*
X0352852Y0264207D02*
X0235771Y0264207D01*
X0237370Y0262609D02*
X0354450Y0262609D01*
X0356049Y0261010D02*
X0238968Y0261010D01*
X0240567Y0259412D02*
X0357647Y0259412D01*
X0359246Y0257813D02*
X0242165Y0257813D01*
X0292487Y0234910D02*
X0292487Y0208493D01*
X0287081Y0197070D02*
X0286319Y0197070D01*
X0286319Y0195471D02*
X0287081Y0195471D01*
X0287081Y0192274D02*
X0286319Y0192274D01*
X0286319Y0190676D02*
X0287081Y0190676D01*
X0293030Y0185880D02*
X0305208Y0185880D01*
X0310309Y0185880D02*
X0311909Y0185880D01*
X0311909Y0187479D02*
X0310309Y0187479D01*
X0310309Y0189077D02*
X0311909Y0189077D01*
X0311909Y0190676D02*
X0310309Y0190676D01*
X0310309Y0192274D02*
X0311909Y0192274D01*
X0317010Y0185880D02*
X0414070Y0185880D01*
X0414070Y0184282D02*
X0293030Y0184282D01*
X0293030Y0182683D02*
X0414070Y0182683D01*
X0414070Y0181085D02*
X0292711Y0181085D01*
X0292432Y0171494D02*
X0414070Y0171494D01*
X0414070Y0173092D02*
X0276337Y0173092D01*
X0276337Y0174691D02*
X0414070Y0174691D01*
X0414070Y0176289D02*
X0275317Y0176289D01*
X0272369Y0180304D02*
X0272369Y0171996D01*
X0276660Y0167705D01*
X0286700Y0167705D01*
X0293030Y0168297D02*
X0414070Y0168297D01*
X0414070Y0169895D02*
X0293030Y0169895D01*
X0280967Y0171494D02*
X0276832Y0171494D01*
X0268400Y0171494D02*
X0126200Y0171494D01*
X0126200Y0173092D02*
X0268400Y0173092D01*
X0268400Y0174691D02*
X0126200Y0174691D01*
X0124956Y0176289D02*
X0100720Y0176289D01*
X0100720Y0175863D02*
X0101070Y0175863D01*
X0101070Y0171012D01*
X0101070Y0171012D01*
X0101070Y0171494D02*
X0101070Y0171494D01*
X0101070Y0173092D02*
X0101070Y0173092D01*
X0101070Y0174691D02*
X0101070Y0174691D01*
X0100720Y0177888D02*
X0124956Y0177888D01*
X0124956Y0179486D02*
X0100720Y0179486D01*
X0101070Y0169895D02*
X0101070Y0169895D01*
X0101070Y0168297D02*
X0101070Y0168297D01*
X0101070Y0166698D02*
X0101070Y0166698D01*
X0100720Y0165100D02*
X0214792Y0165100D01*
X0213775Y0163501D02*
X0100720Y0163501D01*
X0100720Y0161903D02*
X0213282Y0161903D01*
X0213282Y0160304D02*
X0101958Y0160304D01*
X0103557Y0158706D02*
X0213798Y0158706D01*
X0214846Y0157107D02*
X0105155Y0157107D01*
X0125765Y0166698D02*
X0217147Y0166698D01*
X0221292Y0166698D02*
X0268600Y0166698D01*
X0268600Y0165119D02*
X0268600Y0162901D01*
X0268723Y0162443D01*
X0268960Y0162033D01*
X0269295Y0161698D01*
X0269706Y0161461D01*
X0270163Y0161338D01*
X0272185Y0161338D01*
X0272185Y0165119D01*
X0268600Y0165119D01*
X0268600Y0165100D02*
X0223646Y0165100D01*
X0224663Y0163501D02*
X0268600Y0163501D01*
X0269090Y0161903D02*
X0225156Y0161903D01*
X0225156Y0160304D02*
X0268714Y0160304D01*
X0268400Y0158706D02*
X0224641Y0158706D01*
X0223592Y0157107D02*
X0233338Y0157107D01*
X0236596Y0157107D02*
X0268400Y0157107D01*
X0272185Y0161903D02*
X0272553Y0161903D01*
X0272553Y0163501D02*
X0272185Y0163501D01*
X0272185Y0165100D02*
X0272553Y0165100D01*
X0276137Y0163501D02*
X0281382Y0163501D01*
X0280431Y0161903D02*
X0275647Y0161903D01*
X0276024Y0160304D02*
X0280369Y0160304D01*
X0268800Y0168297D02*
X0126200Y0168297D01*
X0126200Y0169895D02*
X0268400Y0169895D01*
X0292799Y0152312D02*
X0304778Y0152312D01*
X0304997Y0150713D02*
X0292830Y0150713D01*
X0257965Y0121940D02*
X0396773Y0121940D01*
X0396111Y0120341D02*
X0258627Y0120341D01*
X0258798Y0118743D02*
X0395940Y0118743D01*
X0396034Y0117144D02*
X0258704Y0117144D01*
X0258042Y0115546D02*
X0396696Y0115546D01*
X0397980Y0113947D02*
X0256758Y0113947D01*
X0253957Y0112349D02*
X0397820Y0112349D01*
X0402369Y0118650D02*
X0382684Y0043650D01*
X0378424Y0038817D02*
X0236630Y0038817D01*
X0238027Y0040416D02*
X0377065Y0040416D01*
X0398791Y0023052D02*
X0397809Y0020681D01*
X0397809Y0018115D01*
X0398791Y0015744D01*
X0400605Y0013930D01*
X0402976Y0012948D01*
X0405542Y0012948D01*
X0407912Y0013930D01*
X0409727Y0015744D01*
X0410709Y0018115D01*
X0410709Y0020681D01*
X0409727Y0023052D01*
X0407912Y0024866D01*
X0405542Y0025848D01*
X0402976Y0025848D01*
X0400605Y0024866D01*
X0398791Y0023052D01*
X0398700Y0022832D02*
X0039739Y0022832D01*
X0039648Y0023052D02*
X0040630Y0020681D01*
X0040630Y0018115D01*
X0039648Y0015744D01*
X0037834Y0013930D01*
X0035463Y0012948D01*
X0032897Y0012948D01*
X0030526Y0013930D01*
X0028712Y0015744D01*
X0027730Y0018115D01*
X0027730Y0020681D01*
X0028712Y0023052D01*
X0030526Y0024866D01*
X0032897Y0025848D01*
X0035463Y0025848D01*
X0037834Y0024866D01*
X0039648Y0023052D01*
X0038269Y0024431D02*
X0400170Y0024431D01*
X0398038Y0021234D02*
X0040401Y0021234D01*
X0040630Y0019635D02*
X0397809Y0019635D01*
X0397841Y0018037D02*
X0040597Y0018037D01*
X0039935Y0016438D02*
X0398503Y0016438D01*
X0399695Y0014840D02*
X0038743Y0014840D01*
X0036170Y0013241D02*
X0402268Y0013241D01*
X0406249Y0013241D02*
X0414070Y0013241D01*
X0414070Y0011643D02*
X0024369Y0011643D01*
X0024369Y0013241D02*
X0032190Y0013241D01*
X0029617Y0014840D02*
X0024369Y0014840D01*
X0024369Y0016438D02*
X0028425Y0016438D01*
X0027762Y0018037D02*
X0024369Y0018037D01*
X0024369Y0019635D02*
X0027730Y0019635D01*
X0027959Y0021234D02*
X0024369Y0021234D01*
X0024369Y0022832D02*
X0028621Y0022832D01*
X0030091Y0024431D02*
X0024369Y0024431D01*
X0024369Y0026029D02*
X0414070Y0026029D01*
X0414070Y0024431D02*
X0408348Y0024431D01*
X0409818Y0022832D02*
X0414070Y0022832D01*
X0414070Y0021234D02*
X0410480Y0021234D01*
X0410709Y0019635D02*
X0414070Y0019635D01*
X0414070Y0018037D02*
X0410676Y0018037D01*
X0410014Y0016438D02*
X0414070Y0016438D01*
X0414070Y0014840D02*
X0408822Y0014840D01*
X0414070Y0010044D02*
X0024369Y0010044D01*
X0024369Y0008446D02*
X0414070Y0008446D01*
X0414070Y0006847D02*
X0024369Y0006847D01*
X0024369Y0027628D02*
X0414070Y0027628D01*
X0414070Y0029226D02*
X0024369Y0029226D01*
X0024369Y0030825D02*
X0414070Y0030825D01*
X0414070Y0032423D02*
X0024369Y0032423D01*
X0024369Y0034022D02*
X0414070Y0034022D01*
X0414070Y0035620D02*
X0024369Y0035620D01*
X0024369Y0050007D02*
X0115251Y0050007D01*
X0115251Y0051605D02*
X0024369Y0051605D01*
X0024369Y0053204D02*
X0116026Y0053204D01*
X0112553Y0054802D02*
X0112185Y0054802D01*
X0112185Y0056401D02*
X0112553Y0056401D01*
X0112553Y0057999D02*
X0112185Y0057999D01*
X0112185Y0059598D02*
X0112553Y0059598D01*
X0115937Y0062680D02*
X0118668Y0059949D01*
X0118826Y0059792D01*
X0118826Y0048650D01*
X0115499Y0045211D02*
X0061522Y0045211D01*
X0083604Y0092751D02*
X0110868Y0065486D01*
X0115000Y0065486D01*
X0115937Y0064549D01*
X0115937Y0062680D01*
X0124783Y0062795D02*
X0125152Y0062795D01*
X0125152Y0064393D02*
X0124783Y0064393D01*
X0124783Y0061196D02*
X0125152Y0061196D01*
X0124967Y0059949D02*
X0125912Y0059004D01*
X0125152Y0059598D02*
X0124783Y0059598D01*
X0124783Y0057999D02*
X0125152Y0057999D01*
X0125152Y0056401D02*
X0124783Y0056401D01*
X0124783Y0054802D02*
X0125152Y0054802D01*
X0137382Y0054802D02*
X0137750Y0054802D01*
X0137750Y0056401D02*
X0137382Y0056401D01*
X0137382Y0057999D02*
X0137750Y0057999D01*
X0137750Y0059598D02*
X0137382Y0059598D01*
X0137382Y0061196D02*
X0137750Y0061196D01*
X0137750Y0062795D02*
X0137382Y0062795D01*
X0137382Y0064393D02*
X0137750Y0064393D01*
X0109418Y0091568D02*
X0109021Y0091568D01*
X0103118Y0091568D02*
X0102722Y0091568D01*
X0096819Y0091568D02*
X0096423Y0091568D01*
X0083604Y0092751D02*
X0083604Y0094620D01*
X0080873Y0097351D01*
X0080912Y0108650D01*
X0084487Y0107553D02*
X0107951Y0107553D01*
X0107951Y0106150D02*
X0111326Y0106150D01*
X0107951Y0106150D01*
X0107951Y0105955D02*
X0084487Y0105955D01*
X0083697Y0104356D02*
X0107951Y0104356D01*
X0111326Y0106150D02*
X0111326Y0106150D01*
X0111326Y0107553D02*
X0111326Y0107553D01*
X0111326Y0109152D02*
X0111326Y0109152D01*
X0114593Y0109152D02*
X0114837Y0109152D01*
X0114837Y0107553D02*
X0114700Y0107553D01*
X0114700Y0105955D02*
X0114837Y0105955D01*
X0114837Y0104356D02*
X0114700Y0104356D01*
X0134900Y0104356D02*
X0135037Y0104356D01*
X0135037Y0105955D02*
X0134900Y0105955D01*
X0134900Y0107553D02*
X0135037Y0107553D01*
X0135145Y0109152D02*
X0134900Y0109152D01*
X0138412Y0109152D02*
X0138412Y0109152D01*
X0138412Y0107553D02*
X0138412Y0107553D01*
X0138412Y0106150D02*
X0138412Y0106150D01*
X0035781Y0112349D02*
X0024369Y0112349D01*
X0024369Y0113947D02*
X0032980Y0113947D01*
X0031696Y0115546D02*
X0024369Y0115546D01*
X0024369Y0117144D02*
X0031034Y0117144D01*
X0030940Y0118743D02*
X0024369Y0118743D01*
X0024369Y0120341D02*
X0031111Y0120341D01*
X0031773Y0121940D02*
X0024369Y0121940D01*
X0024369Y0123538D02*
X0033165Y0123538D01*
X0076920Y0197070D02*
X0079880Y0197070D01*
X0135169Y0227442D02*
X0135597Y0227442D01*
X0272185Y0193873D02*
X0272553Y0193873D01*
X0307144Y0243427D02*
X0307594Y0243427D01*
X0307594Y0245025D02*
X0307144Y0245025D01*
X0307144Y0246624D02*
X0307594Y0246624D01*
X0308563Y0248222D02*
X0306175Y0248222D01*
X0336175Y0248222D02*
X0339428Y0248222D01*
X0339197Y0241828D02*
X0337144Y0241828D01*
X0337144Y0240230D02*
X0399569Y0240230D01*
X0399569Y0241828D02*
X0354919Y0241828D01*
X0356197Y0243427D02*
X0399569Y0243427D01*
X0399569Y0245025D02*
X0369544Y0245025D01*
X0371055Y0246624D02*
X0399569Y0246624D01*
X0399569Y0248222D02*
X0371550Y0248222D01*
X0371410Y0249821D02*
X0399569Y0249821D01*
X0399569Y0251419D02*
X0370513Y0251419D01*
X0367369Y0248650D02*
X0352448Y0248650D01*
X0352448Y0253018D02*
X0352448Y0253018D01*
X0352448Y0254616D02*
X0352448Y0254616D01*
X0355974Y0254616D02*
X0397443Y0254616D01*
X0399041Y0253018D02*
X0356197Y0253018D01*
X0348921Y0254616D02*
X0346160Y0254616D01*
X0356197Y0245025D02*
X0365194Y0245025D01*
X0352448Y0243427D02*
X0352448Y0243427D01*
X0352448Y0241828D02*
X0352448Y0241828D01*
X0386530Y0272200D02*
X0388130Y0272200D01*
X0388130Y0273798D02*
X0386530Y0273798D01*
X0386530Y0275397D02*
X0388130Y0275397D01*
X0390275Y0272200D02*
X0404463Y0272200D01*
X0406608Y0272200D02*
X0408208Y0272200D01*
X0408208Y0273798D02*
X0406608Y0273798D01*
X0406608Y0275397D02*
X0408208Y0275397D01*
X0408208Y0276995D02*
X0406608Y0276995D01*
X0402250Y0273798D02*
X0392488Y0273798D01*
X0393615Y0275397D02*
X0401123Y0275397D01*
X0400542Y0276995D02*
X0394196Y0276995D01*
X0394205Y0280192D02*
X0400533Y0280192D01*
X0401103Y0281791D02*
X0393635Y0281791D01*
X0392522Y0283389D02*
X0395043Y0283389D01*
X0392899Y0284988D02*
X0390357Y0284988D01*
X0388130Y0284988D02*
X0386530Y0284988D01*
X0386530Y0285617D02*
X0385952Y0285540D01*
X0385059Y0285301D01*
X0384205Y0284948D01*
X0383405Y0284485D01*
X0382672Y0283923D01*
X0382018Y0283269D01*
X0381456Y0282536D01*
X0380993Y0281736D01*
X0380640Y0280882D01*
X0380401Y0279989D01*
X0380324Y0279411D01*
X0386530Y0279411D01*
X0386530Y0285617D01*
X0386530Y0283389D02*
X0388130Y0283389D01*
X0388130Y0281791D02*
X0386530Y0281791D01*
X0386530Y0280192D02*
X0388130Y0280192D01*
X0384303Y0284988D02*
X0339991Y0284988D01*
X0341589Y0283389D02*
X0382138Y0283389D01*
X0381025Y0281791D02*
X0343188Y0281791D01*
X0344786Y0280192D02*
X0380455Y0280192D01*
X0392000Y0286587D02*
X0338392Y0286587D01*
X0336794Y0288185D02*
X0391619Y0288185D01*
X0391619Y0289784D02*
X0335195Y0289784D01*
X0333597Y0291382D02*
X0392277Y0291382D01*
X0393921Y0296178D02*
X0400817Y0296178D01*
X0400417Y0297776D02*
X0394321Y0297776D01*
X0394015Y0300973D02*
X0400723Y0300973D01*
X0401509Y0302572D02*
X0393229Y0302572D01*
X0391768Y0304170D02*
X0402970Y0304170D01*
X0406608Y0297776D02*
X0408208Y0297776D01*
X0408208Y0296178D02*
X0406608Y0296178D01*
X0406608Y0294579D02*
X0408208Y0294579D01*
X0408208Y0292981D02*
X0406608Y0292981D01*
X0411549Y0292981D02*
X0414070Y0292981D01*
X0414070Y0294579D02*
X0413141Y0294579D01*
X0413999Y0296178D02*
X0414070Y0296178D01*
X0414070Y0284988D02*
X0410435Y0284988D01*
X0412600Y0283389D02*
X0414070Y0283389D01*
X0414070Y0281791D02*
X0413713Y0281791D01*
X0413693Y0275397D02*
X0414070Y0275397D01*
X0414070Y0273798D02*
X0412566Y0273798D01*
X0414070Y0272200D02*
X0410353Y0272200D01*
X0402216Y0283389D02*
X0399694Y0283389D01*
X0402369Y0253650D02*
X0402369Y0193650D01*
X0398165Y0123538D02*
X0256573Y0123538D01*
D34*
X0234967Y0153256D03*
X0262369Y0183650D03*
X0242369Y0223650D03*
X0252369Y0236150D03*
X0252369Y0251150D03*
X0207369Y0228650D03*
X0179869Y0226150D03*
X0162369Y0248650D03*
X0137369Y0223650D03*
X0137369Y0216150D03*
X0127369Y0218650D03*
X0119869Y0223650D03*
X0097369Y0223650D03*
X0077369Y0223650D03*
X0072395Y0194615D03*
X0069869Y0181150D03*
X0093235Y0180815D03*
X0101701Y0180815D03*
X0142369Y0206150D03*
X0152369Y0188650D03*
X0162369Y0181150D03*
X0177369Y0196150D03*
X0093235Y0133571D03*
X0094869Y0126150D03*
X0119869Y0126150D03*
X0037369Y0293650D03*
X0367369Y0248650D03*
M02*
