%
M48
M72
T01C0.02362
T02C0.02756
T03C0.03150
T04C0.03600
T05C0.04000
T06C0.05000
T07C0.05906
T08C0.07000
T09C0.07874
T10C0.08900
T11C0.09350
%
T01
X94869Y126150
X93235Y133571
X119869Y126150
X101701Y180815
X93235Y180815
X72395Y194615
X69869Y181150
X77369Y223650
X97369Y223650
X119869Y223650
X127369Y218650
X137369Y216150
X137369Y223650
X142369Y206150
X152369Y188650
X162369Y181150
X177369Y196150
X179869Y226150
X207369Y228650
X242369Y223650
X252369Y236150
X252369Y251150
X262369Y183650
X234967Y153256
X162369Y248650
X37369Y293650
X367369Y248650
T02
X195243Y258335
X187369Y258335
X179495Y258335
X160243Y258335
X152369Y258335
X144495Y258335
X125243Y258335
X117369Y258335
X109495Y258335
T03
X222369Y243650
X232369Y243650
X242369Y243650
X302369Y243650
X312369Y243650
X322369Y243650
X332369Y243650
T04
X62369Y278650
X52369Y278650
X42369Y278650
X32369Y278650
T05
X42369Y258650
X52369Y258650
X52369Y248650
X42369Y248650
X42369Y238650
X52369Y238650
X82369Y278650
X92369Y278650
X102369Y278650
X112369Y278650
X122369Y278650
X132369Y278650
T06
X397369Y288650
T07
X402369Y193650
X402369Y118650
X382684Y43650
X252369Y118650
X187369Y118650
X187369Y193650
X252369Y193650
X232684Y43650
X205479Y43650
X55479Y43650
X37369Y118650
X37369Y193650
T08
X387330Y278611
X407408Y278611
X407408Y298689
X387330Y298689
T09
X219219Y161130
T10
X34180Y19398
X404259Y19398
X34180Y308768
T11
X152369Y303650
X172369Y303650
X192369Y303650
M30
