G75*
%MOIN*%
%OFA0B0*%
%FSLAX25Y25*%
%IPPOS*%
%LPD*%
%AMOC8*
5,1,8,0,0,1.08239X$1,22.5*
%
%ADD10C,0.00800*%
%ADD11C,0.00400*%
%ADD12C,0.00000*%
%ADD13C,0.00500*%
%ADD14C,0.01000*%
%ADD15C,0.00600*%
%ADD16R,0.01181X0.00591*%
%ADD17R,0.01181X0.01181*%
D10*
X0229297Y0082790D02*
X0229297Y0087394D01*
X0230831Y0088929D01*
X0233900Y0088929D01*
X0235435Y0087394D01*
X0235435Y0082790D01*
X0238504Y0082790D02*
X0229297Y0082790D01*
X0229297Y0091998D02*
X0238504Y0091998D01*
X0233900Y0091998D02*
X0232366Y0093533D01*
X0232366Y0096602D01*
X0233900Y0098137D01*
X0238504Y0098137D01*
X0236970Y0101206D02*
X0238504Y0102741D01*
X0238504Y0107344D01*
X0240039Y0107344D02*
X0241574Y0105810D01*
X0241574Y0104275D01*
X0240039Y0107344D02*
X0232366Y0107344D01*
X0233900Y0110414D02*
X0232366Y0111948D01*
X0232366Y0116552D01*
X0235435Y0115018D02*
X0235435Y0111948D01*
X0233900Y0110414D01*
X0238504Y0110414D02*
X0238504Y0115018D01*
X0236970Y0116552D01*
X0235435Y0115018D01*
X0233900Y0119622D02*
X0236970Y0119622D01*
X0238504Y0121156D01*
X0238504Y0124226D01*
X0236970Y0125760D01*
X0233900Y0125760D01*
X0232366Y0124226D01*
X0232366Y0121156D01*
X0233900Y0119622D01*
X0233900Y0128829D02*
X0232366Y0130364D01*
X0232366Y0133433D01*
X0233900Y0134968D01*
X0236970Y0134968D01*
X0238504Y0133433D01*
X0238504Y0130364D01*
X0236970Y0128829D01*
X0233900Y0128829D01*
X0232366Y0138037D02*
X0232366Y0142641D01*
X0233900Y0144176D01*
X0238504Y0144176D01*
X0238504Y0138037D02*
X0232366Y0138037D01*
X0230831Y0156453D02*
X0229297Y0157988D01*
X0229297Y0161057D01*
X0230831Y0162592D01*
X0232366Y0162592D01*
X0238504Y0156453D01*
X0238504Y0162592D01*
X0238504Y0165661D02*
X0236970Y0165661D01*
X0236970Y0167196D01*
X0238504Y0167196D01*
X0238504Y0165661D01*
X0236970Y0170265D02*
X0230831Y0170265D01*
X0229297Y0171799D01*
X0229297Y0174869D01*
X0230831Y0176403D01*
X0236970Y0170265D01*
X0238504Y0171799D01*
X0238504Y0174869D01*
X0236970Y0176403D01*
X0230831Y0176403D01*
X0203117Y0232744D02*
X0171621Y0232744D01*
X0171621Y0263453D01*
X0174377Y0263453D01*
X0174377Y0258335D01*
X0168117Y0263453D02*
X0165361Y0263453D01*
X0165361Y0258335D01*
X0168117Y0263453D02*
X0168117Y0232744D01*
X0136621Y0232744D01*
X0136621Y0263453D01*
X0139377Y0263453D01*
X0139377Y0258335D01*
X0133117Y0263453D02*
X0130361Y0263453D01*
X0130361Y0258335D01*
X0133117Y0263453D02*
X0133117Y0232744D01*
X0101621Y0232744D01*
X0101621Y0263453D01*
X0104377Y0263453D01*
X0104377Y0258335D01*
X0200361Y0258335D02*
X0200361Y0263453D01*
X0203117Y0263453D01*
X0203117Y0232744D01*
X0232366Y0101206D02*
X0236970Y0101206D01*
X0393038Y0276052D02*
X0401700Y0276052D01*
X0409967Y0284319D02*
X0409967Y0292981D01*
X0401700Y0301248D02*
X0393038Y0301248D01*
X0384771Y0292981D02*
X0384771Y0284319D01*
X0390676Y0288650D02*
X0390678Y0288814D01*
X0390684Y0288978D01*
X0390694Y0289142D01*
X0390708Y0289306D01*
X0390726Y0289469D01*
X0390748Y0289632D01*
X0390775Y0289794D01*
X0390805Y0289956D01*
X0390839Y0290116D01*
X0390877Y0290276D01*
X0390918Y0290435D01*
X0390964Y0290593D01*
X0391014Y0290749D01*
X0391067Y0290905D01*
X0391124Y0291059D01*
X0391185Y0291211D01*
X0391250Y0291362D01*
X0391319Y0291512D01*
X0391391Y0291659D01*
X0391466Y0291805D01*
X0391546Y0291949D01*
X0391628Y0292091D01*
X0391714Y0292231D01*
X0391804Y0292368D01*
X0391897Y0292504D01*
X0391993Y0292637D01*
X0392093Y0292768D01*
X0392195Y0292896D01*
X0392301Y0293022D01*
X0392410Y0293145D01*
X0392522Y0293265D01*
X0392636Y0293383D01*
X0392754Y0293497D01*
X0392874Y0293609D01*
X0392997Y0293718D01*
X0393123Y0293824D01*
X0393251Y0293926D01*
X0393382Y0294026D01*
X0393515Y0294122D01*
X0393651Y0294215D01*
X0393788Y0294305D01*
X0393928Y0294391D01*
X0394070Y0294473D01*
X0394214Y0294553D01*
X0394360Y0294628D01*
X0394507Y0294700D01*
X0394657Y0294769D01*
X0394808Y0294834D01*
X0394960Y0294895D01*
X0395114Y0294952D01*
X0395270Y0295005D01*
X0395426Y0295055D01*
X0395584Y0295101D01*
X0395743Y0295142D01*
X0395903Y0295180D01*
X0396063Y0295214D01*
X0396225Y0295244D01*
X0396387Y0295271D01*
X0396550Y0295293D01*
X0396713Y0295311D01*
X0396877Y0295325D01*
X0397041Y0295335D01*
X0397205Y0295341D01*
X0397369Y0295343D01*
X0397533Y0295341D01*
X0397697Y0295335D01*
X0397861Y0295325D01*
X0398025Y0295311D01*
X0398188Y0295293D01*
X0398351Y0295271D01*
X0398513Y0295244D01*
X0398675Y0295214D01*
X0398835Y0295180D01*
X0398995Y0295142D01*
X0399154Y0295101D01*
X0399312Y0295055D01*
X0399468Y0295005D01*
X0399624Y0294952D01*
X0399778Y0294895D01*
X0399930Y0294834D01*
X0400081Y0294769D01*
X0400231Y0294700D01*
X0400378Y0294628D01*
X0400524Y0294553D01*
X0400668Y0294473D01*
X0400810Y0294391D01*
X0400950Y0294305D01*
X0401087Y0294215D01*
X0401223Y0294122D01*
X0401356Y0294026D01*
X0401487Y0293926D01*
X0401615Y0293824D01*
X0401741Y0293718D01*
X0401864Y0293609D01*
X0401984Y0293497D01*
X0402102Y0293383D01*
X0402216Y0293265D01*
X0402328Y0293145D01*
X0402437Y0293022D01*
X0402543Y0292896D01*
X0402645Y0292768D01*
X0402745Y0292637D01*
X0402841Y0292504D01*
X0402934Y0292368D01*
X0403024Y0292231D01*
X0403110Y0292091D01*
X0403192Y0291949D01*
X0403272Y0291805D01*
X0403347Y0291659D01*
X0403419Y0291512D01*
X0403488Y0291362D01*
X0403553Y0291211D01*
X0403614Y0291059D01*
X0403671Y0290905D01*
X0403724Y0290749D01*
X0403774Y0290593D01*
X0403820Y0290435D01*
X0403861Y0290276D01*
X0403899Y0290116D01*
X0403933Y0289956D01*
X0403963Y0289794D01*
X0403990Y0289632D01*
X0404012Y0289469D01*
X0404030Y0289306D01*
X0404044Y0289142D01*
X0404054Y0288978D01*
X0404060Y0288814D01*
X0404062Y0288650D01*
X0404060Y0288486D01*
X0404054Y0288322D01*
X0404044Y0288158D01*
X0404030Y0287994D01*
X0404012Y0287831D01*
X0403990Y0287668D01*
X0403963Y0287506D01*
X0403933Y0287344D01*
X0403899Y0287184D01*
X0403861Y0287024D01*
X0403820Y0286865D01*
X0403774Y0286707D01*
X0403724Y0286551D01*
X0403671Y0286395D01*
X0403614Y0286241D01*
X0403553Y0286089D01*
X0403488Y0285938D01*
X0403419Y0285788D01*
X0403347Y0285641D01*
X0403272Y0285495D01*
X0403192Y0285351D01*
X0403110Y0285209D01*
X0403024Y0285069D01*
X0402934Y0284932D01*
X0402841Y0284796D01*
X0402745Y0284663D01*
X0402645Y0284532D01*
X0402543Y0284404D01*
X0402437Y0284278D01*
X0402328Y0284155D01*
X0402216Y0284035D01*
X0402102Y0283917D01*
X0401984Y0283803D01*
X0401864Y0283691D01*
X0401741Y0283582D01*
X0401615Y0283476D01*
X0401487Y0283374D01*
X0401356Y0283274D01*
X0401223Y0283178D01*
X0401087Y0283085D01*
X0400950Y0282995D01*
X0400810Y0282909D01*
X0400668Y0282827D01*
X0400524Y0282747D01*
X0400378Y0282672D01*
X0400231Y0282600D01*
X0400081Y0282531D01*
X0399930Y0282466D01*
X0399778Y0282405D01*
X0399624Y0282348D01*
X0399468Y0282295D01*
X0399312Y0282245D01*
X0399154Y0282199D01*
X0398995Y0282158D01*
X0398835Y0282120D01*
X0398675Y0282086D01*
X0398513Y0282056D01*
X0398351Y0282029D01*
X0398188Y0282007D01*
X0398025Y0281989D01*
X0397861Y0281975D01*
X0397697Y0281965D01*
X0397533Y0281959D01*
X0397369Y0281957D01*
X0397205Y0281959D01*
X0397041Y0281965D01*
X0396877Y0281975D01*
X0396713Y0281989D01*
X0396550Y0282007D01*
X0396387Y0282029D01*
X0396225Y0282056D01*
X0396063Y0282086D01*
X0395903Y0282120D01*
X0395743Y0282158D01*
X0395584Y0282199D01*
X0395426Y0282245D01*
X0395270Y0282295D01*
X0395114Y0282348D01*
X0394960Y0282405D01*
X0394808Y0282466D01*
X0394657Y0282531D01*
X0394507Y0282600D01*
X0394360Y0282672D01*
X0394214Y0282747D01*
X0394070Y0282827D01*
X0393928Y0282909D01*
X0393788Y0282995D01*
X0393651Y0283085D01*
X0393515Y0283178D01*
X0393382Y0283274D01*
X0393251Y0283374D01*
X0393123Y0283476D01*
X0392997Y0283582D01*
X0392874Y0283691D01*
X0392754Y0283803D01*
X0392636Y0283917D01*
X0392522Y0284035D01*
X0392410Y0284155D01*
X0392301Y0284278D01*
X0392195Y0284404D01*
X0392093Y0284532D01*
X0391993Y0284663D01*
X0391897Y0284796D01*
X0391804Y0284932D01*
X0391714Y0285069D01*
X0391628Y0285209D01*
X0391546Y0285351D01*
X0391466Y0285495D01*
X0391391Y0285641D01*
X0391319Y0285788D01*
X0391250Y0285938D01*
X0391185Y0286089D01*
X0391124Y0286241D01*
X0391067Y0286395D01*
X0391014Y0286551D01*
X0390964Y0286707D01*
X0390918Y0286865D01*
X0390877Y0287024D01*
X0390839Y0287184D01*
X0390805Y0287344D01*
X0390775Y0287506D01*
X0390748Y0287668D01*
X0390726Y0287831D01*
X0390708Y0287994D01*
X0390694Y0288158D01*
X0390684Y0288322D01*
X0390678Y0288486D01*
X0390676Y0288650D01*
D11*
X0390245Y0268296D02*
X0391780Y0266762D01*
X0391780Y0263693D01*
X0393315Y0263693D02*
X0393315Y0268296D01*
X0396384Y0263693D01*
X0396384Y0268296D01*
X0397919Y0268296D02*
X0400988Y0268296D01*
X0399453Y0268296D02*
X0399453Y0263693D01*
X0391780Y0265994D02*
X0388711Y0265994D01*
X0388711Y0266762D02*
X0390245Y0268296D01*
X0388711Y0266762D02*
X0388711Y0263693D01*
X0392648Y0185619D02*
X0394950Y0185619D01*
X0395717Y0184852D01*
X0395717Y0184085D01*
X0394950Y0183317D01*
X0392648Y0183317D01*
X0392648Y0181015D02*
X0392648Y0185619D01*
X0394950Y0183317D02*
X0395717Y0182550D01*
X0395717Y0181783D01*
X0394950Y0181015D01*
X0392648Y0181015D01*
X0397252Y0181015D02*
X0397252Y0184085D01*
X0398786Y0185619D01*
X0400321Y0184085D01*
X0400321Y0181015D01*
X0400321Y0183317D02*
X0397252Y0183317D01*
X0401856Y0185619D02*
X0404925Y0185619D01*
X0406459Y0185619D02*
X0409529Y0185619D01*
X0407994Y0185619D02*
X0407994Y0181015D01*
X0403390Y0181015D02*
X0403390Y0185619D01*
X0227559Y0256586D02*
X0227559Y0258120D01*
X0226791Y0258888D01*
X0225257Y0258888D01*
X0224489Y0258120D01*
X0224489Y0256586D01*
X0225257Y0255819D01*
X0226791Y0255819D01*
X0227559Y0256586D01*
X0222955Y0255819D02*
X0221420Y0255819D01*
X0222187Y0255819D02*
X0222187Y0258888D01*
X0221420Y0258888D01*
X0219885Y0258888D02*
X0217583Y0258888D01*
X0216816Y0258120D01*
X0216816Y0256586D01*
X0217583Y0255819D01*
X0219885Y0255819D01*
X0219885Y0260422D01*
X0222187Y0260422D02*
X0222187Y0261190D01*
X0215282Y0258120D02*
X0215282Y0255819D01*
X0212980Y0255819D01*
X0212212Y0256586D01*
X0212980Y0257353D01*
X0215282Y0257353D01*
X0215282Y0258120D02*
X0214514Y0258888D01*
X0212980Y0258888D01*
X0210678Y0259655D02*
X0210678Y0258120D01*
X0209910Y0257353D01*
X0207608Y0257353D01*
X0207608Y0255819D02*
X0207608Y0260422D01*
X0209910Y0260422D01*
X0210678Y0259655D01*
X0209143Y0257353D02*
X0210678Y0255819D01*
X0196830Y0242372D02*
X0196830Y0240070D01*
X0195295Y0240070D02*
X0195295Y0242372D01*
X0196063Y0243140D01*
X0196830Y0242372D01*
X0195295Y0242372D02*
X0194528Y0243140D01*
X0193761Y0243140D01*
X0193761Y0240070D01*
X0192226Y0243140D02*
X0191459Y0243140D01*
X0189924Y0241605D01*
X0189924Y0240070D02*
X0189924Y0243140D01*
X0188389Y0242372D02*
X0188389Y0241605D01*
X0185320Y0241605D01*
X0185320Y0240838D02*
X0185320Y0242372D01*
X0186087Y0243140D01*
X0187622Y0243140D01*
X0188389Y0242372D01*
X0187622Y0240070D02*
X0186087Y0240070D01*
X0185320Y0240838D01*
X0183785Y0240070D02*
X0183785Y0242372D01*
X0183018Y0243140D01*
X0181484Y0243140D01*
X0180716Y0242372D01*
X0180716Y0244674D02*
X0180716Y0240070D01*
X0177647Y0240070D02*
X0177647Y0244674D01*
X0176112Y0244674D02*
X0179182Y0244674D01*
X0152956Y0240070D02*
X0149887Y0240070D01*
X0151422Y0240070D02*
X0151422Y0244674D01*
X0149887Y0243140D01*
X0148352Y0243907D02*
X0147585Y0244674D01*
X0146050Y0244674D01*
X0145283Y0243907D01*
X0145283Y0240838D01*
X0146050Y0240070D01*
X0147585Y0240070D01*
X0148352Y0240838D01*
X0143748Y0240838D02*
X0143748Y0242372D01*
X0142214Y0242372D01*
X0143748Y0240838D02*
X0142981Y0240070D01*
X0141447Y0240070D01*
X0140679Y0240838D01*
X0140679Y0243907D01*
X0141447Y0244674D01*
X0142981Y0244674D01*
X0143748Y0243907D01*
X0117523Y0243907D02*
X0116756Y0244674D01*
X0115221Y0244674D01*
X0114454Y0243907D01*
X0112919Y0243907D02*
X0112152Y0244674D01*
X0110617Y0244674D01*
X0109850Y0243907D01*
X0109850Y0240838D01*
X0110617Y0240070D01*
X0112152Y0240070D01*
X0112919Y0240838D01*
X0114454Y0240070D02*
X0117523Y0243140D01*
X0117523Y0243907D01*
X0117523Y0240070D02*
X0114454Y0240070D01*
X0108315Y0240838D02*
X0108315Y0242372D01*
X0106781Y0242372D01*
X0108315Y0240838D02*
X0107548Y0240070D01*
X0106013Y0240070D01*
X0105246Y0240838D01*
X0105246Y0243907D01*
X0106013Y0244674D01*
X0107548Y0244674D01*
X0108315Y0243907D01*
X0065476Y0247944D02*
X0060872Y0247944D01*
X0060872Y0250246D01*
X0061639Y0251014D01*
X0063174Y0251014D01*
X0063941Y0250246D01*
X0063941Y0247944D01*
X0065476Y0252548D02*
X0060872Y0252548D01*
X0060872Y0254850D01*
X0061639Y0255618D01*
X0064709Y0255618D01*
X0065476Y0254850D01*
X0065476Y0252548D01*
X0065476Y0257152D02*
X0065476Y0258687D01*
X0065476Y0257920D02*
X0060872Y0257920D01*
X0060872Y0258687D02*
X0060872Y0257152D01*
X0061437Y0291252D02*
X0062972Y0291252D01*
X0063739Y0292019D01*
X0063739Y0295088D01*
X0062972Y0295855D01*
X0061437Y0295855D01*
X0060670Y0295088D01*
X0060670Y0294321D01*
X0061437Y0293554D01*
X0063739Y0293554D01*
X0065274Y0295088D02*
X0066041Y0295855D01*
X0067576Y0295855D01*
X0068343Y0295088D01*
X0068343Y0294321D01*
X0065274Y0291252D01*
X0068343Y0291252D01*
X0069878Y0292019D02*
X0070645Y0291252D01*
X0072180Y0291252D01*
X0072947Y0292019D01*
X0072947Y0293554D01*
X0072180Y0294321D01*
X0071412Y0294321D01*
X0069878Y0293554D01*
X0069878Y0295855D01*
X0072947Y0295855D01*
X0074481Y0295088D02*
X0075249Y0295855D01*
X0076783Y0295855D01*
X0077551Y0295088D01*
X0074481Y0292019D01*
X0075249Y0291252D01*
X0076783Y0291252D01*
X0077551Y0292019D01*
X0077551Y0295088D01*
X0074481Y0295088D02*
X0074481Y0292019D01*
X0061437Y0291252D02*
X0060670Y0292019D01*
X0059135Y0293554D02*
X0056066Y0293554D01*
X0054531Y0292019D02*
X0054531Y0295855D01*
X0051462Y0295855D02*
X0051462Y0292019D01*
X0052229Y0291252D01*
X0053764Y0291252D01*
X0054531Y0292019D01*
X0049927Y0293554D02*
X0049927Y0295088D01*
X0049160Y0295855D01*
X0046858Y0295855D01*
X0046858Y0291252D01*
X0046858Y0292786D02*
X0049160Y0292786D01*
X0049927Y0293554D01*
X0045323Y0295855D02*
X0045323Y0291252D01*
X0042254Y0291252D02*
X0042254Y0295855D01*
X0043789Y0294321D01*
X0045323Y0295855D01*
X0101309Y0295088D02*
X0101309Y0292019D01*
X0102076Y0291252D01*
X0103611Y0291252D01*
X0104378Y0292019D01*
X0104378Y0295088D01*
X0103611Y0295855D01*
X0102076Y0295855D01*
X0101309Y0295088D01*
X0105913Y0295855D02*
X0105913Y0291252D01*
X0105913Y0292786D02*
X0108215Y0292786D01*
X0108982Y0293554D01*
X0108982Y0295088D01*
X0108215Y0295855D01*
X0105913Y0295855D01*
X0110517Y0295855D02*
X0110517Y0291252D01*
X0113586Y0291252D01*
X0115121Y0291252D02*
X0115121Y0295855D01*
X0118190Y0291252D01*
X0118190Y0295855D01*
X0119725Y0293554D02*
X0122794Y0293554D01*
X0124329Y0295855D02*
X0124329Y0291252D01*
X0127398Y0291252D01*
X0128933Y0292019D02*
X0128933Y0295088D01*
X0129700Y0295855D01*
X0131235Y0295855D01*
X0132002Y0295088D01*
X0132002Y0292019D01*
X0131235Y0291252D01*
X0129700Y0291252D01*
X0128933Y0292019D01*
X0133537Y0292019D02*
X0133537Y0295088D01*
X0134304Y0295855D01*
X0135839Y0295855D01*
X0136606Y0295088D01*
X0136606Y0293554D02*
X0135071Y0293554D01*
X0136606Y0293554D02*
X0136606Y0292019D01*
X0135839Y0291252D01*
X0134304Y0291252D01*
X0133537Y0292019D01*
X0113586Y0295855D02*
X0110517Y0295855D01*
X0110517Y0293554D02*
X0112052Y0293554D01*
X0183986Y0287981D02*
X0183986Y0283378D01*
X0183986Y0284912D02*
X0186288Y0284912D01*
X0187056Y0285680D01*
X0187056Y0287214D01*
X0186288Y0287981D01*
X0183986Y0287981D01*
X0185521Y0284912D02*
X0187056Y0283378D01*
X0188590Y0283378D02*
X0190892Y0283378D01*
X0191659Y0284145D01*
X0191659Y0284912D01*
X0190892Y0285680D01*
X0188590Y0285680D01*
X0188590Y0287981D02*
X0188590Y0283378D01*
X0190892Y0285680D02*
X0191659Y0286447D01*
X0191659Y0287214D01*
X0190892Y0287981D01*
X0188590Y0287981D01*
X0193194Y0287981D02*
X0196263Y0287981D01*
X0194729Y0285680D02*
X0193194Y0285680D01*
X0193194Y0287981D02*
X0193194Y0283378D01*
X0193861Y0185619D02*
X0196930Y0185619D01*
X0195396Y0185619D02*
X0195396Y0181015D01*
X0190792Y0181015D02*
X0190792Y0185619D01*
X0192326Y0185619D02*
X0189257Y0185619D01*
X0187722Y0184085D02*
X0187722Y0181015D01*
X0187722Y0183317D02*
X0184653Y0183317D01*
X0184653Y0184085D02*
X0186188Y0185619D01*
X0187722Y0184085D01*
X0184653Y0184085D02*
X0184653Y0181015D01*
X0183119Y0181783D02*
X0182351Y0181015D01*
X0180049Y0181015D01*
X0180049Y0185619D01*
X0182351Y0185619D01*
X0183119Y0184852D01*
X0183119Y0184085D01*
X0182351Y0183317D01*
X0180049Y0183317D01*
X0182351Y0183317D02*
X0183119Y0182550D01*
X0183119Y0181783D01*
X0225305Y0032076D02*
X0224537Y0031309D01*
X0224537Y0028239D01*
X0225305Y0027472D01*
X0226839Y0027472D01*
X0227607Y0028239D01*
X0227607Y0029774D01*
X0226072Y0029774D01*
X0227607Y0031309D02*
X0226839Y0032076D01*
X0225305Y0032076D01*
X0229141Y0032076D02*
X0232211Y0027472D01*
X0232211Y0032076D01*
X0233745Y0032076D02*
X0233745Y0027472D01*
X0236047Y0027472D01*
X0236815Y0028239D01*
X0236815Y0031309D01*
X0236047Y0032076D01*
X0233745Y0032076D01*
X0229141Y0032076D02*
X0229141Y0027472D01*
X0063586Y0028239D02*
X0063586Y0031309D01*
X0062819Y0032076D01*
X0060517Y0032076D01*
X0060517Y0027472D01*
X0062819Y0027472D01*
X0063586Y0028239D01*
X0058982Y0027472D02*
X0058982Y0032076D01*
X0055913Y0032076D02*
X0055913Y0027472D01*
X0054378Y0028239D02*
X0054378Y0029774D01*
X0052844Y0029774D01*
X0054378Y0031309D02*
X0053611Y0032076D01*
X0052076Y0032076D01*
X0051309Y0031309D01*
X0051309Y0028239D01*
X0052076Y0027472D01*
X0053611Y0027472D01*
X0054378Y0028239D01*
X0055913Y0032076D02*
X0058982Y0027472D01*
D12*
X0022436Y0003500D02*
X0022369Y0003400D01*
X0022461Y0003400D02*
X0022511Y0003400D01*
X0022528Y0003417D01*
X0022511Y0003433D01*
X0022478Y0003433D01*
X0022461Y0003450D01*
X0022478Y0003467D01*
X0022528Y0003467D01*
X0022553Y0003467D02*
X0022586Y0003467D01*
X0022570Y0003483D02*
X0022570Y0003417D01*
X0022586Y0003400D01*
X0022614Y0003417D02*
X0022631Y0003400D01*
X0022665Y0003400D01*
X0022681Y0003417D01*
X0022681Y0003450D01*
X0022665Y0003467D01*
X0022631Y0003467D01*
X0022614Y0003450D01*
X0022614Y0003417D01*
X0022707Y0003433D02*
X0022740Y0003467D01*
X0022757Y0003467D01*
X0022800Y0003467D02*
X0022833Y0003467D01*
X0022850Y0003450D01*
X0022850Y0003400D01*
X0022800Y0003400D01*
X0022783Y0003417D01*
X0022800Y0003433D01*
X0022850Y0003433D01*
X0022875Y0003417D02*
X0022892Y0003400D01*
X0022942Y0003400D01*
X0022942Y0003383D02*
X0022942Y0003467D01*
X0022892Y0003467D01*
X0022875Y0003450D01*
X0022875Y0003417D01*
X0022909Y0003367D02*
X0022925Y0003367D01*
X0022942Y0003383D01*
X0022967Y0003417D02*
X0022967Y0003450D01*
X0022984Y0003467D01*
X0023017Y0003467D01*
X0023034Y0003450D01*
X0023034Y0003433D01*
X0022967Y0003433D01*
X0022967Y0003417D02*
X0022984Y0003400D01*
X0023017Y0003400D01*
X0023060Y0003400D02*
X0023126Y0003500D01*
X0023152Y0003483D02*
X0023152Y0003417D01*
X0023168Y0003400D01*
X0023202Y0003400D01*
X0023218Y0003417D01*
X0023244Y0003400D02*
X0023244Y0003500D01*
X0023218Y0003483D02*
X0023202Y0003500D01*
X0023168Y0003500D01*
X0023152Y0003483D01*
X0023244Y0003450D02*
X0023260Y0003467D01*
X0023294Y0003467D01*
X0023310Y0003450D01*
X0023310Y0003400D01*
X0023336Y0003400D02*
X0023336Y0003467D01*
X0023369Y0003467D02*
X0023386Y0003467D01*
X0023369Y0003467D02*
X0023336Y0003433D01*
X0023412Y0003417D02*
X0023429Y0003400D01*
X0023463Y0003400D01*
X0023479Y0003417D01*
X0023479Y0003450D01*
X0023463Y0003467D01*
X0023429Y0003467D01*
X0023412Y0003450D01*
X0023412Y0003417D01*
X0023505Y0003400D02*
X0023505Y0003467D01*
X0023521Y0003467D01*
X0023538Y0003450D01*
X0023555Y0003467D01*
X0023571Y0003450D01*
X0023571Y0003400D01*
X0023597Y0003417D02*
X0023597Y0003450D01*
X0023613Y0003467D01*
X0023647Y0003467D01*
X0023663Y0003450D01*
X0023663Y0003433D01*
X0023597Y0003433D01*
X0023597Y0003417D02*
X0023613Y0003400D01*
X0023647Y0003400D01*
X0023689Y0003400D02*
X0023755Y0003500D01*
X0023797Y0003467D02*
X0023781Y0003450D01*
X0023781Y0003417D01*
X0023797Y0003400D01*
X0023848Y0003400D01*
X0023873Y0003400D02*
X0023873Y0003467D01*
X0023848Y0003467D02*
X0023797Y0003467D01*
X0023873Y0003433D02*
X0023906Y0003467D01*
X0023923Y0003467D01*
X0023950Y0003450D02*
X0023950Y0003417D01*
X0023966Y0003400D01*
X0024000Y0003400D01*
X0024016Y0003417D01*
X0024016Y0003450D01*
X0024000Y0003467D01*
X0023966Y0003467D01*
X0023950Y0003450D01*
X0024042Y0003450D02*
X0024042Y0003417D01*
X0024058Y0003400D01*
X0024108Y0003400D01*
X0024134Y0003400D02*
X0024150Y0003400D01*
X0024150Y0003417D01*
X0024134Y0003417D01*
X0024134Y0003400D01*
X0024180Y0003400D02*
X0024230Y0003400D01*
X0024246Y0003417D01*
X0024246Y0003450D01*
X0024230Y0003467D01*
X0024180Y0003467D01*
X0024180Y0003500D02*
X0024180Y0003400D01*
X0024272Y0003400D02*
X0024272Y0003467D01*
X0024289Y0003467D01*
X0024305Y0003450D01*
X0024322Y0003467D01*
X0024339Y0003450D01*
X0024339Y0003400D01*
X0024364Y0003400D02*
X0024414Y0003400D01*
X0024431Y0003417D01*
X0024431Y0003450D01*
X0024414Y0003467D01*
X0024364Y0003467D01*
X0024364Y0003367D01*
X0024305Y0003400D02*
X0024305Y0003450D01*
X0024108Y0003467D02*
X0024058Y0003467D01*
X0024042Y0003450D01*
X0023538Y0003450D02*
X0023538Y0003400D01*
X0022707Y0003400D02*
X0022707Y0003467D01*
D13*
X0045829Y0008200D02*
X0045829Y0079100D01*
X0215129Y0079100D01*
X0215129Y0008200D01*
X0045829Y0008200D01*
X0027719Y0083200D02*
X0197019Y0083200D01*
X0197019Y0154100D01*
X0027719Y0154100D01*
X0027719Y0083200D01*
X0027719Y0158200D02*
X0027719Y0229100D01*
X0197019Y0229100D01*
X0197019Y0158200D01*
X0027719Y0158200D01*
X0077369Y0268650D02*
X0082369Y0268650D01*
X0082369Y0273650D01*
X0132369Y0273650D01*
X0132369Y0268650D01*
X0082369Y0268650D01*
X0077369Y0268650D02*
X0077369Y0290650D01*
X0137369Y0290650D01*
X0137369Y0268650D01*
X0132369Y0268650D01*
X0147169Y0292250D02*
X0147169Y0298250D01*
X0147169Y0292250D02*
X0197569Y0292250D01*
X0197569Y0298250D01*
X0197569Y0308850D02*
X0197569Y0315050D01*
X0147169Y0315050D01*
X0147169Y0309050D01*
X0204652Y0310737D02*
X0204652Y0253650D01*
X0373944Y0253650D01*
X0373944Y0310737D01*
X0204652Y0310737D01*
X0242719Y0229100D02*
X0412019Y0229100D01*
X0412019Y0158200D01*
X0242719Y0158200D01*
X0242719Y0229100D01*
X0242719Y0154100D02*
X0412019Y0154100D01*
X0412019Y0083200D01*
X0242719Y0083200D01*
X0242719Y0154100D01*
X0223034Y0079100D02*
X0392334Y0079100D01*
X0392334Y0008200D01*
X0223034Y0008200D01*
X0223034Y0079100D01*
X0034119Y0282600D02*
X0034119Y0284869D01*
X0034119Y0283734D02*
X0030716Y0283734D01*
X0031850Y0282600D01*
D14*
X0037369Y0263650D02*
X0057369Y0263650D01*
X0057369Y0233650D01*
X0037369Y0233650D01*
X0037369Y0263650D01*
D15*
X0038369Y0269650D02*
X0046369Y0269650D01*
X0046369Y0270150D01*
X0048369Y0270150D01*
X0048369Y0269650D01*
X0056369Y0269650D01*
X0056369Y0270150D01*
X0058369Y0270150D01*
X0058369Y0269650D01*
X0066369Y0269650D01*
X0066369Y0271650D01*
X0066369Y0272650D01*
X0064869Y0272650D01*
X0064869Y0273650D01*
X0059869Y0273650D01*
X0059869Y0272650D01*
X0058369Y0272650D01*
X0058369Y0285150D01*
X0058869Y0285650D02*
X0066369Y0285650D01*
X0066369Y0288650D01*
X0063369Y0288650D01*
X0063369Y0289150D01*
X0061369Y0289150D01*
X0061369Y0288650D01*
X0058369Y0288650D01*
X0058369Y0288150D01*
X0056369Y0288150D01*
X0056369Y0288650D01*
X0053369Y0288650D01*
X0053369Y0289150D01*
X0051369Y0289150D01*
X0051369Y0288650D01*
X0048369Y0288650D01*
X0048369Y0288150D01*
X0046369Y0288150D01*
X0046369Y0288650D01*
X0043369Y0288650D01*
X0043369Y0289150D01*
X0041369Y0289150D01*
X0041369Y0288650D01*
X0038369Y0288650D01*
X0038369Y0288150D01*
X0036369Y0288150D01*
X0036369Y0288650D01*
X0033369Y0288650D01*
X0033369Y0289150D01*
X0031369Y0289150D01*
X0031369Y0288650D01*
X0028369Y0288650D01*
X0028369Y0285650D01*
X0035869Y0285650D01*
X0036369Y0285150D01*
X0036369Y0272650D01*
X0038369Y0272650D01*
X0038369Y0285150D01*
X0038869Y0285650D01*
X0046369Y0285650D01*
X0046369Y0272650D01*
X0048369Y0272650D01*
X0048369Y0285650D01*
X0055869Y0285650D01*
X0056369Y0285150D01*
X0056369Y0272650D01*
X0058369Y0272650D01*
X0059869Y0272650D02*
X0059869Y0271650D01*
X0054869Y0271650D01*
X0054869Y0272650D01*
X0056369Y0272650D01*
X0054869Y0272650D02*
X0054869Y0273650D01*
X0049869Y0273650D01*
X0049869Y0272650D01*
X0048369Y0272650D01*
X0049869Y0272650D02*
X0049869Y0271650D01*
X0044869Y0271650D01*
X0044869Y0272650D01*
X0046369Y0272650D01*
X0044869Y0272650D02*
X0044869Y0273650D01*
X0039869Y0273650D01*
X0039869Y0272650D01*
X0038369Y0272650D01*
X0039869Y0272650D02*
X0039869Y0271650D01*
X0034869Y0271650D01*
X0034869Y0272650D01*
X0036369Y0272650D01*
X0034869Y0272650D02*
X0034869Y0273650D01*
X0029869Y0273650D01*
X0029869Y0272650D01*
X0028369Y0272650D01*
X0028369Y0271650D01*
X0029869Y0271650D01*
X0029869Y0272650D01*
X0028369Y0272650D02*
X0028369Y0285650D01*
X0036369Y0285150D02*
X0037369Y0284150D01*
X0038369Y0285150D01*
X0046369Y0285650D02*
X0048369Y0285650D01*
X0056369Y0285150D02*
X0057369Y0284150D01*
X0058869Y0285650D01*
X0066369Y0285650D02*
X0066369Y0272650D01*
X0066369Y0271650D02*
X0064869Y0271650D01*
X0064869Y0272650D01*
X0038369Y0270150D02*
X0038369Y0269650D01*
X0038369Y0270150D02*
X0036369Y0270150D01*
X0036369Y0269650D01*
X0028369Y0269650D01*
X0028369Y0271650D01*
D16*
X0214692Y0119300D03*
X0214692Y0116347D03*
D17*
X0214692Y0117823D03*
M02*
