G75*
%MOIN*%
%OFA0B0*%
%FSLAX25Y25*%
%IPPOS*%
%LPD*%
%AMOC8*
5,1,8,0,0,1.08239X$1,22.5*
%
%ADD10C,0.00800*%
%ADD11C,0.00400*%
%ADD12C,0.00000*%
%ADD13C,0.00500*%
%ADD14C,0.01000*%
%ADD15C,0.00600*%
%ADD16R,0.01181X0.00591*%
%ADD17R,0.01181X0.01181*%
D10*
X0229297Y0082640D02*
X0229297Y0087244D01*
X0230831Y0088779D01*
X0233900Y0088779D01*
X0235435Y0087244D01*
X0235435Y0082640D01*
X0238504Y0082640D02*
X0229297Y0082640D01*
X0229297Y0091848D02*
X0238504Y0091848D01*
X0233900Y0091848D02*
X0232366Y0093383D01*
X0232366Y0096452D01*
X0233900Y0097987D01*
X0238504Y0097987D01*
X0236970Y0101056D02*
X0238504Y0102591D01*
X0238504Y0107194D01*
X0240039Y0107194D02*
X0241574Y0105660D01*
X0241574Y0104125D01*
X0240039Y0107194D02*
X0232366Y0107194D01*
X0233900Y0110264D02*
X0232366Y0111798D01*
X0232366Y0116402D01*
X0235435Y0114868D02*
X0235435Y0111798D01*
X0233900Y0110264D01*
X0238504Y0110264D02*
X0238504Y0114868D01*
X0236970Y0116402D01*
X0235435Y0114868D01*
X0233900Y0119472D02*
X0236970Y0119472D01*
X0238504Y0121006D01*
X0238504Y0124076D01*
X0236970Y0125610D01*
X0233900Y0125610D01*
X0232366Y0124076D01*
X0232366Y0121006D01*
X0233900Y0119472D01*
X0233900Y0128679D02*
X0232366Y0130214D01*
X0232366Y0133283D01*
X0233900Y0134818D01*
X0236970Y0134818D01*
X0238504Y0133283D01*
X0238504Y0130214D01*
X0236970Y0128679D01*
X0233900Y0128679D01*
X0232366Y0137887D02*
X0232366Y0142491D01*
X0233900Y0144026D01*
X0238504Y0144026D01*
X0238504Y0137887D02*
X0232366Y0137887D01*
X0230831Y0156303D02*
X0229297Y0157838D01*
X0229297Y0160907D01*
X0230831Y0162442D01*
X0232366Y0162442D01*
X0238504Y0156303D01*
X0238504Y0162442D01*
X0238504Y0165511D02*
X0236970Y0165511D01*
X0236970Y0167046D01*
X0238504Y0167046D01*
X0238504Y0165511D01*
X0236970Y0170115D02*
X0230831Y0170115D01*
X0229297Y0171649D01*
X0229297Y0174719D01*
X0230831Y0176253D01*
X0236970Y0170115D01*
X0238504Y0171649D01*
X0238504Y0174719D01*
X0236970Y0176253D01*
X0230831Y0176253D01*
X0203117Y0232594D02*
X0171621Y0232594D01*
X0171621Y0263303D01*
X0174377Y0263303D01*
X0174377Y0258185D01*
X0168117Y0263303D02*
X0165361Y0263303D01*
X0165361Y0258185D01*
X0168117Y0263303D02*
X0168117Y0232594D01*
X0136621Y0232594D01*
X0136621Y0263303D01*
X0139377Y0263303D01*
X0139377Y0258185D01*
X0133117Y0263303D02*
X0130361Y0263303D01*
X0130361Y0258185D01*
X0133117Y0263303D02*
X0133117Y0232594D01*
X0101621Y0232594D01*
X0101621Y0263303D01*
X0104377Y0263303D01*
X0104377Y0258185D01*
X0200361Y0258185D02*
X0200361Y0263303D01*
X0203117Y0263303D01*
X0203117Y0232594D01*
X0232366Y0101056D02*
X0236970Y0101056D01*
X0393038Y0275902D02*
X0401700Y0275902D01*
X0409967Y0284169D02*
X0409967Y0292831D01*
X0401700Y0301098D02*
X0393038Y0301098D01*
X0384771Y0292831D02*
X0384771Y0284169D01*
X0390676Y0288500D02*
X0390678Y0288664D01*
X0390684Y0288828D01*
X0390694Y0288992D01*
X0390708Y0289156D01*
X0390726Y0289319D01*
X0390748Y0289482D01*
X0390775Y0289644D01*
X0390805Y0289806D01*
X0390839Y0289966D01*
X0390877Y0290126D01*
X0390918Y0290285D01*
X0390964Y0290443D01*
X0391014Y0290599D01*
X0391067Y0290755D01*
X0391124Y0290909D01*
X0391185Y0291061D01*
X0391250Y0291212D01*
X0391319Y0291362D01*
X0391391Y0291509D01*
X0391466Y0291655D01*
X0391546Y0291799D01*
X0391628Y0291941D01*
X0391714Y0292081D01*
X0391804Y0292218D01*
X0391897Y0292354D01*
X0391993Y0292487D01*
X0392093Y0292618D01*
X0392195Y0292746D01*
X0392301Y0292872D01*
X0392410Y0292995D01*
X0392522Y0293115D01*
X0392636Y0293233D01*
X0392754Y0293347D01*
X0392874Y0293459D01*
X0392997Y0293568D01*
X0393123Y0293674D01*
X0393251Y0293776D01*
X0393382Y0293876D01*
X0393515Y0293972D01*
X0393651Y0294065D01*
X0393788Y0294155D01*
X0393928Y0294241D01*
X0394070Y0294323D01*
X0394214Y0294403D01*
X0394360Y0294478D01*
X0394507Y0294550D01*
X0394657Y0294619D01*
X0394808Y0294684D01*
X0394960Y0294745D01*
X0395114Y0294802D01*
X0395270Y0294855D01*
X0395426Y0294905D01*
X0395584Y0294951D01*
X0395743Y0294992D01*
X0395903Y0295030D01*
X0396063Y0295064D01*
X0396225Y0295094D01*
X0396387Y0295121D01*
X0396550Y0295143D01*
X0396713Y0295161D01*
X0396877Y0295175D01*
X0397041Y0295185D01*
X0397205Y0295191D01*
X0397369Y0295193D01*
X0397533Y0295191D01*
X0397697Y0295185D01*
X0397861Y0295175D01*
X0398025Y0295161D01*
X0398188Y0295143D01*
X0398351Y0295121D01*
X0398513Y0295094D01*
X0398675Y0295064D01*
X0398835Y0295030D01*
X0398995Y0294992D01*
X0399154Y0294951D01*
X0399312Y0294905D01*
X0399468Y0294855D01*
X0399624Y0294802D01*
X0399778Y0294745D01*
X0399930Y0294684D01*
X0400081Y0294619D01*
X0400231Y0294550D01*
X0400378Y0294478D01*
X0400524Y0294403D01*
X0400668Y0294323D01*
X0400810Y0294241D01*
X0400950Y0294155D01*
X0401087Y0294065D01*
X0401223Y0293972D01*
X0401356Y0293876D01*
X0401487Y0293776D01*
X0401615Y0293674D01*
X0401741Y0293568D01*
X0401864Y0293459D01*
X0401984Y0293347D01*
X0402102Y0293233D01*
X0402216Y0293115D01*
X0402328Y0292995D01*
X0402437Y0292872D01*
X0402543Y0292746D01*
X0402645Y0292618D01*
X0402745Y0292487D01*
X0402841Y0292354D01*
X0402934Y0292218D01*
X0403024Y0292081D01*
X0403110Y0291941D01*
X0403192Y0291799D01*
X0403272Y0291655D01*
X0403347Y0291509D01*
X0403419Y0291362D01*
X0403488Y0291212D01*
X0403553Y0291061D01*
X0403614Y0290909D01*
X0403671Y0290755D01*
X0403724Y0290599D01*
X0403774Y0290443D01*
X0403820Y0290285D01*
X0403861Y0290126D01*
X0403899Y0289966D01*
X0403933Y0289806D01*
X0403963Y0289644D01*
X0403990Y0289482D01*
X0404012Y0289319D01*
X0404030Y0289156D01*
X0404044Y0288992D01*
X0404054Y0288828D01*
X0404060Y0288664D01*
X0404062Y0288500D01*
X0404060Y0288336D01*
X0404054Y0288172D01*
X0404044Y0288008D01*
X0404030Y0287844D01*
X0404012Y0287681D01*
X0403990Y0287518D01*
X0403963Y0287356D01*
X0403933Y0287194D01*
X0403899Y0287034D01*
X0403861Y0286874D01*
X0403820Y0286715D01*
X0403774Y0286557D01*
X0403724Y0286401D01*
X0403671Y0286245D01*
X0403614Y0286091D01*
X0403553Y0285939D01*
X0403488Y0285788D01*
X0403419Y0285638D01*
X0403347Y0285491D01*
X0403272Y0285345D01*
X0403192Y0285201D01*
X0403110Y0285059D01*
X0403024Y0284919D01*
X0402934Y0284782D01*
X0402841Y0284646D01*
X0402745Y0284513D01*
X0402645Y0284382D01*
X0402543Y0284254D01*
X0402437Y0284128D01*
X0402328Y0284005D01*
X0402216Y0283885D01*
X0402102Y0283767D01*
X0401984Y0283653D01*
X0401864Y0283541D01*
X0401741Y0283432D01*
X0401615Y0283326D01*
X0401487Y0283224D01*
X0401356Y0283124D01*
X0401223Y0283028D01*
X0401087Y0282935D01*
X0400950Y0282845D01*
X0400810Y0282759D01*
X0400668Y0282677D01*
X0400524Y0282597D01*
X0400378Y0282522D01*
X0400231Y0282450D01*
X0400081Y0282381D01*
X0399930Y0282316D01*
X0399778Y0282255D01*
X0399624Y0282198D01*
X0399468Y0282145D01*
X0399312Y0282095D01*
X0399154Y0282049D01*
X0398995Y0282008D01*
X0398835Y0281970D01*
X0398675Y0281936D01*
X0398513Y0281906D01*
X0398351Y0281879D01*
X0398188Y0281857D01*
X0398025Y0281839D01*
X0397861Y0281825D01*
X0397697Y0281815D01*
X0397533Y0281809D01*
X0397369Y0281807D01*
X0397205Y0281809D01*
X0397041Y0281815D01*
X0396877Y0281825D01*
X0396713Y0281839D01*
X0396550Y0281857D01*
X0396387Y0281879D01*
X0396225Y0281906D01*
X0396063Y0281936D01*
X0395903Y0281970D01*
X0395743Y0282008D01*
X0395584Y0282049D01*
X0395426Y0282095D01*
X0395270Y0282145D01*
X0395114Y0282198D01*
X0394960Y0282255D01*
X0394808Y0282316D01*
X0394657Y0282381D01*
X0394507Y0282450D01*
X0394360Y0282522D01*
X0394214Y0282597D01*
X0394070Y0282677D01*
X0393928Y0282759D01*
X0393788Y0282845D01*
X0393651Y0282935D01*
X0393515Y0283028D01*
X0393382Y0283124D01*
X0393251Y0283224D01*
X0393123Y0283326D01*
X0392997Y0283432D01*
X0392874Y0283541D01*
X0392754Y0283653D01*
X0392636Y0283767D01*
X0392522Y0283885D01*
X0392410Y0284005D01*
X0392301Y0284128D01*
X0392195Y0284254D01*
X0392093Y0284382D01*
X0391993Y0284513D01*
X0391897Y0284646D01*
X0391804Y0284782D01*
X0391714Y0284919D01*
X0391628Y0285059D01*
X0391546Y0285201D01*
X0391466Y0285345D01*
X0391391Y0285491D01*
X0391319Y0285638D01*
X0391250Y0285788D01*
X0391185Y0285939D01*
X0391124Y0286091D01*
X0391067Y0286245D01*
X0391014Y0286401D01*
X0390964Y0286557D01*
X0390918Y0286715D01*
X0390877Y0286874D01*
X0390839Y0287034D01*
X0390805Y0287194D01*
X0390775Y0287356D01*
X0390748Y0287518D01*
X0390726Y0287681D01*
X0390708Y0287844D01*
X0390694Y0288008D01*
X0390684Y0288172D01*
X0390678Y0288336D01*
X0390676Y0288500D01*
D11*
X0390245Y0268146D02*
X0391780Y0266612D01*
X0391780Y0263543D01*
X0393315Y0263543D02*
X0393315Y0268146D01*
X0396384Y0263543D01*
X0396384Y0268146D01*
X0397919Y0268146D02*
X0400988Y0268146D01*
X0399453Y0268146D02*
X0399453Y0263543D01*
X0391780Y0265844D02*
X0388711Y0265844D01*
X0388711Y0266612D02*
X0390245Y0268146D01*
X0388711Y0266612D02*
X0388711Y0263543D01*
X0392648Y0185469D02*
X0394950Y0185469D01*
X0395717Y0184702D01*
X0395717Y0183935D01*
X0394950Y0183167D01*
X0392648Y0183167D01*
X0392648Y0180865D02*
X0392648Y0185469D01*
X0394950Y0183167D02*
X0395717Y0182400D01*
X0395717Y0181633D01*
X0394950Y0180865D01*
X0392648Y0180865D01*
X0397252Y0180865D02*
X0397252Y0183935D01*
X0398786Y0185469D01*
X0400321Y0183935D01*
X0400321Y0180865D01*
X0400321Y0183167D02*
X0397252Y0183167D01*
X0401856Y0185469D02*
X0404925Y0185469D01*
X0406459Y0185469D02*
X0409529Y0185469D01*
X0407994Y0185469D02*
X0407994Y0180865D01*
X0403390Y0180865D02*
X0403390Y0185469D01*
X0227559Y0256436D02*
X0227559Y0257970D01*
X0226791Y0258738D01*
X0225257Y0258738D01*
X0224489Y0257970D01*
X0224489Y0256436D01*
X0225257Y0255669D01*
X0226791Y0255669D01*
X0227559Y0256436D01*
X0222955Y0255669D02*
X0221420Y0255669D01*
X0222187Y0255669D02*
X0222187Y0258738D01*
X0221420Y0258738D01*
X0219885Y0258738D02*
X0217583Y0258738D01*
X0216816Y0257970D01*
X0216816Y0256436D01*
X0217583Y0255669D01*
X0219885Y0255669D01*
X0219885Y0260272D01*
X0222187Y0260272D02*
X0222187Y0261040D01*
X0215282Y0257970D02*
X0215282Y0255669D01*
X0212980Y0255669D01*
X0212212Y0256436D01*
X0212980Y0257203D01*
X0215282Y0257203D01*
X0215282Y0257970D02*
X0214514Y0258738D01*
X0212980Y0258738D01*
X0210678Y0259505D02*
X0210678Y0257970D01*
X0209910Y0257203D01*
X0207608Y0257203D01*
X0207608Y0255669D02*
X0207608Y0260272D01*
X0209910Y0260272D01*
X0210678Y0259505D01*
X0209143Y0257203D02*
X0210678Y0255669D01*
X0196830Y0242222D02*
X0196830Y0239920D01*
X0195295Y0239920D02*
X0195295Y0242222D01*
X0196063Y0242990D01*
X0196830Y0242222D01*
X0195295Y0242222D02*
X0194528Y0242990D01*
X0193761Y0242990D01*
X0193761Y0239920D01*
X0192226Y0242990D02*
X0191459Y0242990D01*
X0189924Y0241455D01*
X0189924Y0239920D02*
X0189924Y0242990D01*
X0188389Y0242222D02*
X0188389Y0241455D01*
X0185320Y0241455D01*
X0185320Y0240688D02*
X0185320Y0242222D01*
X0186087Y0242990D01*
X0187622Y0242990D01*
X0188389Y0242222D01*
X0187622Y0239920D02*
X0186087Y0239920D01*
X0185320Y0240688D01*
X0183785Y0239920D02*
X0183785Y0242222D01*
X0183018Y0242990D01*
X0181484Y0242990D01*
X0180716Y0242222D01*
X0180716Y0244524D02*
X0180716Y0239920D01*
X0177647Y0239920D02*
X0177647Y0244524D01*
X0176112Y0244524D02*
X0179182Y0244524D01*
X0152956Y0239920D02*
X0149887Y0239920D01*
X0151422Y0239920D02*
X0151422Y0244524D01*
X0149887Y0242990D01*
X0148352Y0243757D02*
X0147585Y0244524D01*
X0146050Y0244524D01*
X0145283Y0243757D01*
X0145283Y0240688D01*
X0146050Y0239920D01*
X0147585Y0239920D01*
X0148352Y0240688D01*
X0143748Y0240688D02*
X0143748Y0242222D01*
X0142214Y0242222D01*
X0143748Y0240688D02*
X0142981Y0239920D01*
X0141447Y0239920D01*
X0140679Y0240688D01*
X0140679Y0243757D01*
X0141447Y0244524D01*
X0142981Y0244524D01*
X0143748Y0243757D01*
X0117523Y0243757D02*
X0116756Y0244524D01*
X0115221Y0244524D01*
X0114454Y0243757D01*
X0112919Y0243757D02*
X0112152Y0244524D01*
X0110617Y0244524D01*
X0109850Y0243757D01*
X0109850Y0240688D01*
X0110617Y0239920D01*
X0112152Y0239920D01*
X0112919Y0240688D01*
X0114454Y0239920D02*
X0117523Y0242990D01*
X0117523Y0243757D01*
X0117523Y0239920D02*
X0114454Y0239920D01*
X0108315Y0240688D02*
X0108315Y0242222D01*
X0106781Y0242222D01*
X0108315Y0240688D02*
X0107548Y0239920D01*
X0106013Y0239920D01*
X0105246Y0240688D01*
X0105246Y0243757D01*
X0106013Y0244524D01*
X0107548Y0244524D01*
X0108315Y0243757D01*
X0065476Y0247794D02*
X0060872Y0247794D01*
X0060872Y0250096D01*
X0061639Y0250864D01*
X0063174Y0250864D01*
X0063941Y0250096D01*
X0063941Y0247794D01*
X0065476Y0252398D02*
X0060872Y0252398D01*
X0060872Y0254700D01*
X0061639Y0255468D01*
X0064709Y0255468D01*
X0065476Y0254700D01*
X0065476Y0252398D01*
X0065476Y0257002D02*
X0065476Y0258537D01*
X0065476Y0257770D02*
X0060872Y0257770D01*
X0060872Y0258537D02*
X0060872Y0257002D01*
X0061437Y0291102D02*
X0062972Y0291102D01*
X0063739Y0291869D01*
X0063739Y0294938D01*
X0062972Y0295705D01*
X0061437Y0295705D01*
X0060670Y0294938D01*
X0060670Y0294171D01*
X0061437Y0293404D01*
X0063739Y0293404D01*
X0065274Y0294938D02*
X0066041Y0295705D01*
X0067576Y0295705D01*
X0068343Y0294938D01*
X0068343Y0294171D01*
X0065274Y0291102D01*
X0068343Y0291102D01*
X0069878Y0291869D02*
X0070645Y0291102D01*
X0072180Y0291102D01*
X0072947Y0291869D01*
X0072947Y0293404D01*
X0072180Y0294171D01*
X0071412Y0294171D01*
X0069878Y0293404D01*
X0069878Y0295705D01*
X0072947Y0295705D01*
X0074481Y0294938D02*
X0075249Y0295705D01*
X0076783Y0295705D01*
X0077551Y0294938D01*
X0074481Y0291869D01*
X0075249Y0291102D01*
X0076783Y0291102D01*
X0077551Y0291869D01*
X0077551Y0294938D01*
X0074481Y0294938D02*
X0074481Y0291869D01*
X0061437Y0291102D02*
X0060670Y0291869D01*
X0059135Y0293404D02*
X0056066Y0293404D01*
X0054531Y0291869D02*
X0054531Y0295705D01*
X0051462Y0295705D02*
X0051462Y0291869D01*
X0052229Y0291102D01*
X0053764Y0291102D01*
X0054531Y0291869D01*
X0049927Y0293404D02*
X0049927Y0294938D01*
X0049160Y0295705D01*
X0046858Y0295705D01*
X0046858Y0291102D01*
X0046858Y0292636D02*
X0049160Y0292636D01*
X0049927Y0293404D01*
X0045323Y0295705D02*
X0045323Y0291102D01*
X0042254Y0291102D02*
X0042254Y0295705D01*
X0043789Y0294171D01*
X0045323Y0295705D01*
X0101309Y0294938D02*
X0101309Y0291869D01*
X0102076Y0291102D01*
X0103611Y0291102D01*
X0104378Y0291869D01*
X0104378Y0294938D01*
X0103611Y0295705D01*
X0102076Y0295705D01*
X0101309Y0294938D01*
X0105913Y0295705D02*
X0105913Y0291102D01*
X0105913Y0292636D02*
X0108215Y0292636D01*
X0108982Y0293404D01*
X0108982Y0294938D01*
X0108215Y0295705D01*
X0105913Y0295705D01*
X0110517Y0295705D02*
X0110517Y0291102D01*
X0113586Y0291102D01*
X0115121Y0291102D02*
X0115121Y0295705D01*
X0118190Y0291102D01*
X0118190Y0295705D01*
X0119725Y0293404D02*
X0122794Y0293404D01*
X0124329Y0295705D02*
X0124329Y0291102D01*
X0127398Y0291102D01*
X0128933Y0291869D02*
X0128933Y0294938D01*
X0129700Y0295705D01*
X0131235Y0295705D01*
X0132002Y0294938D01*
X0132002Y0291869D01*
X0131235Y0291102D01*
X0129700Y0291102D01*
X0128933Y0291869D01*
X0133537Y0291869D02*
X0133537Y0294938D01*
X0134304Y0295705D01*
X0135839Y0295705D01*
X0136606Y0294938D01*
X0136606Y0293404D02*
X0135071Y0293404D01*
X0136606Y0293404D02*
X0136606Y0291869D01*
X0135839Y0291102D01*
X0134304Y0291102D01*
X0133537Y0291869D01*
X0113586Y0295705D02*
X0110517Y0295705D01*
X0110517Y0293404D02*
X0112052Y0293404D01*
X0183986Y0287831D02*
X0183986Y0283228D01*
X0183986Y0284762D02*
X0186288Y0284762D01*
X0187056Y0285530D01*
X0187056Y0287064D01*
X0186288Y0287831D01*
X0183986Y0287831D01*
X0185521Y0284762D02*
X0187056Y0283228D01*
X0188590Y0283228D02*
X0190892Y0283228D01*
X0191659Y0283995D01*
X0191659Y0284762D01*
X0190892Y0285530D01*
X0188590Y0285530D01*
X0188590Y0287831D02*
X0188590Y0283228D01*
X0190892Y0285530D02*
X0191659Y0286297D01*
X0191659Y0287064D01*
X0190892Y0287831D01*
X0188590Y0287831D01*
X0193194Y0287831D02*
X0196263Y0287831D01*
X0194729Y0285530D02*
X0193194Y0285530D01*
X0193194Y0287831D02*
X0193194Y0283228D01*
X0193861Y0185469D02*
X0196930Y0185469D01*
X0195396Y0185469D02*
X0195396Y0180865D01*
X0190792Y0180865D02*
X0190792Y0185469D01*
X0192326Y0185469D02*
X0189257Y0185469D01*
X0187722Y0183935D02*
X0187722Y0180865D01*
X0187722Y0183167D02*
X0184653Y0183167D01*
X0184653Y0183935D02*
X0186188Y0185469D01*
X0187722Y0183935D01*
X0184653Y0183935D02*
X0184653Y0180865D01*
X0183119Y0181633D02*
X0182351Y0180865D01*
X0180049Y0180865D01*
X0180049Y0185469D01*
X0182351Y0185469D01*
X0183119Y0184702D01*
X0183119Y0183935D01*
X0182351Y0183167D01*
X0180049Y0183167D01*
X0182351Y0183167D02*
X0183119Y0182400D01*
X0183119Y0181633D01*
X0225305Y0031926D02*
X0224537Y0031159D01*
X0224537Y0028089D01*
X0225305Y0027322D01*
X0226839Y0027322D01*
X0227607Y0028089D01*
X0227607Y0029624D01*
X0226072Y0029624D01*
X0227607Y0031159D02*
X0226839Y0031926D01*
X0225305Y0031926D01*
X0229141Y0031926D02*
X0232211Y0027322D01*
X0232211Y0031926D01*
X0233745Y0031926D02*
X0233745Y0027322D01*
X0236047Y0027322D01*
X0236815Y0028089D01*
X0236815Y0031159D01*
X0236047Y0031926D01*
X0233745Y0031926D01*
X0229141Y0031926D02*
X0229141Y0027322D01*
X0063586Y0028089D02*
X0063586Y0031159D01*
X0062819Y0031926D01*
X0060517Y0031926D01*
X0060517Y0027322D01*
X0062819Y0027322D01*
X0063586Y0028089D01*
X0058982Y0027322D02*
X0058982Y0031926D01*
X0055913Y0031926D02*
X0055913Y0027322D01*
X0054378Y0028089D02*
X0054378Y0029624D01*
X0052844Y0029624D01*
X0054378Y0031159D02*
X0053611Y0031926D01*
X0052076Y0031926D01*
X0051309Y0031159D01*
X0051309Y0028089D01*
X0052076Y0027322D01*
X0053611Y0027322D01*
X0054378Y0028089D01*
X0055913Y0031926D02*
X0058982Y0027322D01*
D12*
X0022436Y0003350D02*
X0022369Y0003250D01*
X0022461Y0003250D02*
X0022511Y0003250D01*
X0022528Y0003267D01*
X0022511Y0003283D01*
X0022478Y0003283D01*
X0022461Y0003300D01*
X0022478Y0003317D01*
X0022528Y0003317D01*
X0022553Y0003317D02*
X0022586Y0003317D01*
X0022570Y0003333D02*
X0022570Y0003267D01*
X0022586Y0003250D01*
X0022614Y0003267D02*
X0022631Y0003250D01*
X0022665Y0003250D01*
X0022681Y0003267D01*
X0022681Y0003300D01*
X0022665Y0003317D01*
X0022631Y0003317D01*
X0022614Y0003300D01*
X0022614Y0003267D01*
X0022707Y0003283D02*
X0022740Y0003317D01*
X0022757Y0003317D01*
X0022800Y0003317D02*
X0022833Y0003317D01*
X0022850Y0003300D01*
X0022850Y0003250D01*
X0022800Y0003250D01*
X0022783Y0003267D01*
X0022800Y0003283D01*
X0022850Y0003283D01*
X0022875Y0003267D02*
X0022892Y0003250D01*
X0022942Y0003250D01*
X0022942Y0003233D02*
X0022942Y0003317D01*
X0022892Y0003317D01*
X0022875Y0003300D01*
X0022875Y0003267D01*
X0022909Y0003217D02*
X0022925Y0003217D01*
X0022942Y0003233D01*
X0022967Y0003267D02*
X0022984Y0003250D01*
X0023017Y0003250D01*
X0023034Y0003283D02*
X0022967Y0003283D01*
X0022967Y0003267D02*
X0022967Y0003300D01*
X0022984Y0003317D01*
X0023017Y0003317D01*
X0023034Y0003300D01*
X0023034Y0003283D01*
X0023060Y0003250D02*
X0023126Y0003350D01*
X0023152Y0003333D02*
X0023152Y0003267D01*
X0023168Y0003250D01*
X0023202Y0003250D01*
X0023218Y0003267D01*
X0023244Y0003250D02*
X0023244Y0003350D01*
X0023218Y0003333D02*
X0023202Y0003350D01*
X0023168Y0003350D01*
X0023152Y0003333D01*
X0023244Y0003300D02*
X0023260Y0003317D01*
X0023294Y0003317D01*
X0023310Y0003300D01*
X0023310Y0003250D01*
X0023336Y0003250D02*
X0023336Y0003317D01*
X0023369Y0003317D02*
X0023386Y0003317D01*
X0023369Y0003317D02*
X0023336Y0003283D01*
X0023412Y0003267D02*
X0023429Y0003250D01*
X0023463Y0003250D01*
X0023479Y0003267D01*
X0023479Y0003300D01*
X0023463Y0003317D01*
X0023429Y0003317D01*
X0023412Y0003300D01*
X0023412Y0003267D01*
X0023505Y0003250D02*
X0023505Y0003317D01*
X0023521Y0003317D01*
X0023538Y0003300D01*
X0023555Y0003317D01*
X0023571Y0003300D01*
X0023571Y0003250D01*
X0023597Y0003267D02*
X0023613Y0003250D01*
X0023647Y0003250D01*
X0023663Y0003283D02*
X0023597Y0003283D01*
X0023597Y0003267D02*
X0023597Y0003300D01*
X0023613Y0003317D01*
X0023647Y0003317D01*
X0023663Y0003300D01*
X0023663Y0003283D01*
X0023689Y0003250D02*
X0023755Y0003350D01*
X0023797Y0003317D02*
X0023781Y0003300D01*
X0023781Y0003267D01*
X0023797Y0003250D01*
X0023848Y0003250D01*
X0023873Y0003250D02*
X0023873Y0003317D01*
X0023848Y0003317D02*
X0023797Y0003317D01*
X0023873Y0003283D02*
X0023906Y0003317D01*
X0023923Y0003317D01*
X0023950Y0003300D02*
X0023950Y0003267D01*
X0023966Y0003250D01*
X0024000Y0003250D01*
X0024016Y0003267D01*
X0024016Y0003300D01*
X0024000Y0003317D01*
X0023966Y0003317D01*
X0023950Y0003300D01*
X0024042Y0003300D02*
X0024042Y0003267D01*
X0024058Y0003250D01*
X0024108Y0003250D01*
X0024134Y0003250D02*
X0024150Y0003250D01*
X0024150Y0003267D01*
X0024134Y0003267D01*
X0024134Y0003250D01*
X0024180Y0003250D02*
X0024230Y0003250D01*
X0024246Y0003267D01*
X0024246Y0003300D01*
X0024230Y0003317D01*
X0024180Y0003317D01*
X0024180Y0003350D02*
X0024180Y0003250D01*
X0024272Y0003250D02*
X0024272Y0003317D01*
X0024289Y0003317D01*
X0024305Y0003300D01*
X0024322Y0003317D01*
X0024339Y0003300D01*
X0024339Y0003250D01*
X0024364Y0003250D02*
X0024414Y0003250D01*
X0024431Y0003267D01*
X0024431Y0003300D01*
X0024414Y0003317D01*
X0024364Y0003317D01*
X0024364Y0003217D01*
X0024305Y0003250D02*
X0024305Y0003300D01*
X0024108Y0003317D02*
X0024058Y0003317D01*
X0024042Y0003300D01*
X0023538Y0003300D02*
X0023538Y0003250D01*
X0022707Y0003250D02*
X0022707Y0003317D01*
D13*
X0045829Y0008050D02*
X0045829Y0078950D01*
X0215129Y0078950D01*
X0215129Y0008050D01*
X0045829Y0008050D01*
X0027719Y0083050D02*
X0197019Y0083050D01*
X0197019Y0153950D01*
X0027719Y0153950D01*
X0027719Y0083050D01*
X0027719Y0158050D02*
X0027719Y0228950D01*
X0197019Y0228950D01*
X0197019Y0158050D01*
X0027719Y0158050D01*
X0077369Y0268500D02*
X0082369Y0268500D01*
X0082369Y0273500D01*
X0132369Y0273500D01*
X0132369Y0268500D01*
X0082369Y0268500D01*
X0077369Y0268500D02*
X0077369Y0290500D01*
X0137369Y0290500D01*
X0137369Y0268500D01*
X0132369Y0268500D01*
X0147169Y0292100D02*
X0147169Y0298100D01*
X0147169Y0292100D02*
X0197569Y0292100D01*
X0197569Y0298100D01*
X0197569Y0308700D02*
X0197569Y0314900D01*
X0147169Y0314900D01*
X0147169Y0308900D01*
X0204652Y0310587D02*
X0204652Y0253500D01*
X0373944Y0253500D01*
X0373944Y0310587D01*
X0204652Y0310587D01*
X0242719Y0228950D02*
X0412019Y0228950D01*
X0412019Y0158050D01*
X0242719Y0158050D01*
X0242719Y0228950D01*
X0242719Y0153950D02*
X0412019Y0153950D01*
X0412019Y0083050D01*
X0242719Y0083050D01*
X0242719Y0153950D01*
X0223034Y0078950D02*
X0392334Y0078950D01*
X0392334Y0008050D01*
X0223034Y0008050D01*
X0223034Y0078950D01*
X0034119Y0282450D02*
X0034119Y0284719D01*
X0034119Y0283584D02*
X0030716Y0283584D01*
X0031850Y0282450D01*
D14*
X0037369Y0263500D02*
X0057369Y0263500D01*
X0057369Y0233500D01*
X0037369Y0233500D01*
X0037369Y0263500D01*
D15*
X0038369Y0269500D02*
X0046369Y0269500D01*
X0046369Y0270000D01*
X0048369Y0270000D01*
X0048369Y0269500D01*
X0056369Y0269500D01*
X0056369Y0270000D01*
X0058369Y0270000D01*
X0058369Y0269500D01*
X0066369Y0269500D01*
X0066369Y0271500D01*
X0066369Y0272500D01*
X0064869Y0272500D01*
X0064869Y0273500D01*
X0059869Y0273500D01*
X0059869Y0272500D01*
X0058369Y0272500D01*
X0058369Y0285000D01*
X0058869Y0285500D02*
X0066369Y0285500D01*
X0066369Y0288500D01*
X0063369Y0288500D01*
X0063369Y0289000D01*
X0061369Y0289000D01*
X0061369Y0288500D01*
X0058369Y0288500D01*
X0058369Y0288000D01*
X0056369Y0288000D01*
X0056369Y0288500D01*
X0053369Y0288500D01*
X0053369Y0289000D01*
X0051369Y0289000D01*
X0051369Y0288500D01*
X0048369Y0288500D01*
X0048369Y0288000D01*
X0046369Y0288000D01*
X0046369Y0288500D01*
X0043369Y0288500D01*
X0043369Y0289000D01*
X0041369Y0289000D01*
X0041369Y0288500D01*
X0038369Y0288500D01*
X0038369Y0288000D01*
X0036369Y0288000D01*
X0036369Y0288500D01*
X0033369Y0288500D01*
X0033369Y0289000D01*
X0031369Y0289000D01*
X0031369Y0288500D01*
X0028369Y0288500D01*
X0028369Y0285500D01*
X0035869Y0285500D01*
X0036369Y0285000D01*
X0036369Y0272500D01*
X0038369Y0272500D01*
X0038369Y0285000D01*
X0038869Y0285500D01*
X0046369Y0285500D01*
X0046369Y0272500D01*
X0048369Y0272500D01*
X0048369Y0285500D01*
X0055869Y0285500D01*
X0056369Y0285000D01*
X0056369Y0272500D01*
X0058369Y0272500D01*
X0059869Y0272500D02*
X0059869Y0271500D01*
X0054869Y0271500D01*
X0054869Y0272500D01*
X0056369Y0272500D01*
X0054869Y0272500D02*
X0054869Y0273500D01*
X0049869Y0273500D01*
X0049869Y0272500D01*
X0048369Y0272500D01*
X0049869Y0272500D02*
X0049869Y0271500D01*
X0044869Y0271500D01*
X0044869Y0272500D01*
X0046369Y0272500D01*
X0044869Y0272500D02*
X0044869Y0273500D01*
X0039869Y0273500D01*
X0039869Y0272500D01*
X0038369Y0272500D01*
X0039869Y0272500D02*
X0039869Y0271500D01*
X0034869Y0271500D01*
X0034869Y0272500D01*
X0036369Y0272500D01*
X0034869Y0272500D02*
X0034869Y0273500D01*
X0029869Y0273500D01*
X0029869Y0272500D01*
X0028369Y0272500D01*
X0028369Y0271500D01*
X0029869Y0271500D01*
X0029869Y0272500D01*
X0028369Y0272500D02*
X0028369Y0285500D01*
X0036369Y0285000D02*
X0037369Y0284000D01*
X0038369Y0285000D01*
X0046369Y0285500D02*
X0048369Y0285500D01*
X0056369Y0285000D02*
X0057369Y0284000D01*
X0058869Y0285500D01*
X0066369Y0285500D02*
X0066369Y0272500D01*
X0066369Y0271500D02*
X0064869Y0271500D01*
X0064869Y0272500D01*
X0038369Y0270000D02*
X0038369Y0269500D01*
X0038369Y0270000D02*
X0036369Y0270000D01*
X0036369Y0269500D01*
X0028369Y0269500D01*
X0028369Y0271500D01*
D16*
X0214692Y0119150D03*
X0214692Y0116197D03*
D17*
X0214692Y0117673D03*
M02*
