G75*
%MOIN*%
%OFA0B0*%
%FSLAX25Y25*%
%IPPOS*%
%LPD*%
%AMOC8*
5,1,8,0,0,1.08239X$1,22.5*
%
%ADD10C,0.00800*%
%ADD11C,0.00600*%
%ADD12C,0.00400*%
%ADD13R,0.00600X0.00100*%
%ADD14R,0.00800X0.00100*%
%ADD15R,0.00900X0.00100*%
%ADD16R,0.01000X0.00100*%
%ADD17R,0.00700X0.00100*%
%ADD18R,0.01100X0.00100*%
%ADD19R,0.01200X0.00100*%
%ADD20R,0.01300X0.00100*%
%ADD21R,0.01400X0.00100*%
%ADD22R,0.01500X0.00100*%
%ADD23R,0.00500X0.00100*%
%ADD24R,0.01600X0.00100*%
%ADD25R,0.01800X0.00100*%
%ADD26R,0.01900X0.00100*%
%ADD27R,0.02200X0.00100*%
%ADD28R,0.01700X0.00100*%
%ADD29R,0.02500X0.00100*%
%ADD30R,0.04000X0.00100*%
%ADD31R,0.00300X0.00100*%
%ADD32R,0.02100X0.00100*%
%ADD33R,0.03700X0.00100*%
%ADD34R,0.03900X0.00100*%
%ADD35R,0.03000X0.00100*%
%ADD36R,0.04100X0.00100*%
%ADD37R,0.02700X0.00100*%
%ADD38R,0.03200X0.00100*%
%ADD39R,0.03400X0.00100*%
%ADD40R,0.04400X0.00100*%
%ADD41R,0.00400X0.00100*%
%ADD42R,0.02300X0.00100*%
%ADD43R,0.02000X0.00100*%
%ADD44R,0.02800X0.00100*%
%ADD45R,0.03300X0.00100*%
%ADD46R,0.03800X0.00100*%
%ADD47R,0.02600X0.00100*%
%ADD48R,0.02400X0.00100*%
%ADD49R,0.06300X0.00100*%
%ADD50R,0.17000X0.00100*%
%ADD51R,0.14000X0.00100*%
%ADD52R,0.02900X0.00100*%
%ADD53R,0.03500X0.00100*%
%ADD54R,0.14500X0.00100*%
%ADD55R,0.03600X0.00100*%
%ADD56R,0.13800X0.00100*%
%ADD57R,0.04200X0.00100*%
%ADD58R,0.04500X0.00100*%
%ADD59R,0.16300X0.00100*%
%ADD60R,0.05000X0.00100*%
%ADD61R,0.11000X0.00100*%
%ADD62R,0.05200X0.00100*%
%ADD63R,0.08700X0.00100*%
%ADD64R,0.04300X0.00100*%
%ADD65R,0.05500X0.00100*%
%ADD66R,0.07100X0.00100*%
%ADD67R,0.04700X0.00100*%
%ADD68R,0.05600X0.00100*%
%ADD69R,0.06100X0.00100*%
%ADD70R,0.04900X0.00100*%
%ADD71R,0.05100X0.00100*%
%ADD72R,0.05400X0.00100*%
%ADD73R,0.05700X0.00100*%
%ADD74R,0.08000X0.00100*%
%ADD75R,0.03100X0.00100*%
%ADD76R,0.10400X0.00100*%
%ADD77R,0.06000X0.00100*%
%ADD78R,0.06700X0.00100*%
%ADD79R,0.07400X0.00100*%
%ADD80R,0.05900X0.00100*%
%ADD81R,0.13200X0.00100*%
%ADD82R,0.12000X0.00100*%
%ADD83R,0.09500X0.00100*%
%ADD84R,0.04800X0.00100*%
%ADD85R,0.05800X0.00100*%
%ADD86R,0.10600X0.00100*%
%ADD87R,0.11200X0.00100*%
%ADD88R,0.11600X0.00100*%
%ADD89R,0.07700X0.00100*%
%ADD90R,0.06800X0.00100*%
%ADD91R,0.06400X0.00100*%
%ADD92R,0.06600X0.00100*%
%ADD93R,0.05300X0.00100*%
%ADD94R,0.06500X0.00100*%
%ADD95R,0.06900X0.00100*%
%ADD96R,0.07300X0.00100*%
%ADD97R,0.07500X0.00100*%
%ADD98R,0.07000X0.00100*%
%ADD99C,0.00787*%
%ADD100C,0.03937*%
%ADD101C,0.01969*%
%ADD102C,0.00100*%
%ADD103C,0.00500*%
%ADD104C,0.00039*%
%ADD105C,0.00295*%
%ADD106C,0.02200*%
D10*
X0103714Y0076301D02*
X0105249Y0074766D01*
X0108318Y0074766D01*
X0109852Y0076301D01*
X0108318Y0079370D02*
X0105249Y0079370D01*
X0103714Y0077835D01*
X0103714Y0076301D01*
X0108318Y0079370D02*
X0109852Y0080905D01*
X0109852Y0082439D01*
X0108318Y0083974D01*
X0105249Y0083974D01*
X0103714Y0082439D01*
X0112922Y0082439D02*
X0112922Y0079370D01*
X0114456Y0077835D01*
X0119060Y0077835D01*
X0119060Y0074766D02*
X0119060Y0083974D01*
X0114456Y0083974D01*
X0112922Y0082439D01*
X0122130Y0082439D02*
X0123664Y0083974D01*
X0126734Y0083974D01*
X0128268Y0082439D01*
X0128268Y0076301D01*
X0126734Y0074766D01*
X0123664Y0074766D01*
X0122130Y0076301D01*
X0122130Y0079370D01*
X0125199Y0079370D01*
X0121869Y0112000D02*
X0117869Y0112000D01*
X0117869Y0120000D01*
X0121869Y0120000D01*
X0121869Y0112000D01*
X0130369Y0112000D02*
X0130369Y0120000D01*
X0134369Y0120000D01*
X0134369Y0112000D01*
X0130369Y0112000D01*
X0291621Y0145114D02*
X0306188Y0145114D01*
X0306188Y0171886D02*
X0291621Y0171886D01*
X0291621Y0180114D02*
X0306188Y0180114D01*
X0306188Y0206886D02*
X0291621Y0206886D01*
D11*
X0136050Y0108362D02*
X0133688Y0108362D01*
X0133688Y0103638D02*
X0136050Y0103638D01*
X0116050Y0103638D02*
X0113688Y0103638D01*
X0113688Y0108362D02*
X0116050Y0108362D01*
X0078550Y0106138D02*
X0076188Y0106138D01*
X0076188Y0110862D02*
X0078550Y0110862D01*
X0054731Y0089681D02*
X0054731Y0087319D01*
X0050007Y0087319D02*
X0050007Y0089681D01*
X0121188Y0050862D02*
X0123550Y0050862D01*
X0123550Y0046138D02*
X0121188Y0046138D01*
X0042113Y0177201D02*
X0039751Y0177201D01*
X0039751Y0181925D02*
X0042113Y0181925D01*
X0042463Y0208524D02*
X0043531Y0209592D01*
X0039261Y0213862D01*
X0039261Y0209592D01*
X0040328Y0208524D01*
X0042463Y0208524D01*
X0043531Y0209592D02*
X0043531Y0213862D01*
X0042463Y0214930D01*
X0040328Y0214930D01*
X0039261Y0213862D01*
X0037086Y0214930D02*
X0032815Y0214930D01*
X0032815Y0213862D01*
X0037086Y0209592D01*
X0037086Y0208524D01*
X0045706Y0209592D02*
X0046774Y0208524D01*
X0048909Y0208524D01*
X0049977Y0209592D01*
X0049977Y0211727D01*
X0046774Y0211727D01*
X0045706Y0210660D01*
X0045706Y0209592D01*
X0047841Y0213862D02*
X0049977Y0211727D01*
X0052152Y0211727D02*
X0052152Y0209592D01*
X0053219Y0208524D01*
X0055354Y0208524D01*
X0056422Y0209592D01*
X0056422Y0211727D02*
X0054287Y0212795D01*
X0053219Y0212795D01*
X0052152Y0211727D01*
X0052152Y0214930D02*
X0056422Y0214930D01*
X0056422Y0211727D01*
X0058597Y0210660D02*
X0058597Y0209592D01*
X0059665Y0208524D01*
X0061800Y0208524D01*
X0062868Y0209592D01*
X0061800Y0211727D02*
X0059665Y0211727D01*
X0058597Y0210660D01*
X0058597Y0213862D02*
X0059665Y0214930D01*
X0061800Y0214930D01*
X0062868Y0213862D01*
X0062868Y0212795D01*
X0061800Y0211727D01*
X0065043Y0214930D02*
X0065043Y0208524D01*
X0069313Y0208524D02*
X0069313Y0214930D01*
X0067178Y0212795D01*
X0065043Y0214930D01*
X0047841Y0213862D02*
X0045706Y0214930D01*
D12*
X0053199Y0031159D02*
X0053199Y0028089D01*
X0053966Y0027322D01*
X0056268Y0027322D01*
X0056268Y0031926D01*
X0053966Y0031926D01*
X0053199Y0031159D01*
X0057803Y0031926D02*
X0057803Y0027322D01*
X0060872Y0031926D01*
X0060872Y0027322D01*
X0062407Y0028089D02*
X0062407Y0029624D01*
X0063941Y0029624D01*
X0062407Y0031159D02*
X0063174Y0031926D01*
X0064709Y0031926D01*
X0065476Y0031159D01*
X0065476Y0028089D01*
X0064709Y0027322D01*
X0063174Y0027322D01*
X0062407Y0028089D01*
X0127335Y0043737D02*
X0130404Y0043737D01*
X0130404Y0039133D01*
X0131939Y0039900D02*
X0132706Y0039133D01*
X0135008Y0039133D01*
X0135008Y0037598D02*
X0135008Y0042202D01*
X0132706Y0042202D01*
X0131939Y0041435D01*
X0131939Y0039900D01*
X0130404Y0041435D02*
X0128870Y0041435D01*
X0136543Y0042202D02*
X0139612Y0039133D01*
X0136543Y0039133D01*
X0136543Y0042202D02*
X0136543Y0042970D01*
X0137310Y0043737D01*
X0138845Y0043737D01*
X0139612Y0042970D01*
X0141147Y0042970D02*
X0141147Y0042202D01*
X0144216Y0039133D01*
X0141147Y0039133D01*
X0141147Y0042970D02*
X0141914Y0043737D01*
X0143449Y0043737D01*
X0144216Y0042970D01*
X0147607Y0102953D02*
X0147607Y0107557D01*
X0145305Y0107557D01*
X0144538Y0106789D01*
X0144538Y0105255D01*
X0145305Y0104487D01*
X0147607Y0104487D01*
X0149141Y0104487D02*
X0152211Y0104487D01*
X0149141Y0107557D01*
X0149141Y0108324D01*
X0149909Y0109091D01*
X0151443Y0109091D01*
X0152211Y0108324D01*
X0153745Y0108324D02*
X0154513Y0109091D01*
X0156047Y0109091D01*
X0156815Y0108324D01*
X0153745Y0108324D02*
X0153745Y0107557D01*
X0156815Y0104487D01*
X0153745Y0104487D01*
X0143003Y0104487D02*
X0143003Y0109091D01*
X0139934Y0109091D01*
X0141468Y0106789D02*
X0143003Y0106789D01*
X0143823Y0117086D02*
X0143823Y0121690D01*
X0140753Y0121690D01*
X0139219Y0121690D02*
X0136917Y0121690D01*
X0136149Y0120922D01*
X0136149Y0120155D01*
X0136917Y0119388D01*
X0139219Y0119388D01*
X0139219Y0117086D02*
X0139219Y0121690D01*
X0136917Y0119388D02*
X0136149Y0118620D01*
X0136149Y0117853D01*
X0136917Y0117086D01*
X0139219Y0117086D01*
X0142288Y0119388D02*
X0143823Y0119388D01*
X0115082Y0119388D02*
X0113548Y0119388D01*
X0115082Y0121690D02*
X0112013Y0121690D01*
X0110478Y0121690D02*
X0108176Y0121690D01*
X0107409Y0120922D01*
X0107409Y0120155D01*
X0108176Y0119388D01*
X0110478Y0119388D01*
X0108176Y0119388D02*
X0107409Y0118620D01*
X0107409Y0117853D01*
X0108176Y0117086D01*
X0110478Y0117086D01*
X0110478Y0121690D01*
X0115082Y0121690D02*
X0115082Y0117086D01*
X0107208Y0111867D02*
X0106441Y0112635D01*
X0104906Y0112635D01*
X0104139Y0111867D01*
X0104139Y0111100D01*
X0107208Y0108031D01*
X0104139Y0108031D01*
X0102604Y0108031D02*
X0099535Y0111100D01*
X0099535Y0111867D01*
X0100302Y0112635D01*
X0101837Y0112635D01*
X0102604Y0111867D01*
X0102604Y0108031D02*
X0099535Y0108031D01*
X0098000Y0108031D02*
X0095699Y0108031D01*
X0094931Y0108798D01*
X0094931Y0110333D01*
X0095699Y0111100D01*
X0098000Y0111100D01*
X0098000Y0106496D01*
X0093397Y0108031D02*
X0093397Y0112635D01*
X0090327Y0112635D01*
X0091862Y0110333D02*
X0093397Y0110333D01*
X0069019Y0109899D02*
X0068252Y0110666D01*
X0066717Y0110666D01*
X0065950Y0109899D01*
X0065950Y0109131D01*
X0069019Y0106062D01*
X0065950Y0106062D01*
X0064415Y0106062D02*
X0061346Y0109131D01*
X0061346Y0109899D01*
X0062113Y0110666D01*
X0063648Y0110666D01*
X0064415Y0109899D01*
X0064415Y0106062D02*
X0061346Y0106062D01*
X0059812Y0106062D02*
X0057510Y0106062D01*
X0056742Y0106830D01*
X0056742Y0108364D01*
X0057510Y0109131D01*
X0059812Y0109131D01*
X0059812Y0104528D01*
X0055208Y0106062D02*
X0055208Y0110666D01*
X0052138Y0110666D01*
X0053673Y0108364D02*
X0055208Y0108364D01*
X0044256Y0090981D02*
X0044256Y0086377D01*
X0042722Y0086377D02*
X0045791Y0086377D01*
X0045791Y0089446D02*
X0044256Y0090981D01*
X0041187Y0090214D02*
X0041187Y0089446D01*
X0040420Y0088679D01*
X0038885Y0088679D01*
X0038118Y0087912D01*
X0038118Y0087144D01*
X0038885Y0086377D01*
X0040420Y0086377D01*
X0041187Y0087144D01*
X0041187Y0087912D01*
X0040420Y0088679D01*
X0038885Y0088679D02*
X0038118Y0089446D01*
X0038118Y0090214D01*
X0038885Y0090981D01*
X0040420Y0090981D01*
X0041187Y0090214D01*
X0036583Y0089446D02*
X0036583Y0084843D01*
X0036583Y0086377D02*
X0034281Y0086377D01*
X0033514Y0087144D01*
X0033514Y0088679D01*
X0034281Y0089446D01*
X0036583Y0089446D01*
X0031979Y0088679D02*
X0030445Y0088679D01*
X0031979Y0086377D02*
X0031979Y0090981D01*
X0028910Y0090981D01*
X0031312Y0169054D02*
X0031312Y0173658D01*
X0028243Y0173658D01*
X0029778Y0171356D02*
X0031312Y0171356D01*
X0032847Y0171356D02*
X0032847Y0169054D01*
X0032847Y0171356D02*
X0033614Y0172124D01*
X0035916Y0172124D01*
X0035916Y0169054D01*
X0037451Y0169822D02*
X0038218Y0169054D01*
X0039753Y0169054D01*
X0040520Y0169822D01*
X0037451Y0172891D01*
X0037451Y0169822D01*
X0037451Y0172891D02*
X0038218Y0173658D01*
X0039753Y0173658D01*
X0040520Y0172891D01*
X0040520Y0169822D01*
X0042055Y0169822D02*
X0042822Y0169054D01*
X0044357Y0169054D01*
X0045124Y0169822D01*
X0042055Y0172891D01*
X0042055Y0169822D01*
X0042055Y0172891D02*
X0042822Y0173658D01*
X0044357Y0173658D01*
X0045124Y0172891D01*
X0045124Y0169822D01*
X0046659Y0169054D02*
X0049728Y0169054D01*
X0048193Y0169054D02*
X0048193Y0173658D01*
X0049728Y0172124D01*
X0178516Y0185469D02*
X0181586Y0185469D01*
X0183120Y0185469D02*
X0186189Y0185469D01*
X0184655Y0185469D02*
X0184655Y0180865D01*
X0187724Y0180865D02*
X0187724Y0183935D01*
X0189259Y0185469D01*
X0190793Y0183935D01*
X0190793Y0180865D01*
X0192328Y0181633D02*
X0193095Y0180865D01*
X0195397Y0180865D01*
X0195397Y0185469D01*
X0193095Y0185469D01*
X0192328Y0184702D01*
X0192328Y0183935D01*
X0193095Y0183167D01*
X0195397Y0183167D01*
X0193095Y0183167D02*
X0192328Y0182400D01*
X0192328Y0181633D01*
X0190793Y0183167D02*
X0187724Y0183167D01*
X0180051Y0180865D02*
X0180051Y0185469D01*
X0241508Y0185469D02*
X0244578Y0185469D01*
X0244578Y0180865D01*
X0246112Y0180865D02*
X0246112Y0183935D01*
X0244578Y0183167D02*
X0243043Y0183167D01*
X0246112Y0180865D02*
X0248414Y0180865D01*
X0249182Y0181633D01*
X0249182Y0183935D01*
X0250716Y0184702D02*
X0253786Y0181633D01*
X0253786Y0180865D01*
X0256087Y0180865D02*
X0256087Y0185469D01*
X0258389Y0183167D01*
X0255320Y0183167D01*
X0253786Y0185469D02*
X0250716Y0185469D01*
X0250716Y0184702D01*
X0250049Y0173658D02*
X0253119Y0173658D01*
X0253119Y0169054D01*
X0254653Y0169054D02*
X0254653Y0172124D01*
X0253119Y0171356D02*
X0251584Y0171356D01*
X0254653Y0169054D02*
X0256955Y0169054D01*
X0257723Y0169822D01*
X0257723Y0172124D01*
X0260792Y0173658D02*
X0260792Y0169054D01*
X0262326Y0169054D02*
X0259257Y0169054D01*
X0262326Y0172124D02*
X0260792Y0173658D01*
X0260792Y0157910D02*
X0260792Y0153306D01*
X0262326Y0153306D02*
X0259257Y0153306D01*
X0257723Y0154074D02*
X0256955Y0153306D01*
X0254653Y0153306D01*
X0254653Y0156376D01*
X0253119Y0155608D02*
X0251584Y0155608D01*
X0253119Y0153306D02*
X0253119Y0157910D01*
X0250049Y0157910D01*
X0257723Y0156376D02*
X0257723Y0154074D01*
X0260792Y0157910D02*
X0262326Y0156376D01*
X0291054Y0142162D02*
X0291054Y0139093D01*
X0292589Y0137558D01*
X0294124Y0139093D01*
X0294124Y0142162D01*
X0295658Y0141395D02*
X0295658Y0140628D01*
X0296426Y0139860D01*
X0295658Y0139093D01*
X0295658Y0138326D01*
X0296426Y0137558D01*
X0297960Y0137558D01*
X0298728Y0138326D01*
X0300262Y0138326D02*
X0300262Y0137558D01*
X0301030Y0137558D01*
X0301030Y0138326D01*
X0300262Y0138326D01*
X0302564Y0138326D02*
X0303332Y0137558D01*
X0304866Y0137558D01*
X0305634Y0138326D01*
X0304099Y0139860D02*
X0303332Y0139860D01*
X0302564Y0139093D01*
X0302564Y0138326D01*
X0303332Y0139860D02*
X0302564Y0140628D01*
X0302564Y0141395D01*
X0303332Y0142162D01*
X0304866Y0142162D01*
X0305634Y0141395D01*
X0298728Y0141395D02*
X0297960Y0142162D01*
X0296426Y0142162D01*
X0295658Y0141395D01*
X0296426Y0139860D02*
X0297193Y0139860D01*
X0262326Y0200550D02*
X0259257Y0200550D01*
X0257723Y0200550D02*
X0254653Y0203620D01*
X0254653Y0204387D01*
X0255421Y0205154D01*
X0256955Y0205154D01*
X0257723Y0204387D01*
X0259257Y0204387D02*
X0260024Y0205154D01*
X0261559Y0205154D01*
X0262326Y0204387D01*
X0259257Y0204387D02*
X0259257Y0203620D01*
X0262326Y0200550D01*
X0257723Y0200550D02*
X0254653Y0200550D01*
X0253119Y0201318D02*
X0252351Y0200550D01*
X0250049Y0200550D01*
X0250049Y0203620D01*
X0248515Y0202852D02*
X0246980Y0202852D01*
X0248515Y0200550D02*
X0248515Y0205154D01*
X0245445Y0205154D01*
X0253119Y0203620D02*
X0253119Y0201318D01*
X0274639Y0224172D02*
X0273872Y0224940D01*
X0274639Y0224172D02*
X0276174Y0224172D01*
X0276941Y0224940D01*
X0276941Y0228009D01*
X0276174Y0228776D01*
X0274639Y0228776D01*
X0273872Y0228009D01*
X0278476Y0228776D02*
X0280011Y0228776D01*
X0279243Y0228776D02*
X0279243Y0224172D01*
X0278476Y0224172D02*
X0280011Y0224172D01*
X0281545Y0224940D02*
X0281545Y0226474D01*
X0283080Y0226474D01*
X0281545Y0224940D02*
X0282313Y0224172D01*
X0283847Y0224172D01*
X0284615Y0224940D01*
X0284615Y0228009D01*
X0283847Y0228776D01*
X0282313Y0228776D01*
X0281545Y0228009D01*
X0286149Y0228009D02*
X0286149Y0224940D01*
X0286917Y0224172D01*
X0288451Y0224172D01*
X0289219Y0224940D01*
X0289219Y0228009D01*
X0288451Y0228776D01*
X0286917Y0228776D01*
X0286149Y0228009D01*
X0290753Y0224172D02*
X0293823Y0224172D01*
X0293823Y0228776D01*
X0294023Y0213028D02*
X0294023Y0209959D01*
X0295558Y0208424D01*
X0297093Y0209959D01*
X0297093Y0213028D01*
X0298627Y0213028D02*
X0301697Y0213028D01*
X0301697Y0210726D01*
X0300162Y0211494D01*
X0299395Y0211494D01*
X0298627Y0210726D01*
X0298627Y0209192D01*
X0299395Y0208424D01*
X0300929Y0208424D01*
X0301697Y0209192D01*
X0340801Y0236751D02*
X0341569Y0235983D01*
X0343103Y0235983D01*
X0343871Y0236751D01*
X0343871Y0239820D01*
X0343103Y0240587D01*
X0341569Y0240587D01*
X0340801Y0239820D01*
X0345405Y0240587D02*
X0346940Y0240587D01*
X0346173Y0240587D02*
X0346173Y0235983D01*
X0346940Y0235983D02*
X0345405Y0235983D01*
X0348475Y0236751D02*
X0348475Y0238285D01*
X0350009Y0238285D01*
X0348475Y0236751D02*
X0349242Y0235983D01*
X0350776Y0235983D01*
X0351544Y0236751D01*
X0351544Y0239820D01*
X0350776Y0240587D01*
X0349242Y0240587D01*
X0348475Y0239820D01*
X0353078Y0239820D02*
X0353078Y0236751D01*
X0353846Y0235983D01*
X0355380Y0235983D01*
X0356148Y0236751D01*
X0356148Y0239820D01*
X0355380Y0240587D01*
X0353846Y0240587D01*
X0353078Y0239820D01*
X0357682Y0235983D02*
X0360752Y0235983D01*
X0360752Y0240587D01*
X0391115Y0185469D02*
X0394184Y0185469D01*
X0395719Y0185469D02*
X0398788Y0185469D01*
X0397253Y0185469D02*
X0397253Y0180865D01*
X0400323Y0180865D02*
X0400323Y0183935D01*
X0401857Y0185469D01*
X0403392Y0183935D01*
X0403392Y0180865D01*
X0404926Y0181633D02*
X0405694Y0180865D01*
X0407996Y0180865D01*
X0407996Y0185469D01*
X0405694Y0185469D01*
X0404926Y0184702D01*
X0404926Y0183935D01*
X0405694Y0183167D01*
X0407996Y0183167D01*
X0405694Y0183167D02*
X0404926Y0182400D01*
X0404926Y0181633D01*
X0403392Y0183167D02*
X0400323Y0183167D01*
X0392649Y0180865D02*
X0392649Y0185469D01*
X0386556Y0031788D02*
X0387323Y0031021D01*
X0387323Y0027952D01*
X0386556Y0027184D01*
X0385021Y0027184D01*
X0384254Y0027952D01*
X0384254Y0029486D01*
X0385789Y0029486D01*
X0384254Y0031021D02*
X0385021Y0031788D01*
X0386556Y0031788D01*
X0382719Y0031788D02*
X0379650Y0027184D01*
X0379650Y0031788D01*
X0378115Y0031788D02*
X0378115Y0027184D01*
X0375813Y0027184D01*
X0375046Y0027952D01*
X0375046Y0031021D01*
X0375813Y0031788D01*
X0378115Y0031788D01*
X0382719Y0031788D02*
X0382719Y0027184D01*
X0239885Y0028089D02*
X0239118Y0027322D01*
X0237584Y0027322D01*
X0236816Y0028089D01*
X0236816Y0029624D01*
X0238351Y0029624D01*
X0239885Y0031159D02*
X0239885Y0028089D01*
X0239885Y0031159D02*
X0239118Y0031926D01*
X0237584Y0031926D01*
X0236816Y0031159D01*
X0235282Y0031926D02*
X0232212Y0027322D01*
X0232212Y0031926D01*
X0230678Y0031926D02*
X0228376Y0031926D01*
X0227608Y0031159D01*
X0227608Y0028089D01*
X0228376Y0027322D01*
X0230678Y0027322D01*
X0230678Y0031926D01*
X0235282Y0031926D02*
X0235282Y0027322D01*
D13*
X0288307Y0064604D03*
X0289307Y0065804D03*
X0291007Y0067204D03*
X0291107Y0067404D03*
X0291107Y0067504D03*
X0291207Y0067604D03*
X0291207Y0067704D03*
X0291207Y0067804D03*
X0291307Y0067904D03*
X0291307Y0068004D03*
X0291307Y0068104D03*
X0291307Y0069004D03*
X0291307Y0069104D03*
X0291007Y0069604D03*
X0291007Y0069704D03*
X0290907Y0070004D03*
X0290907Y0070104D03*
X0290907Y0070204D03*
X0290807Y0070504D03*
X0290807Y0070604D03*
X0290807Y0070704D03*
X0298207Y0069604D03*
X0298207Y0069504D03*
X0298207Y0069404D03*
X0298207Y0069004D03*
X0298207Y0068904D03*
X0298307Y0068704D03*
X0298307Y0068604D03*
X0298407Y0068304D03*
X0298407Y0068204D03*
X0298407Y0068104D03*
X0298507Y0067704D03*
X0298507Y0067604D03*
X0298507Y0067504D03*
X0298607Y0067304D03*
X0298607Y0067204D03*
X0298607Y0067104D03*
X0298707Y0067004D03*
X0298707Y0066904D03*
X0299107Y0066304D03*
X0299207Y0066104D03*
X0299307Y0065904D03*
X0299307Y0065804D03*
X0299407Y0065704D03*
X0299407Y0065604D03*
X0299407Y0065504D03*
X0299407Y0065304D03*
X0301207Y0065204D03*
X0301507Y0064604D03*
X0301607Y0064504D03*
X0301607Y0064404D03*
X0301607Y0064304D03*
X0301707Y0064204D03*
X0301707Y0064104D03*
X0301707Y0064004D03*
X0301807Y0063604D03*
X0303307Y0062904D03*
X0303307Y0062804D03*
X0303307Y0062704D03*
X0303407Y0062604D03*
X0303307Y0061704D03*
X0306607Y0064104D03*
X0306607Y0064204D03*
X0308707Y0064504D03*
X0308707Y0064804D03*
X0309107Y0065504D03*
X0309107Y0066404D03*
X0309107Y0066504D03*
X0309107Y0066604D03*
X0309007Y0067404D03*
X0309007Y0067504D03*
X0308807Y0067904D03*
X0308707Y0068004D03*
X0308107Y0068904D03*
X0308007Y0069104D03*
X0308007Y0069204D03*
X0307907Y0069304D03*
X0307907Y0069404D03*
X0307907Y0069504D03*
X0307807Y0069604D03*
X0307807Y0069704D03*
X0307807Y0069804D03*
X0307807Y0070704D03*
X0307807Y0070804D03*
X0307807Y0070904D03*
X0307907Y0071004D03*
X0308107Y0071604D03*
X0308207Y0071804D03*
X0308207Y0071904D03*
X0308307Y0072004D03*
X0308307Y0072104D03*
X0308307Y0072204D03*
X0308407Y0072604D03*
X0308607Y0073004D03*
X0308707Y0073204D03*
X0308907Y0073604D03*
X0309007Y0073704D03*
X0309007Y0073804D03*
X0309007Y0073904D03*
X0309007Y0075204D03*
X0309007Y0075304D03*
X0309007Y0075404D03*
X0315507Y0070404D03*
X0315907Y0069004D03*
X0315907Y0068904D03*
X0314507Y0067704D03*
X0314507Y0067404D03*
X0319007Y0069804D03*
X0319007Y0069904D03*
X0318907Y0070004D03*
X0318907Y0070104D03*
X0318807Y0070304D03*
X0318807Y0070404D03*
X0318707Y0070504D03*
X0318707Y0070604D03*
X0319307Y0069304D03*
X0321207Y0071304D03*
X0321307Y0071504D03*
X0322507Y0072804D03*
X0322507Y0073804D03*
X0322507Y0073904D03*
X0322507Y0074004D03*
X0322507Y0074704D03*
X0322507Y0074804D03*
X0322507Y0074904D03*
X0329507Y0072104D03*
X0329507Y0072004D03*
X0329407Y0071804D03*
X0329407Y0071704D03*
X0329307Y0071504D03*
X0329307Y0071404D03*
X0329207Y0071204D03*
X0329207Y0071104D03*
X0329207Y0071004D03*
X0329207Y0069904D03*
X0329207Y0069804D03*
X0329207Y0068204D03*
X0329007Y0067904D03*
X0328507Y0067304D03*
X0328507Y0067204D03*
X0328407Y0067104D03*
X0333407Y0067304D03*
X0333507Y0067504D03*
X0333607Y0067704D03*
X0333607Y0067804D03*
X0333707Y0068004D03*
X0337907Y0070504D03*
X0338007Y0070604D03*
X0338007Y0070704D03*
X0338007Y0070804D03*
X0338007Y0071004D03*
X0338007Y0071104D03*
X0338007Y0071204D03*
X0337907Y0071304D03*
X0337907Y0071404D03*
X0337907Y0071504D03*
X0337907Y0071904D03*
X0337907Y0072004D03*
X0337907Y0072104D03*
X0337907Y0072204D03*
X0337907Y0072304D03*
X0337907Y0072404D03*
X0337807Y0072804D03*
X0337807Y0072904D03*
X0334607Y0076204D03*
X0334507Y0076304D03*
X0334207Y0076904D03*
X0333207Y0076904D03*
X0333207Y0077004D03*
X0333207Y0077104D03*
X0333307Y0077404D03*
X0333307Y0077504D03*
X0333307Y0077604D03*
X0333407Y0077704D03*
X0333107Y0076804D03*
X0332907Y0076404D03*
X0332807Y0076204D03*
X0332707Y0076004D03*
X0334007Y0078604D03*
X0334007Y0078704D03*
X0322907Y0079204D03*
X0322907Y0079304D03*
X0322807Y0079104D03*
X0322807Y0079004D03*
X0322707Y0078804D03*
X0322607Y0078604D03*
X0322607Y0078504D03*
X0322207Y0091804D03*
X0321907Y0092504D03*
X0321907Y0092604D03*
X0321807Y0093104D03*
X0321807Y0093204D03*
X0321807Y0093304D03*
X0321807Y0093404D03*
X0321807Y0093504D03*
X0321807Y0093604D03*
X0332607Y0093304D03*
X0332607Y0093204D03*
X0332807Y0093704D03*
X0332907Y0093804D03*
X0332907Y0093904D03*
X0332907Y0094004D03*
X0338307Y0092004D03*
X0338307Y0091904D03*
X0338407Y0092204D03*
X0338507Y0092404D03*
X0338607Y0092604D03*
X0338707Y0092804D03*
X0338707Y0092904D03*
X0338807Y0093104D03*
X0338807Y0093204D03*
X0345907Y0091104D03*
X0345907Y0091004D03*
X0345907Y0090904D03*
X0345907Y0090804D03*
X0345807Y0090704D03*
X0345807Y0090604D03*
X0345707Y0090404D03*
X0345607Y0090204D03*
X0345607Y0090104D03*
X0346007Y0091304D03*
X0346107Y0091504D03*
X0346407Y0092004D03*
X0346407Y0092204D03*
X0353807Y0090004D03*
X0353707Y0089104D03*
X0353707Y0089004D03*
X0353607Y0088804D03*
X0352807Y0087804D03*
X0358707Y0086204D03*
X0359507Y0087004D03*
X0359607Y0087104D03*
X0359607Y0087204D03*
X0359607Y0087304D03*
X0359607Y0087704D03*
X0367307Y0088404D03*
X0367307Y0088504D03*
X0311207Y0093104D03*
X0311007Y0092704D03*
X0310907Y0092504D03*
X0310807Y0092304D03*
X0310707Y0092104D03*
X0310607Y0091904D03*
X0310607Y0091804D03*
X0302407Y0092804D03*
X0301807Y0091904D03*
X0301807Y0091704D03*
X0301807Y0091604D03*
X0293907Y0088304D03*
X0293907Y0088204D03*
X0293807Y0088404D03*
X0293607Y0088804D03*
X0293407Y0089204D03*
X0293307Y0089304D03*
X0294007Y0088004D03*
X0294107Y0087804D03*
X0294107Y0087704D03*
X0294207Y0087604D03*
X0294207Y0087504D03*
X0294307Y0087304D03*
X0294307Y0087204D03*
X0294407Y0087104D03*
X0294407Y0087004D03*
X0294407Y0086904D03*
X0294507Y0086704D03*
X0294507Y0086604D03*
X0294507Y0086504D03*
X0294607Y0086404D03*
X0294607Y0086304D03*
X0294607Y0086204D03*
X0294707Y0086004D03*
X0294707Y0085904D03*
X0294707Y0085804D03*
X0294807Y0085704D03*
X0294807Y0085604D03*
X0294907Y0085404D03*
X0294907Y0085304D03*
X0295007Y0085204D03*
X0295007Y0085104D03*
X0295107Y0084904D03*
X0295207Y0084704D03*
X0295407Y0084304D03*
X0295507Y0084204D03*
X0295507Y0084104D03*
X0295507Y0084004D03*
X0295607Y0083904D03*
X0295807Y0083504D03*
X0295907Y0083304D03*
X0295907Y0083204D03*
X0296007Y0083004D03*
X0297407Y0081604D03*
X0297707Y0081104D03*
X0297707Y0081004D03*
X0297707Y0080004D03*
X0297707Y0079904D03*
X0297707Y0077904D03*
X0297707Y0077804D03*
X0297707Y0077704D03*
X0297607Y0077404D03*
X0297607Y0077304D03*
X0297607Y0077204D03*
X0297507Y0076904D03*
X0297507Y0076804D03*
X0297507Y0076704D03*
X0297407Y0076504D03*
X0297407Y0076404D03*
X0297407Y0076304D03*
X0297307Y0076204D03*
X0297307Y0076104D03*
X0299507Y0076304D03*
X0299507Y0076404D03*
X0299507Y0076504D03*
X0299607Y0076704D03*
X0299607Y0076804D03*
X0299707Y0077104D03*
X0299707Y0077204D03*
X0299707Y0077304D03*
X0299807Y0077404D03*
X0299807Y0077504D03*
X0299507Y0074604D03*
X0299507Y0074504D03*
X0299507Y0074404D03*
X0299607Y0074004D03*
X0299807Y0073504D03*
X0299807Y0073404D03*
X0299907Y0073304D03*
X0299907Y0073204D03*
X0300007Y0073004D03*
X0300007Y0072904D03*
X0300107Y0071704D03*
X0300107Y0071604D03*
X0300207Y0071404D03*
X0300507Y0070704D03*
X0300507Y0070604D03*
X0300607Y0070504D03*
X0300607Y0070404D03*
X0300607Y0070304D03*
X0300707Y0070104D03*
X0300707Y0070004D03*
X0300807Y0069804D03*
X0301007Y0069404D03*
X0301107Y0069204D03*
X0301107Y0069104D03*
X0301107Y0069004D03*
X0301207Y0068904D03*
X0301207Y0068804D03*
X0301207Y0068704D03*
X0301307Y0068604D03*
X0301307Y0068504D03*
X0301107Y0067104D03*
X0301107Y0066204D03*
X0301107Y0066104D03*
X0301107Y0066004D03*
X0302607Y0067104D03*
X0298307Y0070104D03*
X0298307Y0070204D03*
X0298407Y0070404D03*
X0298407Y0070504D03*
X0291907Y0064204D03*
X0291807Y0064104D03*
X0291507Y0063404D03*
X0291507Y0063304D03*
X0309207Y0063804D03*
X0287307Y0083304D03*
X0287407Y0083504D03*
X0287707Y0084004D03*
X0287807Y0084204D03*
X0287807Y0084304D03*
X0287907Y0084504D03*
X0288107Y0084904D03*
X0288107Y0085004D03*
X0288207Y0085304D03*
X0288207Y0085404D03*
X0288207Y0085504D03*
X0288307Y0085604D03*
X0288407Y0085904D03*
X0288507Y0087004D03*
X0288507Y0087104D03*
X0288507Y0087204D03*
X0288607Y0087404D03*
X0288607Y0087504D03*
X0288607Y0087604D03*
X0288607Y0088804D03*
X0288607Y0088904D03*
X0288607Y0089004D03*
X0288507Y0089104D03*
X0288507Y0089204D03*
X0288407Y0089404D03*
X0288307Y0089604D03*
X0288207Y0089804D03*
X0284507Y0090104D03*
X0284207Y0089604D03*
X0284107Y0089404D03*
X0284007Y0089204D03*
X0283907Y0089104D03*
X0283907Y0089004D03*
X0283907Y0088904D03*
X0283807Y0088804D03*
X0283807Y0088704D03*
X0283807Y0088604D03*
X0283707Y0088304D03*
X0283707Y0088204D03*
X0283707Y0088104D03*
X0283607Y0087904D03*
X0283607Y0087804D03*
X0283607Y0087704D03*
X0283507Y0087304D03*
X0283507Y0087204D03*
X0283407Y0087004D03*
X0283407Y0086904D03*
X0283307Y0086804D03*
X0283307Y0086704D03*
X0283307Y0086604D03*
X0283207Y0086204D03*
X0283207Y0086104D03*
X0283207Y0086004D03*
X0281207Y0087104D03*
X0281207Y0087204D03*
X0281107Y0087004D03*
X0281107Y0086904D03*
X0281007Y0086704D03*
X0280907Y0086504D03*
X0280807Y0086304D03*
X0280607Y0085904D03*
X0280507Y0085804D03*
X0280407Y0085504D03*
X0280307Y0085404D03*
X0280307Y0085304D03*
X0280307Y0085204D03*
X0280207Y0085104D03*
X0281307Y0087404D03*
X0281307Y0087504D03*
X0281307Y0087604D03*
X0281407Y0088004D03*
X0281407Y0088104D03*
X0281407Y0088204D03*
X0281507Y0088304D03*
X0281507Y0088404D03*
X0281507Y0088504D03*
X0281607Y0088704D03*
X0281607Y0088804D03*
X0281707Y0089004D03*
X0281707Y0089104D03*
X0281707Y0089204D03*
X0281807Y0089904D03*
X0281807Y0090004D03*
X0281807Y0090104D03*
X0281807Y0091404D03*
X0281807Y0091504D03*
X0281707Y0091704D03*
X0277107Y0090304D03*
X0277107Y0090204D03*
X0277107Y0090104D03*
X0277007Y0090004D03*
X0277007Y0089904D03*
X0277007Y0089804D03*
X0276907Y0089604D03*
X0276907Y0089504D03*
X0276807Y0089304D03*
X0276807Y0089204D03*
X0276707Y0088904D03*
X0276707Y0088804D03*
X0276707Y0088704D03*
X0276607Y0088204D03*
X0276607Y0088104D03*
X0276607Y0088004D03*
X0276507Y0087804D03*
X0276507Y0087704D03*
X0276507Y0087604D03*
X0276407Y0087404D03*
X0276407Y0087304D03*
X0276407Y0087204D03*
X0276307Y0087104D03*
X0276307Y0086204D03*
X0276307Y0086104D03*
X0276307Y0086004D03*
X0276407Y0085804D03*
X0276407Y0085704D03*
X0276407Y0085604D03*
X0276507Y0085404D03*
X0276507Y0085304D03*
X0276507Y0085204D03*
X0276607Y0084704D03*
X0283207Y0082604D03*
X0261907Y0080104D03*
X0261907Y0080004D03*
X0261907Y0079204D03*
X0261907Y0079104D03*
X0258507Y0079604D03*
X0258507Y0079704D03*
X0257007Y0080904D03*
X0257007Y0081204D03*
X0257007Y0081304D03*
X0257007Y0081404D03*
X0257107Y0081504D03*
X0257107Y0081604D03*
X0257407Y0082104D03*
X0257407Y0082504D03*
X0257307Y0083104D03*
X0257307Y0083204D03*
X0257307Y0083304D03*
X0257207Y0083504D03*
X0257207Y0083604D03*
X0256007Y0084304D03*
X0255107Y0083304D03*
X0255007Y0083104D03*
X0254907Y0082904D03*
X0254807Y0082704D03*
X0254807Y0082604D03*
X0254707Y0082504D03*
X0254707Y0082404D03*
X0254707Y0082304D03*
X0254707Y0081604D03*
X0254707Y0081504D03*
X0254707Y0081404D03*
X0254807Y0081304D03*
X0254807Y0081204D03*
X0254807Y0081104D03*
X0254907Y0080904D03*
X0254907Y0080804D03*
X0256007Y0081004D03*
X0253607Y0079804D03*
X0253607Y0079704D03*
X0253507Y0079304D03*
X0253507Y0079204D03*
X0253507Y0079104D03*
X0253507Y0078204D03*
X0253507Y0078104D03*
X0253607Y0077904D03*
X0253607Y0077804D03*
X0253707Y0077604D03*
X0254407Y0076604D03*
X0254507Y0076504D03*
X0254707Y0076104D03*
X0255907Y0074104D03*
X0255907Y0074004D03*
X0255907Y0073904D03*
X0255907Y0073504D03*
X0255907Y0073404D03*
X0255907Y0073304D03*
X0256007Y0073004D03*
D14*
X0256107Y0072804D03*
X0255207Y0075504D03*
X0255107Y0075604D03*
X0255007Y0075704D03*
X0254907Y0075804D03*
X0254307Y0076704D03*
X0254207Y0076904D03*
X0254107Y0077004D03*
X0253807Y0077404D03*
X0253707Y0079904D03*
X0253807Y0080004D03*
X0255907Y0081404D03*
X0255907Y0081504D03*
X0255907Y0081604D03*
X0255907Y0081704D03*
X0255907Y0081804D03*
X0255907Y0081904D03*
X0256007Y0082004D03*
X0256007Y0082104D03*
X0257307Y0081904D03*
X0258507Y0079804D03*
X0261307Y0078404D03*
X0261607Y0078704D03*
X0261707Y0078804D03*
X0255407Y0083704D03*
X0276707Y0084504D03*
X0276807Y0084404D03*
X0276907Y0084304D03*
X0279807Y0084604D03*
X0279907Y0084704D03*
X0280007Y0084804D03*
X0280107Y0084904D03*
X0283307Y0082404D03*
X0283407Y0082304D03*
X0286907Y0082704D03*
X0296107Y0082904D03*
X0296907Y0082204D03*
X0297007Y0082104D03*
X0297107Y0082004D03*
X0297207Y0081904D03*
X0297607Y0081304D03*
X0296907Y0080804D03*
X0297507Y0080204D03*
X0300007Y0077804D03*
X0300107Y0077904D03*
X0300207Y0078004D03*
X0300307Y0078104D03*
X0300407Y0078204D03*
X0301107Y0078804D03*
X0297107Y0075804D03*
X0296807Y0075404D03*
X0296707Y0075304D03*
X0295907Y0074604D03*
X0295807Y0074504D03*
X0295707Y0074404D03*
X0295607Y0074304D03*
X0295507Y0074204D03*
X0295407Y0074104D03*
X0295307Y0074004D03*
X0298907Y0066604D03*
X0299307Y0065104D03*
X0299207Y0065004D03*
X0301207Y0067304D03*
X0301807Y0067904D03*
X0301707Y0068004D03*
X0301607Y0068104D03*
X0301507Y0068204D03*
X0302507Y0067204D03*
X0303507Y0064204D03*
X0302207Y0063004D03*
X0302307Y0062904D03*
X0302407Y0062804D03*
X0302507Y0062704D03*
X0302607Y0062604D03*
X0301907Y0063404D03*
X0303307Y0061804D03*
X0306707Y0064004D03*
X0308807Y0064304D03*
X0308907Y0064204D03*
X0309007Y0064104D03*
X0309407Y0063504D03*
X0309407Y0063304D03*
X0308807Y0065004D03*
X0308607Y0068204D03*
X0308507Y0068304D03*
X0308507Y0068404D03*
X0308407Y0068504D03*
X0314607Y0067904D03*
X0315707Y0069304D03*
X0315607Y0069404D03*
X0315507Y0069504D03*
X0318507Y0070904D03*
X0319307Y0071504D03*
X0321007Y0071104D03*
X0321507Y0071804D03*
X0321607Y0071904D03*
X0321707Y0072004D03*
X0322407Y0072604D03*
X0322307Y0070504D03*
X0323307Y0069304D03*
X0319407Y0068504D03*
X0320407Y0064804D03*
X0320507Y0064704D03*
X0320707Y0064504D03*
X0328007Y0066504D03*
X0328907Y0067804D03*
X0329307Y0068404D03*
X0329607Y0068804D03*
X0329707Y0072404D03*
X0330007Y0072804D03*
X0330107Y0072904D03*
X0330207Y0073004D03*
X0330307Y0073104D03*
X0330407Y0073204D03*
X0330607Y0073404D03*
X0330707Y0073504D03*
X0330707Y0073604D03*
X0330807Y0073704D03*
X0330907Y0073804D03*
X0331007Y0073904D03*
X0331107Y0074004D03*
X0331207Y0074104D03*
X0331307Y0074204D03*
X0331407Y0074304D03*
X0331507Y0074404D03*
X0331607Y0074504D03*
X0331707Y0074604D03*
X0332007Y0075004D03*
X0332507Y0075704D03*
X0334707Y0076004D03*
X0334807Y0075904D03*
X0334907Y0075804D03*
X0335007Y0075704D03*
X0335107Y0075604D03*
X0335407Y0075204D03*
X0335507Y0075104D03*
X0335807Y0074704D03*
X0335907Y0074604D03*
X0337307Y0073504D03*
X0337407Y0073404D03*
X0337507Y0073304D03*
X0337607Y0073204D03*
X0337807Y0070304D03*
X0337707Y0070204D03*
X0337607Y0070104D03*
X0334607Y0069004D03*
X0334507Y0068904D03*
X0334407Y0068804D03*
X0334307Y0068704D03*
X0334207Y0068604D03*
X0334107Y0068504D03*
X0334007Y0068404D03*
X0333907Y0068304D03*
X0333507Y0077904D03*
X0333807Y0078304D03*
X0323207Y0079704D03*
X0323107Y0079604D03*
X0302307Y0092604D03*
X0302207Y0092504D03*
X0302107Y0092404D03*
X0302307Y0093504D03*
X0293207Y0089504D03*
X0292707Y0090104D03*
X0292107Y0090604D03*
X0292007Y0090704D03*
X0285707Y0091704D03*
X0285607Y0091604D03*
X0285507Y0091504D03*
X0285807Y0092704D03*
X0281507Y0091904D03*
X0278907Y0093304D03*
X0277307Y0090904D03*
X0275007Y0074104D03*
X0279407Y0070304D03*
X0288407Y0064804D03*
X0288507Y0064904D03*
X0288607Y0065004D03*
X0288707Y0065104D03*
X0288807Y0065204D03*
X0288907Y0065304D03*
X0289507Y0066104D03*
X0289607Y0066204D03*
X0292207Y0064704D03*
X0292507Y0065104D03*
X0292507Y0065204D03*
X0345707Y0089504D03*
X0346307Y0091804D03*
X0353207Y0088304D03*
X0353307Y0088404D03*
X0353407Y0088504D03*
X0361707Y0083804D03*
X0361807Y0083904D03*
X0361907Y0084004D03*
X0362007Y0084104D03*
X0362107Y0084204D03*
X0362207Y0084304D03*
X0364107Y0085804D03*
X0364207Y0085904D03*
X0367107Y0088104D03*
D15*
X0367057Y0088004D03*
X0366957Y0087904D03*
X0366557Y0087604D03*
X0366457Y0087504D03*
X0364957Y0086504D03*
X0364557Y0086204D03*
X0364457Y0086104D03*
X0364357Y0086004D03*
X0363957Y0085704D03*
X0363857Y0085604D03*
X0363757Y0085504D03*
X0362657Y0084704D03*
X0362557Y0084604D03*
X0362357Y0084504D03*
X0362257Y0084404D03*
X0361557Y0083704D03*
X0361457Y0083604D03*
X0359257Y0086804D03*
X0359357Y0086904D03*
X0353157Y0088204D03*
X0353057Y0088104D03*
X0334557Y0077404D03*
X0336057Y0074504D03*
X0336157Y0074404D03*
X0336257Y0074304D03*
X0337057Y0073704D03*
X0337157Y0073604D03*
X0337457Y0070004D03*
X0334757Y0069104D03*
X0330457Y0069904D03*
X0329757Y0068904D03*
X0327857Y0066404D03*
X0322457Y0070204D03*
X0322357Y0070404D03*
X0320757Y0070504D03*
X0322057Y0072304D03*
X0322157Y0072404D03*
X0322257Y0072504D03*
X0323357Y0079804D03*
X0310757Y0091004D03*
X0310857Y0093704D03*
X0321657Y0094604D03*
X0332857Y0092004D03*
X0300557Y0078304D03*
X0297457Y0080304D03*
X0296757Y0082304D03*
X0296657Y0082404D03*
X0296157Y0082804D03*
X0296557Y0075204D03*
X0296457Y0075104D03*
X0296357Y0075004D03*
X0296257Y0074904D03*
X0295957Y0074704D03*
X0295157Y0073904D03*
X0295057Y0073804D03*
X0290757Y0066904D03*
X0289057Y0065504D03*
X0288957Y0065404D03*
X0291357Y0063504D03*
X0298757Y0064604D03*
X0298857Y0064704D03*
X0298957Y0064804D03*
X0299057Y0064904D03*
X0303557Y0064104D03*
X0304157Y0063604D03*
X0304257Y0063504D03*
X0304357Y0063404D03*
X0304557Y0063304D03*
X0304657Y0063204D03*
X0303257Y0061904D03*
X0306357Y0062204D03*
X0306757Y0063904D03*
X0314757Y0068004D03*
X0320257Y0065004D03*
X0320357Y0064904D03*
X0286357Y0082004D03*
X0284957Y0083804D03*
X0283557Y0082204D03*
X0279657Y0084504D03*
X0279557Y0084404D03*
X0279457Y0084304D03*
X0278257Y0083504D03*
X0277157Y0084104D03*
X0277057Y0084204D03*
X0275157Y0086004D03*
X0275257Y0086104D03*
X0276157Y0087004D03*
X0279557Y0087704D03*
X0279557Y0087804D03*
X0279657Y0087904D03*
X0279657Y0088004D03*
X0279657Y0088104D03*
X0279657Y0088204D03*
X0277357Y0091004D03*
X0277457Y0091304D03*
X0277457Y0091404D03*
X0278057Y0092304D03*
X0278157Y0092404D03*
X0278957Y0093404D03*
X0281457Y0092004D03*
X0284757Y0090304D03*
X0285857Y0091804D03*
X0285957Y0091904D03*
X0286057Y0092004D03*
X0286157Y0092104D03*
X0286257Y0092204D03*
X0285757Y0092804D03*
X0285657Y0092904D03*
X0287357Y0090904D03*
X0287457Y0090804D03*
X0287557Y0090704D03*
X0288957Y0092504D03*
X0289157Y0092404D03*
X0291857Y0090804D03*
X0292257Y0090504D03*
X0292357Y0090404D03*
X0292457Y0090304D03*
X0292557Y0090204D03*
X0279057Y0073204D03*
X0275557Y0070304D03*
X0261257Y0078304D03*
X0261157Y0078204D03*
X0259657Y0078304D03*
X0258457Y0079904D03*
X0259257Y0080804D03*
X0254957Y0080704D03*
X0254257Y0076804D03*
X0255357Y0075404D03*
X0255457Y0075304D03*
X0255557Y0075204D03*
X0255657Y0075104D03*
X0256357Y0072604D03*
X0258757Y0073704D03*
D16*
X0258607Y0073804D03*
X0256507Y0072504D03*
X0259407Y0070904D03*
X0259607Y0078404D03*
X0260107Y0079704D03*
X0259407Y0080904D03*
X0261207Y0080904D03*
X0261307Y0080804D03*
X0261407Y0080704D03*
X0257207Y0080704D03*
X0257607Y0082604D03*
X0253907Y0080104D03*
X0274407Y0073604D03*
X0279207Y0084104D03*
X0279307Y0084204D03*
X0279507Y0087604D03*
X0279307Y0090304D03*
X0277407Y0091104D03*
X0277407Y0091204D03*
X0277507Y0091504D03*
X0277507Y0091604D03*
X0278307Y0092504D03*
X0279107Y0093504D03*
X0280907Y0092404D03*
X0281207Y0092204D03*
X0281307Y0092104D03*
X0284807Y0090404D03*
X0284907Y0090504D03*
X0285007Y0090604D03*
X0285807Y0088604D03*
X0285507Y0093004D03*
X0289307Y0092304D03*
X0289407Y0092204D03*
X0289507Y0092104D03*
X0291807Y0090904D03*
X0293207Y0089704D03*
X0297307Y0091604D03*
X0297507Y0091704D03*
X0297707Y0091804D03*
X0302207Y0091104D03*
X0309207Y0092904D03*
X0310807Y0091104D03*
X0301007Y0078704D03*
X0297407Y0080404D03*
X0296707Y0080904D03*
X0296507Y0082504D03*
X0296407Y0082604D03*
X0296307Y0082704D03*
X0296107Y0074804D03*
X0294907Y0073704D03*
X0294807Y0073604D03*
X0294207Y0073204D03*
X0294007Y0073104D03*
X0293907Y0073004D03*
X0293707Y0072904D03*
X0289807Y0066304D03*
X0298307Y0064304D03*
X0298407Y0064404D03*
X0301807Y0067804D03*
X0302407Y0067304D03*
X0303607Y0064004D03*
X0303207Y0062004D03*
X0305807Y0062604D03*
X0314707Y0067304D03*
X0315707Y0068704D03*
X0319307Y0068604D03*
X0320607Y0070604D03*
X0320907Y0070404D03*
X0321007Y0070304D03*
X0321107Y0070204D03*
X0322407Y0070304D03*
X0323207Y0069404D03*
X0321807Y0072104D03*
X0321907Y0072204D03*
X0322307Y0073404D03*
X0329907Y0069004D03*
X0327707Y0066304D03*
X0327607Y0066204D03*
X0327507Y0066104D03*
X0327407Y0066004D03*
X0327207Y0065904D03*
X0327007Y0065804D03*
X0319907Y0065204D03*
X0334907Y0069204D03*
X0336907Y0073804D03*
X0336807Y0073904D03*
X0336707Y0074004D03*
X0336507Y0074104D03*
X0336407Y0074204D03*
X0357407Y0088504D03*
X0362807Y0084804D03*
X0362907Y0084904D03*
X0363207Y0085104D03*
X0363307Y0085204D03*
X0363507Y0085304D03*
X0363607Y0085404D03*
X0364707Y0086304D03*
X0364807Y0086404D03*
X0365107Y0086604D03*
X0365407Y0086804D03*
X0366007Y0087204D03*
X0366107Y0087304D03*
X0366307Y0087404D03*
X0366707Y0087704D03*
X0366807Y0087804D03*
X0361307Y0083504D03*
X0361207Y0083404D03*
X0283807Y0082004D03*
X0283707Y0082104D03*
X0276107Y0086904D03*
X0275007Y0085904D03*
X0274907Y0085804D03*
D17*
X0275357Y0086204D03*
X0275457Y0086304D03*
X0275557Y0086404D03*
X0276657Y0084604D03*
X0277957Y0087504D03*
X0276857Y0089404D03*
X0277257Y0090804D03*
X0279357Y0090404D03*
X0281757Y0091604D03*
X0281657Y0091804D03*
X0278757Y0093204D03*
X0284357Y0089904D03*
X0284357Y0089804D03*
X0284257Y0089704D03*
X0284157Y0089504D03*
X0284057Y0089304D03*
X0284457Y0090004D03*
X0284557Y0090204D03*
X0287657Y0090604D03*
X0287757Y0090504D03*
X0287857Y0090404D03*
X0287857Y0090304D03*
X0287957Y0090204D03*
X0288057Y0090104D03*
X0288057Y0090004D03*
X0288157Y0089904D03*
X0288257Y0089704D03*
X0288357Y0089504D03*
X0288457Y0089304D03*
X0288357Y0085804D03*
X0288357Y0085704D03*
X0288057Y0084804D03*
X0287957Y0084704D03*
X0287957Y0084604D03*
X0287757Y0084104D03*
X0287657Y0083904D03*
X0287557Y0083804D03*
X0287557Y0083704D03*
X0287457Y0083604D03*
X0287357Y0083404D03*
X0287257Y0083204D03*
X0287157Y0083104D03*
X0287157Y0083004D03*
X0287057Y0082904D03*
X0286957Y0082804D03*
X0286857Y0082604D03*
X0286757Y0082504D03*
X0286657Y0082404D03*
X0286657Y0082304D03*
X0286557Y0082204D03*
X0286457Y0082104D03*
X0283257Y0082504D03*
X0280157Y0085004D03*
X0280457Y0085604D03*
X0280457Y0085704D03*
X0280657Y0086004D03*
X0280657Y0086104D03*
X0280757Y0086204D03*
X0280857Y0086404D03*
X0280957Y0086604D03*
X0281057Y0086804D03*
X0283457Y0087104D03*
X0293157Y0089604D03*
X0293257Y0089404D03*
X0293457Y0089104D03*
X0293457Y0089004D03*
X0293557Y0088904D03*
X0293657Y0088704D03*
X0293757Y0088604D03*
X0293757Y0088504D03*
X0293957Y0088104D03*
X0294057Y0087904D03*
X0294257Y0087404D03*
X0294857Y0085504D03*
X0295057Y0085004D03*
X0295157Y0084804D03*
X0295257Y0084604D03*
X0295357Y0084504D03*
X0295357Y0084404D03*
X0295657Y0083804D03*
X0295657Y0083704D03*
X0295757Y0083604D03*
X0295857Y0083404D03*
X0297257Y0081804D03*
X0297357Y0081704D03*
X0297457Y0081504D03*
X0297557Y0081404D03*
X0297657Y0081204D03*
X0297657Y0080104D03*
X0299957Y0077704D03*
X0299857Y0077604D03*
X0297257Y0076004D03*
X0297157Y0075904D03*
X0297057Y0075704D03*
X0296957Y0075604D03*
X0296857Y0075504D03*
X0299657Y0073904D03*
X0299657Y0073804D03*
X0299657Y0073704D03*
X0299757Y0073604D03*
X0299957Y0073104D03*
X0300157Y0071504D03*
X0300257Y0071304D03*
X0300757Y0069904D03*
X0300857Y0069704D03*
X0300957Y0069604D03*
X0300957Y0069504D03*
X0301357Y0068404D03*
X0301457Y0068304D03*
X0301157Y0067204D03*
X0301257Y0065104D03*
X0301257Y0065004D03*
X0301357Y0064904D03*
X0301457Y0064804D03*
X0301457Y0064704D03*
X0301857Y0063504D03*
X0301957Y0063304D03*
X0302057Y0063204D03*
X0302157Y0063104D03*
X0303457Y0064304D03*
X0306357Y0062104D03*
X0308957Y0062804D03*
X0309457Y0063404D03*
X0309357Y0063604D03*
X0309257Y0063704D03*
X0309157Y0063904D03*
X0309057Y0064004D03*
X0308757Y0064404D03*
X0308757Y0064904D03*
X0308857Y0065104D03*
X0308957Y0065204D03*
X0309057Y0065304D03*
X0309057Y0065404D03*
X0308957Y0067604D03*
X0308857Y0067704D03*
X0308857Y0067804D03*
X0308657Y0068104D03*
X0308257Y0068604D03*
X0308257Y0068704D03*
X0308157Y0068804D03*
X0308057Y0069004D03*
X0308457Y0072704D03*
X0308457Y0072804D03*
X0308557Y0072904D03*
X0308657Y0073104D03*
X0308757Y0073304D03*
X0308857Y0073404D03*
X0308857Y0073504D03*
X0315257Y0069804D03*
X0315357Y0069704D03*
X0315457Y0069604D03*
X0315757Y0069204D03*
X0315857Y0069104D03*
X0315857Y0068804D03*
X0314557Y0067804D03*
X0319057Y0069704D03*
X0319157Y0069604D03*
X0319157Y0069504D03*
X0319257Y0069404D03*
X0318857Y0070204D03*
X0318657Y0070704D03*
X0318557Y0070804D03*
X0321157Y0071204D03*
X0321257Y0071404D03*
X0321357Y0071604D03*
X0321457Y0071704D03*
X0322257Y0070604D03*
X0323357Y0069204D03*
X0322457Y0072704D03*
X0329357Y0071604D03*
X0329557Y0072204D03*
X0329657Y0072304D03*
X0329757Y0072504D03*
X0329857Y0072604D03*
X0329957Y0072704D03*
X0330457Y0073304D03*
X0331757Y0074704D03*
X0331857Y0074804D03*
X0331957Y0074904D03*
X0332057Y0075104D03*
X0332157Y0075204D03*
X0332257Y0075304D03*
X0332257Y0075404D03*
X0332357Y0075504D03*
X0332457Y0075604D03*
X0332557Y0075804D03*
X0332657Y0075904D03*
X0332757Y0076104D03*
X0332857Y0076304D03*
X0332957Y0076504D03*
X0333057Y0076604D03*
X0333057Y0076704D03*
X0333457Y0077804D03*
X0333557Y0078004D03*
X0333657Y0078104D03*
X0333757Y0078204D03*
X0333857Y0078404D03*
X0333957Y0078504D03*
X0334557Y0077504D03*
X0334257Y0076804D03*
X0334257Y0076704D03*
X0334357Y0076604D03*
X0334457Y0076504D03*
X0334457Y0076404D03*
X0334657Y0076104D03*
X0335157Y0075504D03*
X0335257Y0075404D03*
X0335357Y0075304D03*
X0335557Y0075004D03*
X0335657Y0074904D03*
X0335757Y0074804D03*
X0337657Y0073104D03*
X0337757Y0073004D03*
X0337857Y0070404D03*
X0333857Y0068204D03*
X0333757Y0068104D03*
X0333557Y0067604D03*
X0333457Y0067404D03*
X0329557Y0068704D03*
X0329457Y0068604D03*
X0329357Y0068504D03*
X0329257Y0068304D03*
X0328357Y0067004D03*
X0328357Y0066904D03*
X0328257Y0066804D03*
X0328157Y0066704D03*
X0328057Y0066604D03*
X0320657Y0064604D03*
X0299357Y0065204D03*
X0299257Y0066004D03*
X0299157Y0066204D03*
X0299057Y0066404D03*
X0298957Y0066504D03*
X0298857Y0066704D03*
X0298757Y0066804D03*
X0298257Y0068804D03*
X0298357Y0070304D03*
X0291257Y0069204D03*
X0291157Y0069304D03*
X0291157Y0069404D03*
X0291057Y0069504D03*
X0291057Y0067304D03*
X0290957Y0067104D03*
X0290857Y0067004D03*
X0289457Y0066004D03*
X0289357Y0065904D03*
X0289257Y0065704D03*
X0289157Y0065604D03*
X0288357Y0064704D03*
X0291757Y0064004D03*
X0291957Y0064304D03*
X0291957Y0064404D03*
X0292057Y0064504D03*
X0292157Y0064604D03*
X0292257Y0064804D03*
X0292357Y0064904D03*
X0292457Y0065004D03*
X0292557Y0065304D03*
X0288357Y0074204D03*
X0302057Y0091004D03*
X0301857Y0092004D03*
X0301857Y0092104D03*
X0301957Y0092204D03*
X0302057Y0092304D03*
X0302357Y0092704D03*
X0310657Y0092004D03*
X0310757Y0092204D03*
X0310857Y0092404D03*
X0310957Y0092604D03*
X0311057Y0092804D03*
X0311157Y0092904D03*
X0311157Y0093004D03*
X0310757Y0090904D03*
X0321957Y0092404D03*
X0332657Y0093404D03*
X0332757Y0093504D03*
X0332757Y0093604D03*
X0338357Y0092104D03*
X0338457Y0092304D03*
X0338557Y0092504D03*
X0338657Y0092704D03*
X0345657Y0090304D03*
X0345757Y0090504D03*
X0345957Y0091204D03*
X0346057Y0091404D03*
X0346157Y0091604D03*
X0346257Y0091704D03*
X0346357Y0091904D03*
X0346057Y0092704D03*
X0352857Y0087904D03*
X0352957Y0088004D03*
X0352757Y0087704D03*
X0352657Y0087604D03*
X0353457Y0088604D03*
X0353557Y0088704D03*
X0353657Y0088904D03*
X0359557Y0087904D03*
X0359557Y0087804D03*
X0367157Y0088204D03*
X0367257Y0088304D03*
X0323857Y0080304D03*
X0323057Y0079504D03*
X0322957Y0079404D03*
X0322757Y0078904D03*
X0322657Y0078704D03*
X0264657Y0073004D03*
X0261457Y0078504D03*
X0261557Y0078604D03*
X0261757Y0078904D03*
X0261857Y0079004D03*
X0261857Y0080204D03*
X0261757Y0080304D03*
X0261757Y0080404D03*
X0261657Y0080504D03*
X0261557Y0080604D03*
X0259157Y0080704D03*
X0259057Y0080604D03*
X0258957Y0080504D03*
X0258957Y0080404D03*
X0258857Y0080304D03*
X0257057Y0080804D03*
X0257157Y0081704D03*
X0257257Y0081804D03*
X0257357Y0082004D03*
X0256057Y0082204D03*
X0255957Y0081304D03*
X0255957Y0081204D03*
X0255957Y0081104D03*
X0254857Y0082804D03*
X0254957Y0083004D03*
X0255057Y0083204D03*
X0255157Y0083404D03*
X0255257Y0083504D03*
X0255257Y0083604D03*
X0257157Y0083704D03*
X0253557Y0078004D03*
X0253757Y0077504D03*
X0253857Y0077304D03*
X0253957Y0077204D03*
X0254057Y0077104D03*
X0254557Y0076404D03*
X0254557Y0076304D03*
X0254657Y0076204D03*
X0254757Y0076004D03*
X0254857Y0075904D03*
X0256057Y0072904D03*
X0256157Y0072704D03*
D18*
X0257257Y0072004D03*
X0258957Y0071204D03*
X0259057Y0071104D03*
X0259257Y0071004D03*
X0258457Y0073904D03*
X0255857Y0075004D03*
X0259557Y0078504D03*
X0258457Y0080004D03*
X0257257Y0080604D03*
X0257657Y0082704D03*
X0275957Y0086804D03*
X0278157Y0085704D03*
X0278957Y0084004D03*
X0279357Y0087504D03*
X0279257Y0090204D03*
X0277657Y0091804D03*
X0277557Y0091704D03*
X0277857Y0092104D03*
X0277957Y0092204D03*
X0278357Y0092604D03*
X0281057Y0092304D03*
X0285057Y0093304D03*
X0285157Y0093204D03*
X0285357Y0093104D03*
X0286357Y0092304D03*
X0285057Y0090704D03*
X0291457Y0091104D03*
X0293757Y0090104D03*
X0293957Y0090204D03*
X0297157Y0091504D03*
X0297857Y0091904D03*
X0297957Y0092004D03*
X0308957Y0092804D03*
X0309357Y0093004D03*
X0321557Y0094504D03*
X0343557Y0079404D03*
X0360857Y0083204D03*
X0361057Y0083304D03*
X0363057Y0085004D03*
X0365257Y0086704D03*
X0365557Y0086904D03*
X0365857Y0087104D03*
X0326857Y0065704D03*
X0323157Y0069504D03*
X0323057Y0069604D03*
X0319257Y0068704D03*
X0315657Y0068604D03*
X0314957Y0068204D03*
X0314857Y0068104D03*
X0320057Y0065104D03*
X0303157Y0062204D03*
X0303157Y0062104D03*
X0298557Y0064504D03*
X0298157Y0064204D03*
X0290557Y0066804D03*
X0292457Y0072104D03*
X0293157Y0072504D03*
X0293257Y0072604D03*
X0293457Y0072704D03*
X0293557Y0072804D03*
X0293757Y0072104D03*
X0293957Y0072004D03*
X0294357Y0073304D03*
X0294457Y0073404D03*
X0294657Y0073504D03*
X0288157Y0074304D03*
X0284757Y0070004D03*
X0287957Y0079804D03*
X0284957Y0083904D03*
X0297357Y0080504D03*
D19*
X0297307Y0080604D03*
X0300907Y0078604D03*
X0300807Y0078404D03*
X0292307Y0072004D03*
X0292107Y0071904D03*
X0290007Y0066404D03*
X0291907Y0062504D03*
X0298007Y0064104D03*
X0301807Y0067704D03*
X0303607Y0063904D03*
X0303107Y0062304D03*
X0306307Y0062304D03*
X0308307Y0071504D03*
X0315507Y0070304D03*
X0314807Y0067204D03*
X0319207Y0068804D03*
X0318607Y0071004D03*
X0320507Y0070704D03*
X0319207Y0065604D03*
X0319407Y0065504D03*
X0319707Y0065304D03*
X0329007Y0067704D03*
X0330307Y0069804D03*
X0339207Y0077804D03*
X0343707Y0079504D03*
X0343807Y0079604D03*
X0344207Y0079804D03*
X0350207Y0080304D03*
X0352907Y0087104D03*
X0359707Y0082604D03*
X0360507Y0083004D03*
X0365707Y0087004D03*
X0324507Y0079804D03*
X0310907Y0091204D03*
X0315807Y0092804D03*
X0302107Y0093404D03*
X0298307Y0092204D03*
X0298107Y0092104D03*
X0297007Y0091404D03*
X0293207Y0089804D03*
X0291607Y0091004D03*
X0291107Y0091304D03*
X0290707Y0091504D03*
X0288707Y0092604D03*
X0286407Y0092404D03*
X0280607Y0092504D03*
X0279307Y0093604D03*
X0277807Y0092004D03*
X0277707Y0091904D03*
X0275907Y0086704D03*
X0275907Y0086604D03*
X0274707Y0085704D03*
X0274507Y0085604D03*
X0288207Y0079904D03*
X0288407Y0080004D03*
X0261207Y0078104D03*
X0259607Y0078604D03*
X0260107Y0079604D03*
X0258307Y0074004D03*
X0257107Y0072104D03*
X0257507Y0071904D03*
X0256607Y0072404D03*
X0258807Y0071304D03*
X0256107Y0074904D03*
D20*
X0256757Y0072304D03*
X0256957Y0072204D03*
X0260257Y0070404D03*
X0259657Y0078704D03*
X0260057Y0079504D03*
X0257757Y0080304D03*
X0257657Y0080404D03*
X0254157Y0080204D03*
X0275857Y0086504D03*
X0278157Y0085804D03*
X0277457Y0084004D03*
X0279257Y0090104D03*
X0285157Y0090804D03*
X0285757Y0088504D03*
X0284857Y0093404D03*
X0284657Y0093504D03*
X0284457Y0093604D03*
X0284257Y0093704D03*
X0287757Y0093104D03*
X0289757Y0092004D03*
X0289957Y0091904D03*
X0290157Y0091804D03*
X0290257Y0091704D03*
X0290957Y0091404D03*
X0291257Y0091204D03*
X0296857Y0091304D03*
X0302257Y0091204D03*
X0302057Y0093304D03*
X0310757Y0093604D03*
X0315557Y0092704D03*
X0316057Y0092904D03*
X0316357Y0093004D03*
X0322557Y0091904D03*
X0336557Y0093004D03*
X0342957Y0079204D03*
X0339657Y0078004D03*
X0329857Y0069104D03*
X0333057Y0067204D03*
X0326657Y0065604D03*
X0325357Y0065004D03*
X0325157Y0064904D03*
X0324957Y0064804D03*
X0324657Y0064704D03*
X0319557Y0065404D03*
X0316657Y0066404D03*
X0315557Y0068504D03*
X0319457Y0072604D03*
X0319657Y0072704D03*
X0308357Y0071404D03*
X0303657Y0063804D03*
X0304957Y0063104D03*
X0305057Y0063004D03*
X0305357Y0062804D03*
X0306257Y0062404D03*
X0294157Y0071904D03*
X0291957Y0071804D03*
X0291757Y0071704D03*
X0290357Y0066704D03*
X0290257Y0066604D03*
X0290157Y0066504D03*
X0288657Y0080104D03*
X0290157Y0080804D03*
X0297257Y0080704D03*
X0300857Y0078504D03*
X0359357Y0082404D03*
X0359957Y0082704D03*
X0360157Y0082804D03*
X0360357Y0082904D03*
X0360657Y0083104D03*
X0361857Y0087104D03*
D21*
X0362307Y0087304D03*
X0363307Y0087704D03*
X0366607Y0089004D03*
X0359507Y0082504D03*
X0344507Y0079904D03*
X0344007Y0079704D03*
X0343207Y0079304D03*
X0339407Y0077904D03*
X0339007Y0077704D03*
X0326407Y0065504D03*
X0325607Y0065104D03*
X0324507Y0064604D03*
X0319107Y0068904D03*
X0320507Y0070804D03*
X0319807Y0072804D03*
X0318907Y0072404D03*
X0316407Y0066504D03*
X0315007Y0067104D03*
X0309007Y0062904D03*
X0307007Y0063804D03*
X0305507Y0062704D03*
X0305207Y0062904D03*
X0303007Y0062404D03*
X0297707Y0064004D03*
X0292907Y0063004D03*
X0293107Y0072404D03*
X0289507Y0080504D03*
X0289707Y0080604D03*
X0289907Y0080704D03*
X0288807Y0080204D03*
X0284707Y0078804D03*
X0283807Y0078404D03*
X0284907Y0084004D03*
X0285307Y0090904D03*
X0284107Y0093804D03*
X0280407Y0092604D03*
X0279507Y0093704D03*
X0279207Y0090004D03*
X0274307Y0085504D03*
X0260307Y0081404D03*
X0260007Y0079404D03*
X0259707Y0078804D03*
X0257507Y0080504D03*
X0257807Y0082804D03*
X0254807Y0080604D03*
X0256307Y0074804D03*
X0258107Y0074104D03*
X0257807Y0071804D03*
X0258007Y0071704D03*
X0258107Y0071604D03*
X0258507Y0071404D03*
X0283907Y0074604D03*
X0294207Y0090304D03*
X0294407Y0090404D03*
X0298607Y0092304D03*
X0302307Y0091304D03*
X0311607Y0091504D03*
X0321407Y0094404D03*
X0336107Y0092804D03*
X0336307Y0092904D03*
X0336707Y0093104D03*
X0345907Y0092604D03*
D22*
X0353257Y0090504D03*
X0361457Y0087004D03*
X0362457Y0087404D03*
X0362657Y0087504D03*
X0359057Y0082304D03*
X0358857Y0082204D03*
X0358657Y0082104D03*
X0358357Y0082004D03*
X0357857Y0081804D03*
X0344757Y0080004D03*
X0342757Y0079104D03*
X0337057Y0069904D03*
X0335257Y0069304D03*
X0329057Y0067604D03*
X0326257Y0065404D03*
X0326057Y0065304D03*
X0318957Y0065704D03*
X0318657Y0065804D03*
X0316157Y0066604D03*
X0315357Y0068304D03*
X0315457Y0068404D03*
X0318157Y0069304D03*
X0319157Y0072504D03*
X0324057Y0080204D03*
X0311057Y0091304D03*
X0309657Y0093104D03*
X0315357Y0092604D03*
X0296557Y0091204D03*
X0296357Y0091104D03*
X0293257Y0089904D03*
X0290457Y0091604D03*
X0286457Y0092504D03*
X0285757Y0088404D03*
X0278257Y0085904D03*
X0274057Y0085404D03*
X0284057Y0078504D03*
X0284257Y0078604D03*
X0284457Y0078704D03*
X0285057Y0075104D03*
X0283657Y0074504D03*
X0289257Y0080404D03*
X0294357Y0071804D03*
X0294757Y0071604D03*
X0295257Y0071404D03*
X0291457Y0071604D03*
X0297557Y0063904D03*
X0302957Y0062504D03*
X0303757Y0063704D03*
X0306157Y0062504D03*
X0308157Y0063304D03*
X0337057Y0093204D03*
X0338257Y0093704D03*
X0264757Y0073104D03*
X0261257Y0078004D03*
X0259757Y0078904D03*
X0259957Y0079304D03*
X0257857Y0082904D03*
X0257857Y0074204D03*
X0258257Y0071504D03*
D23*
X0255957Y0073104D03*
X0255957Y0073204D03*
X0255857Y0073604D03*
X0255857Y0073704D03*
X0255857Y0073804D03*
X0255957Y0074204D03*
X0255957Y0074304D03*
X0255957Y0074404D03*
X0253657Y0077704D03*
X0253457Y0078304D03*
X0253457Y0078404D03*
X0253457Y0078504D03*
X0253457Y0078604D03*
X0253457Y0078704D03*
X0253457Y0078804D03*
X0253457Y0078904D03*
X0253457Y0079004D03*
X0253557Y0079404D03*
X0253557Y0079504D03*
X0253557Y0079604D03*
X0255257Y0080204D03*
X0254857Y0081004D03*
X0254657Y0081704D03*
X0254657Y0081804D03*
X0254657Y0081904D03*
X0254657Y0082004D03*
X0254657Y0082104D03*
X0254657Y0082204D03*
X0256057Y0082304D03*
X0257457Y0082304D03*
X0257457Y0082404D03*
X0257457Y0082204D03*
X0257357Y0083004D03*
X0257257Y0083404D03*
X0256957Y0081104D03*
X0256957Y0081004D03*
X0258557Y0079504D03*
X0261957Y0079504D03*
X0261957Y0079604D03*
X0261957Y0079704D03*
X0261957Y0079804D03*
X0261957Y0079904D03*
X0261957Y0079404D03*
X0261957Y0079304D03*
X0276557Y0084804D03*
X0276557Y0084904D03*
X0276557Y0085004D03*
X0276557Y0085104D03*
X0276457Y0085504D03*
X0276357Y0085904D03*
X0276257Y0086304D03*
X0276257Y0086404D03*
X0276457Y0087504D03*
X0276557Y0087904D03*
X0276657Y0088304D03*
X0276657Y0088404D03*
X0276657Y0088504D03*
X0276657Y0088604D03*
X0276757Y0089004D03*
X0276757Y0089104D03*
X0276957Y0089704D03*
X0277157Y0090404D03*
X0277157Y0090504D03*
X0277157Y0090604D03*
X0277157Y0090704D03*
X0279357Y0090504D03*
X0281857Y0090504D03*
X0281857Y0090604D03*
X0281857Y0090704D03*
X0281857Y0090804D03*
X0281857Y0090904D03*
X0281857Y0091004D03*
X0281857Y0091104D03*
X0281857Y0091204D03*
X0281857Y0091304D03*
X0281857Y0090404D03*
X0281857Y0090304D03*
X0281857Y0090204D03*
X0281757Y0089804D03*
X0281757Y0089704D03*
X0281757Y0089604D03*
X0281757Y0089504D03*
X0281757Y0089404D03*
X0281757Y0089304D03*
X0281657Y0088904D03*
X0281557Y0088604D03*
X0281357Y0087904D03*
X0281357Y0087804D03*
X0281357Y0087704D03*
X0281257Y0087304D03*
X0283257Y0086504D03*
X0283257Y0086404D03*
X0283257Y0086304D03*
X0283157Y0085904D03*
X0283157Y0085804D03*
X0283157Y0085704D03*
X0283157Y0085604D03*
X0283157Y0085504D03*
X0283157Y0085404D03*
X0283157Y0085304D03*
X0283157Y0085204D03*
X0283157Y0085104D03*
X0283157Y0085004D03*
X0283157Y0084904D03*
X0283157Y0084804D03*
X0283157Y0084704D03*
X0283157Y0084604D03*
X0283157Y0084504D03*
X0283157Y0084404D03*
X0283157Y0084304D03*
X0283157Y0084204D03*
X0283157Y0084104D03*
X0283157Y0084004D03*
X0283157Y0083904D03*
X0283157Y0083804D03*
X0283157Y0083704D03*
X0283157Y0083604D03*
X0283157Y0083504D03*
X0283157Y0083404D03*
X0283157Y0083304D03*
X0283157Y0083204D03*
X0283157Y0083104D03*
X0283157Y0083004D03*
X0283157Y0082904D03*
X0283157Y0082804D03*
X0283157Y0082704D03*
X0283557Y0087404D03*
X0283557Y0087504D03*
X0283557Y0087604D03*
X0283657Y0088004D03*
X0283757Y0088404D03*
X0283757Y0088504D03*
X0288657Y0088504D03*
X0288657Y0088604D03*
X0288657Y0088704D03*
X0288657Y0088404D03*
X0288657Y0088304D03*
X0288657Y0088204D03*
X0288657Y0088104D03*
X0288657Y0088004D03*
X0288657Y0087904D03*
X0288657Y0087804D03*
X0288657Y0087704D03*
X0288557Y0087304D03*
X0288457Y0086904D03*
X0288457Y0086804D03*
X0288457Y0086704D03*
X0288457Y0086604D03*
X0288457Y0086504D03*
X0288457Y0086404D03*
X0288457Y0086304D03*
X0288457Y0086204D03*
X0288457Y0086104D03*
X0288457Y0086004D03*
X0288157Y0085204D03*
X0288157Y0085104D03*
X0287857Y0084404D03*
X0294457Y0086804D03*
X0294657Y0086104D03*
X0295957Y0083104D03*
X0297657Y0080904D03*
X0297657Y0080804D03*
X0297757Y0079804D03*
X0297757Y0079704D03*
X0297757Y0079604D03*
X0297757Y0079504D03*
X0297757Y0079404D03*
X0297757Y0079304D03*
X0297757Y0079204D03*
X0297757Y0079104D03*
X0297757Y0079004D03*
X0297757Y0078904D03*
X0297757Y0078804D03*
X0297757Y0078704D03*
X0297757Y0078604D03*
X0297757Y0078504D03*
X0297757Y0078404D03*
X0297757Y0078304D03*
X0297757Y0078204D03*
X0297757Y0078104D03*
X0297757Y0078004D03*
X0297657Y0077604D03*
X0297657Y0077504D03*
X0297557Y0077104D03*
X0297557Y0077004D03*
X0297457Y0076604D03*
X0299457Y0076204D03*
X0299457Y0076104D03*
X0299457Y0076004D03*
X0299457Y0075904D03*
X0299457Y0075804D03*
X0299457Y0075704D03*
X0299457Y0075604D03*
X0299457Y0075504D03*
X0299457Y0075404D03*
X0299457Y0075304D03*
X0299457Y0075204D03*
X0299457Y0075104D03*
X0299457Y0075004D03*
X0299457Y0074904D03*
X0299457Y0074804D03*
X0299457Y0074704D03*
X0299557Y0074304D03*
X0299557Y0074204D03*
X0299557Y0074104D03*
X0300057Y0072804D03*
X0300057Y0072704D03*
X0300057Y0072604D03*
X0300057Y0072504D03*
X0300057Y0072404D03*
X0300057Y0072304D03*
X0300057Y0072204D03*
X0300057Y0072104D03*
X0300057Y0072004D03*
X0300057Y0071904D03*
X0300057Y0071804D03*
X0300657Y0070204D03*
X0301057Y0069304D03*
X0301057Y0067004D03*
X0301057Y0066904D03*
X0301057Y0066804D03*
X0301057Y0066704D03*
X0301057Y0066604D03*
X0301057Y0066504D03*
X0301057Y0066404D03*
X0301057Y0066304D03*
X0301157Y0065904D03*
X0301157Y0065804D03*
X0301157Y0065704D03*
X0301157Y0065604D03*
X0301157Y0065504D03*
X0301157Y0065404D03*
X0301157Y0065304D03*
X0301757Y0063904D03*
X0301757Y0063804D03*
X0301757Y0063704D03*
X0303257Y0063604D03*
X0303257Y0063504D03*
X0303257Y0063404D03*
X0303257Y0063304D03*
X0303257Y0063204D03*
X0303257Y0063104D03*
X0303257Y0063004D03*
X0303457Y0064404D03*
X0306557Y0064304D03*
X0306657Y0063404D03*
X0306657Y0063304D03*
X0306657Y0063204D03*
X0306657Y0063104D03*
X0306657Y0063004D03*
X0306657Y0062904D03*
X0306657Y0062804D03*
X0306657Y0062704D03*
X0306657Y0062604D03*
X0308657Y0064604D03*
X0308657Y0064704D03*
X0309157Y0065604D03*
X0309157Y0065704D03*
X0309157Y0065804D03*
X0309157Y0065904D03*
X0309157Y0066004D03*
X0309157Y0066104D03*
X0309157Y0066204D03*
X0309157Y0066304D03*
X0309057Y0066704D03*
X0309057Y0066804D03*
X0309057Y0066904D03*
X0309057Y0067004D03*
X0309057Y0067104D03*
X0309057Y0067204D03*
X0309057Y0067304D03*
X0307757Y0069904D03*
X0307757Y0070004D03*
X0307757Y0070104D03*
X0307757Y0070204D03*
X0307757Y0070304D03*
X0307757Y0070404D03*
X0307757Y0070504D03*
X0307757Y0070604D03*
X0308157Y0071704D03*
X0308357Y0072304D03*
X0308357Y0072404D03*
X0308357Y0072504D03*
X0309057Y0074004D03*
X0309057Y0074104D03*
X0309057Y0074204D03*
X0309057Y0074304D03*
X0309057Y0074404D03*
X0309057Y0074504D03*
X0309057Y0074604D03*
X0309057Y0074704D03*
X0309057Y0074804D03*
X0309057Y0074904D03*
X0309057Y0075004D03*
X0309057Y0075104D03*
X0308957Y0075504D03*
X0308957Y0075604D03*
X0308957Y0075704D03*
X0308957Y0075804D03*
X0308957Y0075904D03*
X0308957Y0076004D03*
X0308957Y0076104D03*
X0308957Y0076204D03*
X0308957Y0076304D03*
X0308957Y0076404D03*
X0308957Y0076504D03*
X0308957Y0076604D03*
X0308957Y0076704D03*
X0308957Y0076804D03*
X0308957Y0076904D03*
X0308957Y0077004D03*
X0308957Y0077104D03*
X0308957Y0077204D03*
X0308957Y0077304D03*
X0308957Y0077404D03*
X0301157Y0078904D03*
X0299657Y0077004D03*
X0299657Y0076904D03*
X0299557Y0076604D03*
X0298457Y0070704D03*
X0298457Y0070604D03*
X0298257Y0070004D03*
X0298257Y0069904D03*
X0298257Y0069804D03*
X0298257Y0069704D03*
X0298157Y0069304D03*
X0298157Y0069204D03*
X0298157Y0069104D03*
X0298357Y0068504D03*
X0298357Y0068404D03*
X0298457Y0068004D03*
X0298457Y0067904D03*
X0298457Y0067804D03*
X0298557Y0067404D03*
X0299457Y0065404D03*
X0291457Y0063204D03*
X0291457Y0063104D03*
X0291457Y0063004D03*
X0288257Y0064104D03*
X0288257Y0064204D03*
X0288257Y0064304D03*
X0288257Y0064404D03*
X0288257Y0064504D03*
X0291357Y0068204D03*
X0291357Y0068304D03*
X0291357Y0068404D03*
X0291357Y0068504D03*
X0291357Y0068604D03*
X0291357Y0068704D03*
X0291357Y0068804D03*
X0291357Y0068904D03*
X0290957Y0069804D03*
X0290957Y0069904D03*
X0290857Y0070304D03*
X0290857Y0070404D03*
X0277957Y0087604D03*
X0301757Y0091804D03*
X0302457Y0092904D03*
X0310557Y0091704D03*
X0310557Y0091604D03*
X0310557Y0091504D03*
X0311257Y0093204D03*
X0321857Y0093004D03*
X0321857Y0092904D03*
X0321857Y0092804D03*
X0321857Y0092704D03*
X0321857Y0093704D03*
X0321857Y0093804D03*
X0321857Y0093904D03*
X0321857Y0094004D03*
X0321857Y0094104D03*
X0321757Y0094704D03*
X0332557Y0093104D03*
X0332557Y0093004D03*
X0332557Y0092904D03*
X0332557Y0092804D03*
X0332557Y0092704D03*
X0332557Y0092604D03*
X0332557Y0092504D03*
X0338257Y0091804D03*
X0338257Y0091704D03*
X0338757Y0093004D03*
X0346457Y0092104D03*
X0349357Y0089604D03*
X0353757Y0089604D03*
X0353757Y0089704D03*
X0353757Y0089804D03*
X0353757Y0089904D03*
X0353757Y0089504D03*
X0353757Y0089404D03*
X0353757Y0089304D03*
X0353757Y0089204D03*
X0357757Y0087904D03*
X0359657Y0087604D03*
X0359657Y0087504D03*
X0359657Y0087404D03*
X0335857Y0076804D03*
X0334157Y0077004D03*
X0333257Y0077204D03*
X0333257Y0077304D03*
X0334057Y0078804D03*
X0334057Y0078904D03*
X0337857Y0072704D03*
X0337857Y0072604D03*
X0337857Y0072504D03*
X0337857Y0071804D03*
X0337857Y0071704D03*
X0337857Y0071604D03*
X0338057Y0070904D03*
X0333657Y0067904D03*
X0330557Y0070004D03*
X0329157Y0070004D03*
X0329157Y0070104D03*
X0329157Y0070204D03*
X0329157Y0070304D03*
X0329157Y0070404D03*
X0329157Y0070504D03*
X0329157Y0070604D03*
X0329157Y0070704D03*
X0329157Y0070804D03*
X0329157Y0070904D03*
X0329257Y0071304D03*
X0329457Y0071904D03*
X0322557Y0073504D03*
X0322557Y0073604D03*
X0322557Y0073704D03*
X0322457Y0074104D03*
X0322457Y0074204D03*
X0322457Y0074304D03*
X0322457Y0074404D03*
X0322457Y0074504D03*
X0322457Y0074604D03*
X0322557Y0075004D03*
X0322557Y0075104D03*
X0322557Y0075204D03*
X0322557Y0075304D03*
X0322557Y0075404D03*
X0322557Y0075504D03*
X0322557Y0075604D03*
X0322557Y0075704D03*
X0322557Y0075804D03*
X0322557Y0075904D03*
X0322557Y0076004D03*
X0322557Y0076104D03*
X0322557Y0076204D03*
X0322557Y0076304D03*
X0322557Y0076404D03*
X0322557Y0076504D03*
X0322557Y0076604D03*
X0322557Y0076704D03*
X0322557Y0076804D03*
X0322557Y0076904D03*
X0322557Y0077004D03*
X0322557Y0077104D03*
X0322557Y0077204D03*
X0322557Y0077304D03*
X0322557Y0077404D03*
X0322557Y0077504D03*
X0322557Y0077604D03*
X0322557Y0077704D03*
X0322557Y0077804D03*
X0322557Y0077904D03*
X0322557Y0078004D03*
X0322557Y0078104D03*
X0322557Y0078204D03*
X0322557Y0078304D03*
X0322557Y0078404D03*
X0324757Y0079704D03*
X0329157Y0068104D03*
X0329157Y0068004D03*
X0319457Y0068404D03*
X0314457Y0067604D03*
X0314457Y0067504D03*
D24*
X0315207Y0067004D03*
X0318907Y0069104D03*
X0319007Y0069004D03*
X0318607Y0072304D03*
X0325807Y0065204D03*
X0329907Y0069204D03*
X0338607Y0077604D03*
X0354907Y0087804D03*
X0358207Y0081904D03*
X0361207Y0086904D03*
X0362107Y0087204D03*
X0363007Y0087604D03*
X0363507Y0087804D03*
X0364307Y0088104D03*
X0364907Y0088304D03*
X0365207Y0088404D03*
X0365407Y0088504D03*
X0322607Y0092004D03*
X0316607Y0093104D03*
X0309907Y0093204D03*
X0308607Y0092704D03*
X0301907Y0093204D03*
X0294607Y0090504D03*
X0286107Y0086304D03*
X0286107Y0086204D03*
X0285807Y0088304D03*
X0279207Y0089804D03*
X0279207Y0089904D03*
X0278207Y0083604D03*
X0284907Y0084104D03*
X0285307Y0079004D03*
X0285007Y0078904D03*
X0287607Y0079704D03*
X0289007Y0080304D03*
X0290507Y0080904D03*
X0293107Y0072304D03*
X0294507Y0071704D03*
X0295007Y0071504D03*
X0301807Y0067604D03*
X0297307Y0063804D03*
X0292007Y0062604D03*
X0307807Y0063404D03*
X0259907Y0079204D03*
X0259807Y0079004D03*
X0258307Y0080104D03*
X0254707Y0080504D03*
X0256307Y0084204D03*
D25*
X0257307Y0074404D03*
X0276007Y0077804D03*
X0280407Y0070804D03*
X0285607Y0079104D03*
X0284907Y0084204D03*
X0284907Y0084304D03*
X0285807Y0088004D03*
X0285807Y0088104D03*
X0286507Y0092604D03*
X0279107Y0093104D03*
X0279207Y0089604D03*
X0278307Y0086104D03*
X0273507Y0085204D03*
X0296007Y0091004D03*
X0303307Y0091604D03*
X0308307Y0092604D03*
X0312407Y0091804D03*
X0315107Y0092504D03*
X0324107Y0092504D03*
X0324107Y0080104D03*
X0318807Y0069204D03*
X0317807Y0069404D03*
X0315407Y0066904D03*
X0309607Y0070904D03*
X0308907Y0063104D03*
X0301807Y0067504D03*
X0293407Y0063104D03*
X0292107Y0062704D03*
X0324107Y0064504D03*
X0329207Y0067504D03*
X0329907Y0067304D03*
X0331807Y0066704D03*
X0330007Y0069404D03*
X0340707Y0078404D03*
X0341407Y0078604D03*
X0342007Y0078804D03*
X0342507Y0079004D03*
X0364007Y0088004D03*
D26*
X0355257Y0087904D03*
X0353157Y0087204D03*
X0353157Y0090404D03*
X0339157Y0091204D03*
X0338157Y0093604D03*
X0335357Y0092604D03*
X0326057Y0093104D03*
X0325757Y0093004D03*
X0325257Y0092904D03*
X0320557Y0094104D03*
X0312157Y0091704D03*
X0310557Y0093504D03*
X0295757Y0090904D03*
X0295557Y0090804D03*
X0294957Y0090604D03*
X0287857Y0093004D03*
X0286057Y0086804D03*
X0284957Y0084404D03*
X0278157Y0083704D03*
X0278357Y0086204D03*
X0279257Y0088404D03*
X0279157Y0089504D03*
X0291057Y0081104D03*
X0293057Y0072204D03*
X0290357Y0071204D03*
X0282257Y0074004D03*
X0273257Y0074104D03*
X0256257Y0084104D03*
X0254557Y0080304D03*
X0292157Y0062804D03*
X0301857Y0067404D03*
X0307257Y0063704D03*
X0308857Y0063204D03*
X0317257Y0066304D03*
X0317557Y0069504D03*
X0316757Y0069804D03*
X0315757Y0070104D03*
X0318957Y0071404D03*
X0329957Y0069604D03*
X0329957Y0069504D03*
X0330257Y0067204D03*
X0340457Y0078304D03*
X0340957Y0078504D03*
D27*
X0338207Y0077504D03*
X0335807Y0076904D03*
X0345207Y0080104D03*
X0353307Y0087304D03*
X0346307Y0089604D03*
X0338007Y0093504D03*
X0322907Y0092104D03*
X0317507Y0093404D03*
X0317207Y0093304D03*
X0291407Y0081204D03*
X0286007Y0079204D03*
X0285107Y0081504D03*
X0285107Y0084604D03*
X0285107Y0084704D03*
X0285907Y0087104D03*
X0285807Y0087404D03*
X0285807Y0087504D03*
X0285807Y0087604D03*
X0279107Y0088804D03*
X0279107Y0088904D03*
X0279107Y0089004D03*
X0279107Y0089104D03*
X0278507Y0086804D03*
X0278507Y0086704D03*
X0278507Y0086604D03*
X0279207Y0093004D03*
X0280507Y0078404D03*
X0284907Y0070104D03*
X0289507Y0071004D03*
X0292307Y0062904D03*
X0307407Y0063504D03*
X0318107Y0065904D03*
X0319007Y0071304D03*
X0321907Y0070104D03*
X0322007Y0070004D03*
X0322207Y0069904D03*
X0322307Y0069804D03*
X0322407Y0069704D03*
X0263007Y0077404D03*
D28*
X0263057Y0077304D03*
X0261357Y0077904D03*
X0259857Y0079104D03*
X0258257Y0080204D03*
X0260257Y0081304D03*
X0254657Y0080404D03*
X0256557Y0074704D03*
X0257557Y0074304D03*
X0262757Y0073704D03*
X0273857Y0085304D03*
X0278257Y0086004D03*
X0279257Y0088304D03*
X0279257Y0089704D03*
X0285757Y0088204D03*
X0286157Y0086704D03*
X0286157Y0086604D03*
X0286157Y0086504D03*
X0286157Y0086404D03*
X0286057Y0086104D03*
X0286057Y0086004D03*
X0286057Y0085904D03*
X0286057Y0085804D03*
X0285957Y0085704D03*
X0293257Y0090004D03*
X0295157Y0090704D03*
X0300957Y0092904D03*
X0302457Y0091404D03*
X0311157Y0091404D03*
X0311857Y0091604D03*
X0316857Y0093204D03*
X0321257Y0094304D03*
X0323757Y0092404D03*
X0324557Y0092604D03*
X0324757Y0092704D03*
X0324957Y0092804D03*
X0335757Y0092704D03*
X0341757Y0078704D03*
X0340257Y0078204D03*
X0339957Y0078104D03*
X0329957Y0069304D03*
X0320457Y0070904D03*
X0315657Y0070204D03*
X0315757Y0066804D03*
X0315957Y0066704D03*
X0308957Y0063004D03*
X0295657Y0071304D03*
X0291157Y0071504D03*
X0290957Y0071404D03*
X0287857Y0074404D03*
X0283357Y0074404D03*
X0290757Y0081004D03*
X0354657Y0087704D03*
X0361057Y0086804D03*
X0363757Y0087904D03*
X0364557Y0088204D03*
X0366557Y0088904D03*
D29*
X0336357Y0069704D03*
X0319157Y0071104D03*
X0293957Y0063204D03*
X0278157Y0083904D03*
X0286157Y0091204D03*
X0287857Y0092804D03*
X0299457Y0092504D03*
X0304857Y0092004D03*
X0313257Y0092004D03*
X0313657Y0092104D03*
X0322957Y0092204D03*
X0267357Y0078204D03*
D30*
X0263007Y0083504D03*
X0270907Y0084704D03*
X0279607Y0073504D03*
X0284407Y0070204D03*
X0290007Y0063804D03*
X0294807Y0063304D03*
X0295107Y0063404D03*
X0295307Y0063504D03*
X0293307Y0081504D03*
X0281907Y0094204D03*
D31*
X0258557Y0079404D03*
X0255257Y0080104D03*
X0288257Y0063504D03*
X0306557Y0064404D03*
X0308657Y0071604D03*
X0308957Y0077504D03*
X0322157Y0070704D03*
X0334057Y0079004D03*
D32*
X0324057Y0079904D03*
X0318257Y0072204D03*
X0315857Y0070004D03*
X0307357Y0063604D03*
X0289957Y0071104D03*
X0281257Y0073804D03*
X0282357Y0077904D03*
X0287257Y0079604D03*
X0285057Y0084504D03*
X0285757Y0087704D03*
X0285757Y0087804D03*
X0279157Y0088704D03*
X0279057Y0089204D03*
X0278457Y0086504D03*
X0278457Y0086404D03*
X0286157Y0091404D03*
X0296057Y0081004D03*
X0310457Y0093404D03*
X0320257Y0094004D03*
X0321057Y0094204D03*
X0326557Y0093304D03*
X0326957Y0093404D03*
X0340857Y0091704D03*
X0359457Y0086304D03*
X0256257Y0084004D03*
D33*
X0265457Y0083904D03*
X0265957Y0078004D03*
X0261157Y0070604D03*
X0286857Y0070504D03*
X0295857Y0063604D03*
X0322457Y0064204D03*
X0357757Y0088404D03*
X0306857Y0092304D03*
D34*
X0289957Y0063704D03*
X0289957Y0063604D03*
X0354757Y0081204D03*
D35*
X0321307Y0073104D03*
X0317207Y0072004D03*
X0311707Y0071404D03*
X0296407Y0063704D03*
X0287007Y0074604D03*
X0280507Y0093804D03*
D36*
X0263557Y0077604D03*
X0290057Y0063904D03*
X0322557Y0064304D03*
X0331557Y0067104D03*
X0336057Y0077104D03*
X0353057Y0080904D03*
X0344657Y0092304D03*
D37*
X0341857Y0091904D03*
X0341457Y0091804D03*
X0352757Y0090204D03*
X0353557Y0087504D03*
X0323057Y0092304D03*
X0319657Y0093904D03*
X0319357Y0093804D03*
X0318057Y0093504D03*
X0304357Y0091904D03*
X0300357Y0092804D03*
X0287857Y0092704D03*
X0285257Y0085204D03*
X0279357Y0092904D03*
X0269957Y0078804D03*
X0266657Y0078104D03*
X0263057Y0077504D03*
X0264657Y0073204D03*
X0295557Y0081204D03*
X0309957Y0071004D03*
X0317757Y0072104D03*
X0322157Y0064004D03*
D38*
X0293307Y0081604D03*
X0285607Y0074904D03*
X0289607Y0064004D03*
X0328307Y0093604D03*
X0334607Y0092504D03*
D39*
X0334007Y0092304D03*
X0329407Y0093904D03*
X0321107Y0073004D03*
X0322407Y0064104D03*
X0354207Y0081104D03*
X0272207Y0085004D03*
X0271907Y0084904D03*
X0268707Y0084404D03*
X0268407Y0084304D03*
X0267507Y0084204D03*
D40*
X0273207Y0078304D03*
X0322607Y0064404D03*
X0343807Y0092204D03*
D41*
X0358707Y0086104D03*
X0322207Y0091704D03*
X0302407Y0093604D03*
X0302007Y0090904D03*
X0288407Y0074104D03*
X0290807Y0070804D03*
X0292607Y0065404D03*
X0302607Y0067004D03*
X0323407Y0069104D03*
X0277907Y0085604D03*
X0260807Y0077704D03*
X0259807Y0078204D03*
X0256007Y0080904D03*
D42*
X0256257Y0083804D03*
X0256257Y0083904D03*
X0256857Y0074504D03*
X0279357Y0073304D03*
X0285357Y0075004D03*
X0286957Y0079504D03*
X0293357Y0081704D03*
X0285857Y0087204D03*
X0285857Y0087304D03*
X0285157Y0084804D03*
X0286157Y0091304D03*
X0287857Y0092904D03*
X0278657Y0087304D03*
X0278657Y0087204D03*
X0278557Y0087104D03*
X0278557Y0087004D03*
X0278557Y0086904D03*
X0278157Y0083804D03*
X0299257Y0092404D03*
X0301557Y0093004D03*
X0310357Y0093304D03*
X0312857Y0091904D03*
X0330157Y0094004D03*
X0331957Y0094404D03*
X0339257Y0091304D03*
X0352957Y0090304D03*
X0359557Y0086404D03*
X0357257Y0081704D03*
X0337857Y0077404D03*
X0329357Y0067404D03*
X0319057Y0071204D03*
X0317757Y0066104D03*
X0317957Y0066004D03*
D43*
X0317507Y0066204D03*
X0317407Y0069604D03*
X0317207Y0069704D03*
X0320407Y0071004D03*
X0329907Y0069704D03*
X0335607Y0069404D03*
X0336707Y0069804D03*
X0342307Y0078904D03*
X0354207Y0087604D03*
X0366507Y0088804D03*
X0332007Y0094504D03*
X0326307Y0093204D03*
X0314707Y0092404D03*
X0303607Y0091704D03*
X0301707Y0093104D03*
X0286007Y0087004D03*
X0286007Y0086904D03*
X0285807Y0087904D03*
X0279207Y0088504D03*
X0279207Y0088604D03*
X0279107Y0089304D03*
X0279107Y0089404D03*
X0278407Y0086304D03*
X0282707Y0094304D03*
X0260207Y0081204D03*
X0261507Y0077804D03*
X0256707Y0074604D03*
X0281807Y0073904D03*
X0282507Y0074104D03*
X0282707Y0074204D03*
X0283007Y0074304D03*
X0290607Y0071304D03*
X0324107Y0080004D03*
D44*
X0321407Y0073204D03*
X0331907Y0066804D03*
X0336007Y0077004D03*
X0352007Y0080804D03*
X0356507Y0081504D03*
X0366207Y0088604D03*
X0339407Y0091404D03*
X0331807Y0094304D03*
X0318507Y0093604D03*
X0300007Y0092704D03*
X0285407Y0085504D03*
X0285307Y0085304D03*
X0285107Y0081704D03*
X0280607Y0073704D03*
X0279407Y0092804D03*
D45*
X0272557Y0085104D03*
X0263657Y0083604D03*
X0260557Y0073204D03*
X0285057Y0081904D03*
X0307457Y0092504D03*
X0328757Y0093704D03*
X0329057Y0093804D03*
X0339657Y0091604D03*
X0346157Y0080304D03*
X0331857Y0066904D03*
D46*
X0331707Y0067004D03*
X0344807Y0092404D03*
X0306207Y0092204D03*
X0305807Y0092104D03*
X0265107Y0083804D03*
X0265707Y0077904D03*
D47*
X0260307Y0081004D03*
X0285207Y0085104D03*
X0285507Y0085604D03*
X0286407Y0079304D03*
X0299707Y0092604D03*
X0304007Y0091804D03*
X0321507Y0073304D03*
X0336007Y0069504D03*
X0336207Y0069604D03*
X0356907Y0081604D03*
X0359707Y0086504D03*
X0355907Y0088004D03*
X0345407Y0092504D03*
X0337807Y0093304D03*
D48*
X0337907Y0093404D03*
X0333507Y0092104D03*
X0345607Y0080204D03*
X0348707Y0080804D03*
X0353407Y0087404D03*
X0358607Y0088004D03*
X0366307Y0088704D03*
X0314307Y0092304D03*
X0314007Y0092204D03*
X0302707Y0091504D03*
X0295807Y0081104D03*
X0286707Y0079404D03*
X0285107Y0081604D03*
X0285207Y0084904D03*
X0285207Y0085004D03*
X0278707Y0087404D03*
X0267707Y0078304D03*
X0260307Y0081104D03*
X0287407Y0074504D03*
X0289207Y0070904D03*
X0316007Y0069904D03*
D49*
X0293657Y0081304D03*
X0284157Y0070304D03*
D50*
X0279807Y0070404D03*
D51*
X0277507Y0070504D03*
D52*
X0288457Y0070804D03*
X0285357Y0085404D03*
X0286157Y0091104D03*
X0266457Y0084104D03*
X0266157Y0084004D03*
X0260957Y0070504D03*
X0318857Y0093704D03*
X0327857Y0093504D03*
X0333757Y0092204D03*
X0356257Y0081404D03*
D53*
X0321057Y0072904D03*
X0287457Y0070604D03*
X0277557Y0070804D03*
X0269057Y0084504D03*
X0271557Y0084804D03*
D54*
X0276757Y0070604D03*
D55*
X0287907Y0070704D03*
X0269407Y0084604D03*
X0264307Y0083704D03*
X0259507Y0083004D03*
X0307207Y0092404D03*
X0331407Y0094104D03*
X0334107Y0092404D03*
X0342607Y0092004D03*
X0353507Y0081004D03*
D56*
X0275807Y0070704D03*
D57*
X0285807Y0074804D03*
X0261307Y0070704D03*
D58*
X0260057Y0083104D03*
X0281857Y0094104D03*
X0298557Y0070804D03*
X0336357Y0077204D03*
X0343257Y0092104D03*
X0357457Y0088204D03*
D59*
X0267257Y0070804D03*
D60*
X0281807Y0094004D03*
X0298207Y0070904D03*
D61*
X0266107Y0070904D03*
D62*
X0270307Y0078604D03*
X0298107Y0071004D03*
D63*
X0266457Y0071004D03*
D64*
X0270557Y0078704D03*
X0309757Y0071104D03*
X0355257Y0081304D03*
X0357557Y0088304D03*
D65*
X0315757Y0071904D03*
X0297957Y0071104D03*
X0293757Y0081404D03*
X0267457Y0073504D03*
D66*
X0266257Y0071104D03*
D67*
X0309957Y0071204D03*
D68*
X0297807Y0071204D03*
X0261107Y0083404D03*
D69*
X0266157Y0071204D03*
D70*
X0260357Y0083204D03*
X0285857Y0074704D03*
X0310157Y0071304D03*
X0313557Y0071504D03*
D71*
X0314157Y0071604D03*
X0263857Y0077704D03*
D72*
X0281807Y0093904D03*
X0314707Y0071704D03*
D73*
X0315157Y0071804D03*
D74*
X0273907Y0074004D03*
X0262807Y0073304D03*
D75*
X0265157Y0077804D03*
X0279557Y0073404D03*
X0285057Y0081804D03*
X0286157Y0091004D03*
X0279457Y0092704D03*
X0331657Y0094204D03*
X0339557Y0091504D03*
X0359957Y0086604D03*
X0360057Y0086704D03*
D76*
X0263907Y0073404D03*
D77*
X0261607Y0073504D03*
D78*
X0278457Y0073604D03*
D79*
X0268907Y0073604D03*
D80*
X0261457Y0073604D03*
D81*
X0272307Y0073704D03*
D82*
X0272507Y0073804D03*
D83*
X0273557Y0073904D03*
D84*
X0336507Y0077304D03*
X0357307Y0088104D03*
D85*
X0276707Y0077904D03*
X0270407Y0078504D03*
D86*
X0278307Y0078004D03*
D87*
X0278207Y0078104D03*
D88*
X0278207Y0078204D03*
D89*
X0280457Y0078304D03*
D90*
X0270707Y0078404D03*
X0348607Y0080504D03*
X0349407Y0080604D03*
D91*
X0348107Y0080404D03*
D92*
X0349807Y0080704D03*
D93*
X0260857Y0083304D03*
D94*
X0348457Y0089704D03*
D95*
X0348657Y0089804D03*
D96*
X0348857Y0089904D03*
D97*
X0349057Y0090004D03*
D98*
X0350607Y0090104D03*
D99*
X0125676Y0175193D02*
X0125676Y0211807D01*
X0089062Y0211807D01*
X0089062Y0175193D01*
X0125676Y0175193D01*
D100*
X0122133Y0178736D03*
D101*
X0126267Y0168894D03*
D102*
X0110077Y0193550D02*
X0110077Y0194436D01*
X0110077Y0193993D02*
X0107419Y0193993D01*
X0107419Y0193550D02*
X0107419Y0194436D01*
X0107862Y0195242D02*
X0107419Y0195685D01*
X0107419Y0196571D01*
X0107862Y0197014D01*
X0107419Y0197779D02*
X0107419Y0199551D01*
X0107419Y0198665D02*
X0110077Y0198665D01*
X0109191Y0197779D01*
X0109634Y0197014D02*
X0110077Y0196571D01*
X0110077Y0195685D01*
X0109634Y0195242D01*
X0107862Y0195242D01*
D103*
X0063274Y0197949D02*
X0063274Y0198343D01*
X0051463Y0198343D01*
X0051463Y0197949D01*
X0051463Y0179051D02*
X0051463Y0178657D01*
X0063274Y0178657D01*
X0063274Y0179051D01*
X0064731Y0097988D02*
X0069849Y0097988D01*
X0064731Y0077713D02*
X0064731Y0072988D01*
X0064731Y0077713D01*
X0064731Y0059012D02*
X0067093Y0059012D01*
X0069849Y0059012D01*
X0067093Y0059012D01*
X0069062Y0059012D01*
X0160007Y0059012D02*
X0160007Y0067476D01*
X0160007Y0089524D02*
X0160007Y0097988D01*
X0284219Y0232909D02*
X0290519Y0232909D01*
X0290519Y0244091D02*
X0284219Y0244091D01*
X0344219Y0242909D02*
X0350519Y0242909D01*
X0350519Y0254091D02*
X0344219Y0254091D01*
D104*
X0352448Y0248500D02*
X0352487Y0248500D01*
X0282290Y0238500D02*
X0282251Y0238500D01*
D105*
X0284771Y0233500D02*
X0284771Y0243539D01*
X0289928Y0243539D01*
X0289928Y0233500D01*
X0284771Y0233500D01*
X0344810Y0243461D02*
X0349967Y0243461D01*
X0349967Y0253500D01*
X0344810Y0253500D01*
X0344810Y0243461D01*
D106*
X0272489Y0198500D02*
X0272249Y0198500D01*
X0272249Y0183500D02*
X0272489Y0183500D01*
X0272489Y0168500D02*
X0272249Y0168500D01*
X0272249Y0153500D02*
X0272489Y0153500D01*
M02*
