G75*
%MOIN*%
%OFA0B0*%
%FSLAX25Y25*%
%IPPOS*%
%LPD*%
%AMOC8*
5,1,8,0,0,1.08239X$1,22.5*
%
%ADD10C,0.00000*%
%ADD11C,0.08858*%
%ADD12R,0.06400X0.06400*%
%ADD13OC8,0.06400*%
%ADD14R,0.05550X0.05550*%
%ADD15R,0.03200X0.06600*%
%ADD16C,0.07500*%
%ADD17C,0.10500*%
%ADD18C,0.06000*%
%ADD19C,0.06400*%
%ADD20R,0.07400X0.07400*%
%ADD21C,0.07400*%
%ADD22C,0.13350*%
%ADD23R,0.03150X0.03150*%
%ADD24R,0.03937X0.04331*%
%ADD25C,0.01600*%
%ADD26C,0.04362*%
D10*
X0022369Y0003033D02*
X0022402Y0003000D01*
X0022469Y0003000D01*
X0022502Y0003033D01*
X0022553Y0003033D02*
X0022553Y0003000D01*
X0022586Y0003000D01*
X0022586Y0003033D01*
X0022553Y0003033D01*
X0022553Y0003100D02*
X0022553Y0003133D01*
X0022586Y0003133D01*
X0022586Y0003100D01*
X0022553Y0003100D01*
X0022502Y0003167D02*
X0022469Y0003200D01*
X0022402Y0003200D01*
X0022369Y0003167D01*
X0022369Y0003033D01*
X0022645Y0003000D02*
X0022779Y0003200D01*
X0022829Y0003200D02*
X0022829Y0003033D01*
X0022863Y0003000D01*
X0022929Y0003000D01*
X0022963Y0003033D01*
X0022963Y0003200D01*
X0023047Y0003133D02*
X0023147Y0003133D01*
X0023198Y0003100D02*
X0023231Y0003133D01*
X0023298Y0003133D01*
X0023331Y0003100D01*
X0023331Y0003067D01*
X0023198Y0003067D01*
X0023198Y0003100D02*
X0023198Y0003033D01*
X0023231Y0003000D01*
X0023298Y0003000D01*
X0023382Y0003000D02*
X0023382Y0003133D01*
X0023382Y0003067D02*
X0023449Y0003133D01*
X0023482Y0003133D01*
X0023535Y0003100D02*
X0023569Y0003133D01*
X0023669Y0003133D01*
X0023635Y0003067D02*
X0023569Y0003067D01*
X0023535Y0003100D01*
X0023535Y0003000D02*
X0023635Y0003000D01*
X0023669Y0003033D01*
X0023635Y0003067D01*
X0023719Y0003000D02*
X0023853Y0003200D01*
X0023937Y0003133D02*
X0023904Y0003100D01*
X0023904Y0003033D01*
X0023937Y0003000D01*
X0024037Y0003000D01*
X0024088Y0003033D02*
X0024121Y0003000D01*
X0024154Y0003033D01*
X0024188Y0003000D01*
X0024221Y0003033D01*
X0024221Y0003133D01*
X0024272Y0003167D02*
X0024305Y0003200D01*
X0024372Y0003200D01*
X0024405Y0003167D01*
X0024272Y0003033D01*
X0024305Y0003000D01*
X0024372Y0003000D01*
X0024405Y0003033D01*
X0024405Y0003167D01*
X0024456Y0003167D02*
X0024489Y0003200D01*
X0024556Y0003200D01*
X0024589Y0003167D01*
X0024456Y0003033D01*
X0024489Y0003000D01*
X0024556Y0003000D01*
X0024589Y0003033D01*
X0024589Y0003167D01*
X0024640Y0003100D02*
X0024740Y0003100D01*
X0024774Y0003067D01*
X0024774Y0003033D01*
X0024740Y0003000D01*
X0024674Y0003000D01*
X0024640Y0003033D01*
X0024640Y0003100D01*
X0024707Y0003167D01*
X0024774Y0003200D01*
X0024824Y0003167D02*
X0024858Y0003200D01*
X0024924Y0003200D01*
X0024958Y0003167D01*
X0024958Y0003133D01*
X0024924Y0003100D01*
X0024958Y0003067D01*
X0024958Y0003033D01*
X0024924Y0003000D01*
X0024858Y0003000D01*
X0024824Y0003033D01*
X0024891Y0003100D02*
X0024924Y0003100D01*
X0025008Y0003000D02*
X0025142Y0003200D01*
X0025193Y0003200D02*
X0025293Y0003200D01*
X0025326Y0003167D01*
X0025326Y0003033D01*
X0025293Y0003000D01*
X0025193Y0003000D01*
X0025193Y0003200D01*
X0025377Y0003100D02*
X0025377Y0003033D01*
X0025410Y0003000D01*
X0025477Y0003000D01*
X0025510Y0003033D01*
X0025510Y0003100D01*
X0025477Y0003133D01*
X0025410Y0003133D01*
X0025377Y0003100D01*
X0025561Y0003133D02*
X0025561Y0003033D01*
X0025594Y0003000D01*
X0025628Y0003033D01*
X0025661Y0003000D01*
X0025694Y0003033D01*
X0025694Y0003133D01*
X0025745Y0003133D02*
X0025845Y0003133D01*
X0025879Y0003100D01*
X0025879Y0003000D01*
X0025929Y0003000D02*
X0025996Y0003000D01*
X0025963Y0003000D02*
X0025963Y0003200D01*
X0025929Y0003200D01*
X0026052Y0003100D02*
X0026052Y0003033D01*
X0026085Y0003000D01*
X0026152Y0003000D01*
X0026185Y0003033D01*
X0026185Y0003100D01*
X0026152Y0003133D01*
X0026085Y0003133D01*
X0026052Y0003100D01*
X0026236Y0003033D02*
X0026270Y0003067D01*
X0026370Y0003067D01*
X0026370Y0003100D02*
X0026370Y0003000D01*
X0026270Y0003000D01*
X0026236Y0003033D01*
X0026270Y0003133D02*
X0026336Y0003133D01*
X0026370Y0003100D01*
X0026420Y0003100D02*
X0026454Y0003133D01*
X0026554Y0003133D01*
X0026604Y0003100D02*
X0026638Y0003133D01*
X0026738Y0003133D01*
X0026705Y0003067D02*
X0026638Y0003067D01*
X0026604Y0003100D01*
X0026604Y0003000D02*
X0026705Y0003000D01*
X0026738Y0003033D01*
X0026705Y0003067D01*
X0026789Y0003000D02*
X0026922Y0003200D01*
X0027006Y0003133D02*
X0026973Y0003100D01*
X0026973Y0003033D01*
X0027006Y0003000D01*
X0027106Y0003000D01*
X0027157Y0003000D02*
X0027157Y0003133D01*
X0027106Y0003133D02*
X0027006Y0003133D01*
X0027157Y0003067D02*
X0027224Y0003133D01*
X0027257Y0003133D01*
X0027310Y0003100D02*
X0027310Y0003033D01*
X0027344Y0003000D01*
X0027410Y0003000D01*
X0027444Y0003033D01*
X0027444Y0003100D01*
X0027410Y0003133D01*
X0027344Y0003133D01*
X0027310Y0003100D01*
X0027495Y0003100D02*
X0027495Y0003033D01*
X0027528Y0003000D01*
X0027628Y0003000D01*
X0027679Y0003000D02*
X0027712Y0003000D01*
X0027712Y0003033D01*
X0027679Y0003033D01*
X0027679Y0003000D01*
X0027771Y0003000D02*
X0027871Y0003000D01*
X0027904Y0003033D01*
X0027904Y0003100D01*
X0027871Y0003133D01*
X0027771Y0003133D01*
X0027771Y0003200D02*
X0027771Y0003000D01*
X0027955Y0003000D02*
X0027955Y0003133D01*
X0027988Y0003133D01*
X0028022Y0003100D01*
X0028055Y0003133D01*
X0028088Y0003100D01*
X0028088Y0003000D01*
X0028139Y0003000D02*
X0028239Y0003000D01*
X0028273Y0003033D01*
X0028273Y0003100D01*
X0028239Y0003133D01*
X0028139Y0003133D01*
X0028139Y0002933D01*
X0028022Y0003000D02*
X0028022Y0003100D01*
X0027628Y0003133D02*
X0027528Y0003133D01*
X0027495Y0003100D01*
X0026554Y0003000D02*
X0026454Y0003000D01*
X0026420Y0003033D01*
X0026420Y0003100D01*
X0026554Y0003200D02*
X0026554Y0003000D01*
X0025745Y0003000D02*
X0025745Y0003133D01*
X0024456Y0003167D02*
X0024456Y0003033D01*
X0024272Y0003033D02*
X0024272Y0003167D01*
X0024088Y0003133D02*
X0024088Y0003033D01*
X0024037Y0003133D02*
X0023937Y0003133D01*
X0023147Y0003033D02*
X0023114Y0003067D01*
X0023047Y0003067D01*
X0023013Y0003100D01*
X0023047Y0003133D01*
X0023013Y0003000D02*
X0023114Y0003000D01*
X0023147Y0003033D01*
X0022369Y0003500D02*
X0022369Y0318461D01*
X0416070Y0318461D01*
X0416070Y0003500D01*
X0022369Y0003500D01*
X0029730Y0019248D02*
X0029732Y0019381D01*
X0029738Y0019514D01*
X0029748Y0019647D01*
X0029762Y0019779D01*
X0029780Y0019911D01*
X0029802Y0020043D01*
X0029827Y0020173D01*
X0029857Y0020303D01*
X0029890Y0020432D01*
X0029928Y0020560D01*
X0029969Y0020686D01*
X0030014Y0020812D01*
X0030062Y0020936D01*
X0030115Y0021058D01*
X0030171Y0021179D01*
X0030230Y0021298D01*
X0030293Y0021415D01*
X0030360Y0021530D01*
X0030430Y0021644D01*
X0030503Y0021755D01*
X0030580Y0021864D01*
X0030660Y0021970D01*
X0030743Y0022074D01*
X0030829Y0022176D01*
X0030918Y0022275D01*
X0031010Y0022371D01*
X0031105Y0022464D01*
X0031202Y0022555D01*
X0031303Y0022643D01*
X0031405Y0022727D01*
X0031511Y0022809D01*
X0031619Y0022887D01*
X0031729Y0022962D01*
X0031841Y0023034D01*
X0031955Y0023102D01*
X0032071Y0023167D01*
X0032189Y0023228D01*
X0032309Y0023286D01*
X0032431Y0023340D01*
X0032554Y0023390D01*
X0032679Y0023437D01*
X0032805Y0023480D01*
X0032932Y0023519D01*
X0033060Y0023555D01*
X0033190Y0023586D01*
X0033320Y0023614D01*
X0033451Y0023638D01*
X0033583Y0023658D01*
X0033715Y0023674D01*
X0033847Y0023686D01*
X0033980Y0023694D01*
X0034113Y0023698D01*
X0034247Y0023698D01*
X0034380Y0023694D01*
X0034513Y0023686D01*
X0034645Y0023674D01*
X0034777Y0023658D01*
X0034909Y0023638D01*
X0035040Y0023614D01*
X0035170Y0023586D01*
X0035300Y0023555D01*
X0035428Y0023519D01*
X0035555Y0023480D01*
X0035681Y0023437D01*
X0035806Y0023390D01*
X0035929Y0023340D01*
X0036051Y0023286D01*
X0036171Y0023228D01*
X0036289Y0023167D01*
X0036405Y0023102D01*
X0036519Y0023034D01*
X0036631Y0022962D01*
X0036741Y0022887D01*
X0036849Y0022809D01*
X0036955Y0022727D01*
X0037057Y0022643D01*
X0037158Y0022555D01*
X0037255Y0022464D01*
X0037350Y0022371D01*
X0037442Y0022275D01*
X0037531Y0022176D01*
X0037617Y0022074D01*
X0037700Y0021970D01*
X0037780Y0021864D01*
X0037857Y0021755D01*
X0037930Y0021644D01*
X0038000Y0021530D01*
X0038067Y0021415D01*
X0038130Y0021298D01*
X0038189Y0021179D01*
X0038245Y0021058D01*
X0038298Y0020936D01*
X0038346Y0020812D01*
X0038391Y0020686D01*
X0038432Y0020560D01*
X0038470Y0020432D01*
X0038503Y0020303D01*
X0038533Y0020173D01*
X0038558Y0020043D01*
X0038580Y0019911D01*
X0038598Y0019779D01*
X0038612Y0019647D01*
X0038622Y0019514D01*
X0038628Y0019381D01*
X0038630Y0019248D01*
X0038628Y0019115D01*
X0038622Y0018982D01*
X0038612Y0018849D01*
X0038598Y0018717D01*
X0038580Y0018585D01*
X0038558Y0018453D01*
X0038533Y0018323D01*
X0038503Y0018193D01*
X0038470Y0018064D01*
X0038432Y0017936D01*
X0038391Y0017810D01*
X0038346Y0017684D01*
X0038298Y0017560D01*
X0038245Y0017438D01*
X0038189Y0017317D01*
X0038130Y0017198D01*
X0038067Y0017081D01*
X0038000Y0016966D01*
X0037930Y0016852D01*
X0037857Y0016741D01*
X0037780Y0016632D01*
X0037700Y0016526D01*
X0037617Y0016422D01*
X0037531Y0016320D01*
X0037442Y0016221D01*
X0037350Y0016125D01*
X0037255Y0016032D01*
X0037158Y0015941D01*
X0037057Y0015853D01*
X0036955Y0015769D01*
X0036849Y0015687D01*
X0036741Y0015609D01*
X0036631Y0015534D01*
X0036519Y0015462D01*
X0036405Y0015394D01*
X0036289Y0015329D01*
X0036171Y0015268D01*
X0036051Y0015210D01*
X0035929Y0015156D01*
X0035806Y0015106D01*
X0035681Y0015059D01*
X0035555Y0015016D01*
X0035428Y0014977D01*
X0035300Y0014941D01*
X0035170Y0014910D01*
X0035040Y0014882D01*
X0034909Y0014858D01*
X0034777Y0014838D01*
X0034645Y0014822D01*
X0034513Y0014810D01*
X0034380Y0014802D01*
X0034247Y0014798D01*
X0034113Y0014798D01*
X0033980Y0014802D01*
X0033847Y0014810D01*
X0033715Y0014822D01*
X0033583Y0014838D01*
X0033451Y0014858D01*
X0033320Y0014882D01*
X0033190Y0014910D01*
X0033060Y0014941D01*
X0032932Y0014977D01*
X0032805Y0015016D01*
X0032679Y0015059D01*
X0032554Y0015106D01*
X0032431Y0015156D01*
X0032309Y0015210D01*
X0032189Y0015268D01*
X0032071Y0015329D01*
X0031955Y0015394D01*
X0031841Y0015462D01*
X0031729Y0015534D01*
X0031619Y0015609D01*
X0031511Y0015687D01*
X0031405Y0015769D01*
X0031303Y0015853D01*
X0031202Y0015941D01*
X0031105Y0016032D01*
X0031010Y0016125D01*
X0030918Y0016221D01*
X0030829Y0016320D01*
X0030743Y0016422D01*
X0030660Y0016526D01*
X0030580Y0016632D01*
X0030503Y0016741D01*
X0030430Y0016852D01*
X0030360Y0016966D01*
X0030293Y0017081D01*
X0030230Y0017198D01*
X0030171Y0017317D01*
X0030115Y0017438D01*
X0030062Y0017560D01*
X0030014Y0017684D01*
X0029969Y0017810D01*
X0029928Y0017936D01*
X0029890Y0018064D01*
X0029857Y0018193D01*
X0029827Y0018323D01*
X0029802Y0018453D01*
X0029780Y0018585D01*
X0029762Y0018717D01*
X0029748Y0018849D01*
X0029738Y0018982D01*
X0029732Y0019115D01*
X0029730Y0019248D01*
X0215282Y0160980D02*
X0215284Y0161105D01*
X0215290Y0161230D01*
X0215300Y0161354D01*
X0215314Y0161478D01*
X0215331Y0161602D01*
X0215353Y0161725D01*
X0215379Y0161847D01*
X0215408Y0161969D01*
X0215441Y0162089D01*
X0215479Y0162208D01*
X0215519Y0162327D01*
X0215564Y0162443D01*
X0215612Y0162558D01*
X0215664Y0162672D01*
X0215720Y0162784D01*
X0215779Y0162894D01*
X0215841Y0163002D01*
X0215907Y0163109D01*
X0215976Y0163213D01*
X0216049Y0163314D01*
X0216124Y0163414D01*
X0216203Y0163511D01*
X0216285Y0163605D01*
X0216370Y0163697D01*
X0216457Y0163786D01*
X0216548Y0163872D01*
X0216641Y0163955D01*
X0216737Y0164036D01*
X0216835Y0164113D01*
X0216935Y0164187D01*
X0217038Y0164258D01*
X0217143Y0164325D01*
X0217251Y0164390D01*
X0217360Y0164450D01*
X0217471Y0164508D01*
X0217584Y0164561D01*
X0217698Y0164611D01*
X0217814Y0164658D01*
X0217931Y0164700D01*
X0218050Y0164739D01*
X0218170Y0164775D01*
X0218291Y0164806D01*
X0218413Y0164834D01*
X0218535Y0164857D01*
X0218659Y0164877D01*
X0218783Y0164893D01*
X0218907Y0164905D01*
X0219032Y0164913D01*
X0219157Y0164917D01*
X0219281Y0164917D01*
X0219406Y0164913D01*
X0219531Y0164905D01*
X0219655Y0164893D01*
X0219779Y0164877D01*
X0219903Y0164857D01*
X0220025Y0164834D01*
X0220147Y0164806D01*
X0220268Y0164775D01*
X0220388Y0164739D01*
X0220507Y0164700D01*
X0220624Y0164658D01*
X0220740Y0164611D01*
X0220854Y0164561D01*
X0220967Y0164508D01*
X0221078Y0164450D01*
X0221188Y0164390D01*
X0221295Y0164325D01*
X0221400Y0164258D01*
X0221503Y0164187D01*
X0221603Y0164113D01*
X0221701Y0164036D01*
X0221797Y0163955D01*
X0221890Y0163872D01*
X0221981Y0163786D01*
X0222068Y0163697D01*
X0222153Y0163605D01*
X0222235Y0163511D01*
X0222314Y0163414D01*
X0222389Y0163314D01*
X0222462Y0163213D01*
X0222531Y0163109D01*
X0222597Y0163002D01*
X0222659Y0162894D01*
X0222718Y0162784D01*
X0222774Y0162672D01*
X0222826Y0162558D01*
X0222874Y0162443D01*
X0222919Y0162327D01*
X0222959Y0162208D01*
X0222997Y0162089D01*
X0223030Y0161969D01*
X0223059Y0161847D01*
X0223085Y0161725D01*
X0223107Y0161602D01*
X0223124Y0161478D01*
X0223138Y0161354D01*
X0223148Y0161230D01*
X0223154Y0161105D01*
X0223156Y0160980D01*
X0223154Y0160855D01*
X0223148Y0160730D01*
X0223138Y0160606D01*
X0223124Y0160482D01*
X0223107Y0160358D01*
X0223085Y0160235D01*
X0223059Y0160113D01*
X0223030Y0159991D01*
X0222997Y0159871D01*
X0222959Y0159752D01*
X0222919Y0159633D01*
X0222874Y0159517D01*
X0222826Y0159402D01*
X0222774Y0159288D01*
X0222718Y0159176D01*
X0222659Y0159066D01*
X0222597Y0158958D01*
X0222531Y0158851D01*
X0222462Y0158747D01*
X0222389Y0158646D01*
X0222314Y0158546D01*
X0222235Y0158449D01*
X0222153Y0158355D01*
X0222068Y0158263D01*
X0221981Y0158174D01*
X0221890Y0158088D01*
X0221797Y0158005D01*
X0221701Y0157924D01*
X0221603Y0157847D01*
X0221503Y0157773D01*
X0221400Y0157702D01*
X0221295Y0157635D01*
X0221187Y0157570D01*
X0221078Y0157510D01*
X0220967Y0157452D01*
X0220854Y0157399D01*
X0220740Y0157349D01*
X0220624Y0157302D01*
X0220507Y0157260D01*
X0220388Y0157221D01*
X0220268Y0157185D01*
X0220147Y0157154D01*
X0220025Y0157126D01*
X0219903Y0157103D01*
X0219779Y0157083D01*
X0219655Y0157067D01*
X0219531Y0157055D01*
X0219406Y0157047D01*
X0219281Y0157043D01*
X0219157Y0157043D01*
X0219032Y0157047D01*
X0218907Y0157055D01*
X0218783Y0157067D01*
X0218659Y0157083D01*
X0218535Y0157103D01*
X0218413Y0157126D01*
X0218291Y0157154D01*
X0218170Y0157185D01*
X0218050Y0157221D01*
X0217931Y0157260D01*
X0217814Y0157302D01*
X0217698Y0157349D01*
X0217584Y0157399D01*
X0217471Y0157452D01*
X0217360Y0157510D01*
X0217250Y0157570D01*
X0217143Y0157635D01*
X0217038Y0157702D01*
X0216935Y0157773D01*
X0216835Y0157847D01*
X0216737Y0157924D01*
X0216641Y0158005D01*
X0216548Y0158088D01*
X0216457Y0158174D01*
X0216370Y0158263D01*
X0216285Y0158355D01*
X0216203Y0158449D01*
X0216124Y0158546D01*
X0216049Y0158646D01*
X0215976Y0158747D01*
X0215907Y0158851D01*
X0215841Y0158958D01*
X0215779Y0159066D01*
X0215720Y0159176D01*
X0215664Y0159288D01*
X0215612Y0159402D01*
X0215564Y0159517D01*
X0215519Y0159633D01*
X0215479Y0159752D01*
X0215441Y0159871D01*
X0215408Y0159991D01*
X0215379Y0160113D01*
X0215353Y0160235D01*
X0215331Y0160358D01*
X0215314Y0160482D01*
X0215300Y0160606D01*
X0215290Y0160730D01*
X0215284Y0160855D01*
X0215282Y0160980D01*
X0399809Y0019248D02*
X0399811Y0019381D01*
X0399817Y0019514D01*
X0399827Y0019647D01*
X0399841Y0019779D01*
X0399859Y0019911D01*
X0399881Y0020043D01*
X0399906Y0020173D01*
X0399936Y0020303D01*
X0399969Y0020432D01*
X0400007Y0020560D01*
X0400048Y0020686D01*
X0400093Y0020812D01*
X0400141Y0020936D01*
X0400194Y0021058D01*
X0400250Y0021179D01*
X0400309Y0021298D01*
X0400372Y0021415D01*
X0400439Y0021530D01*
X0400509Y0021644D01*
X0400582Y0021755D01*
X0400659Y0021864D01*
X0400739Y0021970D01*
X0400822Y0022074D01*
X0400908Y0022176D01*
X0400997Y0022275D01*
X0401089Y0022371D01*
X0401184Y0022464D01*
X0401281Y0022555D01*
X0401382Y0022643D01*
X0401484Y0022727D01*
X0401590Y0022809D01*
X0401698Y0022887D01*
X0401808Y0022962D01*
X0401920Y0023034D01*
X0402034Y0023102D01*
X0402150Y0023167D01*
X0402268Y0023228D01*
X0402388Y0023286D01*
X0402510Y0023340D01*
X0402633Y0023390D01*
X0402758Y0023437D01*
X0402884Y0023480D01*
X0403011Y0023519D01*
X0403139Y0023555D01*
X0403269Y0023586D01*
X0403399Y0023614D01*
X0403530Y0023638D01*
X0403662Y0023658D01*
X0403794Y0023674D01*
X0403926Y0023686D01*
X0404059Y0023694D01*
X0404192Y0023698D01*
X0404326Y0023698D01*
X0404459Y0023694D01*
X0404592Y0023686D01*
X0404724Y0023674D01*
X0404856Y0023658D01*
X0404988Y0023638D01*
X0405119Y0023614D01*
X0405249Y0023586D01*
X0405379Y0023555D01*
X0405507Y0023519D01*
X0405634Y0023480D01*
X0405760Y0023437D01*
X0405885Y0023390D01*
X0406008Y0023340D01*
X0406130Y0023286D01*
X0406250Y0023228D01*
X0406368Y0023167D01*
X0406484Y0023102D01*
X0406598Y0023034D01*
X0406710Y0022962D01*
X0406820Y0022887D01*
X0406928Y0022809D01*
X0407034Y0022727D01*
X0407136Y0022643D01*
X0407237Y0022555D01*
X0407334Y0022464D01*
X0407429Y0022371D01*
X0407521Y0022275D01*
X0407610Y0022176D01*
X0407696Y0022074D01*
X0407779Y0021970D01*
X0407859Y0021864D01*
X0407936Y0021755D01*
X0408009Y0021644D01*
X0408079Y0021530D01*
X0408146Y0021415D01*
X0408209Y0021298D01*
X0408268Y0021179D01*
X0408324Y0021058D01*
X0408377Y0020936D01*
X0408425Y0020812D01*
X0408470Y0020686D01*
X0408511Y0020560D01*
X0408549Y0020432D01*
X0408582Y0020303D01*
X0408612Y0020173D01*
X0408637Y0020043D01*
X0408659Y0019911D01*
X0408677Y0019779D01*
X0408691Y0019647D01*
X0408701Y0019514D01*
X0408707Y0019381D01*
X0408709Y0019248D01*
X0408707Y0019115D01*
X0408701Y0018982D01*
X0408691Y0018849D01*
X0408677Y0018717D01*
X0408659Y0018585D01*
X0408637Y0018453D01*
X0408612Y0018323D01*
X0408582Y0018193D01*
X0408549Y0018064D01*
X0408511Y0017936D01*
X0408470Y0017810D01*
X0408425Y0017684D01*
X0408377Y0017560D01*
X0408324Y0017438D01*
X0408268Y0017317D01*
X0408209Y0017198D01*
X0408146Y0017081D01*
X0408079Y0016966D01*
X0408009Y0016852D01*
X0407936Y0016741D01*
X0407859Y0016632D01*
X0407779Y0016526D01*
X0407696Y0016422D01*
X0407610Y0016320D01*
X0407521Y0016221D01*
X0407429Y0016125D01*
X0407334Y0016032D01*
X0407237Y0015941D01*
X0407136Y0015853D01*
X0407034Y0015769D01*
X0406928Y0015687D01*
X0406820Y0015609D01*
X0406710Y0015534D01*
X0406598Y0015462D01*
X0406484Y0015394D01*
X0406368Y0015329D01*
X0406250Y0015268D01*
X0406130Y0015210D01*
X0406008Y0015156D01*
X0405885Y0015106D01*
X0405760Y0015059D01*
X0405634Y0015016D01*
X0405507Y0014977D01*
X0405379Y0014941D01*
X0405249Y0014910D01*
X0405119Y0014882D01*
X0404988Y0014858D01*
X0404856Y0014838D01*
X0404724Y0014822D01*
X0404592Y0014810D01*
X0404459Y0014802D01*
X0404326Y0014798D01*
X0404192Y0014798D01*
X0404059Y0014802D01*
X0403926Y0014810D01*
X0403794Y0014822D01*
X0403662Y0014838D01*
X0403530Y0014858D01*
X0403399Y0014882D01*
X0403269Y0014910D01*
X0403139Y0014941D01*
X0403011Y0014977D01*
X0402884Y0015016D01*
X0402758Y0015059D01*
X0402633Y0015106D01*
X0402510Y0015156D01*
X0402388Y0015210D01*
X0402268Y0015268D01*
X0402150Y0015329D01*
X0402034Y0015394D01*
X0401920Y0015462D01*
X0401808Y0015534D01*
X0401698Y0015609D01*
X0401590Y0015687D01*
X0401484Y0015769D01*
X0401382Y0015853D01*
X0401281Y0015941D01*
X0401184Y0016032D01*
X0401089Y0016125D01*
X0400997Y0016221D01*
X0400908Y0016320D01*
X0400822Y0016422D01*
X0400739Y0016526D01*
X0400659Y0016632D01*
X0400582Y0016741D01*
X0400509Y0016852D01*
X0400439Y0016966D01*
X0400372Y0017081D01*
X0400309Y0017198D01*
X0400250Y0017317D01*
X0400194Y0017438D01*
X0400141Y0017560D01*
X0400093Y0017684D01*
X0400048Y0017810D01*
X0400007Y0017936D01*
X0399969Y0018064D01*
X0399936Y0018193D01*
X0399906Y0018323D01*
X0399881Y0018453D01*
X0399859Y0018585D01*
X0399841Y0018717D01*
X0399827Y0018849D01*
X0399817Y0018982D01*
X0399811Y0019115D01*
X0399809Y0019248D01*
X0029730Y0308618D02*
X0029732Y0308751D01*
X0029738Y0308884D01*
X0029748Y0309017D01*
X0029762Y0309149D01*
X0029780Y0309281D01*
X0029802Y0309413D01*
X0029827Y0309543D01*
X0029857Y0309673D01*
X0029890Y0309802D01*
X0029928Y0309930D01*
X0029969Y0310056D01*
X0030014Y0310182D01*
X0030062Y0310306D01*
X0030115Y0310428D01*
X0030171Y0310549D01*
X0030230Y0310668D01*
X0030293Y0310785D01*
X0030360Y0310900D01*
X0030430Y0311014D01*
X0030503Y0311125D01*
X0030580Y0311234D01*
X0030660Y0311340D01*
X0030743Y0311444D01*
X0030829Y0311546D01*
X0030918Y0311645D01*
X0031010Y0311741D01*
X0031105Y0311834D01*
X0031202Y0311925D01*
X0031303Y0312013D01*
X0031405Y0312097D01*
X0031511Y0312179D01*
X0031619Y0312257D01*
X0031729Y0312332D01*
X0031841Y0312404D01*
X0031955Y0312472D01*
X0032071Y0312537D01*
X0032189Y0312598D01*
X0032309Y0312656D01*
X0032431Y0312710D01*
X0032554Y0312760D01*
X0032679Y0312807D01*
X0032805Y0312850D01*
X0032932Y0312889D01*
X0033060Y0312925D01*
X0033190Y0312956D01*
X0033320Y0312984D01*
X0033451Y0313008D01*
X0033583Y0313028D01*
X0033715Y0313044D01*
X0033847Y0313056D01*
X0033980Y0313064D01*
X0034113Y0313068D01*
X0034247Y0313068D01*
X0034380Y0313064D01*
X0034513Y0313056D01*
X0034645Y0313044D01*
X0034777Y0313028D01*
X0034909Y0313008D01*
X0035040Y0312984D01*
X0035170Y0312956D01*
X0035300Y0312925D01*
X0035428Y0312889D01*
X0035555Y0312850D01*
X0035681Y0312807D01*
X0035806Y0312760D01*
X0035929Y0312710D01*
X0036051Y0312656D01*
X0036171Y0312598D01*
X0036289Y0312537D01*
X0036405Y0312472D01*
X0036519Y0312404D01*
X0036631Y0312332D01*
X0036741Y0312257D01*
X0036849Y0312179D01*
X0036955Y0312097D01*
X0037057Y0312013D01*
X0037158Y0311925D01*
X0037255Y0311834D01*
X0037350Y0311741D01*
X0037442Y0311645D01*
X0037531Y0311546D01*
X0037617Y0311444D01*
X0037700Y0311340D01*
X0037780Y0311234D01*
X0037857Y0311125D01*
X0037930Y0311014D01*
X0038000Y0310900D01*
X0038067Y0310785D01*
X0038130Y0310668D01*
X0038189Y0310549D01*
X0038245Y0310428D01*
X0038298Y0310306D01*
X0038346Y0310182D01*
X0038391Y0310056D01*
X0038432Y0309930D01*
X0038470Y0309802D01*
X0038503Y0309673D01*
X0038533Y0309543D01*
X0038558Y0309413D01*
X0038580Y0309281D01*
X0038598Y0309149D01*
X0038612Y0309017D01*
X0038622Y0308884D01*
X0038628Y0308751D01*
X0038630Y0308618D01*
X0038628Y0308485D01*
X0038622Y0308352D01*
X0038612Y0308219D01*
X0038598Y0308087D01*
X0038580Y0307955D01*
X0038558Y0307823D01*
X0038533Y0307693D01*
X0038503Y0307563D01*
X0038470Y0307434D01*
X0038432Y0307306D01*
X0038391Y0307180D01*
X0038346Y0307054D01*
X0038298Y0306930D01*
X0038245Y0306808D01*
X0038189Y0306687D01*
X0038130Y0306568D01*
X0038067Y0306451D01*
X0038000Y0306336D01*
X0037930Y0306222D01*
X0037857Y0306111D01*
X0037780Y0306002D01*
X0037700Y0305896D01*
X0037617Y0305792D01*
X0037531Y0305690D01*
X0037442Y0305591D01*
X0037350Y0305495D01*
X0037255Y0305402D01*
X0037158Y0305311D01*
X0037057Y0305223D01*
X0036955Y0305139D01*
X0036849Y0305057D01*
X0036741Y0304979D01*
X0036631Y0304904D01*
X0036519Y0304832D01*
X0036405Y0304764D01*
X0036289Y0304699D01*
X0036171Y0304638D01*
X0036051Y0304580D01*
X0035929Y0304526D01*
X0035806Y0304476D01*
X0035681Y0304429D01*
X0035555Y0304386D01*
X0035428Y0304347D01*
X0035300Y0304311D01*
X0035170Y0304280D01*
X0035040Y0304252D01*
X0034909Y0304228D01*
X0034777Y0304208D01*
X0034645Y0304192D01*
X0034513Y0304180D01*
X0034380Y0304172D01*
X0034247Y0304168D01*
X0034113Y0304168D01*
X0033980Y0304172D01*
X0033847Y0304180D01*
X0033715Y0304192D01*
X0033583Y0304208D01*
X0033451Y0304228D01*
X0033320Y0304252D01*
X0033190Y0304280D01*
X0033060Y0304311D01*
X0032932Y0304347D01*
X0032805Y0304386D01*
X0032679Y0304429D01*
X0032554Y0304476D01*
X0032431Y0304526D01*
X0032309Y0304580D01*
X0032189Y0304638D01*
X0032071Y0304699D01*
X0031955Y0304764D01*
X0031841Y0304832D01*
X0031729Y0304904D01*
X0031619Y0304979D01*
X0031511Y0305057D01*
X0031405Y0305139D01*
X0031303Y0305223D01*
X0031202Y0305311D01*
X0031105Y0305402D01*
X0031010Y0305495D01*
X0030918Y0305591D01*
X0030829Y0305690D01*
X0030743Y0305792D01*
X0030660Y0305896D01*
X0030580Y0306002D01*
X0030503Y0306111D01*
X0030430Y0306222D01*
X0030360Y0306336D01*
X0030293Y0306451D01*
X0030230Y0306568D01*
X0030171Y0306687D01*
X0030115Y0306808D01*
X0030062Y0306930D01*
X0030014Y0307054D01*
X0029969Y0307180D01*
X0029928Y0307306D01*
X0029890Y0307434D01*
X0029857Y0307563D01*
X0029827Y0307693D01*
X0029802Y0307823D01*
X0029780Y0307955D01*
X0029762Y0308087D01*
X0029748Y0308219D01*
X0029738Y0308352D01*
X0029732Y0308485D01*
X0029730Y0308618D01*
D11*
X0037369Y0193500D03*
X0037369Y0118500D03*
X0055479Y0043500D03*
X0187369Y0118500D03*
X0252369Y0118500D03*
X0252369Y0193500D03*
X0187369Y0193500D03*
X0205479Y0043500D03*
X0232684Y0043500D03*
X0382684Y0043500D03*
X0402369Y0118500D03*
X0402369Y0193500D03*
D12*
X0052369Y0238500D03*
D13*
X0042369Y0238500D03*
X0042369Y0248500D03*
X0052369Y0248500D03*
X0052369Y0258500D03*
X0042369Y0258500D03*
D14*
X0222369Y0243500D03*
X0232369Y0243500D03*
X0242369Y0243500D03*
X0302369Y0243500D03*
X0312369Y0243500D03*
X0322369Y0243500D03*
X0332369Y0243500D03*
D15*
X0364869Y0311000D03*
X0214869Y0311000D03*
D16*
X0397369Y0288500D03*
D17*
X0407408Y0278461D03*
X0387330Y0278461D03*
X0387330Y0298539D03*
X0407408Y0298539D03*
D18*
X0062369Y0281500D02*
X0062369Y0275500D01*
X0052369Y0275500D02*
X0052369Y0281500D01*
X0042369Y0281500D02*
X0042369Y0275500D01*
X0032369Y0275500D02*
X0032369Y0281500D01*
D19*
X0109495Y0258185D03*
X0117369Y0258185D03*
X0125243Y0258185D03*
X0144495Y0258185D03*
X0152369Y0258185D03*
X0160243Y0258185D03*
X0179495Y0258185D03*
X0187369Y0258185D03*
X0195243Y0258185D03*
D20*
X0082369Y0278500D03*
D21*
X0092369Y0278500D03*
X0102369Y0278500D03*
X0112369Y0278500D03*
X0122369Y0278500D03*
X0132369Y0278500D03*
D22*
X0152369Y0303500D03*
X0172369Y0303500D03*
X0192369Y0303500D03*
D23*
X0212330Y0117673D03*
X0218235Y0117673D03*
D24*
X0218629Y0129484D03*
X0211936Y0129484D03*
D25*
X0175912Y0129484D01*
X0144416Y0160980D01*
X0144638Y0156799D02*
X0174326Y0127111D01*
X0175355Y0126684D01*
X0207967Y0126684D01*
X0207967Y0126490D01*
X0209139Y0125319D01*
X0214733Y0125319D01*
X0215282Y0125868D01*
X0215435Y0125716D01*
X0215435Y0120851D01*
X0215141Y0120557D01*
X0215010Y0120688D01*
X0214599Y0120925D01*
X0214141Y0121048D01*
X0212330Y0121048D01*
X0212330Y0117673D01*
X0212330Y0114298D01*
X0214141Y0114298D01*
X0214599Y0114421D01*
X0215010Y0114658D01*
X0215141Y0114789D01*
X0215832Y0114098D01*
X0220638Y0114098D01*
X0221810Y0115270D01*
X0221810Y0120076D01*
X0221035Y0120851D01*
X0221035Y0125319D01*
X0221426Y0125319D01*
X0222597Y0126490D01*
X0222597Y0132478D01*
X0221426Y0133650D01*
X0215832Y0133650D01*
X0215282Y0133100D01*
X0214733Y0133650D01*
X0209139Y0133650D01*
X0207967Y0132478D01*
X0207967Y0132284D01*
X0177072Y0132284D01*
X0148597Y0160759D01*
X0148597Y0161812D01*
X0147961Y0163349D01*
X0146785Y0164525D01*
X0145248Y0165161D01*
X0143585Y0165161D01*
X0142048Y0164525D01*
X0140872Y0163349D01*
X0140235Y0161812D01*
X0140235Y0160149D01*
X0140872Y0158612D01*
X0142048Y0157436D01*
X0143585Y0156799D01*
X0144638Y0156799D01*
X0143203Y0156957D02*
X0040169Y0156957D01*
X0040169Y0155359D02*
X0146078Y0155359D01*
X0147677Y0153760D02*
X0040169Y0153760D01*
X0040169Y0152162D02*
X0149275Y0152162D01*
X0150874Y0150563D02*
X0040169Y0150563D01*
X0040169Y0148965D02*
X0152472Y0148965D01*
X0154071Y0147366D02*
X0040169Y0147366D01*
X0040169Y0145768D02*
X0155669Y0145768D01*
X0157268Y0144169D02*
X0040169Y0144169D01*
X0040169Y0142570D02*
X0158866Y0142570D01*
X0160465Y0140972D02*
X0040169Y0140972D01*
X0040169Y0139373D02*
X0162063Y0139373D01*
X0163662Y0137775D02*
X0040169Y0137775D01*
X0040169Y0136176D02*
X0165260Y0136176D01*
X0166859Y0134578D02*
X0040169Y0134578D01*
X0040169Y0132979D02*
X0168457Y0132979D01*
X0170056Y0131381D02*
X0040169Y0131381D01*
X0040169Y0129782D02*
X0093075Y0129782D01*
X0092501Y0129545D02*
X0091324Y0128368D01*
X0090688Y0126832D01*
X0090688Y0125168D01*
X0091324Y0123632D01*
X0092501Y0122455D01*
X0094037Y0121819D01*
X0095701Y0121819D01*
X0097237Y0122455D01*
X0097982Y0123200D01*
X0116756Y0123200D01*
X0117501Y0122455D01*
X0119037Y0121819D01*
X0120701Y0121819D01*
X0122237Y0122455D01*
X0123414Y0123632D01*
X0124050Y0125168D01*
X0124050Y0126832D01*
X0123414Y0128368D01*
X0122237Y0129545D01*
X0120701Y0130181D01*
X0119037Y0130181D01*
X0117501Y0129545D01*
X0116756Y0128800D01*
X0097982Y0128800D01*
X0097237Y0129545D01*
X0095701Y0130181D01*
X0094037Y0130181D01*
X0092501Y0129545D01*
X0091248Y0128184D02*
X0040169Y0128184D01*
X0040169Y0126585D02*
X0090688Y0126585D01*
X0090763Y0124987D02*
X0040169Y0124987D01*
X0040169Y0124299D02*
X0040169Y0187701D01*
X0041011Y0188050D01*
X0042819Y0189858D01*
X0043798Y0192221D01*
X0043798Y0194779D01*
X0042819Y0197142D01*
X0041011Y0198950D01*
X0038648Y0199929D01*
X0036090Y0199929D01*
X0033727Y0198950D01*
X0031919Y0197142D01*
X0030940Y0194779D01*
X0030940Y0192221D01*
X0031919Y0189858D01*
X0033727Y0188050D01*
X0034569Y0187701D01*
X0034569Y0124299D01*
X0033727Y0123950D01*
X0031919Y0122142D01*
X0030940Y0119779D01*
X0030940Y0117221D01*
X0031919Y0114858D01*
X0033727Y0113050D01*
X0036090Y0112071D01*
X0038648Y0112071D01*
X0041011Y0113050D01*
X0042819Y0114858D01*
X0043798Y0117221D01*
X0043798Y0119779D01*
X0042819Y0122142D01*
X0041011Y0123950D01*
X0040169Y0124299D01*
X0041573Y0123388D02*
X0091568Y0123388D01*
X0094869Y0126000D02*
X0119869Y0126000D01*
X0121663Y0129782D02*
X0171654Y0129782D01*
X0173253Y0128184D02*
X0123490Y0128184D01*
X0124050Y0126585D02*
X0207967Y0126585D01*
X0210060Y0120925D02*
X0209650Y0120688D01*
X0209314Y0120353D01*
X0209077Y0119943D01*
X0208955Y0119485D01*
X0208955Y0117673D01*
X0208955Y0115861D01*
X0209077Y0115404D01*
X0209314Y0114993D01*
X0209650Y0114658D01*
X0210060Y0114421D01*
X0210518Y0114298D01*
X0212330Y0114298D01*
X0212330Y0117673D01*
X0212330Y0117673D01*
X0212330Y0117673D01*
X0212329Y0117673D02*
X0208955Y0117673D01*
X0212329Y0117673D01*
X0212329Y0117673D01*
X0212330Y0117673D02*
X0212330Y0121048D01*
X0210518Y0121048D01*
X0210060Y0120925D01*
X0209221Y0120191D02*
X0193627Y0120191D01*
X0193798Y0119779D02*
X0192819Y0122142D01*
X0191011Y0123950D01*
X0188648Y0124929D01*
X0186090Y0124929D01*
X0183727Y0123950D01*
X0181919Y0122142D01*
X0180940Y0119779D01*
X0180940Y0117221D01*
X0181919Y0114858D01*
X0183727Y0113050D01*
X0186090Y0112071D01*
X0188648Y0112071D01*
X0191011Y0113050D01*
X0192819Y0114858D01*
X0193798Y0117221D01*
X0193798Y0119779D01*
X0193798Y0118593D02*
X0208955Y0118593D01*
X0208955Y0116994D02*
X0193704Y0116994D01*
X0193042Y0115396D02*
X0209082Y0115396D01*
X0212330Y0115396D02*
X0212330Y0115396D01*
X0212330Y0116994D02*
X0212330Y0116994D01*
X0212330Y0118593D02*
X0212330Y0118593D01*
X0212330Y0120191D02*
X0212330Y0120191D01*
X0215435Y0121790D02*
X0192965Y0121790D01*
X0191573Y0123388D02*
X0215435Y0123388D01*
X0215435Y0124987D02*
X0123975Y0124987D01*
X0123170Y0123388D02*
X0183165Y0123388D01*
X0181773Y0121790D02*
X0042965Y0121790D01*
X0043627Y0120191D02*
X0181111Y0120191D01*
X0180940Y0118593D02*
X0043798Y0118593D01*
X0043704Y0116994D02*
X0181034Y0116994D01*
X0181696Y0115396D02*
X0043042Y0115396D01*
X0041758Y0113797D02*
X0182980Y0113797D01*
X0185781Y0112199D02*
X0038957Y0112199D01*
X0035781Y0112199D02*
X0024369Y0112199D01*
X0024369Y0113797D02*
X0032980Y0113797D01*
X0031696Y0115396D02*
X0024369Y0115396D01*
X0024369Y0116994D02*
X0031034Y0116994D01*
X0030940Y0118593D02*
X0024369Y0118593D01*
X0024369Y0120191D02*
X0031111Y0120191D01*
X0031773Y0121790D02*
X0024369Y0121790D01*
X0024369Y0123388D02*
X0033165Y0123388D01*
X0034569Y0124987D02*
X0024369Y0124987D01*
X0024369Y0126585D02*
X0034569Y0126585D01*
X0034569Y0128184D02*
X0024369Y0128184D01*
X0024369Y0129782D02*
X0034569Y0129782D01*
X0034569Y0131381D02*
X0024369Y0131381D01*
X0024369Y0132979D02*
X0034569Y0132979D01*
X0034569Y0134578D02*
X0024369Y0134578D01*
X0024369Y0136176D02*
X0034569Y0136176D01*
X0034569Y0137775D02*
X0024369Y0137775D01*
X0024369Y0139373D02*
X0034569Y0139373D01*
X0034569Y0140972D02*
X0024369Y0140972D01*
X0024369Y0142570D02*
X0034569Y0142570D01*
X0034569Y0144169D02*
X0024369Y0144169D01*
X0024369Y0145768D02*
X0034569Y0145768D01*
X0034569Y0147366D02*
X0024369Y0147366D01*
X0024369Y0148965D02*
X0034569Y0148965D01*
X0034569Y0150563D02*
X0024369Y0150563D01*
X0024369Y0152162D02*
X0034569Y0152162D01*
X0034569Y0153760D02*
X0024369Y0153760D01*
X0024369Y0155359D02*
X0034569Y0155359D01*
X0034569Y0156957D02*
X0024369Y0156957D01*
X0024369Y0158556D02*
X0034569Y0158556D01*
X0034569Y0160154D02*
X0024369Y0160154D01*
X0024369Y0161753D02*
X0034569Y0161753D01*
X0034569Y0163351D02*
X0024369Y0163351D01*
X0024369Y0164950D02*
X0034569Y0164950D01*
X0034569Y0166548D02*
X0024369Y0166548D01*
X0024369Y0168147D02*
X0034569Y0168147D01*
X0034569Y0169745D02*
X0024369Y0169745D01*
X0024369Y0171344D02*
X0034569Y0171344D01*
X0034569Y0172942D02*
X0024369Y0172942D01*
X0024369Y0174541D02*
X0034569Y0174541D01*
X0034569Y0176139D02*
X0024369Y0176139D01*
X0024369Y0177738D02*
X0034569Y0177738D01*
X0034569Y0179336D02*
X0024369Y0179336D01*
X0024369Y0180935D02*
X0034569Y0180935D01*
X0034569Y0182533D02*
X0024369Y0182533D01*
X0024369Y0184132D02*
X0034569Y0184132D01*
X0034569Y0185730D02*
X0024369Y0185730D01*
X0024369Y0187329D02*
X0034569Y0187329D01*
X0032849Y0188927D02*
X0024369Y0188927D01*
X0024369Y0190526D02*
X0031642Y0190526D01*
X0030980Y0192124D02*
X0024369Y0192124D01*
X0024369Y0193723D02*
X0030940Y0193723D01*
X0031165Y0195321D02*
X0024369Y0195321D01*
X0024369Y0196920D02*
X0031827Y0196920D01*
X0033295Y0198518D02*
X0024369Y0198518D01*
X0024369Y0200117D02*
X0149569Y0200117D01*
X0149569Y0201715D02*
X0024369Y0201715D01*
X0024369Y0203314D02*
X0139142Y0203314D01*
X0138824Y0203632D02*
X0140001Y0202455D01*
X0141537Y0201819D01*
X0143201Y0201819D01*
X0144737Y0202455D01*
X0145914Y0203632D01*
X0146550Y0205168D01*
X0146550Y0206832D01*
X0145914Y0208368D01*
X0145169Y0209113D01*
X0145169Y0239057D01*
X0144743Y0240086D01*
X0143955Y0240874D01*
X0142926Y0241300D01*
X0100169Y0241300D01*
X0100169Y0259057D01*
X0099743Y0260086D01*
X0098955Y0260874D01*
X0097926Y0261300D01*
X0056923Y0261300D01*
X0054523Y0263700D01*
X0054029Y0263700D01*
X0054743Y0264414D01*
X0055169Y0265443D01*
X0055169Y0271248D01*
X0055201Y0271261D01*
X0056608Y0272668D01*
X0057369Y0274505D01*
X0057369Y0282495D01*
X0056608Y0284332D01*
X0055240Y0285700D01*
X0060039Y0285700D01*
X0059853Y0285605D01*
X0059242Y0285161D01*
X0058708Y0284627D01*
X0058264Y0284016D01*
X0057921Y0283343D01*
X0057687Y0282624D01*
X0057569Y0281878D01*
X0057569Y0278600D01*
X0062269Y0278600D01*
X0062269Y0278400D01*
X0062469Y0278400D01*
X0062469Y0278600D01*
X0067169Y0278600D01*
X0067169Y0281878D01*
X0067051Y0282624D01*
X0066817Y0283343D01*
X0066474Y0284016D01*
X0066030Y0284627D01*
X0065496Y0285161D01*
X0064885Y0285605D01*
X0064699Y0285700D01*
X0109569Y0285700D01*
X0109569Y0283510D01*
X0109140Y0283332D01*
X0107537Y0281729D01*
X0107369Y0281324D01*
X0107201Y0281729D01*
X0105598Y0283332D01*
X0103503Y0284200D01*
X0101235Y0284200D01*
X0099140Y0283332D01*
X0097537Y0281729D01*
X0097369Y0281324D01*
X0097201Y0281729D01*
X0095598Y0283332D01*
X0093503Y0284200D01*
X0091235Y0284200D01*
X0089140Y0283332D01*
X0088069Y0282261D01*
X0088069Y0283028D01*
X0086897Y0284200D01*
X0077841Y0284200D01*
X0076669Y0283028D01*
X0076669Y0273972D01*
X0077841Y0272800D01*
X0086897Y0272800D01*
X0088069Y0273972D01*
X0088069Y0274739D01*
X0089140Y0273668D01*
X0091235Y0272800D01*
X0093503Y0272800D01*
X0095598Y0273668D01*
X0097201Y0275271D01*
X0097369Y0275676D01*
X0097537Y0275271D01*
X0099140Y0273668D01*
X0101235Y0272800D01*
X0103503Y0272800D01*
X0105598Y0273668D01*
X0107201Y0275271D01*
X0107369Y0275676D01*
X0107537Y0275271D01*
X0109140Y0273668D01*
X0111235Y0272800D01*
X0113503Y0272800D01*
X0115598Y0273668D01*
X0117201Y0275271D01*
X0117488Y0275964D01*
X0117665Y0275617D01*
X0118174Y0274917D01*
X0118786Y0274305D01*
X0119486Y0273796D01*
X0120258Y0273403D01*
X0121081Y0273135D01*
X0121936Y0273000D01*
X0122169Y0273000D01*
X0122169Y0278300D01*
X0122569Y0278300D01*
X0122569Y0273000D01*
X0122802Y0273000D01*
X0123657Y0273135D01*
X0124480Y0273403D01*
X0125252Y0273796D01*
X0125952Y0274305D01*
X0126564Y0274917D01*
X0127073Y0275617D01*
X0127250Y0275964D01*
X0127537Y0275271D01*
X0129140Y0273668D01*
X0131235Y0272800D01*
X0133503Y0272800D01*
X0135598Y0273668D01*
X0137201Y0275271D01*
X0138069Y0277366D01*
X0138069Y0279634D01*
X0137201Y0281729D01*
X0135598Y0283332D01*
X0133503Y0284200D01*
X0131235Y0284200D01*
X0129140Y0283332D01*
X0127537Y0281729D01*
X0127250Y0281036D01*
X0127073Y0281383D01*
X0126564Y0282083D01*
X0125952Y0282695D01*
X0125252Y0283204D01*
X0124480Y0283597D01*
X0123657Y0283865D01*
X0122802Y0284000D01*
X0122569Y0284000D01*
X0122569Y0278700D01*
X0122169Y0278700D01*
X0122169Y0284000D01*
X0121936Y0284000D01*
X0121081Y0283865D01*
X0120258Y0283597D01*
X0119486Y0283204D01*
X0118786Y0282695D01*
X0118174Y0282083D01*
X0117665Y0281383D01*
X0117488Y0281036D01*
X0117201Y0281729D01*
X0115598Y0283332D01*
X0115169Y0283510D01*
X0115169Y0285700D01*
X0139569Y0285700D01*
X0139569Y0272943D01*
X0139995Y0271914D01*
X0140783Y0271126D01*
X0141812Y0270700D01*
X0184569Y0270700D01*
X0184569Y0262654D01*
X0184423Y0262593D01*
X0183432Y0261602D01*
X0182441Y0262593D01*
X0180529Y0263385D01*
X0178461Y0263385D01*
X0176549Y0262593D01*
X0175087Y0261131D01*
X0174295Y0259219D01*
X0174295Y0257151D01*
X0175087Y0255239D01*
X0176549Y0253777D01*
X0178461Y0252985D01*
X0180529Y0252985D01*
X0182441Y0253777D01*
X0183432Y0254768D01*
X0184423Y0253777D01*
X0186335Y0252985D01*
X0188403Y0252985D01*
X0189317Y0253363D01*
X0191669Y0251011D01*
X0192503Y0250666D01*
X0216419Y0226750D01*
X0216419Y0187982D01*
X0216846Y0186953D01*
X0232167Y0171632D01*
X0232167Y0156219D01*
X0231423Y0155475D01*
X0230786Y0153938D01*
X0230786Y0152275D01*
X0231423Y0150738D01*
X0232599Y0149562D01*
X0234136Y0148925D01*
X0235799Y0148925D01*
X0237336Y0149562D01*
X0238512Y0150738D01*
X0239148Y0152275D01*
X0239148Y0153938D01*
X0238512Y0155475D01*
X0237767Y0156219D01*
X0237767Y0173348D01*
X0237341Y0174377D01*
X0236553Y0175165D01*
X0222019Y0189699D01*
X0222019Y0228466D01*
X0221593Y0229496D01*
X0220805Y0230283D01*
X0197411Y0253678D01*
X0197864Y0253909D01*
X0198500Y0254371D01*
X0199057Y0254928D01*
X0199519Y0255564D01*
X0199877Y0256266D01*
X0200120Y0257014D01*
X0200243Y0257792D01*
X0200243Y0258185D01*
X0195243Y0258185D01*
X0195243Y0258185D01*
X0200243Y0258185D01*
X0200243Y0258579D01*
X0200120Y0259356D01*
X0199877Y0260104D01*
X0199519Y0260806D01*
X0199057Y0261442D01*
X0198500Y0261999D01*
X0197864Y0262461D01*
X0197162Y0262819D01*
X0196414Y0263062D01*
X0195636Y0263185D01*
X0195243Y0263185D01*
X0195243Y0258185D01*
X0195243Y0258185D01*
X0195243Y0263185D01*
X0194849Y0263185D01*
X0194072Y0263062D01*
X0193324Y0262819D01*
X0192622Y0262461D01*
X0191986Y0261999D01*
X0191447Y0261461D01*
X0190315Y0262593D01*
X0190169Y0262654D01*
X0190169Y0274057D01*
X0189743Y0275086D01*
X0188955Y0275874D01*
X0187926Y0276300D01*
X0145169Y0276300D01*
X0145169Y0289057D01*
X0144743Y0290086D01*
X0143955Y0290874D01*
X0142926Y0291300D01*
X0051812Y0291300D01*
X0050783Y0290874D01*
X0049995Y0290086D01*
X0049569Y0289057D01*
X0049569Y0285752D01*
X0049537Y0285739D01*
X0048130Y0284332D01*
X0047369Y0282495D01*
X0046608Y0284332D01*
X0045201Y0285739D01*
X0043364Y0286500D01*
X0041374Y0286500D01*
X0039537Y0285739D01*
X0038130Y0284332D01*
X0037369Y0282495D01*
X0036608Y0284332D01*
X0035201Y0285739D01*
X0033364Y0286500D01*
X0031374Y0286500D01*
X0030169Y0286001D01*
X0030169Y0290700D01*
X0034256Y0290700D01*
X0035001Y0289955D01*
X0036537Y0289319D01*
X0038201Y0289319D01*
X0039737Y0289955D01*
X0040914Y0291132D01*
X0041550Y0292668D01*
X0041550Y0294332D01*
X0040914Y0295868D01*
X0039737Y0297045D01*
X0038201Y0297681D01*
X0036537Y0297681D01*
X0035001Y0297045D01*
X0034256Y0296300D01*
X0026812Y0296300D01*
X0025783Y0295874D01*
X0024995Y0295086D01*
X0024569Y0294057D01*
X0024569Y0217943D01*
X0024995Y0216914D01*
X0025783Y0216126D01*
X0026812Y0215700D01*
X0057926Y0215700D01*
X0058955Y0216126D01*
X0063529Y0220700D01*
X0074256Y0220700D01*
X0075001Y0219955D01*
X0076537Y0219319D01*
X0078201Y0219319D01*
X0079737Y0219955D01*
X0080914Y0221132D01*
X0081550Y0222668D01*
X0081550Y0224332D01*
X0080983Y0225700D01*
X0091209Y0225700D01*
X0093188Y0223721D01*
X0093188Y0222668D01*
X0093824Y0221132D01*
X0095001Y0219955D01*
X0096537Y0219319D01*
X0098201Y0219319D01*
X0099737Y0219955D01*
X0100914Y0221132D01*
X0101550Y0222668D01*
X0101550Y0224332D01*
X0100914Y0225868D01*
X0099737Y0227045D01*
X0098201Y0227681D01*
X0097148Y0227681D01*
X0093955Y0230874D01*
X0092926Y0231300D01*
X0035169Y0231300D01*
X0035169Y0236740D01*
X0035783Y0236126D01*
X0036812Y0235700D01*
X0037815Y0235700D01*
X0040215Y0233300D01*
X0044523Y0233300D01*
X0047169Y0235946D01*
X0047169Y0234472D01*
X0048341Y0233300D01*
X0056397Y0233300D01*
X0057569Y0234472D01*
X0057569Y0242528D01*
X0056397Y0243700D01*
X0054923Y0243700D01*
X0057569Y0246346D01*
X0057569Y0250654D01*
X0054723Y0253500D01*
X0056923Y0255700D01*
X0094569Y0255700D01*
X0094569Y0237943D01*
X0094995Y0236914D01*
X0095783Y0236126D01*
X0096812Y0235700D01*
X0139569Y0235700D01*
X0139569Y0227114D01*
X0138201Y0227681D01*
X0136537Y0227681D01*
X0135001Y0227045D01*
X0134256Y0226300D01*
X0122982Y0226300D01*
X0122237Y0227045D01*
X0120701Y0227681D01*
X0119037Y0227681D01*
X0117501Y0227045D01*
X0116324Y0225868D01*
X0115688Y0224332D01*
X0115688Y0222668D01*
X0116324Y0221132D01*
X0117501Y0219955D01*
X0119037Y0219319D01*
X0120701Y0219319D01*
X0122237Y0219955D01*
X0122982Y0220700D01*
X0123755Y0220700D01*
X0123188Y0219332D01*
X0123188Y0217668D01*
X0123824Y0216132D01*
X0125001Y0214955D01*
X0126537Y0214319D01*
X0128201Y0214319D01*
X0129737Y0214955D01*
X0129790Y0215008D01*
X0133654Y0214043D01*
X0133824Y0213632D01*
X0135001Y0212455D01*
X0136537Y0211819D01*
X0138201Y0211819D01*
X0139569Y0212386D01*
X0139569Y0209113D01*
X0138824Y0208368D01*
X0138188Y0206832D01*
X0138188Y0205168D01*
X0138824Y0203632D01*
X0138294Y0204912D02*
X0024369Y0204912D01*
X0024369Y0206511D02*
X0138188Y0206511D01*
X0138717Y0208109D02*
X0024369Y0208109D01*
X0024369Y0209708D02*
X0139569Y0209708D01*
X0139569Y0211306D02*
X0024369Y0211306D01*
X0024369Y0212905D02*
X0134551Y0212905D01*
X0131810Y0214503D02*
X0128646Y0214503D01*
X0126092Y0214503D02*
X0024369Y0214503D01*
X0024369Y0216102D02*
X0025841Y0216102D01*
X0024669Y0217701D02*
X0024369Y0217701D01*
X0024369Y0219299D02*
X0024569Y0219299D01*
X0024569Y0220898D02*
X0024369Y0220898D01*
X0024369Y0222496D02*
X0024569Y0222496D01*
X0024569Y0224095D02*
X0024369Y0224095D01*
X0024369Y0225693D02*
X0024569Y0225693D01*
X0024569Y0227292D02*
X0024369Y0227292D01*
X0024369Y0228890D02*
X0024569Y0228890D01*
X0024569Y0230489D02*
X0024369Y0230489D01*
X0024369Y0232087D02*
X0024569Y0232087D01*
X0024569Y0233686D02*
X0024369Y0233686D01*
X0024369Y0235284D02*
X0024569Y0235284D01*
X0024569Y0236883D02*
X0024369Y0236883D01*
X0024369Y0238481D02*
X0024569Y0238481D01*
X0024569Y0240080D02*
X0024369Y0240080D01*
X0024369Y0241678D02*
X0024569Y0241678D01*
X0024569Y0243277D02*
X0024369Y0243277D01*
X0024369Y0244875D02*
X0024569Y0244875D01*
X0024569Y0246474D02*
X0024369Y0246474D01*
X0024369Y0248072D02*
X0024569Y0248072D01*
X0024569Y0249671D02*
X0024369Y0249671D01*
X0024369Y0251269D02*
X0024569Y0251269D01*
X0024569Y0252868D02*
X0024369Y0252868D01*
X0024369Y0254466D02*
X0024569Y0254466D01*
X0024569Y0256065D02*
X0024369Y0256065D01*
X0024369Y0257663D02*
X0024569Y0257663D01*
X0024569Y0259262D02*
X0024369Y0259262D01*
X0024369Y0260860D02*
X0024569Y0260860D01*
X0024569Y0262459D02*
X0024369Y0262459D01*
X0024369Y0264057D02*
X0024569Y0264057D01*
X0024569Y0265656D02*
X0024369Y0265656D01*
X0024369Y0267254D02*
X0024569Y0267254D01*
X0024569Y0268853D02*
X0024369Y0268853D01*
X0024369Y0270451D02*
X0024569Y0270451D01*
X0024569Y0272050D02*
X0024369Y0272050D01*
X0024369Y0273648D02*
X0024569Y0273648D01*
X0024569Y0275247D02*
X0024369Y0275247D01*
X0024369Y0276845D02*
X0024569Y0276845D01*
X0024569Y0278444D02*
X0024369Y0278444D01*
X0024369Y0280042D02*
X0024569Y0280042D01*
X0024569Y0281641D02*
X0024369Y0281641D01*
X0024369Y0283239D02*
X0024569Y0283239D01*
X0024569Y0284838D02*
X0024369Y0284838D01*
X0024369Y0286437D02*
X0024569Y0286437D01*
X0024569Y0288035D02*
X0024369Y0288035D01*
X0024369Y0289634D02*
X0024569Y0289634D01*
X0024569Y0291232D02*
X0024369Y0291232D01*
X0024369Y0292831D02*
X0024569Y0292831D01*
X0024723Y0294429D02*
X0024369Y0294429D01*
X0024369Y0296028D02*
X0026154Y0296028D01*
X0024369Y0297626D02*
X0036404Y0297626D01*
X0038333Y0297626D02*
X0145975Y0297626D01*
X0145015Y0298586D02*
X0143694Y0301774D01*
X0143694Y0305226D01*
X0145015Y0308414D01*
X0147455Y0310854D01*
X0150643Y0312175D01*
X0154094Y0312175D01*
X0157283Y0310854D01*
X0159723Y0308414D01*
X0161044Y0305226D01*
X0161044Y0301774D01*
X0159723Y0298586D01*
X0157283Y0296146D01*
X0155169Y0295270D01*
X0155169Y0286300D01*
X0197926Y0286300D01*
X0198955Y0285874D01*
X0199743Y0285086D01*
X0214743Y0270086D01*
X0215169Y0269057D01*
X0215169Y0244660D01*
X0217794Y0242035D01*
X0217794Y0243500D01*
X0222369Y0243500D01*
X0226944Y0243500D01*
X0226944Y0246512D01*
X0226821Y0246970D01*
X0226584Y0247380D01*
X0226249Y0247715D01*
X0225839Y0247952D01*
X0225381Y0248075D01*
X0222369Y0248075D01*
X0222369Y0243500D01*
X0222369Y0243500D01*
X0226944Y0243500D01*
X0226944Y0240488D01*
X0226821Y0240030D01*
X0226584Y0239620D01*
X0226249Y0239285D01*
X0225839Y0239048D01*
X0225381Y0238925D01*
X0222369Y0238925D01*
X0222369Y0243500D01*
X0222369Y0243500D01*
X0222369Y0243500D01*
X0222369Y0248075D01*
X0219357Y0248075D01*
X0218899Y0247952D01*
X0218489Y0247715D01*
X0218154Y0247380D01*
X0217917Y0246970D01*
X0217794Y0246512D01*
X0217794Y0243500D01*
X0222369Y0243500D01*
X0222369Y0238925D01*
X0220904Y0238925D01*
X0264743Y0195086D01*
X0265169Y0194057D01*
X0265169Y0186613D01*
X0265914Y0185868D01*
X0266550Y0184332D01*
X0266550Y0182668D01*
X0265914Y0181132D01*
X0264737Y0179955D01*
X0263201Y0179319D01*
X0261537Y0179319D01*
X0260001Y0179955D01*
X0258824Y0181132D01*
X0258188Y0182668D01*
X0258188Y0184332D01*
X0258824Y0185868D01*
X0259569Y0186613D01*
X0259569Y0192340D01*
X0258798Y0193111D01*
X0258798Y0192221D01*
X0257819Y0189858D01*
X0256011Y0188050D01*
X0255169Y0187701D01*
X0255169Y0124299D01*
X0256011Y0123950D01*
X0257819Y0122142D01*
X0258798Y0119779D01*
X0258798Y0117221D01*
X0257819Y0114858D01*
X0256011Y0113050D01*
X0253648Y0112071D01*
X0251090Y0112071D01*
X0248727Y0113050D01*
X0246919Y0114858D01*
X0245940Y0117221D01*
X0245940Y0119779D01*
X0246919Y0122142D01*
X0248727Y0123950D01*
X0249569Y0124299D01*
X0249569Y0187701D01*
X0248727Y0188050D01*
X0246919Y0189858D01*
X0245940Y0192221D01*
X0245940Y0194779D01*
X0246919Y0197142D01*
X0248727Y0198950D01*
X0251090Y0199929D01*
X0251980Y0199929D01*
X0210783Y0241126D01*
X0209995Y0241914D01*
X0209569Y0242943D01*
X0209569Y0267340D01*
X0196209Y0280700D01*
X0151812Y0280700D01*
X0150783Y0281126D01*
X0149995Y0281914D01*
X0149569Y0282943D01*
X0149569Y0295270D01*
X0147455Y0296146D01*
X0145015Y0298586D01*
X0144750Y0299225D02*
X0024369Y0299225D01*
X0024369Y0300823D02*
X0144088Y0300823D01*
X0143694Y0302422D02*
X0036075Y0302422D01*
X0035463Y0302168D02*
X0037834Y0303150D01*
X0039648Y0304964D01*
X0040630Y0307335D01*
X0040630Y0309901D01*
X0039648Y0312272D01*
X0037834Y0314086D01*
X0035463Y0315068D01*
X0032897Y0315068D01*
X0030526Y0314086D01*
X0028712Y0312272D01*
X0027730Y0309901D01*
X0027730Y0307335D01*
X0028712Y0304964D01*
X0030526Y0303150D01*
X0032897Y0302168D01*
X0035463Y0302168D01*
X0032285Y0302422D02*
X0024369Y0302422D01*
X0024369Y0304020D02*
X0029656Y0304020D01*
X0028441Y0305619D02*
X0024369Y0305619D01*
X0024369Y0307217D02*
X0027779Y0307217D01*
X0027730Y0308816D02*
X0024369Y0308816D01*
X0024369Y0310414D02*
X0027943Y0310414D01*
X0028605Y0312013D02*
X0024369Y0312013D01*
X0024369Y0313611D02*
X0030051Y0313611D01*
X0024369Y0315210D02*
X0211716Y0315210D01*
X0211829Y0315405D02*
X0211592Y0314995D01*
X0211469Y0314537D01*
X0211469Y0311000D01*
X0214869Y0311000D01*
X0218269Y0311000D01*
X0218269Y0314537D01*
X0218146Y0314995D01*
X0217909Y0315405D01*
X0217574Y0315740D01*
X0217164Y0315977D01*
X0216706Y0316100D01*
X0214869Y0316100D01*
X0214869Y0311000D01*
X0214869Y0311000D01*
X0218269Y0311000D01*
X0218269Y0307463D01*
X0218146Y0307005D01*
X0217909Y0306595D01*
X0217574Y0306260D01*
X0217164Y0306023D01*
X0216706Y0305900D01*
X0214869Y0305900D01*
X0214869Y0311000D01*
X0214869Y0311000D01*
X0214869Y0311000D01*
X0214869Y0316100D01*
X0213032Y0316100D01*
X0212574Y0315977D01*
X0212164Y0315740D01*
X0211829Y0315405D01*
X0211469Y0313611D02*
X0038309Y0313611D01*
X0039755Y0312013D02*
X0150252Y0312013D01*
X0147015Y0310414D02*
X0040417Y0310414D01*
X0040630Y0308816D02*
X0145417Y0308816D01*
X0144519Y0307217D02*
X0040581Y0307217D01*
X0039919Y0305619D02*
X0143857Y0305619D01*
X0143694Y0304020D02*
X0038704Y0304020D01*
X0040754Y0296028D02*
X0147741Y0296028D01*
X0149569Y0294429D02*
X0041510Y0294429D01*
X0041550Y0292831D02*
X0149569Y0292831D01*
X0149569Y0291232D02*
X0143090Y0291232D01*
X0144930Y0289634D02*
X0149569Y0289634D01*
X0149569Y0288035D02*
X0145169Y0288035D01*
X0145169Y0286437D02*
X0149569Y0286437D01*
X0149569Y0284838D02*
X0145169Y0284838D01*
X0145169Y0283239D02*
X0149569Y0283239D01*
X0150268Y0281641D02*
X0145169Y0281641D01*
X0145169Y0280042D02*
X0196867Y0280042D01*
X0198465Y0278444D02*
X0145169Y0278444D01*
X0145169Y0276845D02*
X0200064Y0276845D01*
X0201662Y0275247D02*
X0189582Y0275247D01*
X0190169Y0273648D02*
X0203261Y0273648D01*
X0204859Y0272050D02*
X0190169Y0272050D01*
X0190169Y0270451D02*
X0206458Y0270451D01*
X0208056Y0268853D02*
X0190169Y0268853D01*
X0190169Y0267254D02*
X0209569Y0267254D01*
X0209569Y0265656D02*
X0190169Y0265656D01*
X0190169Y0264057D02*
X0209569Y0264057D01*
X0209569Y0262459D02*
X0197867Y0262459D01*
X0199480Y0260860D02*
X0209569Y0260860D01*
X0209569Y0259262D02*
X0200135Y0259262D01*
X0200223Y0257663D02*
X0209569Y0257663D01*
X0209569Y0256065D02*
X0199774Y0256065D01*
X0198595Y0254466D02*
X0209569Y0254466D01*
X0209569Y0252868D02*
X0198221Y0252868D01*
X0199819Y0251269D02*
X0209569Y0251269D01*
X0209569Y0249671D02*
X0201418Y0249671D01*
X0203016Y0248072D02*
X0209569Y0248072D01*
X0209569Y0246474D02*
X0204615Y0246474D01*
X0206213Y0244875D02*
X0209569Y0244875D01*
X0209569Y0243277D02*
X0207812Y0243277D01*
X0209410Y0241678D02*
X0210231Y0241678D01*
X0211009Y0240080D02*
X0211829Y0240080D01*
X0212607Y0238481D02*
X0213428Y0238481D01*
X0214206Y0236883D02*
X0215027Y0236883D01*
X0215804Y0235284D02*
X0216625Y0235284D01*
X0217403Y0233686D02*
X0218224Y0233686D01*
X0219001Y0232087D02*
X0219822Y0232087D01*
X0220600Y0230489D02*
X0221421Y0230489D01*
X0221844Y0228890D02*
X0223019Y0228890D01*
X0222019Y0227292D02*
X0224618Y0227292D01*
X0226216Y0225693D02*
X0222019Y0225693D01*
X0222019Y0224095D02*
X0227815Y0224095D01*
X0229413Y0222496D02*
X0222019Y0222496D01*
X0222019Y0220898D02*
X0231012Y0220898D01*
X0232610Y0219299D02*
X0222019Y0219299D01*
X0222019Y0217701D02*
X0234209Y0217701D01*
X0235807Y0216102D02*
X0222019Y0216102D01*
X0222019Y0214503D02*
X0237406Y0214503D01*
X0239004Y0212905D02*
X0222019Y0212905D01*
X0222019Y0211306D02*
X0240603Y0211306D01*
X0242201Y0209708D02*
X0222019Y0209708D01*
X0222019Y0208109D02*
X0243800Y0208109D01*
X0245398Y0206511D02*
X0222019Y0206511D01*
X0222019Y0204912D02*
X0246997Y0204912D01*
X0248595Y0203314D02*
X0222019Y0203314D01*
X0222019Y0201715D02*
X0250194Y0201715D01*
X0251792Y0200117D02*
X0222019Y0200117D01*
X0222019Y0198518D02*
X0248295Y0198518D01*
X0246827Y0196920D02*
X0222019Y0196920D01*
X0222019Y0195321D02*
X0246165Y0195321D01*
X0245940Y0193723D02*
X0222019Y0193723D01*
X0222019Y0192124D02*
X0245980Y0192124D01*
X0246642Y0190526D02*
X0222019Y0190526D01*
X0222791Y0188927D02*
X0247849Y0188927D01*
X0249569Y0187329D02*
X0224390Y0187329D01*
X0225988Y0185730D02*
X0249569Y0185730D01*
X0249569Y0184132D02*
X0227587Y0184132D01*
X0229185Y0182533D02*
X0249569Y0182533D01*
X0249569Y0180935D02*
X0230784Y0180935D01*
X0232382Y0179336D02*
X0249569Y0179336D01*
X0249569Y0177738D02*
X0233981Y0177738D01*
X0235579Y0176139D02*
X0249569Y0176139D01*
X0249569Y0174541D02*
X0237178Y0174541D01*
X0237767Y0172942D02*
X0249569Y0172942D01*
X0249569Y0171344D02*
X0237767Y0171344D01*
X0237767Y0169745D02*
X0249569Y0169745D01*
X0249569Y0168147D02*
X0237767Y0168147D01*
X0237767Y0166548D02*
X0249569Y0166548D01*
X0249569Y0164950D02*
X0237767Y0164950D01*
X0237767Y0163351D02*
X0249569Y0163351D01*
X0249569Y0161753D02*
X0237767Y0161753D01*
X0237767Y0160154D02*
X0249569Y0160154D01*
X0249569Y0158556D02*
X0237767Y0158556D01*
X0237767Y0156957D02*
X0249569Y0156957D01*
X0249569Y0155359D02*
X0238560Y0155359D01*
X0239148Y0153760D02*
X0249569Y0153760D01*
X0249569Y0152162D02*
X0239102Y0152162D01*
X0238337Y0150563D02*
X0249569Y0150563D01*
X0249569Y0148965D02*
X0235894Y0148965D01*
X0234041Y0148965D02*
X0160392Y0148965D01*
X0158793Y0150563D02*
X0231598Y0150563D01*
X0230833Y0152162D02*
X0157195Y0152162D01*
X0155596Y0153760D02*
X0230786Y0153760D01*
X0231375Y0155359D02*
X0221161Y0155359D01*
X0220400Y0155043D02*
X0222582Y0155947D01*
X0224252Y0157617D01*
X0225156Y0159799D01*
X0225156Y0162161D01*
X0224252Y0164343D01*
X0222582Y0166013D01*
X0220400Y0166917D01*
X0218038Y0166917D01*
X0215856Y0166013D01*
X0214186Y0164343D01*
X0213282Y0162161D01*
X0213282Y0159799D01*
X0214186Y0157617D01*
X0215856Y0155947D01*
X0218038Y0155043D01*
X0220400Y0155043D01*
X0217277Y0155359D02*
X0153998Y0155359D01*
X0152399Y0156957D02*
X0214846Y0156957D01*
X0213798Y0158556D02*
X0150801Y0158556D01*
X0149202Y0160154D02*
X0213282Y0160154D01*
X0213282Y0161753D02*
X0148597Y0161753D01*
X0147958Y0163351D02*
X0213775Y0163351D01*
X0214792Y0164950D02*
X0145759Y0164950D01*
X0143073Y0164950D02*
X0040169Y0164950D01*
X0040169Y0166548D02*
X0217147Y0166548D01*
X0221292Y0166548D02*
X0232167Y0166548D01*
X0232167Y0164950D02*
X0223646Y0164950D01*
X0224663Y0163351D02*
X0232167Y0163351D01*
X0232167Y0161753D02*
X0225156Y0161753D01*
X0225156Y0160154D02*
X0232167Y0160154D01*
X0232167Y0158556D02*
X0224641Y0158556D01*
X0223592Y0156957D02*
X0232167Y0156957D01*
X0234967Y0153106D02*
X0234967Y0172791D01*
X0219219Y0188539D01*
X0219219Y0227909D01*
X0193744Y0253385D01*
X0193255Y0253385D01*
X0188455Y0258185D01*
X0187369Y0258185D01*
X0187369Y0273500D01*
X0142369Y0273500D01*
X0142369Y0288500D01*
X0112369Y0288500D01*
X0052369Y0288500D01*
X0052369Y0278500D01*
X0052369Y0266000D01*
X0037369Y0266000D01*
X0037369Y0238500D01*
X0042369Y0238500D01*
X0046507Y0235284D02*
X0047169Y0235284D01*
X0047955Y0233686D02*
X0044908Y0233686D01*
X0039829Y0233686D02*
X0035169Y0233686D01*
X0035169Y0235284D02*
X0038231Y0235284D01*
X0035169Y0232087D02*
X0139569Y0232087D01*
X0139569Y0230489D02*
X0094340Y0230489D01*
X0095939Y0228890D02*
X0139569Y0228890D01*
X0139569Y0227292D02*
X0139141Y0227292D01*
X0135597Y0227292D02*
X0121641Y0227292D01*
X0118097Y0227292D02*
X0099141Y0227292D01*
X0100986Y0225693D02*
X0116252Y0225693D01*
X0115688Y0224095D02*
X0101550Y0224095D01*
X0101479Y0222496D02*
X0115759Y0222496D01*
X0116558Y0220898D02*
X0100679Y0220898D01*
X0097369Y0223500D02*
X0092369Y0228500D01*
X0032369Y0228500D01*
X0032369Y0268500D01*
X0042369Y0278500D01*
X0047369Y0278444D02*
X0047369Y0278444D01*
X0047369Y0280042D02*
X0047369Y0280042D01*
X0047369Y0281641D02*
X0047369Y0281641D01*
X0047369Y0282495D02*
X0047369Y0274505D01*
X0046608Y0272668D01*
X0045201Y0271261D01*
X0043364Y0270500D01*
X0041374Y0270500D01*
X0039537Y0271261D01*
X0039313Y0271485D01*
X0036499Y0268670D01*
X0036812Y0268800D01*
X0049569Y0268800D01*
X0049569Y0271248D01*
X0049537Y0271261D01*
X0048130Y0272668D01*
X0047369Y0274505D01*
X0047369Y0282495D01*
X0047060Y0283239D02*
X0047678Y0283239D01*
X0048636Y0284838D02*
X0046102Y0284838D01*
X0043517Y0286437D02*
X0049569Y0286437D01*
X0049569Y0288035D02*
X0030169Y0288035D01*
X0030169Y0286437D02*
X0031221Y0286437D01*
X0033517Y0286437D02*
X0041221Y0286437D01*
X0038636Y0284838D02*
X0036102Y0284838D01*
X0037060Y0283239D02*
X0037678Y0283239D01*
X0037369Y0282495D02*
X0037369Y0277460D01*
X0037369Y0277460D01*
X0037369Y0282495D01*
X0037369Y0281641D02*
X0037369Y0281641D01*
X0037369Y0280042D02*
X0037369Y0280042D01*
X0037369Y0278444D02*
X0037369Y0278444D01*
X0047369Y0276845D02*
X0047369Y0276845D01*
X0047369Y0275247D02*
X0047369Y0275247D01*
X0047014Y0273648D02*
X0047724Y0273648D01*
X0048748Y0272050D02*
X0045990Y0272050D01*
X0049569Y0270451D02*
X0038280Y0270451D01*
X0036682Y0268853D02*
X0049569Y0268853D01*
X0055169Y0268853D02*
X0184569Y0268853D01*
X0184569Y0270451D02*
X0055169Y0270451D01*
X0055990Y0272050D02*
X0059031Y0272050D01*
X0059242Y0271839D02*
X0059853Y0271395D01*
X0060526Y0271052D01*
X0061245Y0270818D01*
X0061991Y0270700D01*
X0062269Y0270700D01*
X0062269Y0278400D01*
X0057569Y0278400D01*
X0057569Y0275122D01*
X0057687Y0274376D01*
X0057921Y0273657D01*
X0058264Y0272984D01*
X0058708Y0272373D01*
X0059242Y0271839D01*
X0057925Y0273648D02*
X0057014Y0273648D01*
X0057369Y0275247D02*
X0057569Y0275247D01*
X0057569Y0276845D02*
X0057369Y0276845D01*
X0057369Y0278444D02*
X0062269Y0278444D01*
X0062469Y0278444D02*
X0076669Y0278444D01*
X0076669Y0280042D02*
X0067169Y0280042D01*
X0067169Y0281641D02*
X0076669Y0281641D01*
X0076880Y0283239D02*
X0066851Y0283239D01*
X0065819Y0284838D02*
X0109569Y0284838D01*
X0109047Y0283239D02*
X0105690Y0283239D01*
X0107238Y0281641D02*
X0107500Y0281641D01*
X0112369Y0278500D02*
X0112369Y0288500D01*
X0115169Y0284838D02*
X0139569Y0284838D01*
X0139569Y0283239D02*
X0135690Y0283239D01*
X0137238Y0281641D02*
X0139569Y0281641D01*
X0139569Y0280042D02*
X0137900Y0280042D01*
X0138069Y0278444D02*
X0139569Y0278444D01*
X0139569Y0276845D02*
X0137853Y0276845D01*
X0137177Y0275247D02*
X0139569Y0275247D01*
X0139569Y0273648D02*
X0135551Y0273648D01*
X0139939Y0272050D02*
X0065707Y0272050D01*
X0065496Y0271839D02*
X0066030Y0272373D01*
X0066474Y0272984D01*
X0066817Y0273657D01*
X0067051Y0274376D01*
X0067169Y0275122D01*
X0067169Y0278400D01*
X0062469Y0278400D01*
X0062469Y0270700D01*
X0062747Y0270700D01*
X0063493Y0270818D01*
X0064212Y0271052D01*
X0064885Y0271395D01*
X0065496Y0271839D01*
X0066813Y0273648D02*
X0076992Y0273648D01*
X0076669Y0275247D02*
X0067169Y0275247D01*
X0067169Y0276845D02*
X0076669Y0276845D01*
X0087746Y0273648D02*
X0089187Y0273648D01*
X0095551Y0273648D02*
X0099187Y0273648D01*
X0097561Y0275247D02*
X0097177Y0275247D01*
X0097238Y0281641D02*
X0097500Y0281641D01*
X0099047Y0283239D02*
X0095690Y0283239D01*
X0089047Y0283239D02*
X0087858Y0283239D01*
X0105551Y0273648D02*
X0109187Y0273648D01*
X0107561Y0275247D02*
X0107177Y0275247D01*
X0115551Y0273648D02*
X0119776Y0273648D01*
X0122169Y0273648D02*
X0122569Y0273648D01*
X0122569Y0275247D02*
X0122169Y0275247D01*
X0122169Y0276845D02*
X0122569Y0276845D01*
X0122569Y0280042D02*
X0122169Y0280042D01*
X0122169Y0281641D02*
X0122569Y0281641D01*
X0122569Y0283239D02*
X0122169Y0283239D01*
X0119556Y0283239D02*
X0115690Y0283239D01*
X0117238Y0281641D02*
X0117853Y0281641D01*
X0117934Y0275247D02*
X0117177Y0275247D01*
X0124962Y0273648D02*
X0129187Y0273648D01*
X0127561Y0275247D02*
X0126804Y0275247D01*
X0126885Y0281641D02*
X0127500Y0281641D01*
X0129047Y0283239D02*
X0125182Y0283239D01*
X0133283Y0268374D02*
X0132495Y0267586D01*
X0132069Y0266557D01*
X0132069Y0253800D01*
X0127650Y0253800D01*
X0127864Y0253909D01*
X0128500Y0254371D01*
X0129057Y0254928D01*
X0129519Y0255564D01*
X0129877Y0256266D01*
X0130120Y0257014D01*
X0130243Y0257792D01*
X0130243Y0258185D01*
X0125243Y0258185D01*
X0125243Y0258185D01*
X0130243Y0258185D01*
X0130243Y0258579D01*
X0130120Y0259356D01*
X0129877Y0260104D01*
X0129519Y0260806D01*
X0129057Y0261442D01*
X0128500Y0261999D01*
X0127864Y0262461D01*
X0127162Y0262819D01*
X0126414Y0263062D01*
X0125636Y0263185D01*
X0125243Y0263185D01*
X0125243Y0258185D01*
X0125243Y0258185D01*
X0125243Y0263185D01*
X0124849Y0263185D01*
X0124072Y0263062D01*
X0123324Y0262819D01*
X0122622Y0262461D01*
X0121986Y0261999D01*
X0121447Y0261461D01*
X0120315Y0262593D01*
X0118403Y0263385D01*
X0116335Y0263385D01*
X0114423Y0262593D01*
X0113432Y0261602D01*
X0112441Y0262593D01*
X0110529Y0263385D01*
X0108461Y0263385D01*
X0106549Y0262593D01*
X0105087Y0261131D01*
X0104295Y0259219D01*
X0104295Y0257151D01*
X0105087Y0255239D01*
X0106549Y0253777D01*
X0108461Y0252985D01*
X0110529Y0252985D01*
X0112441Y0253777D01*
X0113432Y0254768D01*
X0114423Y0253777D01*
X0114569Y0253716D01*
X0114569Y0250443D01*
X0114995Y0249414D01*
X0115783Y0248626D01*
X0116812Y0248200D01*
X0135426Y0248200D01*
X0136455Y0248626D01*
X0137243Y0249414D01*
X0137669Y0250443D01*
X0137669Y0263200D01*
X0143014Y0263200D01*
X0141549Y0262593D01*
X0140087Y0261131D01*
X0139295Y0259219D01*
X0139295Y0257151D01*
X0140087Y0255239D01*
X0141549Y0253777D01*
X0142589Y0253346D01*
X0144569Y0243229D01*
X0144569Y0242943D01*
X0144675Y0242687D01*
X0144728Y0242416D01*
X0144886Y0242178D01*
X0144995Y0241914D01*
X0145191Y0241718D01*
X0145344Y0241488D01*
X0145581Y0241328D01*
X0145783Y0241126D01*
X0146039Y0241020D01*
X0146268Y0240866D01*
X0146548Y0240809D01*
X0146812Y0240700D01*
X0147089Y0240700D01*
X0147360Y0240645D01*
X0147640Y0240700D01*
X0149569Y0240700D01*
X0149569Y0191613D01*
X0148824Y0190868D01*
X0148188Y0189332D01*
X0148188Y0187668D01*
X0148824Y0186132D01*
X0150001Y0184955D01*
X0151537Y0184319D01*
X0153201Y0184319D01*
X0154737Y0184955D01*
X0155914Y0186132D01*
X0156550Y0187668D01*
X0156550Y0189332D01*
X0155914Y0190868D01*
X0155169Y0191613D01*
X0155169Y0244057D01*
X0154743Y0245086D01*
X0153955Y0245874D01*
X0152926Y0246300D01*
X0149674Y0246300D01*
X0148085Y0254421D01*
X0148432Y0254768D01*
X0149423Y0253777D01*
X0151335Y0252985D01*
X0153403Y0252985D01*
X0155315Y0253777D01*
X0156447Y0254910D01*
X0156986Y0254371D01*
X0157622Y0253909D01*
X0158324Y0253551D01*
X0159072Y0253308D01*
X0159849Y0253185D01*
X0160243Y0253185D01*
X0160636Y0253185D01*
X0161414Y0253308D01*
X0162162Y0253551D01*
X0162864Y0253909D01*
X0163500Y0254371D01*
X0164057Y0254928D01*
X0164519Y0255564D01*
X0164877Y0256266D01*
X0165120Y0257014D01*
X0165243Y0257792D01*
X0165243Y0258185D01*
X0160243Y0258185D01*
X0160243Y0258185D01*
X0160243Y0253185D01*
X0160243Y0258185D01*
X0160243Y0258185D01*
X0165243Y0258185D01*
X0165243Y0258579D01*
X0165120Y0259356D01*
X0164877Y0260104D01*
X0164519Y0260806D01*
X0164057Y0261442D01*
X0163500Y0261999D01*
X0162864Y0262461D01*
X0162162Y0262819D01*
X0161414Y0263062D01*
X0160636Y0263185D01*
X0160243Y0263185D01*
X0160243Y0258185D01*
X0160243Y0258185D01*
X0160243Y0263185D01*
X0159849Y0263185D01*
X0159072Y0263062D01*
X0158324Y0262819D01*
X0157622Y0262461D01*
X0156986Y0261999D01*
X0156447Y0261461D01*
X0155315Y0262593D01*
X0155169Y0262654D01*
X0155169Y0266557D01*
X0154743Y0267586D01*
X0153955Y0268374D01*
X0152926Y0268800D01*
X0134312Y0268800D01*
X0133283Y0268374D01*
X0132358Y0267254D02*
X0055169Y0267254D01*
X0055169Y0265656D02*
X0132069Y0265656D01*
X0132069Y0264057D02*
X0054386Y0264057D01*
X0055764Y0262459D02*
X0106415Y0262459D01*
X0104975Y0260860D02*
X0098968Y0260860D01*
X0100084Y0259262D02*
X0104313Y0259262D01*
X0104295Y0257663D02*
X0100169Y0257663D01*
X0100169Y0256065D02*
X0104745Y0256065D01*
X0105860Y0254466D02*
X0100169Y0254466D01*
X0100169Y0252868D02*
X0114569Y0252868D01*
X0114569Y0251269D02*
X0100169Y0251269D01*
X0100169Y0249671D02*
X0114889Y0249671D01*
X0117369Y0251000D02*
X0117369Y0258185D01*
X0113734Y0254466D02*
X0113130Y0254466D01*
X0117369Y0251000D02*
X0134869Y0251000D01*
X0134869Y0266000D01*
X0152369Y0266000D01*
X0152369Y0258185D01*
X0156004Y0254466D02*
X0156891Y0254466D01*
X0160243Y0254466D02*
X0160243Y0254466D01*
X0160243Y0256065D02*
X0160243Y0256065D01*
X0160243Y0257663D02*
X0160243Y0257663D01*
X0160243Y0259262D02*
X0160243Y0259262D01*
X0160243Y0260860D02*
X0160243Y0260860D01*
X0160243Y0262459D02*
X0160243Y0262459D01*
X0162867Y0262459D02*
X0176415Y0262459D01*
X0174975Y0260860D02*
X0164480Y0260860D01*
X0165135Y0259262D02*
X0174313Y0259262D01*
X0174295Y0257663D02*
X0165223Y0257663D01*
X0164774Y0256065D02*
X0174745Y0256065D01*
X0175860Y0254466D02*
X0163595Y0254466D01*
X0163201Y0252681D02*
X0161537Y0252681D01*
X0160001Y0252045D01*
X0158824Y0250868D01*
X0158188Y0249332D01*
X0158188Y0247668D01*
X0158824Y0246132D01*
X0159569Y0245387D01*
X0159569Y0184113D01*
X0158824Y0183368D01*
X0158188Y0181832D01*
X0158188Y0180168D01*
X0158824Y0178632D01*
X0160001Y0177455D01*
X0161537Y0176819D01*
X0163201Y0176819D01*
X0164737Y0177455D01*
X0165914Y0178632D01*
X0166550Y0180168D01*
X0166550Y0181832D01*
X0165914Y0183368D01*
X0165169Y0184113D01*
X0165169Y0245387D01*
X0165914Y0246132D01*
X0166550Y0247668D01*
X0166550Y0249332D01*
X0165914Y0250868D01*
X0164737Y0252045D01*
X0163201Y0252681D01*
X0165513Y0251269D02*
X0191411Y0251269D01*
X0189812Y0252868D02*
X0148389Y0252868D01*
X0148130Y0254466D02*
X0148734Y0254466D01*
X0148702Y0251269D02*
X0159225Y0251269D01*
X0158328Y0249671D02*
X0149014Y0249671D01*
X0149327Y0248072D02*
X0158188Y0248072D01*
X0158683Y0246474D02*
X0149640Y0246474D01*
X0147369Y0243500D02*
X0144495Y0258185D01*
X0140860Y0254466D02*
X0137669Y0254466D01*
X0137669Y0252868D02*
X0142682Y0252868D01*
X0142995Y0251269D02*
X0137669Y0251269D01*
X0137349Y0249671D02*
X0143308Y0249671D01*
X0143621Y0248072D02*
X0100169Y0248072D01*
X0100169Y0246474D02*
X0143934Y0246474D01*
X0144247Y0244875D02*
X0100169Y0244875D01*
X0100169Y0243277D02*
X0144560Y0243277D01*
X0145218Y0241678D02*
X0100169Y0241678D01*
X0097369Y0238500D02*
X0142369Y0238500D01*
X0142369Y0206000D01*
X0145596Y0203314D02*
X0149569Y0203314D01*
X0149569Y0204912D02*
X0146444Y0204912D01*
X0146550Y0206511D02*
X0149569Y0206511D01*
X0149569Y0208109D02*
X0146021Y0208109D01*
X0145169Y0209708D02*
X0149569Y0209708D01*
X0149569Y0211306D02*
X0145169Y0211306D01*
X0145169Y0212905D02*
X0149569Y0212905D01*
X0149569Y0214503D02*
X0145169Y0214503D01*
X0145169Y0216102D02*
X0149569Y0216102D01*
X0149569Y0217701D02*
X0145169Y0217701D01*
X0145169Y0219299D02*
X0149569Y0219299D01*
X0149569Y0220898D02*
X0145169Y0220898D01*
X0145169Y0222496D02*
X0149569Y0222496D01*
X0149569Y0224095D02*
X0145169Y0224095D01*
X0145169Y0225693D02*
X0149569Y0225693D01*
X0149569Y0227292D02*
X0145169Y0227292D01*
X0145169Y0228890D02*
X0149569Y0228890D01*
X0149569Y0230489D02*
X0145169Y0230489D01*
X0145169Y0232087D02*
X0149569Y0232087D01*
X0149569Y0233686D02*
X0145169Y0233686D01*
X0145169Y0235284D02*
X0149569Y0235284D01*
X0149569Y0236883D02*
X0145169Y0236883D01*
X0145169Y0238481D02*
X0149569Y0238481D01*
X0149569Y0240080D02*
X0144745Y0240080D01*
X0147369Y0243500D02*
X0152369Y0243500D01*
X0152369Y0188500D01*
X0155512Y0185730D02*
X0159569Y0185730D01*
X0159569Y0184132D02*
X0073351Y0184132D01*
X0073234Y0183548D02*
X0074704Y0190896D01*
X0074763Y0190921D01*
X0075940Y0192097D01*
X0076576Y0193634D01*
X0076576Y0195297D01*
X0075940Y0196834D01*
X0074763Y0198010D01*
X0073227Y0198647D01*
X0071563Y0198647D01*
X0070027Y0198010D01*
X0068850Y0196834D01*
X0068214Y0195297D01*
X0068214Y0193634D01*
X0068850Y0192097D01*
X0069169Y0191778D01*
X0067742Y0184645D01*
X0067501Y0184545D01*
X0066324Y0183368D01*
X0065688Y0181832D01*
X0065688Y0180168D01*
X0066324Y0178632D01*
X0067501Y0177455D01*
X0069037Y0176819D01*
X0070701Y0176819D01*
X0072237Y0177455D01*
X0073414Y0178632D01*
X0074050Y0180168D01*
X0074050Y0181832D01*
X0073414Y0183368D01*
X0073234Y0183548D01*
X0073759Y0182533D02*
X0158478Y0182533D01*
X0158188Y0180935D02*
X0074050Y0180935D01*
X0073705Y0179336D02*
X0158533Y0179336D01*
X0159718Y0177738D02*
X0072520Y0177738D01*
X0069869Y0181000D02*
X0072369Y0193500D01*
X0072395Y0194465D01*
X0073536Y0198518D02*
X0149569Y0198518D01*
X0149569Y0196920D02*
X0075853Y0196920D01*
X0076566Y0195321D02*
X0149569Y0195321D01*
X0149569Y0193723D02*
X0076576Y0193723D01*
X0075951Y0192124D02*
X0149569Y0192124D01*
X0148682Y0190526D02*
X0074630Y0190526D01*
X0074310Y0188927D02*
X0148188Y0188927D01*
X0148328Y0187329D02*
X0073990Y0187329D01*
X0073670Y0185730D02*
X0149226Y0185730D01*
X0156409Y0187329D02*
X0159569Y0187329D01*
X0159569Y0188927D02*
X0156550Y0188927D01*
X0156055Y0190526D02*
X0159569Y0190526D01*
X0159569Y0192124D02*
X0155169Y0192124D01*
X0155169Y0193723D02*
X0159569Y0193723D01*
X0159569Y0195321D02*
X0155169Y0195321D01*
X0155169Y0196920D02*
X0159569Y0196920D01*
X0159569Y0198518D02*
X0155169Y0198518D01*
X0155169Y0200117D02*
X0159569Y0200117D01*
X0159569Y0201715D02*
X0155169Y0201715D01*
X0155169Y0203314D02*
X0159569Y0203314D01*
X0159569Y0204912D02*
X0155169Y0204912D01*
X0155169Y0206511D02*
X0159569Y0206511D01*
X0159569Y0208109D02*
X0155169Y0208109D01*
X0155169Y0209708D02*
X0159569Y0209708D01*
X0159569Y0211306D02*
X0155169Y0211306D01*
X0155169Y0212905D02*
X0159569Y0212905D01*
X0159569Y0214503D02*
X0155169Y0214503D01*
X0155169Y0216102D02*
X0159569Y0216102D01*
X0159569Y0217701D02*
X0155169Y0217701D01*
X0155169Y0219299D02*
X0159569Y0219299D01*
X0159569Y0220898D02*
X0155169Y0220898D01*
X0155169Y0222496D02*
X0159569Y0222496D01*
X0159569Y0224095D02*
X0155169Y0224095D01*
X0155169Y0225693D02*
X0159569Y0225693D01*
X0159569Y0227292D02*
X0155169Y0227292D01*
X0155169Y0228890D02*
X0159569Y0228890D01*
X0159569Y0230489D02*
X0155169Y0230489D01*
X0155169Y0232087D02*
X0159569Y0232087D01*
X0159569Y0233686D02*
X0155169Y0233686D01*
X0155169Y0235284D02*
X0159569Y0235284D01*
X0159569Y0236883D02*
X0155169Y0236883D01*
X0155169Y0238481D02*
X0159569Y0238481D01*
X0159569Y0240080D02*
X0155169Y0240080D01*
X0155169Y0241678D02*
X0159569Y0241678D01*
X0159569Y0243277D02*
X0155169Y0243277D01*
X0154830Y0244875D02*
X0159569Y0244875D01*
X0162369Y0248500D02*
X0162369Y0181000D01*
X0166550Y0180935D02*
X0222864Y0180935D01*
X0221266Y0182533D02*
X0166259Y0182533D01*
X0165169Y0184132D02*
X0219667Y0184132D01*
X0218069Y0185730D02*
X0165169Y0185730D01*
X0165169Y0187329D02*
X0185467Y0187329D01*
X0186090Y0187071D02*
X0188648Y0187071D01*
X0191011Y0188050D01*
X0192819Y0189858D01*
X0193798Y0192221D01*
X0193798Y0194779D01*
X0192819Y0197142D01*
X0191011Y0198950D01*
X0190169Y0199299D01*
X0190169Y0207340D01*
X0207148Y0224319D01*
X0208201Y0224319D01*
X0209737Y0224955D01*
X0210914Y0226132D01*
X0211550Y0227668D01*
X0211550Y0229332D01*
X0210914Y0230868D01*
X0209737Y0232045D01*
X0208201Y0232681D01*
X0206537Y0232681D01*
X0205001Y0232045D01*
X0203824Y0230868D01*
X0203188Y0229332D01*
X0203188Y0228279D01*
X0184995Y0210086D01*
X0184569Y0209057D01*
X0184569Y0199299D01*
X0183727Y0198950D01*
X0181919Y0197142D01*
X0181550Y0196252D01*
X0181550Y0196832D01*
X0180914Y0198368D01*
X0180417Y0198865D01*
X0182397Y0222615D01*
X0183414Y0223632D01*
X0184050Y0225168D01*
X0184050Y0226832D01*
X0183414Y0228368D01*
X0182237Y0229545D01*
X0180701Y0230181D01*
X0179037Y0230181D01*
X0177501Y0229545D01*
X0176324Y0228368D01*
X0175688Y0226832D01*
X0175688Y0225168D01*
X0176324Y0223632D01*
X0176821Y0223135D01*
X0174841Y0199385D01*
X0173824Y0198368D01*
X0173188Y0196832D01*
X0173188Y0195168D01*
X0173824Y0193632D01*
X0175001Y0192455D01*
X0176537Y0191819D01*
X0178201Y0191819D01*
X0179737Y0192455D01*
X0180914Y0193632D01*
X0180940Y0193695D01*
X0180940Y0192221D01*
X0181919Y0189858D01*
X0183727Y0188050D01*
X0186090Y0187071D01*
X0189270Y0187329D02*
X0216690Y0187329D01*
X0216419Y0188927D02*
X0191888Y0188927D01*
X0193096Y0190526D02*
X0216419Y0190526D01*
X0216419Y0192124D02*
X0193758Y0192124D01*
X0193798Y0193723D02*
X0216419Y0193723D01*
X0216419Y0195321D02*
X0193573Y0195321D01*
X0192911Y0196920D02*
X0216419Y0196920D01*
X0216419Y0198518D02*
X0191443Y0198518D01*
X0190169Y0200117D02*
X0216419Y0200117D01*
X0216419Y0201715D02*
X0190169Y0201715D01*
X0190169Y0203314D02*
X0216419Y0203314D01*
X0216419Y0204912D02*
X0190169Y0204912D01*
X0190169Y0206511D02*
X0216419Y0206511D01*
X0216419Y0208109D02*
X0190938Y0208109D01*
X0192537Y0209708D02*
X0216419Y0209708D01*
X0216419Y0211306D02*
X0194135Y0211306D01*
X0195734Y0212905D02*
X0216419Y0212905D01*
X0216419Y0214503D02*
X0197332Y0214503D01*
X0198931Y0216102D02*
X0216419Y0216102D01*
X0216419Y0217701D02*
X0200529Y0217701D01*
X0202128Y0219299D02*
X0216419Y0219299D01*
X0216419Y0220898D02*
X0203726Y0220898D01*
X0205325Y0222496D02*
X0216419Y0222496D01*
X0216419Y0224095D02*
X0206923Y0224095D01*
X0210475Y0225693D02*
X0216419Y0225693D01*
X0215877Y0227292D02*
X0211394Y0227292D01*
X0211550Y0228890D02*
X0214279Y0228890D01*
X0212680Y0230489D02*
X0211071Y0230489D01*
X0211082Y0232087D02*
X0209635Y0232087D01*
X0209483Y0233686D02*
X0165169Y0233686D01*
X0165169Y0235284D02*
X0207885Y0235284D01*
X0206286Y0236883D02*
X0165169Y0236883D01*
X0165169Y0238481D02*
X0204688Y0238481D01*
X0203089Y0240080D02*
X0165169Y0240080D01*
X0165169Y0241678D02*
X0201491Y0241678D01*
X0199892Y0243277D02*
X0165169Y0243277D01*
X0165169Y0244875D02*
X0198294Y0244875D01*
X0196695Y0246474D02*
X0166055Y0246474D01*
X0166550Y0248072D02*
X0195097Y0248072D01*
X0193498Y0249671D02*
X0166410Y0249671D01*
X0157619Y0262459D02*
X0155449Y0262459D01*
X0155169Y0264057D02*
X0184569Y0264057D01*
X0184569Y0265656D02*
X0155169Y0265656D01*
X0154880Y0267254D02*
X0184569Y0267254D01*
X0184289Y0262459D02*
X0182575Y0262459D01*
X0190449Y0262459D02*
X0192619Y0262459D01*
X0195243Y0262459D02*
X0195243Y0262459D01*
X0195243Y0260860D02*
X0195243Y0260860D01*
X0195243Y0259262D02*
X0195243Y0259262D01*
X0183734Y0254466D02*
X0183130Y0254466D01*
X0207983Y0276845D02*
X0328932Y0276845D01*
X0333312Y0272050D02*
X0384385Y0272050D01*
X0384205Y0272125D02*
X0385059Y0271771D01*
X0385952Y0271532D01*
X0386530Y0271455D01*
X0386530Y0277661D01*
X0388130Y0277661D01*
X0388130Y0279261D01*
X0394335Y0279261D01*
X0394259Y0279839D01*
X0394020Y0280732D01*
X0393666Y0281586D01*
X0393204Y0282386D01*
X0392642Y0283119D01*
X0391988Y0283773D01*
X0391255Y0284335D01*
X0391248Y0284339D01*
X0393022Y0284716D01*
X0394112Y0283625D01*
X0396225Y0282750D01*
X0398513Y0282750D01*
X0400626Y0283625D01*
X0402244Y0285243D01*
X0403119Y0287356D01*
X0403119Y0289644D01*
X0402244Y0291757D01*
X0400626Y0293375D01*
X0398513Y0294250D01*
X0396225Y0294250D01*
X0394112Y0293375D01*
X0392494Y0291757D01*
X0391845Y0290191D01*
X0232075Y0256300D01*
X0231812Y0256300D01*
X0231536Y0256186D01*
X0231243Y0256123D01*
X0231026Y0255974D01*
X0230783Y0255874D01*
X0230571Y0255662D01*
X0230325Y0255493D01*
X0230181Y0255272D01*
X0229995Y0255086D01*
X0229881Y0254810D01*
X0229718Y0254559D01*
X0229670Y0254300D01*
X0229569Y0254057D01*
X0229569Y0253758D01*
X0229514Y0253464D01*
X0229569Y0253206D01*
X0229569Y0248275D01*
X0228766Y0248275D01*
X0227594Y0247103D01*
X0227594Y0239897D01*
X0228766Y0238725D01*
X0235972Y0238725D01*
X0237144Y0239897D01*
X0237144Y0247103D01*
X0235972Y0248275D01*
X0235169Y0248275D01*
X0235169Y0251232D01*
X0249789Y0254333D01*
X0248824Y0253368D01*
X0248188Y0251832D01*
X0248188Y0250168D01*
X0248824Y0248632D01*
X0249569Y0247887D01*
X0249569Y0239113D01*
X0248824Y0238368D01*
X0248188Y0236832D01*
X0248188Y0235168D01*
X0248824Y0233632D01*
X0250001Y0232455D01*
X0251537Y0231819D01*
X0253201Y0231819D01*
X0254737Y0232455D01*
X0255914Y0233632D01*
X0256550Y0235168D01*
X0256550Y0236832D01*
X0255914Y0238368D01*
X0255169Y0239113D01*
X0255169Y0247887D01*
X0255914Y0248632D01*
X0256550Y0250168D01*
X0256550Y0251832D01*
X0255914Y0253368D01*
X0254737Y0254545D01*
X0253399Y0255099D01*
X0381374Y0282245D01*
X0380993Y0281586D01*
X0380640Y0280732D01*
X0380401Y0279839D01*
X0380324Y0279261D01*
X0386530Y0279261D01*
X0386530Y0277661D01*
X0380324Y0277661D01*
X0380401Y0277083D01*
X0380640Y0276190D01*
X0380993Y0275336D01*
X0381456Y0274536D01*
X0382018Y0273803D01*
X0382672Y0273149D01*
X0383405Y0272587D01*
X0384205Y0272125D01*
X0386530Y0272050D02*
X0388130Y0272050D01*
X0388130Y0271455D02*
X0388708Y0271532D01*
X0389601Y0271771D01*
X0390455Y0272125D01*
X0391255Y0272587D01*
X0391988Y0273149D01*
X0392642Y0273803D01*
X0393204Y0274536D01*
X0393666Y0275336D01*
X0394020Y0276190D01*
X0394259Y0277083D01*
X0394335Y0277661D01*
X0388130Y0277661D01*
X0388130Y0271455D01*
X0388130Y0273648D02*
X0386530Y0273648D01*
X0386530Y0275247D02*
X0388130Y0275247D01*
X0388130Y0276845D02*
X0386530Y0276845D01*
X0386530Y0278444D02*
X0363456Y0278444D01*
X0359076Y0283239D02*
X0201589Y0283239D01*
X0203188Y0281641D02*
X0351540Y0281641D01*
X0344004Y0280042D02*
X0204786Y0280042D01*
X0206385Y0278444D02*
X0336468Y0278444D01*
X0340848Y0273648D02*
X0382172Y0273648D01*
X0381045Y0275247D02*
X0348384Y0275247D01*
X0355920Y0276845D02*
X0380464Y0276845D01*
X0380455Y0280042D02*
X0370991Y0280042D01*
X0366612Y0284838D02*
X0199991Y0284838D01*
X0197369Y0283500D02*
X0152369Y0283500D01*
X0152369Y0303500D01*
X0158763Y0297626D02*
X0165975Y0297626D01*
X0165015Y0298586D02*
X0167455Y0296146D01*
X0170643Y0294825D01*
X0174094Y0294825D01*
X0177283Y0296146D01*
X0179723Y0298586D01*
X0181044Y0301774D01*
X0181044Y0305226D01*
X0179723Y0308414D01*
X0177283Y0310854D01*
X0174094Y0312175D01*
X0170643Y0312175D01*
X0167455Y0310854D01*
X0165015Y0308414D01*
X0163694Y0305226D01*
X0163694Y0301774D01*
X0165015Y0298586D01*
X0164750Y0299225D02*
X0159988Y0299225D01*
X0160650Y0300823D02*
X0164088Y0300823D01*
X0163694Y0302422D02*
X0161044Y0302422D01*
X0161044Y0304020D02*
X0163694Y0304020D01*
X0163857Y0305619D02*
X0160881Y0305619D01*
X0160219Y0307217D02*
X0164519Y0307217D01*
X0165417Y0308816D02*
X0159321Y0308816D01*
X0157723Y0310414D02*
X0167015Y0310414D01*
X0170252Y0312013D02*
X0154486Y0312013D01*
X0174486Y0312013D02*
X0190252Y0312013D01*
X0190643Y0312175D02*
X0187455Y0310854D01*
X0185015Y0308414D01*
X0183694Y0305226D01*
X0183694Y0301774D01*
X0185015Y0298586D01*
X0187455Y0296146D01*
X0190643Y0294825D01*
X0194094Y0294825D01*
X0197283Y0296146D01*
X0199723Y0298586D01*
X0201044Y0301774D01*
X0201044Y0305226D01*
X0199723Y0308414D01*
X0197283Y0310854D01*
X0194094Y0312175D01*
X0190643Y0312175D01*
X0194486Y0312013D02*
X0211469Y0312013D01*
X0211469Y0311000D02*
X0211469Y0307463D01*
X0211592Y0307005D01*
X0211829Y0306595D01*
X0212164Y0306260D01*
X0212574Y0306023D01*
X0213032Y0305900D01*
X0214869Y0305900D01*
X0214869Y0311000D01*
X0214869Y0311000D01*
X0211469Y0311000D01*
X0211469Y0310414D02*
X0197723Y0310414D01*
X0199321Y0308816D02*
X0211469Y0308816D01*
X0211535Y0307217D02*
X0200219Y0307217D01*
X0200881Y0305619D02*
X0414070Y0305619D01*
X0414070Y0307217D02*
X0368203Y0307217D01*
X0368146Y0307005D02*
X0368269Y0307463D01*
X0368269Y0311000D01*
X0368269Y0314537D01*
X0368146Y0314995D01*
X0367909Y0315405D01*
X0367574Y0315740D01*
X0367164Y0315977D01*
X0366706Y0316100D01*
X0364869Y0316100D01*
X0364869Y0311000D01*
X0368269Y0311000D01*
X0364869Y0311000D01*
X0364869Y0311000D01*
X0364869Y0311000D01*
X0364869Y0305900D01*
X0366706Y0305900D01*
X0367164Y0306023D01*
X0367574Y0306260D01*
X0367909Y0306595D01*
X0368146Y0307005D01*
X0368269Y0308816D02*
X0414070Y0308816D01*
X0414070Y0310414D02*
X0368269Y0310414D01*
X0368269Y0312013D02*
X0414070Y0312013D01*
X0414070Y0313611D02*
X0368269Y0313611D01*
X0368022Y0315210D02*
X0414070Y0315210D01*
X0414070Y0316461D02*
X0414070Y0300878D01*
X0413744Y0301664D01*
X0413282Y0302464D01*
X0412720Y0303197D01*
X0412066Y0303851D01*
X0411333Y0304413D01*
X0410533Y0304875D01*
X0409679Y0305229D01*
X0408786Y0305468D01*
X0408208Y0305544D01*
X0408208Y0299339D01*
X0406608Y0299339D01*
X0406608Y0305544D01*
X0406030Y0305468D01*
X0405137Y0305229D01*
X0404283Y0304875D01*
X0403483Y0304413D01*
X0402750Y0303851D01*
X0402096Y0303197D01*
X0401533Y0302464D01*
X0401071Y0301664D01*
X0400718Y0300810D01*
X0400479Y0299917D01*
X0400402Y0299339D01*
X0406608Y0299339D01*
X0406608Y0297739D01*
X0408208Y0297739D01*
X0408208Y0291533D01*
X0408786Y0291610D01*
X0409679Y0291849D01*
X0410533Y0292202D01*
X0411333Y0292665D01*
X0412066Y0293227D01*
X0412720Y0293881D01*
X0413282Y0294614D01*
X0413744Y0295414D01*
X0414070Y0296200D01*
X0414070Y0280800D01*
X0413744Y0281586D01*
X0413282Y0282386D01*
X0412720Y0283119D01*
X0412066Y0283773D01*
X0411333Y0284335D01*
X0410533Y0284798D01*
X0409679Y0285151D01*
X0408786Y0285390D01*
X0408208Y0285467D01*
X0408208Y0279261D01*
X0406608Y0279261D01*
X0406608Y0285467D01*
X0406030Y0285390D01*
X0405137Y0285151D01*
X0404283Y0284798D01*
X0403483Y0284335D01*
X0402750Y0283773D01*
X0402096Y0283119D01*
X0401533Y0282386D01*
X0401071Y0281586D01*
X0400718Y0280732D01*
X0400479Y0279839D01*
X0400402Y0279261D01*
X0406608Y0279261D01*
X0406608Y0277661D01*
X0408208Y0277661D01*
X0408208Y0271455D01*
X0408786Y0271532D01*
X0409679Y0271771D01*
X0410533Y0272125D01*
X0411333Y0272587D01*
X0412066Y0273149D01*
X0412720Y0273803D01*
X0413282Y0274536D01*
X0413744Y0275336D01*
X0414070Y0276122D01*
X0414070Y0005500D01*
X0024369Y0005500D01*
X0024369Y0316461D01*
X0414070Y0316461D01*
X0414070Y0304020D02*
X0411846Y0304020D01*
X0413307Y0302422D02*
X0414070Y0302422D01*
X0408208Y0302422D02*
X0406608Y0302422D01*
X0406608Y0304020D02*
X0408208Y0304020D01*
X0408208Y0300823D02*
X0406608Y0300823D01*
X0406608Y0299225D02*
X0388130Y0299225D01*
X0388130Y0299339D02*
X0394335Y0299339D01*
X0394259Y0299917D01*
X0394020Y0300810D01*
X0393666Y0301664D01*
X0393204Y0302464D01*
X0392642Y0303197D01*
X0391988Y0303851D01*
X0391255Y0304413D01*
X0390455Y0304875D01*
X0389601Y0305229D01*
X0388708Y0305468D01*
X0388130Y0305544D01*
X0388130Y0299339D01*
X0386530Y0299339D01*
X0386530Y0305544D01*
X0385952Y0305468D01*
X0385059Y0305229D01*
X0384205Y0304875D01*
X0383405Y0304413D01*
X0382672Y0303851D01*
X0382018Y0303197D01*
X0381456Y0302464D01*
X0380993Y0301664D01*
X0380640Y0300810D01*
X0380401Y0299917D01*
X0380324Y0299339D01*
X0386530Y0299339D01*
X0386530Y0297739D01*
X0380324Y0297739D01*
X0380401Y0297161D01*
X0380640Y0296268D01*
X0380993Y0295414D01*
X0381456Y0294614D01*
X0382018Y0293881D01*
X0382672Y0293227D01*
X0383405Y0292665D01*
X0384205Y0292202D01*
X0385059Y0291849D01*
X0385952Y0291610D01*
X0386530Y0291533D01*
X0386530Y0297739D01*
X0388130Y0297739D01*
X0388130Y0299339D01*
X0388130Y0300823D02*
X0386530Y0300823D01*
X0386530Y0299225D02*
X0199988Y0299225D01*
X0200650Y0300823D02*
X0380645Y0300823D01*
X0381431Y0302422D02*
X0201044Y0302422D01*
X0201044Y0304020D02*
X0382892Y0304020D01*
X0386530Y0304020D02*
X0388130Y0304020D01*
X0388130Y0302422D02*
X0386530Y0302422D01*
X0386530Y0297626D02*
X0388130Y0297626D01*
X0388130Y0297739D02*
X0388130Y0291533D01*
X0388708Y0291610D01*
X0389601Y0291849D01*
X0390455Y0292202D01*
X0391255Y0292665D01*
X0391988Y0293227D01*
X0392642Y0293881D01*
X0393204Y0294614D01*
X0393666Y0295414D01*
X0394020Y0296268D01*
X0394259Y0297161D01*
X0394335Y0297739D01*
X0388130Y0297739D01*
X0388130Y0296028D02*
X0386530Y0296028D01*
X0386530Y0294429D02*
X0388130Y0294429D01*
X0388130Y0292831D02*
X0386530Y0292831D01*
X0383188Y0292831D02*
X0155169Y0292831D01*
X0155169Y0294429D02*
X0381597Y0294429D01*
X0380739Y0296028D02*
X0196997Y0296028D01*
X0198763Y0297626D02*
X0380339Y0297626D01*
X0381683Y0288035D02*
X0155169Y0288035D01*
X0155169Y0286437D02*
X0374147Y0286437D01*
X0378527Y0281641D02*
X0381025Y0281641D01*
X0388130Y0278444D02*
X0406608Y0278444D01*
X0406608Y0277661D02*
X0400402Y0277661D01*
X0400479Y0277083D01*
X0400718Y0276190D01*
X0401071Y0275336D01*
X0401533Y0274536D01*
X0402096Y0273803D01*
X0402750Y0273149D01*
X0403483Y0272587D01*
X0404283Y0272125D01*
X0405137Y0271771D01*
X0406030Y0271532D01*
X0406608Y0271455D01*
X0406608Y0277661D01*
X0406608Y0276845D02*
X0408208Y0276845D01*
X0408208Y0275247D02*
X0406608Y0275247D01*
X0406608Y0273648D02*
X0408208Y0273648D01*
X0408208Y0272050D02*
X0406608Y0272050D01*
X0404463Y0272050D02*
X0390275Y0272050D01*
X0392488Y0273648D02*
X0402250Y0273648D01*
X0401123Y0275247D02*
X0393615Y0275247D01*
X0394196Y0276845D02*
X0400542Y0276845D01*
X0400533Y0280042D02*
X0394205Y0280042D01*
X0393635Y0281641D02*
X0401103Y0281641D01*
X0402216Y0283239D02*
X0399694Y0283239D01*
X0401839Y0284838D02*
X0404381Y0284838D01*
X0406608Y0284838D02*
X0408208Y0284838D01*
X0408208Y0283239D02*
X0406608Y0283239D01*
X0406608Y0281641D02*
X0408208Y0281641D01*
X0408208Y0280042D02*
X0406608Y0280042D01*
X0412600Y0283239D02*
X0414070Y0283239D01*
X0414070Y0281641D02*
X0413713Y0281641D01*
X0414070Y0284838D02*
X0410435Y0284838D01*
X0414070Y0286437D02*
X0402738Y0286437D01*
X0403119Y0288035D02*
X0414070Y0288035D01*
X0414070Y0289634D02*
X0403119Y0289634D01*
X0402461Y0291232D02*
X0414070Y0291232D01*
X0414070Y0292831D02*
X0411549Y0292831D01*
X0413141Y0294429D02*
X0414070Y0294429D01*
X0414070Y0296028D02*
X0413999Y0296028D01*
X0408208Y0296028D02*
X0406608Y0296028D01*
X0406608Y0297626D02*
X0408208Y0297626D01*
X0406608Y0297739D02*
X0406608Y0291533D01*
X0406030Y0291610D01*
X0405137Y0291849D01*
X0404283Y0292202D01*
X0403483Y0292665D01*
X0402750Y0293227D01*
X0402096Y0293881D01*
X0401533Y0294614D01*
X0401071Y0295414D01*
X0400718Y0296268D01*
X0400479Y0297161D01*
X0400402Y0297739D01*
X0406608Y0297739D01*
X0406608Y0294429D02*
X0408208Y0294429D01*
X0408208Y0292831D02*
X0406608Y0292831D01*
X0403266Y0292831D02*
X0401170Y0292831D01*
X0401675Y0294429D02*
X0393063Y0294429D01*
X0393568Y0292831D02*
X0391472Y0292831D01*
X0392277Y0291232D02*
X0155169Y0291232D01*
X0155169Y0289634D02*
X0389219Y0289634D01*
X0392522Y0283239D02*
X0395043Y0283239D01*
X0397369Y0288500D02*
X0232369Y0253500D01*
X0232369Y0243500D01*
X0237144Y0243277D02*
X0237794Y0243277D01*
X0237794Y0243500D02*
X0237794Y0240488D01*
X0237917Y0240030D01*
X0238154Y0239620D01*
X0238489Y0239285D01*
X0238899Y0239048D01*
X0239357Y0238925D01*
X0242369Y0238925D01*
X0245381Y0238925D01*
X0245839Y0239048D01*
X0246249Y0239285D01*
X0246584Y0239620D01*
X0246821Y0240030D01*
X0246944Y0240488D01*
X0246944Y0243500D01*
X0246944Y0246512D01*
X0246821Y0246970D01*
X0246584Y0247380D01*
X0246249Y0247715D01*
X0245839Y0247952D01*
X0245381Y0248075D01*
X0242369Y0248075D01*
X0242369Y0243500D01*
X0246944Y0243500D01*
X0242369Y0243500D01*
X0242369Y0243500D01*
X0242369Y0243500D01*
X0242369Y0238925D01*
X0242369Y0243500D01*
X0242369Y0243500D01*
X0242369Y0248075D01*
X0239357Y0248075D01*
X0238899Y0247952D01*
X0238489Y0247715D01*
X0238154Y0247380D01*
X0237917Y0246970D01*
X0237794Y0246512D01*
X0237794Y0243500D01*
X0242369Y0243500D01*
X0242369Y0243500D01*
X0237794Y0243500D01*
X0237794Y0244875D02*
X0237144Y0244875D01*
X0237144Y0246474D02*
X0237794Y0246474D01*
X0239348Y0248072D02*
X0236175Y0248072D01*
X0235169Y0249671D02*
X0248394Y0249671D01*
X0248188Y0251269D02*
X0235346Y0251269D01*
X0229569Y0251269D02*
X0215169Y0251269D01*
X0215169Y0249671D02*
X0229569Y0249671D01*
X0228563Y0248072D02*
X0225390Y0248072D01*
X0226944Y0246474D02*
X0227594Y0246474D01*
X0227594Y0244875D02*
X0226944Y0244875D01*
X0226944Y0243277D02*
X0227594Y0243277D01*
X0227594Y0241678D02*
X0226944Y0241678D01*
X0226834Y0240080D02*
X0227594Y0240080D01*
X0222369Y0240080D02*
X0222369Y0240080D01*
X0222369Y0241678D02*
X0222369Y0241678D01*
X0222369Y0243277D02*
X0222369Y0243277D01*
X0222369Y0243500D02*
X0222369Y0243500D01*
X0222369Y0244875D02*
X0222369Y0244875D01*
X0222369Y0246474D02*
X0222369Y0246474D01*
X0222369Y0248072D02*
X0222369Y0248072D01*
X0219348Y0248072D02*
X0215169Y0248072D01*
X0215169Y0246474D02*
X0217794Y0246474D01*
X0217794Y0244875D02*
X0215169Y0244875D01*
X0216552Y0243277D02*
X0217794Y0243277D01*
X0212369Y0243500D02*
X0212369Y0268500D01*
X0197369Y0283500D01*
X0209582Y0275247D02*
X0321397Y0275247D01*
X0325776Y0270451D02*
X0414070Y0270451D01*
X0414070Y0268853D02*
X0318240Y0268853D01*
X0313861Y0273648D02*
X0211180Y0273648D01*
X0212779Y0272050D02*
X0306325Y0272050D01*
X0310705Y0267254D02*
X0414070Y0267254D01*
X0414070Y0265656D02*
X0303169Y0265656D01*
X0298789Y0270451D02*
X0214377Y0270451D01*
X0215169Y0268853D02*
X0291253Y0268853D01*
X0295633Y0264057D02*
X0414070Y0264057D01*
X0414070Y0262459D02*
X0288097Y0262459D01*
X0283717Y0267254D02*
X0215169Y0267254D01*
X0215169Y0265656D02*
X0276182Y0265656D01*
X0268646Y0264057D02*
X0215169Y0264057D01*
X0215169Y0262459D02*
X0261110Y0262459D01*
X0265490Y0257663D02*
X0414070Y0257663D01*
X0414070Y0256065D02*
X0257954Y0256065D01*
X0254816Y0254466D02*
X0414070Y0254466D01*
X0414070Y0252868D02*
X0256121Y0252868D01*
X0256550Y0251269D02*
X0364225Y0251269D01*
X0363824Y0250868D02*
X0363188Y0249332D01*
X0363188Y0247668D01*
X0363824Y0246132D01*
X0364569Y0245387D01*
X0364569Y0226300D01*
X0245482Y0226300D01*
X0244737Y0227045D01*
X0243201Y0227681D01*
X0241537Y0227681D01*
X0240001Y0227045D01*
X0238824Y0225868D01*
X0238188Y0224332D01*
X0238188Y0222668D01*
X0238824Y0221132D01*
X0240001Y0219955D01*
X0241537Y0219319D01*
X0243201Y0219319D01*
X0244737Y0219955D01*
X0245482Y0220700D01*
X0367926Y0220700D01*
X0368955Y0221126D01*
X0369743Y0221914D01*
X0370169Y0222943D01*
X0370169Y0245387D01*
X0370914Y0246132D01*
X0371550Y0247668D01*
X0371550Y0249332D01*
X0370914Y0250868D01*
X0369737Y0252045D01*
X0368201Y0252681D01*
X0366537Y0252681D01*
X0365001Y0252045D01*
X0363824Y0250868D01*
X0363328Y0249671D02*
X0256344Y0249671D01*
X0255354Y0248072D02*
X0298563Y0248072D01*
X0298766Y0248275D02*
X0297594Y0247103D01*
X0297594Y0239897D01*
X0298766Y0238725D01*
X0305972Y0238725D01*
X0307144Y0239897D01*
X0307144Y0247103D01*
X0305972Y0248275D01*
X0298766Y0248275D01*
X0297594Y0246474D02*
X0255169Y0246474D01*
X0255169Y0244875D02*
X0297594Y0244875D01*
X0297594Y0243277D02*
X0255169Y0243277D01*
X0255169Y0241678D02*
X0297594Y0241678D01*
X0297594Y0240080D02*
X0255169Y0240080D01*
X0255801Y0238481D02*
X0364569Y0238481D01*
X0364569Y0236883D02*
X0256529Y0236883D01*
X0256550Y0235284D02*
X0364569Y0235284D01*
X0364569Y0233686D02*
X0255936Y0233686D01*
X0253848Y0232087D02*
X0364569Y0232087D01*
X0364569Y0230489D02*
X0229340Y0230489D01*
X0227742Y0232087D02*
X0250890Y0232087D01*
X0248802Y0233686D02*
X0226143Y0233686D01*
X0224545Y0235284D02*
X0248188Y0235284D01*
X0248209Y0236883D02*
X0222946Y0236883D01*
X0221348Y0238481D02*
X0248937Y0238481D01*
X0249569Y0240080D02*
X0246834Y0240080D01*
X0246944Y0241678D02*
X0249569Y0241678D01*
X0249569Y0243277D02*
X0246944Y0243277D01*
X0246944Y0244875D02*
X0249569Y0244875D01*
X0249569Y0246474D02*
X0246944Y0246474D01*
X0245390Y0248072D02*
X0249384Y0248072D01*
X0252369Y0251000D02*
X0252369Y0236000D01*
X0242369Y0240080D02*
X0242369Y0240080D01*
X0242369Y0241678D02*
X0242369Y0241678D01*
X0242369Y0243277D02*
X0242369Y0243277D01*
X0242369Y0244875D02*
X0242369Y0244875D01*
X0242369Y0246474D02*
X0242369Y0246474D01*
X0242369Y0248072D02*
X0242369Y0248072D01*
X0242882Y0252868D02*
X0248617Y0252868D01*
X0246038Y0259262D02*
X0215169Y0259262D01*
X0215169Y0260860D02*
X0253574Y0260860D01*
X0238502Y0257663D02*
X0215169Y0257663D01*
X0215169Y0256065D02*
X0231158Y0256065D01*
X0229701Y0254466D02*
X0215169Y0254466D01*
X0215169Y0252868D02*
X0229569Y0252868D01*
X0237144Y0241678D02*
X0237794Y0241678D01*
X0237904Y0240080D02*
X0237144Y0240080D01*
X0230939Y0228890D02*
X0364569Y0228890D01*
X0364569Y0227292D02*
X0244141Y0227292D01*
X0240597Y0227292D02*
X0232537Y0227292D01*
X0234136Y0225693D02*
X0238752Y0225693D01*
X0238188Y0224095D02*
X0235734Y0224095D01*
X0237333Y0222496D02*
X0238259Y0222496D01*
X0238931Y0220898D02*
X0239058Y0220898D01*
X0240530Y0219299D02*
X0414070Y0219299D01*
X0414070Y0217701D02*
X0242128Y0217701D01*
X0243727Y0216102D02*
X0414070Y0216102D01*
X0414070Y0214503D02*
X0245325Y0214503D01*
X0246924Y0212905D02*
X0414070Y0212905D01*
X0414070Y0211306D02*
X0248522Y0211306D01*
X0250121Y0209708D02*
X0414070Y0209708D01*
X0414070Y0208109D02*
X0251719Y0208109D01*
X0253318Y0206511D02*
X0414070Y0206511D01*
X0414070Y0204912D02*
X0254916Y0204912D01*
X0256515Y0203314D02*
X0414070Y0203314D01*
X0414070Y0201715D02*
X0258113Y0201715D01*
X0259712Y0200117D02*
X0414070Y0200117D01*
X0414070Y0198518D02*
X0406443Y0198518D01*
X0406011Y0198950D02*
X0403648Y0199929D01*
X0401090Y0199929D01*
X0398727Y0198950D01*
X0396919Y0197142D01*
X0395940Y0194779D01*
X0395940Y0192221D01*
X0396919Y0189858D01*
X0398727Y0188050D01*
X0401090Y0187071D01*
X0403648Y0187071D01*
X0406011Y0188050D01*
X0407819Y0189858D01*
X0408798Y0192221D01*
X0408798Y0194779D01*
X0407819Y0197142D01*
X0406011Y0198950D01*
X0407911Y0196920D02*
X0414070Y0196920D01*
X0414070Y0195321D02*
X0408573Y0195321D01*
X0408798Y0193723D02*
X0414070Y0193723D01*
X0414070Y0192124D02*
X0408758Y0192124D01*
X0408096Y0190526D02*
X0414070Y0190526D01*
X0414070Y0188927D02*
X0406888Y0188927D01*
X0404270Y0187329D02*
X0414070Y0187329D01*
X0414070Y0185730D02*
X0265971Y0185730D01*
X0266550Y0184132D02*
X0414070Y0184132D01*
X0414070Y0182533D02*
X0266494Y0182533D01*
X0265717Y0180935D02*
X0414070Y0180935D01*
X0414070Y0179336D02*
X0263243Y0179336D01*
X0261495Y0179336D02*
X0255169Y0179336D01*
X0255169Y0177738D02*
X0414070Y0177738D01*
X0414070Y0176139D02*
X0255169Y0176139D01*
X0255169Y0174541D02*
X0414070Y0174541D01*
X0414070Y0172942D02*
X0255169Y0172942D01*
X0255169Y0171344D02*
X0414070Y0171344D01*
X0414070Y0169745D02*
X0255169Y0169745D01*
X0255169Y0168147D02*
X0414070Y0168147D01*
X0414070Y0166548D02*
X0255169Y0166548D01*
X0255169Y0164950D02*
X0414070Y0164950D01*
X0414070Y0163351D02*
X0255169Y0163351D01*
X0255169Y0161753D02*
X0414070Y0161753D01*
X0414070Y0160154D02*
X0255169Y0160154D01*
X0255169Y0158556D02*
X0414070Y0158556D01*
X0414070Y0156957D02*
X0255169Y0156957D01*
X0255169Y0155359D02*
X0414070Y0155359D01*
X0414070Y0153760D02*
X0255169Y0153760D01*
X0255169Y0152162D02*
X0414070Y0152162D01*
X0414070Y0150563D02*
X0255169Y0150563D01*
X0255169Y0148965D02*
X0414070Y0148965D01*
X0414070Y0147366D02*
X0255169Y0147366D01*
X0255169Y0145768D02*
X0414070Y0145768D01*
X0414070Y0144169D02*
X0255169Y0144169D01*
X0255169Y0142570D02*
X0414070Y0142570D01*
X0414070Y0140972D02*
X0255169Y0140972D01*
X0255169Y0139373D02*
X0414070Y0139373D01*
X0414070Y0137775D02*
X0255169Y0137775D01*
X0255169Y0136176D02*
X0414070Y0136176D01*
X0414070Y0134578D02*
X0255169Y0134578D01*
X0255169Y0132979D02*
X0414070Y0132979D01*
X0414070Y0131381D02*
X0255169Y0131381D01*
X0255169Y0129782D02*
X0414070Y0129782D01*
X0414070Y0128184D02*
X0255169Y0128184D01*
X0255169Y0126585D02*
X0414070Y0126585D01*
X0414070Y0124987D02*
X0255169Y0124987D01*
X0256573Y0123388D02*
X0398165Y0123388D01*
X0398727Y0123950D02*
X0396919Y0122142D01*
X0395940Y0119779D01*
X0395940Y0117221D01*
X0396919Y0114858D01*
X0398727Y0113050D01*
X0401090Y0112071D01*
X0403648Y0112071D01*
X0406011Y0113050D01*
X0407819Y0114858D01*
X0408798Y0117221D01*
X0408798Y0119779D01*
X0407819Y0122142D01*
X0406011Y0123950D01*
X0403648Y0124929D01*
X0401090Y0124929D01*
X0398727Y0123950D01*
X0396773Y0121790D02*
X0257965Y0121790D01*
X0258627Y0120191D02*
X0396111Y0120191D01*
X0395940Y0118593D02*
X0258798Y0118593D01*
X0258704Y0116994D02*
X0396034Y0116994D01*
X0396696Y0115396D02*
X0258042Y0115396D01*
X0256758Y0113797D02*
X0397980Y0113797D01*
X0400781Y0112199D02*
X0253957Y0112199D01*
X0250781Y0112199D02*
X0188957Y0112199D01*
X0191758Y0113797D02*
X0247980Y0113797D01*
X0246696Y0115396D02*
X0221810Y0115396D01*
X0221810Y0116994D02*
X0246034Y0116994D01*
X0245940Y0118593D02*
X0221810Y0118593D01*
X0221695Y0120191D02*
X0246111Y0120191D01*
X0246773Y0121790D02*
X0221035Y0121790D01*
X0221035Y0123388D02*
X0248165Y0123388D01*
X0249569Y0124987D02*
X0221035Y0124987D01*
X0222597Y0126585D02*
X0249569Y0126585D01*
X0249569Y0128184D02*
X0222597Y0128184D01*
X0222597Y0129782D02*
X0249569Y0129782D01*
X0249569Y0131381D02*
X0222597Y0131381D01*
X0222096Y0132979D02*
X0249569Y0132979D01*
X0249569Y0134578D02*
X0174778Y0134578D01*
X0173180Y0136176D02*
X0249569Y0136176D01*
X0249569Y0137775D02*
X0171581Y0137775D01*
X0169983Y0139373D02*
X0249569Y0139373D01*
X0249569Y0140972D02*
X0168384Y0140972D01*
X0166786Y0142570D02*
X0249569Y0142570D01*
X0249569Y0144169D02*
X0165187Y0144169D01*
X0163589Y0145768D02*
X0249569Y0145768D01*
X0249569Y0147366D02*
X0161990Y0147366D01*
X0140928Y0158556D02*
X0040169Y0158556D01*
X0040169Y0160154D02*
X0140235Y0160154D01*
X0140235Y0161753D02*
X0040169Y0161753D01*
X0040169Y0163351D02*
X0140874Y0163351D01*
X0165020Y0177738D02*
X0226061Y0177738D01*
X0224463Y0179336D02*
X0166205Y0179336D01*
X0165169Y0188927D02*
X0182849Y0188927D01*
X0181642Y0190526D02*
X0165169Y0190526D01*
X0165169Y0192124D02*
X0175800Y0192124D01*
X0173787Y0193723D02*
X0165169Y0193723D01*
X0165169Y0195321D02*
X0173188Y0195321D01*
X0173224Y0196920D02*
X0165169Y0196920D01*
X0165169Y0198518D02*
X0173974Y0198518D01*
X0174902Y0200117D02*
X0165169Y0200117D01*
X0165169Y0201715D02*
X0175036Y0201715D01*
X0175169Y0203314D02*
X0165169Y0203314D01*
X0165169Y0204912D02*
X0175302Y0204912D01*
X0175435Y0206511D02*
X0165169Y0206511D01*
X0165169Y0208109D02*
X0175568Y0208109D01*
X0175702Y0209708D02*
X0165169Y0209708D01*
X0165169Y0211306D02*
X0175835Y0211306D01*
X0175968Y0212905D02*
X0165169Y0212905D01*
X0165169Y0214503D02*
X0176101Y0214503D01*
X0176234Y0216102D02*
X0165169Y0216102D01*
X0165169Y0217701D02*
X0176368Y0217701D01*
X0176501Y0219299D02*
X0165169Y0219299D01*
X0165169Y0220898D02*
X0176634Y0220898D01*
X0176767Y0222496D02*
X0165169Y0222496D01*
X0165169Y0224095D02*
X0176133Y0224095D01*
X0175688Y0225693D02*
X0165169Y0225693D01*
X0165169Y0227292D02*
X0175878Y0227292D01*
X0176846Y0228890D02*
X0165169Y0228890D01*
X0165169Y0230489D02*
X0203667Y0230489D01*
X0203188Y0228890D02*
X0182892Y0228890D01*
X0183860Y0227292D02*
X0202201Y0227292D01*
X0200602Y0225693D02*
X0184050Y0225693D01*
X0183605Y0224095D02*
X0199004Y0224095D01*
X0197405Y0222496D02*
X0182387Y0222496D01*
X0182253Y0220898D02*
X0195807Y0220898D01*
X0194208Y0219299D02*
X0182120Y0219299D01*
X0181987Y0217701D02*
X0192610Y0217701D01*
X0191011Y0216102D02*
X0181854Y0216102D01*
X0181721Y0214503D02*
X0189413Y0214503D01*
X0187814Y0212905D02*
X0181587Y0212905D01*
X0181454Y0211306D02*
X0186216Y0211306D01*
X0184839Y0209708D02*
X0181321Y0209708D01*
X0181188Y0208109D02*
X0184569Y0208109D01*
X0184569Y0206511D02*
X0181055Y0206511D01*
X0180921Y0204912D02*
X0184569Y0204912D01*
X0184569Y0203314D02*
X0180788Y0203314D01*
X0180655Y0201715D02*
X0184569Y0201715D01*
X0184569Y0200117D02*
X0180522Y0200117D01*
X0180764Y0198518D02*
X0183295Y0198518D01*
X0181827Y0196920D02*
X0181514Y0196920D01*
X0177369Y0196000D02*
X0179869Y0226000D01*
X0165169Y0232087D02*
X0205103Y0232087D01*
X0207369Y0228500D02*
X0187369Y0208500D01*
X0187369Y0193500D01*
X0180980Y0192124D02*
X0178938Y0192124D01*
X0137369Y0216000D02*
X0127369Y0218500D01*
X0123854Y0216102D02*
X0058896Y0216102D01*
X0060529Y0217701D02*
X0123188Y0217701D01*
X0123188Y0219299D02*
X0062128Y0219299D01*
X0062369Y0223500D02*
X0057369Y0218500D01*
X0027369Y0218500D01*
X0027369Y0293500D01*
X0037369Y0293500D01*
X0038960Y0289634D02*
X0049808Y0289634D01*
X0051648Y0291232D02*
X0040955Y0291232D01*
X0035778Y0289634D02*
X0030169Y0289634D01*
X0056102Y0284838D02*
X0058919Y0284838D01*
X0057887Y0283239D02*
X0057060Y0283239D01*
X0057369Y0281641D02*
X0057569Y0281641D01*
X0057569Y0280042D02*
X0057369Y0280042D01*
X0062269Y0276845D02*
X0062469Y0276845D01*
X0062469Y0275247D02*
X0062269Y0275247D01*
X0062269Y0273648D02*
X0062469Y0273648D01*
X0062469Y0272050D02*
X0062269Y0272050D01*
X0052369Y0258500D02*
X0097369Y0258500D01*
X0097369Y0238500D01*
X0094569Y0238481D02*
X0057569Y0238481D01*
X0057569Y0236883D02*
X0095027Y0236883D01*
X0094569Y0240080D02*
X0057569Y0240080D01*
X0057569Y0241678D02*
X0094569Y0241678D01*
X0094569Y0243277D02*
X0056821Y0243277D01*
X0056098Y0244875D02*
X0094569Y0244875D01*
X0094569Y0246474D02*
X0057569Y0246474D01*
X0057569Y0248072D02*
X0094569Y0248072D01*
X0094569Y0249671D02*
X0057569Y0249671D01*
X0056954Y0251269D02*
X0094569Y0251269D01*
X0094569Y0252868D02*
X0055355Y0252868D01*
X0055689Y0254466D02*
X0094569Y0254466D01*
X0112575Y0262459D02*
X0114289Y0262459D01*
X0120449Y0262459D02*
X0122619Y0262459D01*
X0125243Y0262459D02*
X0125243Y0262459D01*
X0125243Y0260860D02*
X0125243Y0260860D01*
X0125243Y0259262D02*
X0125243Y0259262D01*
X0127867Y0262459D02*
X0132069Y0262459D01*
X0132069Y0260860D02*
X0129480Y0260860D01*
X0130135Y0259262D02*
X0132069Y0259262D01*
X0132069Y0257663D02*
X0130223Y0257663D01*
X0129774Y0256065D02*
X0132069Y0256065D01*
X0132069Y0254466D02*
X0128595Y0254466D01*
X0137669Y0256065D02*
X0139745Y0256065D01*
X0139295Y0257663D02*
X0137669Y0257663D01*
X0137669Y0259262D02*
X0139313Y0259262D01*
X0139975Y0260860D02*
X0137669Y0260860D01*
X0137669Y0262459D02*
X0141415Y0262459D01*
X0139569Y0235284D02*
X0057569Y0235284D01*
X0056783Y0233686D02*
X0139569Y0233686D01*
X0137369Y0223500D02*
X0119869Y0223500D01*
X0094058Y0220898D02*
X0080679Y0220898D01*
X0081479Y0222496D02*
X0093259Y0222496D01*
X0092815Y0224095D02*
X0081550Y0224095D01*
X0080986Y0225693D02*
X0091216Y0225693D01*
X0077369Y0223500D02*
X0062369Y0223500D01*
X0071254Y0198518D02*
X0041443Y0198518D01*
X0042911Y0196920D02*
X0068936Y0196920D01*
X0068224Y0195321D02*
X0043573Y0195321D01*
X0043798Y0193723D02*
X0068214Y0193723D01*
X0068839Y0192124D02*
X0043758Y0192124D01*
X0043096Y0190526D02*
X0068919Y0190526D01*
X0068599Y0188927D02*
X0041888Y0188927D01*
X0040169Y0187329D02*
X0068279Y0187329D01*
X0067960Y0185730D02*
X0040169Y0185730D01*
X0040169Y0184132D02*
X0067088Y0184132D01*
X0065978Y0182533D02*
X0040169Y0182533D01*
X0040169Y0180935D02*
X0065688Y0180935D01*
X0066033Y0179336D02*
X0040169Y0179336D01*
X0040169Y0177738D02*
X0067218Y0177738D01*
X0093235Y0180665D02*
X0101701Y0180665D01*
X0040169Y0176139D02*
X0227660Y0176139D01*
X0229258Y0174541D02*
X0040169Y0174541D01*
X0040169Y0172942D02*
X0230857Y0172942D01*
X0232167Y0171344D02*
X0040169Y0171344D01*
X0040169Y0169745D02*
X0232167Y0169745D01*
X0232167Y0168147D02*
X0040169Y0168147D01*
X0037369Y0193500D02*
X0037369Y0118500D01*
X0024369Y0110600D02*
X0414070Y0110600D01*
X0414070Y0109002D02*
X0024369Y0109002D01*
X0024369Y0107403D02*
X0414070Y0107403D01*
X0414070Y0105805D02*
X0024369Y0105805D01*
X0024369Y0104206D02*
X0414070Y0104206D01*
X0414070Y0102608D02*
X0024369Y0102608D01*
X0024369Y0101009D02*
X0414070Y0101009D01*
X0414070Y0099411D02*
X0024369Y0099411D01*
X0024369Y0097812D02*
X0414070Y0097812D01*
X0414070Y0096214D02*
X0024369Y0096214D01*
X0024369Y0094615D02*
X0414070Y0094615D01*
X0414070Y0093017D02*
X0024369Y0093017D01*
X0024369Y0091418D02*
X0414070Y0091418D01*
X0414070Y0089820D02*
X0024369Y0089820D01*
X0024369Y0088221D02*
X0414070Y0088221D01*
X0414070Y0086623D02*
X0024369Y0086623D01*
X0024369Y0085024D02*
X0414070Y0085024D01*
X0414070Y0083426D02*
X0024369Y0083426D01*
X0024369Y0081827D02*
X0414070Y0081827D01*
X0414070Y0080229D02*
X0024369Y0080229D01*
X0024369Y0078630D02*
X0414070Y0078630D01*
X0414070Y0077032D02*
X0024369Y0077032D01*
X0024369Y0075433D02*
X0414070Y0075433D01*
X0414070Y0073834D02*
X0024369Y0073834D01*
X0024369Y0072236D02*
X0414070Y0072236D01*
X0414070Y0070637D02*
X0024369Y0070637D01*
X0024369Y0069039D02*
X0414070Y0069039D01*
X0414070Y0067440D02*
X0024369Y0067440D01*
X0024369Y0065842D02*
X0414070Y0065842D01*
X0414070Y0064243D02*
X0024369Y0064243D01*
X0024369Y0062645D02*
X0414070Y0062645D01*
X0414070Y0061046D02*
X0024369Y0061046D01*
X0024369Y0059448D02*
X0414070Y0059448D01*
X0414070Y0057849D02*
X0024369Y0057849D01*
X0024369Y0056251D02*
X0414070Y0056251D01*
X0414070Y0054652D02*
X0024369Y0054652D01*
X0024369Y0053054D02*
X0414070Y0053054D01*
X0414070Y0051455D02*
X0024369Y0051455D01*
X0024369Y0049857D02*
X0204026Y0049857D01*
X0204200Y0049929D02*
X0201837Y0048950D01*
X0200029Y0047142D01*
X0199050Y0044779D01*
X0199050Y0042221D01*
X0200029Y0039858D01*
X0201837Y0038050D01*
X0204200Y0037071D01*
X0206758Y0037071D01*
X0209121Y0038050D01*
X0210930Y0039858D01*
X0211908Y0042221D01*
X0211908Y0044779D01*
X0210930Y0047142D01*
X0209121Y0048950D01*
X0206758Y0049929D01*
X0204200Y0049929D01*
X0206933Y0049857D02*
X0381231Y0049857D01*
X0381405Y0049929D02*
X0379042Y0048950D01*
X0377234Y0047142D01*
X0376255Y0044779D01*
X0376255Y0042221D01*
X0377234Y0039858D01*
X0379042Y0038050D01*
X0381405Y0037071D01*
X0383963Y0037071D01*
X0386326Y0038050D01*
X0388134Y0039858D01*
X0389113Y0042221D01*
X0389113Y0044779D01*
X0388134Y0047142D01*
X0386326Y0048950D01*
X0383963Y0049929D01*
X0381405Y0049929D01*
X0384137Y0049857D02*
X0414070Y0049857D01*
X0414070Y0048258D02*
X0387018Y0048258D01*
X0388334Y0046660D02*
X0414070Y0046660D01*
X0414070Y0045061D02*
X0388996Y0045061D01*
X0389113Y0043463D02*
X0414070Y0043463D01*
X0414070Y0041864D02*
X0388965Y0041864D01*
X0388303Y0040266D02*
X0414070Y0040266D01*
X0414070Y0038667D02*
X0386943Y0038667D01*
X0378424Y0038667D02*
X0236630Y0038667D01*
X0236742Y0038749D02*
X0237435Y0039442D01*
X0238012Y0040235D01*
X0238457Y0041109D01*
X0238760Y0042041D01*
X0238884Y0042824D01*
X0233360Y0042824D01*
X0233360Y0044176D01*
X0238884Y0044176D01*
X0238760Y0044959D01*
X0238457Y0045891D01*
X0238012Y0046765D01*
X0237435Y0047558D01*
X0236742Y0048251D01*
X0235949Y0048828D01*
X0235075Y0049273D01*
X0234143Y0049576D01*
X0233360Y0049700D01*
X0233360Y0044176D01*
X0232008Y0044176D01*
X0232007Y0044176D02*
X0232007Y0042824D01*
X0226484Y0042824D01*
X0226608Y0042041D01*
X0226911Y0041109D01*
X0227356Y0040235D01*
X0227933Y0039442D01*
X0228626Y0038749D01*
X0229419Y0038172D01*
X0230293Y0037727D01*
X0231225Y0037424D01*
X0232008Y0037300D01*
X0232008Y0042824D01*
X0233360Y0042824D01*
X0233360Y0037300D01*
X0234143Y0037424D01*
X0235075Y0037727D01*
X0235949Y0038172D01*
X0236742Y0038749D01*
X0238027Y0040266D02*
X0377065Y0040266D01*
X0376403Y0041864D02*
X0238702Y0041864D01*
X0238726Y0045061D02*
X0376372Y0045061D01*
X0376255Y0043463D02*
X0233360Y0043463D01*
X0232007Y0043463D02*
X0211908Y0043463D01*
X0211791Y0045061D02*
X0226642Y0045061D01*
X0226608Y0044959D02*
X0226484Y0044176D01*
X0232007Y0044176D01*
X0232008Y0044176D02*
X0232008Y0049700D01*
X0231225Y0049576D01*
X0230293Y0049273D01*
X0229419Y0048828D01*
X0228626Y0048251D01*
X0227933Y0047558D01*
X0227356Y0046765D01*
X0226911Y0045891D01*
X0226608Y0044959D01*
X0227303Y0046660D02*
X0211129Y0046660D01*
X0209813Y0048258D02*
X0228636Y0048258D01*
X0232008Y0048258D02*
X0233360Y0048258D01*
X0233360Y0046660D02*
X0232008Y0046660D01*
X0232008Y0045061D02*
X0233360Y0045061D01*
X0233360Y0041864D02*
X0232008Y0041864D01*
X0232008Y0040266D02*
X0233360Y0040266D01*
X0233360Y0038667D02*
X0232008Y0038667D01*
X0228738Y0038667D02*
X0209739Y0038667D01*
X0211098Y0040266D02*
X0227341Y0040266D01*
X0226666Y0041864D02*
X0211760Y0041864D01*
X0201220Y0038667D02*
X0059425Y0038667D01*
X0059537Y0038749D02*
X0060230Y0039442D01*
X0060807Y0040235D01*
X0061252Y0041109D01*
X0061555Y0042041D01*
X0061679Y0042824D01*
X0056156Y0042824D01*
X0056156Y0044176D01*
X0061679Y0044176D01*
X0061555Y0044959D01*
X0061252Y0045891D01*
X0060807Y0046765D01*
X0060230Y0047558D01*
X0059537Y0048251D01*
X0058744Y0048828D01*
X0057870Y0049273D01*
X0056938Y0049576D01*
X0056156Y0049700D01*
X0056156Y0044176D01*
X0054803Y0044176D01*
X0054803Y0042824D01*
X0049280Y0042824D01*
X0049403Y0042041D01*
X0049706Y0041109D01*
X0050152Y0040235D01*
X0050728Y0039442D01*
X0051421Y0038749D01*
X0052214Y0038172D01*
X0053088Y0037727D01*
X0054021Y0037424D01*
X0054803Y0037300D01*
X0054803Y0042824D01*
X0056156Y0042824D01*
X0056156Y0037300D01*
X0056938Y0037424D01*
X0057870Y0037727D01*
X0058744Y0038172D01*
X0059537Y0038749D01*
X0060822Y0040266D02*
X0199860Y0040266D01*
X0199198Y0041864D02*
X0061497Y0041864D01*
X0061522Y0045061D02*
X0199167Y0045061D01*
X0199050Y0043463D02*
X0056156Y0043463D01*
X0054803Y0043463D02*
X0024369Y0043463D01*
X0024369Y0045061D02*
X0049437Y0045061D01*
X0049403Y0044959D02*
X0049280Y0044176D01*
X0054803Y0044176D01*
X0054803Y0049700D01*
X0054021Y0049576D01*
X0053088Y0049273D01*
X0052214Y0048828D01*
X0051421Y0048251D01*
X0050728Y0047558D01*
X0050152Y0046765D01*
X0049706Y0045891D01*
X0049403Y0044959D01*
X0050098Y0046660D02*
X0024369Y0046660D01*
X0024369Y0048258D02*
X0051431Y0048258D01*
X0054803Y0048258D02*
X0056156Y0048258D01*
X0056156Y0046660D02*
X0054803Y0046660D01*
X0054803Y0045061D02*
X0056156Y0045061D01*
X0056156Y0041864D02*
X0054803Y0041864D01*
X0054803Y0040266D02*
X0056156Y0040266D01*
X0056156Y0038667D02*
X0054803Y0038667D01*
X0051533Y0038667D02*
X0024369Y0038667D01*
X0024369Y0037069D02*
X0414070Y0037069D01*
X0414070Y0035470D02*
X0024369Y0035470D01*
X0024369Y0033872D02*
X0414070Y0033872D01*
X0414070Y0032273D02*
X0024369Y0032273D01*
X0024369Y0030675D02*
X0414070Y0030675D01*
X0414070Y0029076D02*
X0024369Y0029076D01*
X0024369Y0027478D02*
X0414070Y0027478D01*
X0414070Y0025879D02*
X0024369Y0025879D01*
X0024369Y0024281D02*
X0030091Y0024281D01*
X0030526Y0024716D02*
X0028712Y0022902D01*
X0027730Y0020531D01*
X0027730Y0017965D01*
X0028712Y0015594D01*
X0030526Y0013780D01*
X0032897Y0012798D01*
X0035463Y0012798D01*
X0037834Y0013780D01*
X0039648Y0015594D01*
X0040630Y0017965D01*
X0040630Y0020531D01*
X0039648Y0022902D01*
X0037834Y0024716D01*
X0035463Y0025698D01*
X0032897Y0025698D01*
X0030526Y0024716D01*
X0028621Y0022682D02*
X0024369Y0022682D01*
X0024369Y0021084D02*
X0027959Y0021084D01*
X0027730Y0019485D02*
X0024369Y0019485D01*
X0024369Y0017887D02*
X0027762Y0017887D01*
X0028425Y0016288D02*
X0024369Y0016288D01*
X0024369Y0014690D02*
X0029617Y0014690D01*
X0032190Y0013091D02*
X0024369Y0013091D01*
X0024369Y0011493D02*
X0414070Y0011493D01*
X0414070Y0013091D02*
X0406249Y0013091D01*
X0405542Y0012798D02*
X0407912Y0013780D01*
X0409727Y0015594D01*
X0410709Y0017965D01*
X0410709Y0020531D01*
X0409727Y0022902D01*
X0407912Y0024716D01*
X0405542Y0025698D01*
X0402976Y0025698D01*
X0400605Y0024716D01*
X0398791Y0022902D01*
X0397809Y0020531D01*
X0397809Y0017965D01*
X0398791Y0015594D01*
X0400605Y0013780D01*
X0402976Y0012798D01*
X0405542Y0012798D01*
X0402268Y0013091D02*
X0036170Y0013091D01*
X0038743Y0014690D02*
X0399695Y0014690D01*
X0398503Y0016288D02*
X0039935Y0016288D01*
X0040597Y0017887D02*
X0397841Y0017887D01*
X0397809Y0019485D02*
X0040630Y0019485D01*
X0040401Y0021084D02*
X0398038Y0021084D01*
X0398700Y0022682D02*
X0039739Y0022682D01*
X0038269Y0024281D02*
X0400170Y0024281D01*
X0408348Y0024281D02*
X0414070Y0024281D01*
X0414070Y0022682D02*
X0409818Y0022682D01*
X0410480Y0021084D02*
X0414070Y0021084D01*
X0414070Y0019485D02*
X0410709Y0019485D01*
X0410676Y0017887D02*
X0414070Y0017887D01*
X0414070Y0016288D02*
X0410014Y0016288D01*
X0408822Y0014690D02*
X0414070Y0014690D01*
X0414070Y0009894D02*
X0024369Y0009894D01*
X0024369Y0008296D02*
X0414070Y0008296D01*
X0414070Y0006697D02*
X0024369Y0006697D01*
X0024369Y0040266D02*
X0050136Y0040266D01*
X0049461Y0041864D02*
X0024369Y0041864D01*
X0059528Y0048258D02*
X0201145Y0048258D01*
X0199829Y0046660D02*
X0060860Y0046660D01*
X0096663Y0129782D02*
X0118075Y0129782D01*
X0176377Y0132979D02*
X0208469Y0132979D01*
X0218235Y0129484D02*
X0218235Y0117673D01*
X0218235Y0129484D02*
X0218629Y0129484D01*
X0252369Y0118500D02*
X0252369Y0193500D01*
X0258096Y0190526D02*
X0259569Y0190526D01*
X0259569Y0192124D02*
X0258758Y0192124D01*
X0259569Y0188927D02*
X0256888Y0188927D01*
X0255169Y0187329D02*
X0259569Y0187329D01*
X0258767Y0185730D02*
X0255169Y0185730D01*
X0255169Y0184132D02*
X0258188Y0184132D01*
X0258244Y0182533D02*
X0255169Y0182533D01*
X0255169Y0180935D02*
X0259021Y0180935D01*
X0262369Y0183500D02*
X0262369Y0193500D01*
X0212369Y0243500D01*
X0242369Y0223500D02*
X0367369Y0223500D01*
X0367369Y0248500D01*
X0370513Y0251269D02*
X0414070Y0251269D01*
X0414070Y0249671D02*
X0371410Y0249671D01*
X0371550Y0248072D02*
X0414070Y0248072D01*
X0414070Y0246474D02*
X0371055Y0246474D01*
X0370169Y0244875D02*
X0414070Y0244875D01*
X0414070Y0243277D02*
X0370169Y0243277D01*
X0370169Y0241678D02*
X0414070Y0241678D01*
X0414070Y0240080D02*
X0370169Y0240080D01*
X0370169Y0238481D02*
X0414070Y0238481D01*
X0414070Y0236883D02*
X0370169Y0236883D01*
X0370169Y0235284D02*
X0414070Y0235284D01*
X0414070Y0233686D02*
X0370169Y0233686D01*
X0370169Y0232087D02*
X0414070Y0232087D01*
X0414070Y0230489D02*
X0370169Y0230489D01*
X0370169Y0228890D02*
X0414070Y0228890D01*
X0414070Y0227292D02*
X0370169Y0227292D01*
X0370169Y0225693D02*
X0414070Y0225693D01*
X0414070Y0224095D02*
X0370169Y0224095D01*
X0369984Y0222496D02*
X0414070Y0222496D01*
X0414070Y0220898D02*
X0368403Y0220898D01*
X0364569Y0240080D02*
X0337144Y0240080D01*
X0337144Y0239897D02*
X0335972Y0238725D01*
X0328766Y0238725D01*
X0327594Y0239897D01*
X0327594Y0247103D01*
X0328766Y0248275D01*
X0335972Y0248275D01*
X0337144Y0247103D01*
X0337144Y0239897D01*
X0337144Y0241678D02*
X0364569Y0241678D01*
X0364569Y0243277D02*
X0337144Y0243277D01*
X0337144Y0244875D02*
X0364569Y0244875D01*
X0363683Y0246474D02*
X0337144Y0246474D01*
X0336175Y0248072D02*
X0363188Y0248072D01*
X0328563Y0248072D02*
X0325390Y0248072D01*
X0325381Y0248075D02*
X0322369Y0248075D01*
X0322369Y0243500D01*
X0326944Y0243500D01*
X0326944Y0246512D01*
X0326821Y0246970D01*
X0326584Y0247380D01*
X0326249Y0247715D01*
X0325839Y0247952D01*
X0325381Y0248075D01*
X0326944Y0246474D02*
X0327594Y0246474D01*
X0327594Y0244875D02*
X0326944Y0244875D01*
X0326944Y0243500D02*
X0322369Y0243500D01*
X0322369Y0243500D01*
X0322369Y0243500D01*
X0322369Y0238925D01*
X0325381Y0238925D01*
X0325839Y0239048D01*
X0326249Y0239285D01*
X0326584Y0239620D01*
X0326821Y0240030D01*
X0326944Y0240488D01*
X0326944Y0243500D01*
X0326944Y0243277D02*
X0327594Y0243277D01*
X0327594Y0241678D02*
X0326944Y0241678D01*
X0326834Y0240080D02*
X0327594Y0240080D01*
X0322369Y0240080D02*
X0322369Y0240080D01*
X0322369Y0238925D02*
X0322369Y0243500D01*
X0322369Y0243500D01*
X0322369Y0248075D01*
X0319357Y0248075D01*
X0318899Y0247952D01*
X0318489Y0247715D01*
X0318154Y0247380D01*
X0317917Y0246970D01*
X0317794Y0246512D01*
X0317794Y0243500D01*
X0322369Y0243500D01*
X0322369Y0243500D01*
X0317794Y0243500D01*
X0317794Y0240488D01*
X0317917Y0240030D01*
X0318154Y0239620D01*
X0318489Y0239285D01*
X0318899Y0239048D01*
X0319357Y0238925D01*
X0322369Y0238925D01*
X0322369Y0241678D02*
X0322369Y0241678D01*
X0322369Y0243277D02*
X0322369Y0243277D01*
X0322369Y0244875D02*
X0322369Y0244875D01*
X0322369Y0246474D02*
X0322369Y0246474D01*
X0322369Y0248072D02*
X0322369Y0248072D01*
X0319348Y0248072D02*
X0316175Y0248072D01*
X0315972Y0248275D02*
X0308766Y0248275D01*
X0307594Y0247103D01*
X0307594Y0239897D01*
X0308766Y0238725D01*
X0315972Y0238725D01*
X0317144Y0239897D01*
X0317144Y0247103D01*
X0315972Y0248275D01*
X0317144Y0246474D02*
X0317794Y0246474D01*
X0317794Y0244875D02*
X0317144Y0244875D01*
X0317144Y0243277D02*
X0317794Y0243277D01*
X0317794Y0241678D02*
X0317144Y0241678D01*
X0317144Y0240080D02*
X0317904Y0240080D01*
X0307594Y0240080D02*
X0307144Y0240080D01*
X0307144Y0241678D02*
X0307594Y0241678D01*
X0307594Y0243277D02*
X0307144Y0243277D01*
X0307144Y0244875D02*
X0307594Y0244875D01*
X0307594Y0246474D02*
X0307144Y0246474D01*
X0306175Y0248072D02*
X0308563Y0248072D01*
X0280561Y0260860D02*
X0414070Y0260860D01*
X0414070Y0259262D02*
X0273025Y0259262D01*
X0218203Y0307217D02*
X0361535Y0307217D01*
X0361592Y0307005D02*
X0361829Y0306595D01*
X0362164Y0306260D01*
X0362574Y0306023D01*
X0363032Y0305900D01*
X0364869Y0305900D01*
X0364869Y0311000D01*
X0364869Y0311000D01*
X0364869Y0316100D01*
X0363032Y0316100D01*
X0362574Y0315977D01*
X0362164Y0315740D01*
X0361829Y0315405D01*
X0361592Y0314995D01*
X0361469Y0314537D01*
X0361469Y0311000D01*
X0364869Y0311000D01*
X0364869Y0311000D01*
X0361469Y0311000D01*
X0361469Y0307463D01*
X0361592Y0307005D01*
X0361469Y0308816D02*
X0218269Y0308816D01*
X0218269Y0310414D02*
X0361469Y0310414D01*
X0361469Y0312013D02*
X0218269Y0312013D01*
X0218269Y0313611D02*
X0361469Y0313611D01*
X0361716Y0315210D02*
X0218022Y0315210D01*
X0214869Y0315210D02*
X0214869Y0315210D01*
X0214869Y0313611D02*
X0214869Y0313611D01*
X0214869Y0312013D02*
X0214869Y0312013D01*
X0214869Y0310414D02*
X0214869Y0310414D01*
X0214869Y0308816D02*
X0214869Y0308816D01*
X0214869Y0307217D02*
X0214869Y0307217D01*
X0187015Y0310414D02*
X0177723Y0310414D01*
X0179321Y0308816D02*
X0185417Y0308816D01*
X0184519Y0307217D02*
X0180219Y0307217D01*
X0180881Y0305619D02*
X0183857Y0305619D01*
X0183694Y0304020D02*
X0181044Y0304020D01*
X0181044Y0302422D02*
X0183694Y0302422D01*
X0184088Y0300823D02*
X0180650Y0300823D01*
X0179988Y0299225D02*
X0184750Y0299225D01*
X0185975Y0297626D02*
X0178763Y0297626D01*
X0176997Y0296028D02*
X0187741Y0296028D01*
X0167741Y0296028D02*
X0156997Y0296028D01*
X0261310Y0198518D02*
X0398295Y0198518D01*
X0396827Y0196920D02*
X0262909Y0196920D01*
X0264507Y0195321D02*
X0396165Y0195321D01*
X0395940Y0193723D02*
X0265169Y0193723D01*
X0265169Y0192124D02*
X0395980Y0192124D01*
X0396642Y0190526D02*
X0265169Y0190526D01*
X0265169Y0188927D02*
X0397849Y0188927D01*
X0400467Y0187329D02*
X0265169Y0187329D01*
X0403957Y0112199D02*
X0414070Y0112199D01*
X0414070Y0113797D02*
X0406758Y0113797D01*
X0408042Y0115396D02*
X0414070Y0115396D01*
X0414070Y0116994D02*
X0408704Y0116994D01*
X0408798Y0118593D02*
X0414070Y0118593D01*
X0414070Y0120191D02*
X0408627Y0120191D01*
X0407965Y0121790D02*
X0414070Y0121790D01*
X0414070Y0123388D02*
X0406573Y0123388D01*
X0378350Y0048258D02*
X0236732Y0048258D01*
X0238065Y0046660D02*
X0377034Y0046660D01*
X0410353Y0272050D02*
X0414070Y0272050D01*
X0414070Y0273648D02*
X0412566Y0273648D01*
X0413693Y0275247D02*
X0414070Y0275247D01*
X0400817Y0296028D02*
X0393921Y0296028D01*
X0394321Y0297626D02*
X0400417Y0297626D01*
X0400723Y0300823D02*
X0394015Y0300823D01*
X0393229Y0302422D02*
X0401509Y0302422D01*
X0402970Y0304020D02*
X0391768Y0304020D01*
X0364869Y0307217D02*
X0364869Y0307217D01*
X0364869Y0308816D02*
X0364869Y0308816D01*
X0364869Y0310414D02*
X0364869Y0310414D01*
X0364869Y0312013D02*
X0364869Y0312013D01*
X0364869Y0313611D02*
X0364869Y0313611D01*
X0364869Y0315210D02*
X0364869Y0315210D01*
D26*
X0367369Y0248500D03*
X0262369Y0183500D03*
X0234967Y0153106D03*
X0177369Y0196000D03*
X0162369Y0181000D03*
X0152369Y0188500D03*
X0142369Y0206000D03*
X0137369Y0216000D03*
X0137369Y0223500D03*
X0127369Y0218500D03*
X0119869Y0223500D03*
X0097369Y0223500D03*
X0077369Y0223500D03*
X0072395Y0194465D03*
X0069869Y0181000D03*
X0093235Y0180665D03*
X0101701Y0180665D03*
X0144416Y0160980D03*
X0119869Y0126000D03*
X0094869Y0126000D03*
X0179869Y0226000D03*
X0207369Y0228500D03*
X0242369Y0223500D03*
X0252369Y0236000D03*
X0252369Y0251000D03*
X0162369Y0248500D03*
X0037369Y0293500D03*
M02*
