G75*
%MOIN*%
%OFA0B0*%
%FSLAX25Y25*%
%IPPOS*%
%LPD*%
%AMOC8*
5,1,8,0,0,1.08239X$1,22.5*
%
%ADD10R,0.02165X0.06102*%
%ADD11R,0.06102X0.02165*%
%ADD12R,0.05118X0.02362*%
%ADD13R,0.03937X0.07874*%
%ADD14R,0.07874X0.03937*%
%ADD15C,0.08858*%
%ADD16R,0.06400X0.06400*%
%ADD17OC8,0.06400*%
%ADD18R,0.03150X0.04724*%
%ADD19R,0.04724X0.03150*%
%ADD20R,0.01969X0.01969*%
%ADD21R,0.05550X0.05550*%
%ADD22C,0.07500*%
%ADD23C,0.10500*%
%ADD24R,0.03898X0.02717*%
%ADD25C,0.06000*%
%ADD26C,0.06400*%
%ADD27R,0.08661X0.04724*%
%ADD28R,0.08661X0.13780*%
%ADD29R,0.03937X0.04331*%
%ADD30R,0.07400X0.07400*%
%ADD31C,0.07400*%
%ADD32C,0.13350*%
%ADD33C,0.01600*%
%ADD34C,0.04362*%
D10*
X0091621Y0170862D03*
X0094771Y0170862D03*
X0097920Y0170862D03*
X0101070Y0170862D03*
X0104219Y0170862D03*
X0107369Y0170862D03*
X0110519Y0170862D03*
X0113668Y0170862D03*
X0116818Y0170862D03*
X0119967Y0170862D03*
X0123117Y0170862D03*
X0123117Y0216138D03*
X0119967Y0216138D03*
X0116818Y0216138D03*
X0113668Y0216138D03*
X0110519Y0216138D03*
X0107369Y0216138D03*
X0104219Y0216138D03*
X0101070Y0216138D03*
X0097920Y0216138D03*
X0094771Y0216138D03*
X0091621Y0216138D03*
D11*
X0084731Y0209248D03*
X0084731Y0206098D03*
X0084731Y0202949D03*
X0084731Y0199799D03*
X0084731Y0196650D03*
X0084731Y0193500D03*
X0084731Y0190350D03*
X0084731Y0187201D03*
X0084731Y0184051D03*
X0084731Y0180902D03*
X0084731Y0177752D03*
X0130007Y0177752D03*
X0130007Y0180902D03*
X0130007Y0184051D03*
X0130007Y0187201D03*
X0130007Y0190350D03*
X0130007Y0193500D03*
X0130007Y0196650D03*
X0130007Y0199799D03*
X0130007Y0202949D03*
X0130007Y0206098D03*
X0130007Y0209248D03*
D12*
X0062093Y0195882D03*
X0062093Y0190961D03*
X0062093Y0186039D03*
X0062093Y0181118D03*
X0052645Y0181118D03*
X0052645Y0186039D03*
X0052645Y0190961D03*
X0052645Y0195882D03*
D13*
X0074574Y0097201D03*
X0080873Y0097201D03*
X0087172Y0097201D03*
X0093471Y0097201D03*
X0099771Y0097201D03*
X0106070Y0097201D03*
X0112369Y0097201D03*
X0118668Y0097201D03*
X0124967Y0097201D03*
X0131267Y0097201D03*
X0137566Y0097201D03*
X0143865Y0097201D03*
X0150164Y0097201D03*
X0156463Y0097201D03*
X0156463Y0059799D03*
X0150164Y0059799D03*
X0143865Y0059799D03*
X0137566Y0059799D03*
X0131267Y0059799D03*
X0124967Y0059799D03*
X0118668Y0059799D03*
X0112369Y0059799D03*
X0106070Y0059799D03*
X0099771Y0059799D03*
X0093471Y0059799D03*
X0087172Y0059799D03*
X0080873Y0059799D03*
X0074574Y0059799D03*
D14*
X0064731Y0061768D03*
X0064731Y0068067D03*
X0064731Y0082634D03*
X0064731Y0088933D03*
X0064731Y0095232D03*
X0158432Y0084799D03*
X0158432Y0078500D03*
X0158432Y0072201D03*
D15*
X0205479Y0043500D03*
X0232684Y0043500D03*
X0252369Y0118500D03*
X0187369Y0118500D03*
X0187369Y0193500D03*
X0252369Y0193500D03*
X0402369Y0193500D03*
X0402369Y0118500D03*
X0382684Y0043500D03*
X0055479Y0043500D03*
X0037369Y0118500D03*
X0037369Y0193500D03*
D16*
X0052369Y0238500D03*
D17*
X0042369Y0238500D03*
X0042369Y0248500D03*
X0052369Y0248500D03*
X0052369Y0258500D03*
X0042369Y0258500D03*
D18*
X0044475Y0179563D03*
X0037389Y0179563D03*
X0073826Y0108500D03*
X0080912Y0108500D03*
X0111326Y0106000D03*
X0118412Y0106000D03*
X0131326Y0106000D03*
X0138412Y0106000D03*
X0125912Y0048500D03*
X0118826Y0048500D03*
D19*
X0052369Y0084957D03*
X0052369Y0092043D03*
D20*
X0119869Y0114000D03*
X0119869Y0118000D03*
X0132369Y0118000D03*
X0132369Y0114000D03*
D21*
X0222369Y0243500D03*
X0232369Y0243500D03*
X0242369Y0243500D03*
X0302369Y0243500D03*
X0312369Y0243500D03*
X0322369Y0243500D03*
X0332369Y0243500D03*
D22*
X0397369Y0288500D03*
D23*
X0407408Y0278461D03*
X0387330Y0278461D03*
X0387330Y0298539D03*
X0407408Y0298539D03*
D24*
X0352448Y0252240D03*
X0352448Y0248500D03*
X0352448Y0244760D03*
X0342251Y0244760D03*
X0342251Y0252240D03*
X0292487Y0242240D03*
X0282290Y0242240D03*
X0282290Y0238500D03*
X0282290Y0234760D03*
X0292487Y0234760D03*
D25*
X0062369Y0275500D02*
X0062369Y0281500D01*
X0052369Y0281500D02*
X0052369Y0275500D01*
X0042369Y0275500D02*
X0042369Y0281500D01*
X0032369Y0281500D02*
X0032369Y0275500D01*
D26*
X0109495Y0258185D03*
X0117369Y0258185D03*
X0125243Y0258185D03*
X0144495Y0258185D03*
X0152369Y0258185D03*
X0160243Y0258185D03*
X0179495Y0258185D03*
X0187369Y0258185D03*
X0195243Y0258185D03*
D27*
X0286700Y0202555D03*
X0286700Y0193500D03*
X0286700Y0184445D03*
X0286700Y0167555D03*
X0286700Y0158500D03*
X0286700Y0149445D03*
D28*
X0311109Y0158500D03*
X0311109Y0193500D03*
D29*
X0272369Y0195154D03*
X0272369Y0201846D03*
X0272369Y0186846D03*
X0272369Y0180154D03*
X0272369Y0171846D03*
X0272369Y0165154D03*
X0272369Y0156846D03*
X0272369Y0150154D03*
D30*
X0082369Y0278500D03*
D31*
X0092369Y0278500D03*
X0102369Y0278500D03*
X0112369Y0278500D03*
X0122369Y0278500D03*
X0132369Y0278500D03*
D32*
X0152369Y0303500D03*
X0172369Y0303500D03*
X0192369Y0303500D03*
D33*
X0024369Y0316461D02*
X0024369Y0005500D01*
X0414070Y0005500D01*
X0414070Y0276122D01*
X0413744Y0275336D01*
X0413282Y0274536D01*
X0412720Y0273803D01*
X0412066Y0273149D01*
X0411333Y0272587D01*
X0410533Y0272125D01*
X0409679Y0271771D01*
X0408786Y0271532D01*
X0408208Y0271455D01*
X0408208Y0277661D01*
X0406608Y0277661D01*
X0406608Y0271455D01*
X0406030Y0271532D01*
X0405137Y0271771D01*
X0404283Y0272125D01*
X0403483Y0272587D01*
X0402750Y0273149D01*
X0402096Y0273803D01*
X0401533Y0274536D01*
X0401071Y0275336D01*
X0400718Y0276190D01*
X0400479Y0277083D01*
X0400402Y0277661D01*
X0406608Y0277661D01*
X0406608Y0279261D01*
X0406608Y0285467D01*
X0406030Y0285390D01*
X0405137Y0285151D01*
X0404283Y0284798D01*
X0403483Y0284335D01*
X0402750Y0283773D01*
X0402096Y0283119D01*
X0401533Y0282386D01*
X0401071Y0281586D01*
X0400718Y0280732D01*
X0400479Y0279839D01*
X0400402Y0279261D01*
X0406608Y0279261D01*
X0408208Y0279261D01*
X0408208Y0285467D01*
X0408786Y0285390D01*
X0409679Y0285151D01*
X0410533Y0284798D01*
X0411333Y0284335D01*
X0412066Y0283773D01*
X0412720Y0283119D01*
X0413282Y0282386D01*
X0413744Y0281586D01*
X0414070Y0280800D01*
X0414070Y0296200D01*
X0413744Y0295414D01*
X0413282Y0294614D01*
X0412720Y0293881D01*
X0412066Y0293227D01*
X0411333Y0292665D01*
X0410533Y0292202D01*
X0409679Y0291849D01*
X0408786Y0291610D01*
X0408208Y0291533D01*
X0408208Y0297739D01*
X0406608Y0297739D01*
X0406608Y0291533D01*
X0406030Y0291610D01*
X0405137Y0291849D01*
X0404283Y0292202D01*
X0403483Y0292665D01*
X0402750Y0293227D01*
X0402096Y0293881D01*
X0401533Y0294614D01*
X0401071Y0295414D01*
X0400718Y0296268D01*
X0400479Y0297161D01*
X0400402Y0297739D01*
X0406608Y0297739D01*
X0406608Y0299339D01*
X0406608Y0305544D01*
X0406030Y0305468D01*
X0405137Y0305229D01*
X0404283Y0304875D01*
X0403483Y0304413D01*
X0402750Y0303851D01*
X0402096Y0303197D01*
X0401533Y0302464D01*
X0401071Y0301664D01*
X0400718Y0300810D01*
X0400479Y0299917D01*
X0400402Y0299339D01*
X0406608Y0299339D01*
X0408208Y0299339D01*
X0408208Y0305544D01*
X0408786Y0305468D01*
X0409679Y0305229D01*
X0410533Y0304875D01*
X0411333Y0304413D01*
X0412066Y0303851D01*
X0412720Y0303197D01*
X0413282Y0302464D01*
X0413744Y0301664D01*
X0414070Y0300878D01*
X0414070Y0316461D01*
X0024369Y0316461D01*
X0024369Y0315210D02*
X0414070Y0315210D01*
X0414070Y0313611D02*
X0038309Y0313611D01*
X0037834Y0314086D02*
X0035463Y0315068D01*
X0032897Y0315068D01*
X0030526Y0314086D01*
X0028712Y0312272D01*
X0027730Y0309901D01*
X0027730Y0307335D01*
X0028712Y0304964D01*
X0030526Y0303150D01*
X0032897Y0302168D01*
X0035463Y0302168D01*
X0037834Y0303150D01*
X0039648Y0304964D01*
X0040630Y0307335D01*
X0040630Y0309901D01*
X0039648Y0312272D01*
X0037834Y0314086D01*
X0039755Y0312013D02*
X0150252Y0312013D01*
X0150643Y0312175D02*
X0147455Y0310854D01*
X0145015Y0308414D01*
X0143694Y0305226D01*
X0143694Y0301774D01*
X0145015Y0298586D01*
X0147455Y0296146D01*
X0149569Y0295270D01*
X0149569Y0262654D01*
X0149423Y0262593D01*
X0148432Y0261602D01*
X0147441Y0262593D01*
X0145529Y0263385D01*
X0143461Y0263385D01*
X0141549Y0262593D01*
X0140087Y0261131D01*
X0139295Y0259219D01*
X0139295Y0257151D01*
X0140087Y0255239D01*
X0141549Y0253777D01*
X0143461Y0252985D01*
X0145529Y0252985D01*
X0147441Y0253777D01*
X0148432Y0254768D01*
X0149423Y0253777D01*
X0151335Y0252985D01*
X0153403Y0252985D01*
X0155315Y0253777D01*
X0156447Y0254910D01*
X0156986Y0254371D01*
X0157622Y0253909D01*
X0158324Y0253551D01*
X0159072Y0253308D01*
X0159849Y0253185D01*
X0160243Y0253185D01*
X0160636Y0253185D01*
X0161414Y0253308D01*
X0162162Y0253551D01*
X0162864Y0253909D01*
X0163500Y0254371D01*
X0164057Y0254928D01*
X0164519Y0255564D01*
X0164877Y0256266D01*
X0165120Y0257014D01*
X0165243Y0257792D01*
X0165243Y0258185D01*
X0160243Y0258185D01*
X0160243Y0258185D01*
X0160243Y0253185D01*
X0160243Y0258185D01*
X0160243Y0258185D01*
X0165243Y0258185D01*
X0165243Y0258579D01*
X0165120Y0259356D01*
X0164877Y0260104D01*
X0164519Y0260806D01*
X0164057Y0261442D01*
X0163500Y0261999D01*
X0162864Y0262461D01*
X0162162Y0262819D01*
X0161414Y0263062D01*
X0160636Y0263185D01*
X0160243Y0263185D01*
X0160243Y0258185D01*
X0160243Y0258185D01*
X0160243Y0263185D01*
X0159849Y0263185D01*
X0159072Y0263062D01*
X0158324Y0262819D01*
X0157622Y0262461D01*
X0156986Y0261999D01*
X0156447Y0261461D01*
X0155315Y0262593D01*
X0155169Y0262654D01*
X0155169Y0295270D01*
X0157283Y0296146D01*
X0159723Y0298586D01*
X0161044Y0301774D01*
X0161044Y0305226D01*
X0159723Y0308414D01*
X0157283Y0310854D01*
X0154094Y0312175D01*
X0150643Y0312175D01*
X0154486Y0312013D02*
X0170252Y0312013D01*
X0170643Y0312175D02*
X0167455Y0310854D01*
X0165015Y0308414D01*
X0163694Y0305226D01*
X0163694Y0301774D01*
X0165015Y0298586D01*
X0167455Y0296146D01*
X0170643Y0294825D01*
X0174094Y0294825D01*
X0177283Y0296146D01*
X0179723Y0298586D01*
X0181044Y0301774D01*
X0181044Y0305226D01*
X0179723Y0308414D01*
X0177283Y0310854D01*
X0174094Y0312175D01*
X0170643Y0312175D01*
X0174486Y0312013D02*
X0190252Y0312013D01*
X0190643Y0312175D02*
X0187455Y0310854D01*
X0185015Y0308414D01*
X0183694Y0305226D01*
X0183694Y0301774D01*
X0185015Y0298586D01*
X0187455Y0296146D01*
X0190643Y0294825D01*
X0194094Y0294825D01*
X0196208Y0295701D01*
X0240883Y0251026D01*
X0241912Y0250600D01*
X0242203Y0250600D01*
X0244177Y0248626D01*
X0245206Y0248200D01*
X0249256Y0248200D01*
X0250001Y0247455D01*
X0251537Y0246819D01*
X0253201Y0246819D01*
X0254737Y0247455D01*
X0255914Y0248632D01*
X0256550Y0250168D01*
X0256550Y0251832D01*
X0255914Y0253368D01*
X0254737Y0254545D01*
X0253201Y0255181D01*
X0251537Y0255181D01*
X0250001Y0254545D01*
X0249256Y0253800D01*
X0246923Y0253800D01*
X0244949Y0255774D01*
X0243920Y0256200D01*
X0243629Y0256200D01*
X0204129Y0295700D01*
X0321209Y0295700D01*
X0360783Y0256126D01*
X0361812Y0255700D01*
X0396209Y0255700D01*
X0399569Y0252340D01*
X0399569Y0199299D01*
X0398727Y0198950D01*
X0396919Y0197142D01*
X0395940Y0194779D01*
X0395940Y0192221D01*
X0396919Y0189858D01*
X0398727Y0188050D01*
X0401090Y0187071D01*
X0403648Y0187071D01*
X0406011Y0188050D01*
X0407819Y0189858D01*
X0408798Y0192221D01*
X0408798Y0194779D01*
X0407819Y0197142D01*
X0406011Y0198950D01*
X0405169Y0199299D01*
X0405169Y0254057D01*
X0404743Y0255086D01*
X0399743Y0260086D01*
X0398955Y0260874D01*
X0397926Y0261300D01*
X0363529Y0261300D01*
X0324743Y0300086D01*
X0323955Y0300874D01*
X0322926Y0301300D01*
X0200847Y0301300D01*
X0201044Y0301774D01*
X0201044Y0305226D01*
X0199723Y0308414D01*
X0197283Y0310854D01*
X0194094Y0312175D01*
X0190643Y0312175D01*
X0194486Y0312013D02*
X0414070Y0312013D01*
X0414070Y0310414D02*
X0197723Y0310414D01*
X0199321Y0308816D02*
X0414070Y0308816D01*
X0414070Y0307217D02*
X0200219Y0307217D01*
X0200881Y0305619D02*
X0414070Y0305619D01*
X0414070Y0304020D02*
X0411846Y0304020D01*
X0413307Y0302422D02*
X0414070Y0302422D01*
X0408208Y0302422D02*
X0406608Y0302422D01*
X0406608Y0304020D02*
X0408208Y0304020D01*
X0408208Y0300823D02*
X0406608Y0300823D01*
X0406608Y0299225D02*
X0388130Y0299225D01*
X0388130Y0299339D02*
X0394335Y0299339D01*
X0394259Y0299917D01*
X0394020Y0300810D01*
X0393666Y0301664D01*
X0393204Y0302464D01*
X0392642Y0303197D01*
X0391988Y0303851D01*
X0391255Y0304413D01*
X0390455Y0304875D01*
X0389601Y0305229D01*
X0388708Y0305468D01*
X0388130Y0305544D01*
X0388130Y0299339D01*
X0386530Y0299339D01*
X0386530Y0305544D01*
X0385952Y0305468D01*
X0385059Y0305229D01*
X0384205Y0304875D01*
X0383405Y0304413D01*
X0382672Y0303851D01*
X0382018Y0303197D01*
X0381456Y0302464D01*
X0380993Y0301664D01*
X0380640Y0300810D01*
X0380401Y0299917D01*
X0380324Y0299339D01*
X0386530Y0299339D01*
X0386530Y0297739D01*
X0380324Y0297739D01*
X0380401Y0297161D01*
X0380640Y0296268D01*
X0380993Y0295414D01*
X0381456Y0294614D01*
X0382018Y0293881D01*
X0382672Y0293227D01*
X0383405Y0292665D01*
X0384205Y0292202D01*
X0385059Y0291849D01*
X0385952Y0291610D01*
X0386530Y0291533D01*
X0386530Y0297739D01*
X0388130Y0297739D01*
X0388130Y0299339D01*
X0388130Y0300823D02*
X0386530Y0300823D01*
X0386530Y0299225D02*
X0325604Y0299225D01*
X0324006Y0300823D02*
X0380645Y0300823D01*
X0381431Y0302422D02*
X0201044Y0302422D01*
X0201044Y0304020D02*
X0382892Y0304020D01*
X0386530Y0304020D02*
X0388130Y0304020D01*
X0388130Y0302422D02*
X0386530Y0302422D01*
X0386530Y0297626D02*
X0388130Y0297626D01*
X0388130Y0297739D02*
X0388130Y0291533D01*
X0388708Y0291610D01*
X0389601Y0291849D01*
X0390455Y0292202D01*
X0391255Y0292665D01*
X0391988Y0293227D01*
X0392642Y0293881D01*
X0393204Y0294614D01*
X0393666Y0295414D01*
X0394020Y0296268D01*
X0394259Y0297161D01*
X0394335Y0297739D01*
X0388130Y0297739D01*
X0388130Y0296028D02*
X0386530Y0296028D01*
X0386530Y0294429D02*
X0388130Y0294429D01*
X0388130Y0292831D02*
X0386530Y0292831D01*
X0383188Y0292831D02*
X0331998Y0292831D01*
X0330400Y0294429D02*
X0381597Y0294429D01*
X0380739Y0296028D02*
X0328801Y0296028D01*
X0327203Y0297626D02*
X0380339Y0297626D01*
X0391472Y0292831D02*
X0393568Y0292831D01*
X0394112Y0293375D02*
X0392494Y0291757D01*
X0391619Y0289644D01*
X0391619Y0287356D01*
X0392494Y0285243D01*
X0394112Y0283625D01*
X0396225Y0282750D01*
X0398513Y0282750D01*
X0400626Y0283625D01*
X0402244Y0285243D01*
X0403119Y0287356D01*
X0403119Y0289644D01*
X0402244Y0291757D01*
X0400626Y0293375D01*
X0398513Y0294250D01*
X0396225Y0294250D01*
X0394112Y0293375D01*
X0393063Y0294429D02*
X0401675Y0294429D01*
X0401170Y0292831D02*
X0403266Y0292831D01*
X0402461Y0291232D02*
X0414070Y0291232D01*
X0414070Y0289634D02*
X0403119Y0289634D01*
X0403119Y0288035D02*
X0414070Y0288035D01*
X0414070Y0286437D02*
X0402738Y0286437D01*
X0401839Y0284838D02*
X0404381Y0284838D01*
X0406608Y0284838D02*
X0408208Y0284838D01*
X0408208Y0283239D02*
X0406608Y0283239D01*
X0406608Y0281641D02*
X0408208Y0281641D01*
X0408208Y0280042D02*
X0406608Y0280042D01*
X0406608Y0278444D02*
X0388130Y0278444D01*
X0388130Y0277661D02*
X0388130Y0279261D01*
X0394335Y0279261D01*
X0394259Y0279839D01*
X0394020Y0280732D01*
X0393666Y0281586D01*
X0393204Y0282386D01*
X0392642Y0283119D01*
X0391988Y0283773D01*
X0391255Y0284335D01*
X0390455Y0284798D01*
X0389601Y0285151D01*
X0388708Y0285390D01*
X0388130Y0285467D01*
X0388130Y0279261D01*
X0386530Y0279261D01*
X0386530Y0277661D01*
X0388130Y0277661D01*
X0394335Y0277661D01*
X0394259Y0277083D01*
X0394020Y0276190D01*
X0393666Y0275336D01*
X0393204Y0274536D01*
X0392642Y0273803D01*
X0391988Y0273149D01*
X0391255Y0272587D01*
X0390455Y0272125D01*
X0389601Y0271771D01*
X0388708Y0271532D01*
X0388130Y0271455D01*
X0388130Y0277661D01*
X0388130Y0276845D02*
X0386530Y0276845D01*
X0386530Y0277661D02*
X0386530Y0271455D01*
X0385952Y0271532D01*
X0385059Y0271771D01*
X0384205Y0272125D01*
X0383405Y0272587D01*
X0382672Y0273149D01*
X0382018Y0273803D01*
X0381456Y0274536D01*
X0380993Y0275336D01*
X0380640Y0276190D01*
X0380401Y0277083D01*
X0380324Y0277661D01*
X0386530Y0277661D01*
X0386530Y0278444D02*
X0346385Y0278444D01*
X0347983Y0276845D02*
X0380464Y0276845D01*
X0381045Y0275247D02*
X0349582Y0275247D01*
X0351180Y0273648D02*
X0382172Y0273648D01*
X0384385Y0272050D02*
X0352779Y0272050D01*
X0354377Y0270451D02*
X0414070Y0270451D01*
X0414070Y0268853D02*
X0355976Y0268853D01*
X0357574Y0267254D02*
X0414070Y0267254D01*
X0414070Y0265656D02*
X0359173Y0265656D01*
X0360771Y0264057D02*
X0414070Y0264057D01*
X0414070Y0262459D02*
X0362370Y0262459D01*
X0362369Y0258500D02*
X0322369Y0298500D01*
X0197369Y0298500D01*
X0192369Y0303500D01*
X0242469Y0253400D01*
X0243363Y0253400D01*
X0245763Y0251000D01*
X0252369Y0251000D01*
X0255354Y0248072D02*
X0298563Y0248072D01*
X0298766Y0248275D02*
X0297594Y0247103D01*
X0297594Y0245040D01*
X0295823Y0245040D01*
X0295264Y0245598D01*
X0289710Y0245598D01*
X0288538Y0244427D01*
X0288538Y0240053D01*
X0289710Y0238882D01*
X0295264Y0238882D01*
X0295823Y0239440D01*
X0298051Y0239440D01*
X0298766Y0238725D01*
X0303634Y0238725D01*
X0302469Y0237560D01*
X0295823Y0237560D01*
X0295264Y0238118D01*
X0289710Y0238118D01*
X0288538Y0236947D01*
X0288538Y0232573D01*
X0289687Y0231424D01*
X0289687Y0209502D01*
X0287102Y0206917D01*
X0281541Y0206917D01*
X0280369Y0205746D01*
X0280369Y0204646D01*
X0276337Y0204646D01*
X0276337Y0204840D01*
X0275166Y0206012D01*
X0269572Y0206012D01*
X0268400Y0204840D01*
X0268400Y0198853D01*
X0268912Y0198341D01*
X0268723Y0198014D01*
X0268600Y0197556D01*
X0268600Y0195338D01*
X0272185Y0195338D01*
X0272185Y0194969D01*
X0272553Y0194969D01*
X0272553Y0191188D01*
X0274574Y0191188D01*
X0275032Y0191311D01*
X0275443Y0191548D01*
X0275778Y0191883D01*
X0276015Y0192293D01*
X0276137Y0192751D01*
X0276137Y0194969D01*
X0272553Y0194969D01*
X0272553Y0195338D01*
X0276137Y0195338D01*
X0276137Y0197556D01*
X0276015Y0198014D01*
X0275826Y0198341D01*
X0276337Y0198853D01*
X0276337Y0199046D01*
X0280687Y0199046D01*
X0281541Y0198193D01*
X0291859Y0198193D01*
X0293030Y0199364D01*
X0293030Y0204926D01*
X0294861Y0206756D01*
X0295287Y0207786D01*
X0295287Y0231424D01*
X0295823Y0231960D01*
X0304186Y0231960D01*
X0305215Y0232386D01*
X0311554Y0238725D01*
X0315972Y0238725D01*
X0317144Y0239897D01*
X0317144Y0244315D01*
X0317794Y0244965D01*
X0317794Y0243500D01*
X0322369Y0243500D01*
X0326944Y0243500D01*
X0326944Y0246512D01*
X0326821Y0246970D01*
X0326584Y0247380D01*
X0326249Y0247715D01*
X0325839Y0247952D01*
X0325381Y0248075D01*
X0322369Y0248075D01*
X0322369Y0243500D01*
X0322369Y0243500D01*
X0326944Y0243500D01*
X0326944Y0240488D01*
X0326821Y0240030D01*
X0326584Y0239620D01*
X0326249Y0239285D01*
X0325839Y0239048D01*
X0325381Y0238925D01*
X0322369Y0238925D01*
X0322369Y0243500D01*
X0322369Y0243500D01*
X0322369Y0243500D01*
X0322369Y0248075D01*
X0320904Y0248075D01*
X0322269Y0249440D01*
X0338915Y0249440D01*
X0339474Y0248882D01*
X0345028Y0248882D01*
X0346200Y0250053D01*
X0346200Y0254427D01*
X0345028Y0255598D01*
X0339474Y0255598D01*
X0338915Y0255040D01*
X0320552Y0255040D01*
X0319523Y0254614D01*
X0313184Y0248275D01*
X0308766Y0248275D01*
X0307594Y0247103D01*
X0307594Y0242685D01*
X0307144Y0242235D01*
X0307144Y0247103D01*
X0305972Y0248275D01*
X0298766Y0248275D01*
X0297594Y0246474D02*
X0246944Y0246474D01*
X0246944Y0246512D02*
X0246821Y0246970D01*
X0246584Y0247380D01*
X0246249Y0247715D01*
X0245839Y0247952D01*
X0245381Y0248075D01*
X0242369Y0248075D01*
X0242369Y0243500D01*
X0246944Y0243500D01*
X0246944Y0246512D01*
X0246944Y0244875D02*
X0279073Y0244875D01*
X0279236Y0245039D02*
X0278901Y0244704D01*
X0278664Y0244293D01*
X0278541Y0243835D01*
X0278541Y0242240D01*
X0278541Y0241300D01*
X0271812Y0241300D01*
X0270783Y0240874D01*
X0246209Y0216300D01*
X0157543Y0216300D01*
X0140902Y0218380D01*
X0139737Y0219545D01*
X0139241Y0219750D01*
X0139737Y0219955D01*
X0140117Y0220335D01*
X0156647Y0218268D01*
X0156812Y0218200D01*
X0157195Y0218200D01*
X0157574Y0218153D01*
X0157747Y0218200D01*
X0240426Y0218200D01*
X0241455Y0218626D01*
X0242148Y0219319D01*
X0243201Y0219319D01*
X0244737Y0219955D01*
X0245914Y0221132D01*
X0246550Y0222668D01*
X0246550Y0224332D01*
X0245983Y0225700D01*
X0247926Y0225700D01*
X0248955Y0226126D01*
X0253955Y0231126D01*
X0254743Y0231914D01*
X0255129Y0232847D01*
X0255914Y0233632D01*
X0256550Y0235168D01*
X0256550Y0236832D01*
X0255914Y0238368D01*
X0254737Y0239545D01*
X0253201Y0240181D01*
X0251537Y0240181D01*
X0250001Y0239545D01*
X0248824Y0238368D01*
X0248188Y0236832D01*
X0248188Y0235168D01*
X0248741Y0233832D01*
X0246209Y0231300D01*
X0210482Y0231300D01*
X0209737Y0232045D01*
X0208201Y0232681D01*
X0206537Y0232681D01*
X0205001Y0232045D01*
X0203824Y0230868D01*
X0203188Y0229332D01*
X0203188Y0227668D01*
X0203824Y0226132D01*
X0205001Y0224955D01*
X0206537Y0224319D01*
X0208201Y0224319D01*
X0209737Y0224955D01*
X0210482Y0225700D01*
X0238755Y0225700D01*
X0238188Y0224332D01*
X0238188Y0223800D01*
X0183483Y0223800D01*
X0184050Y0225168D01*
X0184050Y0226832D01*
X0183414Y0228368D01*
X0182633Y0229149D01*
X0182347Y0253738D01*
X0182441Y0253777D01*
X0183432Y0254768D01*
X0184423Y0253777D01*
X0186335Y0252985D01*
X0188403Y0252985D01*
X0190315Y0253777D01*
X0191447Y0254910D01*
X0191986Y0254371D01*
X0192622Y0253909D01*
X0193324Y0253551D01*
X0194072Y0253308D01*
X0194849Y0253185D01*
X0195243Y0253185D01*
X0195636Y0253185D01*
X0196414Y0253308D01*
X0197162Y0253551D01*
X0197864Y0253909D01*
X0198500Y0254371D01*
X0199057Y0254928D01*
X0199519Y0255564D01*
X0199877Y0256266D01*
X0200120Y0257014D01*
X0200243Y0257792D01*
X0200243Y0258185D01*
X0195243Y0258185D01*
X0195243Y0258185D01*
X0195243Y0253185D01*
X0195243Y0258185D01*
X0195243Y0258185D01*
X0200243Y0258185D01*
X0200243Y0258579D01*
X0200120Y0259356D01*
X0199877Y0260104D01*
X0199519Y0260806D01*
X0199057Y0261442D01*
X0198500Y0261999D01*
X0197864Y0262461D01*
X0197162Y0262819D01*
X0196414Y0263062D01*
X0195636Y0263185D01*
X0195243Y0263185D01*
X0195243Y0258185D01*
X0195243Y0258185D01*
X0195243Y0263185D01*
X0194849Y0263185D01*
X0194072Y0263062D01*
X0193324Y0262819D01*
X0192622Y0262461D01*
X0191986Y0261999D01*
X0191447Y0261461D01*
X0190315Y0262593D01*
X0188403Y0263385D01*
X0186335Y0263385D01*
X0184423Y0262593D01*
X0183432Y0261602D01*
X0182441Y0262593D01*
X0180529Y0263385D01*
X0178461Y0263385D01*
X0176549Y0262593D01*
X0175087Y0261131D01*
X0174295Y0259219D01*
X0174295Y0257151D01*
X0175087Y0255239D01*
X0176549Y0253777D01*
X0176747Y0253695D01*
X0177033Y0229077D01*
X0176324Y0228368D01*
X0175688Y0226832D01*
X0175688Y0225168D01*
X0176255Y0223800D01*
X0157543Y0223800D01*
X0140902Y0225880D01*
X0139737Y0227045D01*
X0138201Y0227681D01*
X0136537Y0227681D01*
X0135169Y0227114D01*
X0135169Y0229057D01*
X0134743Y0230086D01*
X0133955Y0230874D01*
X0132926Y0231300D01*
X0115169Y0231300D01*
X0115169Y0239057D01*
X0114743Y0240086D01*
X0113955Y0240874D01*
X0112926Y0241300D01*
X0057569Y0241300D01*
X0057569Y0242528D01*
X0056397Y0243700D01*
X0054923Y0243700D01*
X0057569Y0246346D01*
X0057569Y0250654D01*
X0054723Y0253500D01*
X0057569Y0256346D01*
X0057569Y0260654D01*
X0054523Y0263700D01*
X0050215Y0263700D01*
X0047228Y0260712D01*
X0044440Y0263500D01*
X0042569Y0263500D01*
X0042569Y0258700D01*
X0042169Y0258700D01*
X0042169Y0263500D01*
X0040298Y0263500D01*
X0037369Y0260571D01*
X0037369Y0258700D01*
X0042169Y0258700D01*
X0042169Y0258300D01*
X0037369Y0258300D01*
X0037369Y0256429D01*
X0040156Y0253641D01*
X0037169Y0250654D01*
X0037169Y0246346D01*
X0040015Y0243500D01*
X0037169Y0240654D01*
X0037169Y0236346D01*
X0040215Y0233300D01*
X0044523Y0233300D01*
X0047169Y0235946D01*
X0047169Y0234472D01*
X0048341Y0233300D01*
X0056397Y0233300D01*
X0057569Y0234472D01*
X0057569Y0235700D01*
X0109569Y0235700D01*
X0109569Y0227943D01*
X0109995Y0226914D01*
X0110783Y0226126D01*
X0111812Y0225700D01*
X0116255Y0225700D01*
X0115688Y0224332D01*
X0115688Y0222668D01*
X0116301Y0221189D01*
X0114907Y0221189D01*
X0114707Y0220989D01*
X0113668Y0220989D01*
X0112630Y0220989D01*
X0112430Y0221189D01*
X0107669Y0221189D01*
X0107669Y0229057D01*
X0107243Y0230086D01*
X0106455Y0230874D01*
X0105426Y0231300D01*
X0035169Y0231300D01*
X0035169Y0271248D01*
X0035201Y0271261D01*
X0036608Y0272668D01*
X0037369Y0274505D01*
X0038130Y0272668D01*
X0039537Y0271261D01*
X0041374Y0270500D01*
X0043364Y0270500D01*
X0045201Y0271261D01*
X0046608Y0272668D01*
X0047369Y0274505D01*
X0048130Y0272668D01*
X0049537Y0271261D01*
X0051374Y0270500D01*
X0053364Y0270500D01*
X0055201Y0271261D01*
X0056608Y0272668D01*
X0057369Y0274505D01*
X0057369Y0282495D01*
X0056608Y0284332D01*
X0055201Y0285739D01*
X0053364Y0286500D01*
X0051374Y0286500D01*
X0049537Y0285739D01*
X0048130Y0284332D01*
X0047369Y0282495D01*
X0047369Y0274505D01*
X0047369Y0282495D01*
X0046608Y0284332D01*
X0045201Y0285739D01*
X0043364Y0286500D01*
X0041374Y0286500D01*
X0039537Y0285739D01*
X0038130Y0284332D01*
X0037369Y0282495D01*
X0037369Y0274505D01*
X0037369Y0282495D01*
X0036608Y0284332D01*
X0035201Y0285739D01*
X0033364Y0286500D01*
X0031374Y0286500D01*
X0030169Y0286001D01*
X0030169Y0295700D01*
X0033755Y0295700D01*
X0033188Y0294332D01*
X0033188Y0292668D01*
X0033824Y0291132D01*
X0035001Y0289955D01*
X0036537Y0289319D01*
X0038201Y0289319D01*
X0039737Y0289955D01*
X0040482Y0290700D01*
X0089569Y0290700D01*
X0089569Y0283510D01*
X0089140Y0283332D01*
X0088069Y0282261D01*
X0088069Y0283028D01*
X0086897Y0284200D01*
X0077841Y0284200D01*
X0076669Y0283028D01*
X0076669Y0273972D01*
X0077841Y0272800D01*
X0086897Y0272800D01*
X0088069Y0273972D01*
X0088069Y0274739D01*
X0089140Y0273668D01*
X0091235Y0272800D01*
X0093503Y0272800D01*
X0095598Y0273668D01*
X0097201Y0275271D01*
X0097369Y0275676D01*
X0097537Y0275271D01*
X0099140Y0273668D01*
X0101235Y0272800D01*
X0103503Y0272800D01*
X0105598Y0273668D01*
X0107201Y0275271D01*
X0107369Y0275676D01*
X0107537Y0275271D01*
X0109140Y0273668D01*
X0111235Y0272800D01*
X0113503Y0272800D01*
X0115598Y0273668D01*
X0117201Y0275271D01*
X0117488Y0275964D01*
X0117665Y0275617D01*
X0118174Y0274917D01*
X0118786Y0274305D01*
X0119486Y0273796D01*
X0120258Y0273403D01*
X0121081Y0273135D01*
X0121936Y0273000D01*
X0122169Y0273000D01*
X0122169Y0278300D01*
X0122569Y0278300D01*
X0122569Y0273000D01*
X0122802Y0273000D01*
X0123657Y0273135D01*
X0124480Y0273403D01*
X0125252Y0273796D01*
X0125952Y0274305D01*
X0126564Y0274917D01*
X0127073Y0275617D01*
X0127250Y0275964D01*
X0127537Y0275271D01*
X0129140Y0273668D01*
X0131235Y0272800D01*
X0133503Y0272800D01*
X0135598Y0273668D01*
X0137201Y0275271D01*
X0138069Y0277366D01*
X0138069Y0279634D01*
X0137201Y0281729D01*
X0135598Y0283332D01*
X0133503Y0284200D01*
X0131235Y0284200D01*
X0129140Y0283332D01*
X0127537Y0281729D01*
X0127250Y0281036D01*
X0127073Y0281383D01*
X0126564Y0282083D01*
X0125952Y0282695D01*
X0125252Y0283204D01*
X0124480Y0283597D01*
X0123657Y0283865D01*
X0122802Y0284000D01*
X0122569Y0284000D01*
X0122569Y0278700D01*
X0122169Y0278700D01*
X0122169Y0284000D01*
X0121936Y0284000D01*
X0121081Y0283865D01*
X0120258Y0283597D01*
X0119486Y0283204D01*
X0118786Y0282695D01*
X0118174Y0282083D01*
X0117665Y0281383D01*
X0117488Y0281036D01*
X0117201Y0281729D01*
X0115598Y0283332D01*
X0113503Y0284200D01*
X0111235Y0284200D01*
X0109140Y0283332D01*
X0107537Y0281729D01*
X0107369Y0281324D01*
X0107201Y0281729D01*
X0105598Y0283332D01*
X0105169Y0283510D01*
X0105169Y0299057D01*
X0104743Y0300086D01*
X0103955Y0300874D01*
X0102926Y0301300D01*
X0026812Y0301300D01*
X0025783Y0300874D01*
X0024995Y0300086D01*
X0024569Y0299057D01*
X0024569Y0217943D01*
X0024995Y0216914D01*
X0025783Y0216126D01*
X0026812Y0215700D01*
X0074319Y0215700D01*
X0079680Y0210339D01*
X0079680Y0205285D01*
X0079038Y0205550D01*
X0044440Y0205550D01*
X0043411Y0205124D01*
X0042623Y0204336D01*
X0042005Y0203718D01*
X0041217Y0202931D01*
X0040791Y0201901D01*
X0040791Y0199041D01*
X0038648Y0199929D01*
X0036090Y0199929D01*
X0033727Y0198950D01*
X0031919Y0197142D01*
X0030940Y0194779D01*
X0030940Y0192221D01*
X0031919Y0189858D01*
X0033727Y0188050D01*
X0036090Y0187071D01*
X0038648Y0187071D01*
X0041011Y0188050D01*
X0041279Y0188318D01*
X0041675Y0187922D01*
X0041675Y0183528D01*
X0040900Y0182754D01*
X0040900Y0176372D01*
X0041675Y0175598D01*
X0041675Y0144380D01*
X0042102Y0143351D01*
X0072790Y0112662D01*
X0072014Y0112662D01*
X0071556Y0112540D01*
X0071146Y0112303D01*
X0070810Y0111967D01*
X0070574Y0111557D01*
X0070451Y0111099D01*
X0070451Y0108500D01*
X0070451Y0105901D01*
X0070574Y0105443D01*
X0070810Y0105033D01*
X0071146Y0104697D01*
X0071556Y0104460D01*
X0072014Y0104338D01*
X0073826Y0104338D01*
X0075637Y0104338D01*
X0076095Y0104460D01*
X0076506Y0104697D01*
X0076841Y0105033D01*
X0077078Y0105443D01*
X0077200Y0105901D01*
X0077200Y0108252D01*
X0077337Y0108115D01*
X0077337Y0105309D01*
X0078098Y0104548D01*
X0078094Y0103138D01*
X0078076Y0103138D01*
X0077564Y0102626D01*
X0077237Y0102815D01*
X0076779Y0102938D01*
X0074758Y0102938D01*
X0074758Y0097385D01*
X0074389Y0097385D01*
X0074389Y0097017D01*
X0070805Y0097017D01*
X0070805Y0093027D01*
X0070928Y0092569D01*
X0071165Y0092159D01*
X0071500Y0091823D01*
X0071910Y0091586D01*
X0072368Y0091464D01*
X0074389Y0091464D01*
X0074389Y0097016D01*
X0074758Y0097016D01*
X0074758Y0091464D01*
X0076779Y0091464D01*
X0077237Y0091586D01*
X0077564Y0091775D01*
X0078076Y0091264D01*
X0081127Y0091264D01*
X0081230Y0091015D01*
X0106509Y0065736D01*
X0103273Y0065736D01*
X0102920Y0065384D01*
X0102567Y0065736D01*
X0096974Y0065736D01*
X0096621Y0065384D01*
X0096268Y0065736D01*
X0090674Y0065736D01*
X0090322Y0065384D01*
X0089969Y0065736D01*
X0084375Y0065736D01*
X0083864Y0065225D01*
X0083536Y0065414D01*
X0083078Y0065536D01*
X0081057Y0065536D01*
X0081057Y0059984D01*
X0080689Y0059984D01*
X0080689Y0065536D01*
X0078667Y0065536D01*
X0078210Y0065414D01*
X0077799Y0065177D01*
X0077723Y0065101D01*
X0077647Y0065177D01*
X0077237Y0065414D01*
X0076779Y0065536D01*
X0074758Y0065536D01*
X0074758Y0059984D01*
X0074389Y0059984D01*
X0074389Y0065536D01*
X0072368Y0065536D01*
X0071910Y0065414D01*
X0071500Y0065177D01*
X0071165Y0064841D01*
X0070928Y0064431D01*
X0070805Y0063973D01*
X0070805Y0059983D01*
X0074389Y0059983D01*
X0074389Y0059615D01*
X0070805Y0059615D01*
X0070805Y0055625D01*
X0070928Y0055167D01*
X0071165Y0054757D01*
X0071500Y0054422D01*
X0071910Y0054185D01*
X0072368Y0054062D01*
X0074389Y0054062D01*
X0074389Y0059615D01*
X0074758Y0059615D01*
X0074758Y0059983D01*
X0080689Y0059983D01*
X0080689Y0059615D01*
X0081057Y0059615D01*
X0081057Y0054062D01*
X0083078Y0054062D01*
X0083536Y0054185D01*
X0083864Y0054374D01*
X0084375Y0053862D01*
X0089969Y0053862D01*
X0090322Y0054215D01*
X0090674Y0053862D01*
X0096268Y0053862D01*
X0096621Y0054215D01*
X0096974Y0053862D01*
X0102567Y0053862D01*
X0102920Y0054215D01*
X0103273Y0053862D01*
X0108867Y0053862D01*
X0109378Y0054374D01*
X0109706Y0054185D01*
X0110163Y0054062D01*
X0112185Y0054062D01*
X0112185Y0059615D01*
X0112553Y0059615D01*
X0112553Y0054062D01*
X0114574Y0054062D01*
X0115032Y0054185D01*
X0115360Y0054374D01*
X0115871Y0053862D01*
X0116026Y0053862D01*
X0116026Y0052465D01*
X0115251Y0051691D01*
X0115251Y0045309D01*
X0116422Y0044138D01*
X0121229Y0044138D01*
X0122400Y0045309D01*
X0122400Y0051691D01*
X0121626Y0052465D01*
X0121626Y0054023D01*
X0121977Y0054374D01*
X0122304Y0054185D01*
X0122762Y0054062D01*
X0124783Y0054062D01*
X0124783Y0059615D01*
X0125152Y0059615D01*
X0125152Y0054062D01*
X0127173Y0054062D01*
X0127631Y0054185D01*
X0127958Y0054374D01*
X0128470Y0053862D01*
X0134064Y0053862D01*
X0134575Y0054374D01*
X0134903Y0054185D01*
X0135360Y0054062D01*
X0137382Y0054062D01*
X0137382Y0059615D01*
X0137750Y0059615D01*
X0137750Y0054062D01*
X0139771Y0054062D01*
X0140229Y0054185D01*
X0140556Y0054374D01*
X0141068Y0053862D01*
X0146662Y0053862D01*
X0147015Y0054215D01*
X0147367Y0053862D01*
X0152961Y0053862D01*
X0153473Y0054374D01*
X0153800Y0054185D01*
X0154258Y0054062D01*
X0156279Y0054062D01*
X0156279Y0059615D01*
X0156648Y0059615D01*
X0156648Y0059983D01*
X0160232Y0059983D01*
X0160232Y0063973D01*
X0160109Y0064431D01*
X0159872Y0064841D01*
X0159537Y0065177D01*
X0159127Y0065414D01*
X0158669Y0065536D01*
X0156648Y0065536D01*
X0156648Y0059984D01*
X0156279Y0059984D01*
X0156279Y0065536D01*
X0154258Y0065536D01*
X0153800Y0065414D01*
X0153473Y0065225D01*
X0152961Y0065736D01*
X0147367Y0065736D01*
X0147015Y0065384D01*
X0146662Y0065736D01*
X0141068Y0065736D01*
X0140556Y0065225D01*
X0140229Y0065414D01*
X0139771Y0065536D01*
X0137750Y0065536D01*
X0137750Y0059984D01*
X0137382Y0059984D01*
X0137382Y0065536D01*
X0135360Y0065536D01*
X0134903Y0065414D01*
X0134575Y0065225D01*
X0134064Y0065736D01*
X0128470Y0065736D01*
X0127958Y0065225D01*
X0127631Y0065414D01*
X0127173Y0065536D01*
X0125152Y0065536D01*
X0125152Y0059984D01*
X0124783Y0059984D01*
X0124783Y0065536D01*
X0122762Y0065536D01*
X0122304Y0065414D01*
X0121977Y0065225D01*
X0121465Y0065736D01*
X0118414Y0065736D01*
X0118311Y0065985D01*
X0117524Y0066773D01*
X0117374Y0066922D01*
X0117374Y0066922D01*
X0116586Y0067710D01*
X0115557Y0068136D01*
X0112028Y0068136D01*
X0088901Y0091264D01*
X0089969Y0091264D01*
X0090322Y0091616D01*
X0090674Y0091264D01*
X0096268Y0091264D01*
X0096621Y0091616D01*
X0096974Y0091264D01*
X0102567Y0091264D01*
X0102920Y0091616D01*
X0103273Y0091264D01*
X0108867Y0091264D01*
X0109219Y0091616D01*
X0109572Y0091264D01*
X0115166Y0091264D01*
X0115519Y0091616D01*
X0115871Y0091264D01*
X0121465Y0091264D01*
X0121977Y0091775D01*
X0122304Y0091586D01*
X0122762Y0091464D01*
X0124783Y0091464D01*
X0124783Y0097016D01*
X0125152Y0097016D01*
X0125152Y0091464D01*
X0127173Y0091464D01*
X0127631Y0091586D01*
X0127958Y0091775D01*
X0128470Y0091264D01*
X0134064Y0091264D01*
X0134575Y0091775D01*
X0134903Y0091586D01*
X0135360Y0091464D01*
X0137382Y0091464D01*
X0137382Y0097016D01*
X0137750Y0097016D01*
X0137750Y0091464D01*
X0139771Y0091464D01*
X0140229Y0091586D01*
X0140556Y0091775D01*
X0141068Y0091264D01*
X0146662Y0091264D01*
X0147015Y0091616D01*
X0147367Y0091264D01*
X0152961Y0091264D01*
X0153473Y0091775D01*
X0153800Y0091586D01*
X0154258Y0091464D01*
X0156279Y0091464D01*
X0156279Y0097016D01*
X0156648Y0097016D01*
X0156648Y0091464D01*
X0158669Y0091464D01*
X0159127Y0091586D01*
X0159537Y0091823D01*
X0159872Y0092159D01*
X0160109Y0092569D01*
X0160232Y0093027D01*
X0160232Y0097017D01*
X0156648Y0097017D01*
X0156648Y0097385D01*
X0160232Y0097385D01*
X0160232Y0101375D01*
X0160109Y0101833D01*
X0159872Y0102243D01*
X0159537Y0102578D01*
X0159127Y0102815D01*
X0158669Y0102938D01*
X0156648Y0102938D01*
X0156648Y0097385D01*
X0156279Y0097385D01*
X0156279Y0102938D01*
X0154258Y0102938D01*
X0153800Y0102815D01*
X0153473Y0102626D01*
X0152961Y0103138D01*
X0147367Y0103138D01*
X0147015Y0102785D01*
X0146662Y0103138D01*
X0141717Y0103138D01*
X0141787Y0103401D01*
X0141787Y0106000D01*
X0141787Y0108599D01*
X0141664Y0109057D01*
X0141427Y0109467D01*
X0141092Y0109803D01*
X0140682Y0110040D01*
X0140224Y0110162D01*
X0138412Y0110162D01*
X0136600Y0110162D01*
X0136143Y0110040D01*
X0135732Y0109803D01*
X0135397Y0109467D01*
X0135160Y0109057D01*
X0135037Y0108599D01*
X0135037Y0106000D01*
X0138412Y0106000D01*
X0138412Y0106000D01*
X0135037Y0106000D01*
X0135037Y0103401D01*
X0135160Y0102943D01*
X0135190Y0102892D01*
X0134903Y0102815D01*
X0134900Y0102814D01*
X0134900Y0109191D01*
X0134604Y0109487D01*
X0134897Y0111731D01*
X0135353Y0112187D01*
X0135353Y0115813D01*
X0135166Y0116000D01*
X0135353Y0116187D01*
X0135353Y0117554D01*
X0135405Y0117679D01*
X0135405Y0133978D01*
X0134979Y0135007D01*
X0134191Y0135795D01*
X0133162Y0136221D01*
X0112363Y0136221D01*
X0111334Y0135795D01*
X0110546Y0135007D01*
X0096012Y0120473D01*
X0082584Y0120473D01*
X0080287Y0122770D01*
X0080287Y0175234D01*
X0080852Y0174669D01*
X0081939Y0174669D01*
X0082069Y0125995D01*
X0082069Y0125443D01*
X0082070Y0125439D01*
X0082070Y0125436D01*
X0082284Y0124924D01*
X0082495Y0124414D01*
X0082498Y0124411D01*
X0082499Y0124408D01*
X0082892Y0124017D01*
X0083283Y0123626D01*
X0083286Y0123625D01*
X0083289Y0123622D01*
X0083800Y0123412D01*
X0084312Y0123200D01*
X0084316Y0123200D01*
X0084319Y0123199D01*
X0084874Y0123200D01*
X0091756Y0123200D01*
X0092501Y0122455D01*
X0094037Y0121819D01*
X0095701Y0121819D01*
X0097237Y0122455D01*
X0098414Y0123632D01*
X0099050Y0125168D01*
X0099050Y0126832D01*
X0098414Y0128368D01*
X0097237Y0129545D01*
X0095701Y0130181D01*
X0094037Y0130181D01*
X0092501Y0129545D01*
X0091756Y0128800D01*
X0087662Y0128800D01*
X0087539Y0174669D01*
X0088538Y0174669D01*
X0088538Y0166983D01*
X0089710Y0165811D01*
X0095120Y0165811D01*
X0095120Y0159675D01*
X0095546Y0158646D01*
X0102672Y0151520D01*
X0103460Y0150733D01*
X0104489Y0150306D01*
X0231854Y0150306D01*
X0232599Y0149562D01*
X0234136Y0148925D01*
X0235799Y0148925D01*
X0237336Y0149562D01*
X0238080Y0150306D01*
X0269186Y0150306D01*
X0269262Y0150338D01*
X0272185Y0150338D01*
X0272185Y0149969D01*
X0272553Y0149969D01*
X0272553Y0146188D01*
X0274574Y0146188D01*
X0275032Y0146311D01*
X0275443Y0146548D01*
X0275778Y0146883D01*
X0276015Y0147293D01*
X0276137Y0147751D01*
X0276137Y0149969D01*
X0272553Y0149969D01*
X0272553Y0150338D01*
X0276137Y0150338D01*
X0276137Y0152556D01*
X0276015Y0153014D01*
X0275826Y0153341D01*
X0276337Y0153853D01*
X0276337Y0154046D01*
X0285603Y0154046D01*
X0285824Y0154138D01*
X0291859Y0154138D01*
X0293030Y0155309D01*
X0293030Y0161691D01*
X0291859Y0162862D01*
X0281541Y0162862D01*
X0280369Y0161691D01*
X0280369Y0159646D01*
X0276337Y0159646D01*
X0276337Y0159840D01*
X0275166Y0161012D01*
X0269572Y0161012D01*
X0268400Y0159840D01*
X0268400Y0156838D01*
X0267469Y0155906D01*
X0238080Y0155906D01*
X0237336Y0156651D01*
X0235799Y0157287D01*
X0234136Y0157287D01*
X0232599Y0156651D01*
X0231854Y0155906D01*
X0222484Y0155906D01*
X0222582Y0155947D01*
X0224252Y0157617D01*
X0225156Y0159799D01*
X0225156Y0162161D01*
X0224252Y0164343D01*
X0222582Y0166013D01*
X0220400Y0166917D01*
X0218038Y0166917D01*
X0215856Y0166013D01*
X0214186Y0164343D01*
X0213282Y0162161D01*
X0213282Y0159799D01*
X0214186Y0157617D01*
X0215856Y0155947D01*
X0215955Y0155906D01*
X0106206Y0155906D01*
X0100720Y0161392D01*
X0100720Y0166011D01*
X0101070Y0166011D01*
X0102108Y0166011D01*
X0102308Y0165811D01*
X0124208Y0165811D01*
X0131413Y0158607D01*
X0132442Y0158180D01*
X0141303Y0158180D01*
X0142048Y0157436D01*
X0143585Y0156799D01*
X0145248Y0156799D01*
X0146785Y0157436D01*
X0147961Y0158612D01*
X0148597Y0160149D01*
X0148597Y0161812D01*
X0147961Y0163349D01*
X0146785Y0164525D01*
X0145248Y0165161D01*
X0143585Y0165161D01*
X0142048Y0164525D01*
X0141303Y0163780D01*
X0134159Y0163780D01*
X0126200Y0171739D01*
X0126200Y0174669D01*
X0133886Y0174669D01*
X0135058Y0175841D01*
X0135058Y0178124D01*
X0152376Y0178200D01*
X0159256Y0178200D01*
X0160001Y0177455D01*
X0161537Y0176819D01*
X0163201Y0176819D01*
X0164737Y0177455D01*
X0165914Y0178632D01*
X0166550Y0180168D01*
X0166550Y0181832D01*
X0165914Y0183368D01*
X0164737Y0184545D01*
X0163201Y0185181D01*
X0161537Y0185181D01*
X0160001Y0184545D01*
X0159256Y0183800D01*
X0154178Y0183800D01*
X0154435Y0184106D01*
X0154743Y0184414D01*
X0154791Y0184530D01*
X0154871Y0184626D01*
X0155002Y0185041D01*
X0155129Y0185347D01*
X0155914Y0186132D01*
X0156550Y0187668D01*
X0156550Y0189332D01*
X0156411Y0189668D01*
X0174734Y0192722D01*
X0175001Y0192455D01*
X0176537Y0191819D01*
X0178201Y0191819D01*
X0179737Y0192455D01*
X0180914Y0193632D01*
X0180940Y0193695D01*
X0180940Y0192221D01*
X0181919Y0189858D01*
X0183727Y0188050D01*
X0186090Y0187071D01*
X0188648Y0187071D01*
X0191011Y0188050D01*
X0192819Y0189858D01*
X0193798Y0192221D01*
X0193798Y0194779D01*
X0192819Y0197142D01*
X0191011Y0198950D01*
X0188648Y0199929D01*
X0186090Y0199929D01*
X0183727Y0198950D01*
X0181919Y0197142D01*
X0181550Y0196252D01*
X0181550Y0196832D01*
X0180914Y0198368D01*
X0179737Y0199545D01*
X0178201Y0200181D01*
X0176537Y0200181D01*
X0175001Y0199545D01*
X0173824Y0198368D01*
X0173771Y0198239D01*
X0154587Y0195042D01*
X0154492Y0195081D01*
X0150246Y0195081D01*
X0149217Y0194655D01*
X0148607Y0194045D01*
X0135058Y0191787D01*
X0135058Y0195411D01*
X0134858Y0195611D01*
X0134858Y0196650D01*
X0134858Y0197688D01*
X0135058Y0197888D01*
X0135058Y0203200D01*
X0139256Y0203200D01*
X0140001Y0202455D01*
X0141537Y0201819D01*
X0143201Y0201819D01*
X0144737Y0202455D01*
X0145914Y0203632D01*
X0146550Y0205168D01*
X0146550Y0206832D01*
X0145914Y0208368D01*
X0144737Y0209545D01*
X0143201Y0210181D01*
X0141537Y0210181D01*
X0140001Y0209545D01*
X0139256Y0208800D01*
X0135058Y0208800D01*
X0135058Y0210045D01*
X0135088Y0210248D01*
X0135169Y0210443D01*
X0135169Y0210793D01*
X0135220Y0211140D01*
X0135169Y0211345D01*
X0135169Y0212386D01*
X0136537Y0211819D01*
X0138201Y0211819D01*
X0139737Y0212455D01*
X0140117Y0212835D01*
X0156647Y0210768D01*
X0156812Y0210700D01*
X0157195Y0210700D01*
X0157574Y0210653D01*
X0157747Y0210700D01*
X0247926Y0210700D01*
X0248955Y0211126D01*
X0273529Y0235700D01*
X0278541Y0235700D01*
X0278541Y0234760D01*
X0282290Y0234760D01*
X0282290Y0234760D01*
X0278541Y0234760D01*
X0278541Y0233165D01*
X0278664Y0232707D01*
X0278901Y0232296D01*
X0279236Y0231961D01*
X0279647Y0231724D01*
X0280104Y0231602D01*
X0282290Y0231602D01*
X0282290Y0234760D01*
X0283072Y0235542D01*
X0282290Y0234760D02*
X0286039Y0234760D01*
X0286039Y0236113D01*
X0286239Y0236313D01*
X0286239Y0240687D01*
X0286039Y0240887D01*
X0286039Y0242240D01*
X0282290Y0242240D01*
X0278541Y0242240D01*
X0282290Y0242240D01*
X0282290Y0242240D01*
X0282290Y0245398D01*
X0280104Y0245398D01*
X0279647Y0245276D01*
X0279236Y0245039D01*
X0278541Y0243277D02*
X0246944Y0243277D01*
X0246944Y0243500D02*
X0242369Y0243500D01*
X0242369Y0243500D01*
X0242369Y0243500D01*
X0242369Y0238925D01*
X0245381Y0238925D01*
X0245839Y0239048D01*
X0246249Y0239285D01*
X0246584Y0239620D01*
X0246821Y0240030D01*
X0246944Y0240488D01*
X0246944Y0243500D01*
X0246944Y0241678D02*
X0278541Y0241678D01*
X0282290Y0242240D02*
X0282290Y0242240D01*
X0282290Y0242240D01*
X0282290Y0245398D01*
X0284476Y0245398D01*
X0284934Y0245276D01*
X0285344Y0245039D01*
X0285679Y0244704D01*
X0285916Y0244293D01*
X0286039Y0243835D01*
X0286039Y0242240D01*
X0282290Y0242240D01*
X0282290Y0243277D02*
X0282290Y0243277D01*
X0282290Y0244875D02*
X0282290Y0244875D01*
X0285508Y0244875D02*
X0288987Y0244875D01*
X0288538Y0243277D02*
X0286039Y0243277D01*
X0286039Y0241678D02*
X0288538Y0241678D01*
X0288538Y0240080D02*
X0286239Y0240080D01*
X0286239Y0238481D02*
X0303390Y0238481D01*
X0301109Y0242240D02*
X0302369Y0243500D01*
X0301109Y0242240D02*
X0292487Y0242240D01*
X0288538Y0236883D02*
X0286239Y0236883D01*
X0286039Y0235284D02*
X0288538Y0235284D01*
X0288538Y0233686D02*
X0286039Y0233686D01*
X0286039Y0233165D02*
X0286039Y0234760D01*
X0282290Y0234760D01*
X0282290Y0234760D01*
X0282290Y0234760D01*
X0282290Y0231602D01*
X0284476Y0231602D01*
X0284934Y0231724D01*
X0285344Y0231961D01*
X0285679Y0232296D01*
X0285916Y0232707D01*
X0286039Y0233165D01*
X0285470Y0232087D02*
X0289024Y0232087D01*
X0289687Y0230489D02*
X0268317Y0230489D01*
X0269916Y0232087D02*
X0279110Y0232087D01*
X0278541Y0233686D02*
X0271514Y0233686D01*
X0273113Y0235284D02*
X0278541Y0235284D01*
X0282290Y0233686D02*
X0282290Y0233686D01*
X0282290Y0232087D02*
X0282290Y0232087D01*
X0289687Y0228890D02*
X0266719Y0228890D01*
X0265120Y0227292D02*
X0289687Y0227292D01*
X0289687Y0225693D02*
X0263522Y0225693D01*
X0261923Y0224095D02*
X0289687Y0224095D01*
X0289687Y0222496D02*
X0260325Y0222496D01*
X0258726Y0220898D02*
X0289687Y0220898D01*
X0289687Y0219299D02*
X0257128Y0219299D01*
X0255529Y0217701D02*
X0289687Y0217701D01*
X0289687Y0216102D02*
X0253931Y0216102D01*
X0252332Y0214503D02*
X0289687Y0214503D01*
X0289687Y0212905D02*
X0250734Y0212905D01*
X0249135Y0211306D02*
X0289687Y0211306D01*
X0289687Y0209708D02*
X0144343Y0209708D01*
X0146021Y0208109D02*
X0288294Y0208109D01*
X0292487Y0208343D02*
X0286700Y0202555D01*
X0285991Y0201846D01*
X0272369Y0201846D01*
X0268400Y0201715D02*
X0135058Y0201715D01*
X0135058Y0200117D02*
X0176382Y0200117D01*
X0178356Y0200117D02*
X0268400Y0200117D01*
X0268735Y0198518D02*
X0256443Y0198518D01*
X0256011Y0198950D02*
X0253648Y0199929D01*
X0251090Y0199929D01*
X0248727Y0198950D01*
X0246919Y0197142D01*
X0245940Y0194779D01*
X0245940Y0192221D01*
X0246919Y0189858D01*
X0248727Y0188050D01*
X0251090Y0187071D01*
X0253648Y0187071D01*
X0256011Y0188050D01*
X0257819Y0189858D01*
X0258798Y0192221D01*
X0258798Y0194779D01*
X0257819Y0197142D01*
X0256011Y0198950D01*
X0257911Y0196920D02*
X0268600Y0196920D01*
X0268600Y0194969D02*
X0268600Y0192751D01*
X0268723Y0192293D01*
X0268960Y0191883D01*
X0269295Y0191548D01*
X0269706Y0191311D01*
X0270163Y0191188D01*
X0272185Y0191188D01*
X0272185Y0194969D01*
X0268600Y0194969D01*
X0268600Y0193723D02*
X0258798Y0193723D01*
X0258758Y0192124D02*
X0268821Y0192124D01*
X0269706Y0190689D02*
X0269295Y0190452D01*
X0268960Y0190117D01*
X0268723Y0189707D01*
X0268600Y0189249D01*
X0268600Y0187031D01*
X0272185Y0187031D01*
X0272185Y0190812D01*
X0270163Y0190812D01*
X0269706Y0190689D01*
X0269423Y0190526D02*
X0258096Y0190526D01*
X0256888Y0188927D02*
X0268600Y0188927D01*
X0268600Y0187329D02*
X0264051Y0187329D01*
X0264737Y0187045D02*
X0263201Y0187681D01*
X0261537Y0187681D01*
X0260001Y0187045D01*
X0258824Y0185868D01*
X0258188Y0184332D01*
X0258188Y0182668D01*
X0258824Y0181132D01*
X0260001Y0179955D01*
X0261537Y0179319D01*
X0262590Y0179319D01*
X0264129Y0177780D01*
X0265158Y0177354D01*
X0268400Y0177354D01*
X0268400Y0177160D01*
X0269560Y0176000D01*
X0268400Y0174840D01*
X0268400Y0168853D01*
X0268912Y0168341D01*
X0268723Y0168014D01*
X0268600Y0167556D01*
X0268600Y0165338D01*
X0272185Y0165338D01*
X0272185Y0164969D01*
X0272553Y0164969D01*
X0272553Y0161188D01*
X0274574Y0161188D01*
X0275032Y0161311D01*
X0275443Y0161548D01*
X0275778Y0161883D01*
X0276015Y0162293D01*
X0276137Y0162751D01*
X0276137Y0164755D01*
X0280369Y0164755D01*
X0280369Y0164364D01*
X0281541Y0163193D01*
X0291859Y0163193D01*
X0293030Y0164364D01*
X0293030Y0170746D01*
X0291859Y0171917D01*
X0281541Y0171917D01*
X0280369Y0170746D01*
X0280369Y0170355D01*
X0277820Y0170355D01*
X0276337Y0171838D01*
X0276337Y0174840D01*
X0275178Y0176000D01*
X0276337Y0177160D01*
X0276337Y0177354D01*
X0282965Y0177354D01*
X0283994Y0177780D01*
X0286297Y0180083D01*
X0291859Y0180083D01*
X0293030Y0181254D01*
X0293030Y0187636D01*
X0291859Y0188807D01*
X0281541Y0188807D01*
X0280369Y0187636D01*
X0280369Y0182954D01*
X0276337Y0182954D01*
X0276337Y0183147D01*
X0275826Y0183659D01*
X0276015Y0183986D01*
X0276137Y0184444D01*
X0276137Y0186662D01*
X0272553Y0186662D01*
X0272553Y0187031D01*
X0272185Y0187031D01*
X0272185Y0186662D01*
X0268600Y0186662D01*
X0268600Y0184444D01*
X0268723Y0183986D01*
X0268912Y0183659D01*
X0268400Y0183147D01*
X0268400Y0182954D01*
X0266875Y0182954D01*
X0266550Y0183279D01*
X0266550Y0184332D01*
X0265914Y0185868D01*
X0264737Y0187045D01*
X0265971Y0185730D02*
X0268600Y0185730D01*
X0268684Y0184132D02*
X0266550Y0184132D01*
X0265715Y0180154D02*
X0262369Y0183500D01*
X0260687Y0187329D02*
X0254270Y0187329D01*
X0250467Y0187329D02*
X0189270Y0187329D01*
X0191888Y0188927D02*
X0247849Y0188927D01*
X0246642Y0190526D02*
X0193096Y0190526D01*
X0193758Y0192124D02*
X0245980Y0192124D01*
X0245940Y0193723D02*
X0193798Y0193723D01*
X0193573Y0195321D02*
X0246165Y0195321D01*
X0246827Y0196920D02*
X0192911Y0196920D01*
X0191443Y0198518D02*
X0248295Y0198518D01*
X0258573Y0195321D02*
X0272185Y0195321D01*
X0272369Y0195154D02*
X0271523Y0196000D01*
X0272553Y0195321D02*
X0280569Y0195321D01*
X0280569Y0196099D02*
X0280569Y0193881D01*
X0286318Y0193881D01*
X0286318Y0193119D01*
X0280569Y0193119D01*
X0280569Y0190901D01*
X0280692Y0190443D01*
X0280929Y0190033D01*
X0281264Y0189697D01*
X0281674Y0189460D01*
X0282132Y0189338D01*
X0286319Y0189338D01*
X0286319Y0193119D01*
X0287081Y0193119D01*
X0287081Y0193881D01*
X0292830Y0193881D01*
X0292830Y0196099D01*
X0292708Y0196557D01*
X0292471Y0196967D01*
X0292136Y0197303D01*
X0291725Y0197540D01*
X0291267Y0197662D01*
X0287081Y0197662D01*
X0287081Y0193881D01*
X0286319Y0193881D01*
X0286319Y0197662D01*
X0282132Y0197662D01*
X0281674Y0197540D01*
X0281264Y0197303D01*
X0280929Y0196967D01*
X0280692Y0196557D01*
X0280569Y0196099D01*
X0280901Y0196920D02*
X0276137Y0196920D01*
X0276003Y0198518D02*
X0281215Y0198518D01*
X0276137Y0193723D02*
X0286318Y0193723D01*
X0287081Y0193723D02*
X0310309Y0193723D01*
X0310309Y0194300D02*
X0310309Y0192700D01*
X0304978Y0192700D01*
X0304978Y0186373D01*
X0305101Y0185915D01*
X0305338Y0185505D01*
X0305673Y0185170D01*
X0306084Y0184933D01*
X0306541Y0184810D01*
X0310309Y0184810D01*
X0310309Y0192700D01*
X0311909Y0192700D01*
X0311909Y0184810D01*
X0315677Y0184810D01*
X0316135Y0184933D01*
X0316545Y0185170D01*
X0316880Y0185505D01*
X0317117Y0185915D01*
X0317240Y0186373D01*
X0317240Y0192700D01*
X0311909Y0192700D01*
X0311909Y0194300D01*
X0310309Y0194300D01*
X0304978Y0194300D01*
X0304978Y0200627D01*
X0305101Y0201085D01*
X0305338Y0201495D01*
X0305673Y0201830D01*
X0306084Y0202067D01*
X0306541Y0202190D01*
X0310309Y0202190D01*
X0310309Y0194300D01*
X0310309Y0195321D02*
X0311909Y0195321D01*
X0311909Y0194300D02*
X0311909Y0202190D01*
X0315677Y0202190D01*
X0316135Y0202067D01*
X0316545Y0201830D01*
X0316880Y0201495D01*
X0317117Y0201085D01*
X0317240Y0200627D01*
X0317240Y0194300D01*
X0311909Y0194300D01*
X0311909Y0193723D02*
X0395940Y0193723D01*
X0395980Y0192124D02*
X0317240Y0192124D01*
X0317240Y0190526D02*
X0396642Y0190526D01*
X0397849Y0188927D02*
X0317240Y0188927D01*
X0317240Y0187329D02*
X0400467Y0187329D01*
X0404270Y0187329D02*
X0414070Y0187329D01*
X0414070Y0188927D02*
X0406888Y0188927D01*
X0408096Y0190526D02*
X0414070Y0190526D01*
X0414070Y0192124D02*
X0408758Y0192124D01*
X0408798Y0193723D02*
X0414070Y0193723D01*
X0414070Y0195321D02*
X0408573Y0195321D01*
X0407911Y0196920D02*
X0414070Y0196920D01*
X0414070Y0198518D02*
X0406443Y0198518D01*
X0405169Y0200117D02*
X0414070Y0200117D01*
X0414070Y0201715D02*
X0405169Y0201715D01*
X0405169Y0203314D02*
X0414070Y0203314D01*
X0414070Y0204912D02*
X0405169Y0204912D01*
X0405169Y0206511D02*
X0414070Y0206511D01*
X0414070Y0208109D02*
X0405169Y0208109D01*
X0405169Y0209708D02*
X0414070Y0209708D01*
X0414070Y0211306D02*
X0405169Y0211306D01*
X0405169Y0212905D02*
X0414070Y0212905D01*
X0414070Y0214503D02*
X0405169Y0214503D01*
X0405169Y0216102D02*
X0414070Y0216102D01*
X0414070Y0217701D02*
X0405169Y0217701D01*
X0405169Y0219299D02*
X0414070Y0219299D01*
X0414070Y0220898D02*
X0405169Y0220898D01*
X0405169Y0222496D02*
X0414070Y0222496D01*
X0414070Y0224095D02*
X0405169Y0224095D01*
X0405169Y0225693D02*
X0414070Y0225693D01*
X0414070Y0227292D02*
X0405169Y0227292D01*
X0405169Y0228890D02*
X0414070Y0228890D01*
X0414070Y0230489D02*
X0405169Y0230489D01*
X0405169Y0232087D02*
X0414070Y0232087D01*
X0414070Y0233686D02*
X0405169Y0233686D01*
X0405169Y0235284D02*
X0414070Y0235284D01*
X0414070Y0236883D02*
X0405169Y0236883D01*
X0405169Y0238481D02*
X0414070Y0238481D01*
X0414070Y0240080D02*
X0405169Y0240080D01*
X0405169Y0241678D02*
X0414070Y0241678D01*
X0414070Y0243277D02*
X0405169Y0243277D01*
X0405169Y0244875D02*
X0414070Y0244875D01*
X0414070Y0246474D02*
X0405169Y0246474D01*
X0405169Y0248072D02*
X0414070Y0248072D01*
X0414070Y0249671D02*
X0405169Y0249671D01*
X0405169Y0251269D02*
X0414070Y0251269D01*
X0414070Y0252868D02*
X0405169Y0252868D01*
X0404999Y0254466D02*
X0414070Y0254466D01*
X0414070Y0256065D02*
X0403764Y0256065D01*
X0402165Y0257663D02*
X0414070Y0257663D01*
X0414070Y0259262D02*
X0400567Y0259262D01*
X0398968Y0260860D02*
X0414070Y0260860D01*
X0402369Y0253500D02*
X0397369Y0258500D01*
X0362369Y0258500D01*
X0360931Y0256065D02*
X0244246Y0256065D01*
X0246257Y0254466D02*
X0249922Y0254466D01*
X0254816Y0254466D02*
X0319375Y0254466D01*
X0317777Y0252868D02*
X0256121Y0252868D01*
X0256550Y0251269D02*
X0316178Y0251269D01*
X0314580Y0249671D02*
X0256344Y0249671D01*
X0249384Y0248072D02*
X0245390Y0248072D01*
X0243133Y0249671D02*
X0182394Y0249671D01*
X0182375Y0251269D02*
X0240640Y0251269D01*
X0239041Y0252868D02*
X0182357Y0252868D01*
X0183130Y0254466D02*
X0183734Y0254466D01*
X0179495Y0258185D02*
X0179869Y0226000D01*
X0182892Y0228890D02*
X0203188Y0228890D01*
X0203344Y0227292D02*
X0183860Y0227292D01*
X0184050Y0225693D02*
X0204263Y0225693D01*
X0207369Y0228500D02*
X0247369Y0228500D01*
X0252369Y0233500D01*
X0252369Y0236000D01*
X0253445Y0240080D02*
X0269989Y0240080D01*
X0268390Y0238481D02*
X0255801Y0238481D01*
X0256529Y0236883D02*
X0266792Y0236883D01*
X0265193Y0235284D02*
X0256550Y0235284D01*
X0255936Y0233686D02*
X0263595Y0233686D01*
X0261996Y0232087D02*
X0254814Y0232087D01*
X0253317Y0230489D02*
X0260398Y0230489D01*
X0258799Y0228890D02*
X0251719Y0228890D01*
X0250120Y0227292D02*
X0257201Y0227292D01*
X0255602Y0225693D02*
X0245986Y0225693D01*
X0246550Y0224095D02*
X0254004Y0224095D01*
X0252405Y0222496D02*
X0246479Y0222496D01*
X0245679Y0220898D02*
X0250807Y0220898D01*
X0249208Y0219299D02*
X0242128Y0219299D01*
X0239869Y0221000D02*
X0242369Y0223500D01*
X0239869Y0221000D02*
X0157369Y0221000D01*
X0137369Y0223500D01*
X0139141Y0227292D02*
X0175878Y0227292D01*
X0175688Y0225693D02*
X0142399Y0225693D01*
X0139983Y0219299D02*
X0148402Y0219299D01*
X0146339Y0217701D02*
X0247610Y0217701D01*
X0247369Y0213500D02*
X0272369Y0238500D01*
X0282290Y0238500D01*
X0292487Y0234760D02*
X0303629Y0234760D01*
X0312369Y0243500D01*
X0321109Y0252240D01*
X0342251Y0252240D01*
X0346200Y0252868D02*
X0348699Y0252868D01*
X0348699Y0252240D02*
X0352448Y0252240D01*
X0352448Y0252240D01*
X0356197Y0252240D01*
X0356197Y0251300D01*
X0364256Y0251300D01*
X0365001Y0252045D01*
X0366537Y0252681D01*
X0368201Y0252681D01*
X0369737Y0252045D01*
X0370914Y0250868D01*
X0371550Y0249332D01*
X0371550Y0247668D01*
X0370914Y0246132D01*
X0369737Y0244955D01*
X0368201Y0244319D01*
X0366537Y0244319D01*
X0365001Y0244955D01*
X0364256Y0245700D01*
X0356197Y0245700D01*
X0356197Y0244760D01*
X0352448Y0244760D01*
X0352448Y0244760D01*
X0356197Y0244760D01*
X0356197Y0243165D01*
X0356074Y0242707D01*
X0355837Y0242296D01*
X0355502Y0241961D01*
X0355091Y0241724D01*
X0354633Y0241602D01*
X0352448Y0241602D01*
X0352448Y0244760D01*
X0352448Y0244760D01*
X0352448Y0244760D01*
X0348699Y0244760D01*
X0348699Y0246113D01*
X0348499Y0246313D01*
X0348499Y0250687D01*
X0348699Y0250887D01*
X0348699Y0252240D01*
X0352448Y0252240D01*
X0356197Y0252240D01*
X0356197Y0253835D01*
X0356074Y0254293D01*
X0355837Y0254704D01*
X0355502Y0255039D01*
X0355091Y0255276D01*
X0354633Y0255398D01*
X0352448Y0255398D01*
X0352448Y0252240D01*
X0352448Y0252240D01*
X0352448Y0252240D01*
X0352448Y0255398D01*
X0350262Y0255398D01*
X0349804Y0255276D01*
X0349394Y0255039D01*
X0349059Y0254704D01*
X0348822Y0254293D01*
X0348699Y0253835D01*
X0348699Y0252240D01*
X0348699Y0251269D02*
X0346200Y0251269D01*
X0345817Y0249671D02*
X0348499Y0249671D01*
X0348499Y0248072D02*
X0345074Y0248072D01*
X0345028Y0248118D02*
X0339474Y0248118D01*
X0338915Y0247560D01*
X0336687Y0247560D01*
X0335972Y0248275D01*
X0328766Y0248275D01*
X0327594Y0247103D01*
X0327594Y0239897D01*
X0328766Y0238725D01*
X0335972Y0238725D01*
X0337144Y0239897D01*
X0337144Y0241960D01*
X0338915Y0241960D01*
X0339474Y0241402D01*
X0345028Y0241402D01*
X0346200Y0242573D01*
X0346200Y0246947D01*
X0345028Y0248118D01*
X0346200Y0246474D02*
X0348499Y0246474D01*
X0348699Y0244875D02*
X0346200Y0244875D01*
X0346200Y0243277D02*
X0348699Y0243277D01*
X0348699Y0243165D02*
X0348822Y0242707D01*
X0349059Y0242296D01*
X0349394Y0241961D01*
X0349804Y0241724D01*
X0350262Y0241602D01*
X0352448Y0241602D01*
X0352448Y0244760D01*
X0348699Y0244760D01*
X0348699Y0243165D01*
X0349976Y0241678D02*
X0345305Y0241678D01*
X0342251Y0244760D02*
X0333629Y0244760D01*
X0332369Y0243500D01*
X0327594Y0243277D02*
X0326944Y0243277D01*
X0326944Y0244875D02*
X0327594Y0244875D01*
X0327594Y0246474D02*
X0326944Y0246474D01*
X0325390Y0248072D02*
X0328563Y0248072D01*
X0322369Y0248072D02*
X0322369Y0248072D01*
X0322369Y0246474D02*
X0322369Y0246474D01*
X0322369Y0244875D02*
X0322369Y0244875D01*
X0322369Y0243500D02*
X0322369Y0243500D01*
X0322369Y0238925D01*
X0319357Y0238925D01*
X0318899Y0239048D01*
X0318489Y0239285D01*
X0318154Y0239620D01*
X0317917Y0240030D01*
X0317794Y0240488D01*
X0317794Y0243500D01*
X0322369Y0243500D01*
X0322369Y0243277D02*
X0322369Y0243277D01*
X0322369Y0241678D02*
X0322369Y0241678D01*
X0322369Y0240080D02*
X0322369Y0240080D01*
X0326834Y0240080D02*
X0327594Y0240080D01*
X0327594Y0241678D02*
X0326944Y0241678D01*
X0317794Y0241678D02*
X0317144Y0241678D01*
X0317144Y0240080D02*
X0317904Y0240080D01*
X0317794Y0243277D02*
X0317144Y0243277D01*
X0317704Y0244875D02*
X0317794Y0244875D01*
X0311310Y0238481D02*
X0399569Y0238481D01*
X0399569Y0236883D02*
X0309711Y0236883D01*
X0308113Y0235284D02*
X0399569Y0235284D01*
X0399569Y0233686D02*
X0306514Y0233686D01*
X0304493Y0232087D02*
X0399569Y0232087D01*
X0399569Y0230489D02*
X0295287Y0230489D01*
X0295287Y0228890D02*
X0399569Y0228890D01*
X0399569Y0227292D02*
X0295287Y0227292D01*
X0295287Y0225693D02*
X0399569Y0225693D01*
X0399569Y0224095D02*
X0295287Y0224095D01*
X0295287Y0222496D02*
X0399569Y0222496D01*
X0399569Y0220898D02*
X0295287Y0220898D01*
X0295287Y0219299D02*
X0399569Y0219299D01*
X0399569Y0217701D02*
X0295287Y0217701D01*
X0295287Y0216102D02*
X0399569Y0216102D01*
X0399569Y0214503D02*
X0295287Y0214503D01*
X0295287Y0212905D02*
X0399569Y0212905D01*
X0399569Y0211306D02*
X0295287Y0211306D01*
X0295287Y0209708D02*
X0399569Y0209708D01*
X0399569Y0208109D02*
X0295287Y0208109D01*
X0294615Y0206511D02*
X0399569Y0206511D01*
X0399569Y0204912D02*
X0293030Y0204912D01*
X0293030Y0203314D02*
X0399569Y0203314D01*
X0399569Y0201715D02*
X0316660Y0201715D01*
X0317240Y0200117D02*
X0399569Y0200117D01*
X0398295Y0198518D02*
X0317240Y0198518D01*
X0317240Y0196920D02*
X0396827Y0196920D01*
X0396165Y0195321D02*
X0317240Y0195321D01*
X0311909Y0196920D02*
X0310309Y0196920D01*
X0310309Y0198518D02*
X0311909Y0198518D01*
X0311909Y0200117D02*
X0310309Y0200117D01*
X0310309Y0201715D02*
X0311909Y0201715D01*
X0305558Y0201715D02*
X0293030Y0201715D01*
X0293030Y0200117D02*
X0304978Y0200117D01*
X0304978Y0198518D02*
X0292184Y0198518D01*
X0292498Y0196920D02*
X0304978Y0196920D01*
X0304978Y0195321D02*
X0292830Y0195321D01*
X0292830Y0193119D02*
X0287081Y0193119D01*
X0287081Y0189338D01*
X0291267Y0189338D01*
X0291725Y0189460D01*
X0292136Y0189697D01*
X0292471Y0190033D01*
X0292708Y0190443D01*
X0292830Y0190901D01*
X0292830Y0193119D01*
X0292830Y0192124D02*
X0304978Y0192124D01*
X0304978Y0190526D02*
X0292730Y0190526D01*
X0293030Y0187329D02*
X0304978Y0187329D01*
X0304978Y0188927D02*
X0276137Y0188927D01*
X0276137Y0189249D02*
X0276137Y0187031D01*
X0272553Y0187031D01*
X0272553Y0190812D01*
X0274574Y0190812D01*
X0275032Y0190689D01*
X0275443Y0190452D01*
X0275778Y0190117D01*
X0276015Y0189707D01*
X0276137Y0189249D01*
X0275315Y0190526D02*
X0280669Y0190526D01*
X0280569Y0192124D02*
X0275917Y0192124D01*
X0272553Y0192124D02*
X0272185Y0192124D01*
X0272185Y0190526D02*
X0272553Y0190526D01*
X0272553Y0188927D02*
X0272185Y0188927D01*
X0272185Y0187329D02*
X0272553Y0187329D01*
X0276137Y0187329D02*
X0280369Y0187329D01*
X0280369Y0185730D02*
X0276137Y0185730D01*
X0276054Y0184132D02*
X0280369Y0184132D01*
X0282408Y0180154D02*
X0286700Y0184445D01*
X0282408Y0180154D02*
X0272369Y0180154D01*
X0265715Y0180154D01*
X0264231Y0177738D02*
X0165020Y0177738D01*
X0166205Y0179336D02*
X0261495Y0179336D01*
X0259021Y0180935D02*
X0166550Y0180935D01*
X0166259Y0182533D02*
X0258244Y0182533D01*
X0258188Y0184132D02*
X0165150Y0184132D01*
X0162369Y0181000D02*
X0152369Y0181000D01*
X0130007Y0180902D01*
X0130007Y0184051D02*
X0152369Y0186000D01*
X0152369Y0188500D01*
X0149952Y0191431D02*
X0134658Y0188881D01*
X0134658Y0188605D01*
X0133721Y0187668D01*
X0130474Y0187668D01*
X0130007Y0187201D01*
X0134658Y0188605D02*
X0134658Y0188881D01*
X0135058Y0192124D02*
X0137083Y0192124D01*
X0135058Y0193723D02*
X0146674Y0193723D01*
X0149952Y0191431D02*
X0150803Y0192281D01*
X0153935Y0192281D01*
X0154095Y0192121D01*
X0177369Y0196000D01*
X0180764Y0198518D02*
X0183295Y0198518D01*
X0181827Y0196920D02*
X0181514Y0196920D01*
X0180980Y0192124D02*
X0178938Y0192124D01*
X0175800Y0192124D02*
X0171147Y0192124D01*
X0173974Y0198518D02*
X0135058Y0198518D01*
X0134858Y0196920D02*
X0165857Y0196920D01*
X0161556Y0190526D02*
X0181642Y0190526D01*
X0182849Y0188927D02*
X0156550Y0188927D01*
X0156409Y0187329D02*
X0185467Y0187329D01*
X0159588Y0184132D02*
X0154461Y0184132D01*
X0155512Y0185730D02*
X0258767Y0185730D01*
X0269421Y0176139D02*
X0135058Y0176139D01*
X0135058Y0177738D02*
X0159718Y0177738D01*
X0147958Y0163351D02*
X0213775Y0163351D01*
X0213282Y0161753D02*
X0148597Y0161753D01*
X0148597Y0160154D02*
X0213282Y0160154D01*
X0213798Y0158556D02*
X0147904Y0158556D01*
X0145629Y0156957D02*
X0214846Y0156957D01*
X0214792Y0164950D02*
X0145759Y0164950D01*
X0143073Y0164950D02*
X0132989Y0164950D01*
X0131391Y0166548D02*
X0217147Y0166548D01*
X0221292Y0166548D02*
X0268600Y0166548D01*
X0268600Y0164969D02*
X0268600Y0162751D01*
X0268723Y0162293D01*
X0268960Y0161883D01*
X0269295Y0161548D01*
X0269706Y0161311D01*
X0270163Y0161188D01*
X0272185Y0161188D01*
X0272185Y0164969D01*
X0268600Y0164969D01*
X0268600Y0164950D02*
X0223646Y0164950D01*
X0224663Y0163351D02*
X0268600Y0163351D01*
X0269090Y0161753D02*
X0225156Y0161753D01*
X0225156Y0160154D02*
X0268714Y0160154D01*
X0268400Y0158556D02*
X0224641Y0158556D01*
X0223592Y0156957D02*
X0233338Y0156957D01*
X0236596Y0156957D02*
X0268400Y0156957D01*
X0268629Y0153106D02*
X0272369Y0156846D01*
X0285046Y0156846D01*
X0286700Y0158500D01*
X0287081Y0153607D02*
X0287081Y0149826D01*
X0292830Y0149826D01*
X0292830Y0152044D01*
X0292708Y0152502D01*
X0292471Y0152912D01*
X0292136Y0153247D01*
X0291725Y0153484D01*
X0291267Y0153607D01*
X0287081Y0153607D01*
X0286319Y0153607D02*
X0282132Y0153607D01*
X0281674Y0153484D01*
X0281264Y0153247D01*
X0280929Y0152912D01*
X0280692Y0152502D01*
X0280569Y0152044D01*
X0280569Y0149826D01*
X0286318Y0149826D01*
X0286318Y0149064D01*
X0280569Y0149064D01*
X0280569Y0146846D01*
X0280692Y0146388D01*
X0280929Y0145977D01*
X0281264Y0145642D01*
X0281674Y0145405D01*
X0282132Y0145283D01*
X0286319Y0145283D01*
X0286319Y0149064D01*
X0287081Y0149064D01*
X0287081Y0149826D01*
X0286319Y0149826D01*
X0286319Y0153607D01*
X0286319Y0152162D02*
X0287081Y0152162D01*
X0287081Y0150563D02*
X0286319Y0150563D01*
X0286319Y0148965D02*
X0287081Y0148965D01*
X0287081Y0149064D02*
X0287081Y0145283D01*
X0291267Y0145283D01*
X0291725Y0145405D01*
X0292136Y0145642D01*
X0292471Y0145977D01*
X0292708Y0146388D01*
X0292830Y0146846D01*
X0292830Y0149064D01*
X0287081Y0149064D01*
X0287081Y0147366D02*
X0286319Y0147366D01*
X0286319Y0145768D02*
X0287081Y0145768D01*
X0292261Y0145768D02*
X0414070Y0145768D01*
X0414070Y0147366D02*
X0292830Y0147366D01*
X0292830Y0148965D02*
X0414070Y0148965D01*
X0414070Y0150563D02*
X0317221Y0150563D01*
X0317440Y0150782D02*
X0317440Y0166218D01*
X0316268Y0167390D01*
X0305950Y0167390D01*
X0304778Y0166218D01*
X0304778Y0150782D01*
X0305950Y0149610D01*
X0316268Y0149610D01*
X0317440Y0150782D01*
X0317440Y0152162D02*
X0414070Y0152162D01*
X0414070Y0153760D02*
X0317440Y0153760D01*
X0317440Y0155359D02*
X0414070Y0155359D01*
X0414070Y0156957D02*
X0317440Y0156957D01*
X0317440Y0158556D02*
X0414070Y0158556D01*
X0414070Y0160154D02*
X0317440Y0160154D01*
X0317440Y0161753D02*
X0414070Y0161753D01*
X0414070Y0163351D02*
X0317440Y0163351D01*
X0317440Y0164950D02*
X0414070Y0164950D01*
X0414070Y0166548D02*
X0317110Y0166548D01*
X0305108Y0166548D02*
X0293030Y0166548D01*
X0293030Y0164950D02*
X0304778Y0164950D01*
X0304778Y0163351D02*
X0292017Y0163351D01*
X0292968Y0161753D02*
X0304778Y0161753D01*
X0304778Y0160154D02*
X0293030Y0160154D01*
X0293030Y0158556D02*
X0304778Y0158556D01*
X0304778Y0156957D02*
X0293030Y0156957D01*
X0293030Y0155359D02*
X0304778Y0155359D01*
X0304778Y0153760D02*
X0276245Y0153760D01*
X0276137Y0152162D02*
X0280600Y0152162D01*
X0280569Y0150563D02*
X0276137Y0150563D01*
X0276137Y0148965D02*
X0280569Y0148965D01*
X0280569Y0147366D02*
X0276034Y0147366D01*
X0272553Y0147366D02*
X0272185Y0147366D01*
X0272185Y0146188D02*
X0272185Y0149969D01*
X0268600Y0149969D01*
X0268600Y0147751D01*
X0268723Y0147293D01*
X0268960Y0146883D01*
X0269295Y0146548D01*
X0269706Y0146311D01*
X0270163Y0146188D01*
X0272185Y0146188D01*
X0272185Y0148965D02*
X0272553Y0148965D01*
X0268600Y0148965D02*
X0235894Y0148965D01*
X0234041Y0148965D02*
X0087608Y0148965D01*
X0087604Y0150563D02*
X0103869Y0150563D01*
X0102031Y0152162D02*
X0087599Y0152162D01*
X0087595Y0153760D02*
X0100433Y0153760D01*
X0098834Y0155359D02*
X0087591Y0155359D01*
X0087587Y0156957D02*
X0097236Y0156957D01*
X0095637Y0158556D02*
X0087582Y0158556D01*
X0087578Y0160154D02*
X0095120Y0160154D01*
X0095120Y0161753D02*
X0087574Y0161753D01*
X0087570Y0163351D02*
X0095120Y0163351D01*
X0095120Y0164950D02*
X0087565Y0164950D01*
X0087561Y0166548D02*
X0088973Y0166548D01*
X0088538Y0168147D02*
X0087557Y0168147D01*
X0087552Y0169745D02*
X0088538Y0169745D01*
X0088538Y0171344D02*
X0087548Y0171344D01*
X0087544Y0172942D02*
X0088538Y0172942D01*
X0088538Y0174541D02*
X0087540Y0174541D01*
X0089782Y0175913D02*
X0089782Y0195411D01*
X0089582Y0195611D01*
X0089582Y0196650D01*
X0089582Y0196999D01*
X0095120Y0196999D01*
X0095120Y0175913D01*
X0093532Y0175913D01*
X0089782Y0175913D01*
X0089782Y0176139D02*
X0095120Y0176139D01*
X0095120Y0177738D02*
X0089782Y0177738D01*
X0089782Y0179336D02*
X0095120Y0179336D01*
X0095120Y0180935D02*
X0089782Y0180935D01*
X0089782Y0182533D02*
X0095120Y0182533D01*
X0095120Y0184132D02*
X0089782Y0184132D01*
X0089782Y0185730D02*
X0095120Y0185730D01*
X0095120Y0187329D02*
X0089782Y0187329D01*
X0089782Y0188927D02*
X0095120Y0188927D01*
X0095120Y0190526D02*
X0089782Y0190526D01*
X0089782Y0192124D02*
X0095120Y0192124D01*
X0095120Y0193723D02*
X0089782Y0193723D01*
X0089782Y0195321D02*
X0095120Y0195321D01*
X0095120Y0196920D02*
X0089582Y0196920D01*
X0089582Y0196650D02*
X0084731Y0196650D01*
X0084264Y0197117D01*
X0080721Y0197117D01*
X0077487Y0200350D01*
X0045991Y0200350D01*
X0045991Y0190961D01*
X0052645Y0190961D01*
X0052645Y0190960D02*
X0052645Y0187980D01*
X0052645Y0186039D01*
X0052644Y0186039D01*
X0048285Y0186039D01*
X0048285Y0184621D01*
X0048408Y0184163D01*
X0048550Y0183918D01*
X0047275Y0183918D01*
X0047275Y0189639D01*
X0046849Y0190668D01*
X0046391Y0191126D01*
X0046391Y0199950D01*
X0077321Y0199950D01*
X0079846Y0197425D01*
X0079880Y0197412D01*
X0079880Y0196688D01*
X0075763Y0197010D01*
X0074763Y0198010D01*
X0073227Y0198647D01*
X0071563Y0198647D01*
X0070027Y0198010D01*
X0068850Y0196834D01*
X0068214Y0195297D01*
X0068214Y0193634D01*
X0068229Y0193596D01*
X0066425Y0193645D01*
X0066652Y0193872D01*
X0066652Y0197891D01*
X0065481Y0199063D01*
X0058706Y0199063D01*
X0058325Y0198682D01*
X0056413Y0198682D01*
X0056032Y0199063D01*
X0049257Y0199063D01*
X0048085Y0197891D01*
X0048085Y0193872D01*
X0048678Y0193280D01*
X0048645Y0193247D01*
X0048408Y0192837D01*
X0048285Y0192379D01*
X0048285Y0190961D01*
X0052644Y0190961D01*
X0052644Y0190961D01*
X0048285Y0190961D01*
X0048285Y0189543D01*
X0048408Y0189085D01*
X0048645Y0188674D01*
X0048819Y0188500D01*
X0048645Y0188326D01*
X0048408Y0187915D01*
X0048285Y0187457D01*
X0048285Y0186039D01*
X0052644Y0186039D01*
X0052644Y0186039D01*
X0052644Y0190960D01*
X0052645Y0190960D01*
X0052644Y0190526D02*
X0052645Y0190526D01*
X0052644Y0188927D02*
X0052645Y0188927D01*
X0052644Y0187329D02*
X0052645Y0187329D01*
X0048285Y0187329D02*
X0047275Y0187329D01*
X0047275Y0188927D02*
X0048499Y0188927D01*
X0048285Y0190526D02*
X0046908Y0190526D01*
X0046391Y0192124D02*
X0048285Y0192124D01*
X0048235Y0193723D02*
X0046391Y0193723D01*
X0046391Y0195321D02*
X0048085Y0195321D01*
X0048085Y0196920D02*
X0046391Y0196920D01*
X0046391Y0198518D02*
X0048712Y0198518D01*
X0052645Y0195882D02*
X0057369Y0195882D01*
X0057369Y0176000D01*
X0061845Y0177317D01*
X0068303Y0177219D01*
X0071435Y0177219D01*
X0073650Y0179434D01*
X0074969Y0179822D01*
X0074969Y0181994D01*
X0076375Y0183400D01*
X0078903Y0183400D01*
X0078924Y0183420D01*
X0079894Y0183400D01*
X0080833Y0183400D01*
X0081017Y0183584D01*
X0083144Y0183584D01*
X0084731Y0184051D01*
X0084731Y0180902D02*
X0081484Y0180902D01*
X0080080Y0179497D01*
X0080080Y0179321D01*
X0077487Y0176728D01*
X0077487Y0121610D01*
X0081424Y0117673D01*
X0097172Y0117673D01*
X0112920Y0133421D01*
X0132605Y0133421D01*
X0132605Y0118236D01*
X0132369Y0118000D01*
X0129385Y0118593D02*
X0122853Y0118593D01*
X0122853Y0119813D02*
X0122669Y0119997D01*
X0122669Y0122887D01*
X0123414Y0123632D01*
X0124050Y0125168D01*
X0124050Y0126832D01*
X0123414Y0128368D01*
X0122237Y0129545D01*
X0120701Y0130181D01*
X0119037Y0130181D01*
X0117501Y0129545D01*
X0116324Y0128368D01*
X0115688Y0126832D01*
X0115688Y0125168D01*
X0116324Y0123632D01*
X0117069Y0122887D01*
X0117069Y0119997D01*
X0116885Y0119813D01*
X0116885Y0116187D01*
X0117072Y0116000D01*
X0116885Y0115813D01*
X0116885Y0113241D01*
X0116361Y0110362D01*
X0116009Y0110362D01*
X0114837Y0109191D01*
X0114837Y0103138D01*
X0114630Y0103138D01*
X0114700Y0103401D01*
X0114700Y0106000D01*
X0114700Y0108599D01*
X0114578Y0109057D01*
X0114341Y0109467D01*
X0114006Y0109803D01*
X0113595Y0110040D01*
X0113137Y0110162D01*
X0111326Y0110162D01*
X0111326Y0106000D01*
X0114700Y0106000D01*
X0111326Y0106000D01*
X0111326Y0106000D01*
X0111326Y0106000D01*
X0111326Y0110162D01*
X0109514Y0110162D01*
X0109056Y0110040D01*
X0108646Y0109803D01*
X0108310Y0109467D01*
X0108074Y0109057D01*
X0107951Y0108599D01*
X0107951Y0106000D01*
X0107951Y0103401D01*
X0108021Y0103138D01*
X0103273Y0103138D01*
X0102920Y0102785D01*
X0102567Y0103138D01*
X0096974Y0103138D01*
X0096621Y0102785D01*
X0096268Y0103138D01*
X0090674Y0103138D01*
X0090322Y0102785D01*
X0089969Y0103138D01*
X0084375Y0103138D01*
X0084022Y0102785D01*
X0083693Y0103114D01*
X0083698Y0104521D01*
X0084487Y0105309D01*
X0084487Y0111691D01*
X0083315Y0112862D01*
X0080510Y0112862D01*
X0047275Y0146097D01*
X0047275Y0175598D01*
X0048050Y0176372D01*
X0048050Y0178318D01*
X0048876Y0178318D01*
X0049257Y0177937D01*
X0054569Y0177937D01*
X0054569Y0176149D01*
X0054526Y0175744D01*
X0054569Y0175597D01*
X0054569Y0175443D01*
X0054725Y0175066D01*
X0054840Y0174675D01*
X0054936Y0174556D01*
X0054995Y0174414D01*
X0055284Y0174126D01*
X0055539Y0173808D01*
X0055674Y0173735D01*
X0055783Y0173626D01*
X0056160Y0173470D01*
X0056517Y0173275D01*
X0056670Y0173259D01*
X0056812Y0173200D01*
X0057220Y0173200D01*
X0057625Y0173157D01*
X0057772Y0173200D01*
X0057926Y0173200D01*
X0058303Y0173356D01*
X0062227Y0174511D01*
X0067725Y0174427D01*
X0067746Y0174419D01*
X0068282Y0174419D01*
X0068817Y0174411D01*
X0068838Y0174419D01*
X0071992Y0174419D01*
X0073021Y0174845D01*
X0074687Y0176511D01*
X0074687Y0121053D01*
X0075113Y0120024D01*
X0079050Y0116087D01*
X0079838Y0115299D01*
X0080867Y0114873D01*
X0097729Y0114873D01*
X0098758Y0115299D01*
X0114080Y0130621D01*
X0129805Y0130621D01*
X0129805Y0120233D01*
X0129385Y0119813D01*
X0129385Y0116187D01*
X0129572Y0116000D01*
X0129385Y0115813D01*
X0129385Y0112769D01*
X0129071Y0110362D01*
X0128922Y0110362D01*
X0127751Y0109191D01*
X0127751Y0102809D01*
X0127901Y0102659D01*
X0127631Y0102815D01*
X0127173Y0102938D01*
X0125152Y0102938D01*
X0125152Y0097385D01*
X0124783Y0097385D01*
X0124783Y0102938D01*
X0122762Y0102938D01*
X0122304Y0102815D01*
X0121977Y0102626D01*
X0121890Y0102713D01*
X0121987Y0102809D01*
X0121987Y0109191D01*
X0121862Y0109316D01*
X0122281Y0111615D01*
X0122853Y0112187D01*
X0122853Y0115813D01*
X0122666Y0116000D01*
X0122853Y0116187D01*
X0122853Y0119813D01*
X0122669Y0120191D02*
X0129763Y0120191D01*
X0129805Y0121790D02*
X0122669Y0121790D01*
X0123170Y0123388D02*
X0129805Y0123388D01*
X0129805Y0124987D02*
X0123975Y0124987D01*
X0124050Y0126585D02*
X0129805Y0126585D01*
X0129805Y0128184D02*
X0123490Y0128184D01*
X0121663Y0129782D02*
X0129805Y0129782D01*
X0135405Y0129782D02*
X0414070Y0129782D01*
X0414070Y0128184D02*
X0135405Y0128184D01*
X0135405Y0126585D02*
X0414070Y0126585D01*
X0414070Y0124987D02*
X0135405Y0124987D01*
X0135405Y0123388D02*
X0183165Y0123388D01*
X0183727Y0123950D02*
X0181919Y0122142D01*
X0180940Y0119779D01*
X0180940Y0117221D01*
X0181919Y0114858D01*
X0183727Y0113050D01*
X0186035Y0112094D01*
X0201391Y0048503D01*
X0200029Y0047142D01*
X0199050Y0044779D01*
X0199050Y0042221D01*
X0200029Y0039858D01*
X0201837Y0038050D01*
X0204200Y0037071D01*
X0206758Y0037071D01*
X0209121Y0038050D01*
X0210930Y0039858D01*
X0211908Y0042221D01*
X0211908Y0044779D01*
X0210930Y0047142D01*
X0209121Y0048950D01*
X0206813Y0049906D01*
X0191458Y0113496D01*
X0192819Y0114858D01*
X0193798Y0117221D01*
X0193798Y0119779D01*
X0192819Y0122142D01*
X0191011Y0123950D01*
X0188648Y0124929D01*
X0186090Y0124929D01*
X0183727Y0123950D01*
X0181773Y0121790D02*
X0135405Y0121790D01*
X0135405Y0120191D02*
X0181111Y0120191D01*
X0180940Y0118593D02*
X0135405Y0118593D01*
X0135353Y0116994D02*
X0181034Y0116994D01*
X0181696Y0115396D02*
X0135353Y0115396D01*
X0135353Y0113797D02*
X0182980Y0113797D01*
X0185781Y0112199D02*
X0135353Y0112199D01*
X0134749Y0110600D02*
X0186396Y0110600D01*
X0186782Y0109002D02*
X0141679Y0109002D01*
X0141787Y0107403D02*
X0187168Y0107403D01*
X0187554Y0105805D02*
X0141787Y0105805D01*
X0141787Y0106000D02*
X0138412Y0106000D01*
X0138412Y0110162D01*
X0138412Y0106000D01*
X0138412Y0106000D01*
X0141787Y0106000D01*
X0141787Y0104206D02*
X0187940Y0104206D01*
X0188326Y0102608D02*
X0159486Y0102608D01*
X0160232Y0101009D02*
X0188712Y0101009D01*
X0189098Y0099411D02*
X0160232Y0099411D01*
X0160232Y0097812D02*
X0189484Y0097812D01*
X0189870Y0096214D02*
X0160232Y0096214D01*
X0160232Y0094615D02*
X0190256Y0094615D01*
X0190642Y0093017D02*
X0160229Y0093017D01*
X0156648Y0093017D02*
X0156279Y0093017D01*
X0156279Y0094615D02*
X0156648Y0094615D01*
X0156648Y0096214D02*
X0156279Y0096214D01*
X0156279Y0097812D02*
X0156648Y0097812D01*
X0156648Y0099411D02*
X0156279Y0099411D01*
X0156279Y0101009D02*
X0156648Y0101009D01*
X0156648Y0102608D02*
X0156279Y0102608D01*
X0153115Y0091418D02*
X0191028Y0091418D01*
X0191414Y0089820D02*
X0090345Y0089820D01*
X0090520Y0091418D02*
X0090123Y0091418D01*
X0091943Y0088221D02*
X0153120Y0088221D01*
X0153667Y0088768D02*
X0152495Y0087596D01*
X0152495Y0082002D01*
X0152848Y0081650D01*
X0152495Y0081297D01*
X0152495Y0075703D01*
X0152848Y0075350D01*
X0152495Y0074998D01*
X0152495Y0069404D01*
X0153667Y0068232D01*
X0163197Y0068232D01*
X0164369Y0069404D01*
X0164369Y0074998D01*
X0164016Y0075350D01*
X0164369Y0075703D01*
X0164369Y0081297D01*
X0164016Y0081650D01*
X0164369Y0082002D01*
X0164369Y0087596D01*
X0163197Y0088768D01*
X0153667Y0088768D01*
X0152495Y0086623D02*
X0093542Y0086623D01*
X0095140Y0085024D02*
X0152495Y0085024D01*
X0152495Y0083426D02*
X0096739Y0083426D01*
X0098337Y0081827D02*
X0152670Y0081827D01*
X0152495Y0080229D02*
X0099936Y0080229D01*
X0101534Y0078630D02*
X0152495Y0078630D01*
X0152495Y0077032D02*
X0103133Y0077032D01*
X0104731Y0075433D02*
X0152765Y0075433D01*
X0152495Y0073834D02*
X0106330Y0073834D01*
X0107928Y0072236D02*
X0152495Y0072236D01*
X0152495Y0070637D02*
X0109527Y0070637D01*
X0111125Y0069039D02*
X0152860Y0069039D01*
X0156279Y0064243D02*
X0156648Y0064243D01*
X0156648Y0062645D02*
X0156279Y0062645D01*
X0156279Y0061046D02*
X0156648Y0061046D01*
X0156648Y0059615D02*
X0160232Y0059615D01*
X0160232Y0055625D01*
X0160109Y0055167D01*
X0159872Y0054757D01*
X0159537Y0054422D01*
X0159127Y0054185D01*
X0158669Y0054062D01*
X0156648Y0054062D01*
X0156648Y0059615D01*
X0156648Y0059448D02*
X0156279Y0059448D01*
X0156279Y0057849D02*
X0156648Y0057849D01*
X0156648Y0056251D02*
X0156279Y0056251D01*
X0156279Y0054652D02*
X0156648Y0054652D01*
X0159768Y0054652D02*
X0199906Y0054652D01*
X0200292Y0053054D02*
X0121626Y0053054D01*
X0122897Y0051967D02*
X0122660Y0051557D01*
X0122537Y0051099D01*
X0122537Y0048500D01*
X0125912Y0048500D01*
X0125912Y0048500D01*
X0122537Y0048500D01*
X0122537Y0045901D01*
X0122660Y0045443D01*
X0122897Y0045033D01*
X0123232Y0044697D01*
X0123643Y0044460D01*
X0124100Y0044338D01*
X0125912Y0044338D01*
X0125912Y0048500D01*
X0125912Y0052662D01*
X0124100Y0052662D01*
X0123643Y0052540D01*
X0123232Y0052303D01*
X0122897Y0051967D01*
X0122633Y0051455D02*
X0122400Y0051455D01*
X0122400Y0049857D02*
X0122537Y0049857D01*
X0122537Y0048258D02*
X0122400Y0048258D01*
X0122400Y0046660D02*
X0122537Y0046660D01*
X0122880Y0045061D02*
X0122152Y0045061D01*
X0125912Y0045061D02*
X0125912Y0045061D01*
X0125912Y0044338D02*
X0127724Y0044338D01*
X0128182Y0044460D01*
X0128592Y0044697D01*
X0128927Y0045033D01*
X0129164Y0045443D01*
X0129287Y0045901D01*
X0129287Y0048500D01*
X0129287Y0051099D01*
X0129164Y0051557D01*
X0128927Y0051967D01*
X0128592Y0052303D01*
X0128182Y0052540D01*
X0127724Y0052662D01*
X0125912Y0052662D01*
X0125912Y0048500D01*
X0125912Y0048500D01*
X0125912Y0048500D01*
X0125912Y0044338D01*
X0125912Y0046660D02*
X0125912Y0046660D01*
X0125912Y0048258D02*
X0125912Y0048258D01*
X0125912Y0048500D02*
X0125912Y0048500D01*
X0129287Y0048500D01*
X0125912Y0048500D01*
X0125912Y0049857D02*
X0125912Y0049857D01*
X0125912Y0051455D02*
X0125912Y0051455D01*
X0129192Y0051455D02*
X0200678Y0051455D01*
X0201064Y0049857D02*
X0129287Y0049857D01*
X0129287Y0048258D02*
X0201145Y0048258D01*
X0199829Y0046660D02*
X0129287Y0046660D01*
X0128944Y0045061D02*
X0199167Y0045061D01*
X0199050Y0043463D02*
X0056156Y0043463D01*
X0056156Y0042824D02*
X0056156Y0044176D01*
X0061679Y0044176D01*
X0061555Y0044959D01*
X0061252Y0045891D01*
X0060807Y0046765D01*
X0060230Y0047558D01*
X0059537Y0048251D01*
X0058744Y0048828D01*
X0057870Y0049273D01*
X0056938Y0049576D01*
X0056156Y0049700D01*
X0056156Y0044176D01*
X0054803Y0044176D01*
X0054803Y0042824D01*
X0049280Y0042824D01*
X0049403Y0042041D01*
X0049706Y0041109D01*
X0050152Y0040235D01*
X0050728Y0039442D01*
X0051421Y0038749D01*
X0052214Y0038172D01*
X0053088Y0037727D01*
X0054021Y0037424D01*
X0054803Y0037300D01*
X0054803Y0042824D01*
X0056156Y0042824D01*
X0061679Y0042824D01*
X0061555Y0042041D01*
X0061252Y0041109D01*
X0060807Y0040235D01*
X0060230Y0039442D01*
X0059537Y0038749D01*
X0058744Y0038172D01*
X0057870Y0037727D01*
X0056938Y0037424D01*
X0056156Y0037300D01*
X0056156Y0042824D01*
X0056156Y0041864D02*
X0054803Y0041864D01*
X0054803Y0040266D02*
X0056156Y0040266D01*
X0056156Y0038667D02*
X0054803Y0038667D01*
X0051533Y0038667D02*
X0024369Y0038667D01*
X0024369Y0037069D02*
X0414070Y0037069D01*
X0414070Y0038667D02*
X0386943Y0038667D01*
X0386326Y0038050D02*
X0388134Y0039858D01*
X0389113Y0042221D01*
X0389113Y0044779D01*
X0388134Y0047142D01*
X0386867Y0048409D01*
X0403576Y0112071D01*
X0403648Y0112071D01*
X0406011Y0113050D01*
X0407819Y0114858D01*
X0408798Y0117221D01*
X0408798Y0119779D01*
X0407819Y0122142D01*
X0406011Y0123950D01*
X0403648Y0124929D01*
X0401090Y0124929D01*
X0398727Y0123950D01*
X0396919Y0122142D01*
X0395940Y0119779D01*
X0395940Y0117221D01*
X0396919Y0114858D01*
X0398186Y0113591D01*
X0381477Y0049929D01*
X0381405Y0049929D01*
X0379042Y0048950D01*
X0377234Y0047142D01*
X0376255Y0044779D01*
X0376255Y0042221D01*
X0377234Y0039858D01*
X0379042Y0038050D01*
X0381405Y0037071D01*
X0383963Y0037071D01*
X0386326Y0038050D01*
X0388303Y0040266D02*
X0414070Y0040266D01*
X0414070Y0041864D02*
X0388965Y0041864D01*
X0389113Y0043463D02*
X0414070Y0043463D01*
X0414070Y0045061D02*
X0388996Y0045061D01*
X0388334Y0046660D02*
X0414070Y0046660D01*
X0414070Y0048258D02*
X0387018Y0048258D01*
X0387247Y0049857D02*
X0414070Y0049857D01*
X0414070Y0051455D02*
X0387667Y0051455D01*
X0388086Y0053054D02*
X0414070Y0053054D01*
X0414070Y0054652D02*
X0388506Y0054652D01*
X0388925Y0056251D02*
X0414070Y0056251D01*
X0414070Y0057849D02*
X0389345Y0057849D01*
X0389765Y0059448D02*
X0414070Y0059448D01*
X0414070Y0061046D02*
X0390184Y0061046D01*
X0390604Y0062645D02*
X0414070Y0062645D01*
X0414070Y0064243D02*
X0391023Y0064243D01*
X0391443Y0065842D02*
X0414070Y0065842D01*
X0414070Y0067440D02*
X0391862Y0067440D01*
X0392282Y0069039D02*
X0414070Y0069039D01*
X0414070Y0070637D02*
X0392701Y0070637D01*
X0393121Y0072236D02*
X0414070Y0072236D01*
X0414070Y0073834D02*
X0393541Y0073834D01*
X0393960Y0075433D02*
X0414070Y0075433D01*
X0414070Y0077032D02*
X0394380Y0077032D01*
X0394799Y0078630D02*
X0414070Y0078630D01*
X0414070Y0080229D02*
X0395219Y0080229D01*
X0395638Y0081827D02*
X0414070Y0081827D01*
X0414070Y0083426D02*
X0396058Y0083426D01*
X0396477Y0085024D02*
X0414070Y0085024D01*
X0414070Y0086623D02*
X0396897Y0086623D01*
X0397317Y0088221D02*
X0414070Y0088221D01*
X0414070Y0089820D02*
X0397736Y0089820D01*
X0398156Y0091418D02*
X0414070Y0091418D01*
X0414070Y0093017D02*
X0398575Y0093017D01*
X0398995Y0094615D02*
X0414070Y0094615D01*
X0414070Y0096214D02*
X0399414Y0096214D01*
X0399834Y0097812D02*
X0414070Y0097812D01*
X0414070Y0099411D02*
X0400253Y0099411D01*
X0400673Y0101009D02*
X0414070Y0101009D01*
X0414070Y0102608D02*
X0401093Y0102608D01*
X0401512Y0104206D02*
X0414070Y0104206D01*
X0414070Y0105805D02*
X0401932Y0105805D01*
X0402351Y0107403D02*
X0414070Y0107403D01*
X0414070Y0109002D02*
X0402771Y0109002D01*
X0403190Y0110600D02*
X0414070Y0110600D01*
X0414070Y0112199D02*
X0403957Y0112199D01*
X0406758Y0113797D02*
X0414070Y0113797D01*
X0414070Y0115396D02*
X0408042Y0115396D01*
X0408704Y0116994D02*
X0414070Y0116994D01*
X0414070Y0118593D02*
X0408798Y0118593D01*
X0408627Y0120191D02*
X0414070Y0120191D01*
X0414070Y0121790D02*
X0407965Y0121790D01*
X0406573Y0123388D02*
X0414070Y0123388D01*
X0414070Y0131381D02*
X0135405Y0131381D01*
X0135405Y0132979D02*
X0414070Y0132979D01*
X0414070Y0134578D02*
X0135157Y0134578D01*
X0133270Y0136176D02*
X0414070Y0136176D01*
X0414070Y0137775D02*
X0087638Y0137775D01*
X0087633Y0139373D02*
X0414070Y0139373D01*
X0414070Y0140972D02*
X0087629Y0140972D01*
X0087625Y0142570D02*
X0414070Y0142570D01*
X0414070Y0144169D02*
X0087621Y0144169D01*
X0087616Y0145768D02*
X0281139Y0145768D01*
X0268704Y0147366D02*
X0087612Y0147366D01*
X0082012Y0147366D02*
X0080287Y0147366D01*
X0080287Y0145768D02*
X0082016Y0145768D01*
X0082021Y0144169D02*
X0080287Y0144169D01*
X0080287Y0142570D02*
X0082025Y0142570D01*
X0082029Y0140972D02*
X0080287Y0140972D01*
X0080287Y0139373D02*
X0082033Y0139373D01*
X0082038Y0137775D02*
X0080287Y0137775D01*
X0080287Y0136176D02*
X0082042Y0136176D01*
X0082046Y0134578D02*
X0080287Y0134578D01*
X0080287Y0132979D02*
X0082050Y0132979D01*
X0082055Y0131381D02*
X0080287Y0131381D01*
X0080287Y0129782D02*
X0082059Y0129782D01*
X0082063Y0128184D02*
X0080287Y0128184D01*
X0080287Y0126585D02*
X0082067Y0126585D01*
X0082258Y0124987D02*
X0080287Y0124987D01*
X0080287Y0123388D02*
X0083857Y0123388D01*
X0084869Y0126000D02*
X0094869Y0126000D01*
X0096663Y0129782D02*
X0105321Y0129782D01*
X0103723Y0128184D02*
X0098490Y0128184D01*
X0099050Y0126585D02*
X0102124Y0126585D01*
X0100526Y0124987D02*
X0098975Y0124987D01*
X0098927Y0123388D02*
X0098170Y0123388D01*
X0097329Y0121790D02*
X0081267Y0121790D01*
X0084869Y0126000D02*
X0084731Y0177752D01*
X0081940Y0174541D02*
X0080287Y0174541D01*
X0080287Y0172942D02*
X0081944Y0172942D01*
X0081948Y0171344D02*
X0080287Y0171344D01*
X0080287Y0169745D02*
X0081952Y0169745D01*
X0081957Y0168147D02*
X0080287Y0168147D01*
X0080287Y0166548D02*
X0081961Y0166548D01*
X0081965Y0164950D02*
X0080287Y0164950D01*
X0080287Y0163351D02*
X0081969Y0163351D01*
X0081974Y0161753D02*
X0080287Y0161753D01*
X0080287Y0160154D02*
X0081978Y0160154D01*
X0081982Y0158556D02*
X0080287Y0158556D01*
X0080287Y0156957D02*
X0081987Y0156957D01*
X0081991Y0155359D02*
X0080287Y0155359D01*
X0080287Y0153760D02*
X0081995Y0153760D01*
X0081999Y0152162D02*
X0080287Y0152162D01*
X0080287Y0150563D02*
X0082004Y0150563D01*
X0082008Y0148965D02*
X0080287Y0148965D01*
X0074687Y0148965D02*
X0047275Y0148965D01*
X0047275Y0150563D02*
X0074687Y0150563D01*
X0074687Y0152162D02*
X0047275Y0152162D01*
X0047275Y0153760D02*
X0074687Y0153760D01*
X0074687Y0155359D02*
X0047275Y0155359D01*
X0047275Y0156957D02*
X0074687Y0156957D01*
X0074687Y0158556D02*
X0047275Y0158556D01*
X0047275Y0160154D02*
X0074687Y0160154D01*
X0074687Y0161753D02*
X0047275Y0161753D01*
X0047275Y0163351D02*
X0074687Y0163351D01*
X0074687Y0164950D02*
X0047275Y0164950D01*
X0047275Y0166548D02*
X0074687Y0166548D01*
X0074687Y0168147D02*
X0047275Y0168147D01*
X0047275Y0169745D02*
X0074687Y0169745D01*
X0074687Y0171344D02*
X0047275Y0171344D01*
X0047275Y0172942D02*
X0074687Y0172942D01*
X0074687Y0174541D02*
X0072286Y0174541D01*
X0074315Y0176139D02*
X0074687Y0176139D01*
X0069869Y0181000D02*
X0062093Y0181118D01*
X0062093Y0186039D02*
X0084731Y0187201D01*
X0084731Y0190350D02*
X0062093Y0190961D01*
X0066503Y0193723D02*
X0068214Y0193723D01*
X0068224Y0195321D02*
X0066652Y0195321D01*
X0066652Y0196920D02*
X0068936Y0196920D01*
X0071254Y0198518D02*
X0066025Y0198518D01*
X0062093Y0195882D02*
X0057369Y0195882D01*
X0044997Y0202750D02*
X0078481Y0202750D01*
X0081432Y0199799D01*
X0084731Y0199799D01*
X0097920Y0199799D01*
X0097920Y0170862D01*
X0097920Y0160232D01*
X0105046Y0153106D01*
X0234967Y0153106D01*
X0268629Y0153106D01*
X0272185Y0161753D02*
X0272553Y0161753D01*
X0272553Y0163351D02*
X0272185Y0163351D01*
X0272185Y0164950D02*
X0272553Y0164950D01*
X0276137Y0163351D02*
X0281382Y0163351D01*
X0280431Y0161753D02*
X0275647Y0161753D01*
X0276024Y0160154D02*
X0280369Y0160154D01*
X0276660Y0167555D02*
X0272369Y0171846D01*
X0272369Y0180154D01*
X0275317Y0176139D02*
X0414070Y0176139D01*
X0414070Y0174541D02*
X0276337Y0174541D01*
X0276337Y0172942D02*
X0414070Y0172942D01*
X0414070Y0171344D02*
X0292432Y0171344D01*
X0293030Y0169745D02*
X0414070Y0169745D01*
X0414070Y0168147D02*
X0293030Y0168147D01*
X0286700Y0167555D02*
X0276660Y0167555D01*
X0276832Y0171344D02*
X0280967Y0171344D01*
X0283893Y0177738D02*
X0414070Y0177738D01*
X0414070Y0179336D02*
X0285551Y0179336D01*
X0292711Y0180935D02*
X0414070Y0180935D01*
X0414070Y0182533D02*
X0293030Y0182533D01*
X0293030Y0184132D02*
X0414070Y0184132D01*
X0414070Y0185730D02*
X0317010Y0185730D01*
X0311909Y0185730D02*
X0310309Y0185730D01*
X0310309Y0187329D02*
X0311909Y0187329D01*
X0311909Y0188927D02*
X0310309Y0188927D01*
X0310309Y0190526D02*
X0311909Y0190526D01*
X0311909Y0192124D02*
X0310309Y0192124D01*
X0305208Y0185730D02*
X0293030Y0185730D01*
X0287081Y0190526D02*
X0286319Y0190526D01*
X0286319Y0192124D02*
X0287081Y0192124D01*
X0287081Y0195321D02*
X0286319Y0195321D01*
X0286319Y0196920D02*
X0287081Y0196920D01*
X0280369Y0204912D02*
X0276265Y0204912D01*
X0281134Y0206511D02*
X0146550Y0206511D01*
X0146444Y0204912D02*
X0268473Y0204912D01*
X0268400Y0203314D02*
X0145596Y0203314D01*
X0142369Y0206000D02*
X0130105Y0206000D01*
X0130007Y0206098D01*
X0130007Y0209248D02*
X0132369Y0211000D01*
X0132369Y0228500D01*
X0112369Y0228500D01*
X0112369Y0238500D01*
X0052369Y0238500D01*
X0047169Y0235284D02*
X0046507Y0235284D01*
X0047955Y0233686D02*
X0044908Y0233686D01*
X0039829Y0233686D02*
X0035169Y0233686D01*
X0035169Y0235284D02*
X0038231Y0235284D01*
X0037169Y0236883D02*
X0035169Y0236883D01*
X0035169Y0238481D02*
X0037169Y0238481D01*
X0037169Y0240080D02*
X0035169Y0240080D01*
X0035169Y0241678D02*
X0038193Y0241678D01*
X0039792Y0243277D02*
X0035169Y0243277D01*
X0035169Y0244875D02*
X0038640Y0244875D01*
X0037169Y0246474D02*
X0035169Y0246474D01*
X0035169Y0248072D02*
X0037169Y0248072D01*
X0037169Y0249671D02*
X0035169Y0249671D01*
X0035169Y0251269D02*
X0037784Y0251269D01*
X0039383Y0252868D02*
X0035169Y0252868D01*
X0035169Y0254466D02*
X0039332Y0254466D01*
X0037733Y0256065D02*
X0035169Y0256065D01*
X0035169Y0257663D02*
X0037369Y0257663D01*
X0037369Y0259262D02*
X0035169Y0259262D01*
X0035169Y0260860D02*
X0037658Y0260860D01*
X0039257Y0262459D02*
X0035169Y0262459D01*
X0035169Y0264057D02*
X0110135Y0264057D01*
X0109673Y0263385D02*
X0112395Y0267344D01*
X0112495Y0267586D01*
X0112707Y0267798D01*
X0112877Y0268045D01*
X0113097Y0268188D01*
X0113283Y0268374D01*
X0113560Y0268489D01*
X0113812Y0268652D01*
X0114070Y0268700D01*
X0114312Y0268800D01*
X0114612Y0268800D01*
X0114907Y0268855D01*
X0115164Y0268800D01*
X0135426Y0268800D01*
X0136455Y0268374D01*
X0137243Y0267586D01*
X0137669Y0266557D01*
X0137669Y0251300D01*
X0159256Y0251300D01*
X0160001Y0252045D01*
X0161537Y0252681D01*
X0163201Y0252681D01*
X0164737Y0252045D01*
X0165914Y0250868D01*
X0166550Y0249332D01*
X0166550Y0247668D01*
X0165914Y0246132D01*
X0164737Y0244955D01*
X0163201Y0244319D01*
X0161537Y0244319D01*
X0160001Y0244955D01*
X0159256Y0245700D01*
X0134312Y0245700D01*
X0133283Y0246126D01*
X0132495Y0246914D01*
X0132069Y0247943D01*
X0132069Y0263200D01*
X0118850Y0263200D01*
X0120315Y0262593D01*
X0121447Y0261461D01*
X0121986Y0261999D01*
X0122622Y0262461D01*
X0123324Y0262819D01*
X0124072Y0263062D01*
X0124849Y0263185D01*
X0125243Y0263185D01*
X0125243Y0258185D01*
X0125243Y0258185D01*
X0130243Y0258185D01*
X0130243Y0257792D01*
X0130120Y0257014D01*
X0129877Y0256266D01*
X0129519Y0255564D01*
X0129057Y0254928D01*
X0128500Y0254371D01*
X0127864Y0253909D01*
X0127162Y0253551D01*
X0126414Y0253308D01*
X0125636Y0253185D01*
X0125243Y0253185D01*
X0125243Y0258185D01*
X0125243Y0258185D01*
X0130243Y0258185D01*
X0130243Y0258579D01*
X0130120Y0259356D01*
X0129877Y0260104D01*
X0129519Y0260806D01*
X0129057Y0261442D01*
X0128500Y0261999D01*
X0127864Y0262461D01*
X0127162Y0262819D01*
X0126414Y0263062D01*
X0125636Y0263185D01*
X0125243Y0263185D01*
X0125243Y0258185D01*
X0125243Y0253185D01*
X0124849Y0253185D01*
X0124072Y0253308D01*
X0123324Y0253551D01*
X0122622Y0253909D01*
X0121986Y0254371D01*
X0121447Y0254910D01*
X0120315Y0253777D01*
X0118403Y0252985D01*
X0116335Y0252985D01*
X0114423Y0253777D01*
X0113432Y0254768D01*
X0112441Y0253777D01*
X0110529Y0252985D01*
X0108461Y0252985D01*
X0106549Y0253777D01*
X0105087Y0255239D01*
X0104295Y0257151D01*
X0104295Y0259219D01*
X0105087Y0261131D01*
X0106549Y0262593D01*
X0108461Y0263385D01*
X0109673Y0263385D01*
X0111234Y0265656D02*
X0035169Y0265656D01*
X0035169Y0267254D02*
X0112333Y0267254D01*
X0114869Y0266000D02*
X0109495Y0258185D01*
X0113130Y0254466D02*
X0113734Y0254466D01*
X0105860Y0254466D02*
X0055689Y0254466D01*
X0055355Y0252868D02*
X0132069Y0252868D01*
X0132069Y0254466D02*
X0128595Y0254466D01*
X0129774Y0256065D02*
X0132069Y0256065D01*
X0132069Y0257663D02*
X0130223Y0257663D01*
X0130135Y0259262D02*
X0132069Y0259262D01*
X0132069Y0260860D02*
X0129480Y0260860D01*
X0127867Y0262459D02*
X0132069Y0262459D01*
X0134869Y0266000D02*
X0114869Y0266000D01*
X0114898Y0268853D02*
X0035169Y0268853D01*
X0035169Y0270451D02*
X0149569Y0270451D01*
X0149569Y0268853D02*
X0114915Y0268853D01*
X0115551Y0273648D02*
X0119776Y0273648D01*
X0122169Y0273648D02*
X0122569Y0273648D01*
X0122569Y0275247D02*
X0122169Y0275247D01*
X0122169Y0276845D02*
X0122569Y0276845D01*
X0122569Y0280042D02*
X0122169Y0280042D01*
X0122169Y0281641D02*
X0122569Y0281641D01*
X0122569Y0283239D02*
X0122169Y0283239D01*
X0119556Y0283239D02*
X0115690Y0283239D01*
X0117238Y0281641D02*
X0117853Y0281641D01*
X0117934Y0275247D02*
X0117177Y0275247D01*
X0124962Y0273648D02*
X0129187Y0273648D01*
X0127561Y0275247D02*
X0126804Y0275247D01*
X0126885Y0281641D02*
X0127500Y0281641D01*
X0129047Y0283239D02*
X0125182Y0283239D01*
X0135690Y0283239D02*
X0149569Y0283239D01*
X0149569Y0281641D02*
X0137238Y0281641D01*
X0137900Y0280042D02*
X0149569Y0280042D01*
X0149569Y0278444D02*
X0138069Y0278444D01*
X0137853Y0276845D02*
X0149569Y0276845D01*
X0149569Y0275247D02*
X0137177Y0275247D01*
X0135551Y0273648D02*
X0149569Y0273648D01*
X0149569Y0272050D02*
X0065707Y0272050D01*
X0065496Y0271839D02*
X0066030Y0272373D01*
X0066474Y0272984D01*
X0066817Y0273657D01*
X0067051Y0274376D01*
X0067169Y0275122D01*
X0067169Y0278400D01*
X0062469Y0278400D01*
X0062469Y0278600D01*
X0067169Y0278600D01*
X0067169Y0281878D01*
X0067051Y0282624D01*
X0066817Y0283343D01*
X0066474Y0284016D01*
X0066030Y0284627D01*
X0065496Y0285161D01*
X0064885Y0285605D01*
X0064212Y0285948D01*
X0063493Y0286182D01*
X0062747Y0286300D01*
X0062469Y0286300D01*
X0062469Y0278600D01*
X0062269Y0278600D01*
X0062269Y0286300D01*
X0061991Y0286300D01*
X0061245Y0286182D01*
X0060526Y0285948D01*
X0059853Y0285605D01*
X0059242Y0285161D01*
X0058708Y0284627D01*
X0058264Y0284016D01*
X0057921Y0283343D01*
X0057687Y0282624D01*
X0057569Y0281878D01*
X0057569Y0278600D01*
X0062269Y0278600D01*
X0062269Y0278400D01*
X0062469Y0278400D01*
X0062469Y0270700D01*
X0062747Y0270700D01*
X0063493Y0270818D01*
X0064212Y0271052D01*
X0064885Y0271395D01*
X0065496Y0271839D01*
X0066813Y0273648D02*
X0076992Y0273648D01*
X0076669Y0275247D02*
X0067169Y0275247D01*
X0067169Y0276845D02*
X0076669Y0276845D01*
X0076669Y0278444D02*
X0062469Y0278444D01*
X0062269Y0278444D02*
X0057369Y0278444D01*
X0057569Y0278400D02*
X0057569Y0275122D01*
X0057687Y0274376D01*
X0057921Y0273657D01*
X0058264Y0272984D01*
X0058708Y0272373D01*
X0059242Y0271839D01*
X0059853Y0271395D01*
X0060526Y0271052D01*
X0061245Y0270818D01*
X0061991Y0270700D01*
X0062269Y0270700D01*
X0062269Y0278400D01*
X0057569Y0278400D01*
X0057569Y0276845D02*
X0057369Y0276845D01*
X0057369Y0275247D02*
X0057569Y0275247D01*
X0057925Y0273648D02*
X0057014Y0273648D01*
X0055990Y0272050D02*
X0059031Y0272050D01*
X0062269Y0272050D02*
X0062469Y0272050D01*
X0062469Y0273648D02*
X0062269Y0273648D01*
X0062269Y0275247D02*
X0062469Y0275247D01*
X0062469Y0276845D02*
X0062269Y0276845D01*
X0062269Y0280042D02*
X0062469Y0280042D01*
X0062469Y0281641D02*
X0062269Y0281641D01*
X0062269Y0283239D02*
X0062469Y0283239D01*
X0062469Y0284838D02*
X0062269Y0284838D01*
X0058919Y0284838D02*
X0056102Y0284838D01*
X0057060Y0283239D02*
X0057887Y0283239D01*
X0057569Y0281641D02*
X0057369Y0281641D01*
X0057369Y0280042D02*
X0057569Y0280042D01*
X0053517Y0286437D02*
X0089569Y0286437D01*
X0089569Y0288035D02*
X0030169Y0288035D01*
X0030169Y0286437D02*
X0031221Y0286437D01*
X0033517Y0286437D02*
X0041221Y0286437D01*
X0043517Y0286437D02*
X0051221Y0286437D01*
X0048636Y0284838D02*
X0046102Y0284838D01*
X0047060Y0283239D02*
X0047678Y0283239D01*
X0047369Y0281641D02*
X0047369Y0281641D01*
X0047369Y0280042D02*
X0047369Y0280042D01*
X0047369Y0278444D02*
X0047369Y0278444D01*
X0047369Y0276845D02*
X0047369Y0276845D01*
X0047369Y0275247D02*
X0047369Y0275247D01*
X0047014Y0273648D02*
X0047724Y0273648D01*
X0048748Y0272050D02*
X0045990Y0272050D01*
X0038748Y0272050D02*
X0035990Y0272050D01*
X0037014Y0273648D02*
X0037724Y0273648D01*
X0037369Y0275247D02*
X0037369Y0275247D01*
X0037369Y0276845D02*
X0037369Y0276845D01*
X0037369Y0278444D02*
X0037369Y0278444D01*
X0037369Y0280042D02*
X0037369Y0280042D01*
X0037369Y0281641D02*
X0037369Y0281641D01*
X0037060Y0283239D02*
X0037678Y0283239D01*
X0038636Y0284838D02*
X0036102Y0284838D01*
X0035778Y0289634D02*
X0030169Y0289634D01*
X0030169Y0291232D02*
X0033783Y0291232D01*
X0033188Y0292831D02*
X0030169Y0292831D01*
X0030169Y0294429D02*
X0033228Y0294429D01*
X0037369Y0293500D02*
X0092369Y0293500D01*
X0092369Y0278500D01*
X0089047Y0283239D02*
X0087858Y0283239D01*
X0089569Y0284838D02*
X0065819Y0284838D01*
X0066851Y0283239D02*
X0076880Y0283239D01*
X0076669Y0281641D02*
X0067169Y0281641D01*
X0067169Y0280042D02*
X0076669Y0280042D01*
X0087746Y0273648D02*
X0089187Y0273648D01*
X0095551Y0273648D02*
X0099187Y0273648D01*
X0097561Y0275247D02*
X0097177Y0275247D01*
X0102369Y0278500D02*
X0102369Y0298500D01*
X0027369Y0298500D01*
X0027369Y0218500D01*
X0075479Y0218500D01*
X0084731Y0209248D01*
X0079680Y0209708D02*
X0024369Y0209708D01*
X0024369Y0211306D02*
X0078713Y0211306D01*
X0077114Y0212905D02*
X0024369Y0212905D01*
X0024369Y0214503D02*
X0075516Y0214503D01*
X0079680Y0208109D02*
X0024369Y0208109D01*
X0024369Y0206511D02*
X0079680Y0206511D01*
X0089782Y0206511D02*
X0114018Y0206511D01*
X0114018Y0208109D02*
X0089782Y0208109D01*
X0089782Y0209708D02*
X0114018Y0209708D01*
X0114018Y0211287D02*
X0114018Y0202599D01*
X0097363Y0202599D01*
X0089782Y0202599D01*
X0089782Y0211087D01*
X0112430Y0211087D01*
X0112630Y0211287D01*
X0113668Y0211287D01*
X0113668Y0216138D01*
X0113668Y0220989D01*
X0113668Y0216138D01*
X0113668Y0216138D01*
X0113668Y0216138D01*
X0113668Y0211287D01*
X0114018Y0211287D01*
X0113668Y0211306D02*
X0113668Y0211306D01*
X0113668Y0212905D02*
X0113668Y0212905D01*
X0113668Y0214503D02*
X0113668Y0214503D01*
X0113668Y0216102D02*
X0113668Y0216102D01*
X0113668Y0217701D02*
X0113668Y0217701D01*
X0113668Y0219299D02*
X0113668Y0219299D01*
X0113668Y0220898D02*
X0113668Y0220898D01*
X0115759Y0222496D02*
X0107669Y0222496D01*
X0107669Y0224095D02*
X0115688Y0224095D01*
X0116252Y0225693D02*
X0107669Y0225693D01*
X0107669Y0227292D02*
X0109839Y0227292D01*
X0109569Y0228890D02*
X0107669Y0228890D01*
X0106840Y0230489D02*
X0109569Y0230489D01*
X0109569Y0232087D02*
X0035169Y0232087D01*
X0032369Y0228500D02*
X0104869Y0228500D01*
X0104869Y0220034D01*
X0104686Y0219852D01*
X0104686Y0216605D01*
X0104219Y0216138D01*
X0097920Y0216138D02*
X0097453Y0216605D01*
X0097453Y0219852D01*
X0097369Y0219936D01*
X0097369Y0223500D01*
X0091621Y0216138D02*
X0084259Y0223500D01*
X0077369Y0223500D01*
X0057569Y0235284D02*
X0109569Y0235284D01*
X0109569Y0233686D02*
X0056783Y0233686D01*
X0057569Y0241678D02*
X0176887Y0241678D01*
X0176905Y0240080D02*
X0114745Y0240080D01*
X0115169Y0238481D02*
X0176924Y0238481D01*
X0176942Y0236883D02*
X0115169Y0236883D01*
X0115169Y0235284D02*
X0176961Y0235284D01*
X0176979Y0233686D02*
X0115169Y0233686D01*
X0115169Y0232087D02*
X0176998Y0232087D01*
X0177017Y0230489D02*
X0134340Y0230489D01*
X0135169Y0228890D02*
X0176846Y0228890D01*
X0182617Y0230489D02*
X0203667Y0230489D01*
X0205103Y0232087D02*
X0182598Y0232087D01*
X0182580Y0233686D02*
X0248595Y0233686D01*
X0248188Y0235284D02*
X0182561Y0235284D01*
X0182543Y0236883D02*
X0248209Y0236883D01*
X0248937Y0238481D02*
X0182524Y0238481D01*
X0182506Y0240080D02*
X0217904Y0240080D01*
X0217917Y0240030D02*
X0218154Y0239620D01*
X0218489Y0239285D01*
X0218899Y0239048D01*
X0219357Y0238925D01*
X0222369Y0238925D01*
X0225381Y0238925D01*
X0225839Y0239048D01*
X0226249Y0239285D01*
X0226584Y0239620D01*
X0226821Y0240030D01*
X0226944Y0240488D01*
X0226944Y0243500D01*
X0226944Y0246512D01*
X0226821Y0246970D01*
X0226584Y0247380D01*
X0226249Y0247715D01*
X0225839Y0247952D01*
X0225381Y0248075D01*
X0222369Y0248075D01*
X0222369Y0243500D01*
X0226944Y0243500D01*
X0222369Y0243500D01*
X0222369Y0243500D01*
X0222369Y0243500D01*
X0222369Y0238925D01*
X0222369Y0243500D01*
X0222369Y0243500D01*
X0222369Y0248075D01*
X0219357Y0248075D01*
X0218899Y0247952D01*
X0218489Y0247715D01*
X0218154Y0247380D01*
X0217917Y0246970D01*
X0217794Y0246512D01*
X0217794Y0243500D01*
X0222369Y0243500D01*
X0222369Y0243500D01*
X0217794Y0243500D01*
X0217794Y0240488D01*
X0217917Y0240030D01*
X0217794Y0241678D02*
X0182487Y0241678D01*
X0182468Y0243277D02*
X0217794Y0243277D01*
X0217794Y0244875D02*
X0182450Y0244875D01*
X0182431Y0246474D02*
X0217794Y0246474D01*
X0219348Y0248072D02*
X0182413Y0248072D01*
X0176812Y0248072D02*
X0166550Y0248072D01*
X0166410Y0249671D02*
X0176794Y0249671D01*
X0176775Y0251269D02*
X0165513Y0251269D01*
X0163595Y0254466D02*
X0175860Y0254466D01*
X0176757Y0252868D02*
X0137669Y0252868D01*
X0137669Y0254466D02*
X0140860Y0254466D01*
X0139745Y0256065D02*
X0137669Y0256065D01*
X0137669Y0257663D02*
X0139295Y0257663D01*
X0139313Y0259262D02*
X0137669Y0259262D01*
X0137669Y0260860D02*
X0139975Y0260860D01*
X0141415Y0262459D02*
X0137669Y0262459D01*
X0137669Y0264057D02*
X0149569Y0264057D01*
X0149569Y0265656D02*
X0137669Y0265656D01*
X0137380Y0267254D02*
X0149569Y0267254D01*
X0149289Y0262459D02*
X0147575Y0262459D01*
X0152369Y0258185D02*
X0152369Y0303500D01*
X0145417Y0308816D02*
X0040630Y0308816D01*
X0040581Y0307217D02*
X0144519Y0307217D01*
X0143857Y0305619D02*
X0039919Y0305619D01*
X0038704Y0304020D02*
X0143694Y0304020D01*
X0143694Y0302422D02*
X0036075Y0302422D01*
X0032285Y0302422D02*
X0024369Y0302422D01*
X0024369Y0304020D02*
X0029656Y0304020D01*
X0028441Y0305619D02*
X0024369Y0305619D01*
X0024369Y0307217D02*
X0027779Y0307217D01*
X0027730Y0308816D02*
X0024369Y0308816D01*
X0024369Y0310414D02*
X0027943Y0310414D01*
X0028605Y0312013D02*
X0024369Y0312013D01*
X0024369Y0313611D02*
X0030051Y0313611D01*
X0040417Y0310414D02*
X0147015Y0310414D01*
X0157723Y0310414D02*
X0167015Y0310414D01*
X0165417Y0308816D02*
X0159321Y0308816D01*
X0160219Y0307217D02*
X0164519Y0307217D01*
X0163857Y0305619D02*
X0160881Y0305619D01*
X0161044Y0304020D02*
X0163694Y0304020D01*
X0163694Y0302422D02*
X0161044Y0302422D01*
X0160650Y0300823D02*
X0164088Y0300823D01*
X0164750Y0299225D02*
X0159988Y0299225D01*
X0158763Y0297626D02*
X0165975Y0297626D01*
X0167741Y0296028D02*
X0156997Y0296028D01*
X0155169Y0294429D02*
X0197480Y0294429D01*
X0199079Y0292831D02*
X0155169Y0292831D01*
X0155169Y0291232D02*
X0200677Y0291232D01*
X0202276Y0289634D02*
X0155169Y0289634D01*
X0155169Y0288035D02*
X0203874Y0288035D01*
X0205473Y0286437D02*
X0155169Y0286437D01*
X0155169Y0284838D02*
X0207071Y0284838D01*
X0208670Y0283239D02*
X0155169Y0283239D01*
X0155169Y0281641D02*
X0210268Y0281641D01*
X0211867Y0280042D02*
X0155169Y0280042D01*
X0155169Y0278444D02*
X0213465Y0278444D01*
X0215064Y0276845D02*
X0155169Y0276845D01*
X0155169Y0275247D02*
X0216662Y0275247D01*
X0218261Y0273648D02*
X0155169Y0273648D01*
X0155169Y0272050D02*
X0219859Y0272050D01*
X0221458Y0270451D02*
X0155169Y0270451D01*
X0155169Y0268853D02*
X0223056Y0268853D01*
X0224655Y0267254D02*
X0155169Y0267254D01*
X0155169Y0265656D02*
X0226253Y0265656D01*
X0227852Y0264057D02*
X0155169Y0264057D01*
X0155449Y0262459D02*
X0157619Y0262459D01*
X0160243Y0262459D02*
X0160243Y0262459D01*
X0160243Y0260860D02*
X0160243Y0260860D01*
X0160243Y0259262D02*
X0160243Y0259262D01*
X0160243Y0257663D02*
X0160243Y0257663D01*
X0160243Y0256065D02*
X0160243Y0256065D01*
X0160243Y0254466D02*
X0160243Y0254466D01*
X0156891Y0254466D02*
X0156004Y0254466D01*
X0148734Y0254466D02*
X0148130Y0254466D01*
X0134869Y0248500D02*
X0134869Y0266000D01*
X0125243Y0262459D02*
X0125243Y0262459D01*
X0125243Y0260860D02*
X0125243Y0260860D01*
X0125243Y0259262D02*
X0125243Y0259262D01*
X0125243Y0258185D02*
X0125243Y0258185D01*
X0125243Y0257663D02*
X0125243Y0257663D01*
X0125243Y0256065D02*
X0125243Y0256065D01*
X0125243Y0254466D02*
X0125243Y0254466D01*
X0121891Y0254466D02*
X0121004Y0254466D01*
X0120449Y0262459D02*
X0122619Y0262459D01*
X0132069Y0251269D02*
X0056954Y0251269D01*
X0057569Y0249671D02*
X0132069Y0249671D01*
X0132069Y0248072D02*
X0057569Y0248072D01*
X0057569Y0246474D02*
X0132935Y0246474D01*
X0134869Y0248500D02*
X0162369Y0248500D01*
X0166055Y0246474D02*
X0176831Y0246474D01*
X0176849Y0244875D02*
X0164544Y0244875D01*
X0160194Y0244875D02*
X0056098Y0244875D01*
X0056821Y0243277D02*
X0176868Y0243277D01*
X0174745Y0256065D02*
X0164774Y0256065D01*
X0165223Y0257663D02*
X0174295Y0257663D01*
X0174313Y0259262D02*
X0165135Y0259262D01*
X0164480Y0260860D02*
X0174975Y0260860D01*
X0176415Y0262459D02*
X0162867Y0262459D01*
X0182575Y0262459D02*
X0184289Y0262459D01*
X0190449Y0262459D02*
X0192619Y0262459D01*
X0195243Y0262459D02*
X0195243Y0262459D01*
X0195243Y0260860D02*
X0195243Y0260860D01*
X0195243Y0259262D02*
X0195243Y0259262D01*
X0195243Y0257663D02*
X0195243Y0257663D01*
X0195243Y0256065D02*
X0195243Y0256065D01*
X0195243Y0254466D02*
X0195243Y0254466D01*
X0198595Y0254466D02*
X0237443Y0254466D01*
X0235844Y0256065D02*
X0199774Y0256065D01*
X0200223Y0257663D02*
X0234246Y0257663D01*
X0232647Y0259262D02*
X0200135Y0259262D01*
X0199480Y0260860D02*
X0231049Y0260860D01*
X0229450Y0262459D02*
X0197867Y0262459D01*
X0191891Y0254466D02*
X0191004Y0254466D01*
X0209635Y0232087D02*
X0246996Y0232087D01*
X0246834Y0240080D02*
X0251292Y0240080D01*
X0242369Y0240080D02*
X0242369Y0240080D01*
X0242369Y0238925D02*
X0242369Y0243500D01*
X0242369Y0243500D01*
X0242369Y0248075D01*
X0239357Y0248075D01*
X0238899Y0247952D01*
X0238489Y0247715D01*
X0238154Y0247380D01*
X0237917Y0246970D01*
X0237794Y0246512D01*
X0237794Y0243500D01*
X0242369Y0243500D01*
X0242369Y0243500D01*
X0237794Y0243500D01*
X0237794Y0240488D01*
X0237917Y0240030D01*
X0238154Y0239620D01*
X0238489Y0239285D01*
X0238899Y0239048D01*
X0239357Y0238925D01*
X0242369Y0238925D01*
X0242369Y0241678D02*
X0242369Y0241678D01*
X0242369Y0243277D02*
X0242369Y0243277D01*
X0242369Y0244875D02*
X0242369Y0244875D01*
X0242369Y0246474D02*
X0242369Y0246474D01*
X0242369Y0248072D02*
X0242369Y0248072D01*
X0239348Y0248072D02*
X0236175Y0248072D01*
X0235972Y0248275D02*
X0228766Y0248275D01*
X0227594Y0247103D01*
X0227594Y0239897D01*
X0228766Y0238725D01*
X0235972Y0238725D01*
X0237144Y0239897D01*
X0237144Y0247103D01*
X0235972Y0248275D01*
X0237144Y0246474D02*
X0237794Y0246474D01*
X0237794Y0244875D02*
X0237144Y0244875D01*
X0237144Y0243277D02*
X0237794Y0243277D01*
X0237794Y0241678D02*
X0237144Y0241678D01*
X0237144Y0240080D02*
X0237904Y0240080D01*
X0227594Y0240080D02*
X0226834Y0240080D01*
X0226944Y0241678D02*
X0227594Y0241678D01*
X0227594Y0243277D02*
X0226944Y0243277D01*
X0226944Y0244875D02*
X0227594Y0244875D01*
X0227594Y0246474D02*
X0226944Y0246474D01*
X0225390Y0248072D02*
X0228563Y0248072D01*
X0222369Y0248072D02*
X0222369Y0248072D01*
X0222369Y0246474D02*
X0222369Y0246474D01*
X0222369Y0244875D02*
X0222369Y0244875D01*
X0222369Y0243277D02*
X0222369Y0243277D01*
X0222369Y0241678D02*
X0222369Y0241678D01*
X0222369Y0240080D02*
X0222369Y0240080D01*
X0210475Y0225693D02*
X0238752Y0225693D01*
X0238188Y0224095D02*
X0183605Y0224095D01*
X0176133Y0224095D02*
X0155187Y0224095D01*
X0157369Y0213500D02*
X0247369Y0213500D01*
X0272185Y0193723D02*
X0272553Y0193723D01*
X0292487Y0208343D02*
X0292487Y0234760D01*
X0307144Y0243277D02*
X0307594Y0243277D01*
X0307594Y0244875D02*
X0307144Y0244875D01*
X0307144Y0246474D02*
X0307594Y0246474D01*
X0308563Y0248072D02*
X0306175Y0248072D01*
X0336175Y0248072D02*
X0339428Y0248072D01*
X0339197Y0241678D02*
X0337144Y0241678D01*
X0337144Y0240080D02*
X0399569Y0240080D01*
X0399569Y0241678D02*
X0354919Y0241678D01*
X0356197Y0243277D02*
X0399569Y0243277D01*
X0399569Y0244875D02*
X0369544Y0244875D01*
X0371055Y0246474D02*
X0399569Y0246474D01*
X0399569Y0248072D02*
X0371550Y0248072D01*
X0371410Y0249671D02*
X0399569Y0249671D01*
X0399569Y0251269D02*
X0370513Y0251269D01*
X0367369Y0248500D02*
X0352448Y0248500D01*
X0352448Y0252868D02*
X0352448Y0252868D01*
X0352448Y0254466D02*
X0352448Y0254466D01*
X0355974Y0254466D02*
X0397443Y0254466D01*
X0399041Y0252868D02*
X0356197Y0252868D01*
X0359246Y0257663D02*
X0242165Y0257663D01*
X0240567Y0259262D02*
X0357647Y0259262D01*
X0356049Y0260860D02*
X0238968Y0260860D01*
X0237370Y0262459D02*
X0354450Y0262459D01*
X0352852Y0264057D02*
X0235771Y0264057D01*
X0234173Y0265656D02*
X0351253Y0265656D01*
X0349655Y0267254D02*
X0232574Y0267254D01*
X0230976Y0268853D02*
X0348056Y0268853D01*
X0346458Y0270451D02*
X0229377Y0270451D01*
X0227779Y0272050D02*
X0344859Y0272050D01*
X0343261Y0273648D02*
X0226180Y0273648D01*
X0224582Y0275247D02*
X0341662Y0275247D01*
X0340064Y0276845D02*
X0222983Y0276845D01*
X0221385Y0278444D02*
X0338465Y0278444D01*
X0336867Y0280042D02*
X0219786Y0280042D01*
X0218188Y0281641D02*
X0335268Y0281641D01*
X0333670Y0283239D02*
X0216589Y0283239D01*
X0214991Y0284838D02*
X0332071Y0284838D01*
X0330473Y0286437D02*
X0213392Y0286437D01*
X0211794Y0288035D02*
X0328874Y0288035D01*
X0327276Y0289634D02*
X0210195Y0289634D01*
X0208597Y0291232D02*
X0325677Y0291232D01*
X0324079Y0292831D02*
X0206998Y0292831D01*
X0205400Y0294429D02*
X0322480Y0294429D01*
X0333597Y0291232D02*
X0392277Y0291232D01*
X0391619Y0289634D02*
X0335195Y0289634D01*
X0336794Y0288035D02*
X0391619Y0288035D01*
X0392000Y0286437D02*
X0338392Y0286437D01*
X0339991Y0284838D02*
X0384303Y0284838D01*
X0384205Y0284798D02*
X0383405Y0284335D01*
X0382672Y0283773D01*
X0382018Y0283119D01*
X0381456Y0282386D01*
X0380993Y0281586D01*
X0380640Y0280732D01*
X0380401Y0279839D01*
X0380324Y0279261D01*
X0386530Y0279261D01*
X0386530Y0285467D01*
X0385952Y0285390D01*
X0385059Y0285151D01*
X0384205Y0284798D01*
X0386530Y0284838D02*
X0388130Y0284838D01*
X0388130Y0283239D02*
X0386530Y0283239D01*
X0386530Y0281641D02*
X0388130Y0281641D01*
X0388130Y0280042D02*
X0386530Y0280042D01*
X0386530Y0275247D02*
X0388130Y0275247D01*
X0388130Y0273648D02*
X0386530Y0273648D01*
X0386530Y0272050D02*
X0388130Y0272050D01*
X0390275Y0272050D02*
X0404463Y0272050D01*
X0406608Y0272050D02*
X0408208Y0272050D01*
X0408208Y0273648D02*
X0406608Y0273648D01*
X0406608Y0275247D02*
X0408208Y0275247D01*
X0408208Y0276845D02*
X0406608Y0276845D01*
X0402250Y0273648D02*
X0392488Y0273648D01*
X0393615Y0275247D02*
X0401123Y0275247D01*
X0400542Y0276845D02*
X0394196Y0276845D01*
X0394205Y0280042D02*
X0400533Y0280042D01*
X0401103Y0281641D02*
X0393635Y0281641D01*
X0392522Y0283239D02*
X0395043Y0283239D01*
X0392899Y0284838D02*
X0390357Y0284838D01*
X0382138Y0283239D02*
X0341589Y0283239D01*
X0343188Y0281641D02*
X0381025Y0281641D01*
X0380455Y0280042D02*
X0344786Y0280042D01*
X0346160Y0254466D02*
X0348921Y0254466D01*
X0356197Y0244875D02*
X0365194Y0244875D01*
X0352448Y0243277D02*
X0352448Y0243277D01*
X0352448Y0241678D02*
X0352448Y0241678D01*
X0402369Y0253500D02*
X0402369Y0193500D01*
X0398165Y0123388D02*
X0256573Y0123388D01*
X0256011Y0123950D02*
X0257819Y0122142D01*
X0258798Y0119779D01*
X0258798Y0117221D01*
X0257819Y0114858D01*
X0256011Y0113050D01*
X0253648Y0112071D01*
X0251090Y0112071D01*
X0248727Y0113050D01*
X0246919Y0114858D01*
X0245940Y0117221D01*
X0245940Y0119779D01*
X0246919Y0122142D01*
X0248727Y0123950D01*
X0251090Y0124929D01*
X0253648Y0124929D01*
X0256011Y0123950D01*
X0257965Y0121790D02*
X0396773Y0121790D01*
X0396111Y0120191D02*
X0258627Y0120191D01*
X0258798Y0118593D02*
X0395940Y0118593D01*
X0396034Y0116994D02*
X0258704Y0116994D01*
X0258042Y0115396D02*
X0396696Y0115396D01*
X0397980Y0113797D02*
X0256758Y0113797D01*
X0253957Y0112199D02*
X0397820Y0112199D01*
X0397401Y0110600D02*
X0192157Y0110600D01*
X0192543Y0109002D02*
X0396981Y0109002D01*
X0396562Y0107403D02*
X0192929Y0107403D01*
X0193315Y0105805D02*
X0396142Y0105805D01*
X0395722Y0104206D02*
X0193701Y0104206D01*
X0194087Y0102608D02*
X0395303Y0102608D01*
X0394883Y0101009D02*
X0194473Y0101009D01*
X0194859Y0099411D02*
X0394464Y0099411D01*
X0394044Y0097812D02*
X0195245Y0097812D01*
X0195631Y0096214D02*
X0393625Y0096214D01*
X0393205Y0094615D02*
X0196017Y0094615D01*
X0196403Y0093017D02*
X0392786Y0093017D01*
X0392366Y0091418D02*
X0196789Y0091418D01*
X0197175Y0089820D02*
X0391946Y0089820D01*
X0391527Y0088221D02*
X0197561Y0088221D01*
X0197947Y0086623D02*
X0391107Y0086623D01*
X0390688Y0085024D02*
X0198333Y0085024D01*
X0198719Y0083426D02*
X0390268Y0083426D01*
X0389849Y0081827D02*
X0199105Y0081827D01*
X0199491Y0080229D02*
X0389429Y0080229D01*
X0389010Y0078630D02*
X0199877Y0078630D01*
X0200263Y0077032D02*
X0388590Y0077032D01*
X0388170Y0075433D02*
X0200649Y0075433D01*
X0201035Y0073834D02*
X0387751Y0073834D01*
X0387331Y0072236D02*
X0201421Y0072236D01*
X0201807Y0070637D02*
X0386912Y0070637D01*
X0386492Y0069039D02*
X0202193Y0069039D01*
X0202579Y0067440D02*
X0386073Y0067440D01*
X0385653Y0065842D02*
X0202965Y0065842D01*
X0203351Y0064243D02*
X0385234Y0064243D01*
X0384814Y0062645D02*
X0203737Y0062645D01*
X0204123Y0061046D02*
X0384394Y0061046D01*
X0383975Y0059448D02*
X0204509Y0059448D01*
X0204895Y0057849D02*
X0383555Y0057849D01*
X0383136Y0056251D02*
X0205281Y0056251D01*
X0205667Y0054652D02*
X0382716Y0054652D01*
X0382297Y0053054D02*
X0206053Y0053054D01*
X0206439Y0051455D02*
X0381877Y0051455D01*
X0381231Y0049857D02*
X0206933Y0049857D01*
X0209813Y0048258D02*
X0228636Y0048258D01*
X0228626Y0048251D02*
X0227933Y0047558D01*
X0227356Y0046765D01*
X0226911Y0045891D01*
X0226608Y0044959D01*
X0226484Y0044176D01*
X0232007Y0044176D01*
X0232007Y0042824D01*
X0226484Y0042824D01*
X0226608Y0042041D01*
X0226911Y0041109D01*
X0227356Y0040235D01*
X0227933Y0039442D01*
X0228626Y0038749D01*
X0229419Y0038172D01*
X0230293Y0037727D01*
X0231225Y0037424D01*
X0232008Y0037300D01*
X0232008Y0042824D01*
X0233360Y0042824D01*
X0233360Y0044176D01*
X0238884Y0044176D01*
X0238760Y0044959D01*
X0238457Y0045891D01*
X0238012Y0046765D01*
X0237435Y0047558D01*
X0236742Y0048251D01*
X0235949Y0048828D01*
X0235075Y0049273D01*
X0234143Y0049576D01*
X0233360Y0049700D01*
X0233360Y0044176D01*
X0232008Y0044176D01*
X0232008Y0049700D01*
X0231225Y0049576D01*
X0230293Y0049273D01*
X0229419Y0048828D01*
X0228626Y0048251D01*
X0227303Y0046660D02*
X0211129Y0046660D01*
X0211791Y0045061D02*
X0226642Y0045061D01*
X0226666Y0041864D02*
X0211760Y0041864D01*
X0211908Y0043463D02*
X0232007Y0043463D01*
X0233360Y0043463D02*
X0376255Y0043463D01*
X0376372Y0045061D02*
X0238726Y0045061D01*
X0238065Y0046660D02*
X0377034Y0046660D01*
X0378350Y0048258D02*
X0236732Y0048258D01*
X0233360Y0048258D02*
X0232008Y0048258D01*
X0232008Y0046660D02*
X0233360Y0046660D01*
X0233360Y0045061D02*
X0232008Y0045061D01*
X0233360Y0042824D02*
X0238884Y0042824D01*
X0238760Y0042041D01*
X0238457Y0041109D01*
X0238012Y0040235D01*
X0237435Y0039442D01*
X0236742Y0038749D01*
X0235949Y0038172D01*
X0235075Y0037727D01*
X0234143Y0037424D01*
X0233360Y0037300D01*
X0233360Y0042824D01*
X0233360Y0041864D02*
X0232008Y0041864D01*
X0232008Y0040266D02*
X0233360Y0040266D01*
X0233360Y0038667D02*
X0232008Y0038667D01*
X0228738Y0038667D02*
X0209739Y0038667D01*
X0211098Y0040266D02*
X0227341Y0040266D01*
X0236630Y0038667D02*
X0378424Y0038667D01*
X0377065Y0040266D02*
X0238027Y0040266D01*
X0238702Y0041864D02*
X0376403Y0041864D01*
X0382684Y0043500D02*
X0402369Y0118500D01*
X0304997Y0150563D02*
X0292830Y0150563D01*
X0292799Y0152162D02*
X0304778Y0152162D01*
X0268800Y0168147D02*
X0129792Y0168147D01*
X0128194Y0169745D02*
X0268400Y0169745D01*
X0268400Y0171344D02*
X0126595Y0171344D01*
X0126200Y0172942D02*
X0268400Y0172942D01*
X0268400Y0174541D02*
X0126200Y0174541D01*
X0124956Y0175913D02*
X0121878Y0175913D01*
X0102308Y0175913D01*
X0102108Y0175713D01*
X0101070Y0175713D01*
X0101070Y0170862D01*
X0101070Y0166011D01*
X0101070Y0170862D01*
X0101070Y0170862D01*
X0101070Y0180626D01*
X0101109Y0180665D01*
X0101701Y0180665D01*
X0100720Y0180935D02*
X0124956Y0180935D01*
X0124956Y0182533D02*
X0100720Y0182533D01*
X0100720Y0184132D02*
X0124956Y0184132D01*
X0124956Y0185730D02*
X0100720Y0185730D01*
X0100720Y0187329D02*
X0124956Y0187329D01*
X0124956Y0188927D02*
X0100720Y0188927D01*
X0100720Y0190526D02*
X0124956Y0190526D01*
X0124956Y0190857D02*
X0124956Y0175913D01*
X0124956Y0176139D02*
X0100720Y0176139D01*
X0100720Y0175713D02*
X0100720Y0196999D01*
X0114057Y0196999D01*
X0114057Y0193101D01*
X0114483Y0192071D01*
X0115271Y0191284D01*
X0116300Y0190857D01*
X0124956Y0190857D01*
X0129575Y0193069D02*
X0130007Y0193500D01*
X0130007Y0193657D01*
X0116857Y0193657D01*
X0116857Y0199799D01*
X0116818Y0199799D01*
X0116818Y0216138D01*
X0119967Y0216138D02*
X0119869Y0223500D01*
X0123117Y0216138D02*
X0127369Y0218500D01*
X0124956Y0211087D02*
X0119618Y0211087D01*
X0119618Y0200451D01*
X0119657Y0200356D01*
X0119657Y0196457D01*
X0125156Y0196457D01*
X0125156Y0196650D01*
X0130007Y0196650D01*
X0134858Y0196650D01*
X0130007Y0196650D01*
X0130007Y0196650D01*
X0130007Y0196650D01*
X0125156Y0196650D01*
X0125156Y0197688D01*
X0124956Y0197888D01*
X0124956Y0211087D01*
X0124956Y0209708D02*
X0119618Y0209708D01*
X0119618Y0208109D02*
X0124956Y0208109D01*
X0124956Y0206511D02*
X0119618Y0206511D01*
X0119618Y0204912D02*
X0124956Y0204912D01*
X0124956Y0203314D02*
X0119618Y0203314D01*
X0119618Y0201715D02*
X0124956Y0201715D01*
X0124956Y0200117D02*
X0119657Y0200117D01*
X0119657Y0198518D02*
X0124956Y0198518D01*
X0125156Y0196920D02*
X0119657Y0196920D01*
X0116818Y0199799D02*
X0097920Y0199799D01*
X0100720Y0196920D02*
X0114057Y0196920D01*
X0114057Y0195321D02*
X0100720Y0195321D01*
X0100720Y0193723D02*
X0114057Y0193723D01*
X0114461Y0192124D02*
X0100720Y0192124D01*
X0089582Y0196650D02*
X0084731Y0196650D01*
X0084731Y0196650D01*
X0084731Y0193500D02*
X0072395Y0194465D01*
X0073536Y0198518D02*
X0078753Y0198518D01*
X0079880Y0196920D02*
X0076920Y0196920D01*
X0089782Y0203314D02*
X0114018Y0203314D01*
X0114018Y0204912D02*
X0089782Y0204912D01*
X0100720Y0179336D02*
X0124956Y0179336D01*
X0124956Y0177738D02*
X0100720Y0177738D01*
X0100720Y0175713D02*
X0101070Y0175713D01*
X0101070Y0170862D01*
X0101070Y0170862D01*
X0101070Y0171344D02*
X0101070Y0171344D01*
X0101070Y0172942D02*
X0101070Y0172942D01*
X0101070Y0174541D02*
X0101070Y0174541D01*
X0101070Y0169745D02*
X0101070Y0169745D01*
X0101070Y0168147D02*
X0101070Y0168147D01*
X0101070Y0166548D02*
X0101070Y0166548D01*
X0100720Y0164950D02*
X0125070Y0164950D01*
X0126668Y0163351D02*
X0100720Y0163351D01*
X0100720Y0161753D02*
X0128267Y0161753D01*
X0129865Y0160154D02*
X0101958Y0160154D01*
X0103557Y0158556D02*
X0131536Y0158556D01*
X0132999Y0160980D02*
X0123117Y0170862D01*
X0132999Y0160980D02*
X0144416Y0160980D01*
X0143203Y0156957D02*
X0105155Y0156957D01*
X0112255Y0136176D02*
X0087642Y0136176D01*
X0087646Y0134578D02*
X0110117Y0134578D01*
X0108519Y0132979D02*
X0087650Y0132979D01*
X0087655Y0131381D02*
X0106920Y0131381D01*
X0111643Y0128184D02*
X0116248Y0128184D01*
X0115688Y0126585D02*
X0110044Y0126585D01*
X0108446Y0124987D02*
X0115763Y0124987D01*
X0116568Y0123388D02*
X0106847Y0123388D01*
X0105249Y0121790D02*
X0117069Y0121790D01*
X0117069Y0120191D02*
X0103650Y0120191D01*
X0102051Y0118593D02*
X0116885Y0118593D01*
X0116885Y0116994D02*
X0100453Y0116994D01*
X0098854Y0115396D02*
X0116885Y0115396D01*
X0116885Y0113797D02*
X0079575Y0113797D01*
X0079742Y0115396D02*
X0077976Y0115396D01*
X0078143Y0116994D02*
X0076378Y0116994D01*
X0076545Y0118593D02*
X0074779Y0118593D01*
X0075044Y0120191D02*
X0073181Y0120191D01*
X0074687Y0121790D02*
X0071582Y0121790D01*
X0069984Y0123388D02*
X0074687Y0123388D01*
X0074687Y0124987D02*
X0068385Y0124987D01*
X0066787Y0126585D02*
X0074687Y0126585D01*
X0074687Y0128184D02*
X0065188Y0128184D01*
X0063590Y0129782D02*
X0074687Y0129782D01*
X0074687Y0131381D02*
X0061991Y0131381D01*
X0060393Y0132979D02*
X0074687Y0132979D01*
X0074687Y0134578D02*
X0058794Y0134578D01*
X0057196Y0136176D02*
X0074687Y0136176D01*
X0074687Y0137775D02*
X0055597Y0137775D01*
X0053999Y0139373D02*
X0074687Y0139373D01*
X0074687Y0140972D02*
X0052400Y0140972D01*
X0050802Y0142570D02*
X0074687Y0142570D01*
X0074687Y0144169D02*
X0049203Y0144169D01*
X0047605Y0145768D02*
X0074687Y0145768D01*
X0074687Y0147366D02*
X0047275Y0147366D01*
X0044475Y0144937D02*
X0080912Y0108500D01*
X0080873Y0097201D01*
X0083604Y0094470D01*
X0083604Y0092601D01*
X0110868Y0065336D01*
X0115000Y0065336D01*
X0115937Y0064399D01*
X0115937Y0062530D01*
X0118668Y0059799D01*
X0118826Y0059642D01*
X0118826Y0048500D01*
X0115251Y0048258D02*
X0059528Y0048258D01*
X0060860Y0046660D02*
X0115251Y0046660D01*
X0115499Y0045061D02*
X0061522Y0045061D01*
X0061497Y0041864D02*
X0199198Y0041864D01*
X0199860Y0040266D02*
X0060822Y0040266D01*
X0059425Y0038667D02*
X0201220Y0038667D01*
X0205479Y0043500D02*
X0187369Y0118500D01*
X0191573Y0123388D02*
X0248165Y0123388D01*
X0246773Y0121790D02*
X0192965Y0121790D01*
X0193627Y0120191D02*
X0246111Y0120191D01*
X0245940Y0118593D02*
X0193798Y0118593D01*
X0193704Y0116994D02*
X0246034Y0116994D01*
X0246696Y0115396D02*
X0193042Y0115396D01*
X0191758Y0113797D02*
X0247980Y0113797D01*
X0250781Y0112199D02*
X0191771Y0112199D01*
X0191800Y0088221D02*
X0163744Y0088221D01*
X0164369Y0086623D02*
X0192186Y0086623D01*
X0192572Y0085024D02*
X0164369Y0085024D01*
X0164369Y0083426D02*
X0192958Y0083426D01*
X0193344Y0081827D02*
X0164194Y0081827D01*
X0164369Y0080229D02*
X0193730Y0080229D01*
X0194116Y0078630D02*
X0164369Y0078630D01*
X0164369Y0077032D02*
X0194502Y0077032D01*
X0194888Y0075433D02*
X0164099Y0075433D01*
X0164369Y0073834D02*
X0195274Y0073834D01*
X0195660Y0072236D02*
X0164369Y0072236D01*
X0164369Y0070637D02*
X0196046Y0070637D01*
X0196432Y0069039D02*
X0164004Y0069039D01*
X0160160Y0064243D02*
X0197590Y0064243D01*
X0197976Y0062645D02*
X0160232Y0062645D01*
X0160232Y0061046D02*
X0198362Y0061046D01*
X0198748Y0059448D02*
X0160232Y0059448D01*
X0160232Y0057849D02*
X0199134Y0057849D01*
X0199520Y0056251D02*
X0160232Y0056251D01*
X0137750Y0056251D02*
X0137382Y0056251D01*
X0137382Y0057849D02*
X0137750Y0057849D01*
X0137750Y0059448D02*
X0137382Y0059448D01*
X0137382Y0061046D02*
X0137750Y0061046D01*
X0137750Y0062645D02*
X0137382Y0062645D01*
X0137382Y0064243D02*
X0137750Y0064243D01*
X0137750Y0054652D02*
X0137382Y0054652D01*
X0125912Y0058854D02*
X0124967Y0059799D01*
X0124783Y0059448D02*
X0125152Y0059448D01*
X0125152Y0061046D02*
X0124783Y0061046D01*
X0124783Y0062645D02*
X0125152Y0062645D01*
X0125152Y0064243D02*
X0124783Y0064243D01*
X0124783Y0057849D02*
X0125152Y0057849D01*
X0125152Y0056251D02*
X0124783Y0056251D01*
X0124783Y0054652D02*
X0125152Y0054652D01*
X0116026Y0053054D02*
X0024369Y0053054D01*
X0024369Y0054652D02*
X0071269Y0054652D01*
X0070805Y0056251D02*
X0024369Y0056251D01*
X0024369Y0057849D02*
X0070805Y0057849D01*
X0070109Y0058694D02*
X0070345Y0059104D01*
X0070468Y0059562D01*
X0070468Y0061583D01*
X0064915Y0061583D01*
X0064915Y0057999D01*
X0068905Y0057999D01*
X0069363Y0058122D01*
X0069773Y0058359D01*
X0070109Y0058694D01*
X0070438Y0059448D02*
X0070805Y0059448D01*
X0070805Y0061046D02*
X0070468Y0061046D01*
X0070468Y0061952D02*
X0070468Y0063973D01*
X0070345Y0064431D01*
X0070109Y0064841D01*
X0070033Y0064917D01*
X0070109Y0064993D01*
X0070345Y0065404D01*
X0070468Y0065861D01*
X0070468Y0067883D01*
X0064915Y0067883D01*
X0064915Y0061952D01*
X0064547Y0061952D01*
X0064547Y0065536D01*
X0064547Y0067883D01*
X0058994Y0067883D01*
X0058994Y0065861D01*
X0059117Y0065404D01*
X0059354Y0064993D01*
X0059430Y0064917D01*
X0059354Y0064841D01*
X0059117Y0064431D01*
X0058994Y0063973D01*
X0058994Y0061952D01*
X0064547Y0061952D01*
X0064547Y0061583D01*
X0064915Y0061583D01*
X0064915Y0061952D01*
X0070468Y0061952D01*
X0070468Y0062645D02*
X0070805Y0062645D01*
X0070878Y0064243D02*
X0070396Y0064243D01*
X0070463Y0065842D02*
X0106403Y0065842D01*
X0104804Y0067440D02*
X0070468Y0067440D01*
X0070468Y0068251D02*
X0070468Y0070272D01*
X0070345Y0070730D01*
X0070109Y0071141D01*
X0069773Y0071476D01*
X0069363Y0071713D01*
X0068905Y0071835D01*
X0064915Y0071835D01*
X0064915Y0068251D01*
X0064547Y0068251D01*
X0064547Y0067883D01*
X0064915Y0067883D01*
X0064915Y0068251D01*
X0070468Y0068251D01*
X0070468Y0069039D02*
X0103206Y0069039D01*
X0101607Y0070637D02*
X0070370Y0070637D01*
X0064915Y0070637D02*
X0064547Y0070637D01*
X0064547Y0071835D02*
X0060557Y0071835D01*
X0060099Y0071713D01*
X0059689Y0071476D01*
X0059354Y0071141D01*
X0059117Y0070730D01*
X0058994Y0070272D01*
X0058994Y0068251D01*
X0064547Y0068251D01*
X0064547Y0071835D01*
X0064547Y0069039D02*
X0064915Y0069039D01*
X0064869Y0068205D02*
X0064731Y0068067D01*
X0064547Y0067440D02*
X0064915Y0067440D01*
X0064915Y0065842D02*
X0064547Y0065842D01*
X0064547Y0064243D02*
X0064915Y0064243D01*
X0064915Y0062645D02*
X0064547Y0062645D01*
X0064547Y0061583D02*
X0058994Y0061583D01*
X0058994Y0059562D01*
X0059117Y0059104D01*
X0059354Y0058694D01*
X0059689Y0058359D01*
X0060099Y0058122D01*
X0060557Y0057999D01*
X0064547Y0057999D01*
X0064547Y0061583D01*
X0064547Y0061046D02*
X0064915Y0061046D01*
X0064915Y0059448D02*
X0064547Y0059448D01*
X0059025Y0059448D02*
X0024369Y0059448D01*
X0024369Y0061046D02*
X0058994Y0061046D01*
X0058994Y0062645D02*
X0024369Y0062645D01*
X0024369Y0064243D02*
X0059067Y0064243D01*
X0058999Y0065842D02*
X0024369Y0065842D01*
X0024369Y0067440D02*
X0058994Y0067440D01*
X0058994Y0069039D02*
X0024369Y0069039D01*
X0024369Y0070637D02*
X0059092Y0070637D01*
X0060557Y0078865D02*
X0064547Y0078865D01*
X0064547Y0082450D01*
X0058994Y0082450D01*
X0058994Y0080428D01*
X0059117Y0079971D01*
X0059354Y0079560D01*
X0059689Y0079225D01*
X0060099Y0078988D01*
X0060557Y0078865D01*
X0059048Y0080229D02*
X0024369Y0080229D01*
X0024369Y0081827D02*
X0049100Y0081827D01*
X0048902Y0081942D02*
X0049312Y0081705D01*
X0049770Y0081582D01*
X0052369Y0081582D01*
X0054968Y0081582D01*
X0055426Y0081705D01*
X0055836Y0081942D01*
X0056172Y0082277D01*
X0056408Y0082687D01*
X0056531Y0083145D01*
X0056531Y0084957D01*
X0056531Y0086768D01*
X0056408Y0087226D01*
X0056172Y0087637D01*
X0055836Y0087972D01*
X0055426Y0088209D01*
X0054968Y0088331D01*
X0052369Y0088331D01*
X0052369Y0084957D01*
X0052369Y0084957D01*
X0052369Y0088331D01*
X0049770Y0088331D01*
X0049312Y0088209D01*
X0048902Y0087972D01*
X0048566Y0087637D01*
X0048329Y0087226D01*
X0048207Y0086768D01*
X0048207Y0084957D01*
X0052369Y0084957D01*
X0056531Y0084957D01*
X0052369Y0084957D01*
X0052369Y0084957D01*
X0052369Y0084957D01*
X0053826Y0084957D01*
X0052369Y0084957D02*
X0052369Y0081582D01*
X0052369Y0084957D01*
X0048207Y0084957D01*
X0048207Y0083145D01*
X0048329Y0082687D01*
X0048566Y0082277D01*
X0048902Y0081942D01*
X0048207Y0083426D02*
X0024369Y0083426D01*
X0024369Y0085024D02*
X0048207Y0085024D01*
X0048207Y0086623D02*
X0024369Y0086623D01*
X0024369Y0088221D02*
X0049358Y0088221D01*
X0049312Y0088791D02*
X0049770Y0088669D01*
X0052369Y0088668D01*
X0052369Y0088669D02*
X0054968Y0088669D01*
X0055426Y0088791D01*
X0055836Y0089028D01*
X0056172Y0089363D01*
X0056408Y0089774D01*
X0056531Y0090232D01*
X0056531Y0092043D01*
X0052369Y0092043D01*
X0052369Y0088669D01*
X0052369Y0088668D02*
X0052369Y0092043D01*
X0052369Y0092043D01*
X0052369Y0092043D01*
X0048207Y0092043D01*
X0048207Y0090232D01*
X0048329Y0089774D01*
X0048566Y0089363D01*
X0048902Y0089028D01*
X0049312Y0088791D01*
X0048317Y0089820D02*
X0024369Y0089820D01*
X0024369Y0091418D02*
X0048207Y0091418D01*
X0048207Y0092043D02*
X0052369Y0092043D01*
X0052369Y0092043D01*
X0053826Y0092043D01*
X0052369Y0092043D02*
X0056531Y0092043D01*
X0056531Y0093855D01*
X0056408Y0094313D01*
X0056172Y0094723D01*
X0055836Y0095058D01*
X0055426Y0095295D01*
X0054968Y0095418D01*
X0052369Y0095418D01*
X0052369Y0092043D01*
X0052369Y0092043D01*
X0052369Y0095418D01*
X0049770Y0095418D01*
X0049312Y0095295D01*
X0048902Y0095058D01*
X0048566Y0094723D01*
X0048329Y0094313D01*
X0048207Y0093855D01*
X0048207Y0092043D01*
X0048207Y0093017D02*
X0024369Y0093017D01*
X0024369Y0094615D02*
X0048504Y0094615D01*
X0052369Y0094615D02*
X0052369Y0094615D01*
X0052369Y0093017D02*
X0052369Y0093017D01*
X0052369Y0091418D02*
X0052369Y0091418D01*
X0052369Y0089820D02*
X0052369Y0089820D01*
X0052369Y0088221D02*
X0052369Y0088221D01*
X0052369Y0086623D02*
X0052369Y0086623D01*
X0052369Y0085024D02*
X0052369Y0085024D01*
X0052369Y0084957D02*
X0052369Y0084957D01*
X0052369Y0083426D02*
X0052369Y0083426D01*
X0052369Y0081827D02*
X0052369Y0081827D01*
X0055638Y0081827D02*
X0058994Y0081827D01*
X0058994Y0082818D02*
X0064547Y0082818D01*
X0064547Y0082450D01*
X0064915Y0082450D01*
X0064915Y0078865D01*
X0068905Y0078865D01*
X0069363Y0078988D01*
X0069773Y0079225D01*
X0070109Y0079560D01*
X0070345Y0079971D01*
X0070468Y0080428D01*
X0070468Y0082450D01*
X0064915Y0082450D01*
X0064915Y0082818D01*
X0064547Y0082818D01*
X0064547Y0086402D01*
X0064547Y0088749D01*
X0058994Y0088749D01*
X0058994Y0086728D01*
X0059117Y0086270D01*
X0059354Y0085859D01*
X0059430Y0085783D01*
X0059354Y0085708D01*
X0059117Y0085297D01*
X0058994Y0084839D01*
X0058994Y0082818D01*
X0058994Y0083426D02*
X0056531Y0083426D01*
X0056531Y0085024D02*
X0059044Y0085024D01*
X0059022Y0086623D02*
X0056531Y0086623D01*
X0055380Y0088221D02*
X0058994Y0088221D01*
X0058994Y0089117D02*
X0064547Y0089117D01*
X0064547Y0088749D01*
X0064915Y0088749D01*
X0064915Y0082818D01*
X0070468Y0082818D01*
X0070468Y0084839D01*
X0070345Y0085297D01*
X0070109Y0085708D01*
X0070033Y0085783D01*
X0070109Y0085859D01*
X0070345Y0086270D01*
X0070468Y0086728D01*
X0070468Y0088749D01*
X0064915Y0088749D01*
X0064915Y0089117D01*
X0064547Y0089117D01*
X0064547Y0092702D01*
X0064547Y0095048D01*
X0064915Y0095048D01*
X0064915Y0089117D01*
X0070468Y0089117D01*
X0070468Y0091139D01*
X0070345Y0091596D01*
X0070109Y0092007D01*
X0070033Y0092083D01*
X0070109Y0092159D01*
X0070345Y0092569D01*
X0070468Y0093027D01*
X0070468Y0095048D01*
X0064915Y0095048D01*
X0064915Y0095417D01*
X0064547Y0095417D01*
X0064547Y0099001D01*
X0060557Y0099001D01*
X0060099Y0098878D01*
X0059689Y0098641D01*
X0059354Y0098306D01*
X0059117Y0097896D01*
X0058994Y0097438D01*
X0058994Y0095417D01*
X0064547Y0095417D01*
X0064547Y0095048D01*
X0058994Y0095048D01*
X0058994Y0093027D01*
X0059117Y0092569D01*
X0059354Y0092159D01*
X0059430Y0092083D01*
X0059354Y0092007D01*
X0059117Y0091596D01*
X0058994Y0091139D01*
X0058994Y0089117D01*
X0058994Y0089820D02*
X0056421Y0089820D01*
X0056531Y0091418D02*
X0059069Y0091418D01*
X0058997Y0093017D02*
X0056531Y0093017D01*
X0056234Y0094615D02*
X0058994Y0094615D01*
X0058994Y0096214D02*
X0024369Y0096214D01*
X0024369Y0097812D02*
X0059094Y0097812D01*
X0064547Y0097812D02*
X0064915Y0097812D01*
X0064915Y0099001D02*
X0064915Y0095417D01*
X0070468Y0095417D01*
X0070468Y0097438D01*
X0070345Y0097896D01*
X0070109Y0098306D01*
X0069773Y0098641D01*
X0069363Y0098878D01*
X0068905Y0099001D01*
X0064915Y0099001D01*
X0064915Y0096214D02*
X0064547Y0096214D01*
X0064547Y0094615D02*
X0064915Y0094615D01*
X0064915Y0093017D02*
X0064547Y0093017D01*
X0064547Y0091418D02*
X0064915Y0091418D01*
X0064915Y0089820D02*
X0064547Y0089820D01*
X0064731Y0088933D02*
X0064298Y0088500D01*
X0064547Y0088221D02*
X0064915Y0088221D01*
X0064915Y0086623D02*
X0064547Y0086623D01*
X0064547Y0085024D02*
X0064915Y0085024D01*
X0064915Y0083426D02*
X0064547Y0083426D01*
X0064547Y0081827D02*
X0064915Y0081827D01*
X0064915Y0080229D02*
X0064547Y0080229D01*
X0070415Y0080229D02*
X0092016Y0080229D01*
X0090418Y0081827D02*
X0070468Y0081827D01*
X0070468Y0083426D02*
X0088819Y0083426D01*
X0087221Y0085024D02*
X0070419Y0085024D01*
X0070440Y0086623D02*
X0085622Y0086623D01*
X0084024Y0088221D02*
X0070468Y0088221D01*
X0070468Y0089820D02*
X0082425Y0089820D01*
X0077922Y0091418D02*
X0070393Y0091418D01*
X0070465Y0093017D02*
X0070808Y0093017D01*
X0070805Y0094615D02*
X0070468Y0094615D01*
X0070468Y0096214D02*
X0070805Y0096214D01*
X0070805Y0097385D02*
X0074389Y0097385D01*
X0074389Y0102938D01*
X0072368Y0102938D01*
X0071910Y0102815D01*
X0071500Y0102578D01*
X0071165Y0102243D01*
X0070928Y0101833D01*
X0070805Y0101375D01*
X0070805Y0097385D01*
X0070805Y0097812D02*
X0070368Y0097812D01*
X0070805Y0099411D02*
X0024369Y0099411D01*
X0024369Y0101009D02*
X0070805Y0101009D01*
X0071551Y0102608D02*
X0024369Y0102608D01*
X0024369Y0104206D02*
X0078097Y0104206D01*
X0077337Y0105805D02*
X0077175Y0105805D01*
X0077200Y0107403D02*
X0077337Y0107403D01*
X0073826Y0107403D02*
X0073826Y0107403D01*
X0073826Y0108500D02*
X0073826Y0104338D01*
X0073826Y0108500D01*
X0073826Y0108500D01*
X0070451Y0108500D01*
X0073826Y0108500D01*
X0073826Y0108500D01*
X0073826Y0105805D02*
X0073826Y0105805D01*
X0074389Y0102608D02*
X0074758Y0102608D01*
X0074758Y0101009D02*
X0074389Y0101009D01*
X0074389Y0099411D02*
X0074758Y0099411D01*
X0074758Y0097812D02*
X0074389Y0097812D01*
X0073826Y0097949D02*
X0074574Y0097201D01*
X0074389Y0096214D02*
X0074758Y0096214D01*
X0074758Y0094615D02*
X0074389Y0094615D01*
X0074389Y0093017D02*
X0074758Y0093017D01*
X0083697Y0104206D02*
X0107951Y0104206D01*
X0107951Y0105805D02*
X0084487Y0105805D01*
X0084487Y0107403D02*
X0107951Y0107403D01*
X0107951Y0106000D02*
X0111326Y0106000D01*
X0107951Y0106000D01*
X0108059Y0109002D02*
X0084487Y0109002D01*
X0084487Y0110600D02*
X0116404Y0110600D01*
X0116695Y0112199D02*
X0083979Y0112199D01*
X0071655Y0113797D02*
X0041758Y0113797D01*
X0041011Y0113050D02*
X0042819Y0114858D01*
X0043798Y0117221D01*
X0043798Y0119779D01*
X0042819Y0122142D01*
X0041011Y0123950D01*
X0038648Y0124929D01*
X0036090Y0124929D01*
X0033727Y0123950D01*
X0031919Y0122142D01*
X0030940Y0119779D01*
X0030940Y0117221D01*
X0031919Y0114858D01*
X0033727Y0113050D01*
X0036090Y0112071D01*
X0038648Y0112071D01*
X0041011Y0113050D01*
X0038957Y0112199D02*
X0071042Y0112199D01*
X0070451Y0110600D02*
X0024369Y0110600D01*
X0024369Y0109002D02*
X0070451Y0109002D01*
X0070451Y0107403D02*
X0024369Y0107403D01*
X0024369Y0105805D02*
X0070477Y0105805D01*
X0070057Y0115396D02*
X0043042Y0115396D01*
X0043704Y0116994D02*
X0068458Y0116994D01*
X0066860Y0118593D02*
X0043798Y0118593D01*
X0043627Y0120191D02*
X0065261Y0120191D01*
X0063663Y0121790D02*
X0042965Y0121790D01*
X0041573Y0123388D02*
X0062064Y0123388D01*
X0060466Y0124987D02*
X0024369Y0124987D01*
X0024369Y0126585D02*
X0058867Y0126585D01*
X0057269Y0128184D02*
X0024369Y0128184D01*
X0024369Y0129782D02*
X0055670Y0129782D01*
X0054072Y0131381D02*
X0024369Y0131381D01*
X0024369Y0132979D02*
X0052473Y0132979D01*
X0050875Y0134578D02*
X0024369Y0134578D01*
X0024369Y0136176D02*
X0049276Y0136176D01*
X0047678Y0137775D02*
X0024369Y0137775D01*
X0024369Y0139373D02*
X0046079Y0139373D01*
X0044480Y0140972D02*
X0024369Y0140972D01*
X0024369Y0142570D02*
X0042882Y0142570D01*
X0041763Y0144169D02*
X0024369Y0144169D01*
X0024369Y0145768D02*
X0041675Y0145768D01*
X0041675Y0147366D02*
X0024369Y0147366D01*
X0024369Y0148965D02*
X0041675Y0148965D01*
X0041675Y0150563D02*
X0024369Y0150563D01*
X0024369Y0152162D02*
X0041675Y0152162D01*
X0041675Y0153760D02*
X0024369Y0153760D01*
X0024369Y0155359D02*
X0041675Y0155359D01*
X0041675Y0156957D02*
X0024369Y0156957D01*
X0024369Y0158556D02*
X0041675Y0158556D01*
X0041675Y0160154D02*
X0024369Y0160154D01*
X0024369Y0161753D02*
X0041675Y0161753D01*
X0041675Y0163351D02*
X0024369Y0163351D01*
X0024369Y0164950D02*
X0041675Y0164950D01*
X0041675Y0166548D02*
X0024369Y0166548D01*
X0024369Y0168147D02*
X0041675Y0168147D01*
X0041675Y0169745D02*
X0024369Y0169745D01*
X0024369Y0171344D02*
X0041675Y0171344D01*
X0041675Y0172942D02*
X0024369Y0172942D01*
X0024369Y0174541D02*
X0041675Y0174541D01*
X0041134Y0176139D02*
X0040429Y0176139D01*
X0040404Y0176096D02*
X0040641Y0176506D01*
X0040763Y0176964D01*
X0040763Y0179563D01*
X0040763Y0182162D01*
X0040641Y0182620D01*
X0040404Y0183030D01*
X0040069Y0183366D01*
X0039658Y0183603D01*
X0039200Y0183725D01*
X0037389Y0183725D01*
X0037389Y0179563D01*
X0040763Y0179563D01*
X0037389Y0179563D01*
X0037389Y0179563D01*
X0037389Y0179563D01*
X0037389Y0175401D01*
X0039200Y0175401D01*
X0039658Y0175523D01*
X0040069Y0175760D01*
X0040404Y0176096D01*
X0040763Y0177738D02*
X0040900Y0177738D01*
X0040900Y0179336D02*
X0040763Y0179336D01*
X0040763Y0180935D02*
X0040900Y0180935D01*
X0040900Y0182533D02*
X0040664Y0182533D01*
X0041675Y0184132D02*
X0024369Y0184132D01*
X0024369Y0185730D02*
X0041675Y0185730D01*
X0041675Y0187329D02*
X0039270Y0187329D01*
X0035467Y0187329D02*
X0024369Y0187329D01*
X0024369Y0188927D02*
X0032849Y0188927D01*
X0031642Y0190526D02*
X0024369Y0190526D01*
X0024369Y0192124D02*
X0030980Y0192124D01*
X0030940Y0193723D02*
X0024369Y0193723D01*
X0024369Y0195321D02*
X0031165Y0195321D01*
X0031827Y0196920D02*
X0024369Y0196920D01*
X0024369Y0198518D02*
X0033295Y0198518D01*
X0040791Y0200117D02*
X0024369Y0200117D01*
X0024369Y0201715D02*
X0040791Y0201715D01*
X0041601Y0203314D02*
X0024369Y0203314D01*
X0024369Y0204912D02*
X0043199Y0204912D01*
X0044997Y0202750D02*
X0043591Y0201345D01*
X0043591Y0189967D01*
X0044475Y0189082D01*
X0044475Y0179563D01*
X0044475Y0144937D01*
X0033165Y0123388D02*
X0024369Y0123388D01*
X0024369Y0121790D02*
X0031773Y0121790D01*
X0031111Y0120191D02*
X0024369Y0120191D01*
X0024369Y0118593D02*
X0030940Y0118593D01*
X0031034Y0116994D02*
X0024369Y0116994D01*
X0024369Y0115396D02*
X0031696Y0115396D01*
X0032980Y0113797D02*
X0024369Y0113797D01*
X0024369Y0112199D02*
X0035781Y0112199D01*
X0024369Y0078630D02*
X0093615Y0078630D01*
X0095213Y0077032D02*
X0024369Y0077032D01*
X0024369Y0075433D02*
X0096812Y0075433D01*
X0098410Y0073834D02*
X0024369Y0073834D01*
X0024369Y0072236D02*
X0100009Y0072236D01*
X0116856Y0067440D02*
X0196818Y0067440D01*
X0197204Y0065842D02*
X0118370Y0065842D01*
X0112553Y0059448D02*
X0112185Y0059448D01*
X0112185Y0057849D02*
X0112553Y0057849D01*
X0112553Y0056251D02*
X0112185Y0056251D01*
X0112185Y0054652D02*
X0112553Y0054652D01*
X0115251Y0051455D02*
X0024369Y0051455D01*
X0024369Y0049857D02*
X0115251Y0049857D01*
X0081057Y0054652D02*
X0080689Y0054652D01*
X0080689Y0054062D02*
X0080689Y0059615D01*
X0077104Y0059615D01*
X0074758Y0059615D01*
X0074758Y0054062D01*
X0076779Y0054062D01*
X0077237Y0054185D01*
X0077647Y0054422D01*
X0077723Y0054498D01*
X0077799Y0054422D01*
X0078210Y0054185D01*
X0078667Y0054062D01*
X0080689Y0054062D01*
X0080689Y0056251D02*
X0081057Y0056251D01*
X0081057Y0057849D02*
X0080689Y0057849D01*
X0080689Y0059448D02*
X0081057Y0059448D01*
X0081057Y0061046D02*
X0080689Y0061046D01*
X0080689Y0062645D02*
X0081057Y0062645D01*
X0081057Y0064243D02*
X0080689Y0064243D01*
X0074758Y0064243D02*
X0074389Y0064243D01*
X0074389Y0062645D02*
X0074758Y0062645D01*
X0074758Y0061046D02*
X0074389Y0061046D01*
X0074389Y0059448D02*
X0074758Y0059448D01*
X0074758Y0057849D02*
X0074389Y0057849D01*
X0074389Y0056251D02*
X0074758Y0056251D01*
X0074758Y0054652D02*
X0074389Y0054652D01*
X0056156Y0048258D02*
X0054803Y0048258D01*
X0054803Y0049700D02*
X0054803Y0044176D01*
X0049280Y0044176D01*
X0049403Y0044959D01*
X0049706Y0045891D01*
X0050152Y0046765D01*
X0050728Y0047558D01*
X0051421Y0048251D01*
X0052214Y0048828D01*
X0053088Y0049273D01*
X0054021Y0049576D01*
X0054803Y0049700D01*
X0054803Y0046660D02*
X0056156Y0046660D01*
X0056156Y0045061D02*
X0054803Y0045061D01*
X0054803Y0043463D02*
X0024369Y0043463D01*
X0024369Y0045061D02*
X0049437Y0045061D01*
X0050098Y0046660D02*
X0024369Y0046660D01*
X0024369Y0048258D02*
X0051431Y0048258D01*
X0049461Y0041864D02*
X0024369Y0041864D01*
X0024369Y0040266D02*
X0050136Y0040266D01*
X0037834Y0024716D02*
X0035463Y0025698D01*
X0032897Y0025698D01*
X0030526Y0024716D01*
X0028712Y0022902D01*
X0027730Y0020531D01*
X0027730Y0017965D01*
X0028712Y0015594D01*
X0030526Y0013780D01*
X0032897Y0012798D01*
X0035463Y0012798D01*
X0037834Y0013780D01*
X0039648Y0015594D01*
X0040630Y0017965D01*
X0040630Y0020531D01*
X0039648Y0022902D01*
X0037834Y0024716D01*
X0038269Y0024281D02*
X0400170Y0024281D01*
X0400605Y0024716D02*
X0398791Y0022902D01*
X0397809Y0020531D01*
X0397809Y0017965D01*
X0398791Y0015594D01*
X0400605Y0013780D01*
X0402976Y0012798D01*
X0405542Y0012798D01*
X0407912Y0013780D01*
X0409727Y0015594D01*
X0410709Y0017965D01*
X0410709Y0020531D01*
X0409727Y0022902D01*
X0407912Y0024716D01*
X0405542Y0025698D01*
X0402976Y0025698D01*
X0400605Y0024716D01*
X0398700Y0022682D02*
X0039739Y0022682D01*
X0040401Y0021084D02*
X0398038Y0021084D01*
X0397809Y0019485D02*
X0040630Y0019485D01*
X0040597Y0017887D02*
X0397841Y0017887D01*
X0398503Y0016288D02*
X0039935Y0016288D01*
X0038743Y0014690D02*
X0399695Y0014690D01*
X0402268Y0013091D02*
X0036170Y0013091D01*
X0032190Y0013091D02*
X0024369Y0013091D01*
X0024369Y0011493D02*
X0414070Y0011493D01*
X0414070Y0013091D02*
X0406249Y0013091D01*
X0408822Y0014690D02*
X0414070Y0014690D01*
X0414070Y0016288D02*
X0410014Y0016288D01*
X0410676Y0017887D02*
X0414070Y0017887D01*
X0414070Y0019485D02*
X0410709Y0019485D01*
X0410480Y0021084D02*
X0414070Y0021084D01*
X0414070Y0022682D02*
X0409818Y0022682D01*
X0408348Y0024281D02*
X0414070Y0024281D01*
X0414070Y0025879D02*
X0024369Y0025879D01*
X0024369Y0024281D02*
X0030091Y0024281D01*
X0028621Y0022682D02*
X0024369Y0022682D01*
X0024369Y0021084D02*
X0027959Y0021084D01*
X0027730Y0019485D02*
X0024369Y0019485D01*
X0024369Y0017887D02*
X0027762Y0017887D01*
X0028425Y0016288D02*
X0024369Y0016288D01*
X0024369Y0014690D02*
X0029617Y0014690D01*
X0024369Y0009894D02*
X0414070Y0009894D01*
X0414070Y0008296D02*
X0024369Y0008296D01*
X0024369Y0006697D02*
X0414070Y0006697D01*
X0414070Y0027478D02*
X0024369Y0027478D01*
X0024369Y0029076D02*
X0414070Y0029076D01*
X0414070Y0030675D02*
X0024369Y0030675D01*
X0024369Y0032273D02*
X0414070Y0032273D01*
X0414070Y0033872D02*
X0024369Y0033872D01*
X0024369Y0035470D02*
X0414070Y0035470D01*
X0156265Y0195321D02*
X0135058Y0195321D01*
X0135058Y0209708D02*
X0140395Y0209708D01*
X0135179Y0211306D02*
X0152343Y0211306D01*
X0157369Y0213500D02*
X0137369Y0216000D01*
X0135597Y0227292D02*
X0135169Y0227292D01*
X0104745Y0256065D02*
X0057288Y0256065D01*
X0057569Y0257663D02*
X0104295Y0257663D01*
X0104313Y0259262D02*
X0057569Y0259262D01*
X0057363Y0260860D02*
X0104975Y0260860D01*
X0106415Y0262459D02*
X0055764Y0262459D01*
X0048974Y0262459D02*
X0045481Y0262459D01*
X0047080Y0260860D02*
X0047375Y0260860D01*
X0042569Y0260860D02*
X0042169Y0260860D01*
X0042169Y0259262D02*
X0042569Y0259262D01*
X0042569Y0262459D02*
X0042169Y0262459D01*
X0024569Y0262459D02*
X0024369Y0262459D01*
X0024369Y0264057D02*
X0024569Y0264057D01*
X0024569Y0265656D02*
X0024369Y0265656D01*
X0024369Y0267254D02*
X0024569Y0267254D01*
X0024569Y0268853D02*
X0024369Y0268853D01*
X0024369Y0270451D02*
X0024569Y0270451D01*
X0024569Y0272050D02*
X0024369Y0272050D01*
X0024369Y0273648D02*
X0024569Y0273648D01*
X0024569Y0275247D02*
X0024369Y0275247D01*
X0024369Y0276845D02*
X0024569Y0276845D01*
X0024569Y0278444D02*
X0024369Y0278444D01*
X0024369Y0280042D02*
X0024569Y0280042D01*
X0024569Y0281641D02*
X0024369Y0281641D01*
X0024369Y0283239D02*
X0024569Y0283239D01*
X0024569Y0284838D02*
X0024369Y0284838D01*
X0024369Y0286437D02*
X0024569Y0286437D01*
X0024569Y0288035D02*
X0024369Y0288035D01*
X0024369Y0289634D02*
X0024569Y0289634D01*
X0024569Y0291232D02*
X0024369Y0291232D01*
X0024369Y0292831D02*
X0024569Y0292831D01*
X0024569Y0294429D02*
X0024369Y0294429D01*
X0024369Y0296028D02*
X0024569Y0296028D01*
X0024569Y0297626D02*
X0024369Y0297626D01*
X0024369Y0299225D02*
X0024638Y0299225D01*
X0024369Y0300823D02*
X0025732Y0300823D01*
X0038960Y0289634D02*
X0089569Y0289634D01*
X0105169Y0289634D02*
X0149569Y0289634D01*
X0149569Y0291232D02*
X0105169Y0291232D01*
X0105169Y0292831D02*
X0149569Y0292831D01*
X0149569Y0294429D02*
X0105169Y0294429D01*
X0105169Y0296028D02*
X0147741Y0296028D01*
X0145975Y0297626D02*
X0105169Y0297626D01*
X0105100Y0299225D02*
X0144750Y0299225D01*
X0144088Y0300823D02*
X0104006Y0300823D01*
X0105169Y0288035D02*
X0149569Y0288035D01*
X0149569Y0286437D02*
X0105169Y0286437D01*
X0105169Y0284838D02*
X0149569Y0284838D01*
X0176997Y0296028D02*
X0187741Y0296028D01*
X0185975Y0297626D02*
X0178763Y0297626D01*
X0179988Y0299225D02*
X0184750Y0299225D01*
X0184088Y0300823D02*
X0180650Y0300823D01*
X0181044Y0302422D02*
X0183694Y0302422D01*
X0183694Y0304020D02*
X0181044Y0304020D01*
X0180881Y0305619D02*
X0183857Y0305619D01*
X0184519Y0307217D02*
X0180219Y0307217D01*
X0179321Y0308816D02*
X0185417Y0308816D01*
X0187015Y0310414D02*
X0177723Y0310414D01*
X0109047Y0283239D02*
X0105690Y0283239D01*
X0107238Y0281641D02*
X0107500Y0281641D01*
X0107561Y0275247D02*
X0107177Y0275247D01*
X0105551Y0273648D02*
X0109187Y0273648D01*
X0032369Y0278500D02*
X0032369Y0228500D01*
X0024569Y0228890D02*
X0024369Y0228890D01*
X0024369Y0227292D02*
X0024569Y0227292D01*
X0024569Y0225693D02*
X0024369Y0225693D01*
X0024369Y0224095D02*
X0024569Y0224095D01*
X0024569Y0222496D02*
X0024369Y0222496D01*
X0024369Y0220898D02*
X0024569Y0220898D01*
X0024569Y0219299D02*
X0024369Y0219299D01*
X0024369Y0217701D02*
X0024669Y0217701D01*
X0024369Y0216102D02*
X0025841Y0216102D01*
X0024569Y0230489D02*
X0024369Y0230489D01*
X0024369Y0232087D02*
X0024569Y0232087D01*
X0024569Y0233686D02*
X0024369Y0233686D01*
X0024369Y0235284D02*
X0024569Y0235284D01*
X0024569Y0236883D02*
X0024369Y0236883D01*
X0024369Y0238481D02*
X0024569Y0238481D01*
X0024569Y0240080D02*
X0024369Y0240080D01*
X0024369Y0241678D02*
X0024569Y0241678D01*
X0024569Y0243277D02*
X0024369Y0243277D01*
X0024369Y0244875D02*
X0024569Y0244875D01*
X0024569Y0246474D02*
X0024369Y0246474D01*
X0024369Y0248072D02*
X0024569Y0248072D01*
X0024569Y0249671D02*
X0024369Y0249671D01*
X0024369Y0251269D02*
X0024569Y0251269D01*
X0024569Y0252868D02*
X0024369Y0252868D01*
X0024369Y0254466D02*
X0024569Y0254466D01*
X0024569Y0256065D02*
X0024369Y0256065D01*
X0024369Y0257663D02*
X0024569Y0257663D01*
X0024569Y0259262D02*
X0024369Y0259262D01*
X0024369Y0260860D02*
X0024569Y0260860D01*
X0035577Y0183725D02*
X0035119Y0183603D01*
X0034709Y0183366D01*
X0034373Y0183030D01*
X0034137Y0182620D01*
X0034014Y0182162D01*
X0034014Y0179563D01*
X0034014Y0176964D01*
X0034137Y0176506D01*
X0034373Y0176096D01*
X0034709Y0175760D01*
X0035119Y0175523D01*
X0035577Y0175401D01*
X0037389Y0175401D01*
X0037389Y0179563D01*
X0037389Y0179563D01*
X0037389Y0183725D01*
X0035577Y0183725D01*
X0034113Y0182533D02*
X0024369Y0182533D01*
X0024369Y0180935D02*
X0034014Y0180935D01*
X0034014Y0179563D02*
X0037389Y0179563D01*
X0034014Y0179563D01*
X0034014Y0179336D02*
X0024369Y0179336D01*
X0024369Y0177738D02*
X0034014Y0177738D01*
X0034348Y0176139D02*
X0024369Y0176139D01*
X0037389Y0176139D02*
X0037389Y0176139D01*
X0037389Y0177738D02*
X0037389Y0177738D01*
X0037389Y0179336D02*
X0037389Y0179336D01*
X0037389Y0179563D02*
X0037389Y0179563D01*
X0037389Y0180935D02*
X0037389Y0180935D01*
X0037389Y0182533D02*
X0037389Y0182533D01*
X0044475Y0181118D02*
X0044475Y0179563D01*
X0044475Y0181118D02*
X0052645Y0181118D01*
X0054569Y0177738D02*
X0048050Y0177738D01*
X0047817Y0176139D02*
X0054568Y0176139D01*
X0054943Y0174541D02*
X0047275Y0174541D01*
X0047275Y0184132D02*
X0048426Y0184132D01*
X0048285Y0185730D02*
X0047275Y0185730D01*
X0087659Y0129782D02*
X0093075Y0129782D01*
X0113241Y0129782D02*
X0118075Y0129782D01*
X0119869Y0126000D02*
X0119869Y0118000D01*
X0122853Y0116994D02*
X0129385Y0116994D01*
X0129385Y0115396D02*
X0122853Y0115396D01*
X0122853Y0113797D02*
X0129385Y0113797D01*
X0129310Y0112199D02*
X0122853Y0112199D01*
X0122096Y0110600D02*
X0129102Y0110600D01*
X0127751Y0109002D02*
X0121987Y0109002D01*
X0121987Y0107403D02*
X0127751Y0107403D01*
X0127751Y0105805D02*
X0121987Y0105805D01*
X0121987Y0104206D02*
X0127751Y0104206D01*
X0125152Y0102608D02*
X0124783Y0102608D01*
X0124783Y0101009D02*
X0125152Y0101009D01*
X0125152Y0099411D02*
X0124783Y0099411D01*
X0124783Y0097812D02*
X0125152Y0097812D01*
X0124869Y0097299D02*
X0124967Y0097201D01*
X0124783Y0096214D02*
X0125152Y0096214D01*
X0125152Y0094615D02*
X0124783Y0094615D01*
X0124783Y0093017D02*
X0125152Y0093017D01*
X0128315Y0091418D02*
X0121619Y0091418D01*
X0115717Y0091418D02*
X0115320Y0091418D01*
X0118668Y0097201D02*
X0118412Y0106000D01*
X0119869Y0114000D01*
X0114837Y0109002D02*
X0114593Y0109002D01*
X0114700Y0107403D02*
X0114837Y0107403D01*
X0114837Y0105805D02*
X0114700Y0105805D01*
X0114700Y0104206D02*
X0114837Y0104206D01*
X0111326Y0106000D02*
X0111326Y0106000D01*
X0111326Y0107403D02*
X0111326Y0107403D01*
X0111326Y0109002D02*
X0111326Y0109002D01*
X0131326Y0106000D02*
X0131267Y0097201D01*
X0134218Y0091418D02*
X0140914Y0091418D01*
X0137750Y0093017D02*
X0137382Y0093017D01*
X0137382Y0094615D02*
X0137750Y0094615D01*
X0137750Y0096214D02*
X0137382Y0096214D01*
X0137369Y0097004D02*
X0137566Y0097201D01*
X0137369Y0097398D01*
X0135037Y0104206D02*
X0134900Y0104206D01*
X0134900Y0105805D02*
X0135037Y0105805D01*
X0135037Y0107403D02*
X0134900Y0107403D01*
X0134900Y0109002D02*
X0135145Y0109002D01*
X0138412Y0109002D02*
X0138412Y0109002D01*
X0138412Y0107403D02*
X0138412Y0107403D01*
X0138412Y0106000D02*
X0138412Y0106000D01*
X0131326Y0106000D02*
X0132369Y0114000D01*
X0146816Y0091418D02*
X0147213Y0091418D01*
X0109418Y0091418D02*
X0109021Y0091418D01*
X0103118Y0091418D02*
X0102722Y0091418D01*
X0096819Y0091418D02*
X0096423Y0091418D01*
X0393921Y0296028D02*
X0400817Y0296028D01*
X0400417Y0297626D02*
X0394321Y0297626D01*
X0394015Y0300823D02*
X0400723Y0300823D01*
X0401509Y0302422D02*
X0393229Y0302422D01*
X0391768Y0304020D02*
X0402970Y0304020D01*
X0406608Y0297626D02*
X0408208Y0297626D01*
X0408208Y0296028D02*
X0406608Y0296028D01*
X0406608Y0294429D02*
X0408208Y0294429D01*
X0408208Y0292831D02*
X0406608Y0292831D01*
X0411549Y0292831D02*
X0414070Y0292831D01*
X0414070Y0294429D02*
X0413141Y0294429D01*
X0413999Y0296028D02*
X0414070Y0296028D01*
X0414070Y0284838D02*
X0410435Y0284838D01*
X0412600Y0283239D02*
X0414070Y0283239D01*
X0414070Y0281641D02*
X0413713Y0281641D01*
X0413693Y0275247D02*
X0414070Y0275247D01*
X0414070Y0273648D02*
X0412566Y0273648D01*
X0414070Y0272050D02*
X0410353Y0272050D01*
X0402216Y0283239D02*
X0399694Y0283239D01*
D34*
X0367369Y0248500D03*
X0262369Y0183500D03*
X0234967Y0153106D03*
X0177369Y0196000D03*
X0162369Y0181000D03*
X0152369Y0188500D03*
X0142369Y0206000D03*
X0137369Y0216000D03*
X0137369Y0223500D03*
X0127369Y0218500D03*
X0119869Y0223500D03*
X0097369Y0223500D03*
X0077369Y0223500D03*
X0072395Y0194465D03*
X0069869Y0181000D03*
X0093235Y0180665D03*
X0101701Y0180665D03*
X0144416Y0160980D03*
X0119869Y0126000D03*
X0094869Y0126000D03*
X0179869Y0226000D03*
X0207369Y0228500D03*
X0242369Y0223500D03*
X0252369Y0236000D03*
X0252369Y0251000D03*
X0162369Y0248500D03*
X0037369Y0293500D03*
M02*
