%
M48
M72
T01C0.0236
T02C0.0276
T03C0.0315
T04C0.0360
T05C0.0400
T06C0.0500
T07C0.0591
T08C0.0700
T09C0.0787
T10C0.0890
T11C0.0935
%
T01
X9487Y12615
X9324Y13357
X11987Y12615
X10170Y18082
X9324Y18082
X7239Y19462
X6987Y18115
X7737Y22365
X9737Y22365
X11987Y22365
X12737Y21865
X13737Y21615
X13737Y22365
X14237Y20615
X15237Y18865
X16237Y18115
X17737Y19615
X17987Y22615
X20737Y22865
X24237Y22365
X25237Y23615
X25237Y25115
X26237Y18365
X23497Y15326
X16237Y24865
X3737Y29365
X36737Y24865
T02
X19524Y25834
X18737Y25834
X17949Y25834
X16024Y25834
X15237Y25834
X14449Y25834
X12524Y25834
X11737Y25834
X10949Y25834
T03
X22237Y24365
X23237Y24365
X24237Y24365
X30237Y24365
X31237Y24365
X32237Y24365
X33237Y24365
T04
X6237Y27865
X5237Y27865
X4237Y27865
X3237Y27865
T05
X4237Y25865
X5237Y25865
X5237Y24865
X4237Y24865
X4237Y23865
X5237Y23865
X8237Y27865
X9237Y27865
X10237Y27865
X11237Y27865
X12237Y27865
X13237Y27865
T06
X39737Y28865
T07
X40237Y19365
X40237Y11865
X38268Y4365
X25237Y11865
X18737Y11865
X18737Y19365
X25237Y19365
X23268Y4365
X20548Y4365
X5548Y4365
X3737Y11865
X3737Y19365
T08
X38733Y27861
X40741Y27861
X40741Y29869
X38733Y29869
T09
X21922Y16113
T10
X3418Y1940
X40426Y1940
X3418Y30877
T11
X15237Y30365
X17237Y30365
X19237Y30365
M30
