G75*
%MOIN*%
%OFA0B0*%
%FSLAX25Y25*%
%IPPOS*%
%LPD*%
%AMOC8*
5,1,8,0,0,1.08239X$1,22.5*
%
%ADD10C,0.00000*%
D10*
X0022369Y0003000D02*
X0022542Y0003260D01*
X0022553Y0003250D02*
X0022553Y0003283D01*
X0022586Y0003283D01*
X0022586Y0003250D01*
X0022553Y0003250D01*
X0022553Y0003183D02*
X0022553Y0003150D01*
X0022586Y0003150D01*
X0022586Y0003183D01*
X0022553Y0003183D01*
X0022502Y0003183D02*
X0022469Y0003150D01*
X0022402Y0003150D01*
X0022369Y0003183D01*
X0022369Y0003317D01*
X0022402Y0003350D01*
X0022469Y0003350D01*
X0022502Y0003317D01*
X0022652Y0003173D02*
X0022782Y0003173D01*
X0022829Y0003183D02*
X0022863Y0003150D01*
X0022929Y0003150D01*
X0022963Y0003183D01*
X0022963Y0003350D01*
X0023047Y0003283D02*
X0023147Y0003283D01*
X0023198Y0003250D02*
X0023231Y0003283D01*
X0023298Y0003283D01*
X0023331Y0003250D01*
X0023331Y0003217D01*
X0023198Y0003217D01*
X0023198Y0003250D02*
X0023198Y0003183D01*
X0023231Y0003150D01*
X0023298Y0003150D01*
X0023333Y0003173D02*
X0023377Y0003173D01*
X0023382Y0003150D02*
X0023382Y0003283D01*
X0023382Y0003217D02*
X0023449Y0003283D01*
X0023482Y0003283D01*
X0023535Y0003250D02*
X0023569Y0003283D01*
X0023669Y0003283D01*
X0023635Y0003217D02*
X0023569Y0003217D01*
X0023535Y0003250D01*
X0023576Y0003173D02*
X0023620Y0003130D01*
X0023620Y0003000D01*
X0023490Y0003000D01*
X0023446Y0003043D01*
X0023490Y0003087D01*
X0023620Y0003087D01*
X0023635Y0003150D02*
X0023669Y0003183D01*
X0023635Y0003217D01*
X0023635Y0003150D02*
X0023535Y0003150D01*
X0023576Y0003173D02*
X0023490Y0003173D01*
X0023333Y0003173D02*
X0023247Y0003087D01*
X0023181Y0003130D02*
X0023137Y0003173D01*
X0023051Y0003173D01*
X0023007Y0003130D01*
X0023007Y0003043D01*
X0023051Y0003000D01*
X0023137Y0003000D01*
X0023181Y0003043D01*
X0023181Y0003130D01*
X0023147Y0003183D02*
X0023114Y0003217D01*
X0023047Y0003217D01*
X0023013Y0003250D01*
X0023047Y0003283D01*
X0023013Y0003150D02*
X0023114Y0003150D01*
X0023147Y0003183D01*
X0023247Y0003173D02*
X0023247Y0003000D01*
X0022934Y0003000D02*
X0022891Y0003043D01*
X0022891Y0003217D01*
X0022848Y0003173D02*
X0022934Y0003173D01*
X0022829Y0003183D02*
X0022829Y0003350D01*
X0022779Y0003350D02*
X0022645Y0003150D01*
X0022652Y0003173D02*
X0022608Y0003130D01*
X0022652Y0003087D01*
X0022738Y0003087D01*
X0022782Y0003043D01*
X0022738Y0003000D01*
X0022608Y0003000D01*
X0022369Y0003650D02*
X0022369Y0318611D01*
X0416070Y0318611D01*
X0416070Y0003650D01*
X0022369Y0003650D01*
X0023686Y0003130D02*
X0023686Y0003043D01*
X0023729Y0003000D01*
X0023859Y0003000D01*
X0023859Y0002957D02*
X0023859Y0003173D01*
X0023729Y0003173D01*
X0023686Y0003130D01*
X0023719Y0003150D02*
X0023853Y0003350D01*
X0023937Y0003283D02*
X0023904Y0003250D01*
X0023904Y0003183D01*
X0023937Y0003150D01*
X0024037Y0003150D01*
X0024055Y0003173D02*
X0024098Y0003130D01*
X0024098Y0003087D01*
X0023925Y0003087D01*
X0023925Y0003130D02*
X0023968Y0003173D01*
X0024055Y0003173D01*
X0024088Y0003183D02*
X0024121Y0003150D01*
X0024154Y0003183D01*
X0024188Y0003150D01*
X0024221Y0003183D01*
X0024221Y0003283D01*
X0024272Y0003317D02*
X0024305Y0003350D01*
X0024372Y0003350D01*
X0024405Y0003317D01*
X0024272Y0003183D01*
X0024305Y0003150D01*
X0024372Y0003150D01*
X0024405Y0003183D01*
X0024405Y0003317D01*
X0024456Y0003317D02*
X0024489Y0003350D01*
X0024556Y0003350D01*
X0024589Y0003317D01*
X0024456Y0003183D01*
X0024489Y0003150D01*
X0024556Y0003150D01*
X0024589Y0003183D01*
X0024589Y0003317D01*
X0024643Y0003260D02*
X0024643Y0003000D01*
X0024577Y0003043D02*
X0024534Y0003000D01*
X0024447Y0003000D01*
X0024404Y0003043D01*
X0024404Y0003217D01*
X0024447Y0003260D01*
X0024534Y0003260D01*
X0024577Y0003217D01*
X0024640Y0003250D02*
X0024740Y0003250D01*
X0024774Y0003217D01*
X0024774Y0003183D01*
X0024740Y0003150D01*
X0024674Y0003150D01*
X0024640Y0003183D01*
X0024640Y0003250D01*
X0024707Y0003317D01*
X0024774Y0003350D01*
X0024824Y0003317D02*
X0024858Y0003350D01*
X0024924Y0003350D01*
X0024958Y0003317D01*
X0024958Y0003283D01*
X0024924Y0003250D01*
X0024958Y0003217D01*
X0024958Y0003183D01*
X0024924Y0003150D01*
X0024858Y0003150D01*
X0024824Y0003183D01*
X0024773Y0003173D02*
X0024817Y0003130D01*
X0024817Y0003000D01*
X0024883Y0003000D02*
X0024883Y0003173D01*
X0024891Y0003250D02*
X0024924Y0003250D01*
X0024969Y0003173D02*
X0025013Y0003173D01*
X0025008Y0003150D02*
X0025142Y0003350D01*
X0025193Y0003350D02*
X0025293Y0003350D01*
X0025326Y0003317D01*
X0025326Y0003183D01*
X0025293Y0003150D01*
X0025193Y0003150D01*
X0025193Y0003350D01*
X0025212Y0003173D02*
X0025125Y0003173D01*
X0025082Y0003130D01*
X0025082Y0003043D01*
X0025125Y0003000D01*
X0025212Y0003000D01*
X0025256Y0003043D01*
X0025256Y0003130D01*
X0025212Y0003173D01*
X0025321Y0003173D02*
X0025365Y0003173D01*
X0025408Y0003130D01*
X0025452Y0003173D01*
X0025495Y0003130D01*
X0025495Y0003000D01*
X0025561Y0003043D02*
X0025561Y0003130D01*
X0025604Y0003173D01*
X0025691Y0003173D01*
X0025734Y0003130D01*
X0025734Y0003087D01*
X0025561Y0003087D01*
X0025561Y0003043D02*
X0025604Y0003000D01*
X0025691Y0003000D01*
X0025800Y0003000D02*
X0025974Y0003260D01*
X0026052Y0003250D02*
X0026052Y0003183D01*
X0026085Y0003150D01*
X0026152Y0003150D01*
X0026185Y0003183D01*
X0026185Y0003250D01*
X0026152Y0003283D01*
X0026085Y0003283D01*
X0026052Y0003250D01*
X0026083Y0003173D02*
X0026040Y0003130D01*
X0026040Y0003043D01*
X0026083Y0003000D01*
X0026213Y0003000D01*
X0026279Y0003000D02*
X0026279Y0003173D01*
X0026270Y0003150D02*
X0026236Y0003183D01*
X0026270Y0003217D01*
X0026370Y0003217D01*
X0026370Y0003250D02*
X0026370Y0003150D01*
X0026270Y0003150D01*
X0026213Y0003173D02*
X0026083Y0003173D01*
X0025996Y0003150D02*
X0025929Y0003150D01*
X0025963Y0003150D02*
X0025963Y0003350D01*
X0025929Y0003350D01*
X0025845Y0003283D02*
X0025879Y0003250D01*
X0025879Y0003150D01*
X0025745Y0003150D02*
X0025745Y0003283D01*
X0025845Y0003283D01*
X0025694Y0003283D02*
X0025694Y0003183D01*
X0025661Y0003150D01*
X0025628Y0003183D01*
X0025594Y0003150D01*
X0025561Y0003183D01*
X0025561Y0003283D01*
X0025510Y0003250D02*
X0025477Y0003283D01*
X0025410Y0003283D01*
X0025377Y0003250D01*
X0025377Y0003183D01*
X0025410Y0003150D01*
X0025477Y0003150D01*
X0025510Y0003183D01*
X0025510Y0003250D01*
X0025408Y0003130D02*
X0025408Y0003000D01*
X0025321Y0003000D02*
X0025321Y0003173D01*
X0024969Y0003173D02*
X0024883Y0003087D01*
X0024773Y0003173D02*
X0024687Y0003173D01*
X0024643Y0003130D01*
X0024456Y0003183D02*
X0024456Y0003317D01*
X0024338Y0003260D02*
X0024164Y0003000D01*
X0024055Y0003000D02*
X0023968Y0003000D01*
X0023925Y0003043D01*
X0023925Y0003130D01*
X0023937Y0003283D02*
X0024037Y0003283D01*
X0024088Y0003283D02*
X0024088Y0003183D01*
X0024272Y0003183D02*
X0024272Y0003317D01*
X0023859Y0002957D02*
X0023816Y0002913D01*
X0023772Y0002913D01*
X0026279Y0003087D02*
X0026366Y0003173D01*
X0026409Y0003173D01*
X0026420Y0003183D02*
X0026420Y0003250D01*
X0026454Y0003283D01*
X0026554Y0003283D01*
X0026604Y0003250D02*
X0026638Y0003283D01*
X0026738Y0003283D01*
X0026705Y0003217D02*
X0026638Y0003217D01*
X0026604Y0003250D01*
X0026609Y0003173D02*
X0026522Y0003173D01*
X0026479Y0003130D01*
X0026479Y0003043D01*
X0026522Y0003000D01*
X0026609Y0003000D01*
X0026652Y0003043D01*
X0026652Y0003130D01*
X0026609Y0003173D01*
X0026604Y0003150D02*
X0026705Y0003150D01*
X0026738Y0003183D01*
X0026705Y0003217D01*
X0026761Y0003173D02*
X0026718Y0003130D01*
X0026718Y0003043D01*
X0026761Y0003000D01*
X0026891Y0003000D01*
X0026957Y0003000D02*
X0027001Y0003000D01*
X0027001Y0003043D01*
X0026957Y0003043D01*
X0026957Y0003000D01*
X0027077Y0003000D02*
X0027207Y0003000D01*
X0027251Y0003043D01*
X0027251Y0003130D01*
X0027207Y0003173D01*
X0027077Y0003173D01*
X0027106Y0003150D02*
X0027006Y0003150D01*
X0026973Y0003183D01*
X0026973Y0003250D01*
X0027006Y0003283D01*
X0027106Y0003283D01*
X0027077Y0003260D02*
X0027077Y0003000D01*
X0027157Y0003150D02*
X0027157Y0003283D01*
X0027157Y0003217D02*
X0027224Y0003283D01*
X0027257Y0003283D01*
X0027310Y0003250D02*
X0027344Y0003283D01*
X0027410Y0003283D01*
X0027444Y0003250D01*
X0027444Y0003183D01*
X0027410Y0003150D01*
X0027344Y0003150D01*
X0027310Y0003183D01*
X0027310Y0003250D01*
X0027316Y0003173D02*
X0027360Y0003173D01*
X0027403Y0003130D01*
X0027447Y0003173D01*
X0027490Y0003130D01*
X0027490Y0003000D01*
X0027556Y0003000D02*
X0027686Y0003000D01*
X0027729Y0003043D01*
X0027729Y0003130D01*
X0027686Y0003173D01*
X0027556Y0003173D01*
X0027556Y0002913D01*
X0027403Y0003000D02*
X0027403Y0003130D01*
X0027316Y0003173D02*
X0027316Y0003000D01*
X0027495Y0003183D02*
X0027528Y0003150D01*
X0027628Y0003150D01*
X0027679Y0003150D02*
X0027712Y0003150D01*
X0027712Y0003183D01*
X0027679Y0003183D01*
X0027679Y0003150D01*
X0027771Y0003150D02*
X0027871Y0003150D01*
X0027904Y0003183D01*
X0027904Y0003250D01*
X0027871Y0003283D01*
X0027771Y0003283D01*
X0027771Y0003350D02*
X0027771Y0003150D01*
X0027955Y0003150D02*
X0027955Y0003283D01*
X0027988Y0003283D01*
X0028022Y0003250D01*
X0028055Y0003283D01*
X0028088Y0003250D01*
X0028088Y0003150D01*
X0028139Y0003150D02*
X0028239Y0003150D01*
X0028273Y0003183D01*
X0028273Y0003250D01*
X0028239Y0003283D01*
X0028139Y0003283D01*
X0028139Y0003083D01*
X0028022Y0003150D02*
X0028022Y0003250D01*
X0027628Y0003283D02*
X0027528Y0003283D01*
X0027495Y0003250D01*
X0027495Y0003183D01*
X0026922Y0003350D02*
X0026789Y0003150D01*
X0026761Y0003173D02*
X0026891Y0003173D01*
X0026554Y0003150D02*
X0026454Y0003150D01*
X0026420Y0003183D01*
X0026370Y0003250D02*
X0026336Y0003283D01*
X0026270Y0003283D01*
X0026554Y0003350D02*
X0026554Y0003150D01*
X0029330Y0019398D02*
X0029332Y0019537D01*
X0029338Y0019676D01*
X0029348Y0019815D01*
X0029362Y0019953D01*
X0029380Y0020091D01*
X0029402Y0020229D01*
X0029427Y0020366D01*
X0029457Y0020501D01*
X0029491Y0020636D01*
X0029528Y0020770D01*
X0029570Y0020903D01*
X0029615Y0021035D01*
X0029663Y0021165D01*
X0029716Y0021294D01*
X0029772Y0021421D01*
X0029832Y0021547D01*
X0029896Y0021671D01*
X0029962Y0021793D01*
X0030033Y0021913D01*
X0030107Y0022031D01*
X0030184Y0022147D01*
X0030264Y0022260D01*
X0030348Y0022371D01*
X0030435Y0022480D01*
X0030525Y0022586D01*
X0030618Y0022690D01*
X0030714Y0022790D01*
X0030813Y0022888D01*
X0030914Y0022984D01*
X0031018Y0023076D01*
X0031125Y0023165D01*
X0031234Y0023251D01*
X0031346Y0023334D01*
X0031460Y0023414D01*
X0031577Y0023490D01*
X0031695Y0023563D01*
X0031816Y0023633D01*
X0031938Y0023699D01*
X0032062Y0023761D01*
X0032188Y0023820D01*
X0032316Y0023875D01*
X0032445Y0023927D01*
X0032576Y0023975D01*
X0032708Y0024019D01*
X0032841Y0024059D01*
X0032975Y0024096D01*
X0033110Y0024129D01*
X0033247Y0024157D01*
X0033384Y0024182D01*
X0033521Y0024203D01*
X0033659Y0024220D01*
X0033798Y0024233D01*
X0033937Y0024242D01*
X0034076Y0024247D01*
X0034215Y0024248D01*
X0034354Y0024245D01*
X0034493Y0024238D01*
X0034632Y0024227D01*
X0034770Y0024212D01*
X0034908Y0024193D01*
X0035045Y0024170D01*
X0035182Y0024143D01*
X0035317Y0024113D01*
X0035452Y0024078D01*
X0035586Y0024040D01*
X0035718Y0023998D01*
X0035850Y0023952D01*
X0035980Y0023902D01*
X0036108Y0023848D01*
X0036235Y0023791D01*
X0036360Y0023730D01*
X0036484Y0023666D01*
X0036605Y0023598D01*
X0036724Y0023527D01*
X0036842Y0023452D01*
X0036957Y0023374D01*
X0037070Y0023293D01*
X0037181Y0023208D01*
X0037289Y0023121D01*
X0037394Y0023030D01*
X0037497Y0022936D01*
X0037597Y0022840D01*
X0037694Y0022740D01*
X0037789Y0022638D01*
X0037880Y0022533D01*
X0037969Y0022426D01*
X0038054Y0022316D01*
X0038136Y0022204D01*
X0038215Y0022089D01*
X0038291Y0021972D01*
X0038363Y0021853D01*
X0038431Y0021732D01*
X0038497Y0021609D01*
X0038558Y0021484D01*
X0038616Y0021358D01*
X0038671Y0021230D01*
X0038721Y0021100D01*
X0038768Y0020969D01*
X0038812Y0020837D01*
X0038851Y0020704D01*
X0038886Y0020569D01*
X0038918Y0020434D01*
X0038946Y0020297D01*
X0038970Y0020160D01*
X0038990Y0020022D01*
X0039006Y0019884D01*
X0039018Y0019746D01*
X0039026Y0019607D01*
X0039030Y0019468D01*
X0039030Y0019328D01*
X0039026Y0019189D01*
X0039018Y0019050D01*
X0039006Y0018912D01*
X0038990Y0018774D01*
X0038970Y0018636D01*
X0038946Y0018499D01*
X0038918Y0018362D01*
X0038886Y0018227D01*
X0038851Y0018092D01*
X0038812Y0017959D01*
X0038768Y0017827D01*
X0038721Y0017696D01*
X0038671Y0017566D01*
X0038616Y0017438D01*
X0038558Y0017312D01*
X0038497Y0017187D01*
X0038431Y0017064D01*
X0038363Y0016943D01*
X0038291Y0016824D01*
X0038215Y0016707D01*
X0038136Y0016592D01*
X0038054Y0016480D01*
X0037969Y0016370D01*
X0037880Y0016263D01*
X0037789Y0016158D01*
X0037694Y0016056D01*
X0037597Y0015956D01*
X0037497Y0015860D01*
X0037394Y0015766D01*
X0037289Y0015675D01*
X0037181Y0015588D01*
X0037070Y0015503D01*
X0036957Y0015422D01*
X0036842Y0015344D01*
X0036724Y0015269D01*
X0036605Y0015198D01*
X0036484Y0015130D01*
X0036360Y0015066D01*
X0036235Y0015005D01*
X0036108Y0014948D01*
X0035980Y0014894D01*
X0035850Y0014844D01*
X0035718Y0014798D01*
X0035586Y0014756D01*
X0035452Y0014718D01*
X0035317Y0014683D01*
X0035182Y0014653D01*
X0035045Y0014626D01*
X0034908Y0014603D01*
X0034770Y0014584D01*
X0034632Y0014569D01*
X0034493Y0014558D01*
X0034354Y0014551D01*
X0034215Y0014548D01*
X0034076Y0014549D01*
X0033937Y0014554D01*
X0033798Y0014563D01*
X0033659Y0014576D01*
X0033521Y0014593D01*
X0033384Y0014614D01*
X0033247Y0014639D01*
X0033110Y0014667D01*
X0032975Y0014700D01*
X0032841Y0014737D01*
X0032708Y0014777D01*
X0032576Y0014821D01*
X0032445Y0014869D01*
X0032316Y0014921D01*
X0032188Y0014976D01*
X0032062Y0015035D01*
X0031938Y0015097D01*
X0031816Y0015163D01*
X0031695Y0015233D01*
X0031577Y0015306D01*
X0031460Y0015382D01*
X0031346Y0015462D01*
X0031234Y0015545D01*
X0031125Y0015631D01*
X0031018Y0015720D01*
X0030914Y0015812D01*
X0030813Y0015908D01*
X0030714Y0016006D01*
X0030618Y0016106D01*
X0030525Y0016210D01*
X0030435Y0016316D01*
X0030348Y0016425D01*
X0030264Y0016536D01*
X0030184Y0016649D01*
X0030107Y0016765D01*
X0030033Y0016883D01*
X0029962Y0017003D01*
X0029896Y0017125D01*
X0029832Y0017249D01*
X0029772Y0017375D01*
X0029716Y0017502D01*
X0029663Y0017631D01*
X0029615Y0017761D01*
X0029570Y0017893D01*
X0029528Y0018026D01*
X0029491Y0018160D01*
X0029457Y0018295D01*
X0029427Y0018430D01*
X0029402Y0018567D01*
X0029380Y0018705D01*
X0029362Y0018843D01*
X0029348Y0018981D01*
X0029338Y0019120D01*
X0029332Y0019259D01*
X0029330Y0019398D01*
X0214369Y0161130D02*
X0214371Y0161269D01*
X0214377Y0161408D01*
X0214387Y0161547D01*
X0214401Y0161685D01*
X0214419Y0161823D01*
X0214441Y0161961D01*
X0214466Y0162098D01*
X0214496Y0162233D01*
X0214530Y0162368D01*
X0214567Y0162502D01*
X0214609Y0162635D01*
X0214654Y0162767D01*
X0214702Y0162897D01*
X0214755Y0163026D01*
X0214811Y0163153D01*
X0214871Y0163279D01*
X0214935Y0163403D01*
X0215001Y0163525D01*
X0215072Y0163645D01*
X0215146Y0163763D01*
X0215223Y0163879D01*
X0215303Y0163992D01*
X0215387Y0164103D01*
X0215474Y0164212D01*
X0215564Y0164318D01*
X0215657Y0164422D01*
X0215753Y0164522D01*
X0215852Y0164620D01*
X0215953Y0164716D01*
X0216057Y0164808D01*
X0216164Y0164897D01*
X0216273Y0164983D01*
X0216385Y0165066D01*
X0216499Y0165146D01*
X0216616Y0165222D01*
X0216734Y0165295D01*
X0216855Y0165365D01*
X0216977Y0165431D01*
X0217101Y0165493D01*
X0217227Y0165552D01*
X0217355Y0165607D01*
X0217484Y0165659D01*
X0217615Y0165707D01*
X0217747Y0165751D01*
X0217880Y0165791D01*
X0218014Y0165828D01*
X0218149Y0165861D01*
X0218286Y0165889D01*
X0218423Y0165914D01*
X0218560Y0165935D01*
X0218698Y0165952D01*
X0218837Y0165965D01*
X0218976Y0165974D01*
X0219115Y0165979D01*
X0219254Y0165980D01*
X0219393Y0165977D01*
X0219532Y0165970D01*
X0219671Y0165959D01*
X0219809Y0165944D01*
X0219947Y0165925D01*
X0220084Y0165902D01*
X0220221Y0165875D01*
X0220356Y0165845D01*
X0220491Y0165810D01*
X0220625Y0165772D01*
X0220757Y0165730D01*
X0220889Y0165684D01*
X0221019Y0165634D01*
X0221147Y0165580D01*
X0221274Y0165523D01*
X0221399Y0165462D01*
X0221523Y0165398D01*
X0221644Y0165330D01*
X0221763Y0165259D01*
X0221881Y0165184D01*
X0221996Y0165106D01*
X0222109Y0165025D01*
X0222220Y0164940D01*
X0222328Y0164853D01*
X0222433Y0164762D01*
X0222536Y0164668D01*
X0222636Y0164572D01*
X0222733Y0164472D01*
X0222828Y0164370D01*
X0222919Y0164265D01*
X0223008Y0164158D01*
X0223093Y0164048D01*
X0223175Y0163936D01*
X0223254Y0163821D01*
X0223330Y0163704D01*
X0223402Y0163585D01*
X0223470Y0163464D01*
X0223536Y0163341D01*
X0223597Y0163216D01*
X0223655Y0163090D01*
X0223710Y0162962D01*
X0223760Y0162832D01*
X0223807Y0162701D01*
X0223851Y0162569D01*
X0223890Y0162436D01*
X0223925Y0162301D01*
X0223957Y0162166D01*
X0223985Y0162029D01*
X0224009Y0161892D01*
X0224029Y0161754D01*
X0224045Y0161616D01*
X0224057Y0161478D01*
X0224065Y0161339D01*
X0224069Y0161200D01*
X0224069Y0161060D01*
X0224065Y0160921D01*
X0224057Y0160782D01*
X0224045Y0160644D01*
X0224029Y0160506D01*
X0224009Y0160368D01*
X0223985Y0160231D01*
X0223957Y0160094D01*
X0223925Y0159959D01*
X0223890Y0159824D01*
X0223851Y0159691D01*
X0223807Y0159559D01*
X0223760Y0159428D01*
X0223710Y0159298D01*
X0223655Y0159170D01*
X0223597Y0159044D01*
X0223536Y0158919D01*
X0223470Y0158796D01*
X0223402Y0158675D01*
X0223330Y0158556D01*
X0223254Y0158439D01*
X0223175Y0158324D01*
X0223093Y0158212D01*
X0223008Y0158102D01*
X0222919Y0157995D01*
X0222828Y0157890D01*
X0222733Y0157788D01*
X0222636Y0157688D01*
X0222536Y0157592D01*
X0222433Y0157498D01*
X0222328Y0157407D01*
X0222220Y0157320D01*
X0222109Y0157235D01*
X0221996Y0157154D01*
X0221881Y0157076D01*
X0221763Y0157001D01*
X0221644Y0156930D01*
X0221523Y0156862D01*
X0221399Y0156798D01*
X0221274Y0156737D01*
X0221147Y0156680D01*
X0221019Y0156626D01*
X0220889Y0156576D01*
X0220757Y0156530D01*
X0220625Y0156488D01*
X0220491Y0156450D01*
X0220356Y0156415D01*
X0220221Y0156385D01*
X0220084Y0156358D01*
X0219947Y0156335D01*
X0219809Y0156316D01*
X0219671Y0156301D01*
X0219532Y0156290D01*
X0219393Y0156283D01*
X0219254Y0156280D01*
X0219115Y0156281D01*
X0218976Y0156286D01*
X0218837Y0156295D01*
X0218698Y0156308D01*
X0218560Y0156325D01*
X0218423Y0156346D01*
X0218286Y0156371D01*
X0218149Y0156399D01*
X0218014Y0156432D01*
X0217880Y0156469D01*
X0217747Y0156509D01*
X0217615Y0156553D01*
X0217484Y0156601D01*
X0217355Y0156653D01*
X0217227Y0156708D01*
X0217101Y0156767D01*
X0216977Y0156829D01*
X0216855Y0156895D01*
X0216734Y0156965D01*
X0216616Y0157038D01*
X0216499Y0157114D01*
X0216385Y0157194D01*
X0216273Y0157277D01*
X0216164Y0157363D01*
X0216057Y0157452D01*
X0215953Y0157544D01*
X0215852Y0157640D01*
X0215753Y0157738D01*
X0215657Y0157838D01*
X0215564Y0157942D01*
X0215474Y0158048D01*
X0215387Y0158157D01*
X0215303Y0158268D01*
X0215223Y0158381D01*
X0215146Y0158497D01*
X0215072Y0158615D01*
X0215001Y0158735D01*
X0214935Y0158857D01*
X0214871Y0158981D01*
X0214811Y0159107D01*
X0214755Y0159234D01*
X0214702Y0159363D01*
X0214654Y0159493D01*
X0214609Y0159625D01*
X0214567Y0159758D01*
X0214530Y0159892D01*
X0214496Y0160027D01*
X0214466Y0160162D01*
X0214441Y0160299D01*
X0214419Y0160437D01*
X0214401Y0160575D01*
X0214387Y0160713D01*
X0214377Y0160852D01*
X0214371Y0160991D01*
X0214369Y0161130D01*
X0399409Y0019398D02*
X0399411Y0019537D01*
X0399417Y0019676D01*
X0399427Y0019815D01*
X0399441Y0019953D01*
X0399459Y0020091D01*
X0399481Y0020229D01*
X0399506Y0020366D01*
X0399536Y0020501D01*
X0399570Y0020636D01*
X0399607Y0020770D01*
X0399649Y0020903D01*
X0399694Y0021035D01*
X0399742Y0021165D01*
X0399795Y0021294D01*
X0399851Y0021421D01*
X0399911Y0021547D01*
X0399975Y0021671D01*
X0400041Y0021793D01*
X0400112Y0021913D01*
X0400186Y0022031D01*
X0400263Y0022147D01*
X0400343Y0022260D01*
X0400427Y0022371D01*
X0400514Y0022480D01*
X0400604Y0022586D01*
X0400697Y0022690D01*
X0400793Y0022790D01*
X0400892Y0022888D01*
X0400993Y0022984D01*
X0401097Y0023076D01*
X0401204Y0023165D01*
X0401313Y0023251D01*
X0401425Y0023334D01*
X0401539Y0023414D01*
X0401656Y0023490D01*
X0401774Y0023563D01*
X0401895Y0023633D01*
X0402017Y0023699D01*
X0402141Y0023761D01*
X0402267Y0023820D01*
X0402395Y0023875D01*
X0402524Y0023927D01*
X0402655Y0023975D01*
X0402787Y0024019D01*
X0402920Y0024059D01*
X0403054Y0024096D01*
X0403189Y0024129D01*
X0403326Y0024157D01*
X0403463Y0024182D01*
X0403600Y0024203D01*
X0403738Y0024220D01*
X0403877Y0024233D01*
X0404016Y0024242D01*
X0404155Y0024247D01*
X0404294Y0024248D01*
X0404433Y0024245D01*
X0404572Y0024238D01*
X0404711Y0024227D01*
X0404849Y0024212D01*
X0404987Y0024193D01*
X0405124Y0024170D01*
X0405261Y0024143D01*
X0405396Y0024113D01*
X0405531Y0024078D01*
X0405665Y0024040D01*
X0405797Y0023998D01*
X0405929Y0023952D01*
X0406059Y0023902D01*
X0406187Y0023848D01*
X0406314Y0023791D01*
X0406439Y0023730D01*
X0406563Y0023666D01*
X0406684Y0023598D01*
X0406803Y0023527D01*
X0406921Y0023452D01*
X0407036Y0023374D01*
X0407149Y0023293D01*
X0407260Y0023208D01*
X0407368Y0023121D01*
X0407473Y0023030D01*
X0407576Y0022936D01*
X0407676Y0022840D01*
X0407773Y0022740D01*
X0407868Y0022638D01*
X0407959Y0022533D01*
X0408048Y0022426D01*
X0408133Y0022316D01*
X0408215Y0022204D01*
X0408294Y0022089D01*
X0408370Y0021972D01*
X0408442Y0021853D01*
X0408510Y0021732D01*
X0408576Y0021609D01*
X0408637Y0021484D01*
X0408695Y0021358D01*
X0408750Y0021230D01*
X0408800Y0021100D01*
X0408847Y0020969D01*
X0408891Y0020837D01*
X0408930Y0020704D01*
X0408965Y0020569D01*
X0408997Y0020434D01*
X0409025Y0020297D01*
X0409049Y0020160D01*
X0409069Y0020022D01*
X0409085Y0019884D01*
X0409097Y0019746D01*
X0409105Y0019607D01*
X0409109Y0019468D01*
X0409109Y0019328D01*
X0409105Y0019189D01*
X0409097Y0019050D01*
X0409085Y0018912D01*
X0409069Y0018774D01*
X0409049Y0018636D01*
X0409025Y0018499D01*
X0408997Y0018362D01*
X0408965Y0018227D01*
X0408930Y0018092D01*
X0408891Y0017959D01*
X0408847Y0017827D01*
X0408800Y0017696D01*
X0408750Y0017566D01*
X0408695Y0017438D01*
X0408637Y0017312D01*
X0408576Y0017187D01*
X0408510Y0017064D01*
X0408442Y0016943D01*
X0408370Y0016824D01*
X0408294Y0016707D01*
X0408215Y0016592D01*
X0408133Y0016480D01*
X0408048Y0016370D01*
X0407959Y0016263D01*
X0407868Y0016158D01*
X0407773Y0016056D01*
X0407676Y0015956D01*
X0407576Y0015860D01*
X0407473Y0015766D01*
X0407368Y0015675D01*
X0407260Y0015588D01*
X0407149Y0015503D01*
X0407036Y0015422D01*
X0406921Y0015344D01*
X0406803Y0015269D01*
X0406684Y0015198D01*
X0406563Y0015130D01*
X0406439Y0015066D01*
X0406314Y0015005D01*
X0406187Y0014948D01*
X0406059Y0014894D01*
X0405929Y0014844D01*
X0405797Y0014798D01*
X0405665Y0014756D01*
X0405531Y0014718D01*
X0405396Y0014683D01*
X0405261Y0014653D01*
X0405124Y0014626D01*
X0404987Y0014603D01*
X0404849Y0014584D01*
X0404711Y0014569D01*
X0404572Y0014558D01*
X0404433Y0014551D01*
X0404294Y0014548D01*
X0404155Y0014549D01*
X0404016Y0014554D01*
X0403877Y0014563D01*
X0403738Y0014576D01*
X0403600Y0014593D01*
X0403463Y0014614D01*
X0403326Y0014639D01*
X0403189Y0014667D01*
X0403054Y0014700D01*
X0402920Y0014737D01*
X0402787Y0014777D01*
X0402655Y0014821D01*
X0402524Y0014869D01*
X0402395Y0014921D01*
X0402267Y0014976D01*
X0402141Y0015035D01*
X0402017Y0015097D01*
X0401895Y0015163D01*
X0401774Y0015233D01*
X0401656Y0015306D01*
X0401539Y0015382D01*
X0401425Y0015462D01*
X0401313Y0015545D01*
X0401204Y0015631D01*
X0401097Y0015720D01*
X0400993Y0015812D01*
X0400892Y0015908D01*
X0400793Y0016006D01*
X0400697Y0016106D01*
X0400604Y0016210D01*
X0400514Y0016316D01*
X0400427Y0016425D01*
X0400343Y0016536D01*
X0400263Y0016649D01*
X0400186Y0016765D01*
X0400112Y0016883D01*
X0400041Y0017003D01*
X0399975Y0017125D01*
X0399911Y0017249D01*
X0399851Y0017375D01*
X0399795Y0017502D01*
X0399742Y0017631D01*
X0399694Y0017761D01*
X0399649Y0017893D01*
X0399607Y0018026D01*
X0399570Y0018160D01*
X0399536Y0018295D01*
X0399506Y0018430D01*
X0399481Y0018567D01*
X0399459Y0018705D01*
X0399441Y0018843D01*
X0399427Y0018981D01*
X0399417Y0019120D01*
X0399411Y0019259D01*
X0399409Y0019398D01*
X0029330Y0308768D02*
X0029332Y0308907D01*
X0029338Y0309046D01*
X0029348Y0309185D01*
X0029362Y0309323D01*
X0029380Y0309461D01*
X0029402Y0309599D01*
X0029427Y0309736D01*
X0029457Y0309871D01*
X0029491Y0310006D01*
X0029528Y0310140D01*
X0029570Y0310273D01*
X0029615Y0310405D01*
X0029663Y0310535D01*
X0029716Y0310664D01*
X0029772Y0310791D01*
X0029832Y0310917D01*
X0029896Y0311041D01*
X0029962Y0311163D01*
X0030033Y0311283D01*
X0030107Y0311401D01*
X0030184Y0311517D01*
X0030264Y0311630D01*
X0030348Y0311741D01*
X0030435Y0311850D01*
X0030525Y0311956D01*
X0030618Y0312060D01*
X0030714Y0312160D01*
X0030813Y0312258D01*
X0030914Y0312354D01*
X0031018Y0312446D01*
X0031125Y0312535D01*
X0031234Y0312621D01*
X0031346Y0312704D01*
X0031460Y0312784D01*
X0031577Y0312860D01*
X0031695Y0312933D01*
X0031816Y0313003D01*
X0031938Y0313069D01*
X0032062Y0313131D01*
X0032188Y0313190D01*
X0032316Y0313245D01*
X0032445Y0313297D01*
X0032576Y0313345D01*
X0032708Y0313389D01*
X0032841Y0313429D01*
X0032975Y0313466D01*
X0033110Y0313499D01*
X0033247Y0313527D01*
X0033384Y0313552D01*
X0033521Y0313573D01*
X0033659Y0313590D01*
X0033798Y0313603D01*
X0033937Y0313612D01*
X0034076Y0313617D01*
X0034215Y0313618D01*
X0034354Y0313615D01*
X0034493Y0313608D01*
X0034632Y0313597D01*
X0034770Y0313582D01*
X0034908Y0313563D01*
X0035045Y0313540D01*
X0035182Y0313513D01*
X0035317Y0313483D01*
X0035452Y0313448D01*
X0035586Y0313410D01*
X0035718Y0313368D01*
X0035850Y0313322D01*
X0035980Y0313272D01*
X0036108Y0313218D01*
X0036235Y0313161D01*
X0036360Y0313100D01*
X0036484Y0313036D01*
X0036605Y0312968D01*
X0036724Y0312897D01*
X0036842Y0312822D01*
X0036957Y0312744D01*
X0037070Y0312663D01*
X0037181Y0312578D01*
X0037289Y0312491D01*
X0037394Y0312400D01*
X0037497Y0312306D01*
X0037597Y0312210D01*
X0037694Y0312110D01*
X0037789Y0312008D01*
X0037880Y0311903D01*
X0037969Y0311796D01*
X0038054Y0311686D01*
X0038136Y0311574D01*
X0038215Y0311459D01*
X0038291Y0311342D01*
X0038363Y0311223D01*
X0038431Y0311102D01*
X0038497Y0310979D01*
X0038558Y0310854D01*
X0038616Y0310728D01*
X0038671Y0310600D01*
X0038721Y0310470D01*
X0038768Y0310339D01*
X0038812Y0310207D01*
X0038851Y0310074D01*
X0038886Y0309939D01*
X0038918Y0309804D01*
X0038946Y0309667D01*
X0038970Y0309530D01*
X0038990Y0309392D01*
X0039006Y0309254D01*
X0039018Y0309116D01*
X0039026Y0308977D01*
X0039030Y0308838D01*
X0039030Y0308698D01*
X0039026Y0308559D01*
X0039018Y0308420D01*
X0039006Y0308282D01*
X0038990Y0308144D01*
X0038970Y0308006D01*
X0038946Y0307869D01*
X0038918Y0307732D01*
X0038886Y0307597D01*
X0038851Y0307462D01*
X0038812Y0307329D01*
X0038768Y0307197D01*
X0038721Y0307066D01*
X0038671Y0306936D01*
X0038616Y0306808D01*
X0038558Y0306682D01*
X0038497Y0306557D01*
X0038431Y0306434D01*
X0038363Y0306313D01*
X0038291Y0306194D01*
X0038215Y0306077D01*
X0038136Y0305962D01*
X0038054Y0305850D01*
X0037969Y0305740D01*
X0037880Y0305633D01*
X0037789Y0305528D01*
X0037694Y0305426D01*
X0037597Y0305326D01*
X0037497Y0305230D01*
X0037394Y0305136D01*
X0037289Y0305045D01*
X0037181Y0304958D01*
X0037070Y0304873D01*
X0036957Y0304792D01*
X0036842Y0304714D01*
X0036724Y0304639D01*
X0036605Y0304568D01*
X0036484Y0304500D01*
X0036360Y0304436D01*
X0036235Y0304375D01*
X0036108Y0304318D01*
X0035980Y0304264D01*
X0035850Y0304214D01*
X0035718Y0304168D01*
X0035586Y0304126D01*
X0035452Y0304088D01*
X0035317Y0304053D01*
X0035182Y0304023D01*
X0035045Y0303996D01*
X0034908Y0303973D01*
X0034770Y0303954D01*
X0034632Y0303939D01*
X0034493Y0303928D01*
X0034354Y0303921D01*
X0034215Y0303918D01*
X0034076Y0303919D01*
X0033937Y0303924D01*
X0033798Y0303933D01*
X0033659Y0303946D01*
X0033521Y0303963D01*
X0033384Y0303984D01*
X0033247Y0304009D01*
X0033110Y0304037D01*
X0032975Y0304070D01*
X0032841Y0304107D01*
X0032708Y0304147D01*
X0032576Y0304191D01*
X0032445Y0304239D01*
X0032316Y0304291D01*
X0032188Y0304346D01*
X0032062Y0304405D01*
X0031938Y0304467D01*
X0031816Y0304533D01*
X0031695Y0304603D01*
X0031577Y0304676D01*
X0031460Y0304752D01*
X0031346Y0304832D01*
X0031234Y0304915D01*
X0031125Y0305001D01*
X0031018Y0305090D01*
X0030914Y0305182D01*
X0030813Y0305278D01*
X0030714Y0305376D01*
X0030618Y0305476D01*
X0030525Y0305580D01*
X0030435Y0305686D01*
X0030348Y0305795D01*
X0030264Y0305906D01*
X0030184Y0306019D01*
X0030107Y0306135D01*
X0030033Y0306253D01*
X0029962Y0306373D01*
X0029896Y0306495D01*
X0029832Y0306619D01*
X0029772Y0306745D01*
X0029716Y0306872D01*
X0029663Y0307001D01*
X0029615Y0307131D01*
X0029570Y0307263D01*
X0029528Y0307396D01*
X0029491Y0307530D01*
X0029457Y0307665D01*
X0029427Y0307800D01*
X0029402Y0307937D01*
X0029380Y0308075D01*
X0029362Y0308213D01*
X0029348Y0308351D01*
X0029338Y0308490D01*
X0029332Y0308629D01*
X0029330Y0308768D01*
M02*
