G75*
%MOIN*%
%OFA0B0*%
%FSLAX25Y25*%
%IPPOS*%
%LPD*%
%AMOC8*
5,1,8,0,0,1.08239X$1,22.5*
%
%ADD10C,0.10500*%
%ADD11R,0.02965X0.06902*%
%ADD12R,0.06902X0.02965*%
%ADD13R,0.05918X0.03162*%
%ADD14R,0.04737X0.08674*%
%ADD15R,0.08674X0.04737*%
%ADD16C,0.09658*%
%ADD17R,0.07200X0.07200*%
%ADD18OC8,0.07200*%
%ADD19R,0.03950X0.05524*%
%ADD20R,0.05524X0.03950*%
%ADD21R,0.02769X0.02769*%
%ADD22R,0.06350X0.06350*%
%ADD23C,0.08300*%
%ADD24C,0.11300*%
%ADD25R,0.04698X0.03517*%
%ADD26C,0.06800*%
%ADD27C,0.07200*%
%ADD28R,0.09461X0.05524*%
%ADD29R,0.09461X0.14580*%
%ADD30R,0.04737X0.05131*%
%ADD31R,0.08200X0.08200*%
%ADD32C,0.08200*%
%ADD33C,0.14150*%
%ADD34R,0.05524X0.06312*%
%ADD35R,0.04737X0.04737*%
%ADD36C,0.05162*%
D10*
X0034180Y0019398D03*
X0219219Y0161130D03*
X0404259Y0019398D03*
X0034180Y0308768D03*
D11*
X0091621Y0216288D03*
X0094771Y0216288D03*
X0097920Y0216288D03*
X0101070Y0216288D03*
X0104219Y0216288D03*
X0107369Y0216288D03*
X0110519Y0216288D03*
X0113668Y0216288D03*
X0116818Y0216288D03*
X0119967Y0216288D03*
X0123117Y0216288D03*
X0123117Y0171012D03*
X0119967Y0171012D03*
X0116818Y0171012D03*
X0113668Y0171012D03*
X0110519Y0171012D03*
X0107369Y0171012D03*
X0104219Y0171012D03*
X0101070Y0171012D03*
X0097920Y0171012D03*
X0094771Y0171012D03*
X0091621Y0171012D03*
D12*
X0084731Y0177902D03*
X0084731Y0181052D03*
X0084731Y0184201D03*
X0084731Y0187351D03*
X0084731Y0190500D03*
X0084731Y0193650D03*
X0084731Y0196800D03*
X0084731Y0199949D03*
X0084731Y0203099D03*
X0084731Y0206248D03*
X0084731Y0209398D03*
X0130007Y0209398D03*
X0130007Y0206248D03*
X0130007Y0203099D03*
X0130007Y0199949D03*
X0130007Y0196800D03*
X0130007Y0193650D03*
X0130007Y0190500D03*
X0130007Y0187351D03*
X0130007Y0184201D03*
X0130007Y0181052D03*
X0130007Y0177902D03*
D13*
X0062093Y0181268D03*
X0062093Y0186189D03*
X0062093Y0191111D03*
X0062093Y0196032D03*
X0052645Y0196032D03*
X0052645Y0191111D03*
X0052645Y0186189D03*
X0052645Y0181268D03*
D14*
X0074574Y0097351D03*
X0080873Y0097351D03*
X0087172Y0097351D03*
X0093471Y0097351D03*
X0099771Y0097351D03*
X0106070Y0097351D03*
X0112369Y0097351D03*
X0118668Y0097351D03*
X0124967Y0097351D03*
X0131267Y0097351D03*
X0137566Y0097351D03*
X0143865Y0097351D03*
X0150164Y0097351D03*
X0156463Y0097351D03*
X0156463Y0059949D03*
X0150164Y0059949D03*
X0143865Y0059949D03*
X0137566Y0059949D03*
X0131267Y0059949D03*
X0124967Y0059949D03*
X0118668Y0059949D03*
X0112369Y0059949D03*
X0106070Y0059949D03*
X0099771Y0059949D03*
X0093471Y0059949D03*
X0087172Y0059949D03*
X0080873Y0059949D03*
X0074574Y0059949D03*
D15*
X0064731Y0061918D03*
X0064731Y0068217D03*
X0064731Y0082784D03*
X0064731Y0089083D03*
X0064731Y0095382D03*
X0158432Y0084949D03*
X0158432Y0078650D03*
X0158432Y0072351D03*
D16*
X0205479Y0043650D03*
X0232684Y0043650D03*
X0252369Y0118650D03*
X0187369Y0118650D03*
X0187369Y0193650D03*
X0252369Y0193650D03*
X0402369Y0193650D03*
X0402369Y0118650D03*
X0382684Y0043650D03*
X0055479Y0043650D03*
X0037369Y0118650D03*
X0037369Y0193650D03*
D17*
X0052369Y0238650D03*
D18*
X0042369Y0238650D03*
X0042369Y0248650D03*
X0052369Y0248650D03*
X0052369Y0258650D03*
X0042369Y0258650D03*
D19*
X0044475Y0179713D03*
X0037389Y0179713D03*
X0106576Y0160690D03*
X0113662Y0160690D03*
X0139076Y0162900D03*
X0146162Y0162900D03*
X0080912Y0108650D03*
X0073826Y0108650D03*
X0111326Y0106150D03*
X0118412Y0106150D03*
X0131326Y0106150D03*
X0138412Y0106150D03*
X0125912Y0048650D03*
X0118826Y0048650D03*
D20*
X0052369Y0085107D03*
X0052369Y0092193D03*
X0106219Y0141157D03*
X0106219Y0148243D03*
X0139239Y0193937D03*
X0139239Y0201023D03*
D21*
X0130839Y0162770D03*
X0126839Y0162770D03*
X0132369Y0118150D03*
X0132369Y0114150D03*
X0119869Y0114150D03*
X0119869Y0118150D03*
D22*
X0222369Y0243650D03*
X0232369Y0243650D03*
X0242369Y0243650D03*
X0302369Y0243650D03*
X0312369Y0243650D03*
X0322369Y0243650D03*
X0332369Y0243650D03*
D23*
X0397369Y0288650D03*
D24*
X0407408Y0278611D03*
X0387330Y0278611D03*
X0387330Y0298689D03*
X0407408Y0298689D03*
D25*
X0352448Y0252390D03*
X0352448Y0248650D03*
X0352448Y0244910D03*
X0342251Y0244910D03*
X0342251Y0252390D03*
X0292487Y0242390D03*
X0282290Y0242390D03*
X0282290Y0238650D03*
X0282290Y0234910D03*
X0292487Y0234910D03*
D26*
X0062369Y0275650D02*
X0062369Y0281650D01*
X0052369Y0281650D02*
X0052369Y0275650D01*
X0042369Y0275650D02*
X0042369Y0281650D01*
X0032369Y0281650D02*
X0032369Y0275650D01*
D27*
X0109495Y0258335D03*
X0117369Y0258335D03*
X0125243Y0258335D03*
X0144495Y0258335D03*
X0152369Y0258335D03*
X0160243Y0258335D03*
X0179495Y0258335D03*
X0187369Y0258335D03*
X0195243Y0258335D03*
D28*
X0286700Y0202705D03*
X0286700Y0193650D03*
X0286700Y0184595D03*
X0286700Y0167705D03*
X0286700Y0158650D03*
X0286700Y0149595D03*
D29*
X0311109Y0158650D03*
X0311109Y0193650D03*
D30*
X0272369Y0195304D03*
X0272369Y0201996D03*
X0272369Y0186996D03*
X0272369Y0180304D03*
X0272369Y0171996D03*
X0272369Y0165304D03*
X0272369Y0156996D03*
X0272369Y0150304D03*
D31*
X0082369Y0278650D03*
D32*
X0092369Y0278650D03*
X0102369Y0278650D03*
X0112369Y0278650D03*
X0122369Y0278650D03*
X0132369Y0278650D03*
D33*
X0152369Y0303650D03*
X0172369Y0303650D03*
X0192369Y0303650D03*
D34*
X0221871Y0298945D03*
X0233682Y0298945D03*
D35*
X0114186Y0154580D03*
X0106312Y0154580D03*
D36*
X0093235Y0133571D03*
X0094869Y0126150D03*
X0119869Y0126150D03*
X0101701Y0180815D03*
X0093235Y0180815D03*
X0072395Y0194615D03*
X0069869Y0181150D03*
X0077369Y0223650D03*
X0095039Y0223740D03*
X0119869Y0223650D03*
X0127369Y0218650D03*
X0137369Y0216150D03*
X0137369Y0223650D03*
X0142369Y0206150D03*
X0152369Y0188650D03*
X0162369Y0181150D03*
X0170219Y0192640D03*
X0179869Y0226150D03*
X0162369Y0248650D03*
X0083599Y0247010D03*
X0037369Y0293650D03*
X0234967Y0153256D03*
X0262369Y0183650D03*
X0242369Y0223650D03*
X0270149Y0229980D03*
X0257279Y0253640D03*
X0367369Y0248650D03*
X0180839Y0051490D03*
M02*
